<svg viewBox="0 0 512 512" xmlns="http://www.w3.org/2000/svg" fill-rule="evenodd" clip-rule="evenodd" stroke-linejoin="round" stroke-miterlimit="1.414"><path d="M28.638 138.268h-.014C71.23 56.123 157.06 0 256 0c62.115 0 119.068 22.126 163.404 58.936l-82.933 67.896C313.136 112.246 285.552 103.82 256 103.82c-66.729 0-123.429 42.957-143.965 102.724l-.002-.001.001.001c-5.317 15.501-8.215 32.141-8.215 49.456.002 18.792 3.406 36.797 9.651 53.408v.001c21.619 57.698 77.278 98.771 142.53 98.771 28.047 0 54.323-7.582 76.87-20.818l.002.002v-.002c29.932-17.554 53.324-45.025 65.646-77.911h-136.89V208.176h245.899C510.467 223.662 512 239.655 512 256c0 18.328-1.927 36.206-5.598 53.451-12.462 58.683-45.025 109.925-90.134 146.187l-.014-.014h-.001l.014.014C372.396 490.901 316.666 512 256 512c-97.491 0-182.252-54.491-225.491-134.681l.001-.001h-.001C11.042 341.211 0 299.9 0 256c0-42.451 10.324-82.483 28.624-117.732h.014z" fill="#263238" fill-rule="nonzero"/></svg>
