<svg width="156" height="96" fill="none" xmlns="http://www.w3.org/2000/svg">
	<rect x="18" y="13" width="120" height="70" rx="6" fill="var(--theme--background)" class="glow"/>
	<rect x="19" y="14" width="118" height="68" rx="5" stroke="var(--theme--primary)" stroke-width="2"/>
	<rect x="24" y="19" width="108" height="58" rx="2" fill="var(--theme--primary)" fill-opacity=".25"/>
	<mask id="b" fill="#fff">
		<path fill-rule="evenodd" clip-rule="evenodd" d="M87.666 26.586A2 2 0 0 0 86.252 26H63a2 2 0 0 0-2 2v40a2 2 0 0 0 2 2h30a2 2 0 0 0 2-2V34.748a2 2 0 0 0-.586-1.414l-6.748-6.748ZM68 52a2 2 0 0 1 2-2h6a2 2 0 0 1 2 2v2a2 2 0 0 1-2 2h-6a2 2 0 0 1-2-2v-2Zm2-12a2 2 0 0 0-2 2v2a2 2 0 0 0 2 2h16a2 2 0 0 0 2-2v-2a2 2 0 0 0-2-2H70Z"/>
	</mask>
	<path fill-rule="evenodd" clip-rule="evenodd" d="M87.666 26.586A2 2 0 0 0 86.252 26H63a2 2 0 0 0-2 2v40a2 2 0 0 0 2 2h30a2 2 0 0 0 2-2V34.748a2 2 0 0 0-.586-1.414l-6.748-6.748ZM68 52a2 2 0 0 1 2-2h6a2 2 0 0 1 2 2v2a2 2 0 0 1-2 2h-6a2 2 0 0 1-2-2v-2Zm2-12a2 2 0 0 0-2 2v2a2 2 0 0 0 2 2h16a2 2 0 0 0 2-2v-2a2 2 0 0 0-2-2H70Z" fill="var(--theme--primary)"/>
	<path d="M87.666 26.586 86.252 28l1.414-1.414Zm6.748 6.748 1.414-1.414-1.414 1.414ZM86.252 28l2.828-2.828A4 4 0 0 0 86.252 24v4ZM63 28h23.252v-4H63v4Zm0 0v-4a4 4 0 0 0-4 4h4Zm0 40V28h-4v40h4Zm0 0h-4a4 4 0 0 0 4 4v-4Zm30 0H63v4h30v-4Zm0 0v4a4 4 0 0 0 4-4h-4Zm0-33.252V68h4V34.748h-4Zm0 0h4a4 4 0 0 0-1.172-2.828L93 34.748ZM86.252 28 93 34.748l2.828-2.828-6.748-6.748L86.252 28ZM70 48a4 4 0 0 0-4 4h4v-4Zm6 0h-6v4h6v-4Zm4 4a4 4 0 0 0-4-4v4h4Zm0 2v-2h-4v2h4Zm-4 4a4 4 0 0 0 4-4h-4v4Zm-6 0h6v-4h-6v4Zm-4-4a4 4 0 0 0 4 4v-4h-4Zm0-2v2h4v-2h-4Zm4-10v-4a4 4 0 0 0-4 4h4Zm0 2v-2h-4v2h4Zm0 0h-4a4 4 0 0 0 4 4v-4Zm16 0H70v4h16v-4Zm0 0v4a4 4 0 0 0 4-4h-4Zm0-2v2h4v-2h-4Zm0 0h4a4 4 0 0 0-4-4v4Zm-16 0h16v-4H70v4Z" fill="var(--theme--primary)" mask="url(#b)"/>
</svg>
