<svg width="495" height="555" viewBox="0 0 495 555" fill="none" xmlns="http://www.w3.org/2000/svg">
<g opacity="0.2" filter="url(#filter0_d_1215_3749)">
<rect width="461.79" height="331.61" rx="4" transform="matrix(0.866025 0.5 -0.785749 0.618545 300 117)" fill="#745EFF"/>
</g>
<g filter="url(#filter1_d_1215_3749)">
<rect width="461.79" height="331.61" rx="4" transform="matrix(0.866025 0.5 -0.785749 0.618545 300 77)" fill="#745EFF"/>
</g>
<g filter="url(#filter2_dd_1215_3749)">
<rect width="461.795" height="331.612" rx="4" transform="matrix(0.866025 0.5 -0.780649 0.62497 297.872 37)" fill="white"/>
</g>
<path d="M294.749 39.4999C296.474 38.1192 299.423 37.8954 301.336 39L694.334 265.897C696.247 267.002 696.4 269.017 694.675 270.397L596.676 348.853L196.75 117.956L294.749 39.4999Z" fill="#172940"/>
<g filter="url(#filter3_dd_1215_3749)">
<rect width="409.981" height="225.392" rx="4" transform="matrix(0.866025 0.5 -0.780649 0.62497 259.635 98.5271)" fill="white"/>
</g>
<rect opacity="0.8" width="39.5084" height="10.3629" rx="5.18143" transform="matrix(0.866025 0.5 -0.780649 0.62497 272.781 88.0028)" fill="white"/>
<rect opacity="0.2" width="33.0316" height="10.3629" rx="5.18143" transform="matrix(0.866025 0.5 -0.780649 0.62497 312.606 110.995)" fill="white"/>
<rect opacity="0.2" width="33.0316" height="10.3629" rx="5.18143" transform="matrix(0.866025 0.5 -0.780649 0.62497 392.253 156.98)" fill="white"/>
<rect opacity="0.2" width="39.5084" height="10.3629" rx="5.18143" transform="matrix(0.866025 0.5 -0.780649 0.62497 426.468 176.735)" fill="white"/>
<rect opacity="0.2" width="45.9852" height="10.3629" rx="5.18143" transform="matrix(0.866025 0.5 -0.780649 0.62497 346.821 130.75)" fill="white"/>
<rect width="125.65" height="10.3629" rx="5.18143" transform="matrix(0.866025 0.5 -0.780649 0.62497 249.114 171.875)" fill="#E4EAF1"/>
<rect width="10.3629" height="10.3629" rx="5.18143" transform="matrix(0.866025 0.5 -0.780649 0.62497 485.253 308.211)" fill="#E4EAF1"/>
<rect width="10.3629" height="10.3629" rx="5.18143" transform="matrix(0.866025 0.5 -0.780649 0.62497 465.062 296.553)" fill="#745EFF"/>
<rect width="10.3629" height="10.3629" rx="5.18143" transform="matrix(0.866025 0.5 -0.780649 0.62497 444.87 284.894)" fill="#E4EAF1"/>
<rect width="15.5443" height="15.5443" rx="7.77214" transform="matrix(0.866025 0.5 -0.780649 0.62497 226.455 156.006)" fill="#745EFF"/>
<rect width="10.3629" height="10.3629" rx="5.18143" transform="matrix(0.866025 0.5 -0.780649 0.62497 424.677 273.236)" fill="#745EFF"/>
<rect width="108.81" height="10.3629" rx="5.18143" transform="matrix(0.866025 0.5 -0.780649 0.62497 220.799 194.542)" fill="#E4EAF1"/>
<rect width="10.3629" height="10.3629" rx="5.18143" transform="matrix(0.866025 0.5 -0.780649 0.62497 497.325 354.195)" fill="#745EFF"/>
<rect width="10.3629" height="10.3629" rx="5.18143" transform="matrix(0.866025 0.5 -0.780649 0.62497 477.134 342.537)" fill="#E4EAF1"/>
<rect width="10.3629" height="10.3629" rx="5.18143" transform="matrix(0.866025 0.5 -0.780649 0.62497 456.942 330.879)" fill="#E4EAF1"/>
<rect width="10.3629" height="10.3629" rx="5.18143" transform="matrix(0.866025 0.5 -0.780649 0.62497 436.748 319.22)" fill="#E4EAF1"/>
<rect width="10.3629" height="10.3629" rx="5.18143" transform="matrix(0.866025 0.5 -0.780649 0.62497 416.555 307.562)" fill="#E4EAF1"/>
<rect width="15.5443" height="15.5443" rx="7.77214" transform="matrix(0.866025 0.5 -0.780649 0.62497 198.14 178.674)" fill="#745EFF"/>
<rect width="10.3629" height="10.3629" rx="5.18143" transform="matrix(0.866025 0.5 -0.780649 0.62497 396.363 295.904)" fill="#E4EAF1"/>
<rect width="104.276" height="10.3629" rx="5.18143" transform="matrix(0.866025 0.5 -0.780649 0.62497 164.171 239.878)" fill="#E4EAF1"/>
<rect width="10.3629" height="10.3629" rx="5.18143" transform="matrix(0.866025 0.5 -0.780649 0.62497 440.698 399.53)" fill="#E4EAF1"/>
<rect width="10.3629" height="10.3629" rx="5.18143" transform="matrix(0.866025 0.5 -0.780649 0.62497 420.505 387.872)" fill="#E4EAF1"/>
<rect width="10.3629" height="10.3629" rx="5.18143" transform="matrix(0.866025 0.5 -0.780649 0.62497 400.312 376.214)" fill="#E4EAF1"/>
<rect width="10.3629" height="10.3629" rx="5.18143" transform="matrix(0.866025 0.5 -0.780649 0.62497 380.12 364.556)" fill="#745EFF"/>
<rect width="10.3629" height="10.3629" rx="5.18143" transform="matrix(0.866025 0.5 -0.780649 0.62497 359.927 352.897)" fill="#745EFF"/>
<rect width="15.5443" height="15.5443" rx="7.77214" transform="matrix(0.866025 0.5 -0.780649 0.62497 141.514 224.01)" fill="#745EFF"/>
<rect width="10.3629" height="10.3629" rx="5.18143" transform="matrix(0.866025 0.5 -0.780649 0.62497 339.734 341.239)" fill="#E4EAF1"/>
<rect width="116.582" height="10.3629" rx="5.18143" transform="matrix(0.866025 0.5 -0.780649 0.62497 192.486 217.21)" fill="#E4EAF1"/>
<rect width="10.3629" height="10.3629" rx="5.18143" transform="matrix(0.866025 0.5 -0.780649 0.62497 469.01 376.863)" fill="#E4EAF1"/>
<rect width="10.3629" height="10.3629" rx="5.18143" transform="matrix(0.866025 0.5 -0.780649 0.62497 448.82 365.204)" fill="#745EFF"/>
<rect width="10.3629" height="10.3629" rx="5.18143" transform="matrix(0.866025 0.5 -0.780649 0.62497 428.627 353.546)" fill="#745EFF"/>
<rect width="10.3629" height="10.3629" rx="5.18143" transform="matrix(0.866025 0.5 -0.780649 0.62497 408.434 341.888)" fill="#E4EAF1"/>
<rect width="10.3629" height="10.3629" rx="5.18143" transform="matrix(0.866025 0.5 -0.780649 0.62497 388.241 330.23)" fill="#E4EAF1"/>
<rect width="15.5443" height="15.5443" rx="7.77214" transform="matrix(0.866025 0.5 -0.780649 0.62497 169.827 201.342)" fill="#745EFF"/>
<rect width="10.3629" height="10.3629" rx="5.18143" transform="matrix(0.866025 0.5 -0.780649 0.62497 368.048 318.572)" fill="#E4EAF1"/>
<rect width="119.173" height="15.5443" rx="7.77214" transform="matrix(0.866025 0.5 -0.780649 0.62497 261.848 127.672)" fill="#A2B5CD"/>
<path fill-rule="evenodd" clip-rule="evenodd" d="M320.385 74.6024C320.305 74.5241 320.242 74.4556 320.195 74.386C320.169 74.3461 320.15 74.3075 320.138 74.2691C320.122 74.2158 320.158 74.1607 320.216 74.1207C320.629 73.8398 320.922 73.5469 321.338 73.2691C323.08 72.1124 323.677 73.1422 324.916 73.5042C325.583 73.7032 326.373 73.8035 327.099 73.5417C327.313 73.4647 327.426 73.3036 327.426 73.142C327.431 72.2777 327.301 71.4337 327.037 70.6186C326.123 67.8347 323.516 65.3704 320.101 63.8966C319.884 63.8031 319.59 63.8992 319.556 64.0793C319.46 64.5882 319.495 65.0906 319.646 65.5673C319.705 65.7535 319.426 65.8729 319.289 65.7098C319.146 65.5379 319.012 65.3329 318.928 65.0991C318.906 65.0387 318.843 64.9899 318.757 64.9715C318.603 64.9389 318.413 64.8984 318.227 64.8611C317.981 64.8115 317.739 64.9547 317.78 65.1298C318.173 66.8323 320.017 68.1646 322.474 68.5081C322.745 68.546 322.842 68.9051 322.611 69.0238C322.449 69.1072 322.264 69.2066 322.053 69.325C319.609 70.6757 318.497 69.8199 317.434 68.5102C315.38 65.9516 312.813 65.5737 312.816 63.437C312.816 63.1742 312.565 62.9325 312.184 62.9768C311.699 63.0333 311.242 63.208 310.905 63.4776C310.457 63.8365 310.314 64.2876 310.438 64.6959C310.465 64.7844 310.596 64.8298 310.728 64.8117C310.737 64.8105 310.745 64.8094 310.754 64.8083C311.023 64.7734 310.927 64.9622 310.661 65.0116C310.237 65.0906 309.84 65.2761 309.185 65.5672C307.854 66.158 306.99 67.051 305.115 66.3321C304.223 65.8706 303.719 66.2972 302.632 66.74C301.404 67.254 300.543 67.3353 299.019 67.4716C298.637 67.5058 298.311 67.7374 298.42 67.9843C298.554 68.2888 298.867 68.4602 299.292 68.5472C300.539 68.796 302.293 68.3532 303.632 68.1841C305.126 67.9975 306.557 69.2737 308.63 69.4429C309.495 69.518 310.253 69.4401 310.838 69.0793C311.071 68.9358 311.436 69.005 311.285 69.1921C311.245 69.2411 311.203 69.2894 311.158 69.3369C311.073 69.4275 311.099 69.546 311.214 69.6106C312.6 70.3894 313.058 72.4157 314.27 73.7133C314.397 73.8489 314.702 73.778 314.753 73.6143C314.79 73.4941 314.837 73.3766 314.894 73.2627C314.996 73.0602 315.389 73.1813 315.374 73.392C315.32 74.1168 315.639 74.9202 316.567 75.5452C316.958 75.8138 317.47 76.0452 318.085 76.2181C318.818 76.4271 319.554 76.5738 320.083 77.0291C320.479 77.3649 320.701 77.7928 320.612 78.2443C320.496 78.845 321.109 79.3993 322.003 79.3C322.223 79.2756 322.392 79.1499 322.459 79.0026C323.419 76.876 321.176 75.3902 320.385 74.6024Z" fill="white"/>
<path d="M337.892 78.8054C338.162 78.6516 338.538 78.6353 338.81 78.7656L339.882 79.2799C339.915 79.2955 339.938 79.3184 339.949 79.345C339.968 79.393 339.942 79.4457 339.884 79.4789L333.032 83.3968C332.743 83.562 332.335 83.5682 332.064 83.4114L331.368 83.0094C331.289 82.964 331.293 82.8783 331.376 82.8301C331.505 82.7558 331.432 82.6095 331.269 82.6024C330.638 82.5744 330.089 82.4261 329.624 82.1575C328.979 81.7853 328.654 81.3106 328.648 80.7335C328.639 80.1545 328.934 79.6252 329.534 79.1455C330.301 78.5315 331.201 78.1722 332.236 78.0677C333.27 77.9631 334.193 78.1449 335.004 78.6131C335.406 78.8455 335.679 79.1108 335.823 79.409C335.919 79.6085 336.296 79.7145 336.543 79.5739L337.892 78.8054ZM331.253 81.4445C331.651 81.6747 332.108 81.7606 332.621 81.7021C333.128 81.6397 333.569 81.4587 333.943 81.1589C334.27 80.8974 334.432 80.6278 334.43 80.3501C334.428 80.0723 334.262 79.8385 333.933 79.6485C333.531 79.4163 333.077 79.3314 332.57 79.3938C332.063 79.4518 331.62 79.6319 331.243 79.9341C330.919 80.1932 330.759 80.4637 330.761 80.7458C330.763 81.0235 330.927 81.2564 331.253 81.4445Z" fill="white"/>
<path d="M340.811 81.1051C340.575 80.9688 340.445 80.7908 340.422 80.5711C340.402 80.3534 340.5 80.1581 340.716 79.9854C340.989 79.7672 341.332 79.6456 341.747 79.6206C342.154 79.5919 342.511 79.6657 342.817 79.8423C343.05 79.9766 343.173 80.1551 343.187 80.3776C343.197 80.6026 343.099 80.7978 342.893 80.9633C342.623 81.1792 342.284 81.2994 341.876 81.3238C341.468 81.3526 341.113 81.2797 340.811 81.1051ZM335.757 84.9706C335.468 85.1354 335.06 85.1414 334.789 84.9847L334.358 84.7359C334.008 84.5341 334.029 84.1533 334.401 83.9408L338.707 81.4795C338.996 81.3144 339.404 81.3083 339.675 81.4651L340.11 81.7162C340.46 81.9181 340.439 82.2992 340.067 82.5116L335.757 84.9706Z" fill="white"/>
<path d="M345.399 84.7994C345.423 84.8332 345.424 84.8732 345.405 84.9102C345.384 84.9492 345.342 84.9817 345.287 85L343.906 85.4644C343.86 85.4801 343.808 85.4849 343.758 85.4781C343.683 85.4676 343.624 85.4305 343.593 85.3823C343.501 85.2341 343.356 85.1064 343.158 84.9993C342.74 84.7576 342.264 84.6937 341.733 84.8079C341.533 84.8535 341.171 85.0199 340.646 85.3073L338.497 86.5483C338.208 86.7152 337.798 86.7221 337.525 86.5646L337.087 86.3118C336.738 86.11 336.759 85.7292 337.13 85.5167L341.437 83.0554C341.726 82.8903 342.133 82.8842 342.405 83.041L342.971 83.3679C343.113 83.4496 343.105 83.6037 342.956 83.6907C342.831 83.7633 342.922 83.9106 343.081 83.905C343.225 83.8999 343.363 83.9023 343.495 83.9121C343.994 83.9438 344.423 84.0599 344.785 84.2604C345.043 84.4092 345.247 84.5889 345.399 84.7994Z" fill="white"/>
<path d="M348.252 86.2623C349.067 86.7324 349.445 87.2747 349.386 87.8892C349.328 88.5037 348.893 89.0328 348.082 89.4765C347.847 89.6165 347.51 89.5921 347.285 89.4625L344.497 87.8526C344.202 87.6827 343.718 87.6997 343.571 87.958C343.499 88.0852 343.474 88.2145 343.496 88.346C343.539 88.6185 343.74 88.8583 344.099 89.0656C344.605 89.3578 345.219 89.4927 345.94 89.4703C345.983 89.469 346.025 89.4781 346.057 89.4966C346.095 89.5185 346.116 89.5513 346.115 89.5864L346.082 90.2852C346.08 90.3272 346.052 90.3676 346.004 90.3956C345.97 90.4155 345.928 90.4281 345.885 90.431C344.743 90.5066 343.722 90.2889 342.823 89.7779C342.068 89.3423 341.674 88.8175 341.64 88.2035C341.6 87.59 341.939 87.0302 342.657 86.5241C343.135 86.1687 343.691 85.9159 344.325 85.7657C344.949 85.6142 345.588 85.5743 346.242 85.6463C346.997 85.7192 347.667 85.9246 348.252 86.2623ZM345.915 86.7225C345.409 86.7618 345.335 87.191 345.711 87.4083L346.631 87.9393C346.93 88.1116 347.426 88.0865 347.531 87.8164C347.549 87.7682 347.562 87.719 347.568 87.669C347.605 87.4099 347.45 87.1818 347.101 86.9847C346.792 86.8062 346.447 86.7163 346.065 86.7148C346.015 86.7161 345.965 86.7187 345.915 86.7225Z" fill="white"/>
<path d="M348.633 93.1326C347.902 92.7104 347.514 92.1993 347.468 91.5992C347.416 90.9996 347.718 90.4371 348.375 89.9119C348.803 89.5689 349.303 89.3127 349.875 89.1434C350.45 88.9717 351.043 88.8995 351.656 88.9269C352.539 88.9705 353.315 89.1852 353.983 89.5709C354.864 90.0794 355.275 90.6807 355.218 91.3749C355.215 91.4148 355.183 91.4519 355.134 91.4754C355.101 91.4914 355.062 91.5 355.022 91.5L353.448 91.4986C353.408 91.4986 353.369 91.4891 353.339 91.4717C353.296 91.447 353.275 91.4089 353.279 91.3694C353.31 91.0197 353.127 90.7298 352.728 90.4998C352.343 90.2772 351.917 90.1782 351.452 90.2026C350.908 90.2352 350.429 90.417 350.016 90.748C349.68 91.0166 349.519 91.2927 349.531 91.5762C349.536 91.8602 349.715 92.1039 350.067 92.3073C350.433 92.518 350.877 92.6089 351.401 92.5799C351.448 92.5772 351.495 92.5864 351.53 92.6068C351.568 92.6287 351.589 92.6611 351.589 92.6961L351.586 93.5901C351.586 93.6306 351.558 93.67 351.512 93.6969C351.479 93.7155 351.44 93.727 351.399 93.7293C350.344 93.7868 349.422 93.5879 348.633 93.1326Z" fill="white"/>
<path d="M359.562 93.8138C359.274 93.9801 358.864 93.9867 358.592 93.8295L358.061 93.523C357.79 93.3663 357.382 93.3723 357.093 93.5374L355.404 94.5027C354.895 94.791 354.84 95.0503 355.239 95.2806C355.405 95.3764 355.608 95.4318 355.848 95.4471C355.911 95.451 355.964 95.4782 355.982 95.5192C355.993 95.5443 355.989 95.5719 355.971 95.5964L355.455 96.3109C355.419 96.3608 355.357 96.4001 355.282 96.4206C355.239 96.4323 355.194 96.4375 355.149 96.435C354.561 96.4021 354.039 96.2535 353.581 95.9893C353.03 95.6708 352.741 95.3062 352.717 94.8956C352.686 94.4898 353.007 94.0909 353.679 93.699L355.572 92.6238C355.817 92.485 355.831 92.2352 355.602 92.1029C355.373 91.9712 355.386 91.7228 355.628 91.5835L355.945 91.4015C356.217 91.2446 356.603 91.2384 356.86 91.3867C357.116 91.5347 357.502 91.5288 357.774 91.3725L358.509 90.9514C358.778 90.7968 359.156 90.7798 359.428 90.9102L360.479 91.4128C360.511 91.4284 360.535 91.4513 360.545 91.4779C360.564 91.5258 360.538 91.5786 360.48 91.6117L359.57 92.1299C359.197 92.3423 359.176 92.7237 359.526 92.9258L359.646 92.9953C359.995 93.1966 359.975 93.5762 359.605 93.7891L359.562 93.8138Z" fill="white"/>
<path d="M361.082 97.5646L363.836 95.9883C364.125 95.8229 364.533 95.8166 364.805 95.9735L365.23 96.2194C365.58 96.421 365.559 96.8015 365.188 97.0141L360.886 99.4776C360.597 99.643 360.189 99.6493 359.917 99.4924L359.237 99.0996C359.155 99.0526 359.16 98.9638 359.247 98.9143C359.379 98.8385 359.307 98.6891 359.14 98.6812C358.488 98.6499 357.934 98.5024 357.477 98.2387C356.866 97.8857 356.585 97.4738 356.635 97.0033C356.685 96.5327 357.068 96.089 357.783 95.6721L360.551 94.0908C360.84 93.9258 361.247 93.9197 361.519 94.0764L361.959 94.3309C362.309 94.5326 362.288 94.9134 361.917 95.126L359.45 96.5356C359.143 96.7174 358.97 96.9042 358.93 97.0961C358.894 97.2856 359 97.4523 359.25 97.5962C359.599 97.7977 359.988 97.8615 360.418 97.7876C360.623 97.7656 360.844 97.6912 361.082 97.5646Z" fill="white"/>
<path d="M363.349 101.641C362.843 101.349 362.474 101.027 362.241 100.673C362.009 100.338 361.926 100.029 361.99 99.7483C361.998 99.7135 362.027 99.6819 362.067 99.6589C362.104 99.6381 362.148 99.6256 362.194 99.6233L363.6 99.5523C363.64 99.5503 363.678 99.5587 363.708 99.5757C363.748 99.5987 363.766 99.6345 363.761 99.6712C363.74 99.8433 363.797 100.04 363.93 100.262C364.076 100.507 364.28 100.705 364.543 100.857C364.749 100.976 364.944 101.039 365.129 101.047C365.318 101.056 365.475 101.011 365.6 100.91C365.675 100.85 365.713 100.777 365.712 100.69C365.718 100.602 365.698 100.518 365.65 100.437C365.585 100.334 365.517 100.237 365.447 100.146C365.297 99.9689 365.175 99.8078 365.081 99.6629C364.998 99.5281 364.924 99.3698 364.86 99.188C364.736 98.8196 364.868 98.4807 365.254 98.1713C365.704 97.8115 366.273 97.6347 366.963 97.641C367.654 97.6472 368.329 97.8413 368.991 98.2231C369.423 98.4726 369.754 98.7568 369.985 99.0758C370.194 99.3701 370.278 99.6512 370.236 99.9192C370.23 99.9557 370.202 99.9894 370.16 100.014C370.122 100.035 370.076 100.048 370.028 100.05L368.705 100.094C368.658 100.096 368.613 100.086 368.579 100.066C368.537 100.042 368.514 100.005 368.514 99.9668C368.511 99.788 368.455 99.615 368.345 99.4478C368.223 99.2617 368.058 99.1091 367.852 98.9902C367.673 98.8865 367.497 98.8304 367.325 98.8218C367.156 98.8107 367.018 98.8472 366.914 98.9311C366.848 98.9839 366.824 99.0465 366.842 99.1189C366.862 99.213 366.902 99.3022 366.962 99.3866C366.973 99.401 367.002 99.4444 367.049 99.5169C367.102 99.5888 367.151 99.6545 367.197 99.714C367.254 99.7922 367.302 99.857 367.341 99.9083C367.585 100.281 367.702 100.608 367.692 100.891C367.684 101.172 367.525 101.437 367.213 101.686C366.728 102.075 366.134 102.262 365.43 102.248C364.724 102.237 364.03 102.034 363.349 101.641Z" fill="white"/>
<defs>
<filter id="filter0_d_1215_3749" x="39.3674" y="117.293" width="660.625" height="437.426" filterUnits="userSpaceOnUse" color-interpolation-filters="sRGB">
<feFlood flood-opacity="0" result="BackgroundImageFix"/>
<feColorMatrix in="SourceAlpha" type="matrix" values="0 0 0 0 0 0 0 0 0 0 0 0 0 0 0 0 0 0 127 0" result="hardAlpha"/>
<feOffset dy="1"/>
<feGaussianBlur stdDeviation="1"/>
<feComposite in2="hardAlpha" operator="out"/>
<feColorMatrix type="matrix" values="0 0 0 0 0.0901961 0 0 0 0 0.160784 0 0 0 0 0.25098 0 0 0 0.1 0"/>
<feBlend mode="normal" in2="BackgroundImageFix" result="effect1_dropShadow_1215_3749"/>
<feBlend mode="normal" in="SourceGraphic" in2="effect1_dropShadow_1215_3749" result="shape"/>
</filter>
<filter id="filter1_d_1215_3749" x="39.3674" y="77.2926" width="660.625" height="437.426" filterUnits="userSpaceOnUse" color-interpolation-filters="sRGB">
<feFlood flood-opacity="0" result="BackgroundImageFix"/>
<feColorMatrix in="SourceAlpha" type="matrix" values="0 0 0 0 0 0 0 0 0 0 0 0 0 0 0 0 0 0 127 0" result="hardAlpha"/>
<feOffset dy="1"/>
<feGaussianBlur stdDeviation="1"/>
<feComposite in2="hardAlpha" operator="out"/>
<feColorMatrix type="matrix" values="0 0 0 0 0.0901961 0 0 0 0 0.160784 0 0 0 0 0.25098 0 0 0 0.1 0"/>
<feBlend mode="normal" in2="BackgroundImageFix" result="effect1_dropShadow_1215_3749"/>
<feBlend mode="normal" in="SourceGraphic" in2="effect1_dropShadow_1215_3749" result="shape"/>
</filter>
<filter id="filter2_dd_1215_3749" x="0.922852" y="0.298279" width="734.952" height="515.548" filterUnits="userSpaceOnUse" color-interpolation-filters="sRGB">
<feFlood flood-opacity="0" result="BackgroundImageFix"/>
<feColorMatrix in="SourceAlpha" type="matrix" values="0 0 0 0 0 0 0 0 0 0 0 0 0 0 0 0 0 0 127 0" result="hardAlpha"/>
<feOffset dy="2"/>
<feGaussianBlur stdDeviation="20"/>
<feColorMatrix type="matrix" values="0 0 0 0 0.0901961 0 0 0 0 0.160784 0 0 0 0 0.25098 0 0 0 0.05 0"/>
<feBlend mode="normal" in2="BackgroundImageFix" result="effect1_dropShadow_1215_3749"/>
<feColorMatrix in="SourceAlpha" type="matrix" values="0 0 0 0 0 0 0 0 0 0 0 0 0 0 0 0 0 0 127 0" result="hardAlpha"/>
<feOffset dy="5"/>
<feGaussianBlur stdDeviation="5"/>
<feColorMatrix type="matrix" values="0 0 0 0 0.0901961 0 0 0 0 0.160784 0 0 0 0 0.25098 0 0 0 0.1 0"/>
<feBlend mode="normal" in2="effect1_dropShadow_1215_3749" result="effect2_dropShadow_1215_3749"/>
<feBlend mode="normal" in="SourceGraphic" in2="effect2_dropShadow_1215_3749" result="shape"/>
</filter>
<filter id="filter3_dd_1215_3749" x="45.6064" y="61.8254" width="607.16" height="423.257" filterUnits="userSpaceOnUse" color-interpolation-filters="sRGB">
<feFlood flood-opacity="0" result="BackgroundImageFix"/>
<feColorMatrix in="SourceAlpha" type="matrix" values="0 0 0 0 0 0 0 0 0 0 0 0 0 0 0 0 0 0 127 0" result="hardAlpha"/>
<feOffset dy="2"/>
<feGaussianBlur stdDeviation="20"/>
<feColorMatrix type="matrix" values="0 0 0 0 0.0901961 0 0 0 0 0.160784 0 0 0 0 0.25098 0 0 0 0.05 0"/>
<feBlend mode="normal" in2="BackgroundImageFix" result="effect1_dropShadow_1215_3749"/>
<feColorMatrix in="SourceAlpha" type="matrix" values="0 0 0 0 0 0 0 0 0 0 0 0 0 0 0 0 0 0 127 0" result="hardAlpha"/>
<feOffset dy="5"/>
<feGaussianBlur stdDeviation="5"/>
<feColorMatrix type="matrix" values="0 0 0 0 0.0901961 0 0 0 0 0.160784 0 0 0 0 0.25098 0 0 0 0.1 0"/>
<feBlend mode="normal" in2="effect1_dropShadow_1215_3749" result="effect2_dropShadow_1215_3749"/>
<feBlend mode="normal" in="SourceGraphic" in2="effect2_dropShadow_1215_3749" result="shape"/>
</filter>
</defs>
</svg>
