<svg width="392" height="60" viewBox="0 0 392 60" fill="none" xmlns="http://www.w3.org/2000/svg">
<path fill-rule="evenodd" clip-rule="evenodd" d="M78.53 37.8635C78.0742 37.7495 77.6944 37.6356 77.3525 37.4836C77.0998 37.3713 76.8887 37.2383 76.7037 37.0845C76.5807 36.9823 76.528 36.8212 76.5432 36.6621C76.7264 34.754 76.5249 33.0709 76.7068 31.1786C77.4665 23.5063 82.2902 25.9371 86.6201 24.6837C89.1066 23.9833 91.593 22.6048 92.5015 19.8933C92.6503 19.4494 92.5193 18.9668 92.2102 18.6153C89.3738 15.3903 86.2337 12.5407 82.8219 10.0986C71.3837 1.95489 56.5183 -1.42676 42.8667 0.551359C42.3495 0.626297 42.0784 1.19922 42.3609 1.63883C44.09 4.32936 46.3709 6.5312 48.9868 8.15184C49.4622 8.44636 49.2712 9.08256 48.7255 8.96021C47.4427 8.67258 45.7943 8.11164 44.2441 7.01768C44.0947 6.91225 43.9022 6.8857 43.7324 6.95343C43.0394 7.2298 42.0386 7.62831 41.2116 7.98533C40.7355 8.19084 40.6386 8.8048 41.0304 9.14444C47.8873 15.088 57.8623 15.9916 65.6731 11.2352C66.1489 10.9455 66.9107 11.5409 66.7575 12.0765C66.512 12.9344 66.2252 14.1138 65.9199 15.7199C63.9829 25.5193 58.3995 24.7597 51.4868 22.2908C37.6739 17.2846 29.8376 21.5597 22.8706 13.0969C22.3865 12.5088 21.5355 12.305 20.9597 12.8035C19.5215 14.0487 18.6703 15.8662 18.6703 17.8089C18.6703 20.11 19.8581 22.0811 21.6187 23.2609C21.8389 23.4085 22.1315 23.3461 22.2959 23.1381C22.7249 22.5952 23.0758 22.2352 23.5128 22.0076C23.9911 21.7585 24.2244 22.4427 23.8206 22.8002C22.3409 24.1104 21.9162 25.671 20.9492 28.7478C19.4299 33.5715 20.0756 38.5092 12.973 39.8005C9.21277 39.9905 9.28873 42.5353 7.92138 46.3335C6.33449 50.9178 4.25649 52.9484 0.410658 56.9545C-0.11533 57.5024 -0.160434 58.3784 0.41762 58.8711C1.95383 60.1804 3.53814 60.2524 5.14869 59.5892C9.13681 57.918 12.2133 52.7524 15.1 49.41C18.3285 45.6878 26.0768 47.283 31.926 43.6367C35.0806 41.7023 36.976 39.2316 36.3698 35.5303C36.2722 34.9342 36.9543 34.5759 37.2017 35.127C37.6714 36.1732 37.9793 37.2893 38.1073 38.4425C38.1408 38.7448 38.411 38.9685 38.7147 38.9514C45.0431 38.5955 53.2267 45.5756 60.8746 47.4643C61.3399 47.5792 61.6706 47.0419 61.4075 46.6413C60.9237 45.9045 60.5123 45.1398 60.1847 44.3584C59.8464 43.5466 59.5901 42.759 59.4089 41.9988C59.2671 41.4042 60.1358 41.2445 60.4323 41.779C62.3937 45.3145 66.3136 48.6344 71.7692 49.0302C73.6303 49.1821 75.6813 48.9542 77.8083 48.3085C80.3531 47.5489 82.708 46.5613 85.5187 47.0931C87.6077 47.4729 89.5448 48.5364 90.7602 50.3216C92.4657 52.8088 96.0659 53.4678 97.9847 50.8684C98.2459 50.5146 98.2678 50.0417 98.0952 49.6372C93.8701 39.7338 83.1414 39.0535 78.53 37.8635Z" fill="#172940"/>
<path d="M136.939 16.178C137.06 15.5113 137.613 15.0086 138.288 14.9514L143.42 14.5164C143.553 14.5051 143.686 14.5387 143.798 14.6116C144 14.7432 144.103 14.9826 144.061 15.2196L138.903 43.9598C138.775 44.6746 138.153 45.1948 137.427 45.1948H133.545C133.198 45.1948 132.935 44.8823 132.994 44.5406C133.085 44.0135 132.43 43.6448 131.992 43.9515C130.284 45.1466 128.405 45.7441 126.355 45.7441C123.513 45.7441 121.162 44.7261 119.302 42.6899C117.427 40.6538 116.489 38.1709 116.489 35.2412C116.489 31.4912 117.647 28.3711 119.961 25.8809C122.276 23.3906 125.22 22.1455 128.794 22.1455C130.947 22.1455 132.766 22.7079 134.251 23.8326C134.745 24.2067 135.523 23.9734 135.633 23.3638L136.939 16.178ZM128.245 39.8774C130.003 39.8774 131.445 39.2476 132.573 37.9878C133.672 36.728 134.221 35.1826 134.221 33.3516C134.221 31.7549 133.775 30.4658 132.881 29.4844C131.987 28.5029 130.816 28.0122 129.365 28.0122C127.593 28.0122 126.157 28.6421 125.059 29.9019C123.945 31.147 123.389 32.6924 123.389 34.5381C123.389 36.1201 123.843 37.4092 124.751 38.4053C125.645 39.3867 126.809 39.8774 128.245 39.8774Z" fill="#172940"/>
<path d="M151.635 19.0913C150.595 19.0913 149.694 18.7251 148.932 17.9927C148.185 17.2603 147.812 16.3667 147.812 15.312C147.812 13.979 148.303 12.8438 149.284 11.9062C150.236 10.9688 151.386 10.5 152.734 10.5C153.759 10.5 154.645 10.8809 155.392 11.6426C156.139 12.4189 156.513 13.3125 156.513 14.3232C156.513 15.6416 156.03 16.7622 155.063 17.6851C154.111 18.6226 152.968 19.0913 151.635 19.0913ZM150.913 43.9615C150.784 44.6755 150.163 45.1948 149.437 45.1948H145.562C144.628 45.1948 143.921 44.3494 144.086 43.4295L147.59 23.9295C147.718 23.2149 148.34 22.6948 149.066 22.6948H152.96C153.895 22.6948 154.602 23.5412 154.436 24.4615L150.913 43.9615Z" fill="#172940"/>
<path d="M175.201 22.8011C175.371 22.8712 175.503 23.0101 175.572 23.1812C175.644 23.3617 175.639 23.5639 175.558 23.7407L173.507 28.2178C173.437 28.3693 173.319 28.4933 173.171 28.5701C172.944 28.6879 172.674 28.6773 172.443 28.5677C171.732 28.231 170.952 28.0751 170.104 28.1001C168.258 28.1001 166.837 28.8472 165.841 30.3413C165.475 30.9126 165.079 32.2456 164.654 34.3403L162.981 43.9521C162.856 44.6705 162.232 45.1948 161.503 45.1948H157.593C156.658 45.1948 155.951 44.3494 156.117 43.4295L159.62 23.9295C159.749 23.2149 160.371 22.6948 161.097 22.6948H164.405C165.029 22.6948 165.504 23.2565 165.399 23.8719C165.311 24.3848 166.016 24.7206 166.405 24.3752C166.758 24.0619 167.119 23.7874 167.489 23.5518C168.866 22.6436 170.338 22.1748 171.905 22.1455C173.041 22.1455 174.14 22.364 175.201 22.8011Z" fill="#172940"/>
<path d="M187.188 22.1455C190.777 22.1455 193.479 23.2954 195.296 25.5952C197.112 27.895 197.691 30.6636 197.031 33.9009C197.002 34.0889 196.961 34.2863 196.908 34.4931C196.753 35.0988 196.178 35.4829 195.553 35.4829H181.752C180.964 35.4829 180.28 36.0989 180.4 36.877C180.553 37.8684 180.977 38.6708 181.673 39.2842C182.654 40.1631 183.936 40.6025 185.518 40.6025C187.749 40.6025 189.752 39.8238 191.528 38.2662C191.635 38.1729 191.771 38.1196 191.912 38.1196C192.079 38.1196 192.238 38.1932 192.346 38.3208L194.498 40.8667C194.628 41.0197 194.683 41.2219 194.65 41.4195C194.627 41.5598 194.56 41.6899 194.459 41.789C191.776 44.397 188.466 45.7154 184.529 45.7441C181.204 45.7441 178.516 44.6895 176.465 42.5801C174.4 40.4854 173.477 37.8047 173.697 34.5381C173.784 32.2969 174.4 30.2607 175.542 28.4297C176.655 26.6133 178.164 25.1631 180.069 24.0791C182.237 22.79 184.61 22.1455 187.188 22.1455ZM181.853 29.5852C181.305 30.4294 182.029 31.418 183.036 31.418H189.323C190.121 31.418 190.816 30.7796 190.628 30.0038C190.497 29.4644 190.266 28.9763 189.934 28.5396C189.202 27.5435 188.074 27.0527 186.551 27.0674C185.188 27.0674 184.016 27.4556 183.035 28.2319C182.576 28.627 182.182 29.0781 181.853 29.5852Z" fill="#172940"/>
<path d="M210.139 45.7441C206.916 45.7441 204.287 44.7261 202.25 42.6899C200.2 40.6685 199.174 38.0537 199.174 34.8457C199.174 32.751 199.636 30.8174 200.559 29.0449C201.481 27.2578 202.77 25.7856 204.426 24.6284C206.828 22.9731 209.501 22.1455 212.446 22.1455C216.327 22.1455 219.305 23.4359 221.379 26.0168C221.498 26.1649 221.535 26.3618 221.485 26.5452C221.451 26.6703 221.378 26.7814 221.276 26.8623L217.242 30.0815C217.139 30.1644 217.01 30.2095 216.877 30.2095C216.688 30.2095 216.513 30.1175 216.395 29.97C215.357 28.6648 213.96 28.0122 212.204 28.0122C210.505 28.0122 209.099 28.5322 207.985 29.5723C206.696 30.8027 206.052 32.4287 206.052 34.4502C206.052 36.0908 206.52 37.4019 207.458 38.3833C208.381 39.3794 209.619 39.8774 211.171 39.8774C212.78 39.8774 214.209 39.2894 215.457 38.1134C215.57 38.0066 215.719 37.9438 215.875 37.9438C216.042 37.9438 216.201 38.0148 216.312 38.1391L219.162 41.319C219.292 41.4632 219.348 41.6587 219.315 41.8495C219.292 41.9816 219.227 42.1035 219.13 42.1953C216.611 44.5612 213.614 45.7441 210.139 45.7441Z" fill="#172940"/>
<path d="M240.163 26.5744C240.037 27.2915 239.414 27.8145 238.686 27.8145H234.717C233.991 27.8145 233.37 28.3344 233.241 29.049L231.859 36.7354C231.478 38.8008 232.167 39.8335 233.924 39.8335C234.656 39.8335 235.353 39.6145 236.017 39.1764C236.19 39.0621 236.414 39.0488 236.591 39.158C236.699 39.2249 236.777 39.3306 236.81 39.4535L237.775 43.046C237.842 43.2967 237.809 43.5638 237.682 43.7902C237.609 43.9193 237.51 44.0314 237.387 44.1142C235.777 45.2008 233.964 45.7441 231.947 45.7441C229.515 45.7441 227.611 45.041 226.234 43.6348C224.857 42.2578 224.403 40.1851 224.872 37.4165L226.305 29.5846C226.474 28.6633 225.767 27.8145 224.83 27.8145H224.549C223.617 27.8145 222.91 26.9728 223.072 26.0545L223.445 23.9349C223.571 23.2177 224.194 22.6948 224.922 22.6948H226.318C227.045 22.6948 227.667 22.1735 227.795 21.4577L228.581 17.0384C228.7 16.37 229.253 15.8649 229.93 15.8068L234.972 15.3736C235.105 15.3622 235.238 15.3956 235.349 15.4685C235.551 15.6 235.654 15.8396 235.611 16.0764L234.729 20.9265C234.562 21.8473 235.269 22.6948 236.205 22.6948H239.059C239.991 22.6948 240.698 23.5365 240.536 24.4548L240.163 26.5744Z" fill="#172940"/>
<path d="M256.194 35.9663L258.346 23.9308C258.474 23.2156 259.096 22.6948 259.823 22.6948H263.675C264.609 22.6948 265.316 23.5393 265.151 24.4587L261.667 43.9587C261.539 44.674 260.917 45.1948 260.19 45.1948H256.378C256.019 45.1948 255.747 44.8701 255.81 44.5166C255.907 43.9766 255.244 43.595 254.793 43.9072C253.023 45.1318 251.132 45.7441 249.119 45.7441C246.424 45.7441 244.388 44.8579 243.011 43.0854C241.634 41.313 241.194 38.9546 241.692 36.0103L243.865 23.9293C243.994 23.2148 244.616 22.6948 245.341 22.6948H249.259C250.194 22.6948 250.901 23.5402 250.735 24.4601L248.723 35.6587C248.518 36.9331 248.672 37.9512 249.185 38.7129C249.698 39.46 250.503 39.8335 251.602 39.8335C253.14 39.8335 254.341 39.2622 255.205 38.1196C255.659 37.6216 255.989 36.9038 256.194 35.9663Z" fill="#172940"/>
<path d="M275.036 45.7881C272.81 45.7881 270.832 45.3999 269.104 44.6235C267.438 43.9077 266.238 42.985 265.504 41.8553C265.413 41.7154 265.385 41.5451 265.414 41.3809C265.441 41.2322 265.516 41.0963 265.627 40.9934L268.999 37.862C269.094 37.7734 269.22 37.7241 269.35 37.7241C269.525 37.7241 269.686 37.8143 269.792 37.9536C270.29 38.6069 271.063 39.1896 272.114 39.7017C273.271 40.2729 274.428 40.5586 275.585 40.5586C276.494 40.5586 277.197 40.3828 277.695 40.0312C278.208 39.6797 278.464 39.1963 278.464 38.5811C278.464 38.2148 278.325 37.8779 278.046 37.5703C277.783 37.248 277.46 36.9917 277.08 36.8013C276.582 36.5669 276.098 36.3618 275.629 36.186C274.677 35.8638 273.85 35.5415 273.147 35.2192C272.502 34.9116 271.806 34.5015 271.059 33.9888C269.565 32.9341 268.818 31.4619 268.818 29.5723C268.818 27.375 269.711 25.5806 271.499 24.189C273.286 22.7974 275.637 22.1016 278.552 22.1016C280.456 22.1016 282.214 22.4312 283.825 23.0903C285.303 23.7059 286.416 24.5322 287.165 25.5693C287.267 25.7107 287.302 25.8886 287.272 26.0605C287.246 26.2144 287.167 26.3547 287.05 26.4583L283.805 29.3278C283.69 29.4287 283.543 29.4844 283.391 29.4844C283.207 29.4844 283.033 29.4016 282.908 29.266C282.328 28.6375 281.631 28.139 280.815 27.7705C279.907 27.3604 278.999 27.1553 278.09 27.1553C277.299 27.1553 276.669 27.3164 276.201 27.6387C275.732 27.9463 275.498 28.3564 275.498 28.8691C275.498 29.1914 275.637 29.4624 275.915 29.6821C276.267 29.9751 276.655 30.2095 277.08 30.3853C277.153 30.4146 277.365 30.5098 277.717 30.6709C278.083 30.8174 278.42 30.9492 278.728 31.0664C279.123 31.2275 279.453 31.3594 279.716 31.4619C281.533 32.2822 282.88 33.2051 283.759 34.2305C284.638 35.2412 285.078 36.5083 285.078 38.0317C285.078 40.4048 284.155 42.2871 282.309 43.6787C280.463 45.085 278.039 45.7881 275.036 45.7881Z" fill="#172940"/>
<g opacity="0.5">
<path d="M314.168 15.9832C314.29 15.3166 314.843 14.8138 315.518 14.7566L320.65 14.3217C320.783 14.3104 320.916 14.3439 321.028 14.4169C321.23 14.5484 321.333 14.7878 321.291 15.0248L316.133 43.765C316.005 44.4798 315.383 45.0001 314.657 45.0001H310.775C310.428 45.0001 310.165 44.6875 310.224 44.3458C310.315 43.8187 309.66 43.4501 309.222 43.7568C307.514 44.9518 305.635 45.5494 303.585 45.5494C300.743 45.5494 298.392 44.5313 296.532 42.4952C294.657 40.459 293.719 37.9761 293.719 35.0464C293.719 31.2964 294.877 28.1763 297.191 25.6861C299.505 23.1959 302.45 21.9507 306.024 21.9507C308.177 21.9507 309.996 22.5131 311.481 23.6378C311.975 24.0119 312.753 23.7787 312.863 23.169L314.168 15.9832ZM305.475 39.6827C307.233 39.6827 308.675 39.0528 309.803 37.793C310.902 36.5333 311.451 34.9878 311.451 33.1568C311.451 31.5601 311.005 30.2711 310.111 29.2896C309.217 28.3082 308.046 27.8174 306.595 27.8174C304.823 27.8174 303.387 28.4473 302.289 29.7071C301.175 30.9522 300.619 32.4976 300.619 34.3433C300.619 35.9253 301.073 37.2144 301.981 38.2105C302.875 39.1919 304.039 39.6827 305.475 39.6827Z" fill="#172940"/>
<path d="M332.688 45.5494C329.466 45.5494 326.785 44.524 324.646 42.4732C322.508 40.4224 321.438 37.815 321.438 34.6509C321.438 32.5416 321.9 30.6006 322.823 28.8282C323.76 27.0411 325.071 25.5762 326.756 24.4336C329.143 22.7784 331.802 21.9507 334.732 21.9507C337.984 21.9507 340.679 22.9615 342.818 24.983C344.927 27.0191 345.982 29.6412 345.982 32.8492C345.982 36.8775 344.436 40.1514 341.346 42.671C338.899 44.5899 336.014 45.5494 332.688 45.5494ZM333.194 39.6827C334.79 39.6827 336.138 39.1773 337.237 38.1666C338.584 36.9068 339.258 35.2515 339.258 33.2007C339.258 31.5894 338.789 30.293 337.852 29.3116C336.9 28.3155 335.706 27.8174 334.27 27.8174C332.674 27.8174 331.326 28.3228 330.227 29.3336C328.88 30.5933 328.206 32.2486 328.206 34.2994C328.206 35.8961 328.682 37.1924 329.634 38.1885C330.586 39.1846 331.773 39.6827 333.194 39.6827Z" fill="#172940"/>
<path d="M359.089 45.5494C355.866 45.5494 353.237 44.5313 351.201 42.4952C349.15 40.4737 348.125 37.8589 348.125 34.6509C348.125 32.5562 348.586 30.6226 349.509 28.8502C350.432 27.063 351.721 25.5909 353.376 24.4336C355.778 22.7784 358.452 21.9507 361.396 21.9507C365.278 21.9507 368.255 23.2412 370.329 25.822C370.448 25.9702 370.485 26.1671 370.435 26.3504C370.401 26.4756 370.328 26.5866 370.227 26.6676L366.193 29.8867C366.089 29.9696 365.96 30.0147 365.827 30.0147C365.639 30.0147 365.463 29.9227 365.346 29.7752C364.307 28.47 362.91 27.8174 361.154 27.8174C359.455 27.8174 358.049 28.3375 356.936 29.3775C355.647 30.608 355.002 32.2339 355.002 34.2554C355.002 35.8961 355.471 37.2071 356.408 38.1885C357.331 39.1846 358.569 39.6827 360.122 39.6827C361.731 39.6827 363.159 39.0947 364.407 37.9186C364.521 37.8118 364.67 37.7491 364.825 37.7491C364.992 37.7491 365.151 37.8201 365.262 37.9443L368.113 41.1243C368.242 41.2685 368.298 41.4639 368.265 41.6547C368.242 41.7868 368.178 41.9087 368.08 42.0005C365.562 44.3664 362.565 45.5494 359.089 45.5494Z" fill="#172940"/>
<path d="M379.227 45.5933C377.001 45.5933 375.023 45.2051 373.295 44.4288C371.629 43.713 370.429 42.7902 369.695 41.6605C369.604 41.5206 369.576 41.3503 369.606 41.1861C369.633 41.0374 369.707 40.9015 369.818 40.7987L373.19 37.6672C373.286 37.5786 373.411 37.5294 373.541 37.5294C373.716 37.5294 373.877 37.6196 373.983 37.7589C374.481 38.4121 375.255 38.9948 376.305 39.5069C377.462 40.0782 378.619 40.3638 379.777 40.3638C380.685 40.3638 381.388 40.188 381.886 39.8365C382.399 39.4849 382.655 39.0015 382.655 38.3863C382.655 38.0201 382.516 37.6832 382.238 37.3755C381.974 37.0533 381.652 36.7969 381.271 36.6065C380.773 36.3721 380.289 36.167 379.821 35.9913C378.868 35.669 378.041 35.3467 377.338 35.0245C376.693 34.7169 375.997 34.3067 375.25 33.794C373.756 32.7393 373.009 31.2671 373.009 29.3775C373.009 27.1802 373.903 25.3858 375.69 23.9942C377.477 22.6026 379.828 21.9068 382.743 21.9068C384.647 21.9068 386.405 22.2364 388.016 22.8956C389.494 23.5111 390.607 24.3374 391.356 25.3745C391.458 25.5159 391.493 25.6938 391.463 25.8657C391.437 26.0197 391.358 26.16 391.241 26.2635L387.996 29.133C387.882 29.2339 387.734 29.2896 387.582 29.2896C387.398 29.2896 387.224 29.2068 387.099 29.0712C386.52 28.4427 385.822 27.9442 385.006 27.5757C384.098 27.1656 383.19 26.9605 382.281 26.9605C381.49 26.9605 380.861 27.1216 380.392 27.4439C379.923 27.7515 379.689 28.1617 379.689 28.6744C379.689 28.9966 379.828 29.2676 380.106 29.4874C380.458 29.7803 380.846 30.0147 381.271 30.1905C381.344 30.2198 381.556 30.315 381.908 30.4761C382.274 30.6226 382.611 30.7544 382.919 30.8716C383.314 31.0328 383.644 31.1646 383.907 31.2671C385.724 32.0875 387.072 33.0103 387.95 34.0357C388.829 35.0464 389.269 36.3135 389.269 37.837C389.269 40.21 388.346 42.0923 386.5 43.4839C384.655 44.8902 382.23 45.5933 379.227 45.5933Z" fill="#172940"/>
</g>
</svg>
