<?xml version="1.0" encoding="UTF-8" standalone="no"?>
<!DOCTYPE svg PUBLIC "-//W3C//DTD SVG 1.1//EN"
 "http://www.w3.org/Graphics/SVG/1.1/DTD/svg11.dtd">
<!-- Generated by graphviz version 8.1.0 (20230707.0739)
 -->
<!-- Title: dependency&#45;cruiser output Pages: 1 -->
<svg width="856pt" height="616pt"
 viewBox="0.00 0.00 855.75 616.00" xmlns="http://www.w3.org/2000/svg" xmlns:xlink="http://www.w3.org/1999/xlink">
<g id="graph0" class="graph" transform="scale(1 1) rotate(0) translate(4 612)">
<title>dependency&#45;cruiser output</title>
<polygon fill="white" stroke="none" points="-4,4 -4,-612 851.75,-612 851.75,4 -4,4"/>
<g id="clust1" class="cluster">
<title>cluster_src</title>
<path fill="#ffffff" stroke="black" stroke-width="2" d="M20,-8C20,-8 827.75,-8 827.75,-8 833.75,-8 839.75,-14 839.75,-20 839.75,-20 839.75,-588 839.75,-588 839.75,-594 833.75,-600 827.75,-600 827.75,-600 20,-600 20,-600 14,-600 8,-594 8,-588 8,-588 8,-20 8,-20 8,-14 14,-8 20,-8"/>
<text text-anchor="middle" x="423.88" y="-587.45" font-family="Helvetica,sans-Serif" font-weight="bold" font-size="9.00">src</text>
</g>
<g id="clust2" class="cluster">
<title>cluster_src/types</title>
<path fill="#ffffff" stroke="black" stroke-width="2" d="M90,-16C90,-16 819.75,-16 819.75,-16 825.75,-16 831.75,-22 831.75,-28 831.75,-28 831.75,-562 831.75,-562 831.75,-568 825.75,-574 819.75,-574 819.75,-574 90,-574 90,-574 84,-574 78,-568 78,-562 78,-562 78,-28 78,-28 78,-22 84,-16 90,-16"/>
<text text-anchor="middle" x="454.88" y="-561.45" font-family="Helvetica,sans-Serif" font-weight="bold" font-size="9.00">types</text>
</g>
<g id="clust3" class="cluster">
<title>cluster_src/types/abstract&#45;query</title>
<path fill="#ffffff" stroke="black" stroke-width="2" d="M227,-24C227,-24 811.75,-24 811.75,-24 817.75,-24 823.75,-30 823.75,-36 823.75,-36 823.75,-536 823.75,-536 823.75,-542 817.75,-548 811.75,-548 811.75,-548 227,-548 227,-548 221,-548 215,-542 215,-536 215,-536 215,-36 215,-36 215,-30 221,-24 227,-24"/>
<text text-anchor="middle" x="519.38" y="-535.45" font-family="Helvetica,sans-Serif" font-weight="bold" font-size="9.00">abstract&#45;query</text>
</g>
<g id="clust4" class="cluster">
<title>cluster_src/types/abstract&#45;query/fields</title>
<path fill="#ffffff" stroke="black" stroke-width="2" d="M533.5,-50C533.5,-50 803.75,-50 803.75,-50 809.75,-50 815.75,-56 815.75,-62 815.75,-62 815.75,-120 815.75,-120 815.75,-126 809.75,-132 803.75,-132 803.75,-132 533.5,-132 533.5,-132 527.5,-132 521.5,-126 521.5,-120 521.5,-120 521.5,-62 521.5,-62 521.5,-56 527.5,-50 533.5,-50"/>
<text text-anchor="middle" x="668.62" y="-119.45" font-family="Helvetica,sans-Serif" font-weight="bold" font-size="9.00">fields</text>
</g>
<g id="clust5" class="cluster">
<title>cluster_src/types/abstract&#45;query/modifiers</title>
<path fill="#ffffff" stroke="black" stroke-width="2" d="M326.5,-140C326.5,-140 728.25,-140 728.25,-140 734.25,-140 740.25,-146 740.25,-152 740.25,-152 740.25,-510 740.25,-510 740.25,-516 734.25,-522 728.25,-522 728.25,-522 326.5,-522 326.5,-522 320.5,-522 314.5,-516 314.5,-510 314.5,-510 314.5,-152 314.5,-152 314.5,-146 320.5,-140 326.5,-140"/>
<text text-anchor="middle" x="527.38" y="-509.45" font-family="Helvetica,sans-Serif" font-weight="bold" font-size="9.00">modifiers</text>
</g>
<g id="clust6" class="cluster">
<title>cluster_src/types/abstract&#45;query/modifiers/filters</title>
<path fill="#ffffff" stroke="black" stroke-width="2" d="M396.5,-148C396.5,-148 720.25,-148 720.25,-148 726.25,-148 732.25,-154 732.25,-160 732.25,-160 732.25,-398 732.25,-398 732.25,-404 726.25,-410 720.25,-410 720.25,-410 396.5,-410 396.5,-410 390.5,-410 384.5,-404 384.5,-398 384.5,-398 384.5,-160 384.5,-160 384.5,-154 390.5,-148 396.5,-148"/>
<text text-anchor="middle" x="558.38" y="-397.45" font-family="Helvetica,sans-Serif" font-weight="bold" font-size="9.00">filters</text>
</g>
<g id="clust7" class="cluster">
<title>cluster_src/types/abstract&#45;query/modifiers/filters/conditions</title>
<path fill="#ffffff" stroke="black" stroke-width="2" d="M541.12,-156C541.12,-156 712.25,-156 712.25,-156 718.25,-156 724.25,-162 724.25,-168 724.25,-168 724.25,-346 724.25,-346 724.25,-352 718.25,-358 712.25,-358 712.25,-358 541.12,-358 541.12,-358 535.12,-358 529.12,-352 529.12,-346 529.12,-346 529.12,-168 529.12,-168 529.12,-162 535.12,-156 541.12,-156"/>
<text text-anchor="middle" x="626.69" y="-345.45" font-family="Helvetica,sans-Serif" font-weight="bold" font-size="9.00">conditions</text>
</g>
<!-- src/index.ts -->
<g id="node1" class="node">
<title>src/index.ts</title>
<g id="a_node1"><a xlink:href="src/index.ts" xlink:title="index.ts">
<path fill="#ddfeff" stroke="black" d="M64.08,-65.88C64.08,-65.88 21.92,-65.88 21.92,-65.88 18.96,-65.88 16,-62.92 16,-59.96 16,-59.96 16,-54.04 16,-54.04 16,-51.08 18.96,-48.12 21.92,-48.12 21.92,-48.12 64.08,-48.12 64.08,-48.12 67.04,-48.12 70,-51.08 70,-54.04 70,-54.04 70,-59.96 70,-59.96 70,-62.92 67.04,-65.88 64.08,-65.88"/>
<text text-anchor="start" x="27.25" y="-53.33" font-family="Helvetica,sans-Serif" font-size="9.00">index.ts</text>
</a>
</g>
</g>
<!-- src/types/abstract&#45;query/abstract&#45;query.ts -->
<g id="node2" class="node">
<title>src/types/abstract&#45;query/abstract&#45;query.ts</title>
<g id="a_node2"><a xlink:href="src/types/abstract-query/abstract-query.ts" xlink:title="abstract&#45;query.ts">
<path fill="#ddfeff" stroke="black" d="M300.58,-69.88C300.58,-69.88 228.92,-69.88 228.92,-69.88 225.96,-69.88 223,-66.92 223,-63.96 223,-63.96 223,-58.04 223,-58.04 223,-55.08 225.96,-52.12 228.92,-52.12 228.92,-52.12 300.58,-52.12 300.58,-52.12 303.54,-52.12 306.5,-55.08 306.5,-58.04 306.5,-58.04 306.5,-63.96 306.5,-63.96 306.5,-66.92 303.54,-69.88 300.58,-69.88"/>
<text text-anchor="start" x="231" y="-57.33" font-family="Helvetica,sans-Serif" font-size="9.00">abstract&#45;query.ts</text>
</a>
</g>
</g>
<!-- src/index.ts&#45;&gt;src/types/abstract&#45;query/abstract&#45;query.ts -->
<g id="edge1" class="edge">
<title>src/index.ts&#45;&gt;src/types/abstract&#45;query/abstract&#45;query.ts</title>
<path fill="none" stroke="#000000" stroke-width="2" stroke-opacity="0.200000" d="M64.87,-47.66C69.14,-46.14 73.65,-44.8 78,-44 134.38,-33.59 150.27,-35.69 207,-44 214.53,-45.1 222.46,-46.99 229.91,-49.12"/>
<polygon fill="#000000" fill-opacity="0.200000" stroke="#000000" stroke-width="2" stroke-opacity="0.200000" points="230.05,-51.96 236.4,-51.69 231.27,-47.94 230.05,-51.96"/>
</g>
<!-- src/types/driver.ts -->
<g id="node3" class="node">
<title>src/types/driver.ts</title>
<g id="a_node3"><a xlink:href="src/types/driver.ts" xlink:title="driver.ts">
<path fill="#ddfeff" stroke="black" d="M201.08,-69.88C201.08,-69.88 158.92,-69.88 158.92,-69.88 155.96,-69.88 153,-66.92 153,-63.96 153,-63.96 153,-58.04 153,-58.04 153,-55.08 155.96,-52.12 158.92,-52.12 158.92,-52.12 201.08,-52.12 201.08,-52.12 204.04,-52.12 207,-55.08 207,-58.04 207,-58.04 207,-63.96 207,-63.96 207,-66.92 204.04,-69.88 201.08,-69.88"/>
<text text-anchor="start" x="163.88" y="-57.33" font-family="Helvetica,sans-Serif" font-size="9.00">driver.ts</text>
</a>
</g>
</g>
<!-- src/index.ts&#45;&gt;src/types/driver.ts -->
<g id="edge2" class="edge">
<title>src/index.ts&#45;&gt;src/types/driver.ts</title>
<path fill="none" stroke="#000000" stroke-width="2" stroke-opacity="0.200000" d="M70.35,-57.78C91.35,-58.4 120.94,-59.28 143.94,-59.96"/>
<polygon fill="#000000" fill-opacity="0.200000" stroke="#000000" stroke-width="2" stroke-opacity="0.200000" points="143.66,-62.14 149.72,-60.22 143.78,-57.94 143.66,-62.14"/>
</g>
<!-- src/types/index.ts -->
<g id="node4" class="node">
<title>src/types/index.ts</title>
<g id="a_node4"><a xlink:href="src/types/index.ts" xlink:title="index.ts">
<path fill="#ddfeff" stroke="black" d="M134.08,-87.88C134.08,-87.88 91.92,-87.88 91.92,-87.88 88.96,-87.88 86,-84.92 86,-81.96 86,-81.96 86,-76.04 86,-76.04 86,-73.08 88.96,-70.12 91.92,-70.12 91.92,-70.12 134.08,-70.12 134.08,-70.12 137.04,-70.12 140,-73.08 140,-76.04 140,-76.04 140,-81.96 140,-81.96 140,-84.92 137.04,-87.88 134.08,-87.88"/>
<text text-anchor="start" x="97.25" y="-75.33" font-family="Helvetica,sans-Serif" font-size="9.00">index.ts</text>
</a>
</g>
</g>
<!-- src/index.ts&#45;&gt;src/types/index.ts -->
<g id="edge3" class="edge">
<title>src/index.ts&#45;&gt;src/types/index.ts</title>
<path fill="none" stroke="#000000" stroke-width="2" stroke-opacity="0.200000" d="M70.49,-65.57C72.86,-66.34 75.29,-67.12 77.72,-67.91"/>
<polygon fill="#000000" fill-opacity="0.200000" stroke="#000000" stroke-width="2" stroke-opacity="0.200000" points="77.57,-70.71 83.92,-70.56 78.86,-66.72 77.57,-70.71"/>
</g>
<!-- src/types/abstract&#45;query/fields/fieldNodes.ts -->
<g id="node5" class="node">
<title>src/types/abstract&#45;query/fields/fieldNodes.ts</title>
<g id="a_node5"><a xlink:href="src/types/abstract-query/fields/fieldNodes.ts" xlink:title="fieldNodes.ts">
<path fill="#ddfeff" stroke="black" d="M592.83,-91.88C592.83,-91.88 535.42,-91.88 535.42,-91.88 532.46,-91.88 529.5,-88.92 529.5,-85.96 529.5,-85.96 529.5,-80.04 529.5,-80.04 529.5,-77.08 532.46,-74.12 535.42,-74.12 535.42,-74.12 592.83,-74.12 592.83,-74.12 595.79,-74.12 598.75,-77.08 598.75,-80.04 598.75,-80.04 598.75,-85.96 598.75,-85.96 598.75,-88.92 595.79,-91.88 592.83,-91.88"/>
<text text-anchor="start" x="537.5" y="-79.33" font-family="Helvetica,sans-Serif" font-size="9.00">fieldNodes.ts</text>
</a>
</g>
</g>
<!-- src/types/abstract&#45;query/abstract&#45;query.ts&#45;&gt;src/types/abstract&#45;query/fields/fieldNodes.ts -->
<g id="edge4" class="edge">
<title>src/types/abstract&#45;query/abstract&#45;query.ts&#45;&gt;src/types/abstract&#45;query/fields/fieldNodes.ts</title>
<path fill="none" stroke="#000000" stroke-width="2" stroke-opacity="0.200000" d="M306.97,-64.41C309.52,-64.61 312.04,-64.81 314.5,-65 386.8,-70.58 470.98,-76.57 520.5,-80.04"/>
<polygon fill="#000000" fill-opacity="0.200000" stroke="#000000" stroke-width="2" stroke-opacity="0.200000" points="520.21,-82.33 526.34,-80.66 520.5,-78.14 520.21,-82.33"/>
</g>
<!-- src/types/abstract&#45;query/fields/function.ts -->
<g id="node6" class="node">
<title>src/types/abstract&#45;query/fields/function.ts</title>
<g id="a_node6"><a xlink:href="src/types/abstract-query/fields/function.ts" xlink:title="function.ts">
<path fill="#ddfeff" stroke="black" d="M800.71,-75.88C800.71,-75.88 755.29,-75.88 755.29,-75.88 752.33,-75.88 749.38,-72.92 749.38,-69.96 749.38,-69.96 749.38,-64.04 749.38,-64.04 749.38,-61.08 752.33,-58.12 755.29,-58.12 755.29,-58.12 800.71,-58.12 800.71,-58.12 803.67,-58.12 806.62,-61.08 806.62,-64.04 806.62,-64.04 806.62,-69.96 806.62,-69.96 806.62,-72.92 803.67,-75.88 800.71,-75.88"/>
<text text-anchor="start" x="757.38" y="-63.33" font-family="Helvetica,sans-Serif" font-size="9.00">function.ts</text>
</a>
</g>
</g>
<!-- src/types/abstract&#45;query/abstract&#45;query.ts&#45;&gt;src/types/abstract&#45;query/fields/function.ts -->
<g id="edge5" class="edge">
<title>src/types/abstract&#45;query/abstract&#45;query.ts&#45;&gt;src/types/abstract&#45;query/fields/function.ts</title>
<path fill="none" stroke="#000000" stroke-width="2" stroke-opacity="0.200000" d="M287.23,-51.71C295.59,-48.45 305.35,-45.09 314.5,-43 359.77,-32.65 372.06,-33 418.5,-33 418.5,-33 418.5,-33 565.12,-33 643.09,-33 666.19,-18.64 740.25,-43 746.82,-45.16 753.35,-48.81 759.04,-52.61"/>
<polygon fill="#000000" fill-opacity="0.200000" stroke="#000000" stroke-width="2" stroke-opacity="0.200000" points="758.12,-54.97 764.21,-56.77 760.57,-51.56 758.12,-54.97"/>
</g>
<!-- src/types/abstract&#45;query/fields/primitive.ts -->
<g id="node7" class="node">
<title>src/types/abstract&#45;query/fields/primitive.ts</title>
<g id="a_node7"><a xlink:href="src/types/abstract-query/fields/primitive.ts" xlink:title="primitive.ts">
<path fill="#ddfeff" stroke="black" d="M801.83,-105.88C801.83,-105.88 754.17,-105.88 754.17,-105.88 751.21,-105.88 748.25,-102.92 748.25,-99.96 748.25,-99.96 748.25,-94.04 748.25,-94.04 748.25,-91.08 751.21,-88.12 754.17,-88.12 754.17,-88.12 801.83,-88.12 801.83,-88.12 804.79,-88.12 807.75,-91.08 807.75,-94.04 807.75,-94.04 807.75,-99.96 807.75,-99.96 807.75,-102.92 804.79,-105.88 801.83,-105.88"/>
<text text-anchor="start" x="756.25" y="-93.33" font-family="Helvetica,sans-Serif" font-size="9.00">primitive.ts</text>
</a>
</g>
</g>
<!-- src/types/abstract&#45;query/abstract&#45;query.ts&#45;&gt;src/types/abstract&#45;query/fields/primitive.ts -->
<g id="edge6" class="edge">
<title>src/types/abstract&#45;query/abstract&#45;query.ts&#45;&gt;src/types/abstract&#45;query/fields/primitive.ts</title>
<path fill="none" stroke="#000000" stroke-width="2" stroke-opacity="0.200000" d="M306.82,-55.18C337.52,-51.34 380.55,-47 418.5,-47 418.5,-47 418.5,-47 565.12,-47 643.52,-47 674.92,-24.68 740.25,-68 746.22,-71.96 743.09,-77.03 748.25,-82 748.39,-82.13 748.53,-82.26 748.66,-82.39"/>
<polygon fill="#000000" fill-opacity="0.200000" stroke="#000000" stroke-width="2" stroke-opacity="0.200000" points="747.59,-84.72 753.64,-86.66 750.12,-81.37 747.59,-84.72"/>
</g>
<!-- src/types/abstract&#45;query/fields/related.ts -->
<g id="node8" class="node">
<title>src/types/abstract&#45;query/fields/related.ts</title>
<g id="a_node8"><a xlink:href="src/types/abstract-query/fields/related.ts" xlink:title="related.ts">
<path fill="#ddfeff" stroke="black" d="M685.08,-91.88C685.08,-91.88 642.92,-91.88 642.92,-91.88 639.96,-91.88 637,-88.92 637,-85.96 637,-85.96 637,-80.04 637,-80.04 637,-77.08 639.96,-74.12 642.92,-74.12 642.92,-74.12 685.08,-74.12 685.08,-74.12 688.04,-74.12 691,-77.08 691,-80.04 691,-80.04 691,-85.96 691,-85.96 691,-88.92 688.04,-91.88 685.08,-91.88"/>
<text text-anchor="start" x="645.25" y="-79.33" font-family="Helvetica,sans-Serif" font-size="9.00">related.ts</text>
</a>
</g>
</g>
<!-- src/types/abstract&#45;query/abstract&#45;query.ts&#45;&gt;src/types/abstract&#45;query/fields/related.ts -->
<g id="edge7" class="edge">
<title>src/types/abstract&#45;query/abstract&#45;query.ts&#45;&gt;src/types/abstract&#45;query/fields/related.ts</title>
<path fill="none" stroke="#000000" stroke-width="2" stroke-opacity="0.200000" d="M306.92,-61C337.66,-61 380.71,-61 418.5,-61 418.5,-61 418.5,-61 487.5,-61 537.04,-61 549.74,-60.79 598.75,-68 608.28,-69.4 618.49,-71.5 627.89,-73.69"/>
<polygon fill="#000000" fill-opacity="0.200000" stroke="#000000" stroke-width="2" stroke-opacity="0.200000" points="628.29,-76.43 634.62,-75.8 629.28,-72.35 628.29,-76.43"/>
</g>
<!-- src/types/abstract&#45;query/modifiers/index.ts -->
<g id="node9" class="node">
<title>src/types/abstract&#45;query/modifiers/index.ts</title>
<g id="a_node9"><a xlink:href="src/types/abstract-query/modifiers/index.ts" xlink:title="index.ts">
<path fill="#ddfeff" stroke="black" d="M370.58,-409.88C370.58,-409.88 328.42,-409.88 328.42,-409.88 325.46,-409.88 322.5,-406.92 322.5,-403.96 322.5,-403.96 322.5,-398.04 322.5,-398.04 322.5,-395.08 325.46,-392.12 328.42,-392.12 328.42,-392.12 370.58,-392.12 370.58,-392.12 373.54,-392.12 376.5,-395.08 376.5,-398.04 376.5,-398.04 376.5,-403.96 376.5,-403.96 376.5,-406.92 373.54,-409.88 370.58,-409.88"/>
<text text-anchor="start" x="333.75" y="-397.32" font-family="Helvetica,sans-Serif" font-size="9.00">index.ts</text>
</a>
</g>
</g>
<!-- src/types/abstract&#45;query/abstract&#45;query.ts&#45;&gt;src/types/abstract&#45;query/modifiers/index.ts -->
<g id="edge8" class="edge">
<title>src/types/abstract&#45;query/abstract&#45;query.ts&#45;&gt;src/types/abstract&#45;query/modifiers/index.ts</title>
<path fill="none" stroke="#000000" stroke-width="2" stroke-opacity="0.200000" d="M265.91,-70.36C266.9,-118.42 273.61,-337.1 314.5,-388 314.76,-388.32 315.02,-388.63 315.3,-388.94"/>
<polygon fill="#000000" fill-opacity="0.200000" stroke="#000000" stroke-width="2" stroke-opacity="0.200000" points="314.05,-391.2 320.06,-393.27 316.65,-387.91 314.05,-391.2"/>
</g>
<!-- src/types/driver.ts&#45;&gt;src/types/abstract&#45;query/abstract&#45;query.ts -->
<g id="edge40" class="edge">
<title>src/types/driver.ts&#45;&gt;src/types/abstract&#45;query/abstract&#45;query.ts</title>
<path fill="none" stroke="#000000" stroke-width="2" stroke-opacity="0.200000" d="M207.18,-61C209.34,-61 211.56,-61 213.81,-61"/>
<polygon fill="#000000" fill-opacity="0.200000" stroke="#000000" stroke-width="2" stroke-opacity="0.200000" points="213.62,-63.1 219.62,-61 213.62,-58.9 213.62,-63.1"/>
</g>
<!-- src/types/index.ts&#45;&gt;src/types/abstract&#45;query/abstract&#45;query.ts -->
<g id="edge41" class="edge">
<title>src/types/index.ts&#45;&gt;src/types/abstract&#45;query/abstract&#45;query.ts</title>
<path fill="none" stroke="#000000" stroke-width="2" stroke-opacity="0.200000" d="M140.2,-79.73C158.91,-79.87 184.62,-79.28 207,-76 212.89,-75.14 219.06,-73.89 225.05,-72.47"/>
<polygon fill="#000000" fill-opacity="0.200000" stroke="#000000" stroke-width="2" stroke-opacity="0.200000" points="226.37,-73.8 231.68,-70.3 225.35,-69.73 226.37,-73.8"/>
</g>
<!-- src/types/index.ts&#45;&gt;src/types/driver.ts -->
<g id="edge42" class="edge">
<title>src/types/index.ts&#45;&gt;src/types/driver.ts</title>
<path fill="none" stroke="#000000" stroke-width="2" stroke-opacity="0.200000" d="M140.44,-71.68C141.71,-71.33 143,-70.97 144.29,-70.61"/>
<polygon fill="#000000" fill-opacity="0.200000" stroke="#000000" stroke-width="2" stroke-opacity="0.200000" points="145.57,-71.88 150.8,-68.26 144.45,-67.83 145.57,-71.88"/>
</g>
<!-- src/types/abstract&#45;query/fields/fieldNodes.ts&#45;&gt;src/types/abstract&#45;query/fields/function.ts -->
<g id="edge9" class="edge">
<title>src/types/abstract&#45;query/fields/fieldNodes.ts&#45;&gt;src/types/abstract&#45;query/fields/function.ts</title>
<path fill="none" stroke="#000000" stroke-width="2" stroke-opacity="0.200000" d="M589.46,-73.63C596.54,-71.32 604.36,-69.18 611.75,-68 655.57,-60.99 706.76,-62.09 740.42,-64.05"/>
<polygon fill="#000000" fill-opacity="0.200000" stroke="#000000" stroke-width="2" stroke-opacity="0.200000" points="739.89,-66.31 746.01,-64.59 740.16,-62.12 739.89,-66.31"/>
</g>
<!-- src/types/abstract&#45;query/fields/fieldNodes.ts&#45;&gt;src/types/abstract&#45;query/fields/primitive.ts -->
<g id="edge10" class="edge">
<title>src/types/abstract&#45;query/fields/fieldNodes.ts&#45;&gt;src/types/abstract&#45;query/fields/primitive.ts</title>
<path fill="none" stroke="#000000" stroke-width="2" stroke-opacity="0.200000" d="M588.98,-92.25C596.18,-94.61 604.19,-96.81 611.75,-98 655.07,-104.8 705.57,-103.12 739.23,-100.67"/>
<polygon fill="#000000" fill-opacity="0.200000" stroke="#000000" stroke-width="2" stroke-opacity="0.200000" points="739.01,-102.56 744.83,-100 738.69,-98.37 739.01,-102.56"/>
</g>
<!-- src/types/abstract&#45;query/fields/fieldNodes.ts&#45;&gt;src/types/abstract&#45;query/fields/related.ts -->
<g id="edge11" class="edge">
<title>src/types/abstract&#45;query/fields/fieldNodes.ts&#45;&gt;src/types/abstract&#45;query/fields/related.ts</title>
<path fill="none" stroke="#000000" stroke-width="2" stroke-opacity="0.200000" d="M599.08,-83C608.28,-83 618.25,-83 627.52,-83"/>
<polygon fill="#000000" fill-opacity="0.200000" stroke="#000000" stroke-width="2" stroke-opacity="0.200000" points="627.51,-85.1 633.51,-83 627.51,-80.9 627.51,-85.1"/>
</g>
<!-- src/types/abstract&#45;query/fields/related.ts&#45;&gt;src/types/abstract&#45;query/fields/function.ts -->
<g id="edge13" class="edge">
<title>src/types/abstract&#45;query/fields/related.ts&#45;&gt;src/types/abstract&#45;query/fields/function.ts</title>
<path fill="none" stroke="#000000" stroke-width="2" stroke-opacity="0.200000" d="M691.26,-79.25C705.88,-77.16 724.31,-74.53 740.33,-72.24"/>
<polygon fill="#000000" fill-opacity="0.200000" stroke="#000000" stroke-width="2" stroke-opacity="0.200000" points="741.3,-73.93 746.95,-71.01 740.71,-69.78 741.3,-73.93"/>
</g>
<!-- src/types/abstract&#45;query/fields/related.ts&#45;&gt;src/types/abstract&#45;query/fields/primitive.ts -->
<g id="edge14" class="edge">
<title>src/types/abstract&#45;query/fields/related.ts&#45;&gt;src/types/abstract&#45;query/fields/primitive.ts</title>
<path fill="none" stroke="#000000" stroke-width="2" stroke-opacity="0.200000" d="M691.26,-86.28C705.55,-88.07 723.49,-90.31 739.25,-92.28"/>
<polygon fill="#000000" fill-opacity="0.200000" stroke="#000000" stroke-width="2" stroke-opacity="0.200000" points="738.54,-94.68 744.75,-93.34 739.06,-90.52 738.54,-94.68"/>
</g>
<!-- src/types/abstract&#45;query/fields/related.ts&#45;&gt;src/types/abstract&#45;query/modifiers/index.ts -->
<g id="edge12" class="edge">
<title>src/types/abstract&#45;query/fields/related.ts&#45;&gt;src/types/abstract&#45;query/modifiers/index.ts</title>
<path fill="none" stroke="#000000" stroke-width="2" stroke-opacity="0.200000" d="M636.76,-89.21C625.12,-91.94 611.26,-95.17 598.75,-98 551.21,-108.76 415.67,-107.53 384.5,-145 368.47,-164.27 387.85,-337.36 376.6,-383.37"/>
<polygon fill="#000000" fill-opacity="0.200000" stroke="#000000" stroke-width="2" stroke-opacity="0.200000" points="374.59,-383.33 374.38,-389.68 378.51,-384.84 374.59,-383.33"/>
</g>
<!-- src/types/abstract&#45;query/modifiers/filters/index.ts -->
<g id="node17" class="node">
<title>src/types/abstract&#45;query/modifiers/filters/index.ts</title>
<g id="a_node17"><a xlink:href="src/types/abstract-query/modifiers/filters/index.ts" xlink:title="index.ts">
<path fill="#ddfeff" stroke="black" d="M440.58,-383.88C440.58,-383.88 398.42,-383.88 398.42,-383.88 395.46,-383.88 392.5,-380.92 392.5,-377.96 392.5,-377.96 392.5,-372.04 392.5,-372.04 392.5,-369.08 395.46,-366.12 398.42,-366.12 398.42,-366.12 440.58,-366.12 440.58,-366.12 443.54,-366.12 446.5,-369.08 446.5,-372.04 446.5,-372.04 446.5,-377.96 446.5,-377.96 446.5,-380.92 443.54,-383.88 440.58,-383.88"/>
<text text-anchor="start" x="403.75" y="-371.32" font-family="Helvetica,sans-Serif" font-size="9.00">index.ts</text>
</a>
</g>
</g>
<!-- src/types/abstract&#45;query/modifiers/index.ts&#45;&gt;src/types/abstract&#45;query/modifiers/filters/index.ts -->
<g id="edge34" class="edge">
<title>src/types/abstract&#45;query/modifiers/index.ts&#45;&gt;src/types/abstract&#45;query/modifiers/filters/index.ts</title>
<path fill="none" stroke="#000000" stroke-width="2" stroke-opacity="0.200000" d="M374.67,-391.76C378.37,-390.34 382.25,-388.86 386.1,-387.39"/>
<polygon fill="#000000" fill-opacity="0.200000" stroke="#000000" stroke-width="2" stroke-opacity="0.200000" points="387.56,-389.31 392.41,-385.21 386.06,-385.39 387.56,-389.31"/>
</g>
<!-- src/types/abstract&#45;query/modifiers/limit.ts -->
<g id="node20" class="node">
<title>src/types/abstract&#45;query/modifiers/limit.ts</title>
<g id="a_node20"><a xlink:href="src/types/abstract-query/modifiers/limit.ts" xlink:title="limit.ts">
<path fill="#ddfeff" stroke="black" d="M440.58,-435.88C440.58,-435.88 398.42,-435.88 398.42,-435.88 395.46,-435.88 392.5,-432.92 392.5,-429.96 392.5,-429.96 392.5,-424.04 392.5,-424.04 392.5,-421.08 395.46,-418.12 398.42,-418.12 398.42,-418.12 440.58,-418.12 440.58,-418.12 443.54,-418.12 446.5,-421.08 446.5,-424.04 446.5,-424.04 446.5,-429.96 446.5,-429.96 446.5,-432.92 443.54,-435.88 440.58,-435.88"/>
<text text-anchor="start" x="406.75" y="-423.32" font-family="Helvetica,sans-Serif" font-size="9.00">limit.ts</text>
</a>
</g>
</g>
<!-- src/types/abstract&#45;query/modifiers/index.ts&#45;&gt;src/types/abstract&#45;query/modifiers/limit.ts -->
<g id="edge35" class="edge">
<title>src/types/abstract&#45;query/modifiers/index.ts&#45;&gt;src/types/abstract&#45;query/modifiers/limit.ts</title>
<path fill="none" stroke="#000000" stroke-width="2" stroke-opacity="0.200000" d="M374.67,-410.24C378.37,-411.66 382.25,-413.14 386.1,-414.61"/>
<polygon fill="#000000" fill-opacity="0.200000" stroke="#000000" stroke-width="2" stroke-opacity="0.200000" points="386.06,-416.61 392.41,-416.79 387.56,-412.69 386.06,-416.61"/>
</g>
<!-- src/types/abstract&#45;query/modifiers/offset.ts -->
<g id="node21" class="node">
<title>src/types/abstract&#45;query/modifiers/offset.ts</title>
<g id="a_node21"><a xlink:href="src/types/abstract-query/modifiers/offset.ts" xlink:title="offset.ts">
<path fill="#ddfeff" stroke="black" d="M440.58,-465.88C440.58,-465.88 398.42,-465.88 398.42,-465.88 395.46,-465.88 392.5,-462.92 392.5,-459.96 392.5,-459.96 392.5,-454.04 392.5,-454.04 392.5,-451.08 395.46,-448.12 398.42,-448.12 398.42,-448.12 440.58,-448.12 440.58,-448.12 443.54,-448.12 446.5,-451.08 446.5,-454.04 446.5,-454.04 446.5,-459.96 446.5,-459.96 446.5,-462.92 443.54,-465.88 440.58,-465.88"/>
<text text-anchor="start" x="404.12" y="-453.32" font-family="Helvetica,sans-Serif" font-size="9.00">offset.ts</text>
</a>
</g>
</g>
<!-- src/types/abstract&#45;query/modifiers/index.ts&#45;&gt;src/types/abstract&#45;query/modifiers/offset.ts -->
<g id="edge36" class="edge">
<title>src/types/abstract&#45;query/modifiers/index.ts&#45;&gt;src/types/abstract&#45;query/modifiers/offset.ts</title>
<path fill="none" stroke="#000000" stroke-width="2" stroke-opacity="0.200000" d="M356.28,-410.21C362.36,-419.3 372.69,-433.08 384.5,-442 385.02,-442.39 385.55,-442.78 386.1,-443.16"/>
<polygon fill="#000000" fill-opacity="0.200000" stroke="#000000" stroke-width="2" stroke-opacity="0.200000" points="385.37,-445.36 391.59,-446.64 387.52,-441.76 385.37,-445.36"/>
</g>
<!-- src/types/abstract&#45;query/modifiers/sort.ts -->
<g id="node22" class="node">
<title>src/types/abstract&#45;query/modifiers/sort.ts</title>
<g id="a_node22"><a xlink:href="src/types/abstract-query/modifiers/sort.ts" xlink:title="sort.ts">
<path fill="#ddfeff" stroke="black" d="M440.58,-495.88C440.58,-495.88 398.42,-495.88 398.42,-495.88 395.46,-495.88 392.5,-492.92 392.5,-489.96 392.5,-489.96 392.5,-484.04 392.5,-484.04 392.5,-481.08 395.46,-478.12 398.42,-478.12 398.42,-478.12 440.58,-478.12 440.58,-478.12 443.54,-478.12 446.5,-481.08 446.5,-484.04 446.5,-484.04 446.5,-489.96 446.5,-489.96 446.5,-492.92 443.54,-495.88 440.58,-495.88"/>
<text text-anchor="start" x="407.5" y="-483.32" font-family="Helvetica,sans-Serif" font-size="9.00">sort.ts</text>
</a>
</g>
</g>
<!-- src/types/abstract&#45;query/modifiers/index.ts&#45;&gt;src/types/abstract&#45;query/modifiers/sort.ts -->
<g id="edge37" class="edge">
<title>src/types/abstract&#45;query/modifiers/index.ts&#45;&gt;src/types/abstract&#45;query/modifiers/sort.ts</title>
<path fill="none" stroke="#000000" stroke-width="2" stroke-opacity="0.200000" d="M352.64,-410.05C356.57,-424.84 366.25,-454.31 384.5,-472 384.64,-472.13 384.78,-472.27 384.92,-472.4"/>
<polygon fill="#000000" fill-opacity="0.200000" stroke="#000000" stroke-width="2" stroke-opacity="0.200000" points="383.97,-474.78 390.04,-476.65 386.46,-471.4 383.97,-474.78"/>
</g>
<!-- src/types/abstract&#45;query/modifiers/filters/conditions/field&#45;condition.ts -->
<g id="node10" class="node">
<title>src/types/abstract&#45;query/modifiers/filters/conditions/field&#45;condition.ts</title>
<g id="a_node10"><a xlink:href="src/types/abstract-query/modifiers/filters/conditions/field-condition.ts" xlink:title="field&#45;condition.ts">
<path fill="#ddfeff" stroke="black" d="M699.46,-241.88C699.46,-241.88 628.54,-241.88 628.54,-241.88 625.58,-241.88 622.62,-238.92 622.62,-235.96 622.62,-235.96 622.62,-230.04 622.62,-230.04 622.62,-227.08 625.58,-224.12 628.54,-224.12 628.54,-224.12 699.46,-224.12 699.46,-224.12 702.42,-224.12 705.38,-227.08 705.38,-230.04 705.38,-230.04 705.38,-235.96 705.38,-235.96 705.38,-238.92 702.42,-241.88 699.46,-241.88"/>
<text text-anchor="start" x="630.62" y="-229.32" font-family="Helvetica,sans-Serif" font-size="9.00">field&#45;condition.ts</text>
</a>
</g>
</g>
<!-- src/types/abstract&#45;query/modifiers/filters/conditions/field&#45;condition.ts&#45;&gt;src/types/abstract&#45;query/fields/primitive.ts -->
<g id="edge15" class="edge">
<title>src/types/abstract&#45;query/modifiers/filters/conditions/field&#45;condition.ts&#45;&gt;src/types/abstract&#45;query/fields/primitive.ts</title>
<path fill="none" stroke="#000000" stroke-width="2" stroke-opacity="0.200000" d="M705.73,-232.75C718.09,-230.76 730.87,-226.5 740.25,-218 769.8,-191.21 775.92,-141.5 776.98,-114.9"/>
<polygon fill="#000000" fill-opacity="0.200000" stroke="#000000" stroke-width="2" stroke-opacity="0.200000" points="779.14,-115.27 777.17,-109.23 774.94,-115.18 779.14,-115.27"/>
</g>
<!-- src/types/abstract&#45;query/modifiers/filters/conditions/geo&#45;condition&#45;bbox.ts -->
<g id="node11" class="node">
<title>src/types/abstract&#45;query/modifiers/filters/conditions/geo&#45;condition&#45;bbox.ts</title>
<g id="a_node11"><a xlink:href="src/types/abstract-query/modifiers/filters/conditions/geo-condition-bbox.ts" xlink:title="geo&#45;condition&#45;bbox.ts">
<path fill="#ddfeff" stroke="black" d="M710.33,-271.88C710.33,-271.88 617.67,-271.88 617.67,-271.88 614.71,-271.88 611.75,-268.92 611.75,-265.96 611.75,-265.96 611.75,-260.04 611.75,-260.04 611.75,-257.08 614.71,-254.12 617.67,-254.12 617.67,-254.12 710.33,-254.12 710.33,-254.12 713.29,-254.12 716.25,-257.08 716.25,-260.04 716.25,-260.04 716.25,-265.96 716.25,-265.96 716.25,-268.92 713.29,-271.88 710.33,-271.88"/>
<text text-anchor="start" x="619.75" y="-259.32" font-family="Helvetica,sans-Serif" font-size="9.00">geo&#45;condition&#45;bbox.ts</text>
</a>
</g>
</g>
<!-- src/types/abstract&#45;query/modifiers/filters/conditions/geo&#45;condition&#45;bbox.ts&#45;&gt;src/types/abstract&#45;query/fields/primitive.ts -->
<g id="edge16" class="edge">
<title>src/types/abstract&#45;query/modifiers/filters/conditions/geo&#45;condition&#45;bbox.ts&#45;&gt;src/types/abstract&#45;query/fields/primitive.ts</title>
<path fill="none" stroke="#000000" stroke-width="2" stroke-opacity="0.200000" d="M716.56,-260.76C725.34,-258.27 733.71,-254.27 740.25,-248 759.38,-229.66 770.79,-150.55 775.06,-114.74"/>
<polygon fill="#000000" fill-opacity="0.200000" stroke="#000000" stroke-width="2" stroke-opacity="0.200000" points="777.44,-115.45 776.04,-109.25 773.27,-114.97 777.44,-115.45"/>
</g>
<!-- src/types/abstract&#45;query/modifiers/filters/conditions/geo&#45;condition.ts -->
<g id="node12" class="node">
<title>src/types/abstract&#45;query/modifiers/filters/conditions/geo&#45;condition.ts</title>
<g id="a_node12"><a xlink:href="src/types/abstract-query/modifiers/filters/conditions/geo-condition.ts" xlink:title="geo&#45;condition.ts">
<path fill="#ddfeff" stroke="black" d="M698.71,-301.88C698.71,-301.88 629.29,-301.88 629.29,-301.88 626.33,-301.88 623.38,-298.92 623.38,-295.96 623.38,-295.96 623.38,-290.04 623.38,-290.04 623.38,-287.08 626.33,-284.12 629.29,-284.12 629.29,-284.12 698.71,-284.12 698.71,-284.12 701.67,-284.12 704.62,-287.08 704.62,-290.04 704.62,-290.04 704.62,-295.96 704.62,-295.96 704.62,-298.92 701.67,-301.88 698.71,-301.88"/>
<text text-anchor="start" x="631.38" y="-289.32" font-family="Helvetica,sans-Serif" font-size="9.00">geo&#45;condition.ts</text>
</a>
</g>
</g>
<!-- src/types/abstract&#45;query/modifiers/filters/conditions/geo&#45;condition.ts&#45;&gt;src/types/abstract&#45;query/fields/primitive.ts -->
<g id="edge17" class="edge">
<title>src/types/abstract&#45;query/modifiers/filters/conditions/geo&#45;condition.ts&#45;&gt;src/types/abstract&#45;query/fields/primitive.ts</title>
<path fill="none" stroke="#000000" stroke-width="2" stroke-opacity="0.200000" d="M705.04,-293.44C717.81,-291.57 731,-287.21 740.25,-278 763.12,-255.21 772.75,-156.26 775.82,-115.08"/>
<polygon fill="#000000" fill-opacity="0.200000" stroke="#000000" stroke-width="2" stroke-opacity="0.200000" points="778.12,-115.28 776.45,-109.15 773.93,-114.99 778.12,-115.28"/>
</g>
<!-- src/types/abstract&#45;query/modifiers/filters/conditions/index.ts -->
<g id="node13" class="node">
<title>src/types/abstract&#45;query/modifiers/filters/conditions/index.ts</title>
<g id="a_node13"><a xlink:href="src/types/abstract-query/modifiers/filters/conditions/index.ts" xlink:title="index.ts">
<path fill="#ddfeff" stroke="black" d="M585.21,-286.88C585.21,-286.88 543.04,-286.88 543.04,-286.88 540.08,-286.88 537.12,-283.92 537.12,-280.96 537.12,-280.96 537.12,-275.04 537.12,-275.04 537.12,-272.08 540.08,-269.12 543.04,-269.12 543.04,-269.12 585.21,-269.12 585.21,-269.12 588.17,-269.12 591.12,-272.08 591.12,-275.04 591.12,-275.04 591.12,-280.96 591.12,-280.96 591.12,-283.92 588.17,-286.88 585.21,-286.88"/>
<text text-anchor="start" x="548.38" y="-274.32" font-family="Helvetica,sans-Serif" font-size="9.00">index.ts</text>
</a>
</g>
</g>
<!-- src/types/abstract&#45;query/modifiers/filters/conditions/index.ts&#45;&gt;src/types/abstract&#45;query/modifiers/filters/conditions/field&#45;condition.ts -->
<g id="edge18" class="edge">
<title>src/types/abstract&#45;query/modifiers/filters/conditions/index.ts&#45;&gt;src/types/abstract&#45;query/modifiers/filters/conditions/field&#45;condition.ts</title>
<path fill="none" stroke="#000000" stroke-width="2" stroke-opacity="0.200000" d="M577.23,-268.83C586.33,-262.29 599.32,-253.68 611.75,-248 613.78,-247.07 615.88,-246.19 618.02,-245.35"/>
<polygon fill="#000000" fill-opacity="0.200000" stroke="#000000" stroke-width="2" stroke-opacity="0.200000" points="619.48,-247.32 624.41,-243.3 618.05,-243.38 619.48,-247.32"/>
</g>
<!-- src/types/abstract&#45;query/modifiers/filters/conditions/index.ts&#45;&gt;src/types/abstract&#45;query/modifiers/filters/conditions/geo&#45;condition&#45;bbox.ts -->
<g id="edge19" class="edge">
<title>src/types/abstract&#45;query/modifiers/filters/conditions/index.ts&#45;&gt;src/types/abstract&#45;query/modifiers/filters/conditions/geo&#45;condition&#45;bbox.ts</title>
<path fill="none" stroke="#000000" stroke-width="2" stroke-opacity="0.200000" d="M591.61,-273.94C595.21,-273.39 599.02,-272.81 602.93,-272.21"/>
<polygon fill="#000000" fill-opacity="0.200000" stroke="#000000" stroke-width="2" stroke-opacity="0.200000" points="603.99,-273.86 609.6,-270.88 603.35,-269.71 603.99,-273.86"/>
</g>
<!-- src/types/abstract&#45;query/modifiers/filters/conditions/index.ts&#45;&gt;src/types/abstract&#45;query/modifiers/filters/conditions/geo&#45;condition.ts -->
<g id="edge20" class="edge">
<title>src/types/abstract&#45;query/modifiers/filters/conditions/index.ts&#45;&gt;src/types/abstract&#45;query/modifiers/filters/conditions/geo&#45;condition.ts</title>
<path fill="none" stroke="#000000" stroke-width="2" stroke-opacity="0.200000" d="M591.61,-282.06C598.6,-283.13 606.38,-284.32 614.15,-285.51"/>
<polygon fill="#000000" fill-opacity="0.200000" stroke="#000000" stroke-width="2" stroke-opacity="0.200000" points="614.63,-288.02 620.88,-286.85 615.27,-283.87 614.63,-288.02"/>
</g>
<!-- src/types/abstract&#45;query/modifiers/filters/conditions/number&#45;condition.ts -->
<g id="node14" class="node">
<title>src/types/abstract&#45;query/modifiers/filters/conditions/number&#45;condition.ts</title>
<g id="a_node14"><a xlink:href="src/types/abstract-query/modifiers/filters/conditions/number-condition.ts" xlink:title="number&#45;condition.ts">
<path fill="#ddfeff" stroke="black" d="M706.58,-181.88C706.58,-181.88 621.42,-181.88 621.42,-181.88 618.46,-181.88 615.5,-178.92 615.5,-175.96 615.5,-175.96 615.5,-170.04 615.5,-170.04 615.5,-167.08 618.46,-164.12 621.42,-164.12 621.42,-164.12 706.58,-164.12 706.58,-164.12 709.54,-164.12 712.5,-167.08 712.5,-170.04 712.5,-170.04 712.5,-175.96 712.5,-175.96 712.5,-178.92 709.54,-181.88 706.58,-181.88"/>
<text text-anchor="start" x="623.5" y="-169.32" font-family="Helvetica,sans-Serif" font-size="9.00">number&#45;condition.ts</text>
</a>
</g>
</g>
<!-- src/types/abstract&#45;query/modifiers/filters/conditions/index.ts&#45;&gt;src/types/abstract&#45;query/modifiers/filters/conditions/number&#45;condition.ts -->
<g id="edge21" class="edge">
<title>src/types/abstract&#45;query/modifiers/filters/conditions/index.ts&#45;&gt;src/types/abstract&#45;query/modifiers/filters/conditions/number&#45;condition.ts</title>
<path fill="none" stroke="#000000" stroke-width="2" stroke-opacity="0.200000" d="M567.29,-268.82C572.07,-250.61 585.26,-209.81 611.75,-188 612.16,-187.66 612.59,-187.33 613.01,-187"/>
<polygon fill="#000000" fill-opacity="0.200000" stroke="#000000" stroke-width="2" stroke-opacity="0.200000" points="614.48,-188.32 618.47,-183.36 612.26,-184.75 614.48,-188.32"/>
</g>
<!-- src/types/abstract&#45;query/modifiers/filters/conditions/set&#45;condition.ts -->
<g id="node15" class="node">
<title>src/types/abstract&#45;query/modifiers/filters/conditions/set&#45;condition.ts</title>
<g id="a_node15"><a xlink:href="src/types/abstract-query/modifiers/filters/conditions/set-condition.ts" xlink:title="set&#45;condition.ts">
<path fill="#ddfeff" stroke="black" d="M696.83,-331.88C696.83,-331.88 631.17,-331.88 631.17,-331.88 628.21,-331.88 625.25,-328.92 625.25,-325.96 625.25,-325.96 625.25,-320.04 625.25,-320.04 625.25,-317.08 628.21,-314.12 631.17,-314.12 631.17,-314.12 696.83,-314.12 696.83,-314.12 699.79,-314.12 702.75,-317.08 702.75,-320.04 702.75,-320.04 702.75,-325.96 702.75,-325.96 702.75,-328.92 699.79,-331.88 696.83,-331.88"/>
<text text-anchor="start" x="633.25" y="-319.32" font-family="Helvetica,sans-Serif" font-size="9.00">set&#45;condition.ts</text>
</a>
</g>
</g>
<!-- src/types/abstract&#45;query/modifiers/filters/conditions/index.ts&#45;&gt;src/types/abstract&#45;query/modifiers/filters/conditions/set&#45;condition.ts -->
<g id="edge22" class="edge">
<title>src/types/abstract&#45;query/modifiers/filters/conditions/index.ts&#45;&gt;src/types/abstract&#45;query/modifiers/filters/conditions/set&#45;condition.ts</title>
<path fill="none" stroke="#000000" stroke-width="2" stroke-opacity="0.200000" d="M591.58,-286.58C594.11,-287.88 596.55,-289.35 598.75,-291 606.36,-296.71 603.91,-302.62 611.75,-308 613.36,-309.11 615.06,-310.14 616.82,-311.09"/>
<polygon fill="#000000" fill-opacity="0.200000" stroke="#000000" stroke-width="2" stroke-opacity="0.200000" points="616.48,-313.18 622.81,-313.8 618.25,-309.37 616.48,-313.18"/>
</g>
<!-- src/types/abstract&#45;query/modifiers/filters/conditions/string&#45;condition.ts -->
<g id="node16" class="node">
<title>src/types/abstract&#45;query/modifiers/filters/conditions/string&#45;condition.ts</title>
<g id="a_node16"><a xlink:href="src/types/abstract-query/modifiers/filters/conditions/string-condition.ts" xlink:title="string&#45;condition.ts">
<path fill="#ddfeff" stroke="black" d="M702.08,-211.88C702.08,-211.88 625.92,-211.88 625.92,-211.88 622.96,-211.88 620,-208.92 620,-205.96 620,-205.96 620,-200.04 620,-200.04 620,-197.08 622.96,-194.12 625.92,-194.12 625.92,-194.12 702.08,-194.12 702.08,-194.12 705.04,-194.12 708,-197.08 708,-200.04 708,-200.04 708,-205.96 708,-205.96 708,-208.92 705.04,-211.88 702.08,-211.88"/>
<text text-anchor="start" x="628" y="-199.32" font-family="Helvetica,sans-Serif" font-size="9.00">string&#45;condition.ts</text>
</a>
</g>
</g>
<!-- src/types/abstract&#45;query/modifiers/filters/conditions/index.ts&#45;&gt;src/types/abstract&#45;query/modifiers/filters/conditions/string&#45;condition.ts -->
<g id="edge23" class="edge">
<title>src/types/abstract&#45;query/modifiers/filters/conditions/index.ts&#45;&gt;src/types/abstract&#45;query/modifiers/filters/conditions/string&#45;condition.ts</title>
<path fill="none" stroke="#000000" stroke-width="2" stroke-opacity="0.200000" d="M569.82,-268.81C577.04,-255.59 592.12,-231.36 611.75,-218 612.55,-217.45 613.38,-216.92 614.22,-216.42"/>
<polygon fill="#000000" fill-opacity="0.200000" stroke="#000000" stroke-width="2" stroke-opacity="0.200000" points="615.81,-217.94 620.18,-213.33 613.89,-214.2 615.81,-217.94"/>
</g>
<!-- src/types/abstract&#45;query/modifiers/filters/conditions/number&#45;condition.ts&#45;&gt;src/types/abstract&#45;query/fields/function.ts -->
<g id="edge24" class="edge">
<title>src/types/abstract&#45;query/modifiers/filters/conditions/number&#45;condition.ts&#45;&gt;src/types/abstract&#45;query/fields/function.ts</title>
<path fill="none" stroke="#000000" stroke-width="2" stroke-opacity="0.200000" d="M698.97,-163.68C713.91,-157.84 730.3,-148.75 740.25,-135 752.8,-117.66 738.09,-104.35 749.18,-83.6"/>
<polygon fill="#000000" fill-opacity="0.200000" stroke="#000000" stroke-width="2" stroke-opacity="0.200000" points="751.47,-84.43 753.01,-78.26 747.96,-82.12 751.47,-84.43"/>
</g>
<!-- src/types/abstract&#45;query/modifiers/filters/conditions/number&#45;condition.ts&#45;&gt;src/types/abstract&#45;query/fields/primitive.ts -->
<g id="edge25" class="edge">
<title>src/types/abstract&#45;query/modifiers/filters/conditions/number&#45;condition.ts&#45;&gt;src/types/abstract&#45;query/fields/primitive.ts</title>
<path fill="none" stroke="#000000" stroke-width="2" stroke-opacity="0.200000" d="M691.51,-163.73C706.62,-157.73 725.43,-148.98 740.25,-138 749.66,-131.03 758.48,-121.34 765.12,-113.13"/>
<polygon fill="#000000" fill-opacity="0.200000" stroke="#000000" stroke-width="2" stroke-opacity="0.200000" points="767.53,-114.16 769.56,-108.13 764.22,-111.58 767.53,-114.16"/>
</g>
<!-- src/types/abstract&#45;query/modifiers/filters/conditions/set&#45;condition.ts&#45;&gt;src/types/abstract&#45;query/fields/primitive.ts -->
<g id="edge26" class="edge">
<title>src/types/abstract&#45;query/modifiers/filters/conditions/set&#45;condition.ts&#45;&gt;src/types/abstract&#45;query/fields/primitive.ts</title>
<path fill="none" stroke="#000000" stroke-width="2" stroke-opacity="0.200000" d="M703.24,-323.85C716.61,-322.17 730.67,-317.82 740.25,-308 766.99,-280.61 774.49,-160.79 776.4,-114.94"/>
<polygon fill="#000000" fill-opacity="0.200000" stroke="#000000" stroke-width="2" stroke-opacity="0.200000" points="778.61,-115.18 776.74,-109.1 774.41,-115.02 778.61,-115.18"/>
</g>
<!-- src/types/abstract&#45;query/modifiers/filters/conditions/string&#45;condition.ts&#45;&gt;src/types/abstract&#45;query/fields/primitive.ts -->
<g id="edge27" class="edge">
<title>src/types/abstract&#45;query/modifiers/filters/conditions/string&#45;condition.ts&#45;&gt;src/types/abstract&#45;query/fields/primitive.ts</title>
<path fill="none" stroke="#000000" stroke-width="2" stroke-opacity="0.200000" d="M708.42,-201.69C719.78,-199.49 731.33,-195.39 740.25,-188 762.45,-169.61 771.36,-135.77 774.85,-114.95"/>
<polygon fill="#000000" fill-opacity="0.200000" stroke="#000000" stroke-width="2" stroke-opacity="0.200000" points="777.34,-114.38 776.13,-108.14 773.19,-113.78 777.34,-114.38"/>
</g>
<!-- src/types/abstract&#45;query/modifiers/filters/index.ts&#45;&gt;src/types/abstract&#45;query/modifiers/filters/conditions/index.ts -->
<g id="edge28" class="edge">
<title>src/types/abstract&#45;query/modifiers/filters/index.ts&#45;&gt;src/types/abstract&#45;query/modifiers/filters/conditions/index.ts</title>
<path fill="none" stroke="#000000" stroke-width="2" stroke-opacity="0.200000" d="M428.98,-365.63C445.22,-348.28 482.57,-311.05 521.5,-291 523.77,-289.83 526.17,-288.74 528.62,-287.74"/>
<polygon fill="#000000" fill-opacity="0.200000" stroke="#000000" stroke-width="2" stroke-opacity="0.200000" points="530.14,-289.67 535.04,-285.62 528.68,-285.73 530.14,-289.67"/>
</g>
<!-- src/types/abstract&#45;query/modifiers/filters/logical.ts -->
<g id="node18" class="node">
<title>src/types/abstract&#45;query/modifiers/filters/logical.ts</title>
<g id="a_node18"><a xlink:href="src/types/abstract-query/modifiers/filters/logical.ts" xlink:title="logical.ts">
<path fill="#ddfeff" stroke="black" d="M507.58,-361.88C507.58,-361.88 465.42,-361.88 465.42,-361.88 462.46,-361.88 459.5,-358.92 459.5,-355.96 459.5,-355.96 459.5,-350.04 459.5,-350.04 459.5,-347.08 462.46,-344.12 465.42,-344.12 465.42,-344.12 507.58,-344.12 507.58,-344.12 510.54,-344.12 513.5,-347.08 513.5,-350.04 513.5,-350.04 513.5,-355.96 513.5,-355.96 513.5,-358.92 510.54,-361.88 507.58,-361.88"/>
<text text-anchor="start" x="468.5" y="-349.32" font-family="Helvetica,sans-Serif" font-size="9.00">logical.ts</text>
</a>
</g>
</g>
<!-- src/types/abstract&#45;query/modifiers/filters/index.ts&#45;&gt;src/types/abstract&#45;query/modifiers/filters/logical.ts -->
<g id="edge29" class="edge">
<title>src/types/abstract&#45;query/modifiers/filters/index.ts&#45;&gt;src/types/abstract&#45;query/modifiers/filters/logical.ts</title>
<g id="a_edge29"><a xlink:title="no&#45;circular">
<path fill="none" stroke="orange" stroke-width="2" d="M446.94,-366.05C448.21,-365.62 449.5,-365.18 450.79,-364.75"/>
<polygon fill="none" stroke="orange" stroke-width="2" points="452.29,-365.78 457.3,-361.87 450.94,-361.8 452.29,-365.78"/>
</a>
</g>
<text text-anchor="middle" x="428.98" y="-356.22" font-family="Helvetica,sans-Serif" font-size="9.00" fill="orange">no&#45;circular</text>
</g>
<!-- src/types/abstract&#45;query/modifiers/filters/negate.ts -->
<g id="node19" class="node">
<title>src/types/abstract&#45;query/modifiers/filters/negate.ts</title>
<g id="a_node19"><a xlink:href="src/types/abstract-query/modifiers/filters/negate.ts" xlink:title="negate.ts">
<path fill="#ddfeff" stroke="black" d="M585.21,-383.88C585.21,-383.88 543.04,-383.88 543.04,-383.88 540.08,-383.88 537.12,-380.92 537.12,-377.96 537.12,-377.96 537.12,-372.04 537.12,-372.04 537.12,-369.08 540.08,-366.12 543.04,-366.12 543.04,-366.12 585.21,-366.12 585.21,-366.12 588.17,-366.12 591.12,-369.08 591.12,-372.04 591.12,-372.04 591.12,-377.96 591.12,-377.96 591.12,-380.92 588.17,-383.88 585.21,-383.88"/>
<text text-anchor="start" x="545.38" y="-371.32" font-family="Helvetica,sans-Serif" font-size="9.00">negate.ts</text>
</a>
</g>
</g>
<!-- src/types/abstract&#45;query/modifiers/filters/index.ts&#45;&gt;src/types/abstract&#45;query/modifiers/filters/negate.ts -->
<g id="edge30" class="edge">
<title>src/types/abstract&#45;query/modifiers/filters/index.ts&#45;&gt;src/types/abstract&#45;query/modifiers/filters/negate.ts</title>
<g id="a_edge30"><a xlink:title="no&#45;circular">
<path fill="none" stroke="orange" stroke-width="2" d="M446.99,-371.41C469.81,-370.33 502.92,-370.21 527.95,-371.06"/>
<polygon fill="none" stroke="orange" stroke-width="2" points="527.69,-373.27 533.77,-371.41 527.86,-369.07 527.69,-373.27"/>
</a>
</g>
<text text-anchor="middle" x="469.91" y="-371.7" font-family="Helvetica,sans-Serif" font-size="9.00" fill="orange">no&#45;circular</text>
</g>
<!-- src/types/abstract&#45;query/modifiers/filters/logical.ts&#45;&gt;src/types/abstract&#45;query/modifiers/filters/conditions/index.ts -->
<g id="edge31" class="edge">
<title>src/types/abstract&#45;query/modifiers/filters/logical.ts&#45;&gt;src/types/abstract&#45;query/modifiers/filters/conditions/index.ts</title>
<path fill="none" stroke="#000000" stroke-width="2" stroke-opacity="0.200000" d="M493.11,-343.82C498.54,-334.81 506.89,-320.63 513.5,-308 517.37,-300.6 515.2,-296.49 521.5,-291 523.67,-289.11 526.11,-287.49 528.7,-286.11"/>
<polygon fill="#000000" fill-opacity="0.200000" stroke="#000000" stroke-width="2" stroke-opacity="0.200000" points="530.08,-287.94 534.76,-283.64 528.42,-284.08 530.08,-287.94"/>
</g>
<!-- src/types/abstract&#45;query/modifiers/filters/logical.ts&#45;&gt;src/types/abstract&#45;query/modifiers/filters/negate.ts -->
<g id="edge32" class="edge">
<title>src/types/abstract&#45;query/modifiers/filters/logical.ts&#45;&gt;src/types/abstract&#45;query/modifiers/filters/negate.ts</title>
<g id="a_edge32"><a xlink:title="no&#45;circular">
<path fill="none" stroke="orange" stroke-width="2" d="M513.95,-360.69C518.58,-362.04 523.46,-363.46 528.28,-364.86"/>
<polygon fill="none" stroke="orange" stroke-width="2" points="528.47,-367.69 534.82,-367.35 529.64,-363.65 528.47,-367.69"/>
</a>
</g>
<text text-anchor="middle" x="547.32" y="-355.52" font-family="Helvetica,sans-Serif" font-size="9.00" fill="orange">no&#45;circular</text>
</g>
<!-- src/types/abstract&#45;query/modifiers/filters/negate.ts&#45;&gt;src/types/abstract&#45;query/modifiers/filters/index.ts -->
<g id="edge33" class="edge">
<title>src/types/abstract&#45;query/modifiers/filters/negate.ts&#45;&gt;src/types/abstract&#45;query/modifiers/filters/index.ts</title>
<g id="a_edge33"><a xlink:title="no&#45;circular">
<path fill="none" stroke="orange" stroke-width="2" d="M536.77,-378.59C514,-379.67 480.9,-379.79 455.83,-378.95"/>
<polygon fill="none" stroke="orange" stroke-width="2" points="456.07,-376.73 449.99,-378.59 455.9,-380.93 456.07,-376.73"/>
</a>
</g>
<text text-anchor="middle" x="513.89" y="-370.95" font-family="Helvetica,sans-Serif" font-size="9.00" fill="orange">no&#45;circular</text>
</g>
<!-- src/types/abstract&#45;query/modifiers/sort.ts&#45;&gt;src/types/abstract&#45;query/fields/function.ts -->
<g id="edge38" class="edge">
<title>src/types/abstract&#45;query/modifiers/sort.ts&#45;&gt;src/types/abstract&#45;query/fields/function.ts</title>
<path fill="none" stroke="#000000" stroke-width="2" stroke-opacity="0.200000" d="M446.99,-485.78C510.38,-481.28 670.66,-460.14 740.25,-361 756.95,-337.2 734.91,-135.91 749.95,-84.48"/>
<polygon fill="#000000" fill-opacity="0.200000" stroke="#000000" stroke-width="2" stroke-opacity="0.200000" points="752.03,-84.63 752.48,-78.29 748.17,-82.97 752.03,-84.63"/>
</g>
<!-- src/types/abstract&#45;query/modifiers/sort.ts&#45;&gt;src/types/abstract&#45;query/fields/primitive.ts -->
<g id="edge39" class="edge">
<title>src/types/abstract&#45;query/modifiers/sort.ts&#45;&gt;src/types/abstract&#45;query/fields/primitive.ts</title>
<path fill="none" stroke="#000000" stroke-width="2" stroke-opacity="0.200000" d="M441.05,-478.02C443.19,-476.32 445.1,-474.32 446.5,-472 465.31,-440.88 435.18,-172.03 459.5,-145 500.03,-99.96 664.5,-113.28 739.45,-103.88"/>
<polygon fill="#000000" fill-opacity="0.200000" stroke="#000000" stroke-width="2" stroke-opacity="0.200000" points="740.5,-105.56 746.13,-102.62 739.89,-101.41 740.5,-105.56"/>
</g>
</g>
</svg>
