<?xml version="1.0" encoding="UTF-8" standalone="no"?>
<!DOCTYPE svg PUBLIC "-//W3C//DTD SVG 1.1//EN"
 "http://www.w3.org/Graphics/SVG/1.1/DTD/svg11.dtd">
<!-- Generated by graphviz version 8.1.0 (20230707.0739)
 -->
<!-- Title: dependency&#45;cruiser output Pages: 1 -->
<svg width="842pt" height="566pt"
 viewBox="0.00 0.00 842.00 566.00" xmlns="http://www.w3.org/2000/svg" xmlns:xlink="http://www.w3.org/1999/xlink">
<g id="graph0" class="graph" transform="scale(1 1) rotate(0) translate(4 562)">
<title>dependency&#45;cruiser output</title>
<polygon fill="white" stroke="none" points="-4,4 -4,-562 838,-562 838,4 -4,4"/>
<g id="clust1" class="cluster">
<title>cluster_src</title>
<path fill="#ffffff" stroke="black" stroke-width="2" d="M20,-8C20,-8 814,-8 814,-8 820,-8 826,-14 826,-20 826,-20 826,-538 826,-538 826,-544 820,-550 814,-550 814,-550 20,-550 20,-550 14,-550 8,-544 8,-538 8,-538 8,-20 8,-20 8,-14 14,-8 20,-8"/>
<text text-anchor="middle" x="417" y="-537.45" font-family="Helvetica,sans-Serif" font-weight="bold" font-size="9.00">src</text>
</g>
<g id="clust2" class="cluster">
<title>cluster_src/types</title>
<path fill="#ffffff" stroke="black" stroke-width="2" d="M90,-16C90,-16 806,-16 806,-16 812,-16 818,-22 818,-28 818,-28 818,-512 818,-512 818,-518 812,-524 806,-524 806,-524 90,-524 90,-524 84,-524 78,-518 78,-512 78,-512 78,-28 78,-28 78,-22 84,-16 90,-16"/>
<text text-anchor="middle" x="448" y="-511.45" font-family="Helvetica,sans-Serif" font-weight="bold" font-size="9.00">types</text>
</g>
<g id="clust3" class="cluster">
<title>cluster_src/types/abstract&#45;query</title>
<path fill="#ffffff" stroke="black" stroke-width="2" d="M227,-24C227,-24 798,-24 798,-24 804,-24 810,-30 810,-36 810,-36 810,-486 810,-486 810,-492 804,-498 798,-498 798,-498 227,-498 227,-498 221,-498 215,-492 215,-486 215,-486 215,-36 215,-36 215,-30 221,-24 227,-24"/>
<text text-anchor="middle" x="512.5" y="-485.45" font-family="Helvetica,sans-Serif" font-weight="bold" font-size="9.00">abstract&#45;query</text>
</g>
<g id="clust4" class="cluster">
<title>cluster_src/types/abstract&#45;query/modifiers</title>
<path fill="#ffffff" stroke="black" stroke-width="2" d="M326.5,-32C326.5,-32 714.5,-32 714.5,-32 720.5,-32 726.5,-38 726.5,-44 726.5,-44 726.5,-386 726.5,-386 726.5,-392 720.5,-398 714.5,-398 714.5,-398 326.5,-398 326.5,-398 320.5,-398 314.5,-392 314.5,-386 314.5,-386 314.5,-44 314.5,-44 314.5,-38 320.5,-32 326.5,-32"/>
<text text-anchor="middle" x="520.5" y="-385.45" font-family="Helvetica,sans-Serif" font-weight="bold" font-size="9.00">modifiers</text>
</g>
<g id="clust5" class="cluster">
<title>cluster_src/types/abstract&#45;query/modifiers/filters</title>
<path fill="#ffffff" stroke="black" stroke-width="2" d="M396.5,-66C396.5,-66 706.5,-66 706.5,-66 712.5,-66 718.5,-72 718.5,-78 718.5,-78 718.5,-290 718.5,-290 718.5,-296 712.5,-302 706.5,-302 706.5,-302 396.5,-302 396.5,-302 390.5,-302 384.5,-296 384.5,-290 384.5,-290 384.5,-78 384.5,-78 384.5,-72 390.5,-66 396.5,-66"/>
<text text-anchor="middle" x="551.5" y="-289.45" font-family="Helvetica,sans-Serif" font-weight="bold" font-size="9.00">filters</text>
</g>
<g id="clust6" class="cluster">
<title>cluster_src/types/abstract&#45;query/modifiers/filters/conditions</title>
<path fill="#ffffff" stroke="black" stroke-width="2" d="M533.5,-74C533.5,-74 698.5,-74 698.5,-74 704.5,-74 710.5,-80 710.5,-86 710.5,-86 710.5,-264 710.5,-264 710.5,-270 704.5,-276 698.5,-276 698.5,-276 533.5,-276 533.5,-276 527.5,-276 521.5,-270 521.5,-264 521.5,-264 521.5,-86 521.5,-86 521.5,-80 527.5,-74 533.5,-74"/>
<text text-anchor="middle" x="616" y="-263.45" font-family="Helvetica,sans-Serif" font-weight="bold" font-size="9.00">conditions</text>
</g>
<g id="clust7" class="cluster">
<title>cluster_src/types/abstract&#45;query/nodes</title>
<path fill="#ffffff" stroke="black" stroke-width="2" d="M533.5,-406C533.5,-406 790,-406 790,-406 796,-406 802,-412 802,-418 802,-418 802,-460 802,-460 802,-466 796,-472 790,-472 790,-472 533.5,-472 533.5,-472 527.5,-472 521.5,-466 521.5,-460 521.5,-460 521.5,-418 521.5,-418 521.5,-412 527.5,-406 533.5,-406"/>
<text text-anchor="middle" x="661.75" y="-459.45" font-family="Helvetica,sans-Serif" font-weight="bold" font-size="9.00">nodes</text>
</g>
<!-- src/index.ts -->
<g id="node1" class="node">
<title>src/index.ts</title>
<g id="a_node1"><a xlink:href="src/index.ts" xlink:title="index.ts">
<path fill="#ddfeff" stroke="black" d="M64.08,-440.88C64.08,-440.88 21.92,-440.88 21.92,-440.88 18.96,-440.88 16,-437.92 16,-434.96 16,-434.96 16,-429.04 16,-429.04 16,-426.08 18.96,-423.12 21.92,-423.12 21.92,-423.12 64.08,-423.12 64.08,-423.12 67.04,-423.12 70,-426.08 70,-429.04 70,-429.04 70,-434.96 70,-434.96 70,-437.92 67.04,-440.88 64.08,-440.88"/>
<text text-anchor="start" x="27.25" y="-428.32" font-family="Helvetica,sans-Serif" font-size="9.00">index.ts</text>
</a>
</g>
</g>
<!-- src/types/abstract&#45;query/abstract&#45;query.ts -->
<g id="node2" class="node">
<title>src/types/abstract&#45;query/abstract&#45;query.ts</title>
<g id="a_node2"><a xlink:href="src/types/abstract-query/abstract-query.ts" xlink:title="abstract&#45;query.ts">
<path fill="#ddfeff" stroke="black" d="M300.58,-444.88C300.58,-444.88 228.92,-444.88 228.92,-444.88 225.96,-444.88 223,-441.92 223,-438.96 223,-438.96 223,-433.04 223,-433.04 223,-430.08 225.96,-427.12 228.92,-427.12 228.92,-427.12 300.58,-427.12 300.58,-427.12 303.54,-427.12 306.5,-430.08 306.5,-433.04 306.5,-433.04 306.5,-438.96 306.5,-438.96 306.5,-441.92 303.54,-444.88 300.58,-444.88"/>
<text text-anchor="start" x="231" y="-432.32" font-family="Helvetica,sans-Serif" font-size="9.00">abstract&#45;query.ts</text>
</a>
</g>
</g>
<!-- src/index.ts&#45;&gt;src/types/abstract&#45;query/abstract&#45;query.ts -->
<g id="edge1" class="edge">
<title>src/index.ts&#45;&gt;src/types/abstract&#45;query/abstract&#45;query.ts</title>
<path fill="none" stroke="#000000" stroke-width="2" stroke-opacity="0.200000" d="M64.87,-422.66C69.14,-421.14 73.65,-419.8 78,-419 134.38,-408.59 150.27,-410.69 207,-419 214.53,-420.1 222.46,-421.99 229.91,-424.12"/>
<polygon fill="#000000" fill-opacity="0.200000" stroke="#000000" stroke-width="2" stroke-opacity="0.200000" points="230.05,-426.96 236.4,-426.69 231.27,-422.94 230.05,-426.96"/>
</g>
<!-- src/types/driver.ts -->
<g id="node3" class="node">
<title>src/types/driver.ts</title>
<g id="a_node3"><a xlink:href="src/types/driver.ts" xlink:title="driver.ts">
<path fill="#ddfeff" stroke="black" d="M201.08,-444.88C201.08,-444.88 158.92,-444.88 158.92,-444.88 155.96,-444.88 153,-441.92 153,-438.96 153,-438.96 153,-433.04 153,-433.04 153,-430.08 155.96,-427.12 158.92,-427.12 158.92,-427.12 201.08,-427.12 201.08,-427.12 204.04,-427.12 207,-430.08 207,-433.04 207,-433.04 207,-438.96 207,-438.96 207,-441.92 204.04,-444.88 201.08,-444.88"/>
<text text-anchor="start" x="163.88" y="-432.32" font-family="Helvetica,sans-Serif" font-size="9.00">driver.ts</text>
</a>
</g>
</g>
<!-- src/index.ts&#45;&gt;src/types/driver.ts -->
<g id="edge2" class="edge">
<title>src/index.ts&#45;&gt;src/types/driver.ts</title>
<path fill="none" stroke="#000000" stroke-width="2" stroke-opacity="0.200000" d="M70.35,-432.78C91.35,-433.4 120.94,-434.28 143.94,-434.96"/>
<polygon fill="#000000" fill-opacity="0.200000" stroke="#000000" stroke-width="2" stroke-opacity="0.200000" points="143.66,-437.14 149.72,-435.22 143.78,-432.94 143.66,-437.14"/>
</g>
<!-- src/types/index.ts -->
<g id="node4" class="node">
<title>src/types/index.ts</title>
<g id="a_node4"><a xlink:href="src/types/index.ts" xlink:title="index.ts">
<path fill="#ddfeff" stroke="black" d="M134.08,-462.88C134.08,-462.88 91.92,-462.88 91.92,-462.88 88.96,-462.88 86,-459.92 86,-456.96 86,-456.96 86,-451.04 86,-451.04 86,-448.08 88.96,-445.12 91.92,-445.12 91.92,-445.12 134.08,-445.12 134.08,-445.12 137.04,-445.12 140,-448.08 140,-451.04 140,-451.04 140,-456.96 140,-456.96 140,-459.92 137.04,-462.88 134.08,-462.88"/>
<text text-anchor="start" x="97.25" y="-450.32" font-family="Helvetica,sans-Serif" font-size="9.00">index.ts</text>
</a>
</g>
</g>
<!-- src/index.ts&#45;&gt;src/types/index.ts -->
<g id="edge3" class="edge">
<title>src/index.ts&#45;&gt;src/types/index.ts</title>
<path fill="none" stroke="#000000" stroke-width="2" stroke-opacity="0.200000" d="M70.49,-440.57C72.86,-441.34 75.29,-442.12 77.72,-442.91"/>
<polygon fill="#000000" fill-opacity="0.200000" stroke="#000000" stroke-width="2" stroke-opacity="0.200000" points="77.57,-445.71 83.92,-445.56 78.86,-441.72 77.57,-445.71"/>
</g>
<!-- src/types/abstract&#45;query/modifiers/index.ts -->
<g id="node5" class="node">
<title>src/types/abstract&#45;query/modifiers/index.ts</title>
<g id="a_node5"><a xlink:href="src/types/abstract-query/modifiers/index.ts" xlink:title="index.ts">
<path fill="#ddfeff" stroke="black" d="M370.58,-342.88C370.58,-342.88 328.42,-342.88 328.42,-342.88 325.46,-342.88 322.5,-339.92 322.5,-336.96 322.5,-336.96 322.5,-331.04 322.5,-331.04 322.5,-328.08 325.46,-325.12 328.42,-325.12 328.42,-325.12 370.58,-325.12 370.58,-325.12 373.54,-325.12 376.5,-328.08 376.5,-331.04 376.5,-331.04 376.5,-336.96 376.5,-336.96 376.5,-339.92 373.54,-342.88 370.58,-342.88"/>
<text text-anchor="start" x="333.75" y="-330.32" font-family="Helvetica,sans-Serif" font-size="9.00">index.ts</text>
</a>
</g>
</g>
<!-- src/types/abstract&#45;query/abstract&#45;query.ts&#45;&gt;src/types/abstract&#45;query/modifiers/index.ts -->
<g id="edge4" class="edge">
<title>src/types/abstract&#45;query/abstract&#45;query.ts&#45;&gt;src/types/abstract&#45;query/modifiers/index.ts</title>
<path fill="none" stroke="#000000" stroke-width="2" stroke-opacity="0.200000" d="M268.41,-426.82C274.03,-409 288.75,-369.47 314.5,-347 314.64,-346.88 314.79,-346.75 314.93,-346.63"/>
<polygon fill="#000000" fill-opacity="0.200000" stroke="#000000" stroke-width="2" stroke-opacity="0.200000" points="316.32,-347.91 320.16,-342.85 314,-344.41 316.32,-347.91"/>
</g>
<!-- src/types/abstract&#45;query/nodes/function.ts -->
<g id="node6" class="node">
<title>src/types/abstract&#45;query/nodes/function.ts</title>
<g id="a_node6"><a xlink:href="src/types/abstract-query/nodes/function.ts" xlink:title="function.ts">
<path fill="#ddfeff" stroke="black" d="M672.21,-431.88C672.21,-431.88 626.79,-431.88 626.79,-431.88 623.83,-431.88 620.88,-428.92 620.88,-425.96 620.88,-425.96 620.88,-420.04 620.88,-420.04 620.88,-417.08 623.83,-414.12 626.79,-414.12 626.79,-414.12 672.21,-414.12 672.21,-414.12 675.17,-414.12 678.12,-417.08 678.12,-420.04 678.12,-420.04 678.12,-425.96 678.12,-425.96 678.12,-428.92 675.17,-431.88 672.21,-431.88"/>
<text text-anchor="start" x="628.88" y="-419.32" font-family="Helvetica,sans-Serif" font-size="9.00">function.ts</text>
</a>
</g>
</g>
<!-- src/types/abstract&#45;query/abstract&#45;query.ts&#45;&gt;src/types/abstract&#45;query/nodes/function.ts -->
<g id="edge5" class="edge">
<title>src/types/abstract&#45;query/abstract&#45;query.ts&#45;&gt;src/types/abstract&#45;query/nodes/function.ts</title>
<path fill="none" stroke="#000000" stroke-width="2" stroke-opacity="0.200000" d="M306.88,-439.74C337.6,-442.21 380.64,-445 418.5,-445 418.5,-445 418.5,-445 487.5,-445 530.28,-445 541.2,-444.38 583.5,-438 592.79,-436.6 602.71,-434.58 611.94,-432.48"/>
<polygon fill="#000000" fill-opacity="0.200000" stroke="#000000" stroke-width="2" stroke-opacity="0.200000" points="613.17,-433.87 618.53,-430.45 612.2,-429.78 613.17,-433.87"/>
</g>
<!-- src/types/abstract&#45;query/nodes/primitive.ts -->
<g id="node7" class="node">
<title>src/types/abstract&#45;query/nodes/primitive.ts</title>
<g id="a_node7"><a xlink:href="src/types/abstract-query/nodes/primitive.ts" xlink:title="primitive.ts">
<path fill="#ddfeff" stroke="black" d="M788.08,-431.88C788.08,-431.88 740.42,-431.88 740.42,-431.88 737.46,-431.88 734.5,-428.92 734.5,-425.96 734.5,-425.96 734.5,-420.04 734.5,-420.04 734.5,-417.08 737.46,-414.12 740.42,-414.12 740.42,-414.12 788.08,-414.12 788.08,-414.12 791.04,-414.12 794,-417.08 794,-420.04 794,-420.04 794,-425.96 794,-425.96 794,-428.92 791.04,-431.88 788.08,-431.88"/>
<text text-anchor="start" x="742.5" y="-419.32" font-family="Helvetica,sans-Serif" font-size="9.00">primitive.ts</text>
</a>
</g>
</g>
<!-- src/types/abstract&#45;query/abstract&#45;query.ts&#45;&gt;src/types/abstract&#45;query/nodes/primitive.ts -->
<g id="edge6" class="edge">
<title>src/types/abstract&#45;query/abstract&#45;query.ts&#45;&gt;src/types/abstract&#45;query/nodes/primitive.ts</title>
<path fill="none" stroke="#000000" stroke-width="2" stroke-opacity="0.200000" d="M305.7,-445.35C336.38,-451.72 379.88,-459 418.5,-459 418.5,-459 418.5,-459 557.5,-459 632.83,-459 654.94,-469.55 726.5,-446 732.65,-443.98 738.81,-440.72 744.29,-437.28"/>
<polygon fill="#000000" fill-opacity="0.200000" stroke="#000000" stroke-width="2" stroke-opacity="0.200000" points="745.95,-438.34 749.74,-433.24 743.59,-434.86 745.95,-438.34"/>
</g>
<!-- src/types/abstract&#45;query/nodes/related.ts -->
<g id="node8" class="node">
<title>src/types/abstract&#45;query/nodes/related.ts</title>
<g id="a_node8"><a xlink:href="src/types/abstract-query/nodes/related.ts" xlink:title="related.ts">
<path fill="#ddfeff" stroke="black" d="M577.58,-431.88C577.58,-431.88 535.42,-431.88 535.42,-431.88 532.46,-431.88 529.5,-428.92 529.5,-425.96 529.5,-425.96 529.5,-420.04 529.5,-420.04 529.5,-417.08 532.46,-414.12 535.42,-414.12 535.42,-414.12 577.58,-414.12 577.58,-414.12 580.54,-414.12 583.5,-417.08 583.5,-420.04 583.5,-420.04 583.5,-425.96 583.5,-425.96 583.5,-428.92 580.54,-431.88 577.58,-431.88"/>
<text text-anchor="start" x="537.75" y="-419.32" font-family="Helvetica,sans-Serif" font-size="9.00">related.ts</text>
</a>
</g>
</g>
<!-- src/types/abstract&#45;query/abstract&#45;query.ts&#45;&gt;src/types/abstract&#45;query/nodes/related.ts -->
<g id="edge7" class="edge">
<title>src/types/abstract&#45;query/abstract&#45;query.ts&#45;&gt;src/types/abstract&#45;query/nodes/related.ts</title>
<path fill="none" stroke="#000000" stroke-width="2" stroke-opacity="0.200000" d="M306.96,-434.15C364.11,-431.59 466.48,-426.99 520.27,-424.58"/>
<polygon fill="#000000" fill-opacity="0.200000" stroke="#000000" stroke-width="2" stroke-opacity="0.200000" points="520.2,-426.55 526.1,-424.18 520.01,-422.36 520.2,-426.55"/>
</g>
<!-- src/types/driver.ts&#45;&gt;src/types/abstract&#45;query/abstract&#45;query.ts -->
<g id="edge37" class="edge">
<title>src/types/driver.ts&#45;&gt;src/types/abstract&#45;query/abstract&#45;query.ts</title>
<path fill="none" stroke="#000000" stroke-width="2" stroke-opacity="0.200000" d="M207.18,-436C209.34,-436 211.56,-436 213.81,-436"/>
<polygon fill="#000000" fill-opacity="0.200000" stroke="#000000" stroke-width="2" stroke-opacity="0.200000" points="213.62,-438.1 219.62,-436 213.62,-433.9 213.62,-438.1"/>
</g>
<!-- src/types/index.ts&#45;&gt;src/types/abstract&#45;query/abstract&#45;query.ts -->
<g id="edge38" class="edge">
<title>src/types/index.ts&#45;&gt;src/types/abstract&#45;query/abstract&#45;query.ts</title>
<path fill="none" stroke="#000000" stroke-width="2" stroke-opacity="0.200000" d="M140.2,-454.73C158.91,-454.87 184.62,-454.28 207,-451 212.89,-450.14 219.06,-448.89 225.05,-447.47"/>
<polygon fill="#000000" fill-opacity="0.200000" stroke="#000000" stroke-width="2" stroke-opacity="0.200000" points="226.37,-448.8 231.68,-445.3 225.35,-444.73 226.37,-448.8"/>
</g>
<!-- src/types/index.ts&#45;&gt;src/types/driver.ts -->
<g id="edge39" class="edge">
<title>src/types/index.ts&#45;&gt;src/types/driver.ts</title>
<path fill="none" stroke="#000000" stroke-width="2" stroke-opacity="0.200000" d="M140.44,-446.68C141.71,-446.33 143,-445.97 144.29,-445.61"/>
<polygon fill="#000000" fill-opacity="0.200000" stroke="#000000" stroke-width="2" stroke-opacity="0.200000" points="145.57,-446.88 150.8,-443.26 144.45,-442.83 145.57,-446.88"/>
</g>
<!-- src/types/abstract&#45;query/modifiers/filters/conditions/index.ts -->
<g id="node12" class="node">
<title>src/types/abstract&#45;query/modifiers/filters/conditions/index.ts</title>
<g id="a_node12"><a xlink:href="src/types/abstract-query/modifiers/filters/conditions/index.ts" xlink:title="index.ts">
<path fill="#ddfeff" stroke="black" d="M577.58,-219.88C577.58,-219.88 535.42,-219.88 535.42,-219.88 532.46,-219.88 529.5,-216.92 529.5,-213.96 529.5,-213.96 529.5,-208.04 529.5,-208.04 529.5,-205.08 532.46,-202.12 535.42,-202.12 535.42,-202.12 577.58,-202.12 577.58,-202.12 580.54,-202.12 583.5,-205.08 583.5,-208.04 583.5,-208.04 583.5,-213.96 583.5,-213.96 583.5,-216.92 580.54,-219.88 577.58,-219.88"/>
<text text-anchor="start" x="540.75" y="-207.32" font-family="Helvetica,sans-Serif" font-size="9.00">index.ts</text>
</a>
</g>
</g>
<!-- src/types/abstract&#45;query/modifiers/index.ts&#45;&gt;src/types/abstract&#45;query/modifiers/filters/conditions/index.ts -->
<g id="edge25" class="edge">
<title>src/types/abstract&#45;query/modifiers/index.ts&#45;&gt;src/types/abstract&#45;query/modifiers/filters/conditions/index.ts</title>
<path fill="none" stroke="#000000" stroke-width="2" stroke-opacity="0.200000" d="M349.96,-324.85C349.21,-302.37 350.77,-244.36 384.5,-218 423.08,-187.85 482.85,-193.62 520.54,-201.55"/>
<polygon fill="#000000" fill-opacity="0.200000" stroke="#000000" stroke-width="2" stroke-opacity="0.200000" points="520.84,-204.22 527.16,-203.48 521.76,-200.12 520.84,-204.22"/>
</g>
<!-- src/types/abstract&#45;query/modifiers/filters/logical.ts -->
<g id="node16" class="node">
<title>src/types/abstract&#45;query/modifiers/filters/logical.ts</title>
<g id="a_node16"><a xlink:href="src/types/abstract-query/modifiers/filters/logical.ts" xlink:title="logical.ts">
<path fill="#ddfeff" stroke="black" d="M440.58,-265.88C440.58,-265.88 398.42,-265.88 398.42,-265.88 395.46,-265.88 392.5,-262.92 392.5,-259.96 392.5,-259.96 392.5,-254.04 392.5,-254.04 392.5,-251.08 395.46,-248.12 398.42,-248.12 398.42,-248.12 440.58,-248.12 440.58,-248.12 443.54,-248.12 446.5,-251.08 446.5,-254.04 446.5,-254.04 446.5,-259.96 446.5,-259.96 446.5,-262.92 443.54,-265.88 440.58,-265.88"/>
<text text-anchor="start" x="401.5" y="-253.32" font-family="Helvetica,sans-Serif" font-size="9.00">logical.ts</text>
</a>
</g>
</g>
<!-- src/types/abstract&#45;query/modifiers/index.ts&#45;&gt;src/types/abstract&#45;query/modifiers/filters/logical.ts -->
<g id="edge26" class="edge">
<title>src/types/abstract&#45;query/modifiers/index.ts&#45;&gt;src/types/abstract&#45;query/modifiers/filters/logical.ts</title>
<path fill="none" stroke="#000000" stroke-width="2" stroke-opacity="0.200000" d="M353.08,-324.85C357.4,-311.11 367.34,-285.16 384.5,-270 384.64,-269.87 384.79,-269.75 384.93,-269.63"/>
<polygon fill="#000000" fill-opacity="0.200000" stroke="#000000" stroke-width="2" stroke-opacity="0.200000" points="386.31,-270.9 390.14,-265.82 383.98,-267.4 386.31,-270.9"/>
</g>
<!-- src/types/abstract&#45;query/modifiers/filters/negate.ts -->
<g id="node17" class="node">
<title>src/types/abstract&#45;query/modifiers/filters/negate.ts</title>
<g id="a_node17"><a xlink:href="src/types/abstract-query/modifiers/filters/negate.ts" xlink:title="negate.ts">
<path fill="#ddfeff" stroke="black" d="M507.58,-265.88C507.58,-265.88 465.42,-265.88 465.42,-265.88 462.46,-265.88 459.5,-262.92 459.5,-259.96 459.5,-259.96 459.5,-254.04 459.5,-254.04 459.5,-251.08 462.46,-248.12 465.42,-248.12 465.42,-248.12 507.58,-248.12 507.58,-248.12 510.54,-248.12 513.5,-251.08 513.5,-254.04 513.5,-254.04 513.5,-259.96 513.5,-259.96 513.5,-262.92 510.54,-265.88 507.58,-265.88"/>
<text text-anchor="start" x="467.75" y="-253.32" font-family="Helvetica,sans-Serif" font-size="9.00">negate.ts</text>
</a>
</g>
</g>
<!-- src/types/abstract&#45;query/modifiers/index.ts&#45;&gt;src/types/abstract&#45;query/modifiers/filters/negate.ts -->
<g id="edge27" class="edge">
<title>src/types/abstract&#45;query/modifiers/index.ts&#45;&gt;src/types/abstract&#45;query/modifiers/filters/negate.ts</title>
<path fill="none" stroke="#000000" stroke-width="2" stroke-opacity="0.200000" d="M372.04,-343.24C373.65,-344.38 375.16,-345.63 376.5,-347 382.33,-352.97 377.45,-359.53 384.5,-364 407.77,-378.76 425.72,-382.1 446.5,-364 476.19,-338.14 440.35,-308.5 458.51,-273.57"/>
<polygon fill="#000000" fill-opacity="0.200000" stroke="#000000" stroke-width="2" stroke-opacity="0.200000" points="460.83,-274.23 462.24,-268.03 457.27,-271.99 460.83,-274.23"/>
</g>
<!-- src/types/abstract&#45;query/modifiers/limit.ts -->
<g id="node18" class="node">
<title>src/types/abstract&#45;query/modifiers/limit.ts</title>
<g id="a_node18"><a xlink:href="src/types/abstract-query/modifiers/limit.ts" xlink:title="limit.ts">
<path fill="#ddfeff" stroke="black" d="M440.58,-327.88C440.58,-327.88 398.42,-327.88 398.42,-327.88 395.46,-327.88 392.5,-324.92 392.5,-321.96 392.5,-321.96 392.5,-316.04 392.5,-316.04 392.5,-313.08 395.46,-310.12 398.42,-310.12 398.42,-310.12 440.58,-310.12 440.58,-310.12 443.54,-310.12 446.5,-313.08 446.5,-316.04 446.5,-316.04 446.5,-321.96 446.5,-321.96 446.5,-324.92 443.54,-327.88 440.58,-327.88"/>
<text text-anchor="start" x="406.75" y="-315.32" font-family="Helvetica,sans-Serif" font-size="9.00">limit.ts</text>
</a>
</g>
</g>
<!-- src/types/abstract&#45;query/modifiers/index.ts&#45;&gt;src/types/abstract&#45;query/modifiers/limit.ts -->
<g id="edge28" class="edge">
<title>src/types/abstract&#45;query/modifiers/index.ts&#45;&gt;src/types/abstract&#45;query/modifiers/limit.ts</title>
<path fill="none" stroke="#000000" stroke-width="2" stroke-opacity="0.200000" d="M376.99,-328.16C379.2,-327.67 381.47,-327.17 383.74,-326.67"/>
<polygon fill="#000000" fill-opacity="0.200000" stroke="#000000" stroke-width="2" stroke-opacity="0.200000" points="385.02,-328.1 390.42,-324.75 384.11,-323.99 385.02,-328.1"/>
</g>
<!-- src/types/abstract&#45;query/modifiers/offset.ts -->
<g id="node19" class="node">
<title>src/types/abstract&#45;query/modifiers/offset.ts</title>
<g id="a_node19"><a xlink:href="src/types/abstract-query/modifiers/offset.ts" xlink:title="offset.ts">
<path fill="#ddfeff" stroke="black" d="M440.58,-357.88C440.58,-357.88 398.42,-357.88 398.42,-357.88 395.46,-357.88 392.5,-354.92 392.5,-351.96 392.5,-351.96 392.5,-346.04 392.5,-346.04 392.5,-343.08 395.46,-340.12 398.42,-340.12 398.42,-340.12 440.58,-340.12 440.58,-340.12 443.54,-340.12 446.5,-343.08 446.5,-346.04 446.5,-346.04 446.5,-351.96 446.5,-351.96 446.5,-354.92 443.54,-357.88 440.58,-357.88"/>
<text text-anchor="start" x="404.12" y="-345.32" font-family="Helvetica,sans-Serif" font-size="9.00">offset.ts</text>
</a>
</g>
</g>
<!-- src/types/abstract&#45;query/modifiers/index.ts&#45;&gt;src/types/abstract&#45;query/modifiers/offset.ts -->
<g id="edge29" class="edge">
<title>src/types/abstract&#45;query/modifiers/index.ts&#45;&gt;src/types/abstract&#45;query/modifiers/offset.ts</title>
<path fill="none" stroke="#000000" stroke-width="2" stroke-opacity="0.200000" d="M376.99,-339.84C379.2,-340.33 381.47,-340.83 383.74,-341.33"/>
<polygon fill="#000000" fill-opacity="0.200000" stroke="#000000" stroke-width="2" stroke-opacity="0.200000" points="384.11,-344.01 390.42,-343.25 385.02,-339.9 384.11,-344.01"/>
</g>
<!-- src/types/abstract&#45;query/modifiers/sort.ts -->
<g id="node20" class="node">
<title>src/types/abstract&#45;query/modifiers/sort.ts</title>
<g id="a_node20"><a xlink:href="src/types/abstract-query/modifiers/sort.ts" xlink:title="sort.ts">
<path fill="#ddfeff" stroke="black" d="M440.58,-57.88C440.58,-57.88 398.42,-57.88 398.42,-57.88 395.46,-57.88 392.5,-54.92 392.5,-51.96 392.5,-51.96 392.5,-46.04 392.5,-46.04 392.5,-43.08 395.46,-40.12 398.42,-40.12 398.42,-40.12 440.58,-40.12 440.58,-40.12 443.54,-40.12 446.5,-43.08 446.5,-46.04 446.5,-46.04 446.5,-51.96 446.5,-51.96 446.5,-54.92 443.54,-57.88 440.58,-57.88"/>
<text text-anchor="start" x="407.5" y="-45.33" font-family="Helvetica,sans-Serif" font-size="9.00">sort.ts</text>
</a>
</g>
</g>
<!-- src/types/abstract&#45;query/modifiers/index.ts&#45;&gt;src/types/abstract&#45;query/modifiers/sort.ts -->
<g id="edge30" class="edge">
<title>src/types/abstract&#45;query/modifiers/index.ts&#45;&gt;src/types/abstract&#45;query/modifiers/sort.ts</title>
<path fill="none" stroke="#000000" stroke-width="2" stroke-opacity="0.200000" d="M352.69,-324.84C362.34,-284.39 401.23,-121.39 414.24,-66.87"/>
<polygon fill="#000000" fill-opacity="0.200000" stroke="#000000" stroke-width="2" stroke-opacity="0.200000" points="416.94,-66.59 416.29,-60.27 412.85,-65.62 416.94,-66.59"/>
</g>
<!-- src/types/abstract&#45;query/nodes/function.ts&#45;&gt;src/types/abstract&#45;query/nodes/primitive.ts -->
<g id="edge33" class="edge">
<title>src/types/abstract&#45;query/nodes/function.ts&#45;&gt;src/types/abstract&#45;query/nodes/primitive.ts</title>
<path fill="none" stroke="#000000" stroke-width="2" stroke-opacity="0.200000" d="M678.37,-423C692.54,-423 709.98,-423 725.35,-423"/>
<polygon fill="#000000" fill-opacity="0.200000" stroke="#000000" stroke-width="2" stroke-opacity="0.200000" points="725.13,-425.1 731.13,-423 725.13,-420.9 725.13,-425.1"/>
</g>
<!-- src/types/abstract&#45;query/nodes/related.ts&#45;&gt;src/types/abstract&#45;query/modifiers/index.ts -->
<g id="edge34" class="edge">
<title>src/types/abstract&#45;query/nodes/related.ts&#45;&gt;src/types/abstract&#45;query/modifiers/index.ts</title>
<path fill="none" stroke="#000000" stroke-width="2" stroke-opacity="0.200000" d="M539.16,-413.63C531.55,-409.59 522.27,-405.09 513.5,-402 458.16,-382.51 427.5,-413.92 384.5,-374 377.12,-367.15 381.64,-360.05 377.43,-350.57"/>
<polygon fill="#000000" fill-opacity="0.200000" stroke="#000000" stroke-width="2" stroke-opacity="0.200000" points="378.59,-349.04 373.52,-345.22 375.1,-351.37 378.59,-349.04"/>
</g>
<!-- src/types/abstract&#45;query/nodes/related.ts&#45;&gt;src/types/abstract&#45;query/nodes/function.ts -->
<g id="edge35" class="edge">
<title>src/types/abstract&#45;query/nodes/related.ts&#45;&gt;src/types/abstract&#45;query/nodes/function.ts</title>
<path fill="none" stroke="#000000" stroke-width="2" stroke-opacity="0.200000" d="M583.82,-423C592.57,-423 602.48,-423 611.87,-423"/>
<polygon fill="#000000" fill-opacity="0.200000" stroke="#000000" stroke-width="2" stroke-opacity="0.200000" points="611.65,-425.1 617.65,-423 611.65,-420.9 611.65,-425.1"/>
</g>
<!-- src/types/abstract&#45;query/nodes/related.ts&#45;&gt;src/types/abstract&#45;query/nodes/primitive.ts -->
<g id="edge36" class="edge">
<title>src/types/abstract&#45;query/nodes/related.ts&#45;&gt;src/types/abstract&#45;query/nodes/primitive.ts</title>
<path fill="none" stroke="#000000" stroke-width="2" stroke-opacity="0.200000" d="M577.33,-432.24C583.35,-434.6 590.08,-436.81 596.5,-438 653.31,-448.55 669.8,-449.13 726.5,-438 729.73,-437.37 733.04,-436.44 736.28,-435.37"/>
<polygon fill="#000000" fill-opacity="0.200000" stroke="#000000" stroke-width="2" stroke-opacity="0.200000" points="737.73,-437.31 742.61,-433.24 736.25,-433.38 737.73,-437.31"/>
</g>
<!-- src/types/abstract&#45;query/modifiers/filters/conditions/field&#45;condition.ts -->
<g id="node9" class="node">
<title>src/types/abstract&#45;query/modifiers/filters/conditions/field&#45;condition.ts</title>
<g id="a_node9"><a xlink:href="src/types/abstract-query/modifiers/filters/conditions/field-condition.ts" xlink:title="field&#45;condition.ts">
<path fill="#ddfeff" stroke="black" d="M684.96,-99.88C684.96,-99.88 614.04,-99.88 614.04,-99.88 611.08,-99.88 608.12,-96.92 608.12,-93.96 608.12,-93.96 608.12,-88.04 608.12,-88.04 608.12,-85.08 611.08,-82.12 614.04,-82.12 614.04,-82.12 684.96,-82.12 684.96,-82.12 687.92,-82.12 690.88,-85.08 690.88,-88.04 690.88,-88.04 690.88,-93.96 690.88,-93.96 690.88,-96.92 687.92,-99.88 684.96,-99.88"/>
<text text-anchor="start" x="616.12" y="-87.33" font-family="Helvetica,sans-Serif" font-size="9.00">field&#45;condition.ts</text>
</a>
</g>
</g>
<!-- src/types/abstract&#45;query/modifiers/filters/conditions/field&#45;condition.ts&#45;&gt;src/types/abstract&#45;query/nodes/primitive.ts -->
<g id="edge8" class="edge">
<title>src/types/abstract&#45;query/modifiers/filters/conditions/field&#45;condition.ts&#45;&gt;src/types/abstract&#45;query/nodes/primitive.ts</title>
<path fill="none" stroke="#000000" stroke-width="2" stroke-opacity="0.200000" d="M691,-89.97C704.05,-91.76 717.47,-96.22 726.5,-106 746.93,-128.12 759.16,-341.23 762.39,-405.04"/>
<polygon fill="#000000" fill-opacity="0.200000" stroke="#000000" stroke-width="2" stroke-opacity="0.200000" points="760.43,-405.05 762.83,-410.94 764.63,-404.85 760.43,-405.05"/>
</g>
<!-- src/types/abstract&#45;query/modifiers/filters/conditions/geo&#45;intersects&#45;bbox.ts -->
<g id="node10" class="node">
<title>src/types/abstract&#45;query/modifiers/filters/conditions/geo&#45;intersects&#45;bbox.ts</title>
<g id="a_node10"><a xlink:href="src/types/abstract-query/modifiers/filters/conditions/geo-intersects-bbox.ts" xlink:title="geo&#45;intersects&#45;bbox.ts">
<path fill="#ddfeff" stroke="black" d="M696.58,-129.88C696.58,-129.88 602.42,-129.88 602.42,-129.88 599.46,-129.88 596.5,-126.92 596.5,-123.96 596.5,-123.96 596.5,-118.04 596.5,-118.04 596.5,-115.08 599.46,-112.12 602.42,-112.12 602.42,-112.12 696.58,-112.12 696.58,-112.12 699.54,-112.12 702.5,-115.08 702.5,-118.04 702.5,-118.04 702.5,-123.96 702.5,-123.96 702.5,-126.92 699.54,-129.88 696.58,-129.88"/>
<text text-anchor="start" x="604.5" y="-117.33" font-family="Helvetica,sans-Serif" font-size="9.00">geo&#45;intersects&#45;bbox.ts</text>
</a>
</g>
</g>
<!-- src/types/abstract&#45;query/modifiers/filters/conditions/geo&#45;intersects&#45;bbox.ts&#45;&gt;src/types/abstract&#45;query/nodes/primitive.ts -->
<g id="edge9" class="edge">
<title>src/types/abstract&#45;query/modifiers/filters/conditions/geo&#45;intersects&#45;bbox.ts&#45;&gt;src/types/abstract&#45;query/nodes/primitive.ts</title>
<path fill="none" stroke="#000000" stroke-width="2" stroke-opacity="0.200000" d="M702.77,-122.47C711.72,-125.01 720.16,-129.22 726.5,-136 763.07,-175.12 764.22,-348.14 763.58,-404.9"/>
<polygon fill="#000000" fill-opacity="0.200000" stroke="#000000" stroke-width="2" stroke-opacity="0.200000" points="761.44,-404.78 763.45,-410.81 765.64,-404.84 761.44,-404.78"/>
</g>
<!-- src/types/abstract&#45;query/modifiers/filters/conditions/geo&#45;intersects.ts -->
<g id="node11" class="node">
<title>src/types/abstract&#45;query/modifiers/filters/conditions/geo&#45;intersects.ts</title>
<g id="a_node11"><a xlink:href="src/types/abstract-query/modifiers/filters/conditions/geo-intersects.ts" xlink:title="geo&#45;intersects.ts">
<path fill="#ddfeff" stroke="black" d="M684.96,-159.88C684.96,-159.88 614.04,-159.88 614.04,-159.88 611.08,-159.88 608.12,-156.92 608.12,-153.96 608.12,-153.96 608.12,-148.04 608.12,-148.04 608.12,-145.08 611.08,-142.12 614.04,-142.12 614.04,-142.12 684.96,-142.12 684.96,-142.12 687.92,-142.12 690.88,-145.08 690.88,-148.04 690.88,-148.04 690.88,-153.96 690.88,-153.96 690.88,-156.92 687.92,-159.88 684.96,-159.88"/>
<text text-anchor="start" x="616.12" y="-147.32" font-family="Helvetica,sans-Serif" font-size="9.00">geo&#45;intersects.ts</text>
</a>
</g>
</g>
<!-- src/types/abstract&#45;query/modifiers/filters/conditions/geo&#45;intersects.ts&#45;&gt;src/types/abstract&#45;query/nodes/primitive.ts -->
<g id="edge10" class="edge">
<title>src/types/abstract&#45;query/modifiers/filters/conditions/geo&#45;intersects.ts&#45;&gt;src/types/abstract&#45;query/nodes/primitive.ts</title>
<path fill="none" stroke="#000000" stroke-width="2" stroke-opacity="0.200000" d="M691.25,-150.16C704.17,-152 717.43,-156.44 726.5,-166 759.14,-200.41 762.95,-351.91 763.27,-404.75"/>
<polygon fill="#000000" fill-opacity="0.200000" stroke="#000000" stroke-width="2" stroke-opacity="0.200000" points="761.18,-404.68 763.3,-410.67 765.38,-404.67 761.18,-404.68"/>
</g>
<!-- src/types/abstract&#45;query/modifiers/filters/conditions/index.ts&#45;&gt;src/types/abstract&#45;query/modifiers/filters/conditions/field&#45;condition.ts -->
<g id="edge11" class="edge">
<title>src/types/abstract&#45;query/modifiers/filters/conditions/index.ts&#45;&gt;src/types/abstract&#45;query/modifiers/filters/conditions/field&#45;condition.ts</title>
<path fill="none" stroke="#000000" stroke-width="2" stroke-opacity="0.200000" d="M579.75,-201.97C581.16,-200.79 582.44,-199.47 583.5,-198 607.62,-164.48 569.42,-137.18 596.5,-106 597.66,-104.67 598.92,-103.45 600.27,-102.34"/>
<polygon fill="#000000" fill-opacity="0.200000" stroke="#000000" stroke-width="2" stroke-opacity="0.200000" points="601.74,-103.62 605.66,-98.62 599.47,-100.08 601.74,-103.62"/>
</g>
<!-- src/types/abstract&#45;query/modifiers/filters/conditions/index.ts&#45;&gt;src/types/abstract&#45;query/modifiers/filters/conditions/geo&#45;intersects&#45;bbox.ts -->
<g id="edge12" class="edge">
<title>src/types/abstract&#45;query/modifiers/filters/conditions/index.ts&#45;&gt;src/types/abstract&#45;query/modifiers/filters/conditions/geo&#45;intersects&#45;bbox.ts</title>
<path fill="none" stroke="#000000" stroke-width="2" stroke-opacity="0.200000" d="M579.64,-201.89C581.08,-200.73 582.39,-199.44 583.5,-198 599.22,-177.62 581.06,-159.93 597.75,-136.93"/>
<polygon fill="#000000" fill-opacity="0.200000" stroke="#000000" stroke-width="2" stroke-opacity="0.200000" points="600.12,-138.22 602.43,-132.29 596.93,-135.48 600.12,-138.22"/>
</g>
<!-- src/types/abstract&#45;query/modifiers/filters/conditions/index.ts&#45;&gt;src/types/abstract&#45;query/modifiers/filters/conditions/geo&#45;intersects.ts -->
<g id="edge13" class="edge">
<title>src/types/abstract&#45;query/modifiers/filters/conditions/index.ts&#45;&gt;src/types/abstract&#45;query/modifiers/filters/conditions/geo&#45;intersects.ts</title>
<path fill="none" stroke="#000000" stroke-width="2" stroke-opacity="0.200000" d="M579.37,-201.65C580.87,-200.55 582.27,-199.33 583.5,-198 593.92,-186.73 585.09,-176.27 596.5,-166 597.63,-164.98 598.82,-164.04 600.07,-163.15"/>
<polygon fill="#000000" fill-opacity="0.200000" stroke="#000000" stroke-width="2" stroke-opacity="0.200000" points="601.53,-164.58 605.68,-159.76 599.43,-160.94 601.53,-164.58"/>
</g>
<!-- src/types/abstract&#45;query/modifiers/filters/conditions/number&#45;condition.ts -->
<g id="node13" class="node">
<title>src/types/abstract&#45;query/modifiers/filters/conditions/number&#45;condition.ts</title>
<g id="a_node13"><a xlink:href="src/types/abstract-query/modifiers/filters/conditions/number-condition.ts" xlink:title="number&#45;condition.ts">
<path fill="#ddfeff" stroke="black" d="M692.08,-189.88C692.08,-189.88 606.92,-189.88 606.92,-189.88 603.96,-189.88 601,-186.92 601,-183.96 601,-183.96 601,-178.04 601,-178.04 601,-175.08 603.96,-172.12 606.92,-172.12 606.92,-172.12 692.08,-172.12 692.08,-172.12 695.04,-172.12 698,-175.08 698,-178.04 698,-178.04 698,-183.96 698,-183.96 698,-186.92 695.04,-189.88 692.08,-189.88"/>
<text text-anchor="start" x="609" y="-177.32" font-family="Helvetica,sans-Serif" font-size="9.00">number&#45;condition.ts</text>
</a>
</g>
</g>
<!-- src/types/abstract&#45;query/modifiers/filters/conditions/index.ts&#45;&gt;src/types/abstract&#45;query/modifiers/filters/conditions/number&#45;condition.ts -->
<g id="edge14" class="edge">
<title>src/types/abstract&#45;query/modifiers/filters/conditions/index.ts&#45;&gt;src/types/abstract&#45;query/modifiers/filters/conditions/number&#45;condition.ts</title>
<path fill="none" stroke="#000000" stroke-width="2" stroke-opacity="0.200000" d="M580.89,-201.63C586.01,-199.68 591.41,-197.71 596.5,-196 599.58,-194.97 602.77,-193.94 605.99,-192.94"/>
<polygon fill="#000000" fill-opacity="0.200000" stroke="#000000" stroke-width="2" stroke-opacity="0.200000" points="607.39,-194.1 612.52,-190.34 606.17,-190.08 607.39,-194.1"/>
</g>
<!-- src/types/abstract&#45;query/modifiers/filters/conditions/set&#45;condition.ts -->
<g id="node14" class="node">
<title>src/types/abstract&#45;query/modifiers/filters/conditions/set&#45;condition.ts</title>
<g id="a_node14"><a xlink:href="src/types/abstract-query/modifiers/filters/conditions/set-condition.ts" xlink:title="set&#45;condition.ts">
<path fill="#ddfeff" stroke="black" d="M682.33,-219.88C682.33,-219.88 616.67,-219.88 616.67,-219.88 613.71,-219.88 610.75,-216.92 610.75,-213.96 610.75,-213.96 610.75,-208.04 610.75,-208.04 610.75,-205.08 613.71,-202.12 616.67,-202.12 616.67,-202.12 682.33,-202.12 682.33,-202.12 685.29,-202.12 688.25,-205.08 688.25,-208.04 688.25,-208.04 688.25,-213.96 688.25,-213.96 688.25,-216.92 685.29,-219.88 682.33,-219.88"/>
<text text-anchor="start" x="618.75" y="-207.32" font-family="Helvetica,sans-Serif" font-size="9.00">set&#45;condition.ts</text>
</a>
</g>
</g>
<!-- src/types/abstract&#45;query/modifiers/filters/conditions/index.ts&#45;&gt;src/types/abstract&#45;query/modifiers/filters/conditions/set&#45;condition.ts -->
<g id="edge15" class="edge">
<title>src/types/abstract&#45;query/modifiers/filters/conditions/index.ts&#45;&gt;src/types/abstract&#45;query/modifiers/filters/conditions/set&#45;condition.ts</title>
<path fill="none" stroke="#000000" stroke-width="2" stroke-opacity="0.200000" d="M583.82,-211C589.39,-211 595.44,-211 601.51,-211"/>
<polygon fill="#000000" fill-opacity="0.200000" stroke="#000000" stroke-width="2" stroke-opacity="0.200000" points="601.39,-213.1 607.39,-211 601.39,-208.9 601.39,-213.1"/>
</g>
<!-- src/types/abstract&#45;query/modifiers/filters/conditions/string&#45;condition.ts -->
<g id="node15" class="node">
<title>src/types/abstract&#45;query/modifiers/filters/conditions/string&#45;condition.ts</title>
<g id="a_node15"><a xlink:href="src/types/abstract-query/modifiers/filters/conditions/string-condition.ts" xlink:title="string&#45;condition.ts">
<path fill="#ddfeff" stroke="black" d="M687.58,-249.88C687.58,-249.88 611.42,-249.88 611.42,-249.88 608.46,-249.88 605.5,-246.92 605.5,-243.96 605.5,-243.96 605.5,-238.04 605.5,-238.04 605.5,-235.08 608.46,-232.12 611.42,-232.12 611.42,-232.12 687.58,-232.12 687.58,-232.12 690.54,-232.12 693.5,-235.08 693.5,-238.04 693.5,-238.04 693.5,-243.96 693.5,-243.96 693.5,-246.92 690.54,-249.88 687.58,-249.88"/>
<text text-anchor="start" x="613.5" y="-237.32" font-family="Helvetica,sans-Serif" font-size="9.00">string&#45;condition.ts</text>
</a>
</g>
</g>
<!-- src/types/abstract&#45;query/modifiers/filters/conditions/index.ts&#45;&gt;src/types/abstract&#45;query/modifiers/filters/conditions/string&#45;condition.ts -->
<g id="edge16" class="edge">
<title>src/types/abstract&#45;query/modifiers/filters/conditions/index.ts&#45;&gt;src/types/abstract&#45;query/modifiers/filters/conditions/string&#45;condition.ts</title>
<path fill="none" stroke="#000000" stroke-width="2" stroke-opacity="0.200000" d="M580.89,-220.37C586.01,-222.32 591.41,-224.29 596.5,-226 599.58,-227.03 602.77,-228.06 605.99,-229.06"/>
<polygon fill="#000000" fill-opacity="0.200000" stroke="#000000" stroke-width="2" stroke-opacity="0.200000" points="606.17,-231.92 612.52,-231.66 607.39,-227.9 606.17,-231.92"/>
</g>
<!-- src/types/abstract&#45;query/modifiers/filters/conditions/number&#45;condition.ts&#45;&gt;src/types/abstract&#45;query/nodes/function.ts -->
<g id="edge17" class="edge">
<title>src/types/abstract&#45;query/modifiers/filters/conditions/number&#45;condition.ts&#45;&gt;src/types/abstract&#45;query/nodes/function.ts</title>
<path fill="none" stroke="#000000" stroke-width="2" stroke-opacity="0.200000" d="M600.72,-189.81C596.1,-192.82 592.28,-196.78 590,-202 583.67,-216.45 587.04,-257.5 590,-273 599.68,-323.65 626.2,-379.02 640.34,-406.13"/>
<polygon fill="#000000" fill-opacity="0.200000" stroke="#000000" stroke-width="2" stroke-opacity="0.200000" points="638.79,-407.58 643.46,-411.9 642.5,-405.61 638.79,-407.58"/>
</g>
<!-- src/types/abstract&#45;query/modifiers/filters/conditions/number&#45;condition.ts&#45;&gt;src/types/abstract&#45;query/nodes/primitive.ts -->
<g id="edge18" class="edge">
<title>src/types/abstract&#45;query/modifiers/filters/conditions/number&#45;condition.ts&#45;&gt;src/types/abstract&#45;query/nodes/primitive.ts</title>
<path fill="none" stroke="#000000" stroke-width="2" stroke-opacity="0.200000" d="M698.27,-181.55C708.8,-183.9 719.02,-188.26 726.5,-196 755.31,-225.81 761.56,-356.66 762.9,-404.99"/>
<polygon fill="#000000" fill-opacity="0.200000" stroke="#000000" stroke-width="2" stroke-opacity="0.200000" points="760.86,-404.79 763.11,-410.74 765.06,-404.69 760.86,-404.79"/>
</g>
<!-- src/types/abstract&#45;query/modifiers/filters/conditions/set&#45;condition.ts&#45;&gt;src/types/abstract&#45;query/nodes/primitive.ts -->
<g id="edge19" class="edge">
<title>src/types/abstract&#45;query/modifiers/filters/conditions/set&#45;condition.ts&#45;&gt;src/types/abstract&#45;query/nodes/primitive.ts</title>
<path fill="none" stroke="#000000" stroke-width="2" stroke-opacity="0.200000" d="M688.66,-210.07C702.27,-211.72 716.66,-216.06 726.5,-226 751.47,-251.24 759.99,-361.45 762.41,-405.1"/>
<polygon fill="#000000" fill-opacity="0.200000" stroke="#000000" stroke-width="2" stroke-opacity="0.200000" points="760.46,-405.14 762.87,-411.02 764.66,-404.92 760.46,-405.14"/>
</g>
<!-- src/types/abstract&#45;query/modifiers/filters/conditions/string&#45;condition.ts&#45;&gt;src/types/abstract&#45;query/nodes/primitive.ts -->
<g id="edge20" class="edge">
<title>src/types/abstract&#45;query/modifiers/filters/conditions/string&#45;condition.ts&#45;&gt;src/types/abstract&#45;query/nodes/primitive.ts</title>
<path fill="none" stroke="#000000" stroke-width="2" stroke-opacity="0.200000" d="M656.25,-250.28C674.27,-279.37 729.86,-369.1 752.99,-406.44"/>
<polygon fill="#000000" fill-opacity="0.200000" stroke="#000000" stroke-width="2" stroke-opacity="0.200000" points="751.7,-407.96 756.65,-411.96 755.27,-405.75 751.7,-407.96"/>
</g>
<!-- src/types/abstract&#45;query/modifiers/filters/logical.ts&#45;&gt;src/types/abstract&#45;query/modifiers/filters/conditions/index.ts -->
<g id="edge21" class="edge">
<title>src/types/abstract&#45;query/modifiers/filters/logical.ts&#45;&gt;src/types/abstract&#45;query/modifiers/filters/conditions/index.ts</title>
<path fill="none" stroke="#000000" stroke-width="2" stroke-opacity="0.200000" d="M443.92,-247.72C449.04,-245.77 454.43,-243.77 459.5,-242 483.25,-233.7 489.56,-232.76 513.5,-225 515.9,-224.22 518.37,-223.41 520.86,-222.6"/>
<polygon fill="#000000" fill-opacity="0.200000" stroke="#000000" stroke-width="2" stroke-opacity="0.200000" points="522.27,-223.68 527.31,-219.81 520.95,-219.69 522.27,-223.68"/>
</g>
<!-- src/types/abstract&#45;query/modifiers/filters/logical.ts&#45;&gt;src/types/abstract&#45;query/modifiers/filters/negate.ts -->
<g id="edge22" class="edge">
<title>src/types/abstract&#45;query/modifiers/filters/logical.ts&#45;&gt;src/types/abstract&#45;query/modifiers/filters/negate.ts</title>
<g id="a_edge22"><a xlink:title="no&#45;circular">
<path fill="none" stroke="orange" stroke-width="2" d="M446.94,-252.57C448.08,-252.54 449.24,-252.52 450.4,-252.51"/>
<polygon fill="none" stroke="orange" stroke-width="2" points="450.28,-254.63 456.3,-252.58 450.31,-250.43 450.28,-254.63"/>
</a>
</g>
<text text-anchor="middle" x="472.1" y="-243.96" font-family="Helvetica,sans-Serif" font-size="9.00" fill="orange">no&#45;circular</text>
</g>
<!-- src/types/abstract&#45;query/modifiers/filters/negate.ts&#45;&gt;src/types/abstract&#45;query/modifiers/filters/conditions/index.ts -->
<g id="edge23" class="edge">
<title>src/types/abstract&#45;query/modifiers/filters/negate.ts&#45;&gt;src/types/abstract&#45;query/modifiers/filters/conditions/index.ts</title>
<path fill="none" stroke="#000000" stroke-width="2" stroke-opacity="0.200000" d="M498.76,-247.78C503.49,-243.72 508.93,-238.8 513.5,-234 516.44,-230.91 516.89,-228.72 522.08,-224.47"/>
<polygon fill="#000000" fill-opacity="0.200000" stroke="#000000" stroke-width="2" stroke-opacity="0.200000" points="523.48,-225.63 527.14,-220.43 521.04,-222.21 523.48,-225.63"/>
</g>
<!-- src/types/abstract&#45;query/modifiers/filters/negate.ts&#45;&gt;src/types/abstract&#45;query/modifiers/filters/logical.ts -->
<g id="edge24" class="edge">
<title>src/types/abstract&#45;query/modifiers/filters/negate.ts&#45;&gt;src/types/abstract&#45;query/modifiers/filters/logical.ts</title>
<g id="a_edge24"><a xlink:title="no&#45;circular">
<path fill="none" stroke="orange" stroke-width="2" d="M459.3,-261.42C458.15,-261.45 456.99,-261.47 455.83,-261.48"/>
<polygon fill="none" stroke="orange" stroke-width="2" points="455.95,-259.37 449.94,-261.43 455.92,-263.57 455.95,-259.37"/>
</a>
</g>
<text text-anchor="middle" x="434.14" y="-262.68" font-family="Helvetica,sans-Serif" font-size="9.00" fill="orange">no&#45;circular</text>
</g>
<!-- src/types/abstract&#45;query/modifiers/sort.ts&#45;&gt;src/types/abstract&#45;query/nodes/function.ts -->
<g id="edge31" class="edge">
<title>src/types/abstract&#45;query/modifiers/sort.ts&#45;&gt;src/types/abstract&#45;query/nodes/function.ts</title>
<path fill="none" stroke="#000000" stroke-width="2" stroke-opacity="0.200000" d="M441.97,-57.98C443.73,-59.43 445.29,-61.1 446.5,-63 475.35,-108.48 432.13,-258.62 459.5,-305 493.49,-362.59 567.75,-396.2 612.4,-411.97"/>
<polygon fill="#000000" fill-opacity="0.200000" stroke="#000000" stroke-width="2" stroke-opacity="0.200000" points="612.29,-414.83 618.64,-414.79 613.65,-410.86 612.29,-414.83"/>
</g>
<!-- src/types/abstract&#45;query/modifiers/sort.ts&#45;&gt;src/types/abstract&#45;query/nodes/primitive.ts -->
<g id="edge32" class="edge">
<title>src/types/abstract&#45;query/modifiers/sort.ts&#45;&gt;src/types/abstract&#45;query/nodes/primitive.ts</title>
<path fill="none" stroke="#000000" stroke-width="2" stroke-opacity="0.200000" d="M446.59,-41.18C505.53,-25.3 649.78,3.28 726.5,-71 750.74,-94.47 760.44,-336.9 762.71,-405.19"/>
<polygon fill="#000000" fill-opacity="0.200000" stroke="#000000" stroke-width="2" stroke-opacity="0.200000" points="760.69,-405.02 762.99,-410.95 764.89,-404.89 760.69,-405.02"/>
</g>
</g>
</svg>
