<svg width="156" height="96" fill="none" xmlns="http://www.w3.org/2000/svg">
	<rect x="18" y="15" width="120" height="66" rx="6" fill="var(--theme--background)" class="glow" />
	<rect x="19" y="16" width="118" height="64" rx="5" stroke="var(--theme--primary)" stroke-width="2" />
	<rect x="28" y="25" width="8" height="8" rx="2" fill="var(--theme--primary)" fill-opacity=".25" />
	<rect x="42" y="25" width="8" height="8" rx="2" fill="var(--theme--primary)" />
	<rect x="56" y="25" width="8" height="8" rx="2" fill="var(--theme--primary)" fill-opacity=".25" />
	<rect x="70" y="25" width="8" height="8" rx="2" fill="var(--theme--primary)" fill-opacity=".25" />
	<rect x="84" y="25" width="8" height="8" rx="2" fill="var(--theme--primary)" fill-opacity=".25" />
	<rect x="98" y="25" width="8" height="8" rx="2" fill="var(--theme--primary)" fill-opacity=".25" />
	<rect x="28" y="39" width="60" height="6" rx="2" fill="var(--theme--primary)" fill-opacity=".25" />
	<rect x="28" y="59" width="60" height="6" rx="2" fill="var(--theme--primary)" fill-opacity=".25" />
	<rect x="28" y="49" width="40" height="6" rx="2" fill="var(--theme--primary)" fill-opacity=".25" />
	<rect x="92" y="39" width="30" height="6" rx="2" fill="var(--theme--primary)" />
	<rect x="72" y="49" width="50" height="6" rx="2" fill="var(--theme--primary)" fill-opacity=".25" />
</svg>
