<svg width="262" height="40" fill="none" xmlns="http://www.w3.org/2000/svg">
	<path fill-rule="evenodd" clip-rule="evenodd"
		d="M52.694 25.242a4.778 4.778 0 01-.785-.253 1.829 1.829 0 01-.433-.266.322.322 0 01-.107-.282c.122-1.272-.012-2.394.11-3.655.506-5.115 3.722-3.495 6.608-4.33 1.658-.467 3.315-1.386 3.921-3.194a.876.876 0 00-.194-.852 37.06 37.06 0 00-6.259-5.678C47.93 1.303 38.019-.95 28.918.368a.473.473 0 00-.337.725 14.024 14.024 0 004.417 4.342c.317.196.19.62-.174.538-.855-.191-1.954-.565-2.987-1.295a.36.36 0 00-.342-.042c-.462.184-1.129.45-1.68.688a.458.458 0 00-.121.772c4.571 3.963 11.221 4.565 16.429 1.394.317-.193.825.204.722.561a27.767 27.767 0 00-.558 2.429c-1.291 6.533-5.014 6.026-9.622 4.38-9.209-3.337-14.433-.487-19.078-6.129-.322-.392-.89-.528-1.274-.195a4.413 4.413 0 00-1.526 3.337c0 1.534.792 2.848 1.966 3.634a.337.337 0 00.451-.082c.286-.362.52-.602.812-.753.319-.166.474.29.205.528-.987.874-1.27 1.914-1.914 3.965-1.013 3.216-.583 6.508-5.318 7.369-2.507.126-2.456 1.823-3.368 4.355-1.058 3.056-2.443 4.41-5.007 7.08-.35.366-.38.95.005 1.278 1.024.873 2.08.921 3.154.48 2.659-1.115 4.71-4.559 6.634-6.787 2.152-2.481 7.318-1.418 11.217-3.849 2.104-1.29 3.367-2.937 2.963-5.404-.065-.398.39-.636.555-.269.313.698.518 1.442.603 2.21.023.202.203.351.405.34 4.22-.238 9.675 4.416 14.773 5.675.31.076.531-.282.356-.549a9.412 9.412 0 01-.816-1.522A10.321 10.321 0 0139.947 28c-.094-.396.485-.503.683-.146 1.307 2.357 3.92 4.57 7.558 4.834 1.24.101 2.608-.05 4.026-.481 1.696-.507 3.266-1.165 5.14-.81 1.392.253 2.684.962 3.494 2.152 1.137 1.658 3.537 2.097 4.817.364.174-.236.188-.55.073-.82-2.816-6.603-9.969-7.056-13.043-7.85z"
		fill="#172940" />
	<path
		d="M91.633 10.785a1 1 0 01.9-.817l3.42-.29a.4.4 0 01.427.469l-3.437 19.16a1 1 0 01-.985.823H89.37a.373.373 0 01-.367-.436c.061-.352-.376-.598-.668-.393a6.411 6.411 0 01-3.758 1.195c-1.894 0-3.462-.679-4.702-2.036C78.625 27.102 78 25.447 78 23.494c0-2.5.772-4.58 2.314-6.24 1.543-1.66 3.506-2.49 5.89-2.49 1.434 0 2.647.375 3.637 1.124.33.25.848.094.922-.312l.87-4.79zm-5.796 15.8c1.172 0 2.134-.42 2.886-1.26.732-.84 1.098-1.87 1.098-3.09 0-1.065-.298-1.924-.893-2.579-.596-.654-1.377-.981-2.344-.981-1.182 0-2.139.42-2.871 1.26-.742.83-1.113 1.86-1.113 3.09 0 1.055.302 1.915.908 2.579.596.654 1.372.981 2.329.981zM101.43 12.727a2.513 2.513 0 01-1.801-.732 2.408 2.408 0 01-.747-1.787c0-.889.327-1.646.981-2.27a3.158 3.158 0 012.3-.938c.683 0 1.274.254 1.772.762.498.517.747 1.113.747 1.787 0 .879-.322 1.626-.966 2.241a3.143 3.143 0 01-2.286.938zm-.481 16.58a1 1 0 01-.984.823h-2.583a1 1 0 01-.984-1.177l2.336-13a1 1 0 01.984-.823h2.596a1 1 0 01.984 1.178l-2.349 13zM117.141 15.2c.114.048.201.14.247.254a.474.474 0 01-.009.373l-1.368 2.985a.498.498 0 01-.223.235.548.548 0 01-.486-.002 3.358 3.358 0 00-1.559-.312c-1.231 0-2.178.498-2.842 1.494-.244.381-.508 1.27-.791 2.667l-1.116 6.407a1 1 0 01-.985.829h-2.607a1 1 0 01-.984-1.177l2.336-13a1 1 0 01.984-.823h2.206c.416 0 .732.374.662.785-.058.341.412.565.671.335a5.75 5.75 0 01.723-.549c.918-.605 1.899-.918 2.944-.937.757 0 1.49.145 2.197.437zM125.132 14.764c2.393 0 4.195.766 5.405 2.3 1.211 1.533 1.597 3.378 1.158 5.537-.02.125-.047.257-.083.394-.103.404-.486.66-.903.66h-9.201c-.525 0-.981.41-.901.93.102.66.385 1.196.848 1.604.655.586 1.509.88 2.564.88 1.487 0 2.823-.52 4.007-1.558a.38.38 0 01.545.036l1.435 1.697a.455.455 0 01.101.369.442.442 0 01-.128.246c-1.788 1.739-3.995 2.618-6.619 2.637-2.217 0-4.009-.703-5.376-2.11-1.377-1.396-1.992-3.183-1.846-5.36.059-1.495.469-2.852 1.231-4.073a8.275 8.275 0 013.017-2.9c1.445-.86 3.027-1.29 4.746-1.29zm-3.556 4.96c-.366.562.117 1.221.788 1.221h4.192c.532 0 .995-.425.87-.942a2.63 2.63 0 00-.463-.977c-.488-.664-1.24-.99-2.256-.981-.908 0-1.689.259-2.343.776a4.19 4.19 0 00-.788.902zM140.433 30.496c-2.149 0-3.902-.679-5.259-2.036-1.367-1.348-2.051-3.09-2.051-5.23 0-1.396.308-2.685.923-3.867a8.05 8.05 0 012.578-2.944c1.602-1.104 3.384-1.655 5.347-1.655 2.588 0 4.573.86 5.955 2.58a.407.407 0 01-.068.564l-2.689 2.146a.394.394 0 01-.244.086.412.412 0 01-.321-.16c-.692-.87-1.624-1.305-2.794-1.305-1.133 0-2.071.346-2.813 1.04-.859.82-1.289 1.904-1.289 3.252 0 1.094.313 1.968.938 2.622.615.664 1.44.996 2.475.996 1.073 0 2.025-.392 2.858-1.176a.394.394 0 01.57.017l1.9 2.12a.422.422 0 01.101.354.412.412 0 01-.123.23c-1.679 1.578-3.677 2.366-5.994 2.366zM160.449 17.716a1 1 0 01-.985.827h-2.645c-.484 0-.899.347-.985.823l-.921 5.124c-.254 1.377.205 2.066 1.377 2.066.487 0 .952-.146 1.395-.438a.355.355 0 01.382-.013.33.33 0 01.147.197l.643 2.395a.665.665 0 01-.062.497.629.629 0 01-.197.216c-1.073.724-2.282 1.086-3.626 1.086-1.621 0-2.891-.469-3.809-1.406-.918-.918-1.221-2.3-.908-4.146l.956-5.221a1 1 0 00-.984-1.18h-.187a1 1 0 01-.985-1.173l.249-1.413a1 1 0 01.985-.827h.93c.485 0 .9-.348.984-.825l.525-2.946a1 1 0 01.899-.821l3.361-.289a.401.401 0 01.427.468l-.588 3.234a1 1 0 00.984 1.179h1.902a1 1 0 01.985 1.173l-.249 1.413zM171.137 23.977l1.434-8.023a1 1 0 01.985-.824h2.568a1 1 0 01.984 1.176l-2.323 13a1 1 0 01-.985.824h-2.541a.384.384 0 01-.378-.452c.064-.36-.378-.615-.679-.407-1.18.817-2.44 1.225-3.782 1.225-1.797 0-3.155-.59-4.073-1.772-.918-1.182-1.21-2.754-.878-4.717l1.448-8.054a1 1 0 01.984-.823h2.612a1 1 0 01.984 1.177l-1.341 7.466c-.137.85-.034 1.528.308 2.036.341.498.879.747 1.611.747 1.025 0 1.826-.381 2.402-1.143.303-.332.523-.81.66-1.436zM183.698 30.525c-1.485 0-2.803-.258-3.955-.776-1.111-.477-1.911-1.092-2.4-1.845a.433.433 0 01-.06-.317c.018-.099.068-.19.142-.258l2.248-2.088a.345.345 0 01.234-.092c.117 0 .224.06.295.153.331.436.847.824 1.548 1.166.771.38 1.543.571 2.314.571.606 0 1.074-.117 1.406-.352a1.11 1.11 0 00.513-.966.986.986 0 00-.278-.674 1.95 1.95 0 00-.645-.513 12.869 12.869 0 00-.967-.41 17.498 17.498 0 01-1.655-.644c-.43-.206-.893-.479-1.392-.82-.996-.704-1.494-1.685-1.494-2.945 0-1.465.596-2.661 1.787-3.589 1.192-.928 2.759-1.392 4.703-1.392 1.269 0 2.441.22 3.515.66.985.41 1.727.96 2.227 1.652a.431.431 0 01.071.328.46.46 0 01-.148.265l-2.164 1.913a.416.416 0 01-.275.104.44.44 0 01-.322-.145 4.263 4.263 0 00-1.396-.997 4.378 4.378 0 00-1.816-.41c-.527 0-.947.107-1.26.322-.312.205-.469.478-.469.82 0 .215.093.396.279.542.234.195.493.352.776.469.049.02.191.083.425.19.244.098.469.186.674.264.263.107.483.195.659.264 1.211.546 2.109 1.162 2.695 1.845.586.674.879 1.519.879 2.535 0 1.581-.615 2.836-1.846 3.764-1.23.938-2.846 1.406-4.848 1.406z"
		fill="#172940" />
	<g opacity=".5" fill="#172940">
		<path
			d="M209.923 9.902l4.321-.366.337.22L210.948 30h-3.867l.264-1.523c-1.358 1.26-2.896 1.89-4.615 1.89-1.894 0-3.461-.68-4.702-2.037-1.25-1.357-1.875-3.013-1.875-4.966 0-2.5.772-4.58 2.315-6.24 1.543-1.66 3.506-2.49 5.888-2.49 1.817 0 3.277.6 4.38 1.802l1.187-6.534zm-5.933 16.553c1.172 0 2.134-.42 2.886-1.26.732-.84 1.099-1.87 1.099-3.09 0-1.065-.298-1.924-.894-2.579-.596-.654-1.377-.981-2.344-.981-1.181 0-2.138.42-2.871 1.26-.742.83-1.113 1.86-1.113 3.09 0 1.055.303 1.915.908 2.579.596.654 1.372.981 2.329.981zM222.133 30.366c-2.149 0-3.936-.683-5.362-2.05-1.425-1.368-2.138-3.106-2.138-5.215 0-1.407.307-2.7.922-3.882a7.951 7.951 0 012.623-2.93c1.591-1.104 3.364-1.655 5.317-1.655 2.168 0 3.965.674 5.391 2.021 1.406 1.358 2.109 3.106 2.109 5.244 0 2.686-1.03 4.869-3.091 6.548-1.631 1.28-3.555 1.92-5.771 1.92zm.337-3.91c1.064 0 1.962-.338 2.695-1.012.898-.84 1.348-1.943 1.348-3.31 0-1.074-.313-1.939-.938-2.593-.635-.664-1.431-.996-2.388-.996-1.064 0-1.963.337-2.695 1.01-.898.84-1.348 1.944-1.348 3.311 0 1.065.318 1.929.952 2.593.635.664 1.426.996 2.374.996zM239.733 30.366c-2.148 0-3.901-.678-5.259-2.036-1.367-1.348-2.051-3.09-2.051-5.23 0-1.396.308-2.685.923-3.867a8.059 8.059 0 012.578-2.944c1.602-1.104 3.384-1.655 5.347-1.655 2.666 0 4.692.913 6.079 2.739l-.088.322-2.9 2.315h-.337c-.703-.977-1.675-1.465-2.915-1.465-1.133 0-2.07.347-2.813 1.04-.859.82-1.289 1.904-1.289 3.252 0 1.094.313 1.968.938 2.622.615.664 1.44.996 2.475.996 1.124 0 2.115-.43 2.974-1.289h.337l2.153 2.402-.058.337c-1.699 1.64-3.731 2.461-6.094 2.461zM253.159 30.395c-1.485 0-2.803-.258-3.955-.776-1.182-.508-2.012-1.172-2.491-1.992l.059-.322 2.461-2.285h.322c.322.498.874.937 1.655 1.318.772.38 1.543.571 2.315.571.605 0 1.074-.117 1.406-.351a1.11 1.11 0 00.513-.967.983.983 0 00-.279-.674 1.935 1.935 0 00-.644-.513 12.869 12.869 0 00-.967-.41 17.365 17.365 0 01-1.655-.644c-.43-.206-.894-.479-1.392-.82-.996-.704-1.494-1.685-1.494-2.945 0-1.465.596-2.661 1.787-3.589 1.192-.928 2.759-1.392 4.702-1.392 1.27 0 2.442.22 3.516.66 1.055.44 1.831 1.04 2.329 1.801l-.059.337-2.402 2.124h-.351a4.24 4.24 0 00-1.524-1.142 4.38 4.38 0 00-1.816-.41c-.528 0-.948.107-1.26.322-.313.205-.469.478-.469.82 0 .215.093.396.279.542.234.195.493.352.776.469.049.02.19.083.425.19.244.098.468.186.674.264.263.108.483.195.659.264 1.211.547 2.109 1.162 2.695 1.845.586.674.879 1.519.879 2.535 0 1.582-.615 2.836-1.846 3.764-1.23.938-2.846 1.406-4.848 1.406z" />
	</g>
</svg>
