<svg width="156" height="96" viewBox="0 0 156 96" fill="none" xmlns="http://www.w3.org/2000/svg">
	<rect x="54" y="36" width="70" height="6" rx="2" fill="var(--theme--primary)" />
	<path
		d="M43.0742 33.75H34.9258C34.2695 33.75 33.75 34.2695 33.75 34.9258V43.0742C33.75 43.7305 34.2695 44.25 34.9258 44.25H43.0742C43.7305 44.25 44.25 43.7305 44.25 43.0742V34.9258C44.25 34.2695 43.7305 33.75 43.0742 33.75ZM43.0742 43.0742H34.9258V34.9258H43.0742V43.0742ZM42.5 37.25L41.6797 36.4297L37.8242 40.2578L36.3203 38.7539L35.5 39.6016L37.8242 41.9258L42.5 37.25Z"
		fill="var(--theme--primary)" />
	<rect x="54" y="72" width="50" height="6" rx="2" fill="var(--theme--primary)" />
	<path
		d="M43.0742 69.75H34.9258C34.2695 69.75 33.75 70.2695 33.75 70.9258V79.0742C33.75 79.7305 34.2695 80.25 34.9258 80.25H43.0742C43.7305 80.25 44.25 79.7305 44.25 79.0742V70.9258C44.25 70.2695 43.7305 69.75 43.0742 69.75ZM43.0742 79.0742H34.9258V70.9258H43.0742V79.0742ZM42.5 73.25L41.6797 72.4297L37.8242 76.2578L36.3203 74.7539L35.5 75.6016L37.8242 77.9258L42.5 73.25Z"
		fill="var(--theme--primary)" />
	<rect x="54" y="18" width="50" height="6" rx="2" fill="var(--theme--primary)" fill-opacity="0.25" />
	<path
		d="M43.0742 16.9258V25.0742H34.9258V16.9258H43.0742ZM43.0742 15.75H34.9258C34.2695 15.75 33.75 16.2695 33.75 16.9258V25.0742C33.75 25.7305 34.2695 26.25 34.9258 26.25H43.0742C43.7305 26.25 44.25 25.7305 44.25 25.0742V16.9258C44.25 16.2695 43.7305 15.75 43.0742 15.75Z"
		fill="var(--theme--primary)" fill-opacity="0.25" />
	<rect x="54" y="54" width="60" height="6" rx="2" fill="var(--theme--primary)" fill-opacity="0.25" />
	<path
		d="M43.0742 52.9258V61.0742H34.9258V52.9258H43.0742ZM43.0742 51.75H34.9258C34.2695 51.75 33.75 52.2695 33.75 52.9258V61.0742C33.75 61.7305 34.2695 62.25 34.9258 62.25H43.0742C43.7305 62.25 44.25 61.7305 44.25 61.0742V52.9258C44.25 52.2695 43.7305 51.75 43.0742 51.75Z"
		fill="var(--theme--primary)" fill-opacity="0.25" />
</svg>
