<svg width="156" height="96" viewBox="0 0 156 96" fill="none" xmlns="http://www.w3.org/2000/svg">
	<rect x="54" y="36" width="70" height="6" rx="2" fill="var(--theme--primary)" />
	<path
		d="M39 33.1758C35.7734 33.1758 33.1758 35.7734 33.1758 39C33.1758 42.2266 35.7734 44.8242 39 44.8242C42.2266 44.8242 44.8242 42.2266 44.8242 39C44.8242 35.7734 42.2266 33.1758 39 33.1758ZM39 43.6758C36.4297 43.6758 34.3242 41.5703 34.3242 39C34.3242 36.4297 36.4297 34.3242 39 34.3242C41.5703 34.3242 43.6758 36.4297 43.6758 39C43.6758 41.5703 41.5703 43.6758 39 43.6758ZM36.0742 39C36.0742 37.3867 37.3867 36.0742 39 36.0742C40.6133 36.0742 41.9258 37.3867 41.9258 39C41.9258 40.6133 40.6133 41.9258 39 41.9258C37.3867 41.9258 36.0742 40.6133 36.0742 39Z"
		fill="var(--theme--primary)" />
	<rect x="54" y="72" width="50" height="6" rx="2" fill="var(--theme--primary)" fill-opacity="0.25" />
	<path
		d="M39 69.1758C35.7734 69.1758 33.1758 71.7734 33.1758 75C33.1758 78.2266 35.7734 80.8242 39 80.8242C42.2266 80.8242 44.8242 78.2266 44.8242 75C44.8242 71.7734 42.2266 69.1758 39 69.1758ZM39 79.6758C36.4297 79.6758 34.3242 77.5703 34.3242 75C34.3242 72.4297 36.4297 70.3242 39 70.3242C41.5703 70.3242 43.6758 72.4297 43.6758 75C43.6758 77.5703 41.5703 79.6758 39 79.6758Z"
		fill="var(--theme--primary)" fill-opacity="0.25" />
	<rect x="54" y="18" width="50" height="6" rx="2" fill="var(--theme--primary)" fill-opacity="0.25" />
	<path
		d="M39 15.1758C35.7734 15.1758 33.1758 17.7734 33.1758 21C33.1758 24.2266 35.7734 26.8242 39 26.8242C42.2266 26.8242 44.8242 24.2266 44.8242 21C44.8242 17.7734 42.2266 15.1758 39 15.1758ZM39 25.6758C36.4297 25.6758 34.3242 23.5703 34.3242 21C34.3242 18.4297 36.4297 16.3242 39 16.3242C41.5703 16.3242 43.6758 18.4297 43.6758 21C43.6758 23.5703 41.5703 25.6758 39 25.6758Z"
		fill="var(--theme--primary)" fill-opacity="0.25" />
	<rect x="54" y="54" width="60" height="6" rx="2" fill="var(--theme--primary)" fill-opacity="0.25" />
	<path
		d="M39 51.1758C35.7734 51.1758 33.1758 53.7734 33.1758 57C33.1758 60.2266 35.7734 62.8242 39 62.8242C42.2266 62.8242 44.8242 60.2266 44.8242 57C44.8242 53.7734 42.2266 51.1758 39 51.1758ZM39 61.6758C36.4297 61.6758 34.3242 59.5703 34.3242 57C34.3242 54.4297 36.4297 52.3242 39 52.3242C41.5703 52.3242 43.6758 54.4297 43.6758 57C43.6758 59.5703 41.5703 61.6758 39 61.6758Z"
		fill="var(--theme--primary)" fill-opacity="0.25" />
</svg>
