<?xml version="1.0" standalone="no"?>
<!DOCTYPE svg PUBLIC "-//W3C//DTD SVG 20010904//EN"
 "http://www.w3.org/TR/2001/REC-SVG-20010904/DTD/svg10.dtd">
<svg version="1.0" xmlns="http://www.w3.org/2000/svg"
 width="620.000000pt" height="620.000000pt" viewBox="0 0 620.000000 620.000000"
 preserveAspectRatio="xMidYMid meet">
<metadata>
Created by potrace 1.11, written by Peter Selinger 2001-2013
</metadata>
<g transform="translate(0.000000,620.000000) scale(0.100000,-0.100000)"
fill="#000000" stroke="none">
<path d="M2935 4909 c-38 -4 -90 -10 -115 -13 -83 -8 -150 -19 -150 -23 0 -10
88 -134 134 -188 94 -110 218 -214 332 -276 41 -23 74 -43 74 -45 0 -10 -107
8 -175 28 -73 21 -150 57 -199 91 -29 20 -30 20 -80 3 -28 -10 -80 -32 -116
-48 l-65 -30 46 -42 c92 -83 257 -181 399 -235 194 -74 455 -95 675 -56 155
29 350 110 478 201 49 35 66 43 50 22 -21 -26 -72 -217 -97 -364 -10 -57 -57
-188 -88 -247 -54 -100 -153 -182 -245 -203 -45 -10 -191 -13 -226 -4 -18 4
-57 13 -87 19 -30 7 -113 32 -185 56 -134 45 -289 93 -325 101 -110 24 -141
30 -250 49 -47 7 -105 17 -130 20 -25 3 -61 7 -80 10 -19 2 -60 7 -90 10 -52
6 -174 21 -250 31 -97 13 -254 60 -337 99 -127 62 -226 143 -327 267 l-38 48
-30 -21 c-151 -108 -210 -296 -147 -466 31 -81 69 -131 141 -187 l33 -25 33
39 c36 44 78 66 135 73 20 3 37 4 37 2 0 -1 -17 -14 -37 -27 -67 -45 -113 -99
-153 -184 -22 -45 -40 -87 -40 -93 0 -5 -13 -52 -29 -103 -16 -51 -43 -151
-60 -223 -48 -205 -85 -282 -167 -355 -64 -56 -222 -118 -302 -120 -13 0 -46
-10 -73 -21 -72 -31 -101 -80 -170 -284 -87 -261 -139 -353 -295 -530 -58 -66
-93 -103 -201 -216 l-45 -46 34 -32 c154 -148 332 -113 548 108 47 48 94 98
105 112 10 13 75 95 143 181 122 157 184 219 232 233 14 4 30 11 35 15 19 15
149 51 235 66 47 8 99 17 115 20 325 57 506 129 651 261 149 136 187 333 102
532 -29 67 -14 61 36 -17 64 -98 82 -148 111 -307 4 -18 13 -20 84 -22 159 -3
291 -52 719 -268 158 -79 323 -158 367 -176 94 -37 285 -91 285 -80 0 4 -11
21 -25 37 -39 45 -131 242 -123 264 1 3 -3 14 -9 25 -15 28 -38 243 -25 230 2
-2 16 -39 31 -82 47 -141 156 -289 287 -390 94 -72 245 -136 379 -161 17 -3
80 -5 140 -6 121 0 215 16 372 65 199 61 302 72 421 44 126 -30 180 -67 323
-222 124 -134 302 -133 405 2 l26 35 -30 65 c-104 222 -274 387 -513 499 -131
61 -250 98 -494 152 -120 26 -227 55 -249 67 l-39 22 3 140 c3 233 13 314 50
399 52 122 141 166 365 181 146 9 219 27 334 83 101 50 193 155 221 253 9 30
5 35 -168 207 -187 187 -200 198 -377 332 -196 148 -460 296 -700 393 -103 42
-335 122 -380 131 -11 3 -67 16 -125 30 -58 14 -146 32 -195 41 -50 8 -100 17
-110 19 -11 2 -51 7 -90 11 -38 4 -79 10 -90 12 -36 8 -508 10 -580 2z"/>
</g>
</svg>
