<?xml version="1.0" encoding="UTF-8" standalone="no"?>
<!DOCTYPE svg PUBLIC "-//W3C//DTD SVG 1.1//EN"
 "http://www.w3.org/Graphics/SVG/1.1/DTD/svg11.dtd">
<!-- Generated by graphviz version 8.1.0 (20230707.0739)
 -->
<!-- Title: dependency&#45;cruiser output Pages: 1 -->
<svg width="731pt" height="308pt"
 viewBox="0.00 0.00 731.00 308.00" xmlns="http://www.w3.org/2000/svg" xmlns:xlink="http://www.w3.org/1999/xlink">
<g id="graph0" class="graph" transform="scale(1 1) rotate(0) translate(4 304)">
<title>dependency&#45;cruiser output</title>
<polygon fill="white" stroke="none" points="-4,4 -4,-304 727,-304 727,4 -4,4"/>
<g id="clust1" class="cluster">
<title>cluster_src</title>
<path fill="#ffffff" stroke="black" stroke-width="2" d="M20,-8C20,-8 703,-8 703,-8 709,-8 715,-14 715,-20 715,-20 715,-280 715,-280 715,-286 709,-292 703,-292 703,-292 20,-292 20,-292 14,-292 8,-286 8,-280 8,-280 8,-20 8,-20 8,-14 14,-8 20,-8"/>
<text text-anchor="middle" x="361.5" y="-279.45" font-family="Helvetica,sans-Serif" font-weight="bold" font-size="9.00">src</text>
</g>
<g id="clust2" class="cluster">
<title>cluster_src/query</title>
<path fill="#ffffff" stroke="black" stroke-width="2" d="M90,-16C90,-16 223.75,-16 223.75,-16 229.75,-16 235.75,-22 235.75,-28 235.75,-28 235.75,-236 235.75,-236 235.75,-242 229.75,-248 223.75,-248 223.75,-248 90,-248 90,-248 84,-248 78,-242 78,-236 78,-236 78,-28 78,-28 78,-22 84,-16 90,-16"/>
<text text-anchor="middle" x="156.88" y="-235.45" font-family="Helvetica,sans-Serif" font-weight="bold" font-size="9.00">query</text>
</g>
<g id="clust3" class="cluster">
<title>cluster_src/utils</title>
<path fill="#ffffff" stroke="black" stroke-width="2" d="M255.75,-60C255.75,-60 695,-60 695,-60 701,-60 707,-66 707,-72 707,-72 707,-254 707,-254 707,-260 701,-266 695,-266 695,-266 255.75,-266 255.75,-266 249.75,-266 243.75,-260 243.75,-254 243.75,-254 243.75,-72 243.75,-72 243.75,-66 249.75,-60 255.75,-60"/>
<text text-anchor="middle" x="475.38" y="-253.45" font-family="Helvetica,sans-Serif" font-weight="bold" font-size="9.00">utils</text>
</g>
<g id="clust4" class="cluster">
<title>cluster_src/utils/conditions</title>
<path fill="#ffffff" stroke="black" stroke-width="2" d="M263.75,-68C263.75,-68 419.75,-68 419.75,-68 425.75,-68 431.75,-74 431.75,-80 431.75,-80 431.75,-228 431.75,-228 431.75,-234 425.75,-240 419.75,-240 419.75,-240 263.75,-240 263.75,-240 257.75,-240 251.75,-234 251.75,-228 251.75,-228 251.75,-80 251.75,-80 251.75,-74 257.75,-68 263.75,-68"/>
<text text-anchor="middle" x="341.75" y="-227.45" font-family="Helvetica,sans-Serif" font-weight="bold" font-size="9.00">conditions</text>
</g>
<!-- src/index.ts -->
<g id="node1" class="node">
<title>src/index.ts</title>
<g id="a_node1"><a xlink:href="src/index.ts" xlink:title="index.ts">
<path fill="#ddfeff" stroke="black" d="M64.08,-116.88C64.08,-116.88 21.92,-116.88 21.92,-116.88 18.96,-116.88 16,-113.92 16,-110.96 16,-110.96 16,-105.04 16,-105.04 16,-102.08 18.96,-99.12 21.92,-99.12 21.92,-99.12 64.08,-99.12 64.08,-99.12 67.04,-99.12 70,-102.08 70,-105.04 70,-105.04 70,-110.96 70,-110.96 70,-113.92 67.04,-116.88 64.08,-116.88"/>
<text text-anchor="start" x="27.25" y="-104.33" font-family="Helvetica,sans-Serif" font-size="9.00">index.ts</text>
</a>
</g>
</g>
<!-- src/query/index.ts -->
<g id="node2" class="node">
<title>src/query/index.ts</title>
<g id="a_node2"><a xlink:href="src/query/index.ts" xlink:title="index.ts">
<path fill="#ddfeff" stroke="black" d="M142.83,-131.88C142.83,-131.88 100.67,-131.88 100.67,-131.88 97.71,-131.88 94.75,-128.92 94.75,-125.96 94.75,-125.96 94.75,-120.04 94.75,-120.04 94.75,-117.08 97.71,-114.12 100.67,-114.12 100.67,-114.12 142.83,-114.12 142.83,-114.12 145.79,-114.12 148.75,-117.08 148.75,-120.04 148.75,-120.04 148.75,-125.96 148.75,-125.96 148.75,-128.92 145.79,-131.88 142.83,-131.88"/>
<text text-anchor="start" x="106" y="-119.33" font-family="Helvetica,sans-Serif" font-size="9.00">index.ts</text>
</a>
</g>
</g>
<!-- src/index.ts&#45;&gt;src/query/index.ts -->
<g id="edge1" class="edge">
<title>src/index.ts&#45;&gt;src/query/index.ts</title>
<path fill="none" stroke="#000000" stroke-width="2" stroke-opacity="0.200000" d="M70.41,-113.16C75.36,-114.13 80.6,-115.15 85.75,-116.16"/>
<polygon fill="#000000" fill-opacity="0.200000" stroke="#000000" stroke-width="2" stroke-opacity="0.200000" points="86,-118.74 92.29,-117.83 86.8,-114.62 86,-118.74"/>
</g>
<!-- src/query/parameters.ts -->
<g id="node3" class="node">
<title>src/query/parameters.ts</title>
<g id="a_node3"><a xlink:href="src/query/parameters.ts" xlink:title="parameters.ts">
<path fill="#ddfeff" stroke="black" d="M151.58,-101.88C151.58,-101.88 91.92,-101.88 91.92,-101.88 88.96,-101.88 86,-98.92 86,-95.96 86,-95.96 86,-90.04 86,-90.04 86,-87.08 88.96,-84.12 91.92,-84.12 91.92,-84.12 151.58,-84.12 151.58,-84.12 154.54,-84.12 157.5,-87.08 157.5,-90.04 157.5,-90.04 157.5,-95.96 157.5,-95.96 157.5,-98.92 154.54,-101.88 151.58,-101.88"/>
<text text-anchor="start" x="94" y="-89.33" font-family="Helvetica,sans-Serif" font-size="9.00">parameters.ts</text>
</a>
</g>
</g>
<!-- src/index.ts&#45;&gt;src/query/parameters.ts -->
<g id="edge2" class="edge">
<title>src/index.ts&#45;&gt;src/query/parameters.ts</title>
<path fill="none" stroke="#000000" stroke-width="2" stroke-opacity="0.200000" d="M70.41,-102.84C72.58,-102.42 74.79,-101.98 77.04,-101.54"/>
<polygon fill="#000000" fill-opacity="0.200000" stroke="#000000" stroke-width="2" stroke-opacity="0.200000" points="78.26,-103.05 83.75,-99.84 77.46,-98.93 78.26,-103.05"/>
</g>
<!-- src/query/from.ts -->
<g id="node4" class="node">
<title>src/query/from.ts</title>
<g id="a_node4"><a xlink:href="src/query/from.ts" xlink:title="from.ts">
<path fill="#ddfeff" stroke="black" d="M220.21,-71.88C220.21,-71.88 178.04,-71.88 178.04,-71.88 175.08,-71.88 172.12,-68.92 172.12,-65.96 172.12,-65.96 172.12,-60.04 172.12,-60.04 172.12,-57.08 175.08,-54.12 178.04,-54.12 178.04,-54.12 220.21,-54.12 220.21,-54.12 223.17,-54.12 226.12,-57.08 226.12,-60.04 226.12,-60.04 226.12,-65.96 226.12,-65.96 226.12,-68.92 223.17,-71.88 220.21,-71.88"/>
<text text-anchor="start" x="185.62" y="-59.33" font-family="Helvetica,sans-Serif" font-size="9.00">from.ts</text>
</a>
</g>
</g>
<!-- src/query/index.ts&#45;&gt;src/query/from.ts -->
<g id="edge4" class="edge">
<title>src/query/index.ts&#45;&gt;src/query/from.ts</title>
<path fill="none" stroke="#000000" stroke-width="2" stroke-opacity="0.200000" d="M149.18,-114.2C152.21,-112.47 155.08,-110.41 157.5,-108 166.34,-99.18 162.34,-91.28 171.64,-78.76"/>
<polygon fill="#000000" fill-opacity="0.200000" stroke="#000000" stroke-width="2" stroke-opacity="0.200000" points="174,-80.11 176.39,-74.22 170.85,-77.34 174,-80.11"/>
</g>
<!-- src/query/join.ts -->
<g id="node6" class="node">
<title>src/query/join.ts</title>
<g id="a_node6"><a xlink:href="src/query/join.ts" xlink:title="join.ts">
<path fill="#ddfeff" stroke="black" d="M220.21,-161.88C220.21,-161.88 178.04,-161.88 178.04,-161.88 175.08,-161.88 172.12,-158.92 172.12,-155.96 172.12,-155.96 172.12,-150.04 172.12,-150.04 172.12,-147.08 175.08,-144.12 178.04,-144.12 178.04,-144.12 220.21,-144.12 220.21,-144.12 223.17,-144.12 226.12,-147.08 226.12,-150.04 226.12,-150.04 226.12,-155.96 226.12,-155.96 226.12,-158.92 223.17,-161.88 220.21,-161.88"/>
<text text-anchor="start" x="187.12" y="-149.32" font-family="Helvetica,sans-Serif" font-size="9.00">join.ts</text>
</a>
</g>
</g>
<!-- src/query/index.ts&#45;&gt;src/query/join.ts -->
<g id="edge5" class="edge">
<title>src/query/index.ts&#45;&gt;src/query/join.ts</title>
<path fill="none" stroke="#000000" stroke-width="2" stroke-opacity="0.200000" d="M146.19,-132.33C152.57,-134.87 159.59,-137.66 166.35,-140.35"/>
<polygon fill="#000000" fill-opacity="0.200000" stroke="#000000" stroke-width="2" stroke-opacity="0.200000" points="166.35,-142.41 172.7,-142.68 167.91,-138.51 166.35,-142.41"/>
</g>
<!-- src/query/limit.ts -->
<g id="node7" class="node">
<title>src/query/limit.ts</title>
<g id="a_node7"><a xlink:href="src/query/limit.ts" xlink:title="limit.ts">
<path fill="#ddfeff" stroke="black" d="M220.21,-101.88C220.21,-101.88 178.04,-101.88 178.04,-101.88 175.08,-101.88 172.12,-98.92 172.12,-95.96 172.12,-95.96 172.12,-90.04 172.12,-90.04 172.12,-87.08 175.08,-84.12 178.04,-84.12 178.04,-84.12 220.21,-84.12 220.21,-84.12 223.17,-84.12 226.12,-87.08 226.12,-90.04 226.12,-90.04 226.12,-95.96 226.12,-95.96 226.12,-98.92 223.17,-101.88 220.21,-101.88"/>
<text text-anchor="start" x="186.38" y="-89.33" font-family="Helvetica,sans-Serif" font-size="9.00">limit.ts</text>
</a>
</g>
</g>
<!-- src/query/index.ts&#45;&gt;src/query/limit.ts -->
<g id="edge6" class="edge">
<title>src/query/index.ts&#45;&gt;src/query/limit.ts</title>
<path fill="none" stroke="#000000" stroke-width="2" stroke-opacity="0.200000" d="M146.19,-113.67C152.57,-111.13 159.59,-108.34 166.35,-105.65"/>
<polygon fill="#000000" fill-opacity="0.200000" stroke="#000000" stroke-width="2" stroke-opacity="0.200000" points="167.91,-107.49 172.7,-103.32 166.35,-103.59 167.91,-107.49"/>
</g>
<!-- src/query/offset.ts -->
<g id="node8" class="node">
<title>src/query/offset.ts</title>
<g id="a_node8"><a xlink:href="src/query/offset.ts" xlink:title="offset.ts">
<path fill="#ddfeff" stroke="black" d="M220.21,-131.88C220.21,-131.88 178.04,-131.88 178.04,-131.88 175.08,-131.88 172.12,-128.92 172.12,-125.96 172.12,-125.96 172.12,-120.04 172.12,-120.04 172.12,-117.08 175.08,-114.12 178.04,-114.12 178.04,-114.12 220.21,-114.12 220.21,-114.12 223.17,-114.12 226.12,-117.08 226.12,-120.04 226.12,-120.04 226.12,-125.96 226.12,-125.96 226.12,-128.92 223.17,-131.88 220.21,-131.88"/>
<text text-anchor="start" x="183.75" y="-119.33" font-family="Helvetica,sans-Serif" font-size="9.00">offset.ts</text>
</a>
</g>
</g>
<!-- src/query/index.ts&#45;&gt;src/query/offset.ts -->
<g id="edge7" class="edge">
<title>src/query/index.ts&#45;&gt;src/query/offset.ts</title>
<path fill="none" stroke="#000000" stroke-width="2" stroke-opacity="0.200000" d="M149.11,-123C153.56,-123 158.24,-123 162.88,-123"/>
<polygon fill="#000000" fill-opacity="0.200000" stroke="#000000" stroke-width="2" stroke-opacity="0.200000" points="162.65,-125.1 168.65,-123 162.65,-120.9 162.65,-125.1"/>
</g>
<!-- src/query/orderBy.ts -->
<g id="node9" class="node">
<title>src/query/orderBy.ts</title>
<g id="a_node9"><a xlink:href="src/query/orderBy.ts" xlink:title="orderBy.ts">
<path fill="#ddfeff" stroke="black" d="M221.83,-41.88C221.83,-41.88 176.42,-41.88 176.42,-41.88 173.46,-41.88 170.5,-38.92 170.5,-35.96 170.5,-35.96 170.5,-30.04 170.5,-30.04 170.5,-27.08 173.46,-24.12 176.42,-24.12 176.42,-24.12 221.83,-24.12 221.83,-24.12 224.79,-24.12 227.75,-27.08 227.75,-30.04 227.75,-30.04 227.75,-35.96 227.75,-35.96 227.75,-38.92 224.79,-41.88 221.83,-41.88"/>
<text text-anchor="start" x="178.5" y="-29.32" font-family="Helvetica,sans-Serif" font-size="9.00">orderBy.ts</text>
</a>
</g>
</g>
<!-- src/query/index.ts&#45;&gt;src/query/orderBy.ts -->
<g id="edge8" class="edge">
<title>src/query/index.ts&#45;&gt;src/query/orderBy.ts</title>
<path fill="none" stroke="#000000" stroke-width="2" stroke-opacity="0.200000" d="M148.96,-115.04C152.18,-113.16 155.16,-110.84 157.5,-108 173.28,-88.82 157.54,-72.93 171.4,-49.45"/>
<polygon fill="#000000" fill-opacity="0.200000" stroke="#000000" stroke-width="2" stroke-opacity="0.200000" points="173.71,-50.39 175.43,-44.27 170.27,-47.98 173.71,-50.39"/>
</g>
<!-- src/query/select.ts -->
<g id="node10" class="node">
<title>src/query/select.ts</title>
<g id="a_node10"><a xlink:href="src/query/select.ts" xlink:title="select.ts">
<path fill="#ddfeff" stroke="black" d="M220.21,-221.88C220.21,-221.88 178.04,-221.88 178.04,-221.88 175.08,-221.88 172.12,-218.92 172.12,-215.96 172.12,-215.96 172.12,-210.04 172.12,-210.04 172.12,-207.08 175.08,-204.12 178.04,-204.12 178.04,-204.12 220.21,-204.12 220.21,-204.12 223.17,-204.12 226.12,-207.08 226.12,-210.04 226.12,-210.04 226.12,-215.96 226.12,-215.96 226.12,-218.92 223.17,-221.88 220.21,-221.88"/>
<text text-anchor="start" x="182.62" y="-209.32" font-family="Helvetica,sans-Serif" font-size="9.00">select.ts</text>
</a>
</g>
</g>
<!-- src/query/index.ts&#45;&gt;src/query/select.ts -->
<g id="edge9" class="edge">
<title>src/query/index.ts&#45;&gt;src/query/select.ts</title>
<path fill="none" stroke="#000000" stroke-width="2" stroke-opacity="0.200000" d="M126.8,-132.36C133.81,-147.7 149.51,-178.42 170.5,-198 170.64,-198.13 170.78,-198.26 170.92,-198.39"/>
<polygon fill="#000000" fill-opacity="0.200000" stroke="#000000" stroke-width="2" stroke-opacity="0.200000" points="169.92,-200.75 175.98,-202.66 172.43,-197.38 169.92,-200.75"/>
</g>
<!-- src/query/where.ts -->
<g id="node11" class="node">
<title>src/query/where.ts</title>
<g id="a_node11"><a xlink:href="src/query/where.ts" xlink:title="where.ts">
<path fill="#ddfeff" stroke="black" d="M220.21,-191.88C220.21,-191.88 178.04,-191.88 178.04,-191.88 175.08,-191.88 172.12,-188.92 172.12,-185.96 172.12,-185.96 172.12,-180.04 172.12,-180.04 172.12,-177.08 175.08,-174.12 178.04,-174.12 178.04,-174.12 220.21,-174.12 220.21,-174.12 223.17,-174.12 226.12,-177.08 226.12,-180.04 226.12,-180.04 226.12,-185.96 226.12,-185.96 226.12,-188.92 223.17,-191.88 220.21,-191.88"/>
<text text-anchor="start" x="181.88" y="-179.32" font-family="Helvetica,sans-Serif" font-size="9.00">where.ts</text>
</a>
</g>
</g>
<!-- src/query/index.ts&#45;&gt;src/query/where.ts -->
<g id="edge10" class="edge">
<title>src/query/index.ts&#45;&gt;src/query/where.ts</title>
<path fill="none" stroke="#000000" stroke-width="2" stroke-opacity="0.200000" d="M131.29,-132.37C140.4,-142.03 155.55,-157.18 170.5,-168 170.93,-168.31 171.36,-168.62 171.81,-168.92"/>
<polygon fill="#000000" fill-opacity="0.200000" stroke="#000000" stroke-width="2" stroke-opacity="0.200000" points="171.1,-171.22 177.3,-172.63 173.33,-167.66 171.1,-171.22"/>
</g>
<!-- src/utils/escape&#45;identifier.ts -->
<g id="node5" class="node">
<title>src/utils/escape&#45;identifier.ts</title>
<g id="a_node5"><a xlink:href="src/utils/escape-identifier.ts" xlink:title="escape&#45;identifier.ts">
<path fill="#ddfeff" stroke="black" d="M693.08,-85.88C693.08,-85.88 611.67,-85.88 611.67,-85.88 608.71,-85.88 605.75,-82.92 605.75,-79.96 605.75,-79.96 605.75,-74.04 605.75,-74.04 605.75,-71.08 608.71,-68.12 611.67,-68.12 611.67,-68.12 693.08,-68.12 693.08,-68.12 696.04,-68.12 699,-71.08 699,-74.04 699,-74.04 699,-79.96 699,-79.96 699,-82.92 696.04,-85.88 693.08,-85.88"/>
<text text-anchor="start" x="613.75" y="-73.33" font-family="Helvetica,sans-Serif" font-size="9.00">escape&#45;identifier.ts</text>
</a>
</g>
</g>
<!-- src/query/from.ts&#45;&gt;src/utils/escape&#45;identifier.ts -->
<g id="edge3" class="edge">
<title>src/query/from.ts&#45;&gt;src/utils/escape&#45;identifier.ts</title>
<path fill="none" stroke="#000000" stroke-width="2" stroke-opacity="0.200000" d="M225.17,-53.66C228.82,-51.96 232.45,-50.06 235.75,-48 239.76,-45.5 239.39,-42.83 243.75,-41 297.38,-18.47 316.08,-31 374.25,-31 374.25,-31 374.25,-31 471.62,-31 525.64,-31 541.42,-24.19 592.75,-41 607.32,-45.77 622.02,-54.81 633.06,-62.64"/>
<polygon fill="#000000" fill-opacity="0.200000" stroke="#000000" stroke-width="2" stroke-opacity="0.200000" points="631.99,-64.93 638.06,-66.79 634.48,-61.55 631.99,-64.93"/>
</g>
<!-- src/query/join.ts&#45;&gt;src/utils/escape&#45;identifier.ts -->
<g id="edge12" class="edge">
<title>src/query/join.ts&#45;&gt;src/utils/escape&#45;identifier.ts</title>
<path fill="none" stroke="#000000" stroke-width="2" stroke-opacity="0.200000" d="M226.62,-145.8C230.15,-143.8 233.37,-141.25 235.75,-138 247.34,-122.15 229.51,-63.52 243.75,-50 264.8,-30.02 345.23,-45 374.25,-45 374.25,-45 374.25,-45 471.62,-45 519.9,-45 574.35,-56.32 610.54,-65.5"/>
<polygon fill="#000000" fill-opacity="0.200000" stroke="#000000" stroke-width="2" stroke-opacity="0.200000" points="610.55,-68.19 616.88,-67.66 611.6,-64.12 610.55,-68.19"/>
</g>
<!-- src/utils/conditions/index.ts -->
<g id="node12" class="node">
<title>src/utils/conditions/index.ts</title>
<g id="a_node12"><a xlink:href="src/utils/conditions/index.ts" xlink:title="index.ts">
<path fill="#ddfeff" stroke="black" d="M307.83,-161.88C307.83,-161.88 265.67,-161.88 265.67,-161.88 262.71,-161.88 259.75,-158.92 259.75,-155.96 259.75,-155.96 259.75,-150.04 259.75,-150.04 259.75,-147.08 262.71,-144.12 265.67,-144.12 265.67,-144.12 307.83,-144.12 307.83,-144.12 310.79,-144.12 313.75,-147.08 313.75,-150.04 313.75,-150.04 313.75,-155.96 313.75,-155.96 313.75,-158.92 310.79,-161.88 307.83,-161.88"/>
<text text-anchor="start" x="271" y="-149.32" font-family="Helvetica,sans-Serif" font-size="9.00">index.ts</text>
</a>
</g>
</g>
<!-- src/query/join.ts&#45;&gt;src/utils/conditions/index.ts -->
<g id="edge11" class="edge">
<title>src/query/join.ts&#45;&gt;src/utils/conditions/index.ts</title>
<path fill="none" stroke="#000000" stroke-width="2" stroke-opacity="0.200000" d="M226.28,-153C233.93,-153 242.41,-153 250.53,-153"/>
<polygon fill="#000000" fill-opacity="0.200000" stroke="#000000" stroke-width="2" stroke-opacity="0.200000" points="250.46,-155.1 256.46,-153 250.46,-150.9 250.46,-155.1"/>
</g>
<!-- src/query/orderBy.ts&#45;&gt;src/utils/escape&#45;identifier.ts -->
<g id="edge13" class="edge">
<title>src/query/orderBy.ts&#45;&gt;src/utils/escape&#45;identifier.ts</title>
<path fill="none" stroke="#000000" stroke-width="2" stroke-opacity="0.200000" d="M228.18,-26.57C233.34,-25.57 238.69,-24.65 243.75,-24 301.35,-16.56 316.17,-17 374.25,-17 374.25,-17 374.25,-17 471.62,-17 525.61,-17 542.93,-5.22 592.75,-26 611.07,-33.64 627.69,-49.34 638.52,-61.32"/>
<polygon fill="#000000" fill-opacity="0.200000" stroke="#000000" stroke-width="2" stroke-opacity="0.200000" points="637.68,-62.7 643.2,-65.85 640.85,-59.94 637.68,-62.7"/>
</g>
<!-- src/utils/functions.ts -->
<g id="node13" class="node">
<title>src/utils/functions.ts</title>
<g id="a_node13"><a xlink:href="src/utils/functions.ts" xlink:title="functions.ts">
<path fill="#ddfeff" stroke="black" d="M495.58,-213.88C495.58,-213.88 445.67,-213.88 445.67,-213.88 442.71,-213.88 439.75,-210.92 439.75,-207.96 439.75,-207.96 439.75,-202.04 439.75,-202.04 439.75,-199.08 442.71,-196.12 445.67,-196.12 445.67,-196.12 495.58,-196.12 495.58,-196.12 498.54,-196.12 501.5,-199.08 501.5,-202.04 501.5,-202.04 501.5,-207.96 501.5,-207.96 501.5,-210.92 498.54,-213.88 495.58,-213.88"/>
<text text-anchor="start" x="447.75" y="-201.32" font-family="Helvetica,sans-Serif" font-size="9.00">functions.ts</text>
</a>
</g>
</g>
<!-- src/query/select.ts&#45;&gt;src/utils/functions.ts -->
<g id="edge14" class="edge">
<title>src/query/select.ts&#45;&gt;src/utils/functions.ts</title>
<path fill="none" stroke="#000000" stroke-width="2" stroke-opacity="0.200000" d="M209.93,-222.36C218.21,-229.57 230.76,-238.96 243.75,-243 323.54,-267.79 354.58,-275.04 431.75,-243 442.42,-238.57 451.64,-229.51 458.31,-221.35"/>
<polygon fill="#000000" fill-opacity="0.200000" stroke="#000000" stroke-width="2" stroke-opacity="0.200000" points="460.74,-222.32 462.69,-216.27 457.39,-219.78 460.74,-222.32"/>
</g>
<!-- src/utils/wrap&#45;column.ts -->
<g id="node14" class="node">
<title>src/utils/wrap&#45;column.ts</title>
<g id="a_node14"><a xlink:href="src/utils/wrap-column.ts" xlink:title="wrap&#45;column.ts">
<path fill="#ddfeff" stroke="black" d="M586.83,-136.88C586.83,-136.88 520.42,-136.88 520.42,-136.88 517.46,-136.88 514.5,-133.92 514.5,-130.96 514.5,-130.96 514.5,-125.04 514.5,-125.04 514.5,-122.08 517.46,-119.12 520.42,-119.12 520.42,-119.12 586.83,-119.12 586.83,-119.12 589.79,-119.12 592.75,-122.08 592.75,-125.04 592.75,-125.04 592.75,-130.96 592.75,-130.96 592.75,-133.92 589.79,-136.88 586.83,-136.88"/>
<text text-anchor="start" x="522.5" y="-124.33" font-family="Helvetica,sans-Serif" font-size="9.00">wrap&#45;column.ts</text>
</a>
</g>
</g>
<!-- src/query/select.ts&#45;&gt;src/utils/wrap&#45;column.ts -->
<g id="edge15" class="edge">
<title>src/query/select.ts&#45;&gt;src/utils/wrap&#45;column.ts</title>
<path fill="none" stroke="#000000" stroke-width="2" stroke-opacity="0.200000" d="M226.35,-206.06C230.02,-204.03 233.35,-201.4 235.75,-198 244.31,-185.92 232.97,-75.15 243.75,-65 274.17,-36.36 390.99,-55.84 431.75,-65 465.21,-72.52 471.18,-81.97 501.5,-98 510.97,-103.01 521.2,-108.91 530,-114.14"/>
<polygon fill="#000000" fill-opacity="0.200000" stroke="#000000" stroke-width="2" stroke-opacity="0.200000" points="529.39,-116.43 535.61,-117.72 531.55,-112.83 529.39,-116.43"/>
</g>
<!-- src/query/where.ts&#45;&gt;src/utils/conditions/index.ts -->
<g id="edge16" class="edge">
<title>src/query/where.ts&#45;&gt;src/utils/conditions/index.ts</title>
<path fill="none" stroke="#000000" stroke-width="2" stroke-opacity="0.200000" d="M223.1,-173.69C229.73,-171.1 237,-168.36 243.75,-166 246.11,-165.17 248.56,-164.35 251.04,-163.53"/>
<polygon fill="#000000" fill-opacity="0.200000" stroke="#000000" stroke-width="2" stroke-opacity="0.200000" points="252.37,-164.66 257.44,-160.83 251.09,-160.67 252.37,-164.66"/>
</g>
<!-- src/utils/conditions/field&#45;condition.ts -->
<g id="node15" class="node">
<title>src/utils/conditions/field&#45;condition.ts</title>
<g id="a_node15"><a xlink:href="src/utils/conditions/field-condition.ts" xlink:title="field&#45;condition.ts">
<path fill="#ddfeff" stroke="black" d="M410.71,-93.88C410.71,-93.88 339.79,-93.88 339.79,-93.88 336.83,-93.88 333.88,-90.92 333.88,-87.96 333.88,-87.96 333.88,-82.04 333.88,-82.04 333.88,-79.08 336.83,-76.12 339.79,-76.12 339.79,-76.12 410.71,-76.12 410.71,-76.12 413.67,-76.12 416.62,-79.08 416.62,-82.04 416.62,-82.04 416.62,-87.96 416.62,-87.96 416.62,-90.92 413.67,-93.88 410.71,-93.88"/>
<text text-anchor="start" x="341.88" y="-81.33" font-family="Helvetica,sans-Serif" font-size="9.00">field&#45;condition.ts</text>
</a>
</g>
</g>
<!-- src/utils/conditions/index.ts&#45;&gt;src/utils/conditions/field&#45;condition.ts -->
<g id="edge19" class="edge">
<title>src/utils/conditions/index.ts&#45;&gt;src/utils/conditions/field&#45;condition.ts</title>
<path fill="none" stroke="#000000" stroke-width="2" stroke-opacity="0.200000" d="M292.22,-143.73C298.38,-131.9 310.59,-111.57 326.75,-100 327.52,-99.45 328.32,-98.91 329.13,-98.4"/>
<polygon fill="#000000" fill-opacity="0.200000" stroke="#000000" stroke-width="2" stroke-opacity="0.200000" points="330.55,-99.95 334.84,-95.27 328.56,-96.25 330.55,-99.95"/>
</g>
<!-- src/utils/conditions/geo&#45;condition.ts -->
<g id="node16" class="node">
<title>src/utils/conditions/geo&#45;condition.ts</title>
<g id="a_node16"><a xlink:href="src/utils/conditions/geo-condition.ts" xlink:title="geo&#45;condition.ts">
<path fill="#ddfeff" stroke="black" d="M409.96,-183.88C409.96,-183.88 340.54,-183.88 340.54,-183.88 337.58,-183.88 334.62,-180.92 334.62,-177.96 334.62,-177.96 334.62,-172.04 334.62,-172.04 334.62,-169.08 337.58,-166.12 340.54,-166.12 340.54,-166.12 409.96,-166.12 409.96,-166.12 412.92,-166.12 415.88,-169.08 415.88,-172.04 415.88,-172.04 415.88,-177.96 415.88,-177.96 415.88,-180.92 412.92,-183.88 409.96,-183.88"/>
<text text-anchor="start" x="342.62" y="-171.32" font-family="Helvetica,sans-Serif" font-size="9.00">geo&#45;condition.ts</text>
</a>
</g>
</g>
<!-- src/utils/conditions/index.ts&#45;&gt;src/utils/conditions/geo&#45;condition.ts -->
<g id="edge20" class="edge">
<title>src/utils/conditions/index.ts&#45;&gt;src/utils/conditions/geo&#45;condition.ts</title>
<path fill="none" stroke="#000000" stroke-width="2" stroke-opacity="0.200000" d="M314.17,-159.72C318.88,-160.92 323.91,-162.2 328.97,-163.48"/>
<polygon fill="#000000" fill-opacity="0.200000" stroke="#000000" stroke-width="2" stroke-opacity="0.200000" points="329.15,-166.2 335.48,-165.65 330.18,-162.13 329.15,-166.2"/>
</g>
<!-- src/utils/conditions/number&#45;condition.ts -->
<g id="node17" class="node">
<title>src/utils/conditions/number&#45;condition.ts</title>
<g id="a_node17"><a xlink:href="src/utils/conditions/number-condition.ts" xlink:title="number&#45;condition.ts">
<path fill="#ddfeff" stroke="black" d="M417.83,-213.88C417.83,-213.88 332.67,-213.88 332.67,-213.88 329.71,-213.88 326.75,-210.92 326.75,-207.96 326.75,-207.96 326.75,-202.04 326.75,-202.04 326.75,-199.08 329.71,-196.12 332.67,-196.12 332.67,-196.12 417.83,-196.12 417.83,-196.12 420.79,-196.12 423.75,-199.08 423.75,-202.04 423.75,-202.04 423.75,-207.96 423.75,-207.96 423.75,-210.92 420.79,-213.88 417.83,-213.88"/>
<text text-anchor="start" x="334.75" y="-201.32" font-family="Helvetica,sans-Serif" font-size="9.00">number&#45;condition.ts</text>
</a>
</g>
</g>
<!-- src/utils/conditions/index.ts&#45;&gt;src/utils/conditions/number&#45;condition.ts -->
<g id="edge21" class="edge">
<title>src/utils/conditions/index.ts&#45;&gt;src/utils/conditions/number&#45;condition.ts</title>
<path fill="none" stroke="#000000" stroke-width="2" stroke-opacity="0.200000" d="M309.2,-162.32C310.83,-163.44 312.37,-164.67 313.75,-166 322.47,-174.44 317.4,-182.28 326.75,-190 327.17,-190.34 327.59,-190.68 328.02,-191.01"/>
<polygon fill="#000000" fill-opacity="0.200000" stroke="#000000" stroke-width="2" stroke-opacity="0.200000" points="327.36,-193.31 333.56,-194.69 329.57,-189.74 327.36,-193.31"/>
</g>
<!-- src/utils/conditions/set&#45;condition.ts -->
<g id="node18" class="node">
<title>src/utils/conditions/set&#45;condition.ts</title>
<g id="a_node18"><a xlink:href="src/utils/conditions/set-condition.ts" xlink:title="set&#45;condition.ts">
<path fill="#ddfeff" stroke="black" d="M408.08,-123.88C408.08,-123.88 342.42,-123.88 342.42,-123.88 339.46,-123.88 336.5,-120.92 336.5,-117.96 336.5,-117.96 336.5,-112.04 336.5,-112.04 336.5,-109.08 339.46,-106.12 342.42,-106.12 342.42,-106.12 408.08,-106.12 408.08,-106.12 411.04,-106.12 414,-109.08 414,-112.04 414,-112.04 414,-117.96 414,-117.96 414,-120.92 411.04,-123.88 408.08,-123.88"/>
<text text-anchor="start" x="344.5" y="-111.33" font-family="Helvetica,sans-Serif" font-size="9.00">set&#45;condition.ts</text>
</a>
</g>
</g>
<!-- src/utils/conditions/index.ts&#45;&gt;src/utils/conditions/set&#45;condition.ts -->
<g id="edge22" class="edge">
<title>src/utils/conditions/index.ts&#45;&gt;src/utils/conditions/set&#45;condition.ts</title>
<path fill="none" stroke="#000000" stroke-width="2" stroke-opacity="0.200000" d="M301.78,-143.68C309.03,-139.13 318.13,-133.84 326.75,-130 328.75,-129.11 330.83,-128.24 332.94,-127.41"/>
<polygon fill="#000000" fill-opacity="0.200000" stroke="#000000" stroke-width="2" stroke-opacity="0.200000" points="334.28,-129.42 339.18,-125.37 332.83,-125.48 334.28,-129.42"/>
</g>
<!-- src/utils/conditions/string&#45;condition.ts -->
<g id="node19" class="node">
<title>src/utils/conditions/string&#45;condition.ts</title>
<g id="a_node19"><a xlink:href="src/utils/conditions/string-condition.ts" xlink:title="string&#45;condition.ts">
<path fill="#ddfeff" stroke="black" d="M413.33,-153.88C413.33,-153.88 337.17,-153.88 337.17,-153.88 334.21,-153.88 331.25,-150.92 331.25,-147.96 331.25,-147.96 331.25,-142.04 331.25,-142.04 331.25,-139.08 334.21,-136.12 337.17,-136.12 337.17,-136.12 413.33,-136.12 413.33,-136.12 416.29,-136.12 419.25,-139.08 419.25,-142.04 419.25,-142.04 419.25,-147.96 419.25,-147.96 419.25,-150.92 416.29,-153.88 413.33,-153.88"/>
<text text-anchor="start" x="339.25" y="-141.32" font-family="Helvetica,sans-Serif" font-size="9.00">string&#45;condition.ts</text>
</a>
</g>
</g>
<!-- src/utils/conditions/index.ts&#45;&gt;src/utils/conditions/string&#45;condition.ts -->
<g id="edge23" class="edge">
<title>src/utils/conditions/index.ts&#45;&gt;src/utils/conditions/string&#45;condition.ts</title>
<path fill="none" stroke="#000000" stroke-width="2" stroke-opacity="0.200000" d="M314.17,-150.56C316.72,-150.32 319.37,-150.08 322.06,-149.83"/>
<polygon fill="#000000" fill-opacity="0.200000" stroke="#000000" stroke-width="2" stroke-opacity="0.200000" points="321.99,-151.67 327.77,-149.02 321.6,-147.48 321.99,-151.67"/>
</g>
<!-- src/utils/functions.ts&#45;&gt;src/utils/wrap&#45;column.ts -->
<g id="edge28" class="edge">
<title>src/utils/functions.ts&#45;&gt;src/utils/wrap&#45;column.ts</title>
<path fill="none" stroke="#000000" stroke-width="2" stroke-opacity="0.200000" d="M485.43,-195.66C490.63,-191.93 496.5,-187.46 501.5,-183 515.36,-170.64 529.62,-155.01 539.55,-143.57"/>
<polygon fill="#000000" fill-opacity="0.200000" stroke="#000000" stroke-width="2" stroke-opacity="0.200000" points="541.82,-144.98 544.13,-139.06 538.63,-142.25 541.82,-144.98"/>
</g>
<!-- src/utils/wrap&#45;column.ts&#45;&gt;src/utils/escape&#45;identifier.ts -->
<g id="edge29" class="edge">
<title>src/utils/wrap&#45;column.ts&#45;&gt;src/utils/escape&#45;identifier.ts</title>
<path fill="none" stroke="#000000" stroke-width="2" stroke-opacity="0.200000" d="M572.37,-118.65C587.37,-110.74 609.05,-99.31 625.91,-90.43"/>
<polygon fill="#000000" fill-opacity="0.200000" stroke="#000000" stroke-width="2" stroke-opacity="0.200000" points="627.41,-91.95 631.74,-87.29 625.46,-88.24 627.41,-91.95"/>
</g>
<!-- src/utils/conditions/field&#45;condition.ts&#45;&gt;src/utils/wrap&#45;column.ts -->
<g id="edge17" class="edge">
<title>src/utils/conditions/field&#45;condition.ts&#45;&gt;src/utils/wrap&#45;column.ts</title>
<path fill="none" stroke="#000000" stroke-width="2" stroke-opacity="0.200000" d="M414.52,-94.33C441.33,-100.87 477.32,-109.64 505.84,-116.59"/>
<polygon fill="#000000" fill-opacity="0.200000" stroke="#000000" stroke-width="2" stroke-opacity="0.200000" points="506.1,-119.31 512.43,-118.69 507.1,-115.23 506.1,-119.31"/>
</g>
<!-- src/utils/conditions/geo&#45;condition.ts&#45;&gt;src/utils/wrap&#45;column.ts -->
<g id="edge18" class="edge">
<title>src/utils/conditions/geo&#45;condition.ts&#45;&gt;src/utils/wrap&#45;column.ts</title>
<path fill="none" stroke="#000000" stroke-width="2" stroke-opacity="0.200000" d="M411.1,-165.71C439.15,-158.24 478.73,-147.69 508.91,-139.65"/>
<polygon fill="#000000" fill-opacity="0.200000" stroke="#000000" stroke-width="2" stroke-opacity="0.200000" points="510.29,-140.92 515.55,-137.35 509.21,-136.86 510.29,-140.92"/>
</g>
<!-- src/utils/conditions/number&#45;condition.ts&#45;&gt;src/utils/functions.ts -->
<g id="edge24" class="edge">
<title>src/utils/conditions/number&#45;condition.ts&#45;&gt;src/utils/functions.ts</title>
<path fill="none" stroke="#000000" stroke-width="2" stroke-opacity="0.200000" d="M424.03,-205C426.15,-205 428.26,-205 430.35,-205"/>
<polygon fill="#000000" fill-opacity="0.200000" stroke="#000000" stroke-width="2" stroke-opacity="0.200000" points="430.33,-207.1 436.33,-205 430.33,-202.9 430.33,-207.1"/>
</g>
<!-- src/utils/conditions/number&#45;condition.ts&#45;&gt;src/utils/wrap&#45;column.ts -->
<g id="edge25" class="edge">
<title>src/utils/conditions/number&#45;condition.ts&#45;&gt;src/utils/wrap&#45;column.ts</title>
<path fill="none" stroke="#000000" stroke-width="2" stroke-opacity="0.200000" d="M414.8,-195.71C420.55,-194 426.35,-192.09 431.75,-190 467.13,-176.32 505.76,-155.36 529.59,-141.67"/>
<polygon fill="#000000" fill-opacity="0.200000" stroke="#000000" stroke-width="2" stroke-opacity="0.200000" points="530.95,-143.15 535.08,-138.32 528.84,-139.52 530.95,-143.15"/>
</g>
<!-- src/utils/conditions/set&#45;condition.ts&#45;&gt;src/utils/wrap&#45;column.ts -->
<g id="edge26" class="edge">
<title>src/utils/conditions/set&#45;condition.ts&#45;&gt;src/utils/wrap&#45;column.ts</title>
<path fill="none" stroke="#000000" stroke-width="2" stroke-opacity="0.200000" d="M414.09,-117.79C440.87,-119.76 476.98,-122.42 505.61,-124.53"/>
<polygon fill="#000000" fill-opacity="0.200000" stroke="#000000" stroke-width="2" stroke-opacity="0.200000" points="505.1,-126.82 511.24,-125.17 505.41,-122.64 505.1,-126.82"/>
</g>
<!-- src/utils/conditions/string&#45;condition.ts&#45;&gt;src/utils/wrap&#45;column.ts -->
<g id="edge27" class="edge">
<title>src/utils/conditions/string&#45;condition.ts&#45;&gt;src/utils/wrap&#45;column.ts</title>
<path fill="none" stroke="#000000" stroke-width="2" stroke-opacity="0.200000" d="M419.4,-140.84C445.42,-138.33 478.59,-135.14 505.33,-132.56"/>
<polygon fill="#000000" fill-opacity="0.200000" stroke="#000000" stroke-width="2" stroke-opacity="0.200000" points="505.36,-134.38 511.13,-131.71 504.95,-130.2 505.36,-134.38"/>
</g>
</g>
</svg>
