<?xml version="1.0" encoding="UTF-8" standalone="no"?>
<!DOCTYPE svg PUBLIC "-//W3C//DTD SVG 1.1//EN"
 "http://www.w3.org/Graphics/SVG/1.1/DTD/svg11.dtd">
<!-- Generated by graphviz version 8.1.0 (20230707.0739)
 -->
<!-- Title: dependency&#45;cruiser output Pages: 1 -->
<svg width="728pt" height="320pt"
 viewBox="0.00 0.00 727.75 320.00" xmlns="http://www.w3.org/2000/svg" xmlns:xlink="http://www.w3.org/1999/xlink">
<g id="graph0" class="graph" transform="scale(1 1) rotate(0) translate(4 316)">
<title>dependency&#45;cruiser output</title>
<polygon fill="white" stroke="none" points="-4,4 -4,-316 723.75,-316 723.75,4 -4,4"/>
<g id="clust1" class="cluster">
<title>cluster_src</title>
<path fill="#ffffff" stroke="black" stroke-width="2" d="M20,-8C20,-8 699.75,-8 699.75,-8 705.75,-8 711.75,-14 711.75,-20 711.75,-20 711.75,-292 711.75,-292 711.75,-298 705.75,-304 699.75,-304 699.75,-304 20,-304 20,-304 14,-304 8,-298 8,-292 8,-292 8,-20 8,-20 8,-14 14,-8 20,-8"/>
<text text-anchor="middle" x="359.88" y="-291.45" font-family="Helvetica,sans-Serif" font-weight="bold" font-size="9.00">src</text>
</g>
<g id="clust2" class="cluster">
<title>cluster_src/query</title>
<path fill="#ffffff" stroke="black" stroke-width="2" d="M90,-16C90,-16 220.5,-16 220.5,-16 226.5,-16 232.5,-22 232.5,-28 232.5,-28 232.5,-266 232.5,-266 232.5,-272 226.5,-278 220.5,-278 220.5,-278 90,-278 90,-278 84,-278 78,-272 78,-266 78,-266 78,-28 78,-28 78,-22 84,-16 90,-16"/>
<text text-anchor="middle" x="155.25" y="-265.45" font-family="Helvetica,sans-Serif" font-weight="bold" font-size="9.00">query</text>
</g>
<g id="clust3" class="cluster">
<title>cluster_src/utils</title>
<path fill="#ffffff" stroke="black" stroke-width="2" d="M252.5,-72C252.5,-72 691.75,-72 691.75,-72 697.75,-72 703.75,-78 703.75,-84 703.75,-84 703.75,-266 703.75,-266 703.75,-272 697.75,-278 691.75,-278 691.75,-278 252.5,-278 252.5,-278 246.5,-278 240.5,-272 240.5,-266 240.5,-266 240.5,-84 240.5,-84 240.5,-78 246.5,-72 252.5,-72"/>
<text text-anchor="middle" x="472.12" y="-265.45" font-family="Helvetica,sans-Serif" font-weight="bold" font-size="9.00">utils</text>
</g>
<g id="clust4" class="cluster">
<title>cluster_src/utils/conditions</title>
<path fill="#ffffff" stroke="black" stroke-width="2" d="M260.5,-80C260.5,-80 416.5,-80 416.5,-80 422.5,-80 428.5,-86 428.5,-92 428.5,-92 428.5,-240 428.5,-240 428.5,-246 422.5,-252 416.5,-252 416.5,-252 260.5,-252 260.5,-252 254.5,-252 248.5,-246 248.5,-240 248.5,-240 248.5,-92 248.5,-92 248.5,-86 254.5,-80 260.5,-80"/>
<text text-anchor="middle" x="338.5" y="-239.45" font-family="Helvetica,sans-Serif" font-weight="bold" font-size="9.00">conditions</text>
</g>
<!-- src/index.ts -->
<g id="node1" class="node">
<title>src/index.ts</title>
<g id="a_node1"><a xlink:href="src/index.ts" xlink:title="index.ts">
<path fill="#ddfeff" stroke="black" d="M64.08,-146.88C64.08,-146.88 21.92,-146.88 21.92,-146.88 18.96,-146.88 16,-143.92 16,-140.96 16,-140.96 16,-135.04 16,-135.04 16,-132.08 18.96,-129.12 21.92,-129.12 21.92,-129.12 64.08,-129.12 64.08,-129.12 67.04,-129.12 70,-132.08 70,-135.04 70,-135.04 70,-140.96 70,-140.96 70,-143.92 67.04,-146.88 64.08,-146.88"/>
<text text-anchor="start" x="27.25" y="-134.32" font-family="Helvetica,sans-Serif" font-size="9.00">index.ts</text>
</a>
</g>
</g>
<!-- src/query/index.ts -->
<g id="node2" class="node">
<title>src/query/index.ts</title>
<g id="a_node2"><a xlink:href="src/query/index.ts" xlink:title="index.ts">
<path fill="#ddfeff" stroke="black" d="M134.08,-146.88C134.08,-146.88 91.92,-146.88 91.92,-146.88 88.96,-146.88 86,-143.92 86,-140.96 86,-140.96 86,-135.04 86,-135.04 86,-132.08 88.96,-129.12 91.92,-129.12 91.92,-129.12 134.08,-129.12 134.08,-129.12 137.04,-129.12 140,-132.08 140,-135.04 140,-135.04 140,-140.96 140,-140.96 140,-143.92 137.04,-146.88 134.08,-146.88"/>
<text text-anchor="start" x="97.25" y="-134.32" font-family="Helvetica,sans-Serif" font-size="9.00">index.ts</text>
</a>
</g>
</g>
<!-- src/index.ts&#45;&gt;src/query/index.ts -->
<g id="edge1" class="edge">
<title>src/index.ts&#45;&gt;src/query/index.ts</title>
<path fill="none" stroke="#000000" stroke-width="2" stroke-opacity="0.200000" d="M70.49,-138C72.7,-138 74.97,-138 77.24,-138"/>
<polygon fill="#000000" fill-opacity="0.200000" stroke="#000000" stroke-width="2" stroke-opacity="0.200000" points="76.92,-140.1 82.92,-138 76.92,-135.9 76.92,-140.1"/>
</g>
<!-- src/query/from.ts -->
<g id="node3" class="node">
<title>src/query/from.ts</title>
<g id="a_node3"><a xlink:href="src/query/from.ts" xlink:title="from.ts">
<path fill="#ddfeff" stroke="black" d="M209.83,-71.88C209.83,-71.88 167.67,-71.88 167.67,-71.88 164.71,-71.88 161.75,-68.92 161.75,-65.96 161.75,-65.96 161.75,-60.04 161.75,-60.04 161.75,-57.08 164.71,-54.12 167.67,-54.12 167.67,-54.12 209.83,-54.12 209.83,-54.12 212.79,-54.12 215.75,-57.08 215.75,-60.04 215.75,-60.04 215.75,-65.96 215.75,-65.96 215.75,-68.92 212.79,-71.88 209.83,-71.88"/>
<text text-anchor="start" x="175.25" y="-59.33" font-family="Helvetica,sans-Serif" font-size="9.00">from.ts</text>
</a>
</g>
</g>
<!-- src/query/index.ts&#45;&gt;src/query/from.ts -->
<g id="edge3" class="edge">
<title>src/query/index.ts&#45;&gt;src/query/from.ts</title>
<path fill="none" stroke="#000000" stroke-width="2" stroke-opacity="0.200000" d="M117.95,-128.66C123.85,-115.7 136.1,-92.26 153,-78 153.41,-77.66 153.83,-77.32 154.25,-76.99"/>
<polygon fill="#000000" fill-opacity="0.200000" stroke="#000000" stroke-width="2" stroke-opacity="0.200000" points="155.78,-78.21 159.69,-73.2 153.51,-74.68 155.78,-78.21"/>
</g>
<!-- src/query/join.ts -->
<g id="node5" class="node">
<title>src/query/join.ts</title>
<g id="a_node5"><a xlink:href="src/query/join.ts" xlink:title="join.ts">
<path fill="#ddfeff" stroke="black" d="M209.83,-161.88C209.83,-161.88 167.67,-161.88 167.67,-161.88 164.71,-161.88 161.75,-158.92 161.75,-155.96 161.75,-155.96 161.75,-150.04 161.75,-150.04 161.75,-147.08 164.71,-144.12 167.67,-144.12 167.67,-144.12 209.83,-144.12 209.83,-144.12 212.79,-144.12 215.75,-147.08 215.75,-150.04 215.75,-150.04 215.75,-155.96 215.75,-155.96 215.75,-158.92 212.79,-161.88 209.83,-161.88"/>
<text text-anchor="start" x="176.75" y="-149.32" font-family="Helvetica,sans-Serif" font-size="9.00">join.ts</text>
</a>
</g>
</g>
<!-- src/query/index.ts&#45;&gt;src/query/join.ts -->
<g id="edge4" class="edge">
<title>src/query/index.ts&#45;&gt;src/query/join.ts</title>
<path fill="none" stroke="#000000" stroke-width="2" stroke-opacity="0.200000" d="M140.21,-143.33C144.34,-144.17 148.66,-145.05 152.95,-145.92"/>
<polygon fill="#000000" fill-opacity="0.200000" stroke="#000000" stroke-width="2" stroke-opacity="0.200000" points="153.33,-148.55 159.63,-147.69 154.16,-144.43 153.33,-148.55"/>
</g>
<!-- src/query/limit.ts -->
<g id="node6" class="node">
<title>src/query/limit.ts</title>
<g id="a_node6"><a xlink:href="src/query/limit.ts" xlink:title="limit.ts">
<path fill="#ddfeff" stroke="black" d="M209.83,-101.88C209.83,-101.88 167.67,-101.88 167.67,-101.88 164.71,-101.88 161.75,-98.92 161.75,-95.96 161.75,-95.96 161.75,-90.04 161.75,-90.04 161.75,-87.08 164.71,-84.12 167.67,-84.12 167.67,-84.12 209.83,-84.12 209.83,-84.12 212.79,-84.12 215.75,-87.08 215.75,-90.04 215.75,-90.04 215.75,-95.96 215.75,-95.96 215.75,-98.92 212.79,-101.88 209.83,-101.88"/>
<text text-anchor="start" x="176" y="-89.33" font-family="Helvetica,sans-Serif" font-size="9.00">limit.ts</text>
</a>
</g>
</g>
<!-- src/query/index.ts&#45;&gt;src/query/limit.ts -->
<g id="edge5" class="edge">
<title>src/query/index.ts&#45;&gt;src/query/limit.ts</title>
<path fill="none" stroke="#000000" stroke-width="2" stroke-opacity="0.200000" d="M124.42,-128.84C131.99,-122.47 142.69,-114.06 153,-108 154.1,-107.35 155.23,-106.72 156.38,-106.1"/>
<polygon fill="#000000" fill-opacity="0.200000" stroke="#000000" stroke-width="2" stroke-opacity="0.200000" points="157.74,-107.78 162.18,-103.23 155.87,-104.02 157.74,-107.78"/>
</g>
<!-- src/query/offset.ts -->
<g id="node7" class="node">
<title>src/query/offset.ts</title>
<g id="a_node7"><a xlink:href="src/query/offset.ts" xlink:title="offset.ts">
<path fill="#ddfeff" stroke="black" d="M209.83,-131.88C209.83,-131.88 167.67,-131.88 167.67,-131.88 164.71,-131.88 161.75,-128.92 161.75,-125.96 161.75,-125.96 161.75,-120.04 161.75,-120.04 161.75,-117.08 164.71,-114.12 167.67,-114.12 167.67,-114.12 209.83,-114.12 209.83,-114.12 212.79,-114.12 215.75,-117.08 215.75,-120.04 215.75,-120.04 215.75,-125.96 215.75,-125.96 215.75,-128.92 212.79,-131.88 209.83,-131.88"/>
<text text-anchor="start" x="173.38" y="-119.33" font-family="Helvetica,sans-Serif" font-size="9.00">offset.ts</text>
</a>
</g>
</g>
<!-- src/query/index.ts&#45;&gt;src/query/offset.ts -->
<g id="edge6" class="edge">
<title>src/query/index.ts&#45;&gt;src/query/offset.ts</title>
<path fill="none" stroke="#000000" stroke-width="2" stroke-opacity="0.200000" d="M140.21,-132.67C144.34,-131.83 148.66,-130.95 152.95,-130.08"/>
<polygon fill="#000000" fill-opacity="0.200000" stroke="#000000" stroke-width="2" stroke-opacity="0.200000" points="154.16,-131.57 159.63,-128.31 153.33,-127.45 154.16,-131.57"/>
</g>
<!-- src/query/orderBy.ts -->
<g id="node8" class="node">
<title>src/query/orderBy.ts</title>
<g id="a_node8"><a xlink:href="src/query/orderBy.ts" xlink:title="orderBy.ts">
<path fill="#ddfeff" stroke="black" d="M211.46,-41.88C211.46,-41.88 166.04,-41.88 166.04,-41.88 163.08,-41.88 160.12,-38.92 160.12,-35.96 160.12,-35.96 160.12,-30.04 160.12,-30.04 160.12,-27.08 163.08,-24.12 166.04,-24.12 166.04,-24.12 211.46,-24.12 211.46,-24.12 214.42,-24.12 217.38,-27.08 217.38,-30.04 217.38,-30.04 217.38,-35.96 217.38,-35.96 217.38,-38.92 214.42,-41.88 211.46,-41.88"/>
<text text-anchor="start" x="168.12" y="-29.32" font-family="Helvetica,sans-Serif" font-size="9.00">orderBy.ts</text>
</a>
</g>
</g>
<!-- src/query/index.ts&#45;&gt;src/query/orderBy.ts -->
<g id="edge7" class="edge">
<title>src/query/index.ts&#45;&gt;src/query/orderBy.ts</title>
<path fill="none" stroke="#000000" stroke-width="2" stroke-opacity="0.200000" d="M115.64,-128.83C119.28,-110.99 129.62,-71.34 153,-48 153.14,-47.86 153.28,-47.72 153.42,-47.59"/>
<polygon fill="#000000" fill-opacity="0.200000" stroke="#000000" stroke-width="2" stroke-opacity="0.200000" points="155.08,-48.48 158.63,-43.2 152.56,-45.11 155.08,-48.48"/>
</g>
<!-- src/query/parameters.ts -->
<g id="node9" class="node">
<title>src/query/parameters.ts</title>
<g id="a_node9"><a xlink:href="src/query/parameters.ts" xlink:title="parameters.ts">
<path fill="#ddfeff" stroke="black" d="M218.58,-191.88C218.58,-191.88 158.92,-191.88 158.92,-191.88 155.96,-191.88 153,-188.92 153,-185.96 153,-185.96 153,-180.04 153,-180.04 153,-177.08 155.96,-174.12 158.92,-174.12 158.92,-174.12 218.58,-174.12 218.58,-174.12 221.54,-174.12 224.5,-177.08 224.5,-180.04 224.5,-180.04 224.5,-185.96 224.5,-185.96 224.5,-188.92 221.54,-191.88 218.58,-191.88"/>
<text text-anchor="start" x="161" y="-179.32" font-family="Helvetica,sans-Serif" font-size="9.00">parameters.ts</text>
</a>
</g>
</g>
<!-- src/query/index.ts&#45;&gt;src/query/parameters.ts -->
<g id="edge8" class="edge">
<title>src/query/index.ts&#45;&gt;src/query/parameters.ts</title>
<path fill="none" stroke="#000000" stroke-width="2" stroke-opacity="0.200000" d="M124.42,-147.16C131.99,-153.53 142.69,-161.94 153,-168 154.1,-168.65 155.23,-169.28 156.38,-169.9"/>
<polygon fill="#000000" fill-opacity="0.200000" stroke="#000000" stroke-width="2" stroke-opacity="0.200000" points="155.87,-171.98 162.18,-172.77 157.74,-168.22 155.87,-171.98"/>
</g>
<!-- src/query/select.ts -->
<g id="node10" class="node">
<title>src/query/select.ts</title>
<g id="a_node10"><a xlink:href="src/query/select.ts" xlink:title="select.ts">
<path fill="#ddfeff" stroke="black" d="M209.83,-251.88C209.83,-251.88 167.67,-251.88 167.67,-251.88 164.71,-251.88 161.75,-248.92 161.75,-245.96 161.75,-245.96 161.75,-240.04 161.75,-240.04 161.75,-237.08 164.71,-234.12 167.67,-234.12 167.67,-234.12 209.83,-234.12 209.83,-234.12 212.79,-234.12 215.75,-237.08 215.75,-240.04 215.75,-240.04 215.75,-245.96 215.75,-245.96 215.75,-248.92 212.79,-251.88 209.83,-251.88"/>
<text text-anchor="start" x="172.25" y="-239.32" font-family="Helvetica,sans-Serif" font-size="9.00">select.ts</text>
</a>
</g>
</g>
<!-- src/query/index.ts&#45;&gt;src/query/select.ts -->
<g id="edge9" class="edge">
<title>src/query/index.ts&#45;&gt;src/query/select.ts</title>
<path fill="none" stroke="#000000" stroke-width="2" stroke-opacity="0.200000" d="M115.64,-147.17C119.28,-165.01 129.62,-204.66 153,-228 153.45,-228.45 153.92,-228.89 154.41,-229.32"/>
<polygon fill="#000000" fill-opacity="0.200000" stroke="#000000" stroke-width="2" stroke-opacity="0.200000" points="153.21,-231.46 159.32,-233.2 155.63,-228.03 153.21,-231.46"/>
</g>
<!-- src/query/where.ts -->
<g id="node11" class="node">
<title>src/query/where.ts</title>
<g id="a_node11"><a xlink:href="src/query/where.ts" xlink:title="where.ts">
<path fill="#ddfeff" stroke="black" d="M209.83,-221.88C209.83,-221.88 167.67,-221.88 167.67,-221.88 164.71,-221.88 161.75,-218.92 161.75,-215.96 161.75,-215.96 161.75,-210.04 161.75,-210.04 161.75,-207.08 164.71,-204.12 167.67,-204.12 167.67,-204.12 209.83,-204.12 209.83,-204.12 212.79,-204.12 215.75,-207.08 215.75,-210.04 215.75,-210.04 215.75,-215.96 215.75,-215.96 215.75,-218.92 212.79,-221.88 209.83,-221.88"/>
<text text-anchor="start" x="171.5" y="-209.32" font-family="Helvetica,sans-Serif" font-size="9.00">where.ts</text>
</a>
</g>
</g>
<!-- src/query/index.ts&#45;&gt;src/query/where.ts -->
<g id="edge10" class="edge">
<title>src/query/index.ts&#45;&gt;src/query/where.ts</title>
<path fill="none" stroke="#000000" stroke-width="2" stroke-opacity="0.200000" d="M117.95,-147.34C123.85,-160.3 136.1,-183.74 153,-198 153.41,-198.34 153.83,-198.68 154.25,-199.01"/>
<polygon fill="#000000" fill-opacity="0.200000" stroke="#000000" stroke-width="2" stroke-opacity="0.200000" points="153.51,-201.32 159.69,-202.8 155.78,-197.79 153.51,-201.32"/>
</g>
<!-- src/utils/escape&#45;identifier.ts -->
<g id="node4" class="node">
<title>src/utils/escape&#45;identifier.ts</title>
<g id="a_node4"><a xlink:href="src/utils/escape-identifier.ts" xlink:title="escape&#45;identifier.ts">
<path fill="#ddfeff" stroke="black" d="M689.83,-97.88C689.83,-97.88 608.42,-97.88 608.42,-97.88 605.46,-97.88 602.5,-94.92 602.5,-91.96 602.5,-91.96 602.5,-86.04 602.5,-86.04 602.5,-83.08 605.46,-80.12 608.42,-80.12 608.42,-80.12 689.83,-80.12 689.83,-80.12 692.79,-80.12 695.75,-83.08 695.75,-86.04 695.75,-86.04 695.75,-91.96 695.75,-91.96 695.75,-94.92 692.79,-97.88 689.83,-97.88"/>
<text text-anchor="start" x="610.5" y="-85.33" font-family="Helvetica,sans-Serif" font-size="9.00">escape&#45;identifier.ts</text>
</a>
</g>
</g>
<!-- src/query/from.ts&#45;&gt;src/utils/escape&#45;identifier.ts -->
<g id="edge2" class="edge">
<title>src/query/from.ts&#45;&gt;src/utils/escape&#45;identifier.ts</title>
<path fill="none" stroke="#000000" stroke-width="2" stroke-opacity="0.200000" d="M215.99,-57.22C223.84,-55.65 232.49,-54.09 240.5,-53 298.14,-45.14 312.83,-43 371,-43 371,-43 371,-43 468.38,-43 522.39,-43 538.17,-36.19 589.5,-53 604.07,-57.77 618.77,-66.81 629.81,-74.64"/>
<polygon fill="#000000" fill-opacity="0.200000" stroke="#000000" stroke-width="2" stroke-opacity="0.200000" points="628.74,-76.93 634.81,-78.79 631.23,-73.55 628.74,-76.93"/>
</g>
<!-- src/query/join.ts&#45;&gt;src/utils/escape&#45;identifier.ts -->
<g id="edge12" class="edge">
<title>src/query/join.ts&#45;&gt;src/utils/escape&#45;identifier.ts</title>
<path fill="none" stroke="#000000" stroke-width="2" stroke-opacity="0.200000" d="M216.16,-148.8C222.39,-146.58 228.4,-143.18 232.5,-138 243.03,-124.68 228.1,-73.6 240.5,-62 251.1,-52.09 356.49,-57 371,-57 371,-57 371,-57 468.38,-57 516.65,-57 571.1,-68.32 607.29,-77.5"/>
<polygon fill="#000000" fill-opacity="0.200000" stroke="#000000" stroke-width="2" stroke-opacity="0.200000" points="607.3,-80.19 613.63,-79.66 608.35,-76.12 607.3,-80.19"/>
</g>
<!-- src/utils/conditions/index.ts -->
<g id="node12" class="node">
<title>src/utils/conditions/index.ts</title>
<g id="a_node12"><a xlink:href="src/utils/conditions/index.ts" xlink:title="index.ts">
<path fill="#ddfeff" stroke="black" d="M304.58,-165.88C304.58,-165.88 262.42,-165.88 262.42,-165.88 259.46,-165.88 256.5,-162.92 256.5,-159.96 256.5,-159.96 256.5,-154.04 256.5,-154.04 256.5,-151.08 259.46,-148.12 262.42,-148.12 262.42,-148.12 304.58,-148.12 304.58,-148.12 307.54,-148.12 310.5,-151.08 310.5,-154.04 310.5,-154.04 310.5,-159.96 310.5,-159.96 310.5,-162.92 307.54,-165.88 304.58,-165.88"/>
<text text-anchor="start" x="267.75" y="-153.32" font-family="Helvetica,sans-Serif" font-size="9.00">index.ts</text>
</a>
</g>
</g>
<!-- src/query/join.ts&#45;&gt;src/utils/conditions/index.ts -->
<g id="edge11" class="edge">
<title>src/query/join.ts&#45;&gt;src/utils/conditions/index.ts</title>
<path fill="none" stroke="#000000" stroke-width="2" stroke-opacity="0.200000" d="M216.08,-154.14C225.77,-154.55 236.91,-155.03 247.27,-155.48"/>
<polygon fill="#000000" fill-opacity="0.200000" stroke="#000000" stroke-width="2" stroke-opacity="0.200000" points="247.02,-157.7 253.1,-155.86 247.2,-153.5 247.02,-157.7"/>
</g>
<!-- src/query/orderBy.ts&#45;&gt;src/utils/escape&#45;identifier.ts -->
<g id="edge13" class="edge">
<title>src/query/orderBy.ts&#45;&gt;src/utils/escape&#45;identifier.ts</title>
<path fill="none" stroke="#000000" stroke-width="2" stroke-opacity="0.200000" d="M217.69,-32C253.29,-30.82 316.71,-29 371,-29 371,-29 371,-29 468.38,-29 522.36,-29 539.68,-17.22 589.5,-38 607.82,-45.64 624.44,-61.34 635.27,-73.32"/>
<polygon fill="#000000" fill-opacity="0.200000" stroke="#000000" stroke-width="2" stroke-opacity="0.200000" points="634.43,-74.7 639.95,-77.85 637.6,-71.94 634.43,-74.7"/>
</g>
<!-- src/utils/functions.ts -->
<g id="node13" class="node">
<title>src/utils/functions.ts</title>
<g id="a_node13"><a xlink:href="src/utils/functions.ts" xlink:title="functions.ts">
<path fill="#ddfeff" stroke="black" d="M492.33,-225.88C492.33,-225.88 442.42,-225.88 442.42,-225.88 439.46,-225.88 436.5,-222.92 436.5,-219.96 436.5,-219.96 436.5,-214.04 436.5,-214.04 436.5,-211.08 439.46,-208.12 442.42,-208.12 442.42,-208.12 492.33,-208.12 492.33,-208.12 495.29,-208.12 498.25,-211.08 498.25,-214.04 498.25,-214.04 498.25,-219.96 498.25,-219.96 498.25,-222.92 495.29,-225.88 492.33,-225.88"/>
<text text-anchor="start" x="444.5" y="-213.32" font-family="Helvetica,sans-Serif" font-size="9.00">functions.ts</text>
</a>
</g>
</g>
<!-- src/query/select.ts&#45;&gt;src/utils/functions.ts -->
<g id="edge14" class="edge">
<title>src/query/select.ts&#45;&gt;src/utils/functions.ts</title>
<path fill="none" stroke="#000000" stroke-width="2" stroke-opacity="0.200000" d="M216.08,-251.42C261.46,-264.42 356.44,-284.92 428.5,-255 439.17,-250.57 448.39,-241.51 455.06,-233.35"/>
<polygon fill="#000000" fill-opacity="0.200000" stroke="#000000" stroke-width="2" stroke-opacity="0.200000" points="457.49,-234.32 459.44,-228.27 454.14,-231.78 457.49,-234.32"/>
</g>
<!-- src/utils/wrap&#45;column.ts -->
<g id="node14" class="node">
<title>src/utils/wrap&#45;column.ts</title>
<g id="a_node14"><a xlink:href="src/utils/wrap-column.ts" xlink:title="wrap&#45;column.ts">
<path fill="#ddfeff" stroke="black" d="M583.58,-148.88C583.58,-148.88 517.17,-148.88 517.17,-148.88 514.21,-148.88 511.25,-145.92 511.25,-142.96 511.25,-142.96 511.25,-137.04 511.25,-137.04 511.25,-134.08 514.21,-131.12 517.17,-131.12 517.17,-131.12 583.58,-131.12 583.58,-131.12 586.54,-131.12 589.5,-134.08 589.5,-137.04 589.5,-137.04 589.5,-142.96 589.5,-142.96 589.5,-145.92 586.54,-148.88 583.58,-148.88"/>
<text text-anchor="start" x="519.25" y="-136.32" font-family="Helvetica,sans-Serif" font-size="9.00">wrap&#45;column.ts</text>
</a>
</g>
</g>
<!-- src/query/select.ts&#45;&gt;src/utils/wrap&#45;column.ts -->
<g id="edge15" class="edge">
<title>src/query/select.ts&#45;&gt;src/utils/wrap&#45;column.ts</title>
<path fill="none" stroke="#000000" stroke-width="2" stroke-opacity="0.200000" d="M215.9,-239.1C222.29,-236.88 228.44,-233.41 232.5,-228 242.58,-214.56 228.31,-88.56 240.5,-77 270.81,-48.25 387.74,-67.84 428.5,-77 461.96,-84.52 467.93,-93.97 498.25,-110 507.72,-115.01 517.95,-120.91 526.75,-126.14"/>
<polygon fill="#000000" fill-opacity="0.200000" stroke="#000000" stroke-width="2" stroke-opacity="0.200000" points="526.14,-128.43 532.36,-129.72 528.3,-124.83 526.14,-128.43"/>
</g>
<!-- src/query/where.ts&#45;&gt;src/utils/conditions/index.ts -->
<g id="edge16" class="edge">
<title>src/query/where.ts&#45;&gt;src/utils/conditions/index.ts</title>
<path fill="none" stroke="#000000" stroke-width="2" stroke-opacity="0.200000" d="M216.02,-208.14C222.1,-205.92 228.08,-202.69 232.5,-198 241.38,-188.58 231.45,-179.25 240.5,-170 242.7,-167.75 245.28,-165.89 248.07,-164.34"/>
<polygon fill="#000000" fill-opacity="0.200000" stroke="#000000" stroke-width="2" stroke-opacity="0.200000" points="249.62,-166.1 254.3,-161.8 247.96,-162.24 249.62,-166.1"/>
</g>
<!-- src/utils/conditions/field&#45;condition.ts -->
<g id="node15" class="node">
<title>src/utils/conditions/field&#45;condition.ts</title>
<g id="a_node15"><a xlink:href="src/utils/conditions/field-condition.ts" xlink:title="field&#45;condition.ts">
<path fill="#ddfeff" stroke="black" d="M407.46,-135.88C407.46,-135.88 336.54,-135.88 336.54,-135.88 333.58,-135.88 330.62,-132.92 330.62,-129.96 330.62,-129.96 330.62,-124.04 330.62,-124.04 330.62,-121.08 333.58,-118.12 336.54,-118.12 336.54,-118.12 407.46,-118.12 407.46,-118.12 410.42,-118.12 413.38,-121.08 413.38,-124.04 413.38,-124.04 413.38,-129.96 413.38,-129.96 413.38,-132.92 410.42,-135.88 407.46,-135.88"/>
<text text-anchor="start" x="338.62" y="-123.33" font-family="Helvetica,sans-Serif" font-size="9.00">field&#45;condition.ts</text>
</a>
</g>
</g>
<!-- src/utils/conditions/index.ts&#45;&gt;src/utils/conditions/field&#45;condition.ts -->
<g id="edge19" class="edge">
<title>src/utils/conditions/index.ts&#45;&gt;src/utils/conditions/field&#45;condition.ts</title>
<path fill="none" stroke="#000000" stroke-width="2" stroke-opacity="0.200000" d="M307.92,-147.72C313.04,-145.77 318.43,-143.77 323.5,-142 326.32,-141.01 329.24,-140.02 332.19,-139.04"/>
<polygon fill="#000000" fill-opacity="0.200000" stroke="#000000" stroke-width="2" stroke-opacity="0.200000" points="333.45,-140.19 338.5,-136.33 332.15,-136.19 333.45,-140.19"/>
</g>
<!-- src/utils/conditions/geo&#45;condition.ts -->
<g id="node16" class="node">
<title>src/utils/conditions/geo&#45;condition.ts</title>
<g id="a_node16"><a xlink:href="src/utils/conditions/geo-condition.ts" xlink:title="geo&#45;condition.ts">
<path fill="#ddfeff" stroke="black" d="M406.71,-195.88C406.71,-195.88 337.29,-195.88 337.29,-195.88 334.33,-195.88 331.38,-192.92 331.38,-189.96 331.38,-189.96 331.38,-184.04 331.38,-184.04 331.38,-181.08 334.33,-178.12 337.29,-178.12 337.29,-178.12 406.71,-178.12 406.71,-178.12 409.67,-178.12 412.62,-181.08 412.62,-184.04 412.62,-184.04 412.62,-189.96 412.62,-189.96 412.62,-192.92 409.67,-195.88 406.71,-195.88"/>
<text text-anchor="start" x="339.38" y="-183.32" font-family="Helvetica,sans-Serif" font-size="9.00">geo&#45;condition.ts</text>
</a>
</g>
</g>
<!-- src/utils/conditions/index.ts&#45;&gt;src/utils/conditions/geo&#45;condition.ts -->
<g id="edge20" class="edge">
<title>src/utils/conditions/index.ts&#45;&gt;src/utils/conditions/geo&#45;condition.ts</title>
<path fill="none" stroke="#000000" stroke-width="2" stroke-opacity="0.200000" d="M307.92,-166.28C313.04,-168.23 318.43,-170.23 323.5,-172 326.32,-172.99 329.24,-173.98 332.19,-174.96"/>
<polygon fill="#000000" fill-opacity="0.200000" stroke="#000000" stroke-width="2" stroke-opacity="0.200000" points="332.15,-177.81 338.5,-177.67 333.45,-173.81 332.15,-177.81"/>
</g>
<!-- src/utils/conditions/letter&#45;condition.ts -->
<g id="node17" class="node">
<title>src/utils/conditions/letter&#45;condition.ts</title>
<g id="a_node17"><a xlink:href="src/utils/conditions/letter-condition.ts" xlink:title="letter&#45;condition.ts">
<path fill="#ddfeff" stroke="black" d="M408.96,-105.88C408.96,-105.88 335.04,-105.88 335.04,-105.88 332.08,-105.88 329.12,-102.92 329.12,-99.96 329.12,-99.96 329.12,-94.04 329.12,-94.04 329.12,-91.08 332.08,-88.12 335.04,-88.12 335.04,-88.12 408.96,-88.12 408.96,-88.12 411.92,-88.12 414.88,-91.08 414.88,-94.04 414.88,-94.04 414.88,-99.96 414.88,-99.96 414.88,-102.92 411.92,-105.88 408.96,-105.88"/>
<text text-anchor="start" x="337.12" y="-93.33" font-family="Helvetica,sans-Serif" font-size="9.00">letter&#45;condition.ts</text>
</a>
</g>
</g>
<!-- src/utils/conditions/index.ts&#45;&gt;src/utils/conditions/letter&#45;condition.ts -->
<g id="edge21" class="edge">
<title>src/utils/conditions/index.ts&#45;&gt;src/utils/conditions/letter&#45;condition.ts</title>
<path fill="none" stroke="#000000" stroke-width="2" stroke-opacity="0.200000" d="M290.25,-147.72C297.02,-137.55 309.16,-121.42 323.5,-112 324.44,-111.39 325.4,-110.8 326.38,-110.23"/>
<polygon fill="#000000" fill-opacity="0.200000" stroke="#000000" stroke-width="2" stroke-opacity="0.200000" points="327.82,-111.86 332.26,-107.31 325.95,-108.1 327.82,-111.86"/>
</g>
<!-- src/utils/conditions/number&#45;condition.ts -->
<g id="node18" class="node">
<title>src/utils/conditions/number&#45;condition.ts</title>
<g id="a_node18"><a xlink:href="src/utils/conditions/number-condition.ts" xlink:title="number&#45;condition.ts">
<path fill="#ddfeff" stroke="black" d="M414.58,-225.88C414.58,-225.88 329.42,-225.88 329.42,-225.88 326.46,-225.88 323.5,-222.92 323.5,-219.96 323.5,-219.96 323.5,-214.04 323.5,-214.04 323.5,-211.08 326.46,-208.12 329.42,-208.12 329.42,-208.12 414.58,-208.12 414.58,-208.12 417.54,-208.12 420.5,-211.08 420.5,-214.04 420.5,-214.04 420.5,-219.96 420.5,-219.96 420.5,-222.92 417.54,-225.88 414.58,-225.88"/>
<text text-anchor="start" x="331.5" y="-213.32" font-family="Helvetica,sans-Serif" font-size="9.00">number&#45;condition.ts</text>
</a>
</g>
</g>
<!-- src/utils/conditions/index.ts&#45;&gt;src/utils/conditions/number&#45;condition.ts -->
<g id="edge22" class="edge">
<title>src/utils/conditions/index.ts&#45;&gt;src/utils/conditions/number&#45;condition.ts</title>
<path fill="none" stroke="#000000" stroke-width="2" stroke-opacity="0.200000" d="M306.37,-166.35C307.87,-167.45 309.27,-168.67 310.5,-170 320.92,-181.27 312.22,-191.59 323.5,-202 323.8,-202.28 324.11,-202.55 324.42,-202.82"/>
<polygon fill="#000000" fill-opacity="0.200000" stroke="#000000" stroke-width="2" stroke-opacity="0.200000" points="323.45,-205.07 329.58,-206.74 325.83,-201.61 323.45,-205.07"/>
</g>
<!-- src/utils/conditions/set&#45;condition.ts -->
<g id="node19" class="node">
<title>src/utils/conditions/set&#45;condition.ts</title>
<g id="a_node19"><a xlink:href="src/utils/conditions/set-condition.ts" xlink:title="set&#45;condition.ts">
<path fill="#ddfeff" stroke="black" d="M404.83,-165.88C404.83,-165.88 339.17,-165.88 339.17,-165.88 336.21,-165.88 333.25,-162.92 333.25,-159.96 333.25,-159.96 333.25,-154.04 333.25,-154.04 333.25,-151.08 336.21,-148.12 339.17,-148.12 339.17,-148.12 404.83,-148.12 404.83,-148.12 407.79,-148.12 410.75,-151.08 410.75,-154.04 410.75,-154.04 410.75,-159.96 410.75,-159.96 410.75,-162.92 407.79,-165.88 404.83,-165.88"/>
<text text-anchor="start" x="341.25" y="-153.32" font-family="Helvetica,sans-Serif" font-size="9.00">set&#45;condition.ts</text>
</a>
</g>
</g>
<!-- src/utils/conditions/index.ts&#45;&gt;src/utils/conditions/set&#45;condition.ts -->
<g id="edge23" class="edge">
<title>src/utils/conditions/index.ts&#45;&gt;src/utils/conditions/set&#45;condition.ts</title>
<path fill="none" stroke="#000000" stroke-width="2" stroke-opacity="0.200000" d="M310.92,-157C315.16,-157 319.66,-157 324.2,-157"/>
<polygon fill="#000000" fill-opacity="0.200000" stroke="#000000" stroke-width="2" stroke-opacity="0.200000" points="323.96,-159.1 329.96,-157 323.96,-154.9 323.96,-159.1"/>
</g>
<!-- src/utils/functions.ts&#45;&gt;src/utils/wrap&#45;column.ts -->
<g id="edge28" class="edge">
<title>src/utils/functions.ts&#45;&gt;src/utils/wrap&#45;column.ts</title>
<path fill="none" stroke="#000000" stroke-width="2" stroke-opacity="0.200000" d="M482.18,-207.66C487.38,-203.93 493.25,-199.46 498.25,-195 512.11,-182.64 526.37,-167.01 536.3,-155.57"/>
<polygon fill="#000000" fill-opacity="0.200000" stroke="#000000" stroke-width="2" stroke-opacity="0.200000" points="538.57,-156.98 540.88,-151.06 535.38,-154.25 538.57,-156.98"/>
</g>
<!-- src/utils/wrap&#45;column.ts&#45;&gt;src/utils/escape&#45;identifier.ts -->
<g id="edge29" class="edge">
<title>src/utils/wrap&#45;column.ts&#45;&gt;src/utils/escape&#45;identifier.ts</title>
<path fill="none" stroke="#000000" stroke-width="2" stroke-opacity="0.200000" d="M569.12,-130.65C584.12,-122.74 605.8,-111.31 622.66,-102.43"/>
<polygon fill="#000000" fill-opacity="0.200000" stroke="#000000" stroke-width="2" stroke-opacity="0.200000" points="624.16,-103.95 628.49,-99.29 622.21,-100.24 624.16,-103.95"/>
</g>
<!-- src/utils/conditions/field&#45;condition.ts&#45;&gt;src/utils/wrap&#45;column.ts -->
<g id="edge17" class="edge">
<title>src/utils/conditions/field&#45;condition.ts&#45;&gt;src/utils/wrap&#45;column.ts</title>
<path fill="none" stroke="#000000" stroke-width="2" stroke-opacity="0.200000" d="M413.46,-129.98C439.89,-131.93 474.51,-134.48 502.19,-136.52"/>
<polygon fill="#000000" fill-opacity="0.200000" stroke="#000000" stroke-width="2" stroke-opacity="0.200000" points="501.78,-138.82 507.91,-137.17 502.08,-134.63 501.78,-138.82"/>
</g>
<!-- src/utils/conditions/geo&#45;condition.ts&#45;&gt;src/utils/wrap&#45;column.ts -->
<g id="edge18" class="edge">
<title>src/utils/conditions/geo&#45;condition.ts&#45;&gt;src/utils/wrap&#45;column.ts</title>
<path fill="none" stroke="#000000" stroke-width="2" stroke-opacity="0.200000" d="M407.85,-177.71C435.9,-170.24 475.48,-159.69 505.66,-151.65"/>
<polygon fill="#000000" fill-opacity="0.200000" stroke="#000000" stroke-width="2" stroke-opacity="0.200000" points="507.04,-152.92 512.3,-149.35 505.96,-148.86 507.04,-152.92"/>
</g>
<!-- src/utils/conditions/letter&#45;condition.ts&#45;&gt;src/utils/wrap&#45;column.ts -->
<g id="edge24" class="edge">
<title>src/utils/conditions/letter&#45;condition.ts&#45;&gt;src/utils/wrap&#45;column.ts</title>
<path fill="none" stroke="#000000" stroke-width="2" stroke-opacity="0.200000" d="M411.27,-106.33C438.08,-112.87 474.07,-121.64 502.59,-128.59"/>
<polygon fill="#000000" fill-opacity="0.200000" stroke="#000000" stroke-width="2" stroke-opacity="0.200000" points="502.85,-131.31 509.18,-130.69 503.85,-127.23 502.85,-131.31"/>
</g>
<!-- src/utils/conditions/number&#45;condition.ts&#45;&gt;src/utils/functions.ts -->
<g id="edge25" class="edge">
<title>src/utils/conditions/number&#45;condition.ts&#45;&gt;src/utils/functions.ts</title>
<path fill="none" stroke="#000000" stroke-width="2" stroke-opacity="0.200000" d="M420.78,-217C422.9,-217 425.01,-217 427.1,-217"/>
<polygon fill="#000000" fill-opacity="0.200000" stroke="#000000" stroke-width="2" stroke-opacity="0.200000" points="427.08,-219.1 433.08,-217 427.08,-214.9 427.08,-219.1"/>
</g>
<!-- src/utils/conditions/number&#45;condition.ts&#45;&gt;src/utils/wrap&#45;column.ts -->
<g id="edge26" class="edge">
<title>src/utils/conditions/number&#45;condition.ts&#45;&gt;src/utils/wrap&#45;column.ts</title>
<path fill="none" stroke="#000000" stroke-width="2" stroke-opacity="0.200000" d="M411.55,-207.71C417.3,-206 423.1,-204.09 428.5,-202 463.88,-188.32 502.51,-167.36 526.34,-153.67"/>
<polygon fill="#000000" fill-opacity="0.200000" stroke="#000000" stroke-width="2" stroke-opacity="0.200000" points="527.7,-155.15 531.83,-150.32 525.59,-151.52 527.7,-155.15"/>
</g>
<!-- src/utils/conditions/set&#45;condition.ts&#45;&gt;src/utils/wrap&#45;column.ts -->
<g id="edge27" class="edge">
<title>src/utils/conditions/set&#45;condition.ts&#45;&gt;src/utils/wrap&#45;column.ts</title>
<path fill="none" stroke="#000000" stroke-width="2" stroke-opacity="0.200000" d="M410.84,-153.35C437.62,-150.77 473.73,-147.29 502.36,-144.53"/>
<polygon fill="#000000" fill-opacity="0.200000" stroke="#000000" stroke-width="2" stroke-opacity="0.200000" points="502.22,-146.37 507.99,-143.7 501.82,-142.18 502.22,-146.37"/>
</g>
</g>
</svg>
