<?xml version="1.0" standalone="no"?>
<!DOCTYPE svg PUBLIC "-//W3C//DTD SVG 20010904//EN"
 "http://www.w3.org/TR/2001/REC-SVG-20010904/DTD/svg10.dtd">
<svg version="1.0" xmlns="http://www.w3.org/2000/svg"
 width="64.000000pt" height="64.000000pt" viewBox="0 0 64.000000 64.000000"
 preserveAspectRatio="xMidYMid meet">
<metadata>
Created by potrace 1.14, written by Peter Selinger 2001-2017
</metadata>
<g transform="translate(0.000000,64.000000) scale(0.100000,-0.100000)"
fill="#000000" stroke="none">
<path d="M280 510 c0 -5 10 -19 23 -31 21 -21 21 -21 1 -11 -20 11 -34 7 -34
-8 0 -11 54 -31 87 -32 16 -1 39 4 51 11 20 11 22 9 22 -14 0 -14 -9 -34 -19
-44 -17 -17 -25 -18 -53 -10 -18 5 -62 14 -98 19 -36 6 -77 19 -91 29 -33 25
-54 13 -45 -24 4 -17 12 -25 20 -22 12 5 12 1 0 -21 -8 -15 -14 -34 -14 -43 0
-18 -31 -49 -48 -49 -7 0 -21 -20 -33 -44 -11 -25 -27 -50 -35 -57 -20 -16
-17 -29 6 -29 11 0 30 12 43 26 40 48 47 53 85 60 44 8 95 41 89 58 -3 7 31
-5 74 -26 44 -21 82 -38 85 -38 3 0 3 10 0 23 -3 12 -3 16 0 9 13 -28 63 -43
122 -36 46 5 60 3 71 -10 15 -18 37 -21 46 -5 12 18 -36 59 -85 73 -40 11 -45
17 -48 44 -2 23 2 34 18 42 11 6 24 9 29 6 10 -7 51 22 51 35 0 27 -89 88
-161 110 -64 20 -159 26 -159 9z"/>
</g>
</svg>
