<?xml version="1.0" standalone="no"?>
<!DOCTYPE svg PUBLIC "-//W3C//DTD SVG 1.1//EN" "http://www.w3.org/Graphics/SVG/1.1/DTD/svg11.dtd" >
<svg xmlns="http://www.w3.org/2000/svg">
<metadata></metadata>
<defs>
<font id="directusregular" horiz-adv-x="2400" >
<font-face units-per-em="2400" ascent="1920" descent="-480" />
<missing-glyph horiz-adv-x="500" />
<glyph unicode=" " />
<glyph unicode="&#x2601;" d="M1456 2095q182 0 337 -92.5t245 -251t90 -345.5v-3q126 -4 234 -78t170 -192.5t62 -250.5q0 -149 -80 -277t-213 -205h-2144q-107 0 -175 90t-68 207q0 126 87 214.5t210 88.5h2q-1 34 -1.5 52t-1 20t-0.5 3.5v6.5q0 140 67 265.5t183.5 201.5t252.5 76q56 0 103 -11 q65 212 241.5 346.5t398.5 134.5z" />
<glyph unicode="&#x2602;" d="M1100 2394v105q0 41 29.5 70.5t70.5 29.5t70.5 -29.5t29.5 -70.5v-105q247 -18 469.5 -134t382.5 -298.5t254 -426t94 -507.5h-5q-136 269 -441 269q-130 0 -240.5 -51.5t-186.5 -148.5q-79 101 -190.5 161t-236.5 60q-123 0 -234.5 -63.5t-192.5 -167.5 q-77 100 -188 156t-238 56q-305 0 -442 -271h-5q0 264 94 507.5t254 426t382.5 298.5t469.5 134zM1100 199v880q0 3 14 7.5t38 8.5t48 4t48 -4t38 -8.5t14 -7.5v-880q0 -75 -25 -145t-73.5 -127.5t-129 -92t-181.5 -34.5q-179 0 -285 107.5t-106 291.5v49q0 21 14.5 35.5 t35.5 15.5h100q21 -1 35.5 -15.5t14.5 -35.5v-49q0 -38 9.5 -71t31 -63t62 -47.5t97.5 -17.5q56 0 97 18.5t60 41t29.5 55.5t12 49.5t1.5 34.5z" />
<glyph unicode="&#x2609;" d="M1300 2400v-401q0 7 -100 7t-100 -7v401h200zM425 2122l285 -284q-83 -65 -148 -148l-284 285zM2122 1975l-284 -285q-65 83 -148 148l285 284zM1200 1688q131 0 243.5 -66t178.5 -178.5t66 -243.5t-66 -243.5t-178.5 -178.5t-243.5 -66t-243.5 66t-178.5 178.5 t-66 243.5t66 243.5t178.5 178.5t243.5 66zM0 1300h401q-7 0 -7 -100t7 -100h-401v200zM2400 1100h-401q7 0 7 100t-7 100h401v-200zM278 425l284 285q62 -81 148 -148l-285 -284zM1975 278l-285 284q86 67 148 148l284 -285zM1100 0v401q0 -7 100 -7t100 7v-401h-200z" />
<glyph unicode="&#x2693;" d="M1000 324v1330q-84 58 -143 150.5t-59 195.5q0 166 116.5 283t282.5 117q165 0 283 -117.5t118 -282.5q0 -104 -57.5 -196.5t-140.5 -149.5v-1330q143 29 251.5 94.5t204.5 169.5l-170 168q-15 15 -10.5 27.5t24.5 15.5l643 91q21 3 33.5 -9.5t9.5 -32.5l-92 -643 q-3 -21 -15.5 -25t-26.5 10l-188 188q-168 -177 -393 -277.5t-476 -100.5q-253 0 -478.5 99.5t-392.5 276.5l-185 -185q-15 -15 -27.5 -10.5t-15.5 24.5l-92 644q-3 20 10 32.5t33 9.5l644 -92q20 -3 24.5 -15.5t-9.5 -26.5l-167 -168q96 -104 206.5 -170t254.5 -95z M1196 2211q-88 0 -150 -62t-62 -149t62 -149t150 -62q87 0 148.5 62t61.5 149t-61.5 149t-148.5 62z" />
<glyph unicode="&#x2709;" d="M1200 800l-1200 1200h2400zM600 1200l-600 -600v1200zM2400 600l-600 600l600 600v-1200zM2400 400h-2400l700 700l500 -500l500 500z" />
<glyph unicode="&#x270f;" d="M1769 2177l204 204q21 21 51 21t51 -21l306 -306q21 -21 21 -51t-21 -51l-204 -204zM2054 1646l-1284 -1285l-408 409l1284 1283zM646 238l-615 -236q-19 -8 -28 0.5t-1 28.5l236 615z" />
<glyph unicode="&#xe000;" horiz-adv-x="500" d="M0 0z" />
<glyph unicode="&#xe004;" d="M850 952v376q-100 74 -100 224v298q0 126 48.5 226t152.5 162t249 62t249 -62t152.5 -162t48.5 -226v-298q0 -149 -100 -223v-377q186 -76 700 -373q59 -33 79.5 -73.5t20.5 -120.5v-235q0 -21 -14.5 -35.5t-35.5 -14.5h-2200q-20 0 -35 14.5t-15 35.5v235 q0 80 20.5 120.5t79.5 73.5q481 278 700 373z" />
<glyph unicode="&#xe007;" d="M1100 952v376q-100 74 -100 224v298q0 126 48.5 226t152.5 162t249 62t249 -62t152.5 -162t48.5 -226v-298q0 -149 -100 -223v-377q186 -76 700 -373q59 -33 79.5 -73.5t20.5 -120.5v-235q0 -21 -14.5 -35.5t-35.5 -14.5h-2200q-20 0 -35 14.5t-15 35.5v235 q0 80 20.5 120.5t79.5 73.5q481 278 700 373zM250 1800h100q21 0 35.5 -14.5t14.5 -35.5v-350h350q21 0 35.5 -14.5t14.5 -35.5v-100q0 -21 -14.5 -35.5t-35.5 -14.5h-350v-350q0 -21 -14.5 -35.5t-35.5 -14.5h-100q-21 0 -35.5 14.5t-14.5 35.5v350h-350q-21 0 -35.5 14.5 t-14.5 35.5v100q0 21 14.5 35.5t35.5 14.5h350v350q0 21 14.5 35.5t35.5 14.5z" />
<glyph unicode="&#xe008;" d="M1000 952v376q-100 74 -100 224v298q0 126 48.5 226t152.5 162t249 62t249 -62t152.5 -162t48.5 -226v-298q0 -149 -100 -223v-377q186 -76 700 -373q59 -33 79.5 -73.5t20.5 -120.5v-235q0 -21 -14.5 -35.5t-35.5 -14.5h-2200q-21 0 -35.5 14.5t-14.5 35.5v235 q0 80 20.5 120.5t79.5 73.5q481 278 700 373zM-50 1400h700q21 0 35.5 -14.5t14.5 -35.5v-100q0 -21 -14.5 -35.5t-35.5 -14.5h-700q-21 0 -35.5 14.5t-14.5 35.5v100q0 21 14.5 35.5t35.5 14.5z" />
<glyph unicode="&#xe009;" d="M200 2500h2000q41 0 70.5 -29.5t29.5 -70.5v-2400q0 -41 -29.5 -70.5t-70.5 -29.5h-2000q-41 0 -70.5 29.5t-29.5 70.5v2400q0 41 29.5 70.5t70.5 29.5zM200 2300v-200h300v200h-300zM600 2300v-1000h1200v1000h-1200zM1900 2300v-200h300v200h-300zM200 1900v-200h300 v200h-300zM1900 1900v-200h300v200h-300zM200 1500v-200h300v200h-300zM1900 1500v-200h300v200h-300zM200 1100v-200h300v200h-300zM600 1100v-1000h1200v1000h-1200zM1900 1100v-200h300v200h-300zM200 700v-200h300v200h-300zM1900 700v-200h300v200h-300zM200 300v-200 h300v200h-300zM1900 300v-200h300v200h-300z" />
<glyph unicode="&#xe010;" d="M497 1894l-494 -157l494 -143l154 -499l146 499l493 148l-493 152l-150 500zM1760 1964l403 402q14 15 35 15t35 -15l142 -141q14 -15 14 -35.5t-14 -35.5l-403 -402zM1813 1592l-1572 -1571q-14 -15 -35 -15t-35 15l-142 141q-14 15 -14 36t14 35l1572 1572zM1974 1227 l-266 -78l266 -79l79 -266l78 266l266 79l-266 78l-78 267zM1452 640l-344 -101l344 -101l101 -344l101 344l343 101l-343 101l-101 344z" />
<glyph unicode="&#xe013;" d="M1178 1969q77 111 172 182.5t191 99t195.5 23t189 -40.5t169 -97.5t137 -140.5t91 -177.5t33.5 -201.5q0 -89 -38 -181.5t-108.5 -185t-159 -186t-200 -202t-219.5 -216t-231 -246.5t-222 -274q-99 135 -222 274t-231 246.5t-219.5 216t-200 202t-159 186t-108.5 185 t-38 181.5q0 103 34.5 201.5t93.5 177.5t140 140.5t171.5 97.5t191 40.5t195.5 -23t187.5 -99t164.5 -182.5z" />
<glyph unicode="&#xe016;" d="M750 2400h900q21 0 37 -14.5t18 -35.5l190 -894q2 -20 -11 -35t-34 -15h-1300q-21 0 -34 15t-11 35l190 894q2 21 18 35.5t37 14.5zM2050 1700h300q21 0 35.5 -14.5t14.5 -35.5v-1397q0 -21 -14.5 -37t-35.5 -16h-370q-21 0 -39 15t-23 35l-39 202q-5 20 -23 34t-39 14 h-1234q-20 0 -38.5 -14.5t-23.5 -34.5l-39 -201q-5 -20 -23 -35t-39 -15h-370q-21 0 -35.5 16t-14.5 37v1397q0 21 14.5 35.5t35.5 14.5h297q21 0 37 -14.5t16 -35.5v-300q0 -21 13 -35.5t34 -14.5h1503q21 0 35.5 14.5t14.5 35.5v300q0 21 14.5 35.5t35.5 14.5zM200 1598 q-41 0 -70.5 -29.5t-29.5 -70.5q0 -42 29.5 -71t70.5 -29t70.5 29t29.5 71q0 41 -29.5 70.5t-70.5 29.5zM700 400h1000q21 0 39 -14t23 -34l76 -304q5 -20 -6 -34t-32 -14h-1200q-21 0 -32 14t-6 34l76 304q5 20 23 34t39 14z" />
<glyph unicode="&#xe017;" d="M1000 2357h400q31 0 46.5 -0.5t41 -2.5t38 -6t29.5 -11.5t25 -19.5t14 -29.5t6 -40.5v-47h550q21 0 35.5 -14.5t14.5 -35.5v-100q0 -21 -14.5 -35.5t-35.5 -14.5h-1900q-21 0 -35.5 14.5t-14.5 35.5v100q0 21 14.5 35.5t35.5 14.5h550v47q0 23 6 40.5t14 29.5t25 19.5 t29.5 11.5t38 6t41 2.5t46.5 0.5zM350 1900h1679q71 0 71 -41v-1889q0 -23 -20.5 -36.5t-50.5 -13.5h-1679q-17 0 -29.5 8t-16.5 16l-4 9v1897q0 25 11 37.5t39 12.5z" />
<glyph unicode="&#xe018;" d="M2200 600v1761q0 21 -14 31.5t-34 5.5l-1404 -369q-20 -6 -34 -24.5t-14 -39.5v-1378q-117 30 -277 -22q-157 -51 -244 -168.5t-51 -227.5q36 -111 172 -158t295 2q129 42 214.5 125.5t90.5 161.5v1274l1100 293v-980q-119 29 -277 -22q-157 -51 -244 -168.5t-51 -227.5 q36 -111 172 -158t295 2q129 41 214.5 125t90.5 162z" />
<glyph unicode="&#xe019;" d="M1065 2400h174q25 0 43 -18t18 -43v-55q44 -22 139 -59.5t171.5 -71t159.5 -81t139.5 -111.5t75.5 -140q25 -96 11 -180.5t-45.5 -151t-78 -118.5t-85.5 -82t-68 -42q-38 -14 -42 -6.5t10 23.5l14 17q6 9 15 24t28 60t28 88.5t3.5 101t-33.5 104.5q-27 45 -89 73.5 t-123.5 37.5t-130 23.5t-99.5 32.5v-1415q0 -2 -1 -5.5t-1 -5.5q-12 -114 -113.5 -217.5t-256.5 -153.5q-132 -39 -248 -32t-203.5 61t-116.5 142q-28 87 10 181.5t131 172t219 118.5q134 43 283 20l1 1647q0 25 18 43t43 18z" />
<glyph unicode="&#xe020;" d="M1200 1969q77 111 172 182.5t191 99t195.5 23t189 -40.5t169 -97.5t137 -140.5t91 -177.5t33.5 -201.5q0 -89 -38 -181.5t-108.5 -185t-159 -186t-200 -202t-219.5 -216t-231 -246.5t-222 -274q-99 135 -222 274t-231 246.5t-219.5 216t-200 202t-159 186t-108.5 185 t-38 181.5q0 103 34.5 201.5t93.5 177.5t140 140.5t171.5 97.5t191 40.5t195.5 -23t187.5 -99t164.5 -182.5zM1194 1521l-203 311q-126 192 -307 192q-73 0 -146.5 -31.5t-132.5 -84.5t-96 -130t-37 -162q0 -45 27.5 -102.5t62.5 -107t109 -130t124 -130.5t150 -148 q287 -279 455 -472q149 172 457 475q70 68 107 105t95.5 97t90 96.5t71.5 86.5t59.5 85.5t33.5 74t14 70.5q0 85 -36 162t-93.5 130t-129 84.5t-142.5 31.5q-185 0 -321 -198z" />
<glyph unicode="&#xe021;" d="M2600 1200h-400v-1200h-700v800h-500v-800h-700v1200h-397l1349 1342v-5l348 -345v308h400v-705z" />
<glyph unicode="&#xe025;" d="M300 952v376q-100 74 -100 224v298q0 126 48.5 226t152.5 162t249 62t249 -62t152.5 -162t48.5 -226v-298q0 -150 -100 -223v-377q186 -76 700 -373q59 -33 79.5 -73.5t20.5 -120.5v-235q0 -21 -14.5 -35.5t-35.5 -14.5h-2200q-20 0 -35 14.5t-15 35.5v235 q0 80 20.5 120.5t79.5 73.5q481 278 700 373zM1900 100v328q0 103 -34.5 167.5t-134.5 121.5q-74 42 -131 75v35q-82 4 -162 33q-68 38 -140 76q-38 29 -73 66q-14 15 -15 31.5t7.5 31.5t26.5 34.5t36.5 36t44 41.5t44.5 47q62 72 81.5 150t19.5 232q0 95 47 183.5 t139.5 149t208.5 61.5q116 -1 208.5 -61.5t139.5 -149t47 -183.5q0 -156 18.5 -233.5t79.5 -148.5q18 -21 43 -46.5t42.5 -42t34 -36.5t24 -34.5t5.5 -31t-16 -31.5q-56 -61 -156.5 -114t-234.5 -61v-199q143 -62 295 -134t203 -101q49 -28 75.5 -61.5t26.5 -81.5v-100 q0 -21 -13 -35.5t-33 -14.5h-754z" />
<glyph unicode="&#xe028;" d="M2076 40l-588 588q-234 -152 -513 -152q-193 0 -369 75.5t-303 202.5t-202.5 303t-75.5 369t75.5 368.5t202.5 302.5t303 202.5t369 75.5t368.5 -75.5t302.5 -202.5t202.5 -302.5t75.5 -368.5q0 -278 -152 -514l588 -588q15 -14 15 -35t-15 -36l-213 -213 q-14 -14 -35.5 -14t-35.5 14zM975 2073q-132 0 -251.5 -51.5t-206.5 -138t-138.5 -206.5t-51.5 -251q0 -132 51.5 -252t138.5 -206.5t206.5 -138t251.5 -51.5t251.5 51.5t206.5 138t138.5 206.5t51.5 252q0 131 -51.5 251t-138.5 206.5t-206.5 138t-251.5 51.5z" />
<glyph unicode="&#xe030;" d="M1000 2700h400q41 0 70.5 -33t29.5 -75v-92h198q41 0 71.5 -30.5t30.5 -71.5v-198q0 -41 -30.5 -70.5t-71.5 -29.5h-996q-41 0 -71.5 29.5t-30.5 70.5v198q0 41 30.5 71.5t71.5 30.5h198v92q0 42 29.5 75t70.5 33zM1900 2400h250q21 0 35.5 -14.5t14.5 -35.5v-2300 q0 -21 -14.5 -35.5t-35.5 -14.5h-1900q-21 0 -35.5 14.5t-14.5 35.5v2300q0 21 14.5 35.5t35.5 14.5h250v-300q0 -41 29.5 -70.5t70.5 -29.5h1200q41 0 70.5 29.5t29.5 70.5v300zM600 1800v-100h1300v100h-1300zM500 1600v-100h1400v100h-1400zM500 1400v-100h1000v100 h-1000zM600 1200v-100h1300v100h-1300zM500 1000v-100h1400v100h-1400zM500 800v-100h1400v100h-1400zM500 600v-100h1400v100h-1400zM500 400v-100h500v100h-500z" />
<glyph unicode="&#xe033;" d="M433 811l-141 -142q-185 181 -288.5 421t-103.5 508t103.5 508t288.5 420l141 -141q-157 -153 -245 -356.5t-88 -430.5t88 -430.5t245 -356.5zM1967 2385l141 141q185 -180 288.5 -420t103.5 -508t-103.5 -508t-288.5 -421l-141 142q157 153 245 356.5t88 430.5 t-88 430.5t-245 356.5zM797 1175l-141 -142q-114 109 -178 255.5t-64 309.5t64 308.5t178 255.5l141 -141q-86 -82 -134.5 -191.5t-48.5 -231.5q0 -123 48.5 -232.5t134.5 -190.5zM1603 2021l141 141q114 -110 178 -255.5t64 -308.5t-64 -309.5t-178 -255.5l-141 142 q86 81 134.5 190.5t48.5 232.5q0 122 -48.5 231.5t-134.5 191.5zM1000 0l121 1361q-76 25 -124 90t-48 147q0 104 73.5 177t177.5 73t177.5 -73.5t73.5 -176.5q0 -82 -48 -147t-124 -90l121 -1361h-400z" />
<glyph unicode="&#xe035;" d="M1301 2422l239 76q22 8 35 0.5t10 -30.5l146 -668h113q22 0 38 -28t16 -60q0 -16 -56.5 -51.5t-141.5 -67.5v-165q0 -151 -100 -222v-251q186 -75 700 -372q59 -34 79.5 -74t20.5 -120v-239q0 -21 -14.5 -35.5t-35.5 -14.5h-2200q-20 0 -35 14.5t-15 35.5v239 q0 80 20.5 120t79.5 74q481 278 700 372v250q-100 73 -100 223v165q-85 32 -141.5 67.5t-56.5 51.5q0 32 16 60t38 28h113l146 658q-3 23 10 32t35 1l239 -68q21 -8 51 -8.5t51 7.5z" />
<glyph unicode="&#xe037;" d="M1500 2400v-650q0 -21 14.5 -35.5t35.5 -14.5h650v-1650q0 -21 -14.5 -35.5t-35.5 -14.5h-1800q-21 0 -35.5 14.5t-14.5 35.5v2300q0 21 14.5 35.5t35.5 14.5h1150zM2200 1800h-550q-21 0 -35.5 14.5t-14.5 35.5v550z" />
<glyph unicode="&#xe038;" d="M100 1835v196q0 213 450 316q338 80 737 30q419 -52 567 -220q21 -24 34 -54t17 -67t4.5 -64.5t-1.5 -72t-2 -64.5q0 -33 -25 -74q202 -66 353 -220.5t219.5 -359t36.5 -414.5q-32 -212 -161.5 -387.5t-323 -276t-408.5 -100.5q-160 0 -311 56q-169 -43 -351 -55 q-326 -21 -641 60q-58 15 -101.5 29.5t-97 39t-95 58.5t-66.5 77q-17 28 -24.5 69t-7.5 72t2.5 81.5t2.5 70.5q0 81 72 147q-79 73 -79 147v196q0 104 134 192q-34 49 -34 102v196q0 105 135 192q-35 48 -35 102zM1749 2029l-2 5q-4 14 -12 27t-22 24.5t-26.5 21t-33 18.5 t-33.5 15t-36.5 13.5t-33.5 11t-33.5 10t-27.5 7.5q-212 65 -496 65q-292 0 -507 -67q-5 -2 -42.5 -13t-52.5 -16.5t-47 -19t-48.5 -26t-34 -31.5t-23.5 -41l1 -5q4 -15 14.5 -29t22 -25.5t31 -23t34.5 -19.5t40.5 -17t39.5 -14t42 -12.5t37.5 -9.5t35.5 -8.5t28 -6.5 q195 -47 431 -47q243 -1 495 64q5 1 29.5 7.5t34 9.5t33.5 10t36.5 12.5t33 14.5t32.5 18.5t25.5 21t22 25.5t12.5 30zM287 1653q-48 -19 -84.5 -48t-48.5 -48l-13 -19q10 -34 44 -62t87.5 -47.5t89.5 -29.5t86 -22q13 -3 18 -4q160 -38 379 -47q49 90 139 186 q-164 3 -385.5 50.5t-311.5 90.5zM1596 1610q-128 0 -258 -49q-141 -57 -244.5 -166t-153.5 -241.5t-45 -283t72 -285.5q76 -152 218.5 -254.5t309.5 -124.5q148 -25 294 20t256 138.5t180.5 229.5t75.5 285q4 143 -51 278t-150.5 234t-228 159t-275.5 60zM42 1053l1 -5 q8 -28 37 -53t73 -43.5t74.5 -29t69.5 -21.5q8 -2 11 -3q179 -52 429 -61q-6 96 6 190q-354 27 -554 136q-88 -37 -118 -64q-20 -20 -27 -40zM143 628l-11 17q-38 -12 -60.5 -34t-25.5 -37l-3 -16q5 -17 16 -33t29.5 -29.5t35.5 -24.5t44 -21.5t44.5 -17t48.5 -14.5 t44 -11.5t42.5 -10t33.5 -7.5q64 -15 140 -24t130.5 -10.5t143.5 -3.5t136 -4q-69 82 -102 145q-212 11 -433 49t-253 87z" />
<glyph unicode="&#xe040;" d="M1900 2400h100q0 41 29.5 70.5t70.5 29.5t70.5 -29.5t29.5 -70.5v-400h-2000v400q0 41 29.5 70.5t70.5 29.5t70.5 -29.5t29.5 -70.5h100q0 41 29.5 70.5t70.5 29.5t70.5 -29.5t29.5 -70.5h100q0 41 29.5 70.5t70.5 29.5t70.5 -29.5t29.5 -70.5h100q0 41 29.5 70.5 t70.5 29.5t70.5 -29.5t29.5 -70.5h100q0 41 29.5 70.5t70.5 29.5t70.5 -29.5t29.5 -70.5h100q0 41 29.5 70.5t70.5 29.5t70.5 -29.5t29.5 -70.5zM2200 1900v-1850q0 -21 -14.5 -35.5t-35.5 -14.5h-1900q-21 0 -35.5 14.5t-14.5 35.5v1850h2000zM600 1600v-100h1300v100 h-1300zM500 1400v-100h1000v100h-1000zM600 1200v-100h1300v100h-1300zM500 1000v-100h1400v100h-1400zM500 800v-100h1400v100h-1400zM500 600v-100h1400v100h-1400zM500 400v-100h500v100h-500z" />
<glyph unicode="&#xe041;" d="M2200 2500v-52q68 50 150 50q104 0 177 -73t73 -177t-73 -177t-177 -73q-28 0 -64 9l-86 -130v-77h300v-100h-300v-300h300v-100h-300v-300h300v-100h-300v-300h300v-100h-300v-300h300v-200h-2500v2500h200v-300h300v300h100v-300h300v300h100v-300h300v300h100v-300 h300v300h100v-300h300v300h100zM200 1800h300v300h-300v-300zM600 1800h300v300h-300v-300zM1000 1800h300v300h-300v-300zM1400 1800h300v300h-300v-300zM1800 1800h169l131 199v101h-300v-300zM1800 1700v-108q4 -1 13 -3.5t14 -3.5l76 115h-103zM200 1400h300v300h-300 v-300zM600 1400h300v300h-300v-300zM1000 1400h300v300h-300v-300zM1400 1400h105q16 73 69 125.5t126 67.5v107h-300v-300zM2083 1700l-133 -203q34 -45 44 -97h106v300h-17zM1000 1300v-153q21 -16 38 -35l426 188h-64v-28l-100 -44v72h-300zM200 1000h300v300h-300v-300z M600 1000h5q18 85 87 141.5t158 56.5q23 0 50 -5v107h-300v-300zM2100 1300h-105q-14 -74 -67.5 -128t-127.5 -69v-103h300v300zM1700 1000v103q-80 17 -135 78l-165 -73v-108h300zM1300 1063l-143 -63h143v63zM500 900h-300v-300h247l53 61v239zM533 699l104 120 q-23 39 -32 81h-5v-123zM1300 900h-205q-19 -96 -95 -152v-148h300v300zM1700 900h-300v-300h300v300zM2100 900h-300v-300h300v300zM900 600v103q-27 -5 -50 -5q-52 0 -101 22l-103 -120h254zM200 315l160 185h-160v-185zM900 500h-300v-300h300v300zM1300 500h-300v-300 h300v300zM1700 500h-300v-300h300v300zM2100 500h-300v-300h300v300zM500 432l-201 -232h201v232z" />
<glyph unicode="&#xe042;" d="M1250 2400h400q21 0 35.5 -14.5t14.5 -35.5v-2150h100v1450q0 21 15 35.5t35 14.5h400q21 0 35.5 -14.5t14.5 -35.5v-1450h200v-200h-2700v200h200v450q0 21 15 35.5t35 14.5h400q21 0 35.5 -14.5t14.5 -35.5v-450h100v1050q0 21 15 35.5t35 14.5h400q21 0 35.5 -14.5 t14.5 -35.5v-1050h100v2150q0 21 15 35.5t35 14.5z" />
<glyph unicode="&#xe043;" d="M1200 1196v-1115q-148 0 -290.5 40t-265 112t-226 175t-176.5 225t-114 267t-41 296q0 227 89 434t238.5 356t357 237.5t434.5 88.5t429.5 -86t357.5 -241zM1404 1196l789 789q161 -160 244.5 -368.5t83.5 -420t-83.5 -420t-244.5 -368.5zM1300 1103l789 -788 q-327 -327 -789 -327v1115z" />
<glyph unicode="&#xe044;" d="M800 852v376q-100 74 -100 224v298q0 126 48.5 226t152.5 162t249 62t249 -62t152.5 -162t48.5 -226v-298q0 -149 -100 -223v-377q186 -76 700 -373q59 -33 79.5 -73.5t20.5 -120.5v-250q0 -11 -8 -22t-19 -11h-2246q-11 0 -19 11t-8 22v250q0 80 20.5 120.5t79.5 73.5 q481 278 700 373zM0 991v262q-29 9 -48.5 22t-30 24.5t-15 32t-5.5 34.5t-1 43v178q0 138 75.5 225.5t224.5 87.5t224.5 -87.5t75.5 -225.5v-178q0 -29 -1 -42.5t-5.5 -34t-15 -32t-30 -24.5t-48.5 -22v-263q80 -25 185 -76q-207 -104 -545 -297l-14 -8q-136 -77 -165 -210 h-442q-8 0 -13.5 7.5t-5.5 15.5v174q0 51 22 80t69 55q3 2 49 30t94 56t111.5 62t131 64t123.5 47zM1900 991v262q-29 9 -48.5 22t-30 24.5t-15 32t-5.5 34.5t-1 43v178q0 138 75.5 225.5t224.5 87.5t224.5 -87.5t75.5 -225.5v-178q0 -29 -1 -42.5t-5.5 -34t-15 -32 t-30 -24.5t-48.5 -22v-263q56 -17 123.5 -47t131 -64t111.5 -62t94 -56t49 -30q47 -26 69 -55t22 -80v-174q0 -8 -5.5 -15.5t-13.5 -7.5h-442q-31 134 -165 210l-36 20q-316 184 -521 286q112 54 183 75z" />
<glyph unicode="&#xe045;" d="M51 2407l600 86q47 7 99 7t99 -7l600 -86q20 -3 31 -19.5t6 -36.5l-275 -1103q-5 -20 -23.5 -34t-38.5 -14h-149v-1100l-100 -99v999l-33 200h-34l-33 -200v-100h-100v-100h100v-100h-100v-100h100v-100h-100v-100h100v-100h-100v-100h100v-100h-100v-100h100v-97l-3 -3 h-109l-188 200v1100h-149q-20 0 -38.5 14t-23.5 34l-275 1103q-5 20 6 36.5t31 19.5zM750 2294q-80 0 -137 -57t-57 -137t57 -137t137 -57t137 57t57 137t-57 137t-137 57zM1634 2284l304 -846q7 -20 0 -42t-24 -33l-134 -89l610 -928l-47 -272l-90 -61l-276 55l-608 928 l-108 -76q-31 -21 -61 1v119q72 4 120 50t66 120z" />
<glyph unicode="&#xe049;" d="M2017 74l-768 551l-764 -554l291 883l-776 546h958l294 900h3l292 -900h944l-765 -541zM1491 1036l379 264h-468l-149 459l-150 -459h-479l387 -268l-145 -437l383 277l389 -284z" />
<glyph unicode="&#xe050;" d="M2017 74l-768 551l-764 -554l291 883l-776 546h958l294 900h3l292 -900h944l-765 -541z" />
<glyph unicode="&#xe051;" d="M1867 1201l213 214q127 128 119.5 310.5t-146.5 321.5l-164 164q-134 134 -314 139t-308 -122l-525 -525q-84 -84 -111.5 -195.5t5.5 -224.5t121 -202l282 -283l213 213l-281 280l-2 3q-43 43 -49.5 96t34.5 101l525 525q29 29 67 34t71 -9.5t60 -41.5l164 -164 q46 -45 56 -104t-29 -104l-157 -157q112 -118 156 -269zM1324 1646l270 -270q91 -91 126.5 -207t9.5 -229t-110 -197l-524 -525q-126 -125 -312 -117.5t-322 143.5l-164 164q-134 134 -138.5 315t123.5 309l209 209q46 -153 159 -266l-156 -156q-42 -48 -35 -101.5t50 -97.5 l164 -164q46 -45 105 -55t105 29l524 525q39 45 29 104t-55 104l-272 272l212 212z" />
<glyph unicode="&#xe052;" d="M1235 2042q201 0 391.5 -49t334.5 -127.5t271.5 -174t215 -190.5t151 -173.5t93.5 -127.5l30 -49q-15 -16 -42 -42.5t-116 -104.5t-182.5 -148.5t-233.5 -156.5t-277.5 -148t-307 -104.5t-328.5 -42.5q-125 0 -256 25.5t-247 69t-229.5 99.5t-209.5 118t-182 123.5 t-151.5 117.5t-113.5 99.5t-73 69.5l-25 25q6 11 18.5 31t56 81t92.5 120t129 139t165.5 149t202 139.5t238.5 120t274.5 80.5t310.5 31zM1461 1625q80 -55 127 -142t47 -188q0 -166 -117 -283.5t-283 -117.5t-283.5 117.5t-117.5 283.5q0 101 47 187.5t127 142.5 q-153 -25 -318 -84q-54 -119 -54 -246q0 -163 80 -300.5t218 -217.5t301 -80q162 0 300 80t218 217.5t80 300.5q0 129 -56 252q-159 54 -316 78zM2023 1446q15 -82 15 -151q0 -164 -63 -311.5t-175 -259.5q211 85 392 205t293 222q-72 65 -193.5 145t-268.5 150zM444 1434 q-247 -129 -416 -283q298 -271 632 -416q-108 110 -168 254.5t-60 305.5q0 62 12 139zM1074 1041l74 73q-45 22 -74 63t-36 91l-81 -81q37 -95 117 -146z" />
<glyph unicode="&#xe053;" d="M1115 0h-251l166 432q-142 22 -290.5 74t-271.5 118.5t-238.5 142t-202.5 146t-153.5 128.5t-100.5 93l-34 35q6 11 18.5 31t56 80.5t92.5 119.5t129 139t166 148.5t202 138.5t238.5 119.5t274.5 80.5t310 31q194 0 417 -61l162 404h249zM1814 1420l173 443 q98 -53 191 -120.5t163.5 -132t132.5 -130t104.5 -120t74 -97.5t45.5 -67l15 -25q-12 -13 -35 -35.5t-97.5 -89t-153.5 -128.5t-199 -141.5t-239 -142t-267.5 -116t-290.5 -76.5l155 395q110 84 174 209t64 268q0 49 -10 106zM1140 723l76 192q-163 4 -277 120t-114 279 q0 101 47 188t127 142q-151 -23 -318 -83q-53 -117 -53 -247q0 -224 147 -391.5t365 -199.5zM2014 1466q15 -73 15 -152q0 -164 -63 -311.5t-175 -258.5q212 85 393.5 205t291.5 222q-72 65 -193.5 145t-268.5 150zM436 1454q-248 -129 -417 -283q113 -104 275.5 -218 t356.5 -199q-108 111 -168 255.5t-60 304.5q0 67 13 140zM1066 1061l73 73q-45 22 -74 62.5t-36 91.5l-81 -81q36 -95 118 -146z" />
<glyph unicode="&#xe054;" d="M-78 2111l420 359q48 40 114.5 32.5t107.5 -56.5l146 -171q-206 -81 -374.5 -223.5t-282.5 -329.5l-150 175q-40 48 -34.5 111t53.5 103zM1698 2271l145 174q40 48 106 56t115 -31l422 -355q49 -40 55 -103t-34 -111l-156 -187q-113 188 -281 332t-372 225zM1200 2200 q224 0 427.5 -87.5t351 -235t234.5 -351t87 -426.5q0 -149 -39.5 -292t-110.5 -263.5t-172.5 -222t-222 -172.5t-263.5 -110.5t-292 -39.5q-223 0 -426.5 87t-351 234.5t-235 351t-87.5 427.5q0 223 87.5 427t234.5 351t351 234.5t427 87.5zM1200 1900q-162 0 -310.5 -63.5 t-255.5 -170.5t-170.5 -255.5t-63.5 -310.5t63.5 -310.5t170.5 -255.5t255.5 -170.5t310.5 -63.5t310.5 63.5t255.5 170.5t170.5 255.5t63.5 310.5t-63.5 310.5t-170.5 255.5t-255.5 170.5t-310.5 63.5zM1150 1700h98q21 0 36.5 -15.5t15.5 -36.5v-375q42 -28 71.5 -74.5 t29.5 -98.5q0 -83 -59 -141.5t-142 -58.5q-55 0 -100.5 27t-71.5 73h-178q-21 0 -35.5 14.5t-14.5 35.5v95q0 21 14.5 38t35.5 17h175q6 18 16.5 31t14.5 17t23 15t21 12v373q0 21 15 36.5t35 15.5z" />
<glyph unicode="&#xe055;" d="M1200 2400q244 0 466 -95t383 -256t256 -383t95 -466t-95 -466t-256 -383t-383 -256t-466 -95t-466 95t-383 256t-256 383t-95 466t95 466t256 383t383 256t466 95zM1200 2100q-183 0 -349.5 -71.5t-287 -192t-192 -287t-71.5 -349.5t71.5 -349.5t192 -287t287 -192 t349.5 -71.5t349.5 71.5t287 192t192 287t71.5 349.5t-71.5 349.5t-192 287t-287 192t-349.5 71.5zM1257 1391l324 324q14 14 35 14t35 -14l69 -70q15 -14 15 -35t-15 -36l-326 -327q6 -30 6 -48q0 -83 -58.5 -141.5t-141.5 -58.5q-52 0 -98.5 29.5t-75.5 71.5h-276 q-21 0 -35.5 15.5t-14.5 36.5v96q0 21 14.5 36.5t35.5 15.5h276q29 42 75.5 71.5t98.5 29.5q19 0 57 -10z" />
<glyph unicode="&#xe056;" d="M1050 2700h300q21 0 35.5 -16t14.5 -37v-247q-73 9 -200 9q-126 0 -200 -9v247q0 21 14.5 37t35.5 16zM2002 2098l148 148q15 15 36 15t35 -15l142 -141q14 -15 14 -35.5t-14 -35.5l-149 -148q-47 61 -99 113t-113 99zM1200 2214q224 0 427.5 -87.5t351 -235t234.5 -351 t87 -426.5q0 -149 -39.5 -292t-110.5 -263.5t-172.5 -222t-222 -172.5t-263.5 -110.5t-292 -39.5q-223 0 -426.5 87t-351 234.5t-235 351t-87.5 427.5q0 223 87.5 427t234.5 351t351 234.5t427 87.5zM1200 1914q-162 0 -310.5 -63.5t-255.5 -170.5t-170.5 -255.5 t-63.5 -310.5q0 -163 63.5 -311t170.5 -255t255.5 -170.5t310.5 -63.5t310.5 63.5t255.5 170.5t170.5 255t63.5 311q0 162 -63.5 310.5t-170.5 255.5t-255.5 170.5t-310.5 63.5zM1150 1700h100q21 0 35.5 -14.5t14.5 -35.5v-364q46 -27 73 -72.5t27 -99.5q0 -55 -27 -100.5 t-73 -72.5v-89q0 -21 -14.5 -36.5t-35.5 -15.5h-100q-21 0 -35.5 15.5t-14.5 36.5v89q-46 27 -73 72.5t-27 100.5q0 54 27 99.5t73 72.5v364q0 21 14.5 35.5t35.5 14.5z" />
<glyph unicode="&#xe058;" d="M1858 204l-5 -4q-146 -95 -321 -145.5t-332 -50.5q-257 0 -482 95t-382 256.5t-247 382t-90 465.5q0 244 95 466t256 383t383 256t466 95t466 -95.5t383 -256.5t256 -383t95 -466q0 -25 -1.5 -48.5t-3.5 -39.5t-7 -51.5t-8 -62.5h-304l10 62.5t8 52.5t4 38.5t2 48.5 q0 183 -71.5 350t-192 288t-287 192.5t-349.5 71.5t-349.5 -71.5t-287 -192t-192 -287t-71.5 -349.5t71 -349.5t191.5 -287t287.5 -192t351 -71.5q146 1 256.5 35t226.5 108l-152 212q-12 17 -6 29t27 11h684q20 0 30.5 -14t4.5 -34l-221 -644q-6 -20 -19 -22.5t-25 14.5z M1257 1391l323 324q15 14 36 14t35 -14l69 -70q15 -14 15 -35t-15 -36l-326 -327q6 -30 6 -48q0 -83 -58.5 -141.5t-141.5 -58.5q-52 0 -98.5 29.5t-75.5 71.5h-276q-21 0 -35.5 15.5t-14.5 36.5v96q0 21 14.5 36.5t35.5 15.5h276q29 42 75.5 71.5t98.5 29.5q19 0 57 -10z " />
<glyph unicode="&#xe061;" d="M1200 2400q244 0 466 -95t383 -256t256 -383t95 -466t-95 -466t-256 -383t-383 -256t-466 -95t-466 95t-383 256t-256 383t-95 466t95 466t256 383t383 256t466 95zM1200 2100q-183 0 -349.5 -71.5t-287 -192t-192 -287t-71.5 -349.5t71.5 -349.5t192 -287t287 -192 t349.5 -71.5t349.5 71.5t287 192t192 287t71.5 349.5t-71.5 349.5t-192 287t-287 192t-349.5 71.5zM1033 1433l687 312q19 8 26 1t-1 -26l-312 -687q-9 -19 -28 -38t-38 -28l-687 -312q-19 -8 -26 -1t1 26l312 687q9 19 28 38t38 28zM1283 1283q-35 35 -83 35t-83 -35 t-35 -83t35 -83t83 -35t83 35t35 83t-35 83z" />
<glyph unicode="&#xe064;" d="M1100 2400h200q41 0 70.5 -29.5t29.5 -70.5v-800q0 -41 -29.5 -70.5t-70.5 -29.5h-200q-41 0 -70.5 29.5t-29.5 70.5v800q0 41 29.5 70.5t70.5 29.5zM1729 2006q238 -139 379.5 -380t141.5 -526q0 -213 -83.5 -407.5t-224 -335t-335 -224t-407.5 -83.5t-407.5 83.5 t-335 224t-224 335t-83.5 407.5q0 282 139 521.5t374 379.5q57 40 97 33.5t40 -67.5v-176q0 -29 -8.5 -49t-16.5 -27.5t-23.5 -16.5t-18.5 -12q-132 -106 -207.5 -259t-75.5 -327q0 -153 59.5 -291.5t160 -239t239 -160t291.5 -59.5t291.5 59.5t239 160t160 239t59.5 291.5 q0 174 -75 326t-205 257q-3 2 -15.5 10.5t-19.5 15t-16.5 18t-14 27.5t-4.5 36v183q0 39 20.5 52.5t48.5 6.5t60 -26z" />
<glyph unicode="&#xe065;" d="M1191 2517h9q197 0 365.5 -69t286.5 -190t185 -291t67 -367q0 -81 -16 -158t-36 -131t-59.5 -120t-64 -99t-71.5 -95q-46 -60 -66.5 -88.5t-54.5 -83.5t-49 -97t-27.5 -102.5t-12.5 -125.5q0 -100 -47 -167v-133q0 -12 -25 -37t-50 -44l-25 -19v-50q0 -21 -15 -35.5 t-36 -14.5h-500q-21 0 -35 14.5t-14 35.5v50q-11 8 -27.5 21t-44.5 40t-28 39v116q-63 68 -63 184q0 65 -12.5 125t-27.5 102.5t-48.5 97t-54.5 84t-66 88.5q-46 60 -71 94.5t-63.5 99.5t-58.5 119.5t-36 131.5t-16 158q0 263 115.5 472t323 327t469.5 118zM937 500h513 q0 84 16 163t36.5 135t59.5 122t64 101.5t72 96.5q98 130 129 182q83 141 83 300q0 207 -94 371.5t-255.5 255t-360.5 90.5q-316 0 -516.5 -200.5t-200.5 -516.5q0 -77 14.5 -142.5t48.5 -128.5t60.5 -101.5t80.5 -109.5q40 -52 60.5 -80t55.5 -81.5t54 -97t40 -102 t30.5 -122.5t9.5 -135z" />
<glyph unicode="&#xe066;" d="M50 2400h890q21 0 46 -10.5t40 -24.5l1339 -1339q14 -15 14 -36t-14 -35l-920 -919q-14 -15 -35 -15t-35 15l-1339 1339q-15 14 -25.5 39.5t-10.5 45.5v890q0 21 15 35.5t35 14.5zM641 2041q-59 59 -141.5 59t-140.5 -59q-59 -59 -59 -141t59 -141q58 -59 140.5 -59 t141.5 59t59 141t-59 141z" />
<glyph unicode="&#xe067;" d="M-250 2400h890q20 0 45.5 -10.5t39.5 -24.5l1339 -1339q15 -15 15 -36t-15 -35l-919 -919q-14 -15 -35 -15t-36 15l-1339 1339q-14 14 -24.5 39.5t-10.5 45.5v890q0 21 14.5 35.5t35.5 14.5zM889 2400h301q23 0 59 -5.5t47 -12.5q27 -15 65 -53l1268 -1268q28 -28 29 -68 t-29 -73l-888 -888q-15 -14 -35.5 -10.5t-35.5 18.5l-160 161l720 719q38 40 37.5 71.5t-37.5 69.5zM341 2041q-58 59 -141 59t-141 -59q-59 -59 -59 -141t59 -141q58 -59 141 -59t141 59q59 59 59 141t-59 141z" />
<glyph unicode="&#xe068;" d="M1800 700v1625q0 41 29.5 70.5t70.5 29.5t70.5 -29.5t29.5 -70.5v-1625h275q48 0 86.5 -18.5t38.5 -56.5v-175h-1000v175q0 41 17 58t58 17h325zM100 900v209l8 19q128 351 403 442q89 30 191 30q77 0 147 -17.5t122.5 -46.5t99 -67t79 -80t59 -84t43.5 -80t28 -67 t16 -46l4 -18v-194h-100v-800l-104 -100h-794l-102 100v800h-100zM248 1100h904q-2 8 -7 21t-23 51t-40 73t-60 77t-82 72.5t-106.5 51.5t-131.5 21q-70 0 -132.5 -20t-107 -52.5t-82 -71.5t-61.5 -78.5t-40.5 -72t-23.5 -52.5zM2500 0h-1200l100 400h1000z" />
<glyph unicode="&#xe069;" d="M2600 1800v-1350q0 -21 -14.5 -35.5t-35.5 -14.5h-2600q-21 0 -35.5 14.5t-14.5 35.5v1350h100v-1000h100v1000h100v-600h100v600h100v-600h100v600h100v-600h100v600h100v-600h100v600h100v-1000h100v1000h100v-600h100v600h100v-600h100v600h100v-600h100v600h100v-600 h100v600h100v-1000h100v1000h100v-600h100v600h100v-600h100v600h100z" />
<glyph unicode="&#xe072;" d="M450 2400h1450q98 0 191 -58t151 -151t58 -191v-1500l-200 -200v1600q0 300 -300 300h-1227l-200 -200h1227q124 0 212 -88t88 -212v-1400q0 -124 -88 -212t-212 -88h-1500v2025z" />
<glyph unicode="&#xe074;" d="M-85 1409l-202 202q301 301 698.5 469t838.5 168q443 0 841.5 -169t699.5 -471l-202 -202q-261 263 -607 409.5t-732 146.5q-383 0 -728.5 -146t-606.5 -407zM324 1000l-214 214q224 223 518.5 347.5t621.5 124.5q329 0 624.5 -125.5t519.5 -349.5l-214 -214 q-182 183 -422.5 285t-507.5 102q-266 0 -505.5 -101.5t-420.5 -282.5zM713 611l-194 194q144 143 332.5 223t398.5 80q211 0 401 -81t334 -225l-194 -194q-105 106 -245 165.5t-296 59.5q-154 0 -292.5 -58.5t-244.5 -163.5zM1254 70l-345 346q66 66 154.5 103t186.5 37 q99 0 188.5 -38t156.5 -106z" />
<glyph unicode="&#xe075;" d="M1900 2200h300q41 0 70.5 -29.5t29.5 -70.5q0 -196 -6 -326t-13.5 -211t-29.5 -140.5t-39.5 -89t-57.5 -81.5q-83 -109 -159.5 -173.5t-178.5 -106.5q-112 -45 -235.5 -68.5t-209.5 2.5q-52 -97 -71 -191v-115q0 -107 78 -200h122v-100h100v-300h-800v300h100v100h122 q78 91 78 200v95q-22 95 -92 206q-159 -8 -307 33t-274 134t-207 229q-35 59 -58.5 136.5t-35.5 145t-18 173t-7 167.5t-1 181q0 41 29.5 70.5t70.5 29.5h300v200h1400v-200zM500 2000h-203q-5 -104 -1.5 -204t16 -186t57.5 -174t122 -167q55 -44 89.5 -67.5t108 -51 t169.5 -41.5q-76 98 -117.5 154.5t-96 147.5t-85.5 174q-41 108 -50 178t-9 201v36zM2101 2000h-201q0 -22 0.5 -74t0 -69.5t-2.5 -57t-7 -60t-13.5 -55t-22.5 -66t-33 -69.5q-26 -51 -54.5 -98t-66 -97.5t-59 -79t-70.5 -89t-65 -80.5q136 11 232.5 49.5t171.5 114.5 q91 90 141.5 210.5t50.5 320.5q0 24 -1 98t-1 102z" />
<glyph unicode="&#xe077;" d="M0 550v600q0 233 99 454t262.5 384.5t384.5 262.5t454 99t454 -99t384.5 -262.5t262.5 -384.5t99 -454v-600q0 -21 -14.5 -35.5t-35.5 -14.5h-100q-21 0 -35.5 14.5t-14.5 35.5v600q0 191 -83 360.5t-220.5 286.5t-319.5 185t-377 68t-377 -68t-319.5 -185t-220.5 -286.5 t-83 -360.5v-600q0 -21 -14.5 -35.5t-35.5 -14.5h-100q-21 0 -35.5 14.5t-14.5 35.5zM334 900h253q21 0 35.5 -15t14.5 -36q6 -17 14 -48.5t22 -135.5t14 -215t-12.5 -211t-24.5 -145l-13 -44q0 -21 -14.5 -35.5t-35.5 -14.5h-253q-34 0 -34 50v798q0 52 34 52zM1813 900 h253q34 0 34 -52v-798q0 -50 -34 -50h-253q-21 0 -35.5 15t-14.5 35q-6 17 -14 48.5t-22 136t-14 215.5t12.5 211t24.5 144l13 44q0 21 14.5 36t35.5 15z" />
<glyph unicode="&#xe078;" d="M0 550v600q0 233 99 454t262.5 384.5t384.5 262.5t454 99t454 -99t384 -262.5t262 -384.5t98 -454v-870q-2 -13 -9 -34t-33.5 -71.5t-65 -98.5t-111 -107.5t-163.5 -107t-230.5 -87.5t-304.5 -58q-24 -52 -73 -84t-108 -32h-100q-83 0 -141.5 58.5t-58.5 141.5 q0 82 59 141t141 59h100q104 0 164 -86q123 14 228.5 41t177 58.5t130.5 71t92.5 72.5t59 68.5t34.5 54t14 33.5v837q0 191 -83 360.5t-220.5 286.5t-319.5 185t-377 68t-377 -68t-319.5 -185t-220.5 -286.5t-83 -360.5v-600q0 -21 -14.5 -35.5t-35.5 -14.5h-100 q-21 0 -35.5 14.5t-14.5 35.5zM334 900h253q21 0 35.5 -15t14.5 -36q6 -17 14 -48.5t22 -135.5t14 -215t-12.5 -211t-24.5 -145l-13 -44q0 -21 -14.5 -35.5t-35.5 -14.5h-253q-34 0 -34 50v798q0 52 34 52zM1813 900h253q34 0 34 -52v-457q-143 -173 -360 -233 q-27 209 -27 292q0 111 12.5 211t24.5 144l13 44q0 21 14.5 36t35.5 15z" />
<glyph unicode="&#xe079;" d="M-118 225l1238 2095q20 35 54.5 55t75.5 20t75.5 -20t54.5 -55l1238 -2095q20 -36 20 -75.5t-20 -74.5t-55 -55t-75 -20h-2476q-40 0 -75 20t-55 55t-20 74.5t20 75.5zM271 300h1958l-979 1680zM1150 1500h200q21 0 35.5 -15t14.5 -35v-188q0 -39 -7 -74l-68 -345 q-3 -16 -16.5 -29.5t-28.5 -13.5h-59q-14 0 -27.5 13.5t-16.5 29.5l-70 342q-7 35 -7 77v188q0 20 14.5 35t35.5 15zM1138 700h225q15 0 26 -11t11 -27v-225q0 -15 -11 -26t-26 -11h-225q-16 0 -27 11t-11 26v225q0 16 11 27t27 11z" />
<glyph unicode="&#xe080;" d="M2050 2400h300q21 0 35.5 -14.5t14.5 -35.5v-2350h-400v2350q0 21 14.5 35.5t35.5 14.5zM1550 1800h300q21 0 35.5 -14.5t14.5 -35.5v-1750h-400v1750q0 21 14.5 35.5t35.5 14.5zM1050 1300h300q21 0 35.5 -14.5t14.5 -35.5v-1250h-400v1250q0 21 14.5 35.5t35.5 14.5z M550 1000h300q21 0 35.5 -14.5t14.5 -35.5v-950h-400v950q0 21 14.5 35.5t35.5 14.5zM50 700h300q21 0 35.5 -14.5t14.5 -35.5v-650h-400v650q0 21 14.5 35.5t35.5 14.5z" />
<glyph unicode="&#xe081;" d="M606 1900h1644q21 0 35.5 -14.5t14.5 -35.5v-850h251q21 0 27 -11t-7 -28l-390 -519q-12 -17 -29.5 -17t-30.5 16l-390 520q-12 17 -6 28t26 11h249v600h-1163zM-169 1352l390 526q13 17 30.5 19t29.5 -14l390 -532q13 -17 7 -34t-27 -17h-251v-600h1172l231 -300h-1653 q-21 0 -35.5 14.5t-14.5 35.5v850h-249q-20 0 -26 18t6 34z" />
<glyph unicode="&#xe082;" d="M327 908l20 3q-70 197 -39 416.5t161 399.5q138 191 347 288.5t439 82.5t428 -142l-145 -200q-12 -16 -6 -28t27 -12l650 12q20 0 30.5 14t4.5 34l-193 621q-6 20 -19 22t-25 -15l-148 -204l-6 4q-198 129 -428 173t-446.5 4t-415.5 -163t-337 -315 q-107 -148 -164.5 -319t-61.5 -340.5t37 -340.5zM2051 1484l309 6q65 -245 17 -509.5t-207 -483.5q-138 -192 -337 -315t-415.5 -163t-446.5 4t-428 173l-6 4l-148 -204q-12 -17 -25 -15t-20 22l-192 621q-6 20 4.5 34t30.5 14l650 12q20 0 26.5 -12t-5.5 -28l-145 -200 q198 -127 428 -142t439 82.5t347 288.5q130 179 161 397t-37 414z" />
<glyph unicode="&#xe083;" d="M2043 2052l-271 -159q-167 138 -377.5 185t-432.5 -10q-138 -38 -260 -120l173 -142q15 -13 21 -25t-0.5 -22.5t-24.5 -15.5q-38 -10 -285 -71.5t-292 -71.5q-51 -13 -66 -4.5t-14 54.5q17 547 23 609q7 71 63 23l164 -136q192 149 418 211q326 84 631 1t530 -306z M1498 38v314q154 53 278 156.5t206 246.5q134 235 114 507q-179 -78 -215 -92q-27 -11 -37 0t-3 42q18 74 52.5 222t63 269.5t29.5 124.5q10 40 48 18q30 -16 561 -316q21 -12 21.5 -29.5t-16.5 -23.5l-215 -92q32 -204 -5.5 -404t-136.5 -375q-116 -204 -303 -351.5 t-423 -211.5q-3 -1 -9.5 -2.5t-9.5 -2.5zM43 1513l271 -155q-36 -201 18 -396q52 -190 175.5 -337t294.5 -231q21 151 31 207q12 62 61 16q24 -23 212 -211t216 -217q27 -29 25.5 -42.5t-28.5 -29.5q-28 -17 -272 -151t-275 -149q-33 -18 -46 -13t-9 38l37 245 q-257 103 -446 310.5t-265 484.5q-87 316 0 631z" />
<glyph unicode="&#xe084;" d="M2000 1900v250q0 20 13 26t29 -6l522 -390q16 -13 16 -30.5t-16 -29.5l-522 -390q-16 -13 -29 -7t-13 27v250h-237l-1200 -1100h-708q-21 0 -38 14.5t-17 35.5v200q0 20 17 35t38 15h592l1200 1100h353zM994 1505l-222 -203l-326 298h-591q-21 0 -38 14.5t-17 35.5v200 q0 20 17 35t38 15h708zM1763 800h237v250q0 20 13 26t29 -6l523 -390q17 -13 17 -30.5t-17 -29.5l-523 -390q-16 -13 -29 -7t-13 27v250h-354l-430 395l222 203z" />
<glyph unicode="&#xe085;" d="M-52 1940l380 517q12 17 29.5 17t30.5 -16l399 -518q12 -16 6.5 -28t-26.5 -12h-262q0 -96 -9.5 -176t-30 -149.5t-35.5 -108t-43 -102.5q-25 -56 -36.5 -86t-27 -83t-22 -112t-6.5 -133q0 -97 14.5 -177.5t30 -122t47.5 -114.5q28 -64 43 -102.5t35.5 -108t30 -149.5 t9.5 -176h-300q0 74 -6.5 133t-22 112t-27 83t-36.5 86q-28 64 -43 102.5t-35.5 108t-30 149.5t-9.5 176t9.5 176t30 149.5t35.5 108t43 102.5q32 73 47.5 114.5t30 122t14.5 177.5h-236q-21 0 -27 12t6 28zM948 1940l380 517q12 17 29.5 17t30.5 -16l399 -518 q12 -16 6.5 -28t-26.5 -12h-262q0 -96 -9.5 -176t-30 -149.5t-35.5 -108t-43 -102.5q-25 -56 -36.5 -86t-27 -83t-22 -112t-6.5 -133q0 -97 14.5 -177.5t30 -122t47.5 -114.5q28 -64 43 -102.5t35.5 -108t30 -149.5t9.5 -176h-300q0 74 -6.5 133t-22 112t-27 83t-36.5 86 q-28 64 -43 102.5t-35.5 108t-30 149.5t-9.5 176t9.5 176t30 149.5t35.5 108t43 102.5q32 73 47.5 114.5t30 122t14.5 177.5h-236q-21 0 -27 12t6 28zM1948 1940l380 517q12 17 29.5 17t30.5 -16l399 -518q13 -16 7 -28t-27 -12h-262q0 -96 -9.5 -176t-30 -149.5t-35.5 -108 t-43 -102.5q-25 -56 -36.5 -86t-27 -83t-22 -112t-6.5 -133t6.5 -133t22 -112t27 -83t36.5 -86q28 -64 43 -102.5t35.5 -108t30 -149.5t9.5 -176h-300q0 74 -6.5 133t-22 112t-27 83t-36.5 86q-28 64 -43 102.5t-35.5 108t-30 149.5t-9.5 176t9.5 176t30 149.5t35.5 108 t43 102.5q25 56 36.5 86t27 83t22 112t6.5 133h-236q-21 0 -27 12t6 28z" />
<glyph unicode="&#xe086;" d="M1873 2200l148 204q12 17 25 15t19 -22l193 -621q6 -20 -4.5 -34t-30.5 -14l-650 -12q-20 0 -26.5 12t5.5 28l145 200q-198 127 -428 142t-439 -82.5t-347 -288.5q-169 -234 -169 -527q0 -175 68 -342.5t195 -294.5q126 -126 290 -193.5t337 -69.5q189 -2 365.5 70 t318.5 235q42 48 113 153q18 26 54.5 27.5t70.5 -21.5l83 -56q34 -22 46 -57.5t-5 -60.5q-18 -27 -68 -93.5t-69 -89.5q-112 -135 -273.5 -230t-322.5 -137t-313 -41q-232 2 -450 91t-389 259q-99 99 -170.5 214t-109 228t-54.5 213t-17 196q0 183 57 365.5t169 337.5 q138 192 337 315t415.5 163t446.5 -4t428 -173z" />
<glyph unicode="&#xe087;" d="M-100 2400h2600q41 0 70.5 -29.5t29.5 -70.5v-1700q0 -41 -29.5 -70.5t-70.5 -29.5h-1100v-100q0 -56 20.5 -97t50 -60t59 -30t50.5 -12l20 -1h365q14 0 24.5 -10.5t10.5 -24.5v-165h-1600v165q0 14 10.5 24.5t25.5 10.5h369q8 0 21 1t46.5 12t59.5 30t47 60t21 97v100 h-1100q-41 0 -70.5 29.5t-29.5 70.5v1700q0 41 29.5 70.5t70.5 29.5zM0 2200v-1400h2400v1400h-2400zM2300 700v-100h100v100h-100z" />
<glyph unicode="&#xe091;" d="M1418 1910l319 319q155 157 283 157q97 0 183 -86l71 -71q50 -51 71 -104.5t16.5 -99.5t-30 -96t-55.5 -87t-73 -80l-319 -319l-15 -12l155 -156q24 -24 24.5 -57.5t-22.5 -56.5l-142 -142q-23 -23 -55 -23q-33 0 -60 25l-111 111l-898 -898q-44 -44 -107.5 -69 t-125.5 -25q-33 0 -55 5q-20 0 -34 -12l-36 -36q-71 -71 -171 -71q-97 0 -164 67q-68 68 -66.5 166.5t71.5 168.5l35 35q13 15 13 33q-16 71 9 153.5t80 136.5l898 898l-112 111q-24 24 -24.5 58t22.5 57l142 141q22 23 56 23q33 0 59 -24l155 -156q6 9 13 16zM321 700h707 l531 531l-353 354z" />
<glyph unicode="&#xe092;" d="M1200 2425q166 0 325 -44t293.5 -123t247.5 -192.5t192 -247.5t123 -293t44 -325t-44 -325t-123 -293.5t-192 -247.5t-247.5 -192t-293.5 -123t-325 -44t-325 44t-293 123t-247.5 192t-192.5 247.5t-123 293.5t-44 325t44 325t123 293t192.5 247.5t247.5 192.5t293 123 t325 44zM1100 226v1948q-185 -20 -346.5 -105t-277 -213.5t-181.5 -299t-66 -356.5t66 -356.5t181.5 -299t277 -213.5t346.5 -105z" />
<glyph unicode="&#xe093;" d="M1950 2500q22 -72 61 -145.5t80.5 -129.5t85.5 -120t78.5 -119.5t56.5 -124.5t22 -139q0 -104 -59.5 -186.5t-146.5 -124t-178 -41.5q-67 0 -134.5 24.5t-123.5 68t-91 111t-35 145.5q0 83 30 163.5t78 151.5t98.5 140t101 155.5t76.5 170.5zM857 2353 q37 -125 101 -250.5t133.5 -228.5t146 -208t144.5 -206t123 -204t87.5 -221t32.5 -239q0 -126 -45.5 -239.5t-122.5 -196.5t-175.5 -144t-208 -91.5t-216.5 -30.5t-216 30t-208 90.5t-176 142.5t-122.5 195t-45.5 239q0 121 32 239t86.5 221.5t122 205t144 207t146 209 t134 229.5t103.5 251zM1815 1973q7 24 -14 30q-25 7 -45 -23l-4 -7q-33 -55 -58 -125.5t-25 -128.5q1 -65 51.5 -116t129.5 -55q25 1 32.5 10.5t-2 21t-30.5 21.5q-30 13 -49.5 50t-19.5 79q0 141 34 243zM586 1299q13 41 -19 56q-34 17 -73 -14q-20 -17 -34 -42 q-67 -113 -116.5 -253.5t-48.5 -254.5q1 -83 45 -159t128 -127t189 -56q50 2 65 20.5t-4 42.5t-61 42q-62 28 -100 100.5t-38 157.5q0 122 17.5 257t49.5 230z" />
<glyph unicode="&#xe094;" d="M2471 2329l-371 -370v-1259h400v-400h-2200v2100h400v-300h1259l370 371zM200 1700h-300v400h300v-400zM700 1700v-859l859 859h-859zM841 700h859v859zM2100 -100h-400v300h400v-300z" />
<glyph unicode="&#xe095;" d="M2400 2000h-100v-1600h100v-400h-400v100h-1600v-100h-400v400h100v1600h-100v400h400v-100h1600v100h400v-400zM100 2300v-200h200v200h-200zM2100 2300v-200h200v200h-200zM400 2100v-100h-100v-1600h100v-100h1600v100h100v1600h-100v100h-1600zM100 300v-200h200v200 h-200zM2100 300v-200h200v200h-200z" />
<glyph unicode="&#xe096;" d="M1400 2400v-119q334 -62 576.5 -304.5t304.5 -576.5h119v-400h-119q-31 -165 -110.5 -313.5t-194 -263t-263 -194t-313.5 -110.5v-119h-400v119q-334 62 -576.5 304.5t-304.5 576.5h-119v400h119q31 165 110.5 313.5t194 263t263 194t313.5 110.5v119h400zM1100 2300 v-200h200v200h-200zM2000 1400h77q-58 252 -241.5 435.5t-435.5 241.5v-77h-400v77q-252 -58 -435.5 -241.5t-241.5 -435.5h77v-400h-77q58 -252 241.5 -435.5t435.5 -241.5v77h400v-77q252 58 435.5 241.5t241.5 435.5h-77v400zM100 1300v-200h200v200h-200zM2100 1300 v-200h200v200h-200zM1100 300v-200h200v200h-200z" />
<glyph unicode="&#xe097;" d="M1400 2274l798 -574h302v-400h-150l-294 -900h44v-400h-400v100h-1000v-100h-400v400h44l-295 900h-149v400h305l795 574v226h400v-226zM1100 2400v-200h200v200h-200zM1100 2100l-800 -578v-222h-41l295 -900h146v-100h1000v100h146l294 900h-40v224l-800 576h-200z M0 1600v-200h200v200h-200zM2200 1600v-200h200v200h-200zM400 300v-200h200v200h-200zM1800 300v-200h200v200h-200z" />
<glyph unicode="&#xe098;" d="M2400 2000h-259l-1741 -1741v-259h-400v400h259l1741 1741v259h400v-400zM2100 2300v-200h200v200h-200zM100 300v-200h200v200h-200z" />
<glyph unicode="&#xe099;" d="M2400 2000h-400v61q-312 -60 -591 -210t-494.5 -365.5t-365.5 -494.5t-210 -591h61v-400h-400v400h136q82 471 342.5 866t655.5 655.5t866 342.5v136h400v-400zM2100 2300v-200h200v200h-200zM100 300v-200h200v200h-200z" />
<glyph unicode="&#xe100;" d="M2400 2000h-100v-600h100v-400h-100v-600h100v-400h-400v100h-600v-100h-400v100h-600v-100h-400v400h100v600h-100v400h100v600h-100v400h400v-100h600v100h400v-100h600v100h400v-400zM100 2300v-200h200v200h-200zM1100 2300v-200h200v200h-200zM2100 2300v-200h200 v200h-200zM1400 2100v-100h-400v100h-600v-100h-100v-600h100v-400h-100v-600h100v-100h600v100h400v-100h600v100h100v600h-100v400h100v600h-100v100h-600zM100 1300v-200h200v200h-200zM2100 1300v-200h200v200h-200zM100 300v-200h200v200h-200zM1100 300v-200h200v200 h-200zM2100 300v-200h200v200h-200z" />
<glyph unicode="&#xe101;" d="M1205 2400l738 -1914q39 -97 115 -177q34 -36 69.5 -56.5t54.5 -22.5l18 -3v-127h-800v127q52 0 90.5 25t55 62.5t20.5 82t-13 83.5l-158 426h-750q-110 -279 -176 -450q-21 -64 -11.5 -108t49 -71t88 -38.5t105.5 -11.5v-127h-700v127q108 46 161 99q24 24 48.5 60 t37.5 60l13 24l766 1930h179zM2614 1504l86 -46v-58h-400v58l110 50l-76 200h-353l-91 -201l110 -47v-60h-300v60l93 46l376 894h81zM2018 1800h297l-101 280l-40 121zM695 1100h653l-222 607l-88 269z" />
<glyph unicode="&#xe102;" d="M1803 2400l2 -114q-65 -15 -103 -25t-72.5 -25t-51 -29t-32 -40t-22.5 -53.5t-15 -74.5l-284 -1682q-16 -92 39 -160t136 -83v-114h-900v114q146 13 229.5 77.5t101.5 165.5l319 1682q2 12 6 33q25 105 2 141.5t-158 72.5v114h803z" />
<glyph unicode="&#xe103;" d="M200 2400h1096q114 0 229 -45t210 -124.5t155 -201.5t60 -263q0 -80 -24.5 -151.5t-64 -122t-87 -93t-95 -69.5t-87 -45.5t-64.5 -26.5l-24 -8q12 -3 32.5 -9t80 -30t114 -54.5t120.5 -84t113.5 -115.5t80 -152.5t32.5 -192.5q0 -124 -52 -228.5t-135 -173.5t-188 -118 t-209 -70.5t-201 -21.5h-1092v178q82 13 141 64.5t59 130.5v1655q0 36 -0.5 52t-3 40.5t-7 34.5t-14.5 26t-23.5 23t-36 18t-49.5 18.5t-66 16.5v143zM900 1400h296q58 0 103.5 20t74.5 53t48 79t26.5 94.5t7.5 103.5q0 70 -13 129t-41.5 110.5t-81 81t-124.5 29.5h-296 v-700zM900 300h299q168 0 266 96t98 270q0 90 -22 167t-66 137.5t-115.5 95t-163.5 34.5h-296v-800z" />
<glyph unicode="&#xe104;" d="M2200 1900h-100q0 146 -81.5 223t-218.5 77h-400v-1600q0 -24 14 -42t42.5 -28.5t55 -17t67.5 -9t63 -3t58 -0.5v-100h-1000v100q36 0 58 0.5t63 3t67.5 9t55 17t42.5 28.5t14 42v1600h-400q-137 0 -218.5 -77t-81.5 -223h-100v500h2000v-500zM2200 0h-2000v200h2000 v-200z" />
<glyph unicode="&#xe105;" d="M2200 1900h-100q0 146 -81.5 223t-218.5 77h-400v-800h800v-200h-800v-800q0 -24 14 -42t42.5 -28.5t55 -17t67.5 -9t63 -3t58 -0.5v-100h-1000v100q36 0 58 0.5t63 3t67.5 9t55 17t42.5 28.5t14 42v800h-800v200h800v800h-400q-137 0 -218.5 -77t-81.5 -223h-100v500 h2000v-500z" />
<glyph unicode="&#xe106;" d="M400 2100h-200v-1600h200l-250 -333l-250 333h200v1600h-200l250 333zM2500 1900h-100q0 146 -81.5 223t-218.5 77h-400v-1800q0 -24 14 -42t42.5 -28.5t55 -17t67.5 -9t63 -3t58 -0.5v-100h-1000v100q36 0 58 0.5t63 3t67.5 9t55 17t42.5 28.5t14 42v1800h-400 q-137 0 -218.5 -77t-81.5 -223h-100v500h2000v-500z" />
<glyph unicode="&#xe107;" d="M2200 1900h-100q0 146 -81.5 223t-218.5 77h-400v-1500q0 -24 14 -42t42.5 -28.5t55 -17t67.5 -9t63 -3t58 -0.5v-100h-1000v100q36 0 58 0.5t63 3t67.5 9t55 17t42.5 28.5t14 42v1500h-400q-137 0 -218.5 -77t-81.5 -223h-100v500h2000v-500zM2233 250l-333 -250v200 h-1400v-200l-333 250l333 250v-200h1400v200z" />
<glyph unicode="&#xe108;" d="M2500 2200h-100v-2000h100v-300h-300v100h-2000v-100h-300v300h100v2000h-100v300h300v-100h2000v100h300v-300zM0 2400v-100h100v100h-100zM2300 2400v-100h100v100h-100zM200 2300v-100h-100v-2000h100v-100h2000v100h100v2000h-100v100h-2000zM2200 1600h-100 q0 146 -81.5 223t-218.5 77h-400v-1400q0 -24 14 -42t42.5 -28.5t55 -17t67.5 -9t63 -3t58 -0.5v-100h-1000v100q36 0 58 0.5t63 3t67.5 9t55 17t42.5 28.5t14 42v1400h-400q-137 0 -218.5 -77t-81.5 -223h-100v500h2000v-500zM0 100v-100h100v100h-100zM2300 100v-100h100 v100h-100z" />
<glyph unicode="&#xe109;" d="M900 100h-200v2200h200v-2200zM1050 2100h600q21 0 35.5 -14.5t14.5 -35.5v-200q0 -21 -14.5 -35.5t-35.5 -14.5h-600q-21 0 -35.5 14.5t-14.5 35.5v200q0 21 14.5 35.5t35.5 14.5zM1050 1600h1100q21 0 35.5 -14.5t14.5 -35.5v-200q0 -21 -14.5 -35.5t-35.5 -14.5h-1100 q-21 0 -35.5 14.5t-14.5 35.5v200q0 21 14.5 35.5t35.5 14.5zM633 1150l-333 -250v200h-300v100h300v200zM1050 1100h800q21 0 35.5 -14.5t14.5 -35.5v-200q0 -21 -14.5 -35.5t-35.5 -14.5h-800q-21 0 -35.5 14.5t-14.5 35.5v200q0 21 14.5 35.5t35.5 14.5zM1050 600h1300 q21 0 35.5 -15t14.5 -35v-200q0 -21 -14.5 -35.5t-35.5 -14.5h-1300q-21 0 -35.5 14.5t-14.5 35.5v200q0 20 14.5 35t35.5 15z" />
<glyph unicode="&#xe110;" d="M1700 100h-200v2200h200v-2200zM50 2100h600q21 0 35.5 -14.5t14.5 -35.5v-200q0 -21 -14.5 -35.5t-35.5 -14.5h-600q-21 0 -35.5 14.5t-14.5 35.5v200q0 21 14.5 35.5t35.5 14.5zM50 1600h1100q21 0 35.5 -14.5t14.5 -35.5v-200q0 -21 -14.5 -35.5t-35.5 -14.5h-1100 q-21 0 -35.5 14.5t-14.5 35.5v200q0 21 14.5 35.5t35.5 14.5zM2100 1200h300v-100h-300v-200l-333 250l333 250v-200zM50 1100h800q21 0 35.5 -14.5t14.5 -35.5v-200q0 -21 -14.5 -35.5t-35.5 -14.5h-800q-21 0 -35.5 14.5t-14.5 35.5v200q0 21 14.5 35.5t35.5 14.5zM50 600 h1300q21 0 35.5 -14.5t14.5 -35.5v-200q0 -21 -14.5 -35.5t-35.5 -14.5h-1300q-21 0 -35.5 14.5t-14.5 35.5v200q0 21 14.5 35.5t35.5 14.5z" />
<glyph unicode="&#xe111;" d="M50 2200h1299q20 0 35 -14.5t15 -35.5v-200q0 -21 -15 -35.5t-35 -14.5h-1299q-21 0 -35.5 14.5t-14.5 35.5v200q0 21 14.5 35.5t35.5 14.5zM50 1600h2099q20 0 35 -14.5t15 -35.5v-200q0 -21 -15 -35.5t-35 -14.5h-2099q-21 0 -35.5 14.5t-14.5 35.5v200q0 21 14.5 35.5 t35.5 14.5zM50 1000h1699q20 0 35 -15t15 -35v-200q0 -21 -15 -35.5t-35 -14.5h-1699q-21 0 -35.5 14.5t-14.5 35.5v200q0 20 14.5 35t35.5 15zM50 400h2300q21 0 35.5 -15t14.5 -35v-200q0 -21 -14.5 -35.5t-35.5 -14.5h-2300q-21 0 -35.5 14.5t-14.5 35.5v200 q0 20 14.5 35t35.5 15z" />
<glyph unicode="&#xe112;" d="M450 2200h1500q21 0 35.5 -14.5t14.5 -35.5v-200q0 -21 -14.5 -35.5t-35.5 -14.5h-1500q-21 0 -35.5 14.5t-14.5 35.5v200q0 21 14.5 35.5t35.5 14.5zM50 1600h2300q21 0 35.5 -14.5t14.5 -35.5v-200q0 -21 -14.5 -35.5t-35.5 -14.5h-2300q-21 0 -35.5 14.5t-14.5 35.5 v200q0 21 14.5 35.5t35.5 14.5zM450 1000h1500q21 0 35.5 -14.5t14.5 -35.5v-200q0 -21 -14.5 -35.5t-35.5 -14.5h-1500q-21 0 -35.5 14.5t-14.5 35.5v200q0 21 14.5 35.5t35.5 14.5zM50 400h2300q21 0 35.5 -14.5t14.5 -35.5v-200q0 -21 -14.5 -35.5t-35.5 -14.5h-2300 q-21 0 -35.5 14.5t-14.5 35.5v200q0 21 14.5 35.5t35.5 14.5z" />
<glyph unicode="&#xe113;" d="M1051 2200h1299q21 0 35.5 -14.5t14.5 -35.5v-200q0 -21 -14.5 -35.5t-35.5 -14.5h-1299q-20 0 -35 14.5t-15 35.5v200q0 21 15 35.5t35 14.5zM251 1600h2099q21 0 35.5 -14.5t14.5 -35.5v-200q0 -21 -14.5 -35.5t-35.5 -14.5h-2099q-20 0 -35 14.5t-15 35.5v200 q0 21 15 35.5t35 14.5zM651 1000h1699q21 0 35.5 -15t14.5 -35v-200q0 -21 -14.5 -35.5t-35.5 -14.5h-1699q-20 0 -35 14.5t-15 35.5v200q0 20 15 35t35 15zM50 400h2300q21 0 35.5 -15t14.5 -35v-200q0 -21 -14.5 -35.5t-35.5 -14.5h-2300q-21 0 -35.5 14.5t-14.5 35.5v200 q0 20 14.5 35t35.5 15z" />
<glyph unicode="&#xe114;" d="M50 2200h2300q21 0 35.5 -14.5t14.5 -35.5v-200q0 -21 -14.5 -35.5t-35.5 -14.5h-2300q-21 0 -35.5 14.5t-14.5 35.5v200q0 21 14.5 35.5t35.5 14.5zM50 1600h2300q21 0 35.5 -14.5t14.5 -35.5v-200q0 -21 -14.5 -35.5t-35.5 -14.5h-2300q-21 0 -35.5 14.5t-14.5 35.5 v200q0 21 14.5 35.5t35.5 14.5zM50 1000h2300q21 0 35.5 -14.5t14.5 -35.5v-200q0 -21 -14.5 -35.5t-35.5 -14.5h-2300q-21 0 -35.5 14.5t-14.5 35.5v200q0 21 14.5 35.5t35.5 14.5zM50 400h2300q21 0 35.5 -14.5t14.5 -35.5v-200q0 -21 -14.5 -35.5t-35.5 -14.5h-2300 q-21 0 -35.5 14.5t-14.5 35.5v200q0 21 14.5 35.5t35.5 14.5z" />
<glyph unicode="&#xe115;" d="M50 2200h200q21 0 35.5 -14.5t14.5 -35.5v-200q0 -21 -14.5 -35.5t-35.5 -14.5h-200q-21 0 -35.5 14.5t-14.5 35.5v200q0 21 14.5 35.5t35.5 14.5zM550 2200h1800q21 0 35.5 -15t14.5 -35v-200q0 -21 -14.5 -35.5t-35.5 -14.5h-1800q-21 0 -35.5 14.5t-14.5 35.5v200 q0 20 14.5 35t35.5 15zM50 1600h200q21 0 35.5 -14.5t14.5 -35.5v-200q0 -21 -14.5 -35.5t-35.5 -14.5h-200q-21 0 -35.5 14.5t-14.5 35.5v200q0 21 14.5 35.5t35.5 14.5zM550 1600h1800q21 0 35.5 -14.5t14.5 -35.5v-200q0 -21 -14.5 -35.5t-35.5 -14.5h-1800 q-21 0 -35.5 14.5t-14.5 35.5v200q0 21 14.5 35.5t35.5 14.5zM50 1000h200q21 0 35.5 -14.5t14.5 -35.5v-200q0 -21 -14.5 -35.5t-35.5 -14.5h-200q-21 0 -35.5 14.5t-14.5 35.5v200q0 21 14.5 35.5t35.5 14.5zM550 1000h1800q21 0 35.5 -14.5t14.5 -35.5v-200 q0 -21 -14.5 -35.5t-35.5 -14.5h-1800q-21 0 -35.5 14.5t-14.5 35.5v200q0 21 14.5 35.5t35.5 14.5zM50 400h200q21 0 35.5 -14.5t14.5 -35.5v-200q0 -21 -14.5 -35.5t-35.5 -14.5h-200q-21 0 -35.5 14.5t-14.5 35.5v200q0 21 14.5 35.5t35.5 14.5zM550 400h1800 q21 0 35.5 -14.5t14.5 -35.5v-200q0 -21 -14.5 -35.5t-35.5 -14.5h-1800q-21 0 -35.5 14.5t-14.5 35.5v200q0 21 14.5 35.5t35.5 14.5z" />
<glyph unicode="&#xe116;" d="M1500 1500h-100q0 146 -81.5 223t-218.5 77h-100v-1200q0 -24 14 -42t42.5 -28.5t55 -17t67.5 -9t63 -3t58 -0.5v-100h-900v100q36 0 58 0.5t63 3t67.5 9t55 17t42.5 28.5t14 42v1200h-100q-137 0 -218.5 -77t-81.5 -223h-100v500h1300v-500zM2400 1000h-800v200h800 v-200z" />
<glyph unicode="&#xe117;" d="M2000 1800h-100q0 146 -81.5 223t-218.5 77h-400v-1800q0 -24 14 -42t42.5 -28.5t55 -17t67.5 -9t63 -3t58 -0.5v-100h-1000v100q36 0 58 0.5t63 3t67.5 9t55 17t42.5 28.5t14 42v1800h-400q-137 0 -218.5 -77t-81.5 -223h-100v500h2000v-500zM2100 1200h300v-200h-300 v-300h-200v300h-300v200h300v300h200v-300z" />
<glyph unicode="&#xe118;" d="M2700 1187v-150l-1100 -636v266l789 445l-789 421v265zM800 1533l-789 -421l789 -445v-266l-1100 636v150l1100 611v-265z" />
<glyph unicode="&#xe119;" d="M1076 0h-251l941 2400h249zM800 1533l-789 -421l789 -445v-266l-1100 636v150l1100 611v-265zM2700 1187v-150l-1100 -636v172l48 121l741 418l-478 255l83 212z" />
<glyph unicode="&#xe120;" d="M300 2400h1800q124 0 212 -88t88 -212v-1800q0 -124 -88 -212t-212 -88h-1800q-124 0 -212 88t-88 212v1800q0 124 88 212t212 88zM200 2200v-300h2000v300h-2000zM200 1700v-300h600v300h-600zM900 1700v-300h600v300h-600zM1600 1700v-300h600v300h-600zM200 1300v-300 h600v300h-600zM900 1300v-300h600v300h-600zM1600 1300v-300h600v300h-600zM200 900v-300h600v300h-600zM900 900v-300h600v300h-600zM1600 900v-300h600v300h-600zM200 500v-300h600v300h-600zM900 500v-300h600v300h-600zM1600 500v-300h600v300h-600z" />
<glyph unicode="&#xe121;" d="M1700 900l700 700h-200l-150 -150l-650 650l-998 -702l-202 202h-200l1200 1200l1200 -1200v-1400zM0 1600l700 -700l-700 -700v1400zM2400 0h-2400l800 800h800z" />
<glyph unicode="&#xe122;" d="M1200 2800l1200 -1200h-200l-700 -700h-600l-700 700h-200zM0 200v1400l700 -700zM2400 1600v-1400l-700 700zM1600 800l800 -800h-2400l800 800h800z" />
<glyph unicode="&#xe123;" d="M2400 1600h-200l-700 -700h-600l-700 700h-200l1200 1200zM1400 1800v460q0 40 -44 40h-311q-45 0 -45 -40v-460h-283q-10 0 -13.5 -11.5t3.5 -20.5l479 -569q7 -9 16.5 -10.5t16.5 7.5l477 573q7 9 3.5 20t-14.5 11h-285zM700 900l-700 -700v1400zM2400 200l-700 700 l700 700v-1400zM2400 0h-2400l800 800h800z" />
<glyph unicode="&#xe124;" d="M1200 2800l1200 -1200h-200l-700 -700h-600l-700 700h-200zM1694 1732l-479 569q-7 9 -16.5 10.5t-16.5 -7.5l-476 -573q-7 -9 -3.5 -20t13.5 -11h284v-460q0 -40 45 -40h311q44 0 44 40v460h284q11 0 14.5 11.5t-4.5 20.5zM0 200v1400l700 -700zM2400 1600v-1400 l-700 700zM1600 800l800 -800h-2400l800 800h800z" />
<glyph unicode="&#xe131;" d="M442 2300h1516q22 0 41 -12t25 -32l373 -1137l3 -1069q0 -21 -14.5 -35.5t-35.5 -14.5h-2300q-21 0 -35.5 14.5t-14.5 35.5q2 1065 3 1069l373 1132q6 20 25.5 34.5t40.5 14.5zM594 2000l-303 -900h409l200 -500h600l200 500h410l-304 900h-1212z" />
<glyph unicode="&#xe135;" d="M1050 2600h300q21 0 35.5 -15t14.5 -35v-650h285q11 0 14 -11t-4 -20l-476 -573q-6 -8 -14 -8q-11 0 -19 11l-479 569q-7 9 -3.5 20.5t13.5 11.5h283v650q0 21 15 35.5t35 14.5zM1500 2300h458q22 0 41 -12t25 -32l373 -1137l3 -1069q0 -21 -14.5 -35.5t-35.5 -14.5 h-2300q-21 0 -35.5 14.5t-14.5 35.5q2 1065 3 1069l373 1132q6 20 25.5 34.5t40.5 14.5h458v-300h-306l-303 -900h409l200 -500h600l200 500h410l-304 900h-306v300z" />
<glyph unicode="&#xe136;" d="M707 2020l479 564q6 7 19 7q7 0 14 -9l476 -562q15 -20 -10 -20h-285v-674q0 -13 -8 -19t-15.5 -6.5t-26.5 -0.5h-300q-14 0 -19.5 0.5t-14.5 2.5t-12.5 7.5t-3.5 15.5v674h-283q-11 0 -14 5.5t4 14.5zM1675 2300h283q22 0 41 -12t25 -32l373 -1137l1 -19h2v-1050 q0 -21 -14.5 -35.5t-35.5 -14.5h-2300q-21 0 -35.5 14.5t-14.5 35.5v1050h2q0 15 1 19l373 1132q6 20 25.5 34.5t40.5 14.5h280l-222 -300h100l-309 -900h409l200 -500h600l200 500h410l-310 900h100z" />
<glyph unicode="&#xe137;" d="M962 2073l79 316q94 11 154 11q62 0 154 -11l79 -316q116 -30 217 -89l279 167q123 -96 217 -218l-167 -279q58 -99 90 -216l315 -79q11 -80 11 -154q0 -75 -11 -154l-315 -79q-31 -115 -90 -217l168 -278q-96 -123 -218 -218l-279 167q-100 -58 -217 -90l-79 -315 q-86 -12 -154 -12q-67 0 -154 12l-79 315q-117 32 -216 90l-279 -167q-122 94 -218 217l167 279q-60 106 -89 217l-316 79q-11 92 -11 154q0 61 11 154l316 79q28 109 89 216l-167 279q95 123 218 218l279 -167q101 59 216 89zM1195 1623q-173 0 -295.5 -122.5 t-122.5 -295.5t122.5 -295.5t295.5 -122.5t295.5 122.5t122.5 295.5t-122.5 295.5t-295.5 122.5z" />
<glyph unicode="&#xe138;" d="M464 2062l79 316q80 11 154 11t154 -11l79 -316q113 -29 217 -89l278 167q123 -95 218 -218l-167 -278q60 -104 89 -217l316 -79q11 -80 11 -154t-11 -154l-316 -79q-30 -114 -89 -216l167 -279q-95 -123 -218 -218l-278 167q-104 -60 -217 -89l-79 -316 q-80 -11 -154 -11t-154 11l-79 316q-113 29 -217 89l-278 -167q-123 95 -218 218l167 278q-59 102 -90 217l-315 79q-11 80 -11 154t11 154l315 79q31 115 90 217l-167 278q95 123 218 218l278 -167q104 60 217 89zM697 1612q-173 0 -295.5 -122.5t-122.5 -295.5 t122.5 -295.5t295.5 -122.5t295.5 122.5t122.5 295.5t-122.5 295.5t-295.5 122.5zM2188 717l38 152q47 5 74 5q34 0 74 -5l38 -152l6 -1q48 -14 93 -39l5 -3l134 81q60 -47 104 -105l-80 -134l3 -5q23 -42 39 -93l1 -6l152 -38q5 -45 5 -73q0 -34 -5 -74l-152 -38l-1 -6 q-15 -49 -39 -93l-3 -5l80 -134q-48 -61 -104 -105l-134 81l-5 -3q-42 -25 -93 -39l-6 -2l-38 -151q-47 -5 -74 -5q-34 0 -74 5l-38 151l-5 2q-49 13 -94 39l-5 2l-133 -80q-60 46 -105 105l80 134l-3 5q-24 44 -38 93l-2 6l-151 38q-6 40 -6 74q0 37 6 73l151 38l2 6 q13 46 38 93l3 5l-80 134q46 58 105 105l133 -81l5 3q44 25 94 39zM2300 515q-89 0 -152 -63t-63 -151q0 -89 63 -152t152 -63t152 63t63 152t-63 151.5t-152 62.5z" />
<glyph unicode="&#xe139;" d="M88 2200h2225q36 0 61.5 -25.5t25.5 -62.5v-1825q0 -36 -25.5 -61.5t-61.5 -25.5h-2225q-37 0 -62.5 25.5t-25.5 61.5v1825q0 37 25.5 62.5t62.5 25.5zM200 2000v-1500l606 400q36 -14 95.5 -38.5t196 -90t219.5 -117.5q69 -44 66 -1q-3 50 -83 159q-93 127 -178 176 l-23 12q44 44 134.5 144t159.5 178l69 78l11 11t28.5 24t43 30t51.5 24t57 11q43 0 91.5 -25t75.5 -50l27 -25l353 -358v958h-2000zM600 1819q91 0 155 -64.5t64 -154.5q0 -91 -64 -155t-155 -64t-155 64t-64 155q0 90 64 154.5t155 64.5z" />
<glyph unicode="&#xe141;" d="M2042 2800h313q55 0 100 -45t45 -100v-255h81q7 0 13 -6t6 -12v-566q0 -6 -6 -11t-13 -5h-764q-7 0 -12 5t-5 11v566q0 6 5 12t12 6h83v255q0 56 43.5 100.5t98.5 44.5zM2400 2400v255q0 25 -10.5 35t-35.5 10h-311q-25 0 -34 -9.5t-9 -35.5v-255h400zM0 1700v300 q0 54 100.5 100t273 73t376.5 27t376.5 -27t273 -73t100.5 -100v-300q0 -54 -100.5 -100t-273 -73t-376.5 -27t-376.5 27t-273 73t-100.5 100zM750 2114q-134 0 -228.5 -18.5t-94.5 -45.5t94.5 -46t228.5 -19t228.5 19t94.5 46t-94.5 45.5t-228.5 18.5zM0 1200v300 q0 14 12 33q71 -43 182 -72.5t228.5 -41t191 -15.5t136.5 -4t136.5 4t191 15.5t228.5 41t182 72.5q12 -19 12 -33v-300q0 -55 -100.5 -101t-273 -72.5t-376.5 -26.5t-376.5 26.5t-273 72.5t-100.5 101zM0 700v300q0 14 12 33q71 -43 182 -72.5t228.5 -41t191 -15.5t136.5 -4 t136.5 4t191 15.5t228.5 41t182 72.5q12 -19 12 -33v-300q0 -55 -100.5 -101t-273 -72.5t-376.5 -26.5t-376.5 26.5t-273 72.5t-100.5 101zM0 200v300q0 14 12 33q71 -43 182 -72.5t228.5 -41t191 -15.5t136.5 -4t136.5 4t191 15.5t228.5 41t182 72.5q12 -19 12 -33v-300 q0 -55 -100.5 -101t-273 -72.5t-376.5 -26.5t-376.5 26.5t-273 72.5t-100.5 101z" />
<glyph unicode="&#xe142;" d="M2200 2700q136 0 251 -67t182 -182t67 -251t-67 -251t-182 -182t-251 -67q-140 0 -252 57t-180 172t-68 271q0 146 67.5 261t181 177t251.5 62zM2300 2300v150q0 20 -14.5 35t-35.5 15h-100q-20 0 -35 -15t-15 -35v-150h-150q-20 0 -35 -15t-15 -35v-100q0 -21 15 -35.5 t35 -14.5h150v-150q0 -21 15 -35.5t35 -14.5h100q21 0 35.5 14.5t14.5 35.5v150h150q21 0 35.5 14.5t14.5 35.5v100q0 20 -14.5 35t-35.5 15h-150zM0 1700v300q0 54 100.5 100t273 73t376.5 27t376.5 -27t273 -73t100.5 -100v-300q0 -54 -100.5 -100t-273 -73t-376.5 -27 t-376.5 27t-273 73t-100.5 100zM750 2114q-134 0 -228.5 -18.5t-94.5 -45.5t94.5 -46t228.5 -19t228.5 19t94.5 46t-94.5 45.5t-228.5 18.5zM0 1200v300q0 14 12 33q71 -43 182 -72.5t228.5 -41t191 -15.5t136.5 -4t136.5 4t191 15.5t228.5 41t182 72.5q12 -19 12 -33v-300 q0 -55 -100.5 -101t-273 -72.5t-376.5 -26.5t-376.5 26.5t-273 72.5t-100.5 101zM0 700v300q0 14 12 33q71 -43 182 -72.5t228.5 -41t191 -15.5t136.5 -4t136.5 4t191 15.5t228.5 41t182 72.5q12 -19 12 -33v-300q0 -55 -100.5 -101t-273 -72.5t-376.5 -26.5t-376.5 26.5 t-273 72.5t-100.5 101zM0 200v300q0 14 12 33q71 -43 182 -72.5t228.5 -41t191 -15.5t136.5 -4t136.5 4t191 15.5t228.5 41t182 72.5q12 -19 12 -33v-300q0 -55 -100.5 -101t-273 -72.5t-376.5 -26.5t-376.5 26.5t-273 72.5t-100.5 101z" />
<glyph unicode="&#xe143;" d="M2200 2700q101 0 194 -42.5t160 -113.5t106.5 -166.5t39.5 -197.5q0 -135 -67 -245.5t-181.5 -172.5t-251.5 -62q-105 0 -195 32.5t-158.5 93.5t-107.5 157.5t-39 216.5t39 216.5t107.5 157.5t158.5 93.5t195 32.5zM2500 2150v100q0 20 -14.5 35t-35.5 15h-500 q-20 0 -35 -15t-15 -35v-100q0 -21 15 -35.5t35 -14.5h500q21 0 35.5 14.5t14.5 35.5zM0 1700v300q0 54 100.5 100t273 73t376.5 27t376.5 -27t273 -73t100.5 -100v-300q0 -54 -100.5 -100t-273 -73t-376.5 -27t-376.5 27t-273 73t-100.5 100zM750 2114q-134 0 -228.5 -18.5 t-94.5 -45.5t94.5 -46t228.5 -19t228.5 19t94.5 46t-94.5 45.5t-228.5 18.5zM0 1200v300q0 14 12 33q71 -43 182 -72.5t228.5 -41t191 -15.5t136.5 -4t136.5 4t191 15.5t228.5 41t182 72.5q12 -19 12 -33v-300q0 -55 -100.5 -101t-273 -72.5t-376.5 -26.5t-376.5 26.5 t-273 72.5t-100.5 101zM0 700v300q0 14 12 33q71 -43 182 -72.5t228.5 -41t191 -15.5t136.5 -4t136.5 4t191 15.5t228.5 41t182 72.5q12 -19 12 -33v-300q0 -55 -100.5 -101t-273 -72.5t-376.5 -26.5t-376.5 26.5t-273 72.5t-100.5 101zM0 200v300q0 14 12 33 q71 -43 182 -72.5t228.5 -41t191 -15.5t136.5 -4t136.5 4t191 15.5t228.5 41t182 72.5q12 -19 12 -33v-300q0 -55 -100.5 -101t-273 -72.5t-376.5 -26.5t-376.5 26.5t-273 72.5t-100.5 101z" />
<glyph unicode="&#xe144;" d="M2105 2700q134 0 248 -66.5t180.5 -180.5t66.5 -248q0 -135 -66.5 -249t-180.5 -180.5t-248 -66.5t-248.5 66.5t-181 180.5t-66.5 249q0 134 66.5 248t181 180.5t248.5 66.5zM1791 2006l512 512q-89 58 -198 58q-154 0 -263 -109t-109 -262q0 -106 58 -199zM2419 2403 l-512 -512q92 -58 198 -58q154 0 262.5 109t108.5 263q0 106 -57 198zM0 1700v300q0 54 100.5 100t273 73t376.5 27t376.5 -27t273 -73t100.5 -100v-300q0 -54 -100.5 -100t-273 -73t-376.5 -27t-376.5 27t-273 73t-100.5 100zM750 2114q-134 0 -228.5 -18.5t-94.5 -45.5 t94.5 -46t228.5 -19t228.5 19t94.5 46t-94.5 45.5t-228.5 18.5zM0 1200v300q0 14 12 33q71 -43 182 -72.5t228.5 -41t191 -15.5t136.5 -4t136.5 4t191 15.5t228.5 41t182 72.5q12 -19 12 -33v-300q0 -55 -100.5 -101t-273 -72.5t-376.5 -26.5t-376.5 26.5t-273 72.5 t-100.5 101zM0 700v300q0 14 12 33q71 -43 182 -72.5t228.5 -41t191 -15.5t136.5 -4t136.5 4t191 15.5t228.5 41t182 72.5q12 -19 12 -33v-300q0 -55 -100.5 -101t-273 -72.5t-376.5 -26.5t-376.5 26.5t-273 72.5t-100.5 101zM0 200v300q0 14 12 33q71 -43 182 -72.5 t228.5 -41t191 -15.5t136.5 -4t136.5 4t191 15.5t228.5 41t182 72.5q12 -19 12 -33v-300q0 -55 -100.5 -101t-273 -72.5t-376.5 -26.5t-376.5 26.5t-273 72.5t-100.5 101z" />
<glyph unicode="&#xe145;" d="M400 2200h500q41 0 79.5 -28t52.5 -67l35 -105h933q41 0 70.5 -29.5t29.5 -70.5v-300h-1550q-67 0 -98 -69l-452 -1122v1491q0 41 29.5 70.5t70.5 29.5h133l35 105q14 39 52.5 67t79.5 28zM700 1500h2200q41 0 59.5 -27.5t3.5 -65.5l-526 -1314q-15 -38 -55.5 -65.5 t-81.5 -27.5h-2200q-41 0 -59.5 27.5t-3.5 65.5l526 1314q15 38 55.5 65.5t81.5 27.5z" />
<glyph unicode="&#xe146;" d="M2400 2500q136 0 251 -67t182 -182t67 -251t-67 -251t-182 -182t-251 -67q-140 0 -252 57t-180 172t-68 271q0 146 67.5 261t181 177t251.5 62zM2500 2100v150q0 21 -14.5 35.5t-35.5 14.5h-100q-20 0 -35 -14.5t-15 -35.5v-150h-150q-20 0 -35 -14.5t-15 -35.5v-100 q0 -21 15 -35.5t35 -14.5h150v-150q0 -21 15 -35.5t35 -14.5h100q21 0 35.5 14.5t14.5 35.5v150h150q21 0 35.5 14.5t14.5 35.5v100q0 21 -14.5 35.5t-35.5 14.5h-150zM500 2200h500q41 0 79.5 -28t52.5 -67l35 -105h533q0 -165 56 -300h-1656v200q0 41 29.5 70.5t70.5 29.5 h133l35 105q14 39 52.5 67t79.5 28zM100 1600h1708q92 -145 247.5 -222.5t344.5 -77.5v-1200q0 -41 -29.5 -70.5t-70.5 -29.5h-2200q-41 0 -70.5 29.5t-29.5 70.5v1400q0 41 29.5 70.5t70.5 29.5z" />
<glyph unicode="&#xe147;" d="M2400 2500q101 0 194 -42.5t160 -113.5t106.5 -166.5t39.5 -197.5q0 -135 -67 -245.5t-181.5 -172.5t-251.5 -62q-105 0 -195 32.5t-158.5 93.5t-107.5 157.5t-39 216.5t39 216.5t107.5 157.5t158.5 93.5t195 32.5zM500 2200h500q41 0 79.5 -28t52.5 -67l35 -105h533 q0 -165 56 -300h-1656v200q0 41 29.5 70.5t70.5 29.5h133l35 105q14 39 52.5 67t79.5 28zM2700 1950v100q0 21 -14.5 35.5t-35.5 14.5h-500q-20 0 -35 -14.5t-15 -35.5v-100q0 -21 15 -35.5t35 -14.5h500q21 0 35.5 14.5t14.5 35.5zM100 1600h1708q92 -145 247.5 -222.5 t344.5 -77.5v-1200q0 -41 -29.5 -70.5t-70.5 -29.5h-2200q-41 0 -70.5 29.5t-29.5 70.5v1400q0 41 29.5 70.5t70.5 29.5z" />
<glyph unicode="&#xe148;" d="M2242 2600h313q55 0 100 -45t45 -100v-255h81q7 0 13 -6t6 -12v-566q0 -6 -6 -11t-13 -5h-764q-7 0 -12 5t-5 11v566q0 6 5 12t12 6h83v255q0 56 43.5 100.5t98.5 44.5zM2600 2200v255q0 25 -11 35t-36 10h-310q-25 0 -34 -9.5t-9 -35.5v-255h400zM500 2200h500 q41 0 79.5 -28t52.5 -67l35 -105h633v-300h-1700v200q0 41 29.5 70.5t70.5 29.5h133l35 105q14 39 52.5 67t79.5 28zM100 1600h1702q6 -84 68 -142t147 -58h383v-1300q0 -41 -29.5 -70.5t-70.5 -29.5h-2200q-41 0 -70.5 29.5t-29.5 70.5v1400q0 41 29.5 70.5t70.5 29.5z" />
<glyph unicode="&#xe149;" d="M2100 2500h550q21 0 35.5 -14.5t14.5 -35.5v-300q0 -21 -13.5 -41t-32.5 -28l-454 -181v-250q0 -21 -14.5 -35.5t-35.5 -14.5t-35.5 14.5t-14.5 35.5v850zM500 2200h500q41 0 79.5 -28t52.5 -67l35 -105h733v-300h-1800v200q0 41 29.5 70.5t70.5 29.5h133l35 105 q14 39 52.5 67t79.5 28zM2400 1600v-1500q0 -41 -29.5 -70.5t-70.5 -29.5h-2200q-41 0 -70.5 29.5t-29.5 70.5v1400q0 41 29.5 70.5t70.5 29.5h1805q17 -86 86 -143t159 -57t159 57t86 143h5z" />
<glyph unicode="&#xe150;" d="M2340 2400h120q10 0 25 -7t15 -15v-187l111 122q11 11 19 2l85 -82q10 -11 0 -23l-121 -110h186q7 0 13.5 -16t6.5 -26v-120q0 -10 -6.5 -24t-13.5 -14h-186l122 -112q10 -11 1 -20l-82 -84q-12 -12 -24 0l-111 121v-187q0 -7 -14.5 -12.5t-25.5 -5.5h-120 q-11 0 -25.5 5.5t-14.5 12.5v186l-111 -122q-9 -9 -18 -1l-85 83q-12 12 0 24l121 112h-187q-7 0 -13.5 14t-6.5 24v120q0 10 6.5 26t13.5 16h187l-122 110q-7 6 -7 9t5 9l83 84q11 12 23 0l111 -120v186q0 8 15 15t25 7zM500 2200h500q41 0 79.5 -28t52.5 -67l35 -105h633 q0 -160 81 -300h-1781v200q0 41 29.5 70.5t70.5 29.5h133l35 105q14 39 52.5 67t79.5 28zM100 1600h1854q84 -94 200 -147t246 -53v-1300q0 -41 -29.5 -70.5t-70.5 -29.5h-2200q-41 0 -70.5 29.5t-29.5 70.5v1400q0 41 29.5 70.5t70.5 29.5z" />
<glyph unicode="&#xe153;" d="M1192 993l793 793q15 15 36 15t36 -15l235 -231q15 -15 15 -36t-15 -36l-1100 -1101q-15 -14 -36 -14t-36 14l-590 590q-14 15 -14 36t14 36l234 233q14 15 35.5 15t36.5 -15l284 -284q15 -15 36 -15t36 15zM500 1800h1000q69 0 139 -26l-174 -174h-1065 q-41 0 -70.5 -29.5t-29.5 -70.5v-1200q0 -41 29.5 -70.5t70.5 -29.5h1200q41 0 70.5 29.5t29.5 70.5v269l200 200v-369q0 -166 -117 -283t-283 -117h-1000q-165 0 -282.5 117t-117.5 283v1000q0 166 117.5 283t282.5 117z" />
<glyph unicode="&#xe154;" d="M500 1800h1000q166 0 283 -117t117 -283v-1000q0 -166 -117 -283t-283 -117h-1000q-165 0 -282.5 117t-117.5 283v1000q0 166 117.5 283t282.5 117zM1700 300v1200q0 41 -29.5 70.5t-70.5 29.5h-1200q-41 0 -70.5 -29.5t-29.5 -70.5v-1200q0 -41 29.5 -70.5t70.5 -29.5 h1200q41 0 70.5 29.5t29.5 70.5z" />
<glyph unicode="&#xe155;" d="M400 2300h1000q166 0 283 -117t117 -283h-200v100q0 41 -29.5 70.5t-70.5 29.5h-1200q-41 0 -70.5 -29.5t-29.5 -70.5v-1200q0 -41 29.5 -70.5t70.5 -29.5h100v-200q-165 0 -282.5 117t-117.5 283v1000q0 166 117.5 283t282.5 117zM900 1800h1000q166 0 283 -117 t117 -283v-1000q0 -166 -117 -283t-283 -117h-1000q-165 0 -282.5 117t-117.5 283v1000q0 166 117.5 283t282.5 117zM2100 300v1200q0 41 -29.5 70.5t-70.5 29.5h-1200q-41 0 -70.5 -29.5t-29.5 -70.5v-1200q0 -41 29.5 -70.5t70.5 -29.5h1200q41 0 70.5 29.5t29.5 70.5z " />
<glyph unicode="&#xe156;" d="M150 2300h900q21 0 35.5 -14.5t14.5 -35.5v-900q0 -21 -14.5 -35.5t-35.5 -14.5h-900q-21 0 -35.5 14.5t-14.5 35.5v900q0 21 14.5 35.5t35.5 14.5zM1350 2300h900q21 0 35.5 -14.5t14.5 -35.5v-900q0 -21 -14.5 -35.5t-35.5 -14.5h-900q-21 0 -35.5 14.5t-14.5 35.5v900 q0 21 14.5 35.5t35.5 14.5zM150 1100h900q21 0 35.5 -14.5t14.5 -35.5v-900q0 -21 -14.5 -35.5t-35.5 -14.5h-900q-21 0 -35.5 14.5t-14.5 35.5v900q0 21 14.5 35.5t35.5 14.5zM1350 1100h900q21 0 35.5 -14.5t14.5 -35.5v-900q0 -21 -14.5 -35.5t-35.5 -14.5h-900 q-21 0 -35.5 14.5t-14.5 35.5v900q0 21 14.5 35.5t35.5 14.5z" />
<glyph unicode="&#xe157;" d="M150 2300h500q21 0 35.5 -14.5t14.5 -35.5v-500q0 -21 -14.5 -35.5t-35.5 -14.5h-500q-21 0 -35.5 14.5t-14.5 35.5v500q0 21 14.5 35.5t35.5 14.5zM950 2300h500q21 0 35.5 -14.5t14.5 -35.5v-500q0 -21 -14.5 -35.5t-35.5 -14.5h-500q-21 0 -35.5 14.5t-14.5 35.5v500 q0 21 14.5 35.5t35.5 14.5zM1750 2300h500q21 0 35.5 -15t14.5 -35v-500q0 -21 -14.5 -35.5t-35.5 -14.5h-500q-21 0 -35.5 14.5t-14.5 35.5v500q0 20 14.5 35t35.5 15zM150 1500h500q21 0 35.5 -14.5t14.5 -35.5v-500q0 -21 -14.5 -35.5t-35.5 -14.5h-500q-21 0 -35.5 14.5 t-14.5 35.5v500q0 21 14.5 35.5t35.5 14.5zM950 1500h500q21 0 35.5 -14.5t14.5 -35.5v-500q0 -21 -14.5 -35.5t-35.5 -14.5h-500q-21 0 -35.5 14.5t-14.5 35.5v500q0 21 14.5 35.5t35.5 14.5zM1750 1500h500q21 0 35.5 -14.5t14.5 -35.5v-500q0 -21 -14.5 -35.5 t-35.5 -14.5h-500q-21 0 -35.5 14.5t-14.5 35.5v500q0 21 14.5 35.5t35.5 14.5zM150 700h500q21 0 35.5 -14.5t14.5 -35.5v-500q0 -21 -14.5 -35.5t-35.5 -14.5h-500q-21 0 -35.5 14.5t-14.5 35.5v500q0 21 14.5 35.5t35.5 14.5zM950 700h500q21 0 35.5 -14.5t14.5 -35.5 v-500q0 -21 -14.5 -35.5t-35.5 -14.5h-500q-21 0 -35.5 14.5t-14.5 35.5v500q0 21 14.5 35.5t35.5 14.5zM1750 700h500q21 0 35.5 -14.5t14.5 -35.5v-500q0 -21 -14.5 -35.5t-35.5 -14.5h-500q-21 0 -35.5 14.5t-14.5 35.5v500q0 21 14.5 35.5t35.5 14.5z" />
<glyph unicode="&#xe158;" d="M50 1900h200q21 0 35.5 -14.5t14.5 -35.5v-200q0 -21 -14.5 -35.5t-35.5 -14.5h-200q-21 0 -35.5 14.5t-14.5 35.5v200q0 21 14.5 35.5t35.5 14.5zM550 1900h1800q21 0 35.5 -14.5t14.5 -35.5v-200q0 -21 -14.5 -35.5t-35.5 -14.5h-1800q-21 0 -35.5 14.5t-14.5 35.5v200 q0 21 14.5 35.5t35.5 14.5zM50 1300h200q21 0 35.5 -14.5t14.5 -35.5v-200q0 -21 -14.5 -35.5t-35.5 -14.5h-200q-21 0 -35.5 14.5t-14.5 35.5v200q0 21 14.5 35.5t35.5 14.5zM550 1300h1800q21 0 35.5 -14.5t14.5 -35.5v-200q0 -21 -14.5 -35.5t-35.5 -14.5h-1800 q-21 0 -35.5 14.5t-14.5 35.5v200q0 21 14.5 35.5t35.5 14.5zM50 700h200q21 0 35.5 -14.5t14.5 -35.5v-200q0 -21 -14.5 -35.5t-35.5 -14.5h-200q-21 0 -35.5 14.5t-14.5 35.5v200q0 21 14.5 35.5t35.5 14.5zM550 700h1800q21 0 35.5 -14.5t14.5 -35.5v-200 q0 -21 -14.5 -35.5t-35.5 -14.5h-1800q-21 0 -35.5 14.5t-14.5 35.5v200q0 21 14.5 35.5t35.5 14.5z" />
<glyph unicode="&#xe159;" d="M50 1900h2300q21 0 35.5 -14.5t14.5 -35.5v-200q0 -21 -14.5 -35.5t-35.5 -14.5h-2300q-21 0 -35.5 14.5t-14.5 35.5v200q0 21 14.5 35.5t35.5 14.5zM50 1300h2300q21 0 35.5 -14.5t14.5 -35.5v-200q0 -21 -14.5 -35.5t-35.5 -14.5h-2300q-21 0 -35.5 14.5t-14.5 35.5 v200q0 21 14.5 35.5t35.5 14.5zM50 700h2300q21 0 35.5 -14.5t14.5 -35.5v-200q0 -21 -14.5 -35.5t-35.5 -14.5h-2300q-21 0 -35.5 14.5t-14.5 35.5v200q0 21 14.5 35.5t35.5 14.5z" />
<glyph unicode="&#xe160;" d="M1861 2400h178q25 0 43 -18t18 -43v-55q39 -25 122.5 -54.5t167 -58t168 -67t146.5 -98.5t81 -136q26 -96 11.5 -180t-46 -151t-78 -118.5t-85.5 -81.5t-68 -42q-38 -14 -42 -6.5t10 23.5l14 17q6 9 15 24t28 60t28.5 88.5t4 101t-34.5 104.5q-27 45 -88 73.5 t-121.5 37.5t-129.5 23.5t-103 32.5v-1415q0 -2 -1 -5.5t-1 -5.5q-12 -114 -113.5 -217.5t-256.5 -153.5q-132 -39 -248 -32t-203.5 61.5t-115.5 141.5q-29 87 9 181.5t131 172t219 118.5q37 11 89 19t107 10.5t84 -10.5v1598q0 25 18 43t43 18zM1600 1600h-1550 q-21 0 -35.5 14.5t-14.5 35.5v200q0 21 14.5 35.5t35.5 14.5h1550v-300zM1600 1000h-1550q-21 0 -35.5 14.5t-14.5 35.5v200q0 21 14.5 35.5t35.5 14.5h1550v-300zM50 700h1013q-131 -137 -158 -300h-855q-21 0 -35.5 14.5t-14.5 35.5v200q0 21 14.5 35.5t35.5 14.5z" />
<glyph unicode="&#xe161;" d="M2500 2050v-1613q0 -65 -42.5 -101t-107.5 -36h-851q-2 0 0 -100q0 -36 10.5 -64.5t26.5 -46.5t39.5 -30.5t44.5 -18.5t47 -9t41.5 -3t33.5 1l19 1q21 0 21 -15t-21 -15h-1118q-14 0 -19.5 7.5t0 15t18.5 7.5l18 -1q19 -1 34.5 -1t41 3t46 9t44 18.5t38.5 30.5t25.5 46.5 t10.5 64.5v100h-850q-65 0 -107.5 36t-42.5 101v1613q0 62 44 106t106 44h2300q62 0 106 -44t44 -106zM2300 800v1200h-2200v-1200h2200z" />
<glyph unicode="&#xe162;" d="M200 1900h2000q41 0 70.5 -29.5t29.5 -70.5v-1200h250q21 0 35.5 -14.5t14.5 -35.5v-50q0 -21 -14.5 -35.5t-35.5 -14.5l-50 -50h-2600l-50 50q-21 0 -35.5 14.5t-14.5 35.5v50q0 21 14.5 35.5t35.5 14.5h250v1200q0 41 29.5 70.5t70.5 29.5zM300 1700v-1100h1800v1100 h-1800z" />
<glyph unicode="&#xe163;" d="M300 2600h1800q82 0 141 -59t59 -141v-2300q0 -82 -59 -141t-141 -59h-1800q-82 0 -141 59t-59 141v2300q0 82 59 141t141 59zM400 2300v-2100h1600v2100h-1600zM1200 167q-49 0 -83 -34t-34 -83t34 -83.5t83 -34.5t83.5 34.5t34.5 83.5t-34.5 83t-83.5 34z" />
<glyph unicode="&#xe164;" d="M750 2400h900q103 0 176.5 -73.5t73.5 -176.5v-1900q0 -104 -73 -177t-177 -73h-900q-103 0 -176.5 73.5t-73.5 176.5v1900q0 103 73.5 176.5t176.5 73.5zM700 2000v-1500h1000v1500h-1000zM1200 427q-74 0 -125.5 -51.5t-51.5 -125.5t51.5 -125.5t125.5 -51.5 t125.5 51.5t51.5 125.5t-51.5 125.5t-125.5 51.5z" />
<glyph unicode="&#xe165;" d="M50 2400h900q103 0 176.5 -73.5t73.5 -176.5v-266q-84 -7 -142 -68t-58 -145v329h-1000v-1500h1000v225q0 -83 58 -144t142 -69v-262q0 -104 -73 -177t-177 -73h-900q-104 0 -177 73t-73 177v1900q0 103 73.5 176.5t176.5 73.5zM1550 2400h900q103 0 176.5 -73.5 t73.5 -176.5v-1900q0 -104 -73 -177t-177 -73h-900q-103 0 -176.5 73.5t-73.5 176.5v277q0 3 10.5 8.5t26.5 12.5t24 14l139 117v-179h1000v1500h-1000v-283q-200 144 -200 152v281q0 103 73.5 176.5t176.5 73.5zM1200 1400v271q0 10 11 13.5t19 -3.5l561 -465q9 -7 8 -16.5 t-10 -16.5l-557 -468q-9 -7 -20.5 -4t-11.5 14v275h-449q-21 0 -36 15.5t-15 36.5v298q0 20 15 35t36 15h449zM500 427q-74 0 -125.5 -51.5t-51.5 -125.5t51.5 -125.5t125.5 -51.5t125.5 51.5t51.5 125.5t-51.5 125.5t-125.5 51.5zM2000 427q-74 0 -125.5 -51.5 t-51.5 -125.5t51.5 -125.5t125.5 -51.5t125.5 51.5t51.5 125.5t-51.5 125.5t-125.5 51.5z" />
<glyph unicode="&#xe166;" d="M50 2400h900q103 0 176.5 -73.5t73.5 -176.5v-550h-200v400h-1000v-1500h1000v300h200v-550q0 -104 -73 -177t-177 -73h-900q-104 0 -177 73t-73 177v1900q0 103 73.5 176.5t176.5 73.5zM1550 2400h900q103 0 176.5 -73.5t73.5 -176.5v-1900q0 -104 -73 -177t-177 -73 h-900q-103 0 -176.5 73.5t-73.5 176.5v550h200v-300h1000v1500h-1000v-400h-200v550q0 103 73.5 176.5t176.5 73.5zM1700 1400v271q0 10 10.5 13.5t19.5 -3.5l561 -465q8 -7 7 -16.5t-10 -16.5l-557 -468q-8 -7 -19.5 -4t-11.5 14v275h-900v-275q0 -11 -11 -14t-20 4 l-557 468q-9 7 -10 16.5t7 16.5l561 465q9 7 19.5 3.5t10.5 -13.5v-271h900zM500 427q-74 0 -125.5 -51.5t-51.5 -125.5t51.5 -125.5t125.5 -51.5t125.5 51.5t51.5 125.5t-51.5 125.5t-125.5 51.5zM2000 427q-74 0 -125.5 -51.5t-51.5 -125.5t51.5 -125.5t125.5 -51.5 t125.5 51.5t51.5 125.5t-51.5 125.5t-125.5 51.5z" />
<glyph unicode="&#xe171;" d="M550 2100h200q21 0 35.5 -14.5t14.5 -35.5v-774l1045 815q17 13 36 7t19 -26v-1742q0 -21 -19 -27t-36 7l-1045 819v-779q0 -21 -14.5 -35.5t-35.5 -14.5h-200q-21 0 -35.5 14.5t-14.5 35.5v1700q0 21 14.5 35.5t35.5 14.5z" />
<glyph unicode="&#xe172;" d="M50 2100h200q21 0 35.5 -14.5t14.5 -35.5v-774l1045 815q17 13 36 7t19 -26v-796l1045 815q17 13 36 7t19 -26v-1742q0 -21 -19 -27t-36 7l-1045 819v-799q0 -21 -19 -27t-36 7l-1045 819v-779q0 -21 -14.5 -35.5t-35.5 -14.5h-200q-21 0 -35.5 14.5t-14.5 35.5v1700 q0 21 14.5 35.5t35.5 14.5z" />
<glyph unicode="&#xe173;" d="M1200 1276l1045 815q17 13 36 7t19 -26v-1742q0 -21 -19 -27t-36 7l-1045 819v-799q0 -21 -19 -27t-36 7l-1097 859q-17 13 -19.5 30.5t13.5 30.5l1103 861q17 13 36 7t19 -26v-796z" />
<glyph unicode="&#xe174;" d="M500 382v1636q0 21 13 26.5t29 -7.5l1545 -806q16 -13 15.5 -31t-16.5 -31l-1544 -807q-16 -12 -29 -6.5t-13 26.5z" />
<glyph unicode="&#xe175;" d="M750 2000h300q21 0 35.5 -14.5t14.5 -35.5v-1500q0 -21 -14.5 -35.5t-35.5 -14.5h-300q-21 0 -35.5 14.5t-14.5 35.5v1500q0 21 14.5 35.5t35.5 14.5zM1350 2000h300q21 0 35.5 -14.5t14.5 -35.5v-1500q0 -21 -14.5 -35.5t-35.5 -14.5h-300q-21 0 -35.5 14.5t-14.5 35.5 v1500q0 21 14.5 35.5t35.5 14.5z" />
<glyph unicode="&#xe176;" d="M550 1900h1300q21 0 35.5 -14.5t14.5 -35.5v-1300q0 -21 -14.5 -35.5t-35.5 -14.5h-1300q-21 0 -35.5 14.5t-14.5 35.5v1300q0 21 14.5 35.5t35.5 14.5z" />
<glyph unicode="&#xe177;" d="M1200 1276v796q0 20 19 26t36 -7l1103 -861q16 -13 13.5 -30.5t-19.5 -30.5l-1097 -859q-17 -13 -36 -7t-19 27v799l-1045 -819q-17 -13 -36 -7t-19 27v1742q0 20 19 26t36 -7z" />
<glyph unicode="&#xe178;" d="M2150 2100h200q21 0 35.5 -15t14.5 -35v-1700q0 -21 -14.5 -35.5t-35.5 -14.5h-200q-21 0 -35.5 14.5t-14.5 35.5v779l-1045 -819q-17 -13 -36 -7t-19 27v799l-1045 -819q-17 -13 -36 -7t-19 27v1742q0 20 19 26t36 -7l1045 -815v796q0 20 19 26t36 -7l1045 -815v774 q0 21 14.5 35.5t35.5 14.5z" />
<glyph unicode="&#xe179;" d="M1650 2100h200q21 0 35.5 -15t14.5 -35v-1700q0 -21 -14.5 -35.5t-35.5 -14.5h-200q-21 0 -35.5 14.5t-14.5 35.5v779l-1045 -819q-17 -13 -36 -7t-19 27v1742q0 20 19 26t36 -7l1045 -815v774q0 21 14.5 35.5t35.5 14.5z" />
<glyph unicode="&#xe180;" d="M310 969l861 1110q13 16 30.5 15t30.5 -17l859 -1110q13 -17 7 -42t-26 -25h-1742q-20 0 -26.5 26t6.5 43zM350 700h1700q21 0 35.5 -15t14.5 -35v-200q0 -21 -14.5 -35.5t-35.5 -14.5h-1700q-21 0 -35.5 14.5t-14.5 35.5v200q0 20 14.5 35t35.5 15z" />
<glyph unicode="&#xe181;" d="M150 2000h1400q62 0 106 -44t44 -106v-563l662 530q16 14 27 9t11 -26v-1200q0 -21 -11 -26t-27 9l-662 530v-563q0 -62 -44 -106t-106 -44h-1400q-62 0 -106 44t-44 106v1300q0 62 44 106t106 44z" />
<glyph unicode="&#xe182;" d="M952 2400h503q19 0 32 -14.5t13 -34.5v-951h476q19 0 24.5 -13t-6.5 -28l-737 -859h1089q21 0 37.5 -15t16.5 -35v-450h-2400v450q0 21 14.5 35.5t35.5 14.5h1101l-737 859q-12 15 -6.5 28t24.5 13h468v951q0 19 16 34t36 15zM2000 300v-100h200v100h-200z" />
<glyph unicode="&#xe183;" d="M477 1531l486 456q15 14 26 9t11 -25v-1446q0 -20 -10.5 -25t-25.5 9l-481 457q-15 14 -40.5 24t-46.5 10h-346q-21 0 -35.5 14.5t-14.5 35.5v398q0 20 14.5 35t35.5 15h340q20 0 46 10t41 23zM1217 1572l108 108q14 15 35.5 15t35.5 -15l305 -305l305 305q15 15 36 15 t36 -15l107 -108q15 -15 15 -36t-15 -36l-304 -304l304 -305q15 -14 15 -35.5t-15 -36.5l-107 -107q-15 -15 -36.5 -15t-35.5 15l-305 304l-305 -304q-14 -15 -35.5 -15t-35.5 15l-108 107q-15 15 -15 36t15 36l305 305l-305 305q-15 14 -15 35.5t15 35.5z" />
<glyph unicode="&#xe184;" d="M477 1531l486 456q15 14 26 9t11 -25v-1446q0 -20 -10.5 -25t-25.5 9l-481 457q-15 14 -40.5 24t-46.5 10h-346q-21 0 -35.5 14.5t-14.5 35.5v398q0 20 14.5 35t35.5 15h340q20 0 46 10t41 23zM1160 1792l159 122q122 -148 189 -331t67 -383q0 -195 -63.5 -373 t-180.5 -325l-155 127q199 252 199 571q0 166 -56 317.5t-159 274.5z" />
<glyph unicode="&#xe185;" d="M1793 2281l158 122q203 -252 313.5 -560t110.5 -643q0 -336 -111 -644t-314 -561l-155 127q182 225 281 501t99 577q0 302 -99.5 578.5t-282.5 502.5zM1477 2036l158 123q162 -201 251 -446.5t89 -512.5q0 -266 -87.5 -509.5t-247.5 -442.5l-154 127q138 174 213.5 384.5 t75.5 440.5q0 234 -78 448t-220 388zM477 1531l486 456q15 14 26 9t11 -25v-1446q0 -20 -10.5 -25t-25.5 9l-481 457q-15 14 -40.5 24t-46.5 10h-346q-21 0 -35.5 14.5t-14.5 35.5v398q0 20 14.5 35t35.5 15h340q20 0 46 10t41 23zM1160 1792l159 122q122 -148 189 -331 t67 -383q0 -195 -63.5 -373t-180.5 -325l-155 127q199 252 199 571q0 166 -56 317.5t-159 274.5z" />
<glyph unicode="&#xe187;" d="M735 1935l430 430q14 14 35 14t35 -14l428 -428q15 -15 10.5 -25.5t-25.5 -11.5h-248v-500h500v250q0 20 10.5 24.5t24.5 -9.5l430 -430q14 -14 14 -35t-14 -35l-430 -430q-14 -14 -24.5 -10t-10.5 25v250h-500v-500h250q21 0 25 -10.5t-10 -24.5l-430 -430 q-14 -14 -35 -14t-35 14l-430 430q-14 14 -9.5 24.5t24.5 10.5h250v500h-500v-250q0 -21 -10.5 -25t-24.5 10l-430 430q-14 14 -14 35t14 35l430 430q14 14 24.5 9.5t10.5 -24.5v-250h500v500h-250q-20 0 -24.5 10.5t9.5 24.5z" />
<glyph unicode="&#xe188;" d="M399 1477q119 0 204 -84.5t85 -203.5q0 -120 -85 -204.5t-204 -84.5t-204 84.5t-85 204.5q0 119 85 203.5t204 84.5zM1197 1477q119 0 203.5 -84.5t84.5 -203.5q0 -120 -84.5 -204.5t-203.5 -84.5t-204 84.5t-85 204.5q0 119 85 203.5t204 84.5zM1995 1477 q119 0 203.5 -84.5t84.5 -203.5q0 -120 -84.5 -204.5t-203.5 -84.5t-204 84.5t-85 204.5q0 119 85 203.5t204 84.5z" />
<glyph unicode="&#xe189;" d="M1100 1902v291q55 5 100 5t100 -5v-291q-53 8 -100 8t-100 -8zM633 1626l-205 205q60 74 141 141l205 -205q-80 -61 -141 -141zM1626 1767l205 205q78 -63 141 -141l-205 -205q-61 80 -141 141zM1200 1599q165 0 282 -117t117 -282t-117 -282t-282 -117t-282 117 t-117 282t117 282t282 117zM1200 1395q-81 0 -138 -57t-57 -138t57 -138t138 -57t138 57t57 138t-57 138t-138 57zM207 1300h291q-8 -53 -8 -100t8 -100h-291q-5 55 -5 100t5 100zM1902 1300h291q5 -55 5 -100t-5 -100h-291q8 53 8 100t-8 100zM428 569l205 205 q61 -80 141 -141l-205 -205q-81 67 -141 141zM1831 428l-205 205q80 61 141 141l205 -205q-63 -78 -141 -141zM1100 207v291q53 -8 100 -8t100 8v-291q-55 -5 -100 -5t-100 5z" />
<glyph unicode="&#xe190;" d="M1100 2019v374q55 5 100 5t100 -5v-374q-50 6 -100 6t-100 -6zM551 1708l-265 265q64 77 141 141l265 -265q-76 -59 -141 -141zM1708 1849l265 265q77 -64 141 -141l-265 -265q-65 82 -141 141zM1200 1800q163 0 301 -80.5t218.5 -218.5t80.5 -301t-80.5 -301 t-218.5 -218.5t-301 -80.5t-301 80.5t-218.5 218.5t-80.5 301t80.5 301t218.5 218.5t301 80.5zM1200 1591q-162 0 -276.5 -114.5t-114.5 -276.5t114.5 -276.5t276.5 -114.5t276.5 114.5t114.5 276.5t-114.5 276.5t-276.5 114.5zM7 1300h374q-6 -50 -6 -100t6 -100h-374 q-5 55 -5 100t5 100zM2019 1300h374q5 -55 5 -100t-5 -100h-374q7 58 7 100t-7 100zM286 427l265 265q61 -80 141 -141l-265 -265q-77 64 -141 141zM1973 286l-265 265q80 61 141 141l265 -265q-64 -77 -141 -141zM1100 7v374q58 -7 100 -7t100 7v-374q-66 -6 -100 -6 t-100 6z" />
<glyph unicode="&#xe191;" d="M1200 2425q249 0 476 -97t391 -261t261 -391t97 -476t-97 -476t-261 -391t-391 -261t-476 -97q-166 0 -325 44t-293.5 123t-247.5 192t-192 247.5t-123 293t-44 325.5t44 325.5t123 293t192 247.5t247.5 192t293.5 123t325 44zM1403 1402v456q0 21 -15 36t-36 15h-304 q-21 0 -35.5 -15t-14.5 -36v-456h-456q-21 0 -36 -14.5t-15 -35.5v-304q0 -21 15 -35.5t36 -14.5h456v-462q0 -21 14.5 -36t35.5 -15h304q21 0 36 15t15 36v462h455q21 0 36 14.5t15 35.5v304q0 21 -15 35.5t-36 14.5h-455z" />
<glyph unicode="&#xe192;" d="M1200 2425q249 0 476 -97t391 -261t261 -391t97 -476t-97 -476t-261 -391t-391 -261t-476 -97q-166 0 -325 44t-293.5 123t-247.5 192t-192 247.5t-123 293t-44 325.5t44 325.5t123 293t192 247.5t247.5 192t293.5 123t325 44zM1800 1050v300q0 21 -14.5 35.5t-35.5 14.5 h-1100q-21 0 -35.5 -14.5t-14.5 -35.5v-300q0 -21 14.5 -35.5t35.5 -14.5h1100q21 0 35.5 14.5t14.5 35.5z" />
<glyph unicode="&#xe193;" d="M2066 2066q176 -176 268 -405t92 -461t-92 -461t-268 -405t-405 -268t-461 -92t-461 92t-405 268t-268 405t-92 461t92 461t268 405t405 268t461 92t461 -92t405 -268zM1766 1553l-212 213q-15 14 -36 14t-35 -14l-283 -283l-283 283q-14 14 -35 14t-35 -14l-213 -213 q-14 -14 -14 -35t14 -35l283 -283l-283 -283q-14 -14 -14 -35t14 -36l213 -212q14 -14 35 -14t35 14l283 283l283 -283q14 -14 35 -14t36 14l212 212q14 15 14 36t-14 35l-283 283l283 283q14 14 14 35t-14 35z" />
<glyph unicode="&#xe194;" d="M2066 2066q176 -176 268 -405t92 -461t-92 -461t-268 -405t-405 -268t-461 -92t-461 92t-405 268t-268 405t-92 461t92 461t268 405t405 268t461 92t461 -92t405 -268zM1906 1548l-215 211q-10 10 -23.5 10t-23.5 -10l-589 -589q-10 -10 -23.5 -10t-22.5 10l-257 256 q-10 10 -23.5 10t-22.5 -10l-214 -213q-10 -10 -10 -23.5t10 -22.5l516 -517q10 -10 23.5 -10t23.5 10l851 851q10 10 10 23.5t-10 23.5z" />
<glyph unicode="&#xe195;" d="M1200 2425q249 0 476 -97t391 -261t261 -391t97 -476t-97 -476t-261 -391t-391 -261t-476 -97q-166 0 -325 44t-293.5 123t-247.5 192t-192 247.5t-123 293t-44 325.5t44 325.5t123 293t192 247.5t247.5 192t293.5 123t325 44zM1075 950h256q10 0 17.5 7t7.5 17 q2 94 29 145t100 98q49 31 74 49t50 43t35 52t16 64.5t6 91.5q0 96 -40.5 172t-108 122t-148 69.5t-166.5 23.5q-220 0 -346.5 -112t-137.5 -316q0 -11 7 -18q6 -8 18 -8h269q23 0 25 23q5 74 47 112t118 38q54 0 88 -32t34 -82q0 -28 -13 -54.5t-34 -46.5t-31 -28t-20 -15 q-177 -129 -177 -288v-102q0 -5 10 -15t15 -10zM1405 450v300q0 21 -15 35.5t-35 14.5h-305q-21 0 -35.5 -14.5t-14.5 -35.5v-300q0 -21 14.5 -35.5t35.5 -14.5h305q20 0 35 14.5t15 35.5z" />
<glyph unicode="&#xe196;" d="M1200 2425q249 0 476 -97t391 -261t261 -391t97 -476t-97 -476t-261 -391t-391 -261t-476 -97q-166 0 -325 44t-293.5 123t-247.5 192t-192 247.5t-123 293t-44 325.5t44 325.5t123 293t192 247.5t247.5 192t293.5 123t325 44zM1400 1650v200q0 21 -14.5 35.5t-35.5 14.5 h-200q-21 0 -35.5 -14.5t-14.5 -35.5v-200q0 -21 14.5 -35.5t35.5 -14.5h200q21 0 35.5 14.5t14.5 35.5zM1400 800v650q0 21 -14.5 35.5t-35.5 14.5h-400q-21 0 -35.5 -14.5t-14.5 -35.5v-200q0 -21 14.5 -35.5t35.5 -14.5h150v-400h-150q-21 0 -35.5 -15t-14.5 -35v-200 q0 -21 14.5 -35.5t35.5 -14.5h600q21 0 35.5 14.5t14.5 35.5v200q0 20 -14.5 35t-35.5 15h-150z" />
<glyph unicode="&#xe197;" d="M1200 2425q249 0 476 -97t391 -261t261 -391t97 -476t-97 -476t-261 -391t-391 -261t-476 -97q-166 0 -325 44t-293.5 123t-247.5 192t-192 247.5t-123 293t-44 325.5t44 325.5t123 293t192 247.5t247.5 192t293.5 123t325 44zM1400 1550v400q0 21 -14.5 35.5t-35.5 14.5 h-300q-21 0 -35.5 -14.5t-14.5 -35.5v-400q0 -58 10 -112l92 -464q4 -23 22.5 -48.5t37.5 -25.5h78q19 0 37.5 25.5t22.5 48.5l90 477q10 45 10 99zM1400 450v300q0 21 -14.5 35.5t-35.5 14.5h-300q-21 0 -35.5 -14.5t-14.5 -35.5v-300q0 -21 14.5 -35.5t35.5 -14.5h300 q21 0 35.5 14.5t14.5 35.5z" />
<glyph unicode="&#xe198;" d="M1200 2425q166 0 325 -44t293.5 -123t247.5 -192.5t192 -247.5t123 -293t44 -325t-44 -325t-123 -293.5t-192 -247.5t-247.5 -192t-293.5 -123t-325 -44t-325 44t-293 123t-247.5 192t-192.5 247.5t-123 293.5t-44 325t44 325t123 293t192.5 247.5t247.5 192.5t293 123 t325 44zM1200 2100q-183 0 -349.5 -71.5t-287 -192t-192 -287t-71.5 -349.5t71.5 -349.5t192 -287t287 -192t349.5 -71.5t349.5 71.5t287 192t192 287t71.5 349.5t-71.5 349.5t-192 287t-287 192t-349.5 71.5zM636 1555l209 209q14 15 35 15t36 -15l284 -284l285 284 q14 14 35 14t35 -14l210 -209q14 -15 14 -36t-14 -35l-284 -284l283 -284q15 -15 15 -36t-15 -35l-209 -209q-14 -15 -35 -15t-36 15l-284 284l-284 -285q-14 -14 -35 -14t-36 14l-209 210q-14 14 -14 35t14 35l284 285l-284 284q-15 15 -15 35.5t15 35.5z" />
<glyph unicode="&#xe199;" d="M1200 2425q166 0 325 -44t293.5 -123t247.5 -192.5t192 -247.5t123 -293t44 -325t-44 -325t-123 -293.5t-192 -247.5t-247.5 -192t-293.5 -123t-325 -44t-325 44t-293 123t-247.5 192t-192.5 247.5t-123 293.5t-44 325t44 325t123 293t192.5 247.5t247.5 192.5t293 123 t325 44zM1200 2100q-183 0 -349.5 -71.5t-287 -192t-192 -287t-71.5 -349.5t71.5 -349.5t192 -287t287 -192t349.5 -71.5t349.5 71.5t287 192t192 287t71.5 349.5t-71.5 349.5t-192 287t-287 192t-349.5 71.5zM1055 1170l490 489q9 10 22.5 10t23.5 -10l215 -211 q10 -10 10 -23.5t-10 -23.5l-751 -751q-10 -10 -23.5 -10t-23.5 10l-213 213l-46 47l-157 157q-10 9 -10 22.5t10 23.5l214 213q9 10 22.5 10t23.5 -10l157 -156q9 -10 22.5 -10t23.5 10z" />
<glyph unicode="&#xe200;" d="M1200 2425q166 0 325 -44t293.5 -123t247.5 -192.5t192 -247.5t123 -293t44 -325t-44 -325t-123 -293.5t-192 -247.5t-247.5 -192t-293.5 -123t-325 -44t-325 44t-293 123t-247.5 192t-192.5 247.5t-123 293.5t-44 325t44 325t123 293t192.5 247.5t247.5 192.5t293 123 t325 44zM440 720l1240 1240q-221 140 -480 140q-183 0 -349.5 -71.5t-287 -192t-192 -287t-71.5 -349.5q0 -259 140 -480zM1960 1680l-1240 -1240q221 -140 480 -140q183 0 349.5 71.5t287 192t192 287t71.5 349.5q0 259 -140 480z" />
<glyph unicode="&#xe201;" d="M1200 2425q166 0 325 -44t293.5 -123t247.5 -192.5t192 -247.5t123 -293t44 -325t-44 -325t-123 -293.5t-192 -247.5t-247.5 -192t-293.5 -123t-325 -44t-325 44t-293 123t-247.5 192t-192.5 247.5t-123 293.5t-44 325t44 325t123 293t192.5 247.5t247.5 192.5t293 123 t325 44zM1200 2100q-183 0 -349.5 -71.5t-287 -192t-192 -287t-71.5 -349.5t71.5 -349.5t192 -287t287 -192t349.5 -71.5t349.5 71.5t287 192t192 287t71.5 349.5t-71.5 349.5t-192 287t-287 192t-349.5 71.5zM950 1797h500q21 0 35.5 -15t14.5 -35v-447h269q14 0 18 -15 t-5 -26l-564 -743q-9 -11 -22 -10t-21 13l-565 738q-9 11 -5 27t19 16h276v447q0 20 14.5 35t35.5 15z" />
<glyph unicode="&#xe202;" d="M1200 2425q166 0 325 -44t293.5 -123t247.5 -192.5t192 -247.5t123 -293t44 -325t-44 -325t-123 -293.5t-192 -247.5t-247.5 -192t-293.5 -123t-325 -44t-325 44t-293 123t-247.5 192t-192.5 247.5t-123 293.5t-44 325t44 325t123 293t192.5 247.5t247.5 192.5t293 123 t325 44zM1200 2100q-183 0 -349.5 -71.5t-287 -192t-192 -287t-71.5 -349.5t71.5 -349.5t192 -287t287 -192t349.5 -71.5t349.5 71.5t287 192t192 287t71.5 349.5t-71.5 349.5t-192 287t-287 192t-349.5 71.5zM610 1143l565 738q8 12 21 13t22 -10l564 -743q9 -11 5 -26 t-18 -15h-269v-447q0 -20 -14.5 -35t-35.5 -15h-500q-21 0 -35.5 15t-14.5 35v447h-276q-15 0 -19 16t5 27z" />
<glyph unicode="&#xe203;" d="M2250 2300h250q41 0 70.5 -29.5t29.5 -70.5t-29.5 -70.5t-70.5 -29.5h-171l-432 -1800q-8 -39 -35.5 -69.5t-61.5 -30.5h-109q9 -29 9 -50q0 -62 -44 -106t-106 -44t-106 44t-44 106q0 21 9 50h-518q9 -29 9 -50q0 -62 -44 -106t-106 -44t-106 44t-44 106q0 21 9 50h-109 q-41 0 -70.5 29.5t-29.5 70.5t29.5 70.5t70.5 29.5h1221l95 400h-1466q-35 0 -62.5 22t-35.5 56l-200 900q-10 48 20 85q31 37 78 37h1926l77 323q8 34 35.5 55.5t61.5 21.5zM275 1700l22 -100h103v100h-125zM500 1700v-100h100v100h-100zM700 1700v-100h100v100h-100z M900 1700v-100h100v100h-100zM1100 1700v-100h100v100h-100zM1300 1700v-100h100v100h-100zM1500 1700v-100h100v100h-100zM1700 1700v-100h100v100h-100zM1900 1700v-100h103l22 100h-125zM319 1500l22 -100h59v100h-81zM500 1500v-100h100v100h-100zM700 1500v-100h100 v100h-100zM900 1500v-100h100v100h-100zM1100 1500v-100h100v100h-100zM1300 1500v-100h100v100h-100zM1500 1500v-100h100v100h-100zM1700 1500v-100h100v100h-100zM1900 1500v-100h58l23 100h-81zM364 1300l22 -100h14v100h-36zM500 1300v-100h100v100h-100zM700 1300 v-100h100v100h-100zM900 1300v-100h100v100h-100zM1100 1300v-100h100v100h-100zM1300 1300v-100h100v100h-100zM1500 1300v-100h100v100h-100zM1700 1300v-100h100v100h-100zM1900 1300v-100h10l24 100h-34zM500 1100v-100h100v100h-100zM700 1100v-100h100v100h-100z M900 1100v-100h100v100h-100zM1100 1100v-100h100v100h-100zM1300 1100v-100h100v100h-100zM1500 1100v-100h100v100h-100zM1700 1100v-100h100v100h-100z" />
<glyph unicode="&#xe205;" d="M895 2600h510q112 0 221.5 -51t191 -133t132 -192.5t50.5 -223.5v-500h134q27 0 46.5 -17t19.5 -42v-1382q0 -25 -19.5 -42t-46.5 -17h-1968q-27 0 -46.5 17t-19.5 42v1382q0 25 19.5 42t46.5 17h1434v500q0 104 -48.5 152t-151.5 48h-500q-103 0 -151.5 -48t-48.5 -152 v-100h-400v100q0 113 50.5 223.5t132 192.5t191 133t221.5 51zM1250 500v257q46 27 73 72.5t27 99.5q0 83 -58.5 141.5t-141.5 58.5t-141.5 -58.5t-58.5 -141.5q0 -54 27 -99.5t73 -72.5v-257q0 -21 14.5 -35.5t35.5 -14.5h100q21 0 35.5 14.5t14.5 35.5z" />
<glyph unicode="&#xe206;" d="M1103 2400h660q21 0 29 -13t0 -32l-408 -713q-9 -19 -1 -32t29 -13l253 3q20 0 28.5 -13t-1.5 -31l-242 -614q-10 -19 -1.5 -32t29.5 -13h149q21 0 26.5 -11.5t-7.5 -28.5l-637 -843q-13 -17 -19 -14t-2 23l132 627q4 20 -8 34.5t-32 14.5h-148q-20 0 -31 14.5t-5 33.5 l130 505q5 20 -5.5 34t-30.5 14h-253q-21 0 -31 14t-4 34l335 1004q7 20 26 34t40 14z" />
<glyph unicode="&#xe207;" d="M854 1046l1049 1049q14 14 35.5 14.5t35.5 -14.5l327 -322q15 -14 15 -35t-15 -35l-1447 -1448q-15 -14 -36 -14t-35 14l-325 325l-70 70l-391 391q-14 15 -14 35.5t14 35.5l325 325q14 14 35 14t35 -14l391 -391q15 -15 35.5 -15t35.5 15z" />
<glyph unicode="&#xe208;" d="M317 1846l238 238q17 16 40 16t40 -16l566 -565l565 565q16 16 40 16t40 -16l238 -238q16 -16 16 -40t-16 -41l-564 -565l564 -564q16 -17 16 -40.5t-16 -40.5l-238 -238q-16 -17 -40 -17t-41 17l-564 564l-565 -565q-16 -16 -40 -16t-41 16l-238 239q-17 17 -17 40 t17 40l565 565l-565 565q-17 17 -17 41t17 40z" />
<glyph unicode="&#xe209;" d="M507 1825l476 568q6 8 15 8q11 0 18 -8l480 -567q4 -5 4 -12q0 -14 -15 -14h-285v-250q0 -21 -14.5 -35.5t-35.5 -14.5h-300q-21 0 -35.5 14.5t-14.5 35.5v250h-283q-15 0 -15 13q0 5 5 12zM2150 2300h250q41 0 70.5 -29.5t29.5 -70.5t-29.5 -70.5t-70.5 -29.5h-171 l-432 -1800q-8 -39 -35.5 -69.5t-61.5 -30.5h-109q9 -24 9 -50q0 -62 -44 -106t-106 -44t-106 44t-44 106q0 21 9 50h-518q9 -24 9 -50q0 -62 -44 -106t-106 -44t-106 44t-44 106q0 21 9 50h-109q-41 0 -70.5 29.5t-29.5 70.5t29.5 70.5t70.5 29.5h1221l95 400h-1466 q-35 0 -62.5 21.5t-35.5 56.5l-200 900q-2 14 -2 21q0 36 22 64q31 37 78 37h349q-26 -38 -26 -79q0 -34 15 -61q29 -60 129 -60h83v-100h100v-100h-100v-100h700v300h100v-100h100v100q10 1 25.5 4t47 18.5t42.5 38.5q15 30 15 57q0 38 -32 82h378l77 323q8 34 35.5 55.5 t61.5 21.5zM175 1700l22 -100h103v100h-125zM400 1700v-100h100v100h-100zM1600 1700v-100h100v100h-100zM1800 1700v-100h103l22 100h-125zM219 1500l22 -100h59v100h-81zM400 1500v-100h100v100h-100zM1400 1500v-100h100v100h-100zM1600 1500v-100h100v100h-100z M1800 1500v-100h58l15 63l8 37h-81zM264 1300l22 -100h14v100h-36zM400 1300v-100h100v100h-100zM600 1300v-100h100v100h-100zM800 1300v-100h100v100h-100zM1000 1300v-100h100v100h-100zM1200 1300v-100h100v100h-100zM1400 1300v-100h100v100h-100zM1600 1300v-100h100 v100h-100zM1800 1300v-100h10l24 100h-34zM400 1100v-100h100v100h-100zM600 1100v-100h100v100h-100zM800 1100v-100h100v100h-100zM1000 1100v-100h100v100h-100zM1200 1100v-100h100v100h-100zM1400 1100v-100h100v100h-100zM1600 1100v-100h100v100h-100z" />
<glyph unicode="&#xe210;" d="M850 2400h300q21 0 35.5 -15t14.5 -35v-250h285q15 0 15 -17q0 -9 -5 -14l-476 -573q-6 -8 -14 -8q-11 0 -19 11l-479 569q-5 7 -5 14q0 18 15 18h283v250q0 20 14.5 35t35.5 15zM2150 2300h250q41 0 70.5 -29.5t29.5 -70.5t-29.5 -70.5t-70.5 -29.5h-171l-432 -1800 q-8 -39 -35.5 -69.5t-61.5 -30.5h-109q9 -29 9 -50q0 -62 -44 -106t-106 -44t-106 44t-44 106q0 21 9 50h-518q9 -29 9 -50q0 -62 -44 -106t-106 -44t-106 44t-44 106q0 21 9 50h-109q-41 0 -70.5 29.5t-29.5 70.5t29.5 70.5t70.5 29.5h1221l95 400h-1466q-35 0 -62.5 22 t-35.5 56l-200 900q-2 14 -2 21q0 36 22 64q31 37 78 37h376l174 -206v-94h79l121 -144v-56h47l5 -6q59 -76 153 -76q43 0 81.5 20t63.5 53l50 61v-52h100v100h-60l160 194v-94h100v100h-95l165 200h406l77 323q7 34 34.5 55.5t62.5 21.5zM175 1700l22 -100h103v100h-125z M400 1700v-100h100v100h-100zM1600 1700v-100h100v100h-100zM1800 1700v-100h103l22 100h-125zM219 1500l22 -100h59v100h-81zM400 1500v-100h100v100h-100zM600 1500v-100h100v100h-100zM1400 1500v-100h100v100h-100zM1600 1500v-100h100v100h-100zM1800 1500v-100h58 l15 63l8 37h-81zM264 1300l22 -100h14v100h-36zM400 1300v-100h100v100h-100zM600 1300v-100h100v100h-100zM800 1300v-100h100v100h-100zM1000 1300v-100h100v100h-100zM1200 1300v-100h100v100h-100zM1400 1300v-100h100v100h-100zM1600 1300v-100h100v100h-100z M1800 1300v-100h10l24 100h-34zM400 1100v-100h100v100h-100zM600 1100v-100h100v100h-100zM800 1100v-100h100v100h-100zM1000 1100v-100h100v100h-100zM1200 1100v-100h100v100h-100zM1400 1100v-100h100v100h-100zM1600 1100v-100h100v100h-100z" />
<glyph unicode="&#xe211;" d="M1539 1900v-1404q1 -16 -20 -20.5t-33 4.5l-896 696q-13 8 -14 21.5t14 26.5l894 692q12 13 33 8t22 -24z" />
<glyph unicode="&#xe212;" d="M864 1900v-1404q0 -16 21 -20.5t33 4.5l895 697q13 8 14 21.5t-14 26.5l-895 691q-12 13 -33 8t-21 -24z" />
<glyph unicode="&#xe213;" d="M501 1686h1404q16 0 20.5 -21t-4.5 -33l-696 -896q-8 -13 -21.5 -14t-26.5 14l-692 894q-13 12 -8 33.5t24 22.5z" />
<glyph unicode="&#xe214;" d="M1224 1664l692 -894q13 -12 8 -33.5t-24 -22.5h-1404q-16 0 -20.5 21t4.5 33l696 896q8 13 21.5 14t26.5 -14z" />
<glyph unicode="&#xe215;" d="M1677 1961l412 413q11 10 25.5 10t24.5 -10l242 -242q10 -10 10 -25t-10 -25l-413 -413l252 -252q10 -10 7 -18t-17 -10l-899 -115q-14 -2 -22.5 7t-7.5 23l115 899q2 14 10.5 17t18.5 -7zM190 1011l899 115q14 2 22.5 -7t7.5 -23l-115 -899q-1 -14 -10 -17t-19 7 l-252 252l-412 -413q-11 -10 -25.5 -10t-24.5 10l-242 242q-10 11 -10 25t10 25l413 412l-252 252q-10 11 -7 19t17 10z" />
<glyph unicode="&#xe216;" d="M2391 2353l-114 -898q-2 -14 -10.5 -17t-18.5 7l-252 251l-413 -412q-10 -10 -24.5 -10t-25.5 10l-242 242q-10 10 -9.5 24.5t10.5 24.5l412 413l-252 252q-10 10 -7 18.5t17 10.5l899 114q14 2 23 -7t7 -23zM405 704l-252 251q-10 10 -18.5 7t-10.5 -17l-114 -899 q-2 -14 6.5 -22.5t22.5 -6.5l899 114q14 2 17 10.5t-7 18.5l-252 252l413 413q10 10 10 24.5t-10 24.5l-242 242q-10 10 -24.5 10t-24.5 -10z" />
<glyph unicode="&#xe217;" d="M1194 2425q248 0 473.5 -96.5t389 -260t260 -389t96.5 -473.5t-96.5 -473.5t-260 -389t-389 -260t-473.5 -96.5t-473.5 96.5t-389 260t-260 389t-96.5 473.5t96.5 473.5t260 389t389 260t473.5 96.5zM1200 1400v353q0 21 -11 26.5t-27 -8.5l-640 -533q-16 -13 -16 -31.5 t16 -32.5l640 -533q16 -13 27 -7.5t11 25.5v341h550q21 0 35.5 14.5t14.5 35.5v300q0 21 -14.5 35.5t-35.5 14.5h-550z" />
<glyph unicode="&#xe218;" d="M1194 2425q248 0 473.5 -96.5t389 -260t260 -389t96.5 -473.5t-96.5 -473.5t-260 -389t-389 -260t-473.5 -96.5t-473.5 96.5t-389 260t-260 389t-96.5 473.5t96.5 473.5t260 389t389 260t473.5 96.5zM1878 1238l-639 533q-17 13 -28 8t-11 -26v-353h-550 q-21 0 -35.5 -14.5t-14.5 -35.5v-300q0 -21 14.5 -35.5t35.5 -14.5h550v-341q0 -20 11 -25.5t28 7.5l639 533q16 14 16 32.5t-16 31.5z" />
<glyph unicode="&#xe219;" d="M1294 2425q248 0 473.5 -96.5t389 -260t260 -389t96.5 -473.5t-96.5 -473.5t-260 -389t-389 -260t-473.5 -96.5t-473.5 96.5t-389 260t-260 389t-96.5 473.5t96.5 473.5t260 389t389 260t473.5 96.5zM1868 1238l-535 624q-13 16 -33 16t-33 -16l-537 -624q-14 -16 -9 -27 t26 -11h353v-550q0 -21 14.5 -35.5t35.5 -14.5h300q21 0 35.5 14.5t14.5 35.5v550h350q21 0 26 11t-8 27z" />
<glyph unicode="&#xe220;" d="M1194 2425q248 0 473.5 -96.5t389 -260t260 -389t96.5 -473.5t-96.5 -473.5t-260 -389t-389 -260t-473.5 -96.5t-473.5 96.5t-389 260t-260 389t-96.5 473.5t96.5 473.5t260 389t389 260t473.5 96.5zM1400 1200v550q0 20 -14.5 35t-35.5 15h-300q-21 0 -35.5 -15 t-14.5 -35v-550h-353q-21 0 -26.5 -11t8.5 -27l538 -624q13 -16 33 -16t33 16l535 624q13 16 8 27t-26 11h-350z" />
<glyph unicode="&#xe221;" d="M1200 2425q166 0 325 -44t293.5 -123t247.5 -192.5t192 -247.5t123 -293t44 -325t-44 -325t-123 -293.5t-192 -247.5t-247.5 -192t-293.5 -123t-325 -44t-325 44t-293 123t-247.5 192t-192.5 247.5t-123 293.5t-44 325t44 325t123 293t192.5 247.5t247.5 192.5t293 123 t325 44zM1200 2100q-183 0 -349.5 -71.5t-287 -192t-192 -287t-71.5 -349.5t71.5 -349.5t192 -287t287 -192t349.5 -71.5t349.5 71.5t287 192t192 287t71.5 349.5t-71.5 349.5t-192 287t-287 192t-349.5 71.5zM900 739v922q0 11 6.5 14.5t14.5 -3.5l774 -455q8 -7 7.5 -17 t-8.5 -17l-773 -455q-8 -7 -14.5 -3.5t-6.5 14.5z" />
<glyph unicode="&#xe222;" d="M90 1230l1070 789q16 12 28 6t12 -26v-452q47 -4 98.5 -11t135 -25.5t162 -44.5t171.5 -71t172 -102t155.5 -140.5t131 -182.5t88.5 -233t36 -287q-35 84 -92.5 152t-126.5 113t-151 80.5t-165.5 53.5t-170 31.5t-166 15.5t-152 4.5t-128.5 -0.5v-500q0 -21 -12 -27 t-28 7l-1068 791q-16 12 -16 29.5t16 29.5z" />
<glyph unicode="&#xe223;" d="M1200 1547v452q0 20 12 26t28 -6l1070 -789q16 -12 16 -29.5t-16 -29.5l-1068 -791q-17 -13 -28.5 -7t-12.5 27v500q-55 3 -128 0.5t-152 -4.5t-165.5 -15.5t-170 -31.5t-165.5 -53.5t-151 -80.5t-126.5 -113t-92.5 -152q2 153 36 287t88.5 233t131 182.5t155.5 140.5 t172 102t171.5 71t162 44.5t135 25.5t98.5 11z" />
<glyph unicode="&#xe224;" d="M2023 1200l-1050 -1049l-367 367l682 682l-682 682l367 367z" />
<glyph unicode="&#xe225;" d="M1797 1882l-681 -682l682 -682l-368 -367l-1049 1049l1049 1049z" />
<glyph unicode="&#xe230;" d="M903 1300h-403v-600h921l385 -500h-1656q-62 0 -106 44t-44 106v950h-396l635 864zM598 2100h1656q62 0 104 -45t42 -108v-947h400l-634 -864l-665 864h399v600h-917z" />
<glyph unicode="&#xe231;" d="M1254 2399q42 2 122 -2q29 -1 34.5 -13.5t-14.5 -25.5q-230 -148 -361.5 -390.5t-121.5 -523.5q7 -213 96.5 -403.5t234.5 -326t342.5 -212t411.5 -69.5q88 4 147 16q34 7 39.5 -2.5t-15.5 -32.5q-160 -177 -374 -277t-464 -108q-162 -5 -318 32.5t-289 109.5t-246.5 178 t-194.5 233.5t-129 280t-53 313.5t32.5 316t110 287.5t179 245.5t234.5 193.5t281.5 128t315.5 52.5z" />
<glyph unicode="&#xe234;" d="M-97 1222l2452 1204q18 10 25 3t-2 -25l-1253 -2407q-20 -37 -25 5v1198h-1192q-14 0 -19.5 3t-1.5 8t16 11zM1335 1457l684 607q14 15 10.5 18.5t-21.5 -6.5l-1260 -629q-19 -9 -17 -28t22 -19h496q26 0 86 57z" />
<glyph unicode="&#xe235;" d="M2482 2299q34 -34 5 -74q-1 -1 -220.5 -286.5t-458 -594t-277.5 -356.5q-56 -70 -110 -121.5t-82 -71.5q-12 -8 -83 -50.5t-136 -80.5l-66 -38q-15 -6 -25 -1.5t-12 16.5q-19 71 -66 117q-43 44 -120 66q-32 9 -17 36q141 258 162 285q15 20 76 79t126 118 q39 35 336.5 267.5t588.5 458t292 225.5q22 16 46.5 18.5t40.5 -12.5zM644 723q125 2 200 -73q75 -74 82 -180t-58 -191q-40 -45 -79 -71q-161 -107 -485 -108q-108 0 -251 12q-20 2 -22 22q-3 21 17 26q46 16 85 38t66.5 42.5t53 51.5t40 52.5t31.5 57.5t24 53.5t21 54.5 q23 61 59 105.5t75.5 66.5t74 31.5t66.5 9.5z" />
<glyph unicode="&#xe236;" d="M1984 2155l137 137q29 29 70.5 29t70.5 -29l133 -133q29 -29 29 -71t-29 -71l-136 -137q26 -29 25.5 -68.5t-28.5 -67.5l-1385 -1384l-408 408l1188 1187l44 45h-174l-618 -618l-3 2v137l579 579h317l51 52q28 28 68 28.5t69 -25.5zM744 306l-644 -306l316 634z" />
<glyph unicode="&#xe237;" d="M2252 -47l-610 610q-244 -158 -532 -158q-160 0 -310.5 50t-271.5 141t-212 212t-141 271.5t-50 310.5t50 310.5t141 271.5t212 212t271.5 141t310.5 50t310.5 -50t271.5 -141t212 -212t141 -271.5t50 -310.5q0 -286 -158 -532l610 -610q15 -15 15 -36.5t-15 -37.5 l-221 -221q-15 -15 -37 -15t-37 15zM1110 2062q-182 0 -337 -90t-245 -245t-90 -337t90 -337t245 -245t337 -90t337 90t245 245t90 337t-90 337t-245 245t-337 90zM1050 1800h100q21 0 35.5 -14.5t14.5 -35.5v-250h250q21 0 35.5 -14.5t14.5 -35.5v-100q0 -21 -14.5 -35.5 t-35.5 -14.5h-250v-250q0 -21 -14.5 -35.5t-35.5 -14.5h-100q-21 0 -35.5 14.5t-14.5 35.5v250h-250q-21 0 -35.5 14.5t-14.5 35.5v100q0 21 14.5 35.5t35.5 14.5h250v250q0 21 14.5 35.5t35.5 14.5z" />
<glyph unicode="&#xe238;" d="M2227 -47l-610 610q-244 -158 -532 -158q-160 0 -310.5 50t-271.5 141t-212 212t-141 271.5t-50 310.5t50 310.5t141 271.5t212 212t271.5 141t310.5 50t310.5 -50t271.5 -141t212 -212t141 -271.5t50 -310.5q0 -286 -158 -532l610 -610q15 -15 15 -36.5t-15 -37.5 l-221 -221q-15 -15 -37 -15t-37 15zM1085 2062q-182 0 -337 -90t-245 -245t-90 -337t90 -337t245 -245t337 -90t337 90t245 245t90 337t-90 337t-245 245t-337 90zM750 1500h700q21 0 35.5 -14.5t14.5 -35.5v-100q0 -21 -14.5 -35.5t-35.5 -14.5h-700q-21 0 -35.5 14.5 t-14.5 35.5v100q0 21 14.5 35.5t35.5 14.5z" />
<glyph unicode="&#xe241;" d="M1999 575l68 -73q33 -35 33 -76q0 -29 -19 -48q-2 -2 -17.5 -17t-38.5 -35t-61 -50q-78 -59 -155 -103.5t-178 -85t-224.5 -62t-264.5 -21.5q-86 0 -186.5 23t-211 72t-216.5 118t-202 169.5t-168.5 218.5t-115 272t-42.5 323q0 244 95 466t256 383t383 256t466 95 q157 0 309.5 -41.5t282 -115t240 -176.5t189.5 -223t125 -258t51 -279l1 -7h252q28 0 28 -20q0 -11 -8 -20l-390 -570q-12 -17 -30 -17t-30 17l-390 570q-8 9 -8 20q0 20 28 20h247q-7 159 -81.5 306.5t-194 255.5t-282.5 173t-339 65q-183 0 -349.5 -71.5t-287 -192 t-192 -287t-71.5 -349.5q0 -133 33.5 -252.5t89 -208.5t129.5 -163.5t153.5 -124t162 -84t154 -50t130.5 -15.5q196 0 333 43.5t265 143.5q58 46 126 108q17 16 44 16q44 0 79 -38zM1139 1700h122q100 0 169.5 -72t69.5 -176v-152h50q21 0 35.5 -14.5t14.5 -35.5v-500 q0 -21 -14.5 -35.5t-35.5 -14.5h-700q-21 0 -35.5 14.5t-14.5 35.5v500q0 21 14.5 35.5t35.5 14.5h50v152q0 104 69.5 176t169.5 72zM1300 1300v152q0 22 -10.5 35t-28.5 13h-122q-18 0 -28.5 -13t-10.5 -35v-152h200z" />
<glyph unicode="&#xe242;" d="M996 1000h-469q-20 0 -25.5 17.5t7.5 33.5l985 1307q10 17 19 14.5t5 -22.5l-213 -905q-7 -19 2 -32t30 -13h469q20 0 26 -12t-7 -28q-967 -1305 -984 -1327q-14 -18 -22.5 -14.5t-2.5 29.5l216 916q9 36 -36 36z" />
<glyph unicode="&#xe243;" d="M1200 2398q147 0 281.5 -57.5t231 -154.5t154 -231t57.5 -281q0 -48 -12 -110.5t-24 -101.5l-12 -39q-86 -219 -249.5 -569.5t-284.5 -591.5l-121 -241q-9 -19 -21 -19t-21 19q-52 102 -134 266.5t-258.5 540.5t-262.5 595q-48 144 -48 251q0 147 57.5 281t154 231 t231 154.5t281.5 57.5zM1200 2004q-136 0 -233 -97t-97 -233q0 -137 96.5 -234t233.5 -97t234 97t97 234t-97 233.5t-234 96.5z" />
<glyph unicode="&#xe245;" d="M2265 863l-345 180q-171 -51 -349 -51q-235 0 -433.5 80.5t-314 219t-115.5 301.5t115.5 301t314 218.5t433.5 80.5t433.5 -80.5t314 -218.5t115.5 -301q0 -114 -58.5 -217.5t-164.5 -185.5l83 -304q5 -18 -3.5 -25t-25.5 2zM147 465l84 308q-107 83 -166.5 187.5 t-59.5 220.5q0 191 153 344.5t400 221.5q-32 -94 -32 -187q0 -155 79.5 -294.5t215 -239.5t324 -158.5t398.5 -58.5q5 0 15 0.5t14 0.5q-123 -110 -304 -174t-388 -64q-184 0 -354 53l-349 -183q-17 -10 -26 -3t-4 26z" />
<glyph unicode="&#xe246;" d="M206 336l113 475q-146 112 -226.5 255t-80.5 300q0 135 60 261t170 228t256 178.5t327 118t375 41.5q242 0 462 -65.5t379 -176t253.5 -264t94.5 -321.5t-94.5 -321.5t-253.5 -264t-379 -176t-462 -65.5q-249 0 -481 71l-483 -298q-18 -10 -27 -2.5t-3 26.5z" />
</font>
</defs>
</svg>
