<?xml version="1.0" standalone="no"?>
<!DOCTYPE svg PUBLIC "-//W3C//DTD SVG 1.1//EN" "http://www.w3.org/Graphics/SVG/1.1/DTD/svg11.dtd" >
<svg xmlns="http://www.w3.org/2000/svg">
<metadata></metadata>
<defs>
<font id="glyphiconsregular" horiz-adv-x="2400" >
<font-face units-per-em="2400" ascent="1920" descent="-480" />
<missing-glyph horiz-adv-x="500" />
<glyph />
<glyph />
<glyph unicode="&#xd;" />
<glyph unicode=" " />
<glyph unicode="*" d="M200 1050v300q0 20 14.5 35t35.5 15h467l-302 302q-15 15 -15 36t15 35l212 212q14 15 35.5 15t35.5 -15l302 -302v467q0 21 14.5 35.5t35.5 14.5h300q21 0 35.5 -15t14.5 -35v-468l303 303q15 15 36 15t35 -15l212 -212q15 -15 15 -36t-15 -36l-301 -301h465 q21 0 35.5 -15t14.5 -35v-300q0 -21 -14.5 -35.5t-35.5 -14.5h-466l302 -303q15 -14 15 -35.5t-15 -35.5l-212 -212q-14 -15 -35.5 -15t-35.5 15l-303 302v-466q0 -21 -14.5 -35.5t-35.5 -14.5h-300q-21 0 -35.5 14.5t-14.5 35.5v465l-302 -301q-14 -15 -35 -15t-36 15 l-212 211q-14 15 -14 36t14 36l303 303h-468q-21 0 -35.5 14.5t-14.5 35.5z" />
<glyph unicode="&#xf7;" d="M300 1050v300q0 21 14.5 35.5t35.5 14.5h1700q21 0 35.5 -14.5t14.5 -35.5v-300q0 -21 -14.5 -35.5t-35.5 -14.5h-1700q-21 0 -35.5 14.5t-14.5 35.5zM1000 450v300q0 21 14.5 35.5t35.5 14.5h300q21 0 35.5 -14.5t14.5 -35.5v-300q0 -21 -14.5 -35.5t-35.5 -14.5h-300 q-21 0 -35.5 14.5t-14.5 35.5zM1000 1650v300q0 21 14.5 35.5t35.5 14.5h300q21 0 35.5 -14.5t14.5 -35.5v-300q0 -21 -14.5 -35.5t-35.5 -14.5h-300q-21 0 -35.5 14.5t-14.5 35.5z" />
<glyph unicode="&#x2da;" d="M128 1007q-1 224 80 396.5t285 331.5l313 -313q-135 -80 -223.5 -225.5t-88.5 -333.5q0 -24 1 -36q5 -103 63 -207.5t146.5 -185t206 -131.5t234.5 -51q116 0 232 51.5t202.5 133t143 185.5t61.5 205q1 12 1 36q0 188 -88.5 333.5t-223.5 225.5l313 313 q206 -160 291 -333.5t84 -394.5q-1 -205 -71.5 -384t-199 -312t-321 -210t-424.5 -77t-424.5 77t-321 210t-199.5 312t-72 384zM495 2000l368 368q27 -32 52 -53l-220 -515zM895 1641l262 -282l238 282q-13 -9 -35.5 -22t-86 -35t-120.5 -22t-121.5 20t-100.5 40zM895 1800 l129 452q64 -23 125 -23q57 0 117 21l129 -450q-5 -4 -13.5 -10t-36.5 -21t-56 -27t-67.5 -21.5t-76.5 -9.5q-58 0 -120.5 22.5t-96.5 44.5zM969 2400h360q-77 -71 -180 -71t-180 71zM1376 2310q28 23 55 54l364 -364l-200 -200z" />
<glyph unicode="&#x20ac;" d="M160 800l80 300h263q-1 24 -1.5 61t0.5 39h-342l80 300h300q80 377 309.5 583t579.5 206q156 0 296.5 -53.5t251 -152.5t183 -249.5t90.5 -333.5h-402q-20 153 -143 268.5t-276 115.5q-196 0 -304 -83.5t-159 -300.5h674l-80 -300h-642q-1 0 -1 -18.5t0.5 -43.5t1.5 -38 h621l-80 -300h-481q29 -78 69 -143t94.5 -118.5t128 -83.5t158.5 -30q187 0 293.5 123t130.5 352h402q-16 -187 -82.5 -348.5t-172.5 -279t-253.5 -184.5t-317.5 -67q-168 0 -314.5 59.5t-256.5 165.5t-188.5 246.5t-121.5 307.5h-388z" />
<glyph unicode="&#x2601;" d="M-86 697q0 126 87 214.5t210 88.5h2q-1 34 -1.5 52t-1 20t-0.5 3.5v6.5q0 140 67 265.5t183.5 201.5t252.5 76q56 0 103 -11q65 212 241.5 346.5t398.5 134.5q182 0 337 -92.5t245 -251t90 -345.5v-3q126 -4 234 -78t170 -192.5t62 -250.5q0 -149 -80 -277t-213 -205 h-2144q-107 0 -175 90t-68 207z" />
<glyph unicode="&#x2602;" d="M-100 1028q0 264 94 507.5t254 426t382.5 298.5t469.5 134v105q0 41 29.5 70.5t70.5 29.5t70.5 -29.5t29.5 -70.5v-105q247 -18 469.5 -134t382.5 -298.5t254 -426t94 -507.5h-5q-136 269 -441 269q-130 0 -240.5 -51.5t-186.5 -148.5q-79 101 -190.5 161t-236.5 60 q-123 0 -234.5 -63.5t-192.5 -167.5q-77 100 -188 156t-238 56q-305 0 -442 -271h-5zM500 199v49q0 21 14.5 35.5t35.5 15.5h100q21 -1 35.5 -15.5t14.5 -35.5v-49q0 -38 9.5 -71t31 -63t62 -47.5t97.5 -17.5q56 0 97 18.5t60 41t29.5 55.5t12 49.5t1.5 34.5v880q0 3 14 7.5 t38 8.5t48 4t48 -4t38 -8.5t14 -7.5v-880q0 -75 -25 -145t-73.5 -127.5t-129 -92t-181.5 -34.5q-179 0 -285 107.5t-106 291.5z" />
<glyph unicode="&#x2609;" d="M0 1100v200h401q-7 0 -7 -100t7 -100h-401zM278 425l284 285q62 -81 148 -148l-285 -284zM278 1975l147 147l285 -284q-83 -65 -148 -148zM712 1200q0 131 66 243.5t178.5 178.5t243.5 66t243.5 -66t178.5 -178.5t66 -243.5t-66 -243.5t-178.5 -178.5t-243.5 -66 t-243.5 66t-178.5 178.5t-66 243.5zM1100 0v401q0 -7 100 -7t100 7v-401h-200zM1100 1999v401h200v-401q0 7 -100 7t-100 -7zM1690 562q86 67 148 148l284 -285l-147 -147zM1690 1838l285 284l147 -147l-284 -285q-65 83 -148 148zM1999 1100q7 0 7 100t-7 100h401v-200 h-401z" />
<glyph unicode="&#x2693;" d="M4 849q-3 20 10 32.5t33 9.5l644 -92q20 -3 24.5 -15.5t-9.5 -26.5l-167 -168q96 -104 206.5 -170t254.5 -95v1330q-84 58 -143 150.5t-59 195.5q0 166 116.5 283t282.5 117q165 0 283 -117.5t118 -282.5q0 -104 -57.5 -196.5t-140.5 -149.5v-1330q143 29 251.5 94.5 t204.5 169.5l-170 168q-15 15 -10.5 27.5t24.5 15.5l643 91q21 3 33.5 -9.5t9.5 -32.5l-92 -643q-3 -21 -15.5 -25t-26.5 10l-188 188q-168 -177 -393 -277.5t-476 -100.5q-253 0 -478.5 99.5t-392.5 276.5l-185 -185q-15 -15 -27.5 -10.5t-15.5 24.5zM984 2000 q0 -87 62 -149t150 -62q87 0 148.5 62t61.5 149t-61.5 149t-148.5 62q-88 0 -150 -62t-62 -149z" />
<glyph unicode="&#x2698;" d="M300 1090q72 -21 147 -40t113.5 -28t80 -21.5t66 -26.5t50 -36.5t51.5 -56.5q52 -66 65 -138.5t-4 -156.5l231 -231v766q-188 23 -346 137.5t-217 285.5q-70 204 -33 449q101 7 217 7q-6 54 -4.5 112t5.5 103l5 45q65 12 157 12q-41 -52 -68.5 -148t-35.5 -166l-7 -70 l100 -26q197 -52 266 -220l111 -272l111 272q69 168 266 220l100 26q-1 11 -2.5 29.5t-10 71t-19.5 99t-32 99.5t-47 85q41 0 80 -3t58 -6l19 -3q2 -18 4.5 -45t6 -103t-4.5 -112q116 0 217 -7q37 -247 -33 -449q-59 -171 -217 -285.5t-346 -137.5v-766l231 231 q-6 36 -8.5 60.5t-0.5 66.5t19.5 84.5t49.5 83.5l1 1q31 39 65.5 65.5t83.5 44.5t91 29t123 30.5t145 38.5q0 -131 -20.5 -234t-53.5 -166.5t-78.5 -106.5t-90.5 -61.5t-96 -23.5t-88.5 0t-73.5 15l-299 -299v-214h-300v214l-299 299q-35 -10 -73 -15t-88.5 0t-96 23.5 t-91 61.5t-78.5 106.5t-53.5 166.5t-20.5 234zM928 1987q7 75 43 152.5t82 134t91 102t76 68.5l30 24q12 -9 32 -24.5t72.5 -67t94 -104.5t79 -131.5t44.5 -153.5q-144 -38 -227 -122q-59 -59 -95 -148q-36 89 -95 148q-83 84 -227 122z" />
<glyph unicode="&#x2708;" d="M0 435v171q0 21 11 45t27 38l862 719v698q0 117 82 205.5t221 88.5t218 -88t79 -206v-698l862 -719q16 -14 27 -38t11 -45v-170q0 -20 -13 -28t-31 1l-956 497v-600l261 -211q16 -13 27.5 -36.5t11.5 -44.5v-75q0 -21 -14 -31.5t-34 -4.5l-352 103q-20 6 -100 6t-100 -6 l-352 -103q-20 -6 -34 4.5t-14 31.5v75q0 21 11.5 44.5t27.5 36.5l261 211v600l-956 -498q-18 -9 -31 -1t-13 28z" />
<glyph unicode="&#x2709;" d="M0 400l700 700l500 -500l500 500l700 -700h-2400zM0 600v1200l600 -600zM0 2000h2400l-1200 -1200zM1800 1200l600 600v-1200z" />
<glyph unicode="&#x270f;" d="M2 31l236 615l408 -408l-615 -236q-19 -8 -28 0.5t-1 28.5zM362 770l1284 1283l408 -407l-1284 -1285zM1769 2177l153 153l51 51q21 21 51 21t51 -21l306 -306q21 -21 21 -51t-21 -51l-51 -51l-102 -102l-51 -51l-51 51l-306 306z" />
<glyph unicode="&#x2744;" d="M-198 1200q0 38 26 69t72 31h159l-95 94q-22 22 -27.5 48.5t3 49.5t27 41.5t41.5 27t49.5 3t48.5 -27.5l235 -236h300l106 212l-188 188h-359q-46 0 -72 31t-26 69t26 69t72 31h159l-149 148q-22 22 -27.5 48.5t3 49.5t27 41.5t41.5 27t49.5 3t48.5 -27.5l148 -149v159 q0 46 31 72t69 26t69 -26t31 -72v-359l189 -188l211 106v300l-236 235q-22 22 -27.5 48.5t3 49.5t27 41.5t41.5 27t49.5 3t48.5 -27.5l94 -95v159q0 46 31 72t69 26t69 -26t31 -72v-159l94 95q22 22 48.5 27.5t49.5 -3t41.5 -27t27 -41.5t3 -49.5t-27.5 -48.5l-236 -235 v-300l212 -106l188 188v359q0 46 31 72t69 26t69 -26t31 -72v-159l149 149q19 19 41.5 26t42.5 2t38.5 -16.5t30 -30.5t16.5 -39t-2 -42.5t-26 -41.5l-149 -148h159q46 0 72 -31t26 -69t-26 -69t-72 -31h-359l-188 -188l106 -212h300l235 236q22 22 48.5 27.5t49.5 -3 t41.5 -27t27 -41.5t3 -49.5t-27.5 -48.5l-95 -94h159q46 0 72 -31t26 -69t-26 -69t-72 -31h-159l95 -94q22 -22 27.5 -48.5t-3 -49.5t-27 -41.5t-41.5 -27t-49.5 -3t-48.5 27.5l-235 236h-300l-106 -211l188 -189h359q46 0 72 -31t26 -69t-26 -69t-72 -31h-159l149 -149 q19 -19 26 -41.5t2 -42.5t-16.5 -38.5t-30 -30t-38.5 -16.5t-42.5 2t-41.5 26l-149 149v-159q0 -46 -31 -72t-69 -26t-69 26t-31 72v359l-189 188l-211 -106v-300l236 -235q22 -22 27.5 -48.5t-3 -49.5t-27 -41.5t-41.5 -27t-49.5 -3t-48.5 27.5l-94 95v-159q0 -46 -31 -72 t-69 -26t-69 26t-31 72v159l-94 -95q-22 -22 -48.5 -27.5t-49.5 3t-41.5 27t-27 41.5t-3 49.5t27.5 48.5l236 235v300l-212 106l-188 -188v-359q0 -46 -31 -72t-69 -26t-69 26t-31 72v159l-148 -149q-19 -19 -41.5 -26t-42.5 -2t-39 16.5t-30.5 30t-16.5 38.5t2 42.5 t26 41.5l149 149h-159q-46 0 -72 31t-26 69t26 69t72 31h359l188 188l-106 212h-300l-235 -236q-43 -43 -97.5 -24t-68.5 68t24 98l95 94h-159q-46 0 -72 31t-26 69zM815 1200l128 -257l257 -128l257 128l128 257l-128 257l-257 128l-257 -128z" />
<glyph unicode="&#xe000;" horiz-adv-x="500" d="M0 0z" />
<glyph unicode="&#xe001;" d="M58 2400h2284l-1050 -1288v-827l700 -233v-50h-1600v50l700 233v834zM388 2200l704 -899l-404 899h-300z" />
<glyph unicode="&#xe002;" d="M1 -22l437 440q30 0 119.5 -14.5t216 -29t244.5 -14.5q105 0 202 11.5t208 43.5t209 83t198 135.5t181.5 194.5t154 267t122 347t78 440t28.5 540q-163 -47 -342 -93t-302.5 -75t-258.5 -64t-231 -65t-197.5 -73t-180.5 -94t-157.5 -122t-149.5 -162q-252 -324 -252 -718 q0 -85 10.5 -172.5t25.5 -168.5t18 -112l-381 -383v-142zM536 647q0 25 28 89q43 102 121.5 202.5t165 178.5t201 158t206.5 134t204 114q228 121 318 181q203 135 323 311q70 103 85 103q4 0 4 -8q0 -13 -10 -43.5t-20 -54.5l-10 -25q-63 -130 -146 -240.5t-148 -178.5 t-182 -148t-173 -112t-195 -107l-1 -1q-210 -113 -414.5 -252.5t-282.5 -244.5q-14 -19 -36 -42.5t-32 -23.5q-6 0 -6 10z" />
<glyph unicode="&#xe003;" d="M0 100v1044q0 21 9 47.5t21 43.5l191 265q12 17 10 39.5t-18 35.5l-194 248q-16 15 -18.5 35.5t13.5 37.5q10 10 23.5 11t19.5 -1.5t25 -10.5q163 -120 224 -158q27 -17 61 -26.5t54 -10.5h20h740q26 0 48 5t35.5 12t23 14.5t13.5 12.5l4 5q14 14 35 14t35 -14l385 -411 q15 -15 27.5 -40.5t12.5 -44.5v-1153q0 -41 -29.5 -70.5t-70.5 -29.5h-100q-41 0 -70.5 29.5t-29.5 70.5v664q0 21 -11.5 37.5t-30.5 18.5l-858 180q-21 2 -48 -6t-42 -22l-210 -369v-503q0 -41 -29.5 -70.5t-70.5 -29.5h-100q-41 0 -70.5 29.5t-29.5 70.5zM1470 1893 q0 21 14 35l524 524q24 25 45 35t34 1t13 -37v-151q2 -55 21 -73l465 -458q14 -15 11 -32t-20 -29l-316 -210q-17 -12 -39.5 -11t-39.5 14l-67 56q-17 13 -38.5 12t-35.5 -15l-107 -107q-15 -15 -36 -15t-35 15l-379 410q-14 15 -14 36z" />
<glyph unicode="&#xe004;" d="M50 150v235q0 80 20.5 120.5t79.5 73.5q481 278 700 373v376q-100 74 -100 224v298q0 126 48.5 226t152.5 162t249 62t249 -62t152.5 -162t48.5 -226v-298q0 -149 -100 -223v-377q186 -76 700 -373q59 -33 79.5 -73.5t20.5 -120.5v-235q0 -21 -14.5 -35.5t-35.5 -14.5 h-2200q-20 0 -35 14.5t-15 35.5z" />
<glyph unicode="&#xe005;" d="M199.5 217.5q-0.5 11.5 5 44.5t19 64t47.5 70t83 69q21 12 121.5 82.5t218.5 146t206 120.5v202l-249 92l-206 -313l-230 231l347 116l138 258v400q0 131 61.5 244.5t177.5 184.5t261 71q130 0 240.5 -71t177.5 -184.5t82 -244.5v-400l137 -258l348 -116l-230 -231 l-206 313l-249 -92v-202q88 -45 206 -120.5t218.5 -146t121.5 -82.5q49 -30 83 -68t47.5 -71.5t19.5 -62.5t5 -46l-1 -17v-50q0 -21 -15 -35.5t-35 -14.5h-1900q-21 0 -35.5 14.5t-14.5 35.5v50h1q-1 6 -1.5 17.5z" />
<glyph unicode="&#xe006;" d="M-100 1450v100q0 21 14.5 35.5t35.5 14.5h190l164 547q44 89 90.5 121t141.5 32h1328q95 0 141.5 -32t90.5 -121l164 -547h190q21 0 35.5 -14.5t14.5 -35.5v-100q0 -21 -14.5 -35.5t-35.5 -14.5h-92l42 -100v-1150q0 -21 -14.5 -35.5t-35.5 -14.5h-200q-20 0 -35 14.5 t-15 35.5v150h-1800v-150q0 -21 -14.5 -35.5t-35.5 -14.5h-200q-20 0 -35 14.5t-15 35.5v1150l42 100h-92q-21 0 -35.5 14.5t-14.5 35.5zM100 1000l100 -100h300v200l-400 110v-210zM344 1600h1712q-102 423 -119 460q-23 40 -60 40h-1354q-37 0 -60 -40q-8 -16 -37.5 -131 t-55.5 -222zM800 500h800v200h-800v-200zM1900 900h300l100 100v210l-400 -110v-200z" />
<glyph unicode="&#xe007;" d="M-200 1250v100q0 21 14.5 35.5t35.5 14.5h350v350q0 21 14.5 35.5t35.5 14.5h100q21 0 35.5 -14.5t14.5 -35.5v-350h350q21 0 35.5 -14.5t14.5 -35.5v-100q0 -21 -14.5 -35.5t-35.5 -14.5h-350v-350q0 -21 -14.5 -35.5t-35.5 -14.5h-100q-21 0 -35.5 14.5t-14.5 35.5v350 h-350q-21 0 -35.5 14.5t-14.5 35.5zM300 150v235q0 80 20.5 120.5t79.5 73.5q481 278 700 373v376q-100 74 -100 224v298q0 126 48.5 226t152.5 162t249 62t249 -62t152.5 -162t48.5 -226v-298q0 -149 -100 -223v-377q186 -76 700 -373q59 -33 79.5 -73.5t20.5 -120.5v-235 q0 -21 -14.5 -35.5t-35.5 -14.5h-2200q-20 0 -35 14.5t-15 35.5z" />
<glyph unicode="&#xe008;" d="M-100 1250v100q0 21 14.5 35.5t35.5 14.5h700q21 0 35.5 -14.5t14.5 -35.5v-100q0 -21 -14.5 -35.5t-35.5 -14.5h-700q-21 0 -35.5 14.5t-14.5 35.5zM200 150v235q0 80 20.5 120.5t79.5 73.5q481 278 700 373v376q-100 74 -100 224v298q0 126 48.5 226t152.5 162t249 62 t249 -62t152.5 -162t48.5 -226v-298q0 -149 -100 -223v-377q186 -76 700 -373q59 -33 79.5 -73.5t20.5 -120.5v-235q0 -21 -14.5 -35.5t-35.5 -14.5h-2200q-21 0 -35.5 14.5t-14.5 35.5z" />
<glyph unicode="&#xe009;" d="M100 0v2400q0 41 29.5 70.5t70.5 29.5h2000q41 0 70.5 -29.5t29.5 -70.5v-2400q0 -41 -29.5 -70.5t-70.5 -29.5h-2000q-41 0 -70.5 29.5t-29.5 70.5zM200 100h300v200h-300v-200zM200 500h300v200h-300v-200zM200 900h300v200h-300v-200zM200 1300h300v200h-300v-200z M200 1700h300v200h-300v-200zM200 2100h300v200h-300v-200zM600 100h1200v1000h-1200v-1000zM600 1300h1200v1000h-1200v-1000zM1900 100h300v200h-300v-200zM1900 500h300v200h-300v-200zM1900 900h300v200h-300v-200zM1900 1300h300v200h-300v-200zM1900 1700h300v200 h-300v-200zM1900 2100h300v200h-300v-200z" />
<glyph unicode="&#xe010;" d="M3 1737l494 -143l154 -499l146 499l493 148l-493 152l-150 500l-150 -500zM15 198q0 21 14 35l1572 1572l212 -213l-1572 -1571q-14 -15 -35 -15t-35 15l-142 141q-14 15 -14 36zM1108 539l344 -101l101 -344l101 344l343 101l-343 101l-101 344l-101 -344zM1708 1149 l266 -79l79 -266l78 266l266 79l-266 78l-78 267l-79 -267zM1760 1964l403 402q14 15 35 15t35 -15l142 -141q14 -15 14 -35.5t-14 -35.5l-403 -402z" />
<glyph unicode="&#xe012;" d="M-100 540v1020q0 140 100 240t240 100h341q1 3 3 11l32 78q35 87 126 149t185 62h546q94 0 185 -62t126 -149l32 -78q2 -8 3 -11h341q140 0 240 -100t100 -240v-1020q0 -140 -100 -240t-240 -100h-1920q-140 0 -240 100t-100 240zM675 1000q0 -142 70.5 -263 t191.5 -191.5t263 -70.5q107 0 204 41.5t167.5 112t112 168t41.5 203.5t-41.5 203.5t-112 168t-167.5 112t-204 41.5q-142 0 -263 -70.5t-191.5 -191.5t-70.5 -263zM925 1000q0 114 80.5 194.5t194.5 80.5t194.5 -80.5t80.5 -194.5t-80.5 -194.5t-194.5 -80.5t-194.5 80.5 t-80.5 194.5zM2000 1500h200v100h-200v-100z" />
<glyph unicode="&#xe013;" d="M0 1616q0 103 34.5 201.5t93.5 177.5t140 140.5t171.5 97.5t191 40.5t195.5 -23t187.5 -99t164.5 -182.5q77 111 172 182.5t191 99t195.5 23t189 -40.5t169 -97.5t137 -140.5t91 -177.5t33.5 -201.5q0 -89 -38 -181.5t-108.5 -185t-159 -186t-200 -202t-219.5 -216 t-231 -246.5t-222 -274q-99 135 -222 274t-231 246.5t-219.5 216t-200 202t-159 186t-108.5 185t-38 181.5z" />
<glyph unicode="&#xe014;" d="M0 1647q27 61 57 112q119 206 303.5 350.5t396 209.5t444 51t443.5 -114l54 93q21 36 62 47t78 -10q36 -21 47 -62t-10 -78l-54 -93q192 -133 320.5 -327t178 -409.5t17 -447.5t-151.5 -438q-33 -57 -64 -98q8 135 -55 255.5t-183 189.5q-95 55 -205 62t-205 -31 q-8 125 -73.5 234t-178.5 175q-112 65 -240 68t-236 -52q-18 105 -78 193t-154 142q-127 71 -263.5 63.5t-249.5 -85.5zM353 19l669 1158q52 -11 98 -37q45 -27 79 -64l-610 -1057h-236zM409 1909l33 -11q88 -28 142 -51.5t103.5 -60.5t86 -86t77.5 -126l16 -30l18 29 q61 97 130.5 176.5t129.5 128.5t123 85.5t107.5 54t86.5 27.5t57.5 11.5t22.5 1.5l8 38q-205 92 -428 92q-190 0 -367.5 -66.5t-319.5 -190.5zM1593 1124l34 2q9 0 25 0.5t24 0.5q138 0 226.5 -41t209.5 -152l26 -24l7 34q58 299 -54.5 584t-360.5 463l-28 -25l1 -1 q52 -105 54 -264q3 -262 -147 -546z" />
<glyph unicode="&#xe015;" d="M200 -100l536 600h-136q-61 0 -116.5 22t-94.5 57.5t-72 78t-54 85t-36 78t-21 57.5l-6 22v400l170 1003q12 82 79.5 139.5t150.5 57.5h1200q83 0 150.5 -57.5t80.5 -139.5l169 -1003v-400q-2 -8 -6.5 -22.5t-20.5 -56t-36 -79.5t-54 -84t-72.5 -79t-94 -56t-116.5 -23 h-144l544 -600h-400l-327 600h-554l-319 -600h-400zM400 900l400 -100v200l-400 200v-300zM400 1400q16 -9 45.5 -25t120 -55.5t181 -70t216 -55.5t237.5 -25t235.5 24t220 57.5t177 67.5t123.5 58l44 24l-150 872q-2 8 -13 18t-20 10h-1229q-9 0 -20.5 -10t-12.5 -18z M1600 800l400 100v300l-400 -200v-200z" />
<glyph unicode="&#xe016;" d="M0 253v1397q0 21 14.5 35.5t35.5 14.5h297q21 0 37 -14.5t16 -35.5v-300q0 -21 13 -35.5t34 -14.5h1503q21 0 35.5 14.5t14.5 35.5v300q0 21 14.5 35.5t35.5 14.5h300q21 0 35.5 -14.5t14.5 -35.5v-1397q0 -21 -14.5 -37t-35.5 -16h-370q-21 0 -39 15t-23 35l-39 202 q-5 20 -23 34t-39 14h-1234q-20 0 -38.5 -14.5t-23.5 -34.5l-39 -201q-5 -20 -23 -35t-39 -15h-370q-21 0 -35.5 16t-14.5 37zM100 1498q0 -42 29.5 -71t70.5 -29t70.5 29t29.5 71q0 41 -29.5 70.5t-70.5 29.5t-70.5 -29.5t-29.5 -70.5zM505 1456l190 894q2 21 18 35.5 t37 14.5h900q21 0 37 -14.5t18 -35.5l190 -894q2 -20 -11 -35t-34 -15h-1300q-21 0 -34 15t-11 35zM562 48l76 304q5 20 23 34t39 14h1000q21 0 39 -14t23 -34l76 -304q5 -20 -6 -34t-32 -14h-1200q-21 0 -32 14t-6 34z" />
<glyph unicode="&#xe017;" d="M200 2050v100q0 21 14.5 35.5t35.5 14.5h550v200q0 82 59 141t141 59h400q82 0 141 -59t59 -141v-200h550q21 0 35.5 -14.5t14.5 -35.5v-100q0 -21 -14.5 -35.5t-35.5 -14.5h-1900q-21 0 -35.5 14.5t-14.5 35.5zM300 -167v2017q0 25 11 37.5t39 12.5h1679q71 0 71 -41 v-2009q0 -23 -20.5 -36.5t-50.5 -13.5h-1679q-17 0 -29.5 8t-16.5 16zM600 150q0 -21 14.5 -35.5t35.5 -14.5h100q21 0 35.5 14.5t14.5 35.5v1400q0 21 -14.5 35.5t-35.5 14.5h-100q-21 0 -35.5 -14.5t-14.5 -35.5v-1400zM1000 2200h400v200h-400v-200zM1100 150 q0 -21 14.5 -35.5t35.5 -14.5h100q21 0 35.5 14.5t14.5 35.5v1400q0 21 -14.5 35.5t-35.5 14.5h-100q-21 0 -35.5 -14.5t-14.5 -35.5v-1400zM1600 150q0 -21 14.5 -35.5t35.5 -14.5h100q21 0 35.5 14.5t14.5 35.5v1400q0 21 -14.5 35.5t-35.5 14.5h-100q-21 0 -35.5 -14.5 t-14.5 -35.5v-1400z" />
<glyph unicode="&#xe018;" d="M128 169q36 -111 172 -158t295 2q129 42 214.5 125.5t90.5 161.5v1274l1100 293v-980q-119 29 -277 -22q-157 -51 -244 -168.5t-51 -227.5q36 -111 172 -158t295 2q129 41 214.5 125t90.5 162v1761q0 21 -14 31.5t-34 5.5l-1404 -369q-20 -6 -34 -24.5t-14 -39.5v-1378 q-117 30 -277 -22q-157 -51 -244 -168.5t-51 -227.5z" />
<glyph unicode="&#xe019;" d="M360 200q-28 87 10 181.5t131 172t219 118.5q134 43 283 20l1 1647q0 25 18 43t43 18h174q25 0 43 -18t18 -43v-55q44 -22 139 -59.5t171.5 -71t159.5 -81t139.5 -111.5t75.5 -140q25 -96 11 -180.5t-45.5 -151t-78 -118.5t-85.5 -82t-68 -42q-38 -14 -42 -6.5t10 23.5 l14 17q6 9 15 24t28 60t28 88.5t3.5 101t-33.5 104.5q-27 45 -89 73.5t-123.5 37.5t-130 23.5t-99.5 32.5v-1415q0 -2 -1 -5.5t-1 -5.5q-12 -114 -113.5 -217.5t-256.5 -153.5q-132 -39 -248 -32t-203.5 61t-116.5 142z" />
<glyph unicode="&#xe020;" d="M22 1616q0 103 34.5 201.5t93.5 177.5t140 140.5t171.5 97.5t191 40.5t195.5 -23t187.5 -99t164.5 -182.5q77 111 172 182.5t191 99t195.5 23t189 -40.5t169 -97.5t137 -140.5t91 -177.5t33.5 -201.5q0 -89 -38 -181.5t-108.5 -185t-159 -186t-200 -202t-219.5 -216 t-231 -246.5t-222 -274q-99 135 -222 274t-231 246.5t-219.5 216t-200 202t-159 186t-108.5 185t-38 181.5zM272 1616q0 -45 27.5 -102.5t62.5 -107t109 -130t124 -130.5t150 -148q287 -279 455 -472q149 172 457 475q70 68 107 105t95.5 97t90 96.5t71.5 86.5t59.5 85.5 t33.5 74t14 70.5q0 85 -36 162t-93.5 130t-129 84.5t-142.5 31.5q-185 0 -321 -198l-212 -305l-203 311q-126 192 -307 192q-73 0 -146.5 -31.5t-132.5 -84.5t-96 -130t-37 -162z" />
<glyph unicode="&#xe021;" d="M-97 1200l1349 1342v-5l348 -345v308h400v-705l600 -595h-400v-1200h-700v800h-500v-800h-700v1200h-397z" />
<glyph unicode="&#xe023;" d="M247 819q2 42 10.5 106t25.5 115.5t47 115t71.5 116t103 107.5t137.5 100q-6 -16 -20 -53q-17 -45 -26 -70.5t-24.5 -74t-20 -79t-8.5 -72t5.5 -67.5t26 -51.5t50 -38.5t79.5 -15q36 -1 64.5 4t49 19.5t35 31.5t22 46t12 55.5t2 68.5t-5.5 76t-11.5 87.5t-15.5 93.5 t-19 103q-21 118 -32 181q-15 96 -5.5 182.5t38.5 162t66.5 138.5t78.5 113t75 84.5t56 52.5l23 18q-14 -136 30.5 -316t120 -334t170.5 -267.5t173 -128.5q87 -17 86 86q-1 132 -147 441q175 -83 304.5 -203t203 -253t109 -284.5t33.5 -297t-34 -290.5 q-35 -158 -100 -274.5t-156.5 -190.5t-199.5 -114.5t-243 -55.5q-96 -10 -99 42t49 149q18 42 28.5 67.5t26 67.5t25.5 81.5t15 79.5q13 109 -44.5 257.5t-157.5 267.5q3 -53 -4 -125t-24 -158t-46.5 -174.5t-68.5 -173.5t-93 -156t-116.5 -121t-143.5 -69t-170 0 q-337 128 -400 550q-6 39 -9 63.5t-6.5 80t-1.5 97.5z" />
<glyph unicode="&#xe024;" d="M100 1100v500h600v-498q0 -93 27.5 -181t80.5 -160.5t140 -116.5t196 -44h6h6q88 0 162 29t125.5 78t87.5 114t52.5 136t16.5 145v498h600v-500q0 -232 -80.5 -436.5t-219.5 -350t-332.5 -229.5t-411.5 -84h-6h-6q-175 0 -335 53.5t-288 153.5t-223 234t-146.5 304 t-51.5 355zM100 1800v400q0 41 29.5 70.5t70.5 29.5h400q41 0 70.5 -29.5t29.5 -70.5v-400h-600zM1600 1800v400q0 41 29.5 70.5t70.5 29.5h400q41 0 70.5 -29.5t29.5 -70.5v-400h-600z" />
<glyph unicode="&#xe025;" d="M-500 150v235q0 80 20.5 120.5t79.5 73.5q481 278 700 373v376q-100 74 -100 224v298q0 126 48.5 226t152.5 162t249 62t249 -62t152.5 -162t48.5 -226v-298q0 -150 -100 -223v-377q186 -76 700 -373q59 -33 79.5 -73.5t20.5 -120.5v-235q0 -21 -14.5 -35.5t-35.5 -14.5 h-2200q-20 0 -35 14.5t-15 35.5zM1210 1033.5q-1 16.5 7.5 31.5t26.5 34.5t36.5 36t44 41.5t44.5 47q62 72 81.5 150t19.5 232q0 95 47 183.5t139.5 149t208.5 61.5q116 -1 208.5 -61.5t139.5 -149t47 -183.5q0 -156 18.5 -233.5t79.5 -148.5q18 -21 43 -46.5t42.5 -42 t34 -36.5t24 -34.5t5.5 -31t-16 -31.5q-56 -61 -156.5 -114t-234.5 -61v-199q143 -62 295 -134t203 -101q49 -28 75.5 -61.5t26.5 -81.5v-100q0 -21 -13 -35.5t-33 -14.5h-754v328q0 103 -34.5 167.5t-134.5 121.5q-74 42 -131 75v35q-82 4 -162 33q-68 38 -140 76 q-38 29 -73 66q-14 15 -15 31.5z" />
<glyph unicode="&#xe026;" d="M0 0v100h900v-100h-900zM0 200v300l200 700l300 900h100v300l400 -100v-200h100v100h200v-100h100v200l400 100v-300h100l300 -900l200 -700v-300h-900v300l100 700h-800l100 -700v-300h-900zM900 1400h100v500h-100v-500zM1400 1400h100v500h-100v-500zM1500 0v100h900 v-100h-900z" />
<glyph unicode="&#xe027;" d="M-200 0l861 2400h418l-40 -600h323l-40 600h416l862 -2400h-1077l-81 900h-484l-81 -900h-1077zM976 1100h448l-53 600h-341z" />
<glyph unicode="&#xe028;" d="M25 1426q0 193 75.5 368.5t202.5 302.5t303 202.5t369 75.5t368.5 -75.5t302.5 -202.5t202.5 -302.5t75.5 -368.5q0 -278 -152 -514l588 -588q15 -14 15 -35t-15 -36l-213 -213q-14 -14 -35.5 -14t-35.5 14l-588 588q-234 -152 -513 -152q-193 0 -369 75.5t-303 202.5 t-202.5 303t-75.5 369zM327 1426q0 -132 51.5 -252t138.5 -206.5t206.5 -138t251.5 -51.5t251.5 51.5t206.5 138t138.5 206.5t51.5 252q0 131 -51.5 251t-138.5 206.5t-206.5 138t-251.5 51.5t-251.5 -51.5t-206.5 -138t-138.5 -206.5t-51.5 -251z" />
<glyph unicode="&#xe029;" d="M-500 1150v100q0 21 14.5 35.5t35.5 14.5h190l164 447q44 89 90.5 121t141.5 32h1128q95 0 141.5 -32t90.5 -121l164 -447h190q21 0 35.5 -14.5t14.5 -35.5v-100q0 -21 -14.5 -35.5t-35.5 -14.5h-92l42 -100v-1150q0 -21 -14.5 -35.5t-35.5 -14.5h-200q-21 0 -35.5 14.5 t-14.5 35.5v150h-1600v-150q0 -21 -14.5 -35.5t-35.5 -14.5h-200q-21 0 -35.5 14.5t-14.5 35.5v1150l42 100h-92q-21 0 -35.5 14.5t-14.5 35.5zM-300 700l100 -100h300v200l-400 110v-210zM-56 1200h1512q-102 423 -119 460q-23 40 -60 40h-1154q-37 0 -60 -40 q-8 -16 -37.5 -131t-55.5 -222zM300 200h800v200h-800v-200zM1300 600h300l100 100v210l-400 -110v-200zM1359 2058l45 89q41 84 89.5 118.5t142.5 34.5h564h314q56 0 92 -8t61.5 -30t40.5 -45t38 -70l114 -247h190q21 0 35.5 -14.5t14.5 -35.5v-100q0 -21 -14.5 -35.5 t-35.5 -14.5h-92l42 -100v-1050q0 -21 -14.5 -35.5t-35.5 -14.5h-200q-21 0 -35.5 14.5t-14.5 35.5v150h-800v100h500v200h-400v273q0 74 -28 100.5t-103 26.5h-94l-150 400h1031q-52 223 -69 260q-23 40 -60 40h-904q-37 0 -60 -40l-44 -82q-82 57 -160 80zM2600 1200h200 l100 100v210l-300 -110v-200z" />
<glyph unicode="&#xe030;" d="M200 50v2300q0 21 14.5 35.5t35.5 14.5h250v-300q0 -41 29.5 -70.5t70.5 -29.5h1200q41 0 70.5 29.5t29.5 70.5v300h250q21 0 35.5 -14.5t14.5 -35.5v-2300q0 -21 -14.5 -35.5t-35.5 -14.5h-1900q-21 0 -35.5 14.5t-14.5 35.5zM500 300h500v100h-500v-100zM500 500h1400 v100h-1400v-100zM500 700h1400v100h-1400v-100zM500 900h1400v100h-1400v-100zM500 1300h1000v100h-1000v-100zM500 1500h1400v100h-1400v-100zM600 1100h1300v100h-1300v-100zM600 1700h1300v100h-1300v-100zM600 2200v198q0 41 30.5 71.5t71.5 30.5h198v92q0 42 29.5 75 t70.5 33h400q41 0 70.5 -33t29.5 -75v-92h198q41 0 71.5 -30.5t30.5 -71.5v-198q0 -41 -30.5 -70.5t-71.5 -29.5h-996q-41 0 -71.5 29.5t-30.5 70.5z" />
<glyph unicode="&#xe032;" d="M-400 1600v400q0 99 489 278l66 133q19 37 61.5 63t83.5 26h1800q41 0 83.5 -26t61.5 -63l66 -132q84 -30 159 -61.5t155 -70.5t127.5 -77.5t47.5 -69.5v-400q0 -41 -29.5 -70.5t-70.5 -29.5h-100q-41 0 -70.5 29.5t-29.5 70.5v400q0 32 -100 86v-2036q0 -21 -14.5 -35.5 t-35.5 -14.5h-200q-20 0 -35 14.5t-15 35.5v150h-1800v-150q0 -21 -14.5 -35.5t-35.5 -14.5h-200q-20 0 -35 14.5t-15 35.5v2036q-100 -54 -100 -86v-400q0 -42 -26 -71t-67 -29h-100q-42 0 -74.5 29.5t-32.5 70.5zM100 590l100 -90h300v200l-400 100v-210zM200 1079 q0 -21 14 -40.5t33 -26.5q13 -5 38 -13.5t114 -29.5t190.5 -37t267 -29.5t343.5 -13.5t341.5 12.5t270 30.5t187.5 36.5t117 31.5l37 12q19 7 33 26.5t14 40.5v971q0 21 -14.5 35.5t-35.5 14.5h-1900q-21 0 -35.5 -14.5t-14.5 -35.5v-971zM900 300h700v200h-700v-200z M1900 500h300l100 90v210l-400 -100v-200z" />
<glyph unicode="&#xe033;" d="M-100 1598q0 268 103.5 508t288.5 420l141 -141q-157 -153 -245 -356.5t-88 -430.5t88 -430.5t245 -356.5l-141 -142q-185 181 -288.5 421t-103.5 508zM414 1598q0 163 64 308.5t178 255.5l141 -141q-86 -82 -134.5 -191.5t-48.5 -231.5q0 -123 48.5 -232.5t134.5 -190.5 l-141 -142q-114 109 -178 255.5t-64 309.5zM949 1598q0 104 73.5 177t177.5 73t177.5 -73.5t73.5 -176.5q0 -82 -48 -147t-124 -90l121 -1361h-400l121 1361q-76 25 -124 90t-48 147zM1603 1175q86 81 134.5 190.5t48.5 232.5q0 122 -48.5 231.5t-134.5 191.5l141 141 q114 -110 178 -255.5t64 -308.5t-64 -309.5t-178 -255.5zM1967 811q157 153 245 356.5t88 430.5t-88 430.5t-245 356.5l141 141q185 -180 288.5 -420t103.5 -508t-103.5 -508t-288.5 -421z" />
<glyph unicode="&#xe034;" d="M200 300v1400q0 124 88 212t212 88h400v400h-50q-21 0 -35.5 14.5t-14.5 35.5v100q0 21 14.5 35.5t35.5 14.5h700q21 0 35.5 -14.5t14.5 -35.5v-100q0 -21 -14.5 -35.5t-35.5 -14.5h-50v-400h400q124 0 212 -88t88 -212v-1400q0 -124 -88 -212t-212 -88h-100 q0 -41 -29.5 -70.5t-70.5 -29.5t-70.5 29.5t-29.5 70.5h-800q0 -41 -29.5 -70.5t-70.5 -29.5t-70.5 29.5t-29.5 70.5h-100q-124 0 -212 88t-88 212zM400 300q0 -40 30 -70t70 -30h1400q40 0 70 30t30 70v800q0 40 -30 70t-70 30h-1400q-40 0 -70 -30t-30 -70v-800zM400 1500 q0 -40 30 -70t70 -30h1400q40 0 70 30t30 70v200q0 40 -30 70t-70 30h-1400q-40 0 -70 -30t-30 -70v-200zM1100 2000h200v400h-200v-400z" />
<glyph unicode="&#xe035;" d="M100 150v239q0 80 20.5 120t79.5 74q481 278 700 372v250q-100 73 -100 223v165q-85 32 -141.5 67.5t-56.5 51.5q0 32 16 60t38 28h113l146 658q-3 23 10 32t35 1l239 -68q21 -8 51 -8.5t51 7.5l239 76q22 8 35 0.5t10 -30.5l146 -668h113q22 0 38 -28t16 -60 q0 -16 -56.5 -51.5t-141.5 -67.5v-165q0 -151 -100 -222v-251q186 -75 700 -372q59 -34 79.5 -74t20.5 -120v-239q0 -21 -14.5 -35.5t-35.5 -14.5h-2200q-20 0 -35 14.5t-15 35.5z" />
<glyph unicode="&#xe036;" d="M100 150v122q0 57 28.5 96t83.5 70q29 16 302.5 116.5t385.5 156.5v230q-136 9 -256.5 72.5t-181.5 130.5q-16 17 -17.5 36t7.5 36.5t29 40t41.5 42t51 48.5t50.5 54q72 84 94.5 174.5t22.5 268.5q0 81 33 161.5t90.5 145.5t145.5 106t190 42q102 -1 190 -42t145.5 -106 t90.5 -145.5t33 -161.5q0 -178 22.5 -268.5t94.5 -174.5q21 -25 50.5 -54t51 -48.5t41.5 -42t29 -40t7.5 -36.5t-17.5 -36q-62 -67 -182.5 -130.5t-255.5 -72.5v-230q112 -56 385 -156.5t302 -116.5q113 -62 113 -166v-122q0 -21 -14.5 -35.5t-35.5 -14.5h-2100 q-20 0 -35 14.5t-15 35.5z" />
<glyph unicode="&#xe037;" d="M300 50v2300q0 21 14.5 35.5t35.5 14.5h1150v-650q0 -21 14.5 -35.5t35.5 -14.5h650v-1650q0 -21 -14.5 -35.5t-35.5 -14.5h-1800q-21 0 -35.5 14.5t-14.5 35.5zM1600 1850v550l600 -600h-550q-21 0 -35.5 14.5t-14.5 35.5z" />
<glyph unicode="&#xe038;" d="M-100 855v196q0 104 134 192q-34 49 -34 102v196q0 105 135 192q-35 48 -35 102v196q0 213 450 316q338 80 737 30q419 -52 567 -220q21 -24 34 -54t17 -67t4.5 -64.5t-1.5 -72t-2 -64.5q0 -33 -25 -74q202 -66 353 -220.5t219.5 -359t36.5 -414.5 q-32 -212 -161.5 -387.5t-323 -276t-408.5 -100.5q-160 0 -311 56q-169 -43 -351 -55q-326 -21 -641 60q-58 15 -101.5 29.5t-97 39t-95 58.5t-66.5 77q-17 28 -24.5 69t-7.5 72t2.5 81.5t2.5 70.5q0 81 72 147q-79 73 -79 147zM42 1053l1 -5q8 -28 37 -53t73 -43.5 t74.5 -29t69.5 -21.5q8 -2 11 -3q179 -52 429 -61q-6 96 6 190q-354 27 -554 136q-88 -37 -118 -64q-20 -20 -27 -40zM43 558q5 -17 16 -33t29.5 -29.5t35.5 -24.5t44 -21.5t44.5 -17t48.5 -14.5t44 -11.5t42.5 -10t33.5 -7.5q64 -15 140 -24t130.5 -10.5t143.5 -3.5t136 -4 q-69 82 -102 145q-212 11 -433 49t-253 87l-11 17q-38 -12 -60.5 -34t-25.5 -37zM141 1538q10 -34 44 -62t87.5 -47.5t89.5 -29.5t86 -22q13 -3 18 -4q160 -38 379 -47q49 90 139 186q-164 3 -385.5 50.5t-311.5 90.5q-48 -19 -84.5 -48t-48.5 -48zM238 2033l1 -5 q4 -15 14.5 -29t22 -25.5t31 -23t34.5 -19.5t40.5 -17t39.5 -14t42 -12.5t37.5 -9.5t35.5 -8.5t28 -6.5q195 -47 431 -47q243 -1 495 64q5 1 29.5 7.5t34 9.5t33.5 10t36.5 12.5t33 14.5t32.5 18.5t25.5 21t22 25.5t12.5 30l-2 5q-4 14 -12 27t-22 24.5t-26.5 21t-33 18.5 t-33.5 15t-36.5 13.5t-33.5 11t-33.5 10t-27.5 7.5q-212 65 -496 65q-292 0 -507 -67q-5 -2 -42.5 -13t-52.5 -16.5t-47 -19t-48.5 -26t-34 -31.5t-23.5 -41zM895 870.5q5 -150.5 72 -285.5q76 -152 218.5 -254.5t309.5 -124.5q148 -25 294 20t256 138.5t180.5 229.5 t75.5 285q4 143 -51 278t-150.5 234t-228 159t-275.5 60q-128 0 -258 -49q-141 -57 -244.5 -166t-153.5 -241.5t-45 -283z" />
<glyph unicode="&#xe040;" d="M200 50v1850h2000v-1850q0 -21 -14.5 -35.5t-35.5 -14.5h-1900q-21 0 -35.5 14.5t-14.5 35.5zM200 2000v400q0 41 29.5 70.5t70.5 29.5t70.5 -29.5t29.5 -70.5h100q0 41 29.5 70.5t70.5 29.5t70.5 -29.5t29.5 -70.5h100q0 41 29.5 70.5t70.5 29.5t70.5 -29.5t29.5 -70.5 h100q0 41 29.5 70.5t70.5 29.5t70.5 -29.5t29.5 -70.5h100q0 41 29.5 70.5t70.5 29.5t70.5 -29.5t29.5 -70.5h100q0 41 29.5 70.5t70.5 29.5t70.5 -29.5t29.5 -70.5h100q0 41 29.5 70.5t70.5 29.5t70.5 -29.5t29.5 -70.5v-400h-2000zM500 300h500v100h-500v-100zM500 500 h1400v100h-1400v-100zM500 700h1400v100h-1400v-100zM500 900h1400v100h-1400v-100zM500 1300h1000v100h-1000v-100zM600 1100h1300v100h-1300v-100zM600 1500h1300v100h-1300v-100z" />
<glyph unicode="&#xe041;" d="M0 0v2500h200v-300h300v300h100v-300h300v300h100v-300h300v300h100v-300h300v300h100v-300h300v300h100v-52q68 50 150 50q104 0 177 -73t73 -177t-73 -177t-177 -73q-28 0 -64 9l-86 -130v-77h300v-100h-300v-300h300v-100h-300v-300h300v-100h-300v-300h300v-100h-300 v-300h300v-200h-2500zM200 315l160 185h-160v-185zM200 600h247l53 61v239h-300v-300zM200 1000h300v300h-300v-300zM200 1400h300v300h-300v-300zM200 1800h300v300h-300v-300zM299 200h201v232zM533 699l104 120q-23 39 -32 81h-5v-123zM600 200h300v300h-300v-300z M600 1000h5q18 85 87 141.5t158 56.5q23 0 50 -5v107h-300v-300zM600 1400h300v300h-300v-300zM600 1800h300v300h-300v-300zM646 600h254v103q-27 -5 -50 -5q-52 0 -101 22zM1000 200h300v300h-300v-300zM1000 600h300v300h-205q-19 -96 -95 -152v-148zM1000 1147 q21 -16 38 -35l465 205l-39 -17h-64v-28l-100 -44v72h-300v-153zM1000 1400h300v300h-300v-300zM1000 1800h300v300h-300v-300zM1157 1000h143v63zM1400 200h300v300h-300v-300zM1400 600h300v300h-300v-300zM1400 1000h300v103q-80 17 -135 78l-165 -73v-108zM1400 1400 h105q16 73 69 125.5t126 67.5v107h-300v-300zM1400 1800h300v300h-300v-300zM1800 200h300v300h-300v-300zM1800 600h300v300h-300v-300zM1800 1000h300v300h-105q-14 -74 -67.5 -128t-127.5 -69v-103zM1800 1592q4 -1 13 -3.5t14 -3.5l114 172l-38 -57h-103v-108z M1800 1800h169l190 288l-59 -90v102h-300v-300zM1950 1497q34 -45 44 -97h106v300h-17z" />
<glyph unicode="&#xe042;" d="M-200 0v200h200v450q0 21 15 35.5t35 14.5h400q21 0 35.5 -14.5t14.5 -35.5v-450h100v1050q0 21 15 35.5t35 14.5h400q21 0 35.5 -14.5t14.5 -35.5v-1050h100v2150q0 21 15 35.5t35 14.5h400q21 0 35.5 -14.5t14.5 -35.5v-2150h100v1450q0 21 15 35.5t35 14.5h400 q21 0 35.5 -14.5t14.5 -35.5v-1450h200v-200h-2700z" />
<glyph unicode="&#xe043;" d="M87 1196q0 227 89 434t238.5 356t357 237.5t434.5 88.5t429.5 -86t357.5 -241l-793 -789v-1115q-148 0 -290.5 40t-265 112t-226 175t-176.5 225t-114 267t-41 296zM1300 -12v1115l789 -788q-327 -327 -789 -327zM1404 1196l789 789q161 -160 244.5 -368.5t83.5 -420 t-83.5 -420t-244.5 -368.5z" />
<glyph unicode="&#xe044;" d="M-600 423v174q0 51 22 80t69 55q3 2 49 30t94 56t111.5 62t131 64t123.5 47v262q-29 9 -48.5 22t-30 24.5t-15 32t-5.5 34.5t-1 43v178q0 138 75.5 225.5t224.5 87.5t224.5 -87.5t75.5 -225.5v-178q0 -29 -1 -42.5t-5.5 -34t-15 -32t-30 -24.5t-48.5 -22v-263 q80 -25 185 -76q-207 -104 -545 -297l-14 -8q-136 -77 -165 -210h-442q-8 0 -13.5 7.5t-5.5 15.5zM0 35v250q0 80 20.5 120.5t79.5 73.5q481 278 700 373v376q-100 74 -100 224v298q0 126 48.5 226t152.5 162t249 62t249 -62t152.5 -162t48.5 -226v-298q0 -149 -100 -223 v-377q186 -76 700 -373q59 -33 79.5 -73.5t20.5 -120.5v-250q0 -11 -8 -22t-19 -11h-2246q-11 0 -19 11t-8 22zM1717 916q112 54 183 75v262q-29 9 -48.5 22t-30 24.5t-15 32t-5.5 34.5t-1 43v178q0 138 75.5 225.5t224.5 87.5t224.5 -87.5t75.5 -225.5v-178q0 -29 -1 -42.5 t-5.5 -34t-15 -32t-30 -24.5t-48.5 -22v-263q56 -17 123.5 -47t131 -64t111.5 -62t94 -56t49 -30q47 -26 69 -55t22 -80v-174q0 -8 -5.5 -15.5t-13.5 -7.5h-442q-31 134 -165 210l-36 20q-316 184 -521 286z" />
<glyph unicode="&#xe045;" d="M14 2351q-5 20 6 36.5t31 19.5l600 86q47 7 99 7t99 -7l600 -86q20 -3 31 -19.5t6 -36.5l-275 -1103q-5 -20 -23.5 -34t-38.5 -14h-149v-1100l-100 -99v999l-33 200h-34l-33 -200v-100h-100v-100h100v-100h-100v-100h100v-100h-100v-100h100v-100h-100v-100h100v-100 h-100v-100h100v-97l-3 -3h-109l-188 200v1100h-149q-20 0 -38.5 14t-23.5 34zM556 2100q0 -80 57 -137t137 -57t137 57t57 137t-57 137t-137 57t-137 -57t-57 -137zM1200 921v119q72 4 120 50t66 120l248 1074l304 -846q7 -20 0 -42t-24 -33l-134 -89l610 -928l-47 -272 l-90 -61l-276 55l-608 928l-108 -76q-31 -21 -61 1z" />
<glyph unicode="&#xe046;" d="M0 100v1600h2300v-1600q0 -41 -29.5 -70.5t-70.5 -29.5h-2100q-41 0 -70.5 29.5t-29.5 70.5zM0 1800v300q0 41 29.5 70.5t70.5 29.5h200v100q0 41 29.5 70.5t70.5 29.5h100q41 0 70.5 -29.5t29.5 -70.5v-100h1100v100q0 41 29.5 70.5t70.5 29.5h100q41 0 70.5 -29.5 t29.5 -70.5v-100h200q41 0 70.5 -29.5t29.5 -70.5v-300h-2300zM200 200h300v300h-300v-300zM200 600h300v300h-300v-300zM200 1000h300v300h-300v-300zM600 200h300v300h-300v-300zM600 600h300v300h-300v-300zM600 1000h300v300h-300v-300zM1000 200h300v300h-300v-300z M1000 600h300v300h-300v-300zM1000 1000h300v300h-300v-300zM1400 200h300v300h-300v-300zM1400 600h300v300h-300v-300zM1400 1000h300v300h-300v-300zM1800 200h300v300h-300v-300zM1800 600h300v300h-300v-300zM1800 1000h300v300h-300v-300z" />
<glyph unicode="&#xe047;" d="M-300 1950q0 164 60 313t168 265l142 -141q-170 -188 -170 -437q0 -142 58.5 -268.5t161.5 -217.5l-141 -142q-131 120 -205 282.5t-74 345.5zM0 300v300q0 41 29.5 70.5t70.5 29.5h300v500l100 400v400q0 48 50 48q23 0 35.5 -12t13.5 -24l1 -12v-400l100 -400v-500 h1600q41 0 70.5 -29.5t29.5 -70.5v-300q0 -82 -59 -141t-141 -59v-100h-2000v100q-82 0 -141 59t-59 141zM162 1950q0 141 94 251l141 -142q-35 -49 -35 -109q0 -49 23 -91t63 -67l-142 -142q-67 55 -105.5 133t-38.5 167zM652 1792q40 25 63 67t23 91q0 60 -35 109l141 142 q94 -110 94 -251q0 -89 -38.5 -167t-105.5 -133zM980 1464q103 91 161.5 217.5t58.5 268.5q0 249 -170 437l141 141q109 -116 169 -265t60 -313q0 -183 -74 -345.5t-205 -282.5zM1000 400h100v100h-100v-100zM1200 400h100v100h-100v-100zM1400 400h100v100h-100v-100z M1600 400h100v100h-100v-100zM1900 300h200v200h-200v-200z" />
<glyph unicode="&#xe048;" d="M100 700v700q0 41 29.5 70.5t70.5 29.5h900q41 0 70.5 -29.5t29.5 -70.5h100v134q-100 143 -100 316q0 112 43.5 214t117 175.5t175.5 117t214 43.5t214 -43.5t175.5 -117t117 -175.5t43.5 -214q0 -173 -100 -316v-1251q0 -116 -83.5 -199.5t-199.5 -83.5h-334 q-116 0 -199.5 83.5t-83.5 199.5v417h-100q0 -41 -29.5 -70.5t-70.5 -29.5h-900q-41 0 -70.5 29.5t-29.5 70.5zM1400 1850q0 -145 102.5 -247.5t247.5 -102.5t247.5 102.5t102.5 247.5t-102.5 247.5t-247.5 102.5t-247.5 -102.5t-102.5 -247.5zM1500 400h100v100h-100v-100z M1502 1827q46 -27 99 -27q83 0 141 58t58 141q0 53 -27 99q96 -9 161.5 -80t65.5 -168q0 -104 -73 -177t-177 -73q-97 0 -168 65.5t-80 161.5zM1600 200h100v100h-100v-100zM1700 400h100v100h-100v-100zM1800 200h100v100h-100v-100zM1900 400h100v100h-100v-100z" />
<glyph unicode="&#xe049;" d="M0 1500h958l294 900h3l292 -900h944l-765 -541l291 -885l-768 551l-764 -554l291 883zM624 1300l387 -268l-145 -437l383 277l389 -284l-147 448l379 264h-468l-149 459l-150 -459h-479z" />
<glyph unicode="&#xe050;" d="M0 1500h958l294 900h3l292 -900h944l-765 -541l291 -885l-768 551l-764 -554l291 883z" />
<glyph unicode="&#xe051;" d="M159.5 723q-4.5 181 123.5 309l209 209q46 -153 159 -266l-156 -156q-42 -48 -35 -101.5t50 -97.5l164 -164q46 -45 105 -55t105 29l524 525q39 45 29 104t-55 104l-270 270l-2 2l212 212l2 -1l270 -270q91 -91 126.5 -207t9.5 -229t-110 -197l-524 -525 q-126 -125 -312 -117.5t-322 143.5l-164 164q-134 134 -138.5 315zM630.5 1507.5q-27.5 -111.5 5.5 -224.5t121 -202l1 -1l281 -282l213 213l-281 280l-2 3q-43 43 -49.5 96t34.5 101l525 525q29 29 67 34t71 -9.5t60 -41.5l164 -164q46 -45 56 -104t-29 -104l-157 -157 q112 -118 156 -269l213 214q127 128 119.5 310.5t-146.5 321.5l-164 164q-134 134 -314 139t-308 -122l-525 -525q-84 -84 -111.5 -195.5z" />
<glyph unicode="&#xe052;" d="M-252 1151q6 11 18.5 31t56 81t92.5 120t129 139t165.5 149t202 139.5t238.5 120t274.5 80.5t310.5 31q201 0 391.5 -49t334.5 -127.5t271.5 -174t215 -190.5t151 -173.5t93.5 -127.5l30 -49q-15 -16 -42 -42.5t-116 -104.5t-182.5 -148.5t-233.5 -156.5t-277.5 -148 t-307 -104.5t-328.5 -42.5q-125 0 -256 25.5t-247 69t-229.5 99.5t-209.5 118t-182 123.5t-151.5 117.5t-113.5 99.5t-73 69.5zM28 1151q298 -271 632 -416q-108 110 -168 254.5t-60 305.5q0 62 12 139q-247 -129 -416 -283zM636 1295q0 -163 80 -300.5t218 -217.5t301 -80 q162 0 300 80t218 217.5t80 300.5q0 129 -56 252q-159 54 -316 78q80 -55 127 -142t47 -188q0 -166 -117 -283.5t-283 -117.5t-283.5 117.5t-117.5 283.5q0 101 47 187.5t127 142.5q-153 -25 -318 -84q-54 -119 -54 -246zM957 1187q37 -95 117 -146l74 73q-45 22 -74 63 t-36 91zM1800 724q211 85 392 205t293 222q-72 65 -193.5 145t-268.5 150q15 -82 15 -151q0 -164 -63 -311.5t-175 -259.5z" />
<glyph unicode="&#xe053;" d="M-261 1169q6 11 18.5 31t56 80.5t92.5 119.5t129 139t166 148.5t202 138.5t238.5 119.5t274.5 80.5t310 31q194 0 417 -61l162 404h249l-939 -2400h-251l166 432q-142 22 -290.5 74t-271.5 118.5t-238.5 142t-202.5 146t-153.5 128.5t-100.5 93zM19 1171 q113 -104 275.5 -218t356.5 -199q-108 111 -168 255.5t-60 304.5q0 67 13 140q-248 -129 -417 -283zM628 1314q0 -224 147 -391.5t365 -199.5l76 192q-163 4 -277 120t-114 279q0 101 47 188t127 142q-151 -23 -318 -83q-53 -117 -53 -247zM948 1207q36 -95 118 -146l73 73 q-45 22 -74 62.5t-36 91.5zM1431 442l155 395q110 84 174 209t64 268q0 49 -10 106l173 443q98 -53 191 -120.5t163.5 -132t132.5 -130t104.5 -120t74 -97.5t45.5 -67l15 -25q-12 -13 -35 -35.5t-97.5 -89t-153.5 -128.5t-199 -141.5t-239 -142t-267.5 -116t-290.5 -76.5z M1791 744q212 85 393.5 205t291.5 222q-72 65 -193.5 145t-268.5 150q15 -73 15 -152q0 -164 -63 -311.5t-175 -258.5z" />
<glyph unicode="&#xe054;" d="M-131.5 2008q5.5 63 53.5 103l420 359q48 40 114.5 32.5t107.5 -56.5l146 -171q-206 -81 -374.5 -223.5t-282.5 -329.5l-25 29l-125 146q-40 48 -34.5 111zM100 1100q0 223 87.5 427t234.5 351t351 234.5t427 87.5q224 0 427.5 -87.5t351 -235t234.5 -351t87 -426.5 q0 -149 -39.5 -292t-110.5 -263.5t-172.5 -222t-222 -172.5t-263.5 -110.5t-292 -39.5q-223 0 -426.5 87t-351 234.5t-235 351t-87.5 427.5zM400 1100q0 -162 63.5 -310.5t170.5 -255.5t255.5 -170.5t310.5 -63.5t310.5 63.5t255.5 170.5t170.5 255.5t63.5 310.5 t-63.5 310.5t-170.5 255.5t-255.5 170.5t-310.5 63.5t-310.5 -63.5t-255.5 -170.5t-170.5 -255.5t-63.5 -310.5zM800 1050v95q0 21 14.5 38t35.5 17h175q6 18 16.5 31t14.5 17t23 15t21 12v373q0 21 15 36.5t35 15.5h98q21 0 36.5 -15.5t15.5 -36.5v-375q42 -28 71.5 -74.5 t29.5 -98.5q0 -83 -59 -141.5t-142 -58.5q-55 0 -100.5 27t-71.5 73h-178q-21 0 -35.5 14.5t-14.5 35.5zM1698 2271l145 174q40 48 106 56t115 -31l422 -355q49 -40 55 -103t-34 -111l-156 -187q-113 188 -281 332t-372 225z" />
<glyph unicode="&#xe055;" d="M0 1200q0 244 95 466t256 383t383 256t466 95t466 -95t383 -256t256 -383t95 -466t-95 -466t-256 -383t-383 -256t-466 -95t-466 95t-383 256t-256 383t-95 466zM300 1200q0 -183 71.5 -349.5t192 -287t287 -192t349.5 -71.5t349.5 71.5t287 192t192 287t71.5 349.5 t-71.5 349.5t-192 287t-287 192t-349.5 71.5t-349.5 -71.5t-287 -192t-192 -287t-71.5 -349.5zM700 1152v96q0 21 14.5 36.5t35.5 15.5h276q29 42 75.5 71.5t98.5 29.5q19 0 57 -10l324 324q14 14 35 14t35 -14l69 -70q15 -14 15 -35t-15 -36l-326 -327q6 -30 6 -48 q0 -83 -58.5 -141.5t-141.5 -58.5q-52 0 -98.5 29.5t-75.5 71.5h-276q-21 0 -35.5 15.5t-14.5 36.5z" />
<glyph unicode="&#xe056;" d="M100 1114q0 223 87.5 427t234.5 351t351 234.5t427 87.5q224 0 427.5 -87.5t351 -235t234.5 -351t87 -426.5q0 -149 -39.5 -292t-110.5 -263.5t-172.5 -222t-222 -172.5t-263.5 -110.5t-292 -39.5q-223 0 -426.5 87t-351 234.5t-235 351t-87.5 427.5zM400 1114 q0 -163 63.5 -311t170.5 -255t255.5 -170.5t310.5 -63.5t310.5 63.5t255.5 170.5t170.5 255t63.5 311q0 162 -63.5 310.5t-170.5 255.5t-255.5 170.5t-310.5 63.5t-310.5 -63.5t-255.5 -170.5t-170.5 -255.5t-63.5 -310.5zM1000 1114q0 54 27 99.5t73 72.5v364 q0 21 14.5 35.5t35.5 14.5h100q21 0 35.5 -14.5t14.5 -35.5v-364q46 -27 73 -72.5t27 -99.5q0 -55 -27 -100.5t-73 -72.5v-89q0 -21 -14.5 -36.5t-35.5 -15.5h-100q-21 0 -35.5 15.5t-14.5 36.5v89q-46 27 -73 72.5t-27 100.5zM1000 2400v247q0 21 14.5 37t35.5 16h300 q21 0 35.5 -16t14.5 -37v-247q-73 9 -200 9q-126 0 -200 -9zM2002 2098l148 148q15 15 36 15t35 -15l142 -141q14 -15 14 -35.5t-14 -35.5l-149 -148q-47 61 -99 113t-113 99z" />
<glyph unicode="&#xe057;" d="M-100 600v1100q0 82 59 141t141 59h1282q90 94 211.5 147t256.5 53q136 0 258 -53.5t212 -148.5q76 -8 128 -64.5t52 -133.5v-1100q0 -82 -59 -141t-141 -59v-100l-150 -100l-150 100v100h-1600v-100l-150 -100l-150 100v100q-82 0 -141 59t-59 141zM100 1000h1100v100 h-1100v-100zM100 1200h1100v100h-1100v-100zM128 900q27 -45 72.5 -72.5t99.5 -27.5h900v100h-1072zM128 1400h1072v100h-900q-54 0 -99.5 -27.5t-72.5 -72.5zM1000 2000v100h341q-51 -48 -90 -100h-251zM1238 2491l71 71l302 -302q-51 -16 -100 -42zM1410 1450 q0 -182 129 -311t311 -129t311 129t129 311t-129 311t-311 129t-311 -129t-129 -311zM1510 1450q0 61 24 122q42 -62 116 -62q58 0 99 41t41 99q0 74 -62 116q61 24 122 24q141 0 240.5 -99.5t99.5 -240.5t-99.5 -240.5t-240.5 -99.5t-240.5 99.5t-99.5 240.5zM1800 2297 v403h100v-403q-8 1 -50 1t-50 -1zM2090 2260l302 302l70 -71l-273 -273q-48 26 -99 42zM2359 2100h341v-100h-251q-39 52 -90 100z" />
<glyph unicode="&#xe058;" d="M-1 1203q0 244 95 466t256 383t383 256t466 95t466 -95.5t383 -256.5t256 -383t95 -466q0 -25 -1.5 -48.5t-3.5 -39.5t-7 -51.5t-8 -62.5h-304l10 62.5t8 52.5t4 38.5t2 48.5q0 183 -71.5 350t-192 288t-287 192.5t-349.5 71.5t-349.5 -71.5t-287 -192t-192 -287 t-71.5 -349.5t71 -349.5t191.5 -287t287.5 -192t351 -71.5q146 1 256.5 35t226.5 108l-152 212q-12 17 -6 29t27 11h684q20 0 30.5 -14t4.5 -34l-221 -644q-6 -20 -19 -22.5t-25 14.5l-148 205l-5 -4q-146 -95 -321 -145.5t-332 -50.5q-257 0 -482 95t-382 256.5t-247 382 t-90 465.5zM700 1152v96q0 21 14.5 36.5t35.5 15.5h276q29 42 75.5 71.5t98.5 29.5q19 0 57 -10l323 324q15 14 36 14t35 -14l69 -70q15 -14 15 -35t-15 -36l-326 -327q6 -30 6 -48q0 -83 -58.5 -141.5t-141.5 -58.5q-52 0 -98.5 29.5t-75.5 71.5h-276q-21 0 -35.5 15.5 t-14.5 36.5z" />
<glyph unicode="&#xe059;" d="M-400 1299v500q0 41 29.5 71t70.5 30v50q0 21 14.5 35.5t35.5 14.5h250v58q0 47 28 83.5t72 50.5v408h2200v-408q44 -14 72 -50.5t28 -83.5v-58h250q21 0 35.5 -14.5t14.5 -35.5v-50q41 0 70.5 -30t29.5 -71v-500q0 -41 -29.5 -70t-70.5 -29v-50q0 -21 -14.5 -35.5 t-35.5 -14.5h-250v-1150q0 -21 -14.5 -35.5t-35.5 -14.5h-200q-21 0 -35.5 14.5t-14.5 35.5v150h-1800v-150q0 -21 -14.5 -35.5t-35.5 -14.5h-200q-21 0 -35.5 14.5t-14.5 35.5v1150h-250q-21 0 -35.5 14.5t-14.5 35.5v50q-41 0 -70.5 29t-29.5 70zM100 689l100 -89h400v199 l-500 100v-210zM200 1378q0 -20 14 -40t33 -27q13 -5 38 -13t114 -29t190.5 -37.5t267 -29.5t343.5 -13t341.5 12.5t270 30.5t187.5 36t117 30l37 13q19 7 33 27t14 40v471q0 21 -14.5 36t-35.5 15h-1900q-21 0 -35.5 -15t-14.5 -36v-471zM300 400h300v100h-300v-100z M700 700h1000v100h-1000v-100zM700 900h1000v100h-1000v-100zM900 200h600v200h-600v-200zM1800 400h300v100h-300v-100zM1800 600h400l100 89v210l-500 -100v-199z" />
<glyph unicode="&#xe060;" d="M-100 0v400h1900l600 600v-400l-100 -100v100l-100 -100v-100l-200 -200v100l-100 -100v-100l-100 -100h-400v100h-300v-100h-400v100h-300v-100h-500zM100 500v300h700v-300h-700zM100 900v400h700v-400h-700zM100 1400v400h700v-400h-700zM100 1900v130q0 38 7.5 61.5 t34.5 50.5l158 158h700q-108 -109 -155 -155q-32 -31 -38.5 -52t-6.5 -62v-131h-700zM400 2400q127 126 166 166q8 8 14 13t10.5 9t12 6t11 3.5t14 2t15 0.5h20h23.5h614l-200 -200h-700zM1000 500v300h700l200 200v-300l-200 -200h-700zM1000 900v400h700l200 200v-400 l-200 -200h-700zM1000 1400v400h700l200 200v-400l-200 -200h-700zM1000 1900v131q0 29 1 40.5t11.5 31.5t32.5 42l155 155h645q55 0 55 -53v-147l-200 -200h-700zM1300 2400l200 200h600q56 0 78 -22.5t22 -77.5v-100l-200 -200v102q0 50 -22.5 74t-77.5 24h-600zM2000 800 v300l200 200v-300zM2000 1200v400l200 200v-400zM2000 1700v400l200 200v-400z" />
<glyph unicode="&#xe061;" d="M0 1200q0 244 95 466t256 383t383 256t466 95t466 -95t383 -256t256 -383t95 -466t-95 -466t-256 -383t-383 -256t-466 -95t-466 95t-383 256t-256 383t-95 466zM300 1200q0 -183 71.5 -349.5t192 -287t287 -192t349.5 -71.5t349.5 71.5t287 192t192 287t71.5 349.5 t-71.5 349.5t-192 287t-287 192t-349.5 71.5t-349.5 -71.5t-287 -192t-192 -287t-71.5 -349.5zM654 654q-7 7 1 26l312 687q9 19 28 38t38 28l687 312q19 8 26 1t-1 -26l-312 -687q-9 -19 -28 -38t-38 -28l-687 -312q-19 -8 -26 -1zM1082 1200q0 -48 35 -83t83 -35t83 35 t35 83t-35 83t-83 35t-83 -35t-35 -83z" />
<glyph unicode="&#xe062;" d="M200 1000v200h2000v-200h-900v-415q175 -36 287.5 -142.5t112.5 -242.5q0 -109 -73.5 -201t-200 -145.5t-276.5 -53.5t-276.5 53.5t-200 145.5t-73.5 201q0 136 112.5 242.5t287.5 142.5v415h-800zM250 1300l150 900h50q0 412 185 489q139 58 325 -88l40 40l191 -191 l-141 -141l-191 191l30 30q-133 101 -216 67q-59 -25 -91 -127.5t-32 -269.5h1450l150 -900h-1900z" />
<glyph unicode="&#xe063;" d="M-40 726.5q28 186.5 160 318.5l1055 1055l20 20l21.5 21.5l20 20t22 21t20.5 19t22.5 20t22 17.5t24 18.5t23 16t25.5 16.5q157 95 342.5 107.5t352.5 -63.5q114 -52 199.5 -138t133 -187.5t63.5 -217.5t-2.5 -228.5t-72.5 -221t-140 -194.5l-325 -325t-381.5 -382 t-324.5 -324q-1 -1 -6.5 -7t-8.5 -8t-8 -5t-10 -3q-17 0 -41 21.5t-50.5 53.5t-32.5 38q-16 18 0 36q170 170 509 508t508 508q182 184 198 389q9 128 -40.5 244.5t-148.5 197t-226 103.5q-102 18 -191 2t-177.5 -76t-137 -102.5t-142.5 -137.5l-10.5 -10.5l-9.5 -9.5 l-11 -11l-663 -663q-26 -26 -83 -78.5t-94 -87.5t-85 -91t-74.5 -102.5t-42 -106.5t-6.5 -118q14 -99 79.5 -165.5t149 -85.5t176 4.5t159.5 90.5l136 136l650 650l341 341q39 39 47.5 84t-11 78t-51 53t-76 12t-82.5 -46q-25 -21 -69 -67.5t-49 -51.5l-223 -223l-273 -273 t-135 -134q-4 -4 -12 -13t-15 -17t-17 -17t-18.5 -13.5t-18 -4t-16.5 7.5l-104 104q-7 8 -7 18t7 17q46 46 236 239t350 353.5t218 213.5q71 65 154 92.5t168 11.5q97 -18 159.5 -84.5t79.5 -149.5t-7.5 -173t-89.5 -155q-20 -20 -43 -42.5t-50.5 -50.5t-42.5 -43 l-204.5 -204.5l-241 -241l-204.5 -204.5q-38 -38 -111.5 -117.5t-124 -132.5t-124 -113t-140.5 -92q-88 -43 -186.5 -52t-189.5 14.5t-171 81.5t-132 142q-96 162 -68 348.5z" />
<glyph unicode="&#xe064;" d="M150 1100q0 282 139 521.5t374 379.5q57 40 97 33.5t40 -67.5v-176q0 -29 -8.5 -49t-16.5 -27.5t-23.5 -16.5t-18.5 -12q-132 -106 -207.5 -259t-75.5 -327q0 -153 59.5 -291.5t160 -239t239 -160t291.5 -59.5t291.5 59.5t239 160t160 239t59.5 291.5q0 174 -75 326 t-205 257q-3 2 -15.5 10.5t-19.5 15t-16.5 18t-14 27.5t-4.5 36v183q0 39 20.5 52.5t48.5 6.5t60 -26q238 -139 379.5 -380t141.5 -526q0 -213 -83.5 -407.5t-224 -335t-335 -224t-407.5 -83.5t-407.5 83.5t-335 224t-224 335t-83.5 407.5zM1000 1500v800q0 41 29.5 70.5 t70.5 29.5h200q41 0 70.5 -29.5t29.5 -70.5v-800q0 -41 -29.5 -70.5t-70.5 -29.5h-200q-41 0 -70.5 29.5t-29.5 70.5z" />
<glyph unicode="&#xe065;" d="M283 1600q0 263 115.5 472t323 327t469.5 118h9q197 0 365.5 -69t286.5 -190t185 -291t67 -367q0 -81 -16 -158t-36 -131t-59.5 -120t-64 -99t-71.5 -95q-46 -60 -66.5 -88.5t-54.5 -83.5t-49 -97t-27.5 -102.5t-12.5 -125.5q0 -100 -47 -167v-133q0 -12 -25 -37t-50 -44 l-25 -19v-50q0 -21 -15 -35.5t-36 -14.5h-500q-21 0 -35 14.5t-14 35.5v50q-11 8 -27.5 21t-44.5 40t-28 39v116q-63 68 -63 184q0 65 -12.5 125t-27.5 102.5t-48.5 97t-54.5 84t-66 88.5q-46 60 -71 94.5t-63.5 99.5t-58.5 119.5t-36 131.5t-16 158zM483 1600 q0 -77 14.5 -142.5t48.5 -128.5t60.5 -101.5t80.5 -109.5q40 -52 60.5 -80t55.5 -81.5t54 -97t40 -102t30.5 -122.5t9.5 -135h513q0 84 16 163t36.5 135t59.5 122t64 101.5t72 96.5q98 130 129 182q83 141 83 300q0 207 -94 371.5t-255.5 255t-360.5 90.5 q-316 0 -516.5 -200.5t-200.5 -516.5z" />
<glyph unicode="&#xe066;" d="M0 1460v890q0 21 15 35.5t35 14.5h890q21 0 46 -10.5t40 -24.5l1339 -1339q14 -15 14 -36t-14 -35l-920 -919q-14 -15 -35 -15t-35 15l-1339 1339q-15 14 -25.5 39.5t-10.5 45.5zM300 1900q0 -82 59 -141q58 -59 140.5 -59t141.5 59t59 141t-59 141t-141.5 59t-140.5 -59 q-59 -59 -59 -141z" />
<glyph unicode="&#xe067;" d="M-300 1460v890q0 21 14.5 35.5t35.5 14.5h890q20 0 45.5 -10.5t39.5 -24.5l1339 -1339q15 -15 15 -36t-15 -35l-919 -919q-14 -15 -35 -15t-36 15l-1339 1339q-14 14 -24.5 39.5t-10.5 45.5zM0 1900q0 -82 59 -141q58 -59 141 -59t141 59q59 59 59 141t-59 141 q-58 59 -141 59t-141 -59q-59 -59 -59 -141zM889 2400h301q23 0 59 -5.5t47 -12.5q27 -15 65 -53l1268 -1268q28 -28 29 -68t-29 -73l-888 -888q-15 -14 -35.5 -10.5t-35.5 18.5l-160 161l720 719q38 40 37.5 71.5t-37.5 69.5z" />
<glyph unicode="&#xe068;" d="M100 900v209l8 19q128 351 403 442q89 30 191 30q77 0 147 -17.5t122.5 -46.5t99 -67t79 -80t59 -84t43.5 -80t28 -67t16 -46l4 -18v-194h-100v-800l-104 -100h-794l-102 100v800h-100zM248 1100h904q-2 8 -7 21t-23 51t-40 73t-60 77t-82 72.5t-106.5 51.5t-131.5 21 q-70 0 -132.5 -20t-107 -52.5t-82 -71.5t-61.5 -78.5t-40.5 -72t-23.5 -52.5zM1300 0l100 400h1000l100 -400h-1200zM1400 450v175q0 41 17 58t58 17h325v1625q0 41 29.5 70.5t70.5 29.5t70.5 -29.5t29.5 -70.5v-1625h275q48 0 86.5 -18.5t38.5 -56.5v-175h-1000z" />
<glyph unicode="&#xe069;" d="M-100 450v1350h100v-1000h100v1000h100v-600h100v600h100v-600h100v600h100v-600h100v600h100v-600h100v600h100v-1000h100v1000h100v-600h100v600h100v-600h100v600h100v-600h100v600h100v-600h100v600h100v-1000h100v1000h100v-600h100v600h100v-600h100v600h100v-1350 q0 -21 -14.5 -35.5t-35.5 -14.5h-2600q-21 0 -35.5 14.5t-14.5 35.5z" />
<glyph unicode="&#xe070;" d="M0 1542v295q0 22 15 42.5t35 20.5h160q-6 0 29.5 178t47.5 226q26 92 108.5 141t174.5 23q25 -7 52 -19t61.5 -29.5t49.5 -24.5q164 -74 374 -170q48 -29 80 -71q32 43 79 70l360 165q19 8 69.5 32.5t78.5 36.5q99 41 192.5 -5.5t122.5 -149.5q84 -403 76 -403h185 q20 0 35 -20t15 -42v-296q0 -20 -14 -31t-36 -11h-150v-300h-800v700h-400v-700h-800v300h-150q-22 0 -36 11t-14 31zM200 0v800h800v-800h-800zM459 1928q-3 -9 2.5 -18.5t13.5 -9.5h494l14 40l-461 277zM1400 0v800h800v-800h-800zM1415 1941l13 -41h493q9 0 14.5 10 t3.5 19l-63 291z" />
<glyph unicode="&#xe072;" d="M100 0v2025l350 375h1450q98 0 191 -58t151 -151t58 -191v-1500l-200 -200v1600q0 300 -300 300h-1227l-200 -200h1227q124 0 212 -88t88 -212v-1400q0 -124 -88 -212t-212 -88h-1500z" />
<glyph unicode="&#xe073;" d="M500 62v2288q0 21 15 35.5t35 14.5h1400q21 0 35.5 -14.5t14.5 -35.5v-2263q0 -32 -19.5 -39t-33.5 10l-691 617l-709 -628q-14 -15 -30.5 -10t-16.5 25z" />
<glyph unicode="&#xe074;" d="M-287 1611q301 301 698.5 469t838.5 168q443 0 841.5 -169t699.5 -471l-202 -202q-261 263 -607 409.5t-732 146.5q-383 0 -728.5 -146t-606.5 -407zM110 1214q224 223 518.5 347.5t621.5 124.5q329 0 624.5 -125.5t519.5 -349.5l-214 -214q-182 183 -422.5 285 t-507.5 102q-266 0 -505.5 -101.5t-420.5 -282.5zM519 805q144 143 332.5 223t398.5 80q211 0 401 -81t334 -225l-194 -194q-105 106 -245 165.5t-296 59.5q-154 0 -292.5 -58.5t-244.5 -163.5zM909 416q66 66 154.5 103t186.5 37q99 0 188.5 -38t156.5 -106l-341 -342z" />
<glyph unicode="&#xe075;" d="M100 2100q0 41 29.5 70.5t70.5 29.5h300v200h1400v-200h300q41 0 70.5 -29.5t29.5 -70.5q0 -196 -6 -326t-13.5 -211t-29.5 -140.5t-39.5 -89t-57.5 -81.5q-83 -109 -159.5 -173.5t-178.5 -106.5q-112 -45 -235.5 -68.5t-209.5 2.5q-52 -97 -71 -191v-115q0 -107 78 -200 h122v-100h100v-300h-800v300h100v100h122q78 91 78 200v95q-22 95 -92 206q-159 -8 -307 33t-274 134t-207 229q-35 59 -58.5 136.5t-35.5 145t-18 173t-7 167.5t-1 181zM295.5 1796q3.5 -100 16 -186t57.5 -174t122 -167q55 -44 89.5 -67.5t108 -51t169.5 -41.5 q-76 98 -117.5 154.5t-96 147.5t-85.5 174q-41 108 -50 178t-9 201v36h-203q-5 -104 -1.5 -204zM1507 1105q136 11 232.5 49.5t171.5 114.5q91 90 141.5 210.5t50.5 320.5q0 24 -1 98t-1 102h-201q0 -22 0.5 -74t0 -69.5t-2.5 -57t-7 -60t-13.5 -55t-22.5 -66t-33 -69.5 q-26 -51 -54.5 -98t-66 -97.5t-59 -79t-70.5 -89t-65 -80.5z" />
<glyph unicode="&#xe076;" d="M-191 1839q13 39 46.5 54t74.5 2l370 -95l56 -100h832l-188 800h400l557 -200l343 -400l-343 -700h-1125l667 -700h299q3 0 24.5 -0.5t27.5 -0.5q104 0 177 -73t73 -176q0 -104 -73 -177t-177 -73q-103 0 -176 73.5t-73 176.5q0 50 5 50h-192l-386 405l-263 -208 q35 -73 35 -151q0 -145 -102 -247t-247 -102t-247 102t-102 247t102 247t247 102q94 0 179 -50l260 205l-334 350h-256l-106 433l-319 84q-40 13 -59 48t-7 74zM302 346q0 -62 43.5 -105.5t105.5 -43.5q61 0 105 43.5t44 105.5t-43.5 105.5t-105.5 43.5t-105.5 -43.5 t-43.5 -105.5zM1786 250q0 -27 19 -45.5t45 -18.5q27 0 45.5 18.5t18.5 45.5q0 26 -18.5 45t-45.5 19q-26 0 -45 -19t-19 -45z" />
<glyph unicode="&#xe077;" d="M0 550v600q0 233 99 454t262.5 384.5t384.5 262.5t454 99t454 -99t384.5 -262.5t262.5 -384.5t99 -454v-600q0 -21 -14.5 -35.5t-35.5 -14.5h-100q-21 0 -35.5 14.5t-14.5 35.5v600q0 191 -83 360.5t-220.5 286.5t-319.5 185t-377 68t-377 -68t-319.5 -185t-220.5 -286.5 t-83 -360.5v-600q0 -21 -14.5 -35.5t-35.5 -14.5h-100q-21 0 -35.5 14.5t-14.5 35.5zM300 50v798q0 52 34 52h253q21 0 35.5 -15t14.5 -36q6 -17 14 -48.5t22 -135.5t14 -215t-12.5 -211t-24.5 -145l-13 -44q0 -21 -14.5 -35.5t-35.5 -14.5h-253q-34 0 -34 50zM1713 450 q0 111 12.5 211t24.5 144l13 44q0 21 14.5 36t35.5 15h253q34 0 34 -52v-798q0 -50 -34 -50h-253q-21 0 -35.5 15t-14.5 35q-6 17 -14 48.5t-22 136t-14 215.5z" />
<glyph unicode="&#xe078;" d="M0 550v600q0 233 99 454t262.5 384.5t384.5 262.5t454 99t454 -99t384 -262.5t262 -384.5t98 -454v-870q-2 -13 -9 -34t-33.5 -71.5t-65 -98.5t-111 -107.5t-163.5 -107t-230.5 -87.5t-304.5 -58q-24 -52 -73 -84t-108 -32h-100q-83 0 -141.5 58.5t-58.5 141.5 q0 82 59 141t141 59h100q104 0 164 -86q123 14 228.5 41t177 58.5t130.5 71t92.5 72.5t59 68.5t34.5 54t14 33.5v837q0 191 -83 360.5t-220.5 286.5t-319.5 185t-377 68t-377 -68t-319.5 -185t-220.5 -286.5t-83 -360.5v-600q0 -21 -14.5 -35.5t-35.5 -14.5h-100 q-21 0 -35.5 14.5t-14.5 35.5zM300 50v798q0 52 34 52h253q21 0 35.5 -15t14.5 -36q6 -17 14 -48.5t22 -135.5t14 -215t-12.5 -211t-24.5 -145l-13 -44q0 -21 -14.5 -35.5t-35.5 -14.5h-253q-34 0 -34 50zM1713 450q0 111 12.5 211t24.5 144l13 44q0 21 14.5 36t35.5 15h253 q34 0 34 -52v-457q-143 -173 -360 -233q-27 209 -27 292z" />
<glyph unicode="&#xe079;" d="M-138 149.5q0 39.5 20 75.5l1238 2095q20 35 54.5 55t75.5 20t75.5 -20t54.5 -55l1238 -2095q20 -36 20 -75.5t-20 -74.5t-55 -55t-75 -20h-2476q-40 0 -75 20t-55 55t-20 74.5zM271 300h1958l-979 1680zM1100 437v225q0 16 11 27t27 11h225q15 0 26 -11t11 -27v-225 q0 -15 -11 -26t-26 -11h-225q-16 0 -27 11t-11 26zM1100 1262v188q0 20 14.5 35t35.5 15h200q21 0 35.5 -15t14.5 -35v-188q0 -39 -7 -74l-68 -345q-3 -16 -16.5 -29.5t-28.5 -13.5h-59q-14 0 -27.5 13.5t-16.5 29.5l-70 342q-7 35 -7 77z" />
<glyph unicode="&#xe080;" d="M0 0v650q0 21 14.5 35.5t35.5 14.5h300q21 0 35.5 -14.5t14.5 -35.5v-650h-400zM500 0v950q0 21 14.5 35.5t35.5 14.5h300q21 0 35.5 -14.5t14.5 -35.5v-950h-400zM1000 0v1250q0 21 14.5 35.5t35.5 14.5h300q21 0 35.5 -14.5t14.5 -35.5v-1250h-400zM1500 0v1750 q0 21 14.5 35.5t35.5 14.5h300q21 0 35.5 -14.5t14.5 -35.5v-1750h-400zM2000 0v2350q0 21 14.5 35.5t35.5 14.5h300q21 0 35.5 -14.5t14.5 -35.5v-2350h-400z" />
<glyph unicode="&#xe081;" d="M-175 1318q-6 18 6 34l390 526q13 17 30.5 19t29.5 -14l390 -532q13 -17 7 -34t-27 -17h-251v-600h1172l231 -300h-1653q-21 0 -35.5 14.5t-14.5 35.5v850h-249q-20 0 -26 18zM606 1900h1644q21 0 35.5 -14.5t14.5 -35.5v-850h251q21 0 27 -11t-7 -28l-390 -519 q-12 -17 -29.5 -17t-30.5 16l-390 520q-12 17 -6 28t26 11h249v600h-1163z" />
<glyph unicode="&#xe082;" d="M0 1243.5q-4 -169.5 37 -340.5l290 5l20 3q-70 197 -39 416.5t161 399.5q138 191 347 288.5t439 82.5t428 -142l-145 -200q-12 -16 -6 -28t27 -12l650 12q20 0 30.5 14t4.5 34l-193 621q-6 20 -19 22t-25 -15l-148 -204l-6 4q-198 129 -428 173t-446.5 4t-415.5 -163 t-337 -315q-107 -148 -164.5 -319t-61.5 -340.5zM152 624q-6 20 4.5 34t30.5 14l650 12q20 0 26.5 -12t-5.5 -28l-145 -200q198 -127 428 -142t439 82.5t347 288.5q130 179 161 397t-37 414l309 6q65 -245 17 -509.5t-207 -483.5q-138 -192 -337 -315t-415.5 -163t-446.5 4 t-428 173l-6 4l-148 -204q-12 -17 -25 -15t-20 22z" />
<glyph unicode="&#xe083;" d="M43 882q-87 316 0 631l271 -155q-36 -201 18 -396q52 -190 175.5 -337t294.5 -231q21 151 31 207q12 62 61 16q24 -23 212 -211t216 -217q27 -29 25.5 -42.5t-28.5 -29.5q-28 -17 -272 -151t-275 -149q-33 -18 -46 -13t-9 38l37 245q-257 103 -446 310.5t-265 484.5z M214 1650q17 547 23 609q7 71 63 23l164 -136q192 149 418 211q326 84 631 1t530 -306l-271 -159q-167 138 -377.5 185t-432.5 -10q-138 -38 -260 -120q143 -117 173 -142q15 -13 21 -25t-0.5 -22.5t-24.5 -15.5q-38 -10 -285 -71.5t-292 -71.5q-51 -13 -66 -4.5t-14 54.5z M1498 38v314q154 53 278 156.5t206 246.5q134 235 114 507q-179 -78 -215 -92q-27 -11 -37 0t-3 42q18 74 52.5 222t63 269.5t29.5 124.5q10 40 48 18q30 -16 561 -316q21 -12 21.5 -29.5t-16.5 -23.5l-215 -92q32 -204 -5.5 -404t-136.5 -375q-116 -204 -303 -351.5 t-423 -211.5q-3 -1 -9.5 -2.5t-9.5 -2.5z" />
<glyph unicode="&#xe084;" d="M-200 550v200q0 20 17 35t38 15h592l1200 1100h353v250q0 20 13 26t29 -6l522 -390q16 -13 16 -30.5t-16 -29.5l-522 -390q-16 -13 -29 -7t-13 27v250h-237l-1200 -1100h-708q-21 0 -38 14.5t-17 35.5zM-200 1650v200q0 20 17 35t38 15h708l431 -395l-222 -203l-326 298 h-591q-21 0 -38 14.5t-17 35.5zM1216 895l222 203l325 -298h237v250q0 20 13 26t29 -6l523 -390q17 -13 17 -30.5t-17 -29.5l-523 -390q-16 -13 -29 -7t-13 27v250h-354z" />
<glyph unicode="&#xe085;" d="M-58 1912q-6 12 6 28l380 517q12 17 29.5 17t30.5 -16l399 -518q12 -16 6.5 -28t-26.5 -12h-262q0 -96 -9.5 -176t-30 -149.5t-35.5 -108t-43 -102.5q-25 -56 -36.5 -86t-27 -83t-22 -112t-6.5 -133q0 -97 14.5 -177.5t30 -122t47.5 -114.5q28 -64 43 -102.5t35.5 -108 t30 -149.5t9.5 -176h-300q0 74 -6.5 133t-22 112t-27 83t-36.5 86q-28 64 -43 102.5t-35.5 108t-30 149.5t-9.5 176t9.5 176t30 149.5t35.5 108t43 102.5q32 73 47.5 114.5t30 122t14.5 177.5h-236q-21 0 -27 12zM942 1912q-6 12 6 28l380 517q12 17 29.5 17t30.5 -16 l399 -518q12 -16 6.5 -28t-26.5 -12h-262q0 -96 -9.5 -176t-30 -149.5t-35.5 -108t-43 -102.5q-25 -56 -36.5 -86t-27 -83t-22 -112t-6.5 -133q0 -97 14.5 -177.5t30 -122t47.5 -114.5q28 -64 43 -102.5t35.5 -108t30 -149.5t9.5 -176h-300q0 74 -6.5 133t-22 112t-27 83 t-36.5 86q-28 64 -43 102.5t-35.5 108t-30 149.5t-9.5 176t9.5 176t30 149.5t35.5 108t43 102.5q32 73 47.5 114.5t30 122t14.5 177.5h-236q-21 0 -27 12zM1942 1912q-6 12 6 28l380 517q12 17 29.5 17t30.5 -16l399 -518q13 -16 7 -28t-27 -12h-262q0 -96 -9.5 -176 t-30 -149.5t-35.5 -108t-43 -102.5q-25 -56 -36.5 -86t-27 -83t-22 -112t-6.5 -133t6.5 -133t22 -112t27 -83t36.5 -86q28 -64 43 -102.5t35.5 -108t30 -149.5t9.5 -176h-300q0 74 -6.5 133t-22 112t-27 83t-36.5 86q-28 64 -43 102.5t-35.5 108t-30 149.5t-9.5 176t9.5 176 t30 149.5t35.5 108t43 102.5q25 56 36.5 86t27 83t22 112t6.5 133h-236q-21 0 -27 12z" />
<glyph unicode="&#xe086;" d="M14 1200q0 183 57 365.5t169 337.5q138 192 337 315t415.5 163t446.5 -4t428 -173l6 -4l148 204q12 17 25 15t19 -22l193 -621q6 -20 -4.5 -34t-30.5 -14l-650 -12q-20 0 -26.5 12t5.5 28l145 200q-198 127 -428 142t-439 -82.5t-347 -288.5q-169 -234 -169 -527 q0 -175 68 -342.5t195 -294.5q126 -126 290 -193.5t337 -69.5q189 -2 365.5 70t318.5 235q42 48 113 153q18 26 54.5 27.5t70.5 -21.5l83 -56q34 -22 46 -57.5t-5 -60.5q-18 -27 -68 -93.5t-69 -89.5q-112 -135 -273.5 -230t-322.5 -137t-313 -41q-232 2 -450 91t-389 259 q-99 99 -170.5 214t-109 228t-54.5 213t-17 196z" />
<glyph unicode="&#xe087;" d="M-200 600v1700q0 41 29.5 70.5t70.5 29.5h2600q41 0 70.5 -29.5t29.5 -70.5v-1700q0 -41 -29.5 -70.5t-70.5 -29.5h-1100v-100q0 -56 20.5 -97t50 -60t59 -30t50.5 -12l20 -1h365q14 0 24.5 -10.5t10.5 -24.5v-165h-1600v165q0 14 10.5 24.5t25.5 10.5h369q8 0 21 1 t46.5 12t59.5 30t47 60t21 97v100h-1100q-41 0 -70.5 29.5t-29.5 70.5zM0 800h2400v1400h-2400v-1400zM2300 600h100v100h-100v-100z" />
<glyph unicode="&#xe088;" d="M100 0v2025l350 375h1450q98 0 191 -58t151 -151t58 -191v-1500l-200 -200v1600q0 300 -300 300h-1227l-200 -200h1227q124 0 212 -88t88 -212v-1400q0 -124 -88 -212t-212 -88h-1500zM536 980.5q0 -9.5 7 -16.5l374 -375q7 -7 16.5 -7t16.5 7l690 690q16 17 0 33 l-156 154q-16 16 -34 -1l-499 -499q-7 -8 -17 -8t-17 8l-186 186q-7 7 -17 7t-17 -7l-154 -155q-7 -7 -7 -16.5z" />
<glyph unicode="&#xe089;" d="M100 0v2025l350 375h1450q98 0 191 -58t151 -151t58 -191v-1500l-200 -200v1600q0 300 -300 300h-1227l-200 -200h1227q124 0 212 -88t88 -212v-1400q0 -124 -88 -212t-212 -88h-1500zM500 622q0 -9 6.5 -15.5t15.5 -6.5h956q9 0 15.5 6.5t6.5 15.5v102q0 35 -9 52.5 t-35 32.5q-14 8 -162.5 60.5t-193.5 71.5v90q35 10 67.5 53.5t32.5 79.5v199q0 85 -53 140.5t-147 55.5t-147 -55.5t-53 -140.5v-199q0 -36 32.5 -79.5t67.5 -53.5v-90q-45 -19 -193.5 -71.5t-162.5 -60.5q-26 -15 -35 -32.5t-9 -52.5v-102z" />
<glyph unicode="&#xe090;" d="M0 0v100h100v100h100v2000h2000v-2000h100v-100h100v-100h-1000v300h-400v-300h-1000zM200 2300l200 200h500l100 100h400l100 -100h500l200 -200h-2000zM500 500h400v200h-400v-200zM500 900h400v200h-400v-200zM500 1300h400v200h-400v-200zM500 1700h400v200h-400 v-200zM1000 500h400v200h-400v-200zM1000 900h400v200h-400v-200zM1000 1300h400v200h-400v-200zM1000 1700h400v200h-400v-200zM1500 500h400v200h-400v-200zM1500 900h400v200h-400v-200zM1500 1300h400v200h-400v-200zM1500 1700h400v200h-400v-200z" />
<glyph unicode="&#xe091;" d="M0.5 259.5q1.5 98.5 71.5 168.5l35 35q13 15 13 33q-16 71 9 153.5t80 136.5l898 898l-112 111q-24 24 -24.5 58t22.5 57l142 141q22 23 56 23q33 0 59 -24l155 -156q6 9 13 16l319 319q155 157 283 157q97 0 183 -86l71 -71q50 -51 71 -104.5t16.5 -99.5t-30 -96 t-55.5 -87t-73 -80l-319 -319l-15 -12l155 -156q24 -24 24.5 -57.5t-22.5 -56.5l-142 -142q-23 -23 -55 -23q-33 0 -60 25l-111 111l-898 -898q-44 -44 -107.5 -69t-125.5 -25q-33 0 -55 5q-20 0 -34 -12l-36 -36q-71 -71 -171 -71q-97 0 -164 67q-68 68 -66.5 166.5z M321 700h707l531 531l-353 354z" />
<glyph unicode="&#xe092;" d="M-25 1200q0 166 44 325t123 293t192.5 247.5t247.5 192.5t293 123t325 44t325 -44t293.5 -123t247.5 -192.5t192 -247.5t123 -293t44 -325t-44 -325t-123 -293.5t-192 -247.5t-247.5 -192t-293.5 -123t-325 -44t-325 44t-293 123t-247.5 192t-192.5 247.5t-123 293.5 t-44 325zM229 1200q0 -186 66 -356.5t181.5 -299t277 -213.5t346.5 -105v1948q-185 -20 -346.5 -105t-277 -213.5t-181.5 -299t-66 -356.5z" />
<glyph unicode="&#xe093;" d="M89 791q0 121 32 239t86.5 221.5t122 205t144 207t146 209t134 229.5t103.5 251q37 -125 101 -250.5t133.5 -228.5t146 -208t144.5 -206t123 -204t87.5 -221t32.5 -239q0 -126 -45.5 -239.5t-122.5 -196.5t-175.5 -144t-208 -91.5t-216.5 -30.5t-216 30t-208 90.5 t-176 142.5t-122.5 195t-45.5 239zM295 791q1 -83 45 -159t128 -127t189 -56q50 2 65 20.5t-4 42.5t-61 42q-62 28 -100 100.5t-38 157.5q0 122 17.5 257t49.5 230q13 41 -19 56q-34 17 -73 -14q-20 -17 -34 -42q-67 -113 -116.5 -253.5t-48.5 -254.5zM1566 1719 q0 83 30 163.5t78 151.5t98.5 140t101 155.5t76.5 170.5q22 -72 61 -145.5t80.5 -129.5t85.5 -120t78.5 -119.5t56.5 -124.5t22 -139q0 -104 -59.5 -186.5t-146.5 -124t-178 -41.5q-67 0 -134.5 24.5t-123.5 68t-91 111t-35 145.5zM1669 1719q1 -65 51.5 -116t129.5 -55 q25 1 32.5 10.5t-2 21t-30.5 21.5q-30 13 -49.5 50t-19.5 79q0 141 34 243q7 24 -14 30q-25 7 -45 -23l-4 -7q-33 -55 -58 -125.5t-25 -128.5z" />
<glyph unicode="&#xe094;" d="M-100 1700v400h300v-400h-300zM300 300v2100h400v-300h1259l370 371l142 -142l-371 -370v-1259h400v-400h-2200zM700 841l859 859h-859v-859zM841 700h859v859zM1700 -100v300h400v-300h-400z" />
<glyph unicode="&#xe095;" d="M0 0v400h100v1600h-100v400h400v-100h1600v100h400v-400h-100v-1600h100v-400h-400v100h-1600v-100h-400zM100 100h200v200h-200v-200zM100 2100h200v200h-200v-200zM300 400h100v-100h1600v100h100v1600h-100v100h-1600v-100h-100v-1600zM2100 100h200v200h-200v-200z M2100 2100h200v200h-200v-200z" />
<glyph unicode="&#xe096;" d="M0 1000v400h119q31 165 110.5 313.5t194 263t263 194t313.5 110.5v119h400v-119q334 -62 576.5 -304.5t304.5 -576.5h119v-400h-119q-31 -165 -110.5 -313.5t-194 -263t-263 -194t-313.5 -110.5v-119h-400v119q-334 62 -576.5 304.5t-304.5 576.5h-119zM100 1100h200v200 h-200v-200zM323 1000q58 -252 241.5 -435.5t435.5 -241.5v77h400v-77q252 58 435.5 241.5t241.5 435.5h-77v400h77q-58 252 -241.5 435.5t-435.5 241.5v-77h-400v77q-252 -58 -435.5 -241.5t-241.5 -435.5h77v-400h-77zM1100 100h200v200h-200v-200zM1100 2100h200v200h-200 v-200zM2100 1100h200v200h-200v-200z" />
<glyph unicode="&#xe097;" d="M-100 1300v400h305l795 574v226h400v-226l798 -574h302v-400h-150l-294 -900h44v-400h-400v100h-1000v-100h-400v400h44l-295 900h-149zM0 1400h200v200h-200v-200zM259 1300l295 -900h146v-100h1000v100h146l294 900h-40v224l-800 576h-200l-800 -578v-222h-41zM400 100 h200v200h-200v-200zM1100 2200h200v200h-200v-200zM1800 100h200v200h-200v-200zM2200 1400h200v200h-200v-200z" />
<glyph unicode="&#xe098;" d="M0 0v400h259l1741 1741v259h400v-400h-259l-1741 -1741v-259h-400zM100 100h200v200h-200v-200zM2100 2100h200v200h-200v-200z" />
<glyph unicode="&#xe099;" d="M0 0v400h136q82 471 342.5 866t655.5 655.5t866 342.5v136h400v-400h-400v61q-312 -60 -591 -210t-494.5 -365.5t-365.5 -494.5t-210 -591h61v-400h-400zM100 100h200v200h-200v-200zM2100 2100h200v200h-200v-200z" />
<glyph unicode="&#xe100;" d="M0 0v400h100v600h-100v400h100v600h-100v400h400v-100h600v100h400v-100h600v100h400v-400h-100v-600h100v-400h-100v-600h100v-400h-400v100h-600v-100h-400v100h-600v-100h-400zM100 100h200v200h-200v-200zM100 1100h200v200h-200v-200zM100 2100h200v200h-200v-200z M300 400h100v-100h600v100h400v-100h600v100h100v600h-100v400h100v600h-100v100h-600v-100h-400v100h-600v-100h-100v-600h100v-400h-100v-600zM1100 100h200v200h-200v-200zM1100 2100h200v200h-200v-200zM2100 100h200v200h-200v-200zM2100 1100h200v200h-200v-200z M2100 2100h200v200h-200v-200z" />
<glyph unicode="&#xe101;" d="M0 100v127q108 46 161 99q24 24 48.5 60t37.5 60l13 24l766 1930h179l738 -1914q39 -97 115 -177q34 -36 69.5 -56.5t54.5 -22.5l18 -3v-127h-800v127q52 0 90.5 25t55 62.5t20.5 82t-13 83.5l-158 426h-750q-110 -279 -176 -450q-21 -64 -11.5 -108t49 -71t88 -38.5 t105.5 -11.5v-127h-700zM695 1100h653l-222 607l-88 269zM1700 1400v60l93 46l376 894h81l364 -896l86 -46v-58h-400v58l110 50l-76 200h-353l-91 -201l110 -47v-60h-300zM2018 1800h297l-101 280l-40 121z" />
<glyph unicode="&#xe102;" d="M500 0v114q146 13 229.5 77.5t101.5 165.5l319 1682q2 12 6 33q25 105 2 141.5t-158 72.5v114h803l2 -114q-65 -15 -103 -25t-72.5 -25t-51 -29t-32 -40t-22.5 -53.5t-15 -74.5l-284 -1682q-16 -92 39 -160t136 -83v-114h-900z" />
<glyph unicode="&#xe103;" d="M200 0v178q82 13 141 64.5t59 130.5v1655q0 36 -0.5 52t-3 40.5t-7 34.5t-14.5 26t-23.5 23t-36 18t-49.5 18.5t-66 16.5v143h1096q114 0 229 -45t210 -124.5t155 -201.5t60 -263q0 -80 -24.5 -151.5t-64 -122t-87 -93t-95 -69.5t-87 -45.5t-64.5 -26.5l-24 -8 q12 -3 32.5 -9t80 -30t114 -54.5t120.5 -84t113.5 -115.5t80 -152.5t32.5 -192.5q0 -124 -52 -228.5t-135 -173.5t-188 -118t-209 -70.5t-201 -21.5h-1092zM900 300h299q168 0 266 96t98 270q0 90 -22 167t-66 137.5t-115.5 95t-163.5 34.5h-296v-800zM900 1400h296 q58 0 103.5 20t74.5 53t48 79t26.5 94.5t7.5 103.5q0 70 -13 129t-41.5 110.5t-81 81t-124.5 29.5h-296v-700z" />
<glyph unicode="&#xe104;" d="M200 0v200h2000v-200h-2000zM200 1900v500h2000v-500h-100q0 146 -81.5 223t-218.5 77h-400v-1600q0 -24 14 -42t42.5 -28.5t55 -17t67.5 -9t63 -3t58 -0.5v-100h-1000v100q36 0 58 0.5t63 3t67.5 9t55 17t42.5 28.5t14 42v1600h-400q-137 0 -218.5 -77t-81.5 -223h-100z " />
<glyph unicode="&#xe105;" d="M200 1200v200h800v800h-400q-137 0 -218.5 -77t-81.5 -223h-100v500h2000v-500h-100q0 146 -81.5 223t-218.5 77h-400v-800h800v-200h-800v-800q0 -24 14 -42t42.5 -28.5t55 -17t67.5 -9t63 -3t58 -0.5v-100h-1000v100q36 0 58 0.5t63 3t67.5 9t55 17t42.5 28.5t14 42 v800h-800z" />
<glyph unicode="&#xe106;" d="M-100 500h200v1600h-200l250 333l250 -333h-200v-1600h200l-250 -333zM500 1900v500h2000v-500h-100q0 146 -81.5 223t-218.5 77h-400v-1800q0 -24 14 -42t42.5 -28.5t55 -17t67.5 -9t63 -3t58 -0.5v-100h-1000v100q36 0 58 0.5t63 3t67.5 9t55 17t42.5 28.5t14 42v1800 h-400q-137 0 -218.5 -77t-81.5 -223h-100z" />
<glyph unicode="&#xe107;" d="M167 250l333 250v-200h1400v200l333 -250l-333 -250v200h-1400v-200zM200 1900v500h2000v-500h-100q0 146 -81.5 223t-218.5 77h-400v-1500q0 -24 14 -42t42.5 -28.5t55 -17t67.5 -9t63 -3t58 -0.5v-100h-1000v100q36 0 58 0.5t63 3t67.5 9t55 17t42.5 28.5t14 42v1500 h-400q-137 0 -218.5 -77t-81.5 -223h-100z" />
<glyph unicode="&#xe108;" d="M-100 -100v300h100v2000h-100v300h300v-100h2000v100h300v-300h-100v-2000h100v-300h-300v100h-2000v-100h-300zM0 0h100v100h-100v-100zM0 2300h100v100h-100v-100zM100 200h100v-100h2000v100h100v2000h-100v100h-2000v-100h-100v-2000zM200 1600v500h2000v-500h-100 q0 146 -81.5 223t-218.5 77h-400v-1400q0 -24 14 -42t42.5 -28.5t55 -17t67.5 -9t63 -3t58 -0.5v-100h-1000v100q36 0 58 0.5t63 3t67.5 9t55 17t42.5 28.5t14 42v1400h-400q-137 0 -218.5 -77t-81.5 -223h-100zM2300 0h100v100h-100v-100zM2300 2300h100v100h-100v-100z " />
<glyph unicode="&#xe109;" d="M0 1100v100h300v200l333 -250l-333 -250v200h-300zM700 100v2200h200v-2200h-200zM1000 350v200q0 20 14.5 35t35.5 15h1300q21 0 35.5 -15t14.5 -35v-200q0 -21 -14.5 -35.5t-35.5 -14.5h-1300q-21 0 -35.5 14.5t-14.5 35.5zM1000 850v200q0 21 14.5 35.5t35.5 14.5h800 q21 0 35.5 -14.5t14.5 -35.5v-200q0 -21 -14.5 -35.5t-35.5 -14.5h-800q-21 0 -35.5 14.5t-14.5 35.5zM1000 1350v200q0 21 14.5 35.5t35.5 14.5h1100q21 0 35.5 -14.5t14.5 -35.5v-200q0 -21 -14.5 -35.5t-35.5 -14.5h-1100q-21 0 -35.5 14.5t-14.5 35.5zM1000 1850v200 q0 21 14.5 35.5t35.5 14.5h600q21 0 35.5 -14.5t14.5 -35.5v-200q0 -21 -14.5 -35.5t-35.5 -14.5h-600q-21 0 -35.5 14.5t-14.5 35.5z" />
<glyph unicode="&#xe110;" d="M0 350v200q0 21 14.5 35.5t35.5 14.5h1300q21 0 35.5 -14.5t14.5 -35.5v-200q0 -21 -14.5 -35.5t-35.5 -14.5h-1300q-21 0 -35.5 14.5t-14.5 35.5zM0 850v200q0 21 14.5 35.5t35.5 14.5h800q21 0 35.5 -14.5t14.5 -35.5v-200q0 -21 -14.5 -35.5t-35.5 -14.5h-800 q-21 0 -35.5 14.5t-14.5 35.5zM0 1350v200q0 21 14.5 35.5t35.5 14.5h1100q21 0 35.5 -14.5t14.5 -35.5v-200q0 -21 -14.5 -35.5t-35.5 -14.5h-1100q-21 0 -35.5 14.5t-14.5 35.5zM0 1850v200q0 21 14.5 35.5t35.5 14.5h600q21 0 35.5 -14.5t14.5 -35.5v-200 q0 -21 -14.5 -35.5t-35.5 -14.5h-600q-21 0 -35.5 14.5t-14.5 35.5zM1500 100v2200h200v-2200h-200zM1767 1150l333 250v-200h300v-100h-300v-200z" />
<glyph unicode="&#xe111;" d="M0 150v200q0 20 14.5 35t35.5 15h2300q21 0 35.5 -15t14.5 -35v-200q0 -21 -14.5 -35.5t-35.5 -14.5h-2300q-21 0 -35.5 14.5t-14.5 35.5zM0 750v200q0 20 14.5 35t35.5 15h1699q20 0 35 -15t15 -35v-200q0 -21 -15 -35.5t-35 -14.5h-1699q-21 0 -35.5 14.5t-14.5 35.5z M0 1350v200q0 21 14.5 35.5t35.5 14.5h2099q20 0 35 -14.5t15 -35.5v-200q0 -21 -15 -35.5t-35 -14.5h-2099q-21 0 -35.5 14.5t-14.5 35.5zM0 1950v200q0 21 14.5 35.5t35.5 14.5h1299q20 0 35 -14.5t15 -35.5v-200q0 -21 -15 -35.5t-35 -14.5h-1299q-21 0 -35.5 14.5 t-14.5 35.5z" />
<glyph unicode="&#xe112;" d="M0 150v200q0 21 14.5 35.5t35.5 14.5h2300q21 0 35.5 -14.5t14.5 -35.5v-200q0 -21 -14.5 -35.5t-35.5 -14.5h-2300q-21 0 -35.5 14.5t-14.5 35.5zM0 1350v200q0 21 14.5 35.5t35.5 14.5h2300q21 0 35.5 -14.5t14.5 -35.5v-200q0 -21 -14.5 -35.5t-35.5 -14.5h-2300 q-21 0 -35.5 14.5t-14.5 35.5zM400 750v200q0 21 14.5 35.5t35.5 14.5h1500q21 0 35.5 -14.5t14.5 -35.5v-200q0 -21 -14.5 -35.5t-35.5 -14.5h-1500q-21 0 -35.5 14.5t-14.5 35.5zM400 1950v200q0 21 14.5 35.5t35.5 14.5h1500q21 0 35.5 -14.5t14.5 -35.5v-200 q0 -21 -14.5 -35.5t-35.5 -14.5h-1500q-21 0 -35.5 14.5t-14.5 35.5z" />
<glyph unicode="&#xe113;" d="M0 150v200q0 20 14.5 35t35.5 15h2300q21 0 35.5 -15t14.5 -35v-200q0 -21 -14.5 -35.5t-35.5 -14.5h-2300q-21 0 -35.5 14.5t-14.5 35.5zM201 1350v200q0 21 15 35.5t35 14.5h2099q21 0 35.5 -14.5t14.5 -35.5v-200q0 -21 -14.5 -35.5t-35.5 -14.5h-2099q-20 0 -35 14.5 t-15 35.5zM601 750v200q0 20 15 35t35 15h1699q21 0 35.5 -15t14.5 -35v-200q0 -21 -14.5 -35.5t-35.5 -14.5h-1699q-20 0 -35 14.5t-15 35.5zM1001 1950v200q0 21 15 35.5t35 14.5h1299q21 0 35.5 -14.5t14.5 -35.5v-200q0 -21 -14.5 -35.5t-35.5 -14.5h-1299 q-20 0 -35 14.5t-15 35.5z" />
<glyph unicode="&#xe114;" d="M0 150v200q0 21 14.5 35.5t35.5 14.5h2300q21 0 35.5 -14.5t14.5 -35.5v-200q0 -21 -14.5 -35.5t-35.5 -14.5h-2300q-21 0 -35.5 14.5t-14.5 35.5zM0 750v200q0 21 14.5 35.5t35.5 14.5h2300q21 0 35.5 -14.5t14.5 -35.5v-200q0 -21 -14.5 -35.5t-35.5 -14.5h-2300 q-21 0 -35.5 14.5t-14.5 35.5zM0 1350v200q0 21 14.5 35.5t35.5 14.5h2300q21 0 35.5 -14.5t14.5 -35.5v-200q0 -21 -14.5 -35.5t-35.5 -14.5h-2300q-21 0 -35.5 14.5t-14.5 35.5zM0 1950v200q0 21 14.5 35.5t35.5 14.5h2300q21 0 35.5 -14.5t14.5 -35.5v-200 q0 -21 -14.5 -35.5t-35.5 -14.5h-2300q-21 0 -35.5 14.5t-14.5 35.5z" />
<glyph unicode="&#xe115;" d="M0 150v200q0 21 14.5 35.5t35.5 14.5h200q21 0 35.5 -14.5t14.5 -35.5v-200q0 -21 -14.5 -35.5t-35.5 -14.5h-200q-21 0 -35.5 14.5t-14.5 35.5zM0 750v200q0 21 14.5 35.5t35.5 14.5h200q21 0 35.5 -14.5t14.5 -35.5v-200q0 -21 -14.5 -35.5t-35.5 -14.5h-200 q-21 0 -35.5 14.5t-14.5 35.5zM0 1350v200q0 21 14.5 35.5t35.5 14.5h200q21 0 35.5 -14.5t14.5 -35.5v-200q0 -21 -14.5 -35.5t-35.5 -14.5h-200q-21 0 -35.5 14.5t-14.5 35.5zM0 1950v200q0 21 14.5 35.5t35.5 14.5h200q21 0 35.5 -14.5t14.5 -35.5v-200 q0 -21 -14.5 -35.5t-35.5 -14.5h-200q-21 0 -35.5 14.5t-14.5 35.5zM500 150v200q0 21 14.5 35.5t35.5 14.5h1800q21 0 35.5 -14.5t14.5 -35.5v-200q0 -21 -14.5 -35.5t-35.5 -14.5h-1800q-21 0 -35.5 14.5t-14.5 35.5zM500 750v200q0 21 14.5 35.5t35.5 14.5h1800 q21 0 35.5 -14.5t14.5 -35.5v-200q0 -21 -14.5 -35.5t-35.5 -14.5h-1800q-21 0 -35.5 14.5t-14.5 35.5zM500 1350v200q0 21 14.5 35.5t35.5 14.5h1800q21 0 35.5 -14.5t14.5 -35.5v-200q0 -21 -14.5 -35.5t-35.5 -14.5h-1800q-21 0 -35.5 14.5t-14.5 35.5zM500 1950v200 q0 20 14.5 35t35.5 15h1800q21 0 35.5 -15t14.5 -35v-200q0 -21 -14.5 -35.5t-35.5 -14.5h-1800q-21 0 -35.5 14.5t-14.5 35.5z" />
<glyph unicode="&#xe116;" d="M200 1500v500h1300v-500h-100q0 146 -81.5 223t-218.5 77h-100v-1200q0 -24 14 -42t42.5 -28.5t55 -17t67.5 -9t63 -3t58 -0.5v-100h-900v100q36 0 58 0.5t63 3t67.5 9t55 17t42.5 28.5t14 42v1200h-100q-137 0 -218.5 -77t-81.5 -223h-100zM1600 1000v200h800v-200h-800 z" />
<glyph unicode="&#xe117;" d="M0 1800v500h2000v-500h-100q0 146 -81.5 223t-218.5 77h-400v-1800q0 -24 14 -42t42.5 -28.5t55 -17t67.5 -9t63 -3t58 -0.5v-100h-1000v100q36 0 58 0.5t63 3t67.5 9t55 17t42.5 28.5t14 42v1800h-400q-137 0 -218.5 -77t-81.5 -223h-100zM1600 1000v200h300v300h200 v-300h300v-200h-300v-300h-200v300h-300z" />
<glyph unicode="&#xe118;" d="M-300 1037v150l1100 611v-265l-789 -421l789 -445v-266zM1600 401v266l789 445l-789 421v265l1100 -611v-150z" />
<glyph unicode="&#xe119;" d="M-300 1037v150l1100 611v-265l-789 -421l789 -445v-266zM825 0l941 2400h249l-939 -2400h-251zM1600 401v172l48 121l741 418l-478 255l83 212l706 -392v-150z" />
<glyph unicode="&#xe120;" d="M0 300v1800q0 124 88 212t212 88h1800q124 0 212 -88t88 -212v-1800q0 -124 -88 -212t-212 -88h-1800q-124 0 -212 88t-88 212zM200 200h600v300h-600v-300zM200 600h600v300h-600v-300zM200 1000h600v300h-600v-300zM200 1400h600v300h-600v-300zM200 1900h2000v300 h-2000v-300zM900 200h600v300h-600v-300zM900 600h600v300h-600v-300zM900 1000h600v300h-600v-300zM900 1400h600v300h-600v-300zM1600 200h600v300h-600v-300zM1600 600h600v300h-600v-300zM1600 1000h600v300h-600v-300zM1600 1400h600v300h-600v-300z" />
<glyph unicode="&#xe121;" d="M0 0l800 800h800l800 -800h-2400zM0 200v1400l700 -700zM0 1600l1200 1200l1200 -1200v-1400l-700 700l700 700h-200l-150 -150l-650 650l-998 -702l-202 202h-200z" />
<glyph unicode="&#xe122;" d="M0 0l800 800h800l800 -800h-2400zM0 200v1400l700 -700zM0 1600l1200 1200l1200 -1200v-1400l-700 700l700 700h-200l-700 -700h-600l-700 700h-200z" />
<glyph unicode="&#xe123;" d="M0 0l800 800h800l800 -800h-2400zM0 200v1400l700 -700zM0 1600l1200 1200l1200 -1200h-200l-700 -700h-600l-700 700h-200zM703.5 1788.5q-3.5 -11.5 3.5 -20.5l479 -569q7 -9 16.5 -10.5t16.5 7.5l477 573q7 9 3.5 20t-14.5 11h-285v460q0 40 -44 40h-311 q-45 0 -45 -40v-460h-283q-10 0 -13.5 -11.5zM1700 900l700 700v-1400z" />
<glyph unicode="&#xe124;" d="M0 0l800 800h800l800 -800h-2400zM0 200v1400l700 -700zM0 1600l1200 1200l1200 -1200v-1400l-700 700l700 700h-200l-700 -700h-600l-700 700h-200zM702.5 1711q3.5 -11 13.5 -11h284v-460q0 -40 45 -40h311q44 0 44 40v460h284q11 0 14.5 11.5t-4.5 20.5l-479 569 q-7 9 -16.5 10.5t-16.5 -7.5l-476 -573q-7 -9 -3.5 -20z" />
<glyph unicode="&#xe125;" d="M0 0l700 700l500 -500l500 500l700 -700h-2400zM0 200v1200l600 -600zM0 1600h1724q65 -262 282 -395l-806 -805zM1800 800l342 342q120 -42 258 -42v-900zM1900 1800q0 146 67.5 261t181 177t251.5 62q136 0 251 -67t182 -182t67 -251t-67 -251t-182 -182t-251 -67 q-140 0 -252 57t-180 172t-68 271zM2100 1750q0 -21 15 -35.5t35 -14.5h150v-150q0 -21 15 -35.5t35 -14.5h100q21 0 35.5 14.5t14.5 35.5v150h150q21 0 35.5 14.5t14.5 35.5v100q0 21 -14.5 35.5t-35.5 14.5h-150v150q0 21 -14.5 35.5t-35.5 14.5h-100q-20 0 -35 -14.5 t-15 -35.5v-150h-150q-20 0 -35 -14.5t-15 -35.5v-100z" />
<glyph unicode="&#xe126;" d="M0 0l700 700l500 -500l500 500l700 -700h-2400zM0 200v1200l600 -600zM0 1600h1724q65 -262 282 -395l-806 -805zM1800 800l342 342q120 -42 258 -42v-900zM1900 1800q0 120 39 216.5t107.5 157.5t158.5 93.5t195 32.5q101 0 194 -42.5t160 -113.5t106.5 -166.5 t39.5 -197.5q0 -135 -67 -245.5t-181.5 -172.5t-251.5 -62q-105 0 -195 32.5t-158.5 93.5t-107.5 157.5t-39 216.5zM2100 1750q0 -21 15 -35.5t35 -14.5h500q21 0 35.5 14.5t14.5 35.5v100q0 21 -14.5 35.5t-35.5 14.5h-500q-20 0 -35 -14.5t-15 -35.5v-100z" />
<glyph unicode="&#xe127;" d="M0 0l700 700l500 -500l500 500l700 -700h-2400zM0 200v1200l600 -600zM0 1600h1724q65 -262 281 -395l-805 -805zM1800 800l342 342q120 -42 258 -42v-900zM1909 1798q0 134 66.5 248t181 180.5t248.5 66.5t248 -66.5t180.5 -180.5t66.5 -248t-66.5 -248t-180.5 -180.5 t-248 -66.5t-248.5 66.5t-181 180.5t-66.5 248zM2033 1798q0 -106 58 -198l512 512q-92 58 -198 58q-154 0 -263 -109t-109 -263zM2207 1484q90 -57 198 -57q154 0 262.5 108.5t108.5 262.5q0 108 -57 198z" />
<glyph unicode="&#xe128;" d="M0 200v1200l600 -600zM3 0l700 700l500 -500l500 500l700 -700h-2400zM3 1600h1897v-150q0 -70 36.5 -129t96.5 -91l-830 -830zM1800 800l407 407q69 17 119 67t67 119l7 7v-1200zM2100 1450v850h550q21 0 35.5 -14.5t14.5 -35.5v-300q0 -21 -13.5 -41t-32.5 -28 l-454 -181v-250q0 -21 -14.5 -35.5t-35.5 -14.5t-35.5 14.5t-14.5 35.5z" />
<glyph unicode="&#xe129;" d="M0 0l700 700l500 -500l500 500l700 -700h-2400zM0 200v1200l600 -600zM0 1600h1800v-184q0 -85 58.5 -146.5t143.5 -67.5l-802 -802zM1800 800l400 400h200v-1000zM2000 1416v566q0 6 5 12t12 6h83v255q0 56 43.5 100.5t98.5 44.5h313q55 0 100 -45t45 -100v-255h81 q7 0 13 -6t6 -12v-566q0 -6 -6 -11t-13 -5h-764q-7 0 -12 5t-5 11zM2200 2000h400v255q0 25 -11 35t-36 10h-310q-25 0 -34 -9.5t-9 -35.5v-255z" />
<glyph unicode="&#xe130;" d="M0 0l700 700l500 -500l500 500l700 -700h-2400zM0 200v1200l600 -600zM0 1600h1835q70 -198 253 -312l-888 -888zM1800 800l426 426q84 -26 174 -26v-1000zM2000 1738v120q0 10 6.5 26t13.5 16h187l-122 110q-7 6 -7 9t5 9l83 84q11 12 23 0l111 -120v186q0 8 15 15t25 7 h120q10 0 25 -7t15 -15v-187l111 122q11 11 19 2l85 -82q10 -11 0 -23l-121 -110h186q7 0 13.5 -16t6.5 -26v-120q0 -10 -6.5 -24t-13.5 -14h-186l122 -112q10 -11 1 -20l-82 -84q-12 -12 -24 0l-111 121v-187q0 -7 -14.5 -12.5t-25.5 -5.5h-120q-11 0 -25.5 5.5t-14.5 12.5 v186l-111 -122q-9 -9 -18 -1l-85 83q-12 12 0 24l121 112h-187q-7 0 -13.5 14t-6.5 24z" />
<glyph unicode="&#xe131;" d="M0 50q2 1065 3 1069l373 1132q6 20 25.5 34.5t40.5 14.5h1516q22 0 41 -12t25 -32l373 -1137l3 -1069q0 -21 -14.5 -35.5t-35.5 -14.5h-2300q-21 0 -35.5 14.5t-14.5 35.5zM291 1100h409l200 -500h600l200 500h410l-304 900h-1212z" />
<glyph unicode="&#xe132;" d="M0 50q0 -21 14.5 -35.5t35.5 -14.5h2300q21 0 35.5 14.5t14.5 35.5q-2 1065 -3 1069l-125 381h-297l135 -400h-410l-200 -500h-600l-200 500h-409l303 900h906v300h-1058q-21 0 -40.5 -14.5t-25.5 -34.5l-373 -1132zM1700 2200q0 146 67.5 261t181 177t251.5 62 q136 0 251 -67t182 -182t67 -251t-67 -251t-182 -182t-251 -67q-140 0 -252 57t-180 172t-68 271zM1900 2150q0 -21 15 -35.5t35 -14.5h150v-150q0 -21 15 -35.5t35 -14.5h100q21 0 35.5 14.5t14.5 35.5v150h150q21 0 35.5 14.5t14.5 35.5v100q0 20 -14.5 35t-35.5 15h-150 v150q0 20 -14.5 35t-35.5 15h-100q-20 0 -35 -15t-15 -35v-150h-150q-20 0 -35 -15t-15 -35v-100z" />
<glyph unicode="&#xe133;" d="M0 50q2 1065 3 1069l373 1132q6 20 25.5 34.5t40.5 14.5h1058v-300h-906l-303 -900h409l200 -500h600l200 500h410l-135 400h297l125 -381l3 -1069q0 -21 -14.5 -35.5t-35.5 -14.5h-2300q-21 0 -35.5 14.5t-14.5 35.5zM1700 2200q0 120 39 216.5t107.5 157.5t158.5 93.5 t195 32.5q101 0 194 -42.5t160 -113.5t106.5 -166.5t39.5 -197.5q0 -135 -67 -245.5t-181.5 -172.5t-251.5 -62q-105 0 -195 32.5t-158.5 93.5t-107.5 157.5t-39 216.5zM1900 2150q0 -21 15 -35.5t35 -14.5h500q21 0 35.5 14.5t14.5 35.5v100q0 21 -14.5 35.5t-35.5 14.5 h-500q-20 0 -35 -14.5t-15 -35.5v-100z" />
<glyph unicode="&#xe134;" d="M0 50q2 1065 3 1069l373 1132q6 20 25.5 34.5t40.5 14.5h1058v-300h-906l-303 -900h409l200 -500h600l200 500h410l-135 400h297l125 -381l3 -1069q0 -21 -14.5 -35.5t-35.5 -14.5h-2300q-21 0 -35.5 14.5t-14.5 35.5zM1800 1816v566q0 6 5 12t12 6h83v255 q0 56 43.5 100.5t98.5 44.5h313q55 0 100 -45t45 -100v-255h81q7 0 13 -6t6 -12v-566q0 -6 -6 -11t-13 -5h-764q-7 0 -12 5t-5 11zM2000 2400h400v255q0 25 -10.5 35t-35.5 10h-311q-25 0 -34 -9.5t-9 -35.5v-255z" />
<glyph unicode="&#xe135;" d="M0 50q2 1065 3 1069l373 1132q6 20 25.5 34.5t40.5 14.5h458v-300h-306l-303 -900h409l200 -500h600l200 500h410l-304 900h-306v300h458q22 0 41 -12t25 -32l373 -1137l3 -1069q0 -21 -14.5 -35.5t-35.5 -14.5h-2300q-21 0 -35.5 14.5t-14.5 35.5zM703.5 1888.5 q3.5 11.5 13.5 11.5h283v650q0 21 15 35.5t35 14.5h300q21 0 35.5 -15t14.5 -35v-650h285q11 0 14 -11t-4 -20l-476 -573q-6 -8 -14 -8q-11 0 -19 11l-479 569q-7 9 -3.5 20.5z" />
<glyph unicode="&#xe136;" d="M0 50v1050h2q0 15 1 19l373 1132q6 20 25.5 34.5t40.5 14.5h280l-222 -300h100l-309 -900h409l200 -500h600l200 500h410l-310 900h100l-225 300h283q22 0 41 -12t25 -32l373 -1137l1 -19h2v-1050q0 -21 -14.5 -35.5t-35.5 -14.5h-2300q-21 0 -35.5 14.5t-14.5 35.5z M703 2005.5q-3 5.5 4 14.5l479 564q6 7 19 7q7 0 14 -9l476 -562q15 -20 -10 -20h-285v-674q0 -13 -8 -19t-15.5 -6.5t-26.5 -0.5h-300q-14 0 -19.5 0.5t-14.5 2.5t-12.5 7.5t-3.5 15.5v674h-283q-11 0 -14 5.5z" />
<glyph unicode="&#xe137;" d="M0 1205q0 61 11 154l316 79q28 109 89 216l-167 279q95 123 218 218l279 -167q101 59 216 89l79 316q94 11 154 11q62 0 154 -11l79 -316q116 -30 217 -89l279 167q123 -96 217 -218l-167 -279q58 -99 90 -216l315 -79q11 -80 11 -154q0 -75 -11 -154l-315 -79 q-31 -115 -90 -217l168 -278q-96 -123 -218 -218l-279 167q-100 -58 -217 -90l-79 -315q-86 -12 -154 -12q-67 0 -154 12l-79 315q-117 32 -216 90l-279 -167q-122 94 -218 217l167 279q-60 106 -89 217l-316 79q-11 92 -11 154zM777 1205q0 -173 122.5 -295.5t295.5 -122.5 t295.5 122.5t122.5 295.5t-122.5 295.5t-295.5 122.5t-295.5 -122.5t-122.5 -295.5z" />
<glyph unicode="&#xe138;" d="M-498 1194q0 74 11 154l315 79q31 115 90 217l-167 278q95 123 218 218l278 -167q104 60 217 89l79 316q80 11 154 11t154 -11l79 -316q113 -29 217 -89l278 167q123 -95 218 -218l-167 -278q60 -104 89 -217l316 -79q11 -80 11 -154t-11 -154l-316 -79 q-30 -114 -89 -216l167 -279q-95 -123 -218 -218l-278 167q-104 -60 -217 -89l-79 -316q-80 -11 -154 -11t-154 11l-79 316q-113 29 -217 89l-278 -167q-123 95 -218 218l167 278q-59 102 -90 217l-315 79q-11 80 -11 154zM279 1194q0 -173 122.5 -295.5t295.5 -122.5 t295.5 122.5t122.5 295.5t-122.5 295.5t-295.5 122.5t-295.5 -122.5t-122.5 -295.5zM1726 301q0 37 6 73l151 38l2 6q13 46 38 93l3 5l-80 134q46 58 105 105l133 -81l5 3q44 25 94 39l5 1l38 152q47 5 74 5q34 0 74 -5l38 -152l6 -1q48 -14 93 -39l5 -3l134 81 q60 -47 104 -105l-80 -134l3 -5q23 -42 39 -93l1 -6l152 -38q5 -45 5 -73q0 -34 -5 -74l-152 -38l-1 -6q-15 -49 -39 -93l-3 -5l80 -134q-48 -61 -104 -105l-134 81l-5 -3q-42 -25 -93 -39l-6 -2l-38 -151q-47 -5 -74 -5q-34 0 -74 5l-38 151l-5 2q-49 13 -94 39l-5 2 l-133 -80q-60 46 -105 105l80 134l-3 5q-24 44 -38 93l-2 6l-151 38q-6 40 -6 74zM2085 301q0 -89 63 -152t152 -63t152 63t63 152t-63 151.5t-152 62.5t-152 -63t-63 -151z" />
<glyph unicode="&#xe139;" d="M0 287v1825q0 37 25.5 62.5t62.5 25.5h2225q36 0 61.5 -25.5t25.5 -62.5v-1825q0 -36 -25.5 -61.5t-61.5 -25.5h-2225q-37 0 -62.5 25.5t-25.5 61.5zM200 500l606 400q36 -14 95.5 -38.5t196 -90t219.5 -117.5q69 -44 66 -1q-3 50 -83 159q-93 127 -178 176l-23 12 q44 44 134.5 144t159.5 178l69 78l11 11t28.5 24t43 30t51.5 24t57 11q43 0 91.5 -25t75.5 -50l27 -25l353 -358v958h-2000v-1500zM381 1600q0 90 64 154.5t155 64.5t155 -64.5t64 -154.5q0 -91 -64 -155t-155 -64t-155 64t-64 155z" />
<glyph unicode="&#xe140;" d="M100 600v300q0 41 29.5 70.5t70.5 29.5h100v1400h300v-1400h100q41 0 70.5 -29.5t29.5 -70.5v-300q0 -41 -29.5 -70.5t-70.5 -29.5h-500q-41 0 -70.5 29.5t-29.5 70.5zM200 700h500v50h-500v-50zM300 0v400h300v-400h-300zM900 1100v300q0 41 29.5 70.5t70.5 29.5h100 v900h300v-900h100q41 0 70.5 -29.5t29.5 -70.5v-300q0 -41 -29.5 -70.5t-70.5 -29.5h-500q-41 0 -70.5 29.5t-29.5 70.5zM1000 1200h500v50h-500v-50zM1100 0v900h300v-900h-300zM1700 1600v300q0 41 29.5 70.5t70.5 29.5h100v400h300v-400h100q41 0 70.5 -29.5t29.5 -70.5 v-300q0 -41 -29.5 -70.5t-70.5 -29.5h-500q-41 0 -70.5 29.5t-29.5 70.5zM1800 1700h500v50h-500v-50zM1900 0v1400h300v-1400h-300z" />
<glyph unicode="&#xe141;" d="M0 200v300q0 14 12 33q71 -43 182 -72.5t228.5 -41t191 -15.5t136.5 -4t136.5 4t191 15.5t228.5 41t182 72.5q12 -19 12 -33v-300q0 -55 -100.5 -101t-273 -72.5t-376.5 -26.5t-376.5 26.5t-273 72.5t-100.5 101zM0 700v300q0 14 12 33q71 -43 182 -72.5t228.5 -41 t191 -15.5t136.5 -4t136.5 4t191 15.5t228.5 41t182 72.5q12 -19 12 -33v-300q0 -55 -100.5 -101t-273 -72.5t-376.5 -26.5t-376.5 26.5t-273 72.5t-100.5 101zM0 1200v300q0 14 12 33q71 -43 182 -72.5t228.5 -41t191 -15.5t136.5 -4t136.5 4t191 15.5t228.5 41t182 72.5 q12 -19 12 -33v-300q0 -55 -100.5 -101t-273 -72.5t-376.5 -26.5t-376.5 26.5t-273 72.5t-100.5 101zM0 1700v300q0 54 100.5 100t273 73t376.5 27t376.5 -27t273 -73t100.5 -100v-300q0 -54 -100.5 -100t-273 -73t-376.5 -27t-376.5 27t-273 73t-100.5 100zM427 2050 q0 -27 94.5 -46t228.5 -19t228.5 19t94.5 46t-94.5 45.5t-228.5 18.5t-228.5 -18.5t-94.5 -45.5zM1800 1816v566q0 6 5 12t12 6h83v255q0 56 43.5 100.5t98.5 44.5h313q55 0 100 -45t45 -100v-255h81q7 0 13 -6t6 -12v-566q0 -6 -6 -11t-13 -5h-764q-7 0 -12 5t-5 11z M2000 2400h400v255q0 25 -10.5 35t-35.5 10h-311q-25 0 -34 -9.5t-9 -35.5v-255z" />
<glyph unicode="&#xe142;" d="M0 200v300q0 14 12 33q71 -43 182 -72.5t228.5 -41t191 -15.5t136.5 -4t136.5 4t191 15.5t228.5 41t182 72.5q12 -19 12 -33v-300q0 -55 -100.5 -101t-273 -72.5t-376.5 -26.5t-376.5 26.5t-273 72.5t-100.5 101zM0 700v300q0 14 12 33q71 -43 182 -72.5t228.5 -41 t191 -15.5t136.5 -4t136.5 4t191 15.5t228.5 41t182 72.5q12 -19 12 -33v-300q0 -55 -100.5 -101t-273 -72.5t-376.5 -26.5t-376.5 26.5t-273 72.5t-100.5 101zM0 1200v300q0 14 12 33q71 -43 182 -72.5t228.5 -41t191 -15.5t136.5 -4t136.5 4t191 15.5t228.5 41t182 72.5 q12 -19 12 -33v-300q0 -55 -100.5 -101t-273 -72.5t-376.5 -26.5t-376.5 26.5t-273 72.5t-100.5 101zM0 1700v300q0 54 100.5 100t273 73t376.5 27t376.5 -27t273 -73t100.5 -100v-300q0 -54 -100.5 -100t-273 -73t-376.5 -27t-376.5 27t-273 73t-100.5 100zM427 2050 q0 -27 94.5 -46t228.5 -19t228.5 19t94.5 46t-94.5 45.5t-228.5 18.5t-228.5 -18.5t-94.5 -45.5zM1700 2200q0 146 67.5 261t181 177t251.5 62q136 0 251 -67t182 -182t67 -251t-67 -251t-182 -182t-251 -67q-140 0 -252 57t-180 172t-68 271zM1900 2150q0 -21 15 -35.5 t35 -14.5h150v-150q0 -21 15 -35.5t35 -14.5h100q21 0 35.5 14.5t14.5 35.5v150h150q21 0 35.5 14.5t14.5 35.5v100q0 20 -14.5 35t-35.5 15h-150v150q0 20 -14.5 35t-35.5 15h-100q-20 0 -35 -15t-15 -35v-150h-150q-20 0 -35 -15t-15 -35v-100z" />
<glyph unicode="&#xe143;" d="M0 200v300q0 14 12 33q71 -43 182 -72.5t228.5 -41t191 -15.5t136.5 -4t136.5 4t191 15.5t228.5 41t182 72.5q12 -19 12 -33v-300q0 -55 -100.5 -101t-273 -72.5t-376.5 -26.5t-376.5 26.5t-273 72.5t-100.5 101zM0 700v300q0 14 12 33q71 -43 182 -72.5t228.5 -41 t191 -15.5t136.5 -4t136.5 4t191 15.5t228.5 41t182 72.5q12 -19 12 -33v-300q0 -55 -100.5 -101t-273 -72.5t-376.5 -26.5t-376.5 26.5t-273 72.5t-100.5 101zM0 1200v300q0 14 12 33q71 -43 182 -72.5t228.5 -41t191 -15.5t136.5 -4t136.5 4t191 15.5t228.5 41t182 72.5 q12 -19 12 -33v-300q0 -55 -100.5 -101t-273 -72.5t-376.5 -26.5t-376.5 26.5t-273 72.5t-100.5 101zM0 1700v300q0 54 100.5 100t273 73t376.5 27t376.5 -27t273 -73t100.5 -100v-300q0 -54 -100.5 -100t-273 -73t-376.5 -27t-376.5 27t-273 73t-100.5 100zM427 2050 q0 -27 94.5 -46t228.5 -19t228.5 19t94.5 46t-94.5 45.5t-228.5 18.5t-228.5 -18.5t-94.5 -45.5zM1700 2200q0 120 39 216.5t107.5 157.5t158.5 93.5t195 32.5q101 0 194 -42.5t160 -113.5t106.5 -166.5t39.5 -197.5q0 -135 -67 -245.5t-181.5 -172.5t-251.5 -62 q-105 0 -195 32.5t-158.5 93.5t-107.5 157.5t-39 216.5zM1900 2150q0 -21 15 -35.5t35 -14.5h500q21 0 35.5 14.5t14.5 35.5v100q0 20 -14.5 35t-35.5 15h-500q-20 0 -35 -15t-15 -35v-100z" />
<glyph unicode="&#xe144;" d="M0 200v300q0 14 12 33q71 -43 182 -72.5t228.5 -41t191 -15.5t136.5 -4t136.5 4t191 15.5t228.5 41t182 72.5q12 -19 12 -33v-300q0 -55 -100.5 -101t-273 -72.5t-376.5 -26.5t-376.5 26.5t-273 72.5t-100.5 101zM0 700v300q0 14 12 33q71 -43 182 -72.5t228.5 -41 t191 -15.5t136.5 -4t136.5 4t191 15.5t228.5 41t182 72.5q12 -19 12 -33v-300q0 -55 -100.5 -101t-273 -72.5t-376.5 -26.5t-376.5 26.5t-273 72.5t-100.5 101zM0 1200v300q0 14 12 33q71 -43 182 -72.5t228.5 -41t191 -15.5t136.5 -4t136.5 4t191 15.5t228.5 41t182 72.5 q12 -19 12 -33v-300q0 -55 -100.5 -101t-273 -72.5t-376.5 -26.5t-376.5 26.5t-273 72.5t-100.5 101zM0 1700v300q0 54 100.5 100t273 73t376.5 27t376.5 -27t273 -73t100.5 -100v-300q0 -54 -100.5 -100t-273 -73t-376.5 -27t-376.5 27t-273 73t-100.5 100zM427 2050 q0 -27 94.5 -46t228.5 -19t228.5 19t94.5 46t-94.5 45.5t-228.5 18.5t-228.5 -18.5t-94.5 -45.5zM1609 2205q0 134 66.5 248t181 180.5t248.5 66.5t248 -66.5t180.5 -180.5t66.5 -248q0 -135 -66.5 -249t-180.5 -180.5t-248 -66.5t-248.5 66.5t-181 180.5t-66.5 249z M1733 2205q0 -106 58 -199l512 512q-89 58 -198 58q-154 0 -263 -109t-109 -262zM1907 1891q92 -58 198 -58q154 0 262.5 109t108.5 263q0 106 -57 198z" />
<glyph unicode="&#xe145;" d="M0 409v1491q0 41 29.5 70.5t70.5 29.5h133l35 105q14 39 52.5 67t79.5 28h500q41 0 79.5 -28t52.5 -67l35 -105h933q41 0 70.5 -29.5t29.5 -70.5v-300h-1550q-67 0 -98 -69zM37 93l526 1314q15 38 55.5 65.5t81.5 27.5h2200q41 0 59.5 -27.5t3.5 -65.5l-526 -1314 q-15 -38 -55.5 -65.5t-81.5 -27.5h-2200q-41 0 -59.5 27.5t-3.5 65.5z" />
<glyph unicode="&#xe146;" d="M0 100v1400q0 41 29.5 70.5t70.5 29.5h1708q92 -145 247.5 -222.5t344.5 -77.5v-1200q0 -41 -29.5 -70.5t-70.5 -29.5h-2200q-41 0 -70.5 29.5t-29.5 70.5zM100 1700v200q0 41 29.5 70.5t70.5 29.5h133l35 105q14 39 52.5 67t79.5 28h500q41 0 79.5 -28t52.5 -67l35 -105 h533q0 -165 56 -300h-1656zM1900 2000q0 146 67.5 261t181 177t251.5 62q136 0 251 -67t182 -182t67 -251t-67 -251t-182 -182t-251 -67q-140 0 -252 57t-180 172t-68 271zM2100 1950q0 -21 15 -35.5t35 -14.5h150v-150q0 -21 15 -35.5t35 -14.5h100q21 0 35.5 14.5 t14.5 35.5v150h150q21 0 35.5 14.5t14.5 35.5v100q0 21 -14.5 35.5t-35.5 14.5h-150v150q0 21 -14.5 35.5t-35.5 14.5h-100q-20 0 -35 -14.5t-15 -35.5v-150h-150q-20 0 -35 -14.5t-15 -35.5v-100z" />
<glyph unicode="&#xe147;" d="M0 100v1400q0 41 29.5 70.5t70.5 29.5h1708q92 -145 247.5 -222.5t344.5 -77.5v-1200q0 -41 -29.5 -70.5t-70.5 -29.5h-2200q-41 0 -70.5 29.5t-29.5 70.5zM100 1700v200q0 41 29.5 70.5t70.5 29.5h133l35 105q14 39 52.5 67t79.5 28h500q41 0 79.5 -28t52.5 -67l35 -105 h533q0 -165 56 -300h-1656zM1900 2000q0 120 39 216.5t107.5 157.5t158.5 93.5t195 32.5q101 0 194 -42.5t160 -113.5t106.5 -166.5t39.5 -197.5q0 -135 -67 -245.5t-181.5 -172.5t-251.5 -62q-105 0 -195 32.5t-158.5 93.5t-107.5 157.5t-39 216.5zM2100 1950 q0 -21 15 -35.5t35 -14.5h500q21 0 35.5 14.5t14.5 35.5v100q0 21 -14.5 35.5t-35.5 14.5h-500q-20 0 -35 -14.5t-15 -35.5v-100z" />
<glyph unicode="&#xe148;" d="M0 100v1400q0 41 29.5 70.5t70.5 29.5h1600h102q6 -84 68 -142t147 -58h383v-1300q0 -41 -29.5 -70.5t-70.5 -29.5h-2200q-41 0 -70.5 29.5t-29.5 70.5zM100 1700v200q0 41 29.5 70.5t70.5 29.5h133l35 105q14 39 52.5 67t79.5 28h500q41 0 79.5 -28t52.5 -67l35 -105 h633v-300h-1700zM2000 1616v566q0 6 5 12t12 6h83v255q0 56 43.5 100.5t98.5 44.5h313q55 0 100 -45t45 -100v-255h81q7 0 13 -6t6 -12v-566q0 -6 -6 -11t-13 -5h-764q-7 0 -12 5t-5 11zM2200 2200h400v255q0 25 -11 35t-36 10h-310q-25 0 -34 -9.5t-9 -35.5v-255z" />
<glyph unicode="&#xe149;" d="M0 100v1400q0 41 29.5 70.5t70.5 29.5h1805q17 -86 86 -143t159 -57t159 57t86 143h5v-1500q0 -41 -29.5 -70.5t-70.5 -29.5h-2200q-41 0 -70.5 29.5t-29.5 70.5zM100 1700v200q0 41 29.5 70.5t70.5 29.5h133l35 105q14 39 52.5 67t79.5 28h500q41 0 79.5 -28t52.5 -67 l35 -105h733v-300h-1800zM2100 1650v850h550q21 0 35.5 -14.5t14.5 -35.5v-300q0 -21 -13.5 -41t-32.5 -28l-354 -141l-100 -40v-250q0 -21 -14.5 -35.5t-35.5 -14.5t-35.5 14.5t-14.5 35.5z" />
<glyph unicode="&#xe150;" d="M0 100v1400q0 41 29.5 70.5t70.5 29.5h1708h146q84 -94 200 -147t246 -53v-1300q0 -41 -29.5 -70.5t-70.5 -29.5h-2200q-41 0 -70.5 29.5t-29.5 70.5zM100 1700v200q0 41 29.5 70.5t70.5 29.5h133l35 105q14 39 52.5 67t79.5 28h500q41 0 79.5 -28t52.5 -67l35 -105h633 q0 -160 81 -300h-1781zM2000 1938v120q0 10 6.5 26t13.5 16h187l-122 110q-7 6 -7 9t5 9l83 84q11 12 23 0l111 -120v186q0 8 15 15t25 7h120q10 0 25 -7t15 -15v-187l111 122q11 11 19 2l85 -82q10 -11 0 -23l-121 -110h186q7 0 13.5 -16t6.5 -26v-120q0 -10 -6.5 -24 t-13.5 -14h-186l122 -112q10 -11 1 -20l-82 -84q-12 -12 -24 0l-111 121v-187q0 -7 -14.5 -12.5t-25.5 -5.5h-120q-11 0 -25.5 5.5t-14.5 12.5v186l-111 -122q-9 -9 -18 -1l-85 83q-12 12 0 24l121 112h-187q-7 0 -13.5 14t-6.5 24z" />
<glyph unicode="&#xe151;" d="M0 400v1000q0 166 117 283t283 117h1000q51 0 115 -19l-181 -181h-1034q-41 0 -70.5 -29.5t-29.5 -70.5v-1200q0 -41 29.5 -70.5t70.5 -29.5h1200q41 0 70.5 29.5t29.5 70.5v434l200 200v-534q0 -166 -117.5 -283t-282.5 -117h-1000q-166 0 -283 117t-117 283zM691 420 l163 417l279 -283l-413 -163q-20 -8 -28 0.5t-1 28.5zM941 930l910 910l289 -289l-910 -910zM1938 1927l144 145q16 15 37 15t36 -15l217 -217q15 -15 15 -36.5t-15 -36.5l-145 -144z" />
<glyph unicode="&#xe152;" d="M0 400v1000q0 166 117 283t283 117h545q-190 -80 -336 -200h-309q-41 0 -70.5 -29.5t-29.5 -70.5v-1200q0 -41 29.5 -70.5t70.5 -29.5h1200q41 0 70.5 29.5t29.5 70.5v126l200 151v-177q0 -166 -117.5 -283t-282.5 -117h-1000q-166 0 -283 117t-117 283zM403 694 q2 144 34.5 270t84 219t125 172t149 132t164.5 96t163.5 67.5t154 42t128.5 24t94 10.5v43q0 1 0.5 3t0.5 4v372q0 20 11.5 26t28.5 -6l987 -739q16 -12 16 -29.5t-16 -30.5l-985 -740q-17 -13 -28.5 -7t-12.5 27v418q0 3 -2 9v41q-52 3 -121.5 0t-144.5 -4.5t-158 -14.5 t-163 -30t-158 -50t-144 -75.5t-120.5 -106.5t-87.5 -143z" />
<glyph unicode="&#xe153;" d="M100 400v1000q0 166 117.5 283t282.5 117h1000q69 0 139 -26l-174 -174h-1065q-41 0 -70.5 -29.5t-29.5 -70.5v-1200q0 -41 29.5 -70.5t70.5 -29.5h1200q41 0 70.5 29.5t29.5 70.5v269l200 200v-369q0 -166 -117 -283t-283 -117h-1000q-165 0 -282.5 117t-117.5 283z M516 1008q0 21 14 36l234 233q14 15 35.5 15t36.5 -15l284 -284q15 -15 36 -15t36 15l793 793q15 15 36 15t36 -15l235 -231q15 -15 15 -36t-15 -36l-1100 -1101q-15 -14 -36 -14t-36 14l-590 590q-14 15 -14 36z" />
<glyph unicode="&#xe154;" d="M100 400v1000q0 166 117.5 283t282.5 117h1000q166 0 283 -117t117 -283v-1000q0 -166 -117 -283t-283 -117h-1000q-165 0 -282.5 117t-117.5 283zM300 300q0 -41 29.5 -70.5t70.5 -29.5h1200q41 0 70.5 29.5t29.5 70.5v1200q0 41 -29.5 70.5t-70.5 29.5h-1200 q-41 0 -70.5 -29.5t-29.5 -70.5v-1200z" />
<glyph unicode="&#xe155;" d="M0 900v1000q0 166 117.5 283t282.5 117h1000q166 0 283 -117t117 -283h-200v100q0 41 -29.5 70.5t-70.5 29.5h-1200q-41 0 -70.5 -29.5t-29.5 -70.5v-1200q0 -41 29.5 -70.5t70.5 -29.5h100v-200q-165 0 -282.5 117t-117.5 283zM500 400v1000q0 166 117.5 283t282.5 117 h1000q166 0 283 -117t117 -283v-1000q0 -166 -117 -283t-283 -117h-1000q-165 0 -282.5 117t-117.5 283zM700 300q0 -41 29.5 -70.5t70.5 -29.5h1200q41 0 70.5 29.5t29.5 70.5v1200q0 41 -29.5 70.5t-70.5 29.5h-1200q-41 0 -70.5 -29.5t-29.5 -70.5v-1200z" />
<glyph unicode="&#xe156;" d="M100 150v900q0 21 14.5 35.5t35.5 14.5h900q21 0 35.5 -14.5t14.5 -35.5v-900q0 -21 -14.5 -35.5t-35.5 -14.5h-900q-21 0 -35.5 14.5t-14.5 35.5zM100 1350v900q0 21 14.5 35.5t35.5 14.5h900q21 0 35.5 -14.5t14.5 -35.5v-900q0 -21 -14.5 -35.5t-35.5 -14.5h-900 q-21 0 -35.5 14.5t-14.5 35.5zM1300 150v900q0 21 14.5 35.5t35.5 14.5h900q21 0 35.5 -14.5t14.5 -35.5v-900q0 -21 -14.5 -35.5t-35.5 -14.5h-900q-21 0 -35.5 14.5t-14.5 35.5zM1300 1350v900q0 21 14.5 35.5t35.5 14.5h900q21 0 35.5 -14.5t14.5 -35.5v-900 q0 -21 -14.5 -35.5t-35.5 -14.5h-900q-21 0 -35.5 14.5t-14.5 35.5z" />
<glyph unicode="&#xe157;" d="M100 150v500q0 21 14.5 35.5t35.5 14.5h500q21 0 35.5 -14.5t14.5 -35.5v-500q0 -21 -14.5 -35.5t-35.5 -14.5h-500q-21 0 -35.5 14.5t-14.5 35.5zM100 950v500q0 21 14.5 35.5t35.5 14.5h500q21 0 35.5 -14.5t14.5 -35.5v-500q0 -21 -14.5 -35.5t-35.5 -14.5h-500 q-21 0 -35.5 14.5t-14.5 35.5zM100 1750v500q0 21 14.5 35.5t35.5 14.5h500q21 0 35.5 -14.5t14.5 -35.5v-500q0 -21 -14.5 -35.5t-35.5 -14.5h-500q-21 0 -35.5 14.5t-14.5 35.5zM900 150v500q0 21 14.5 35.5t35.5 14.5h500q21 0 35.5 -14.5t14.5 -35.5v-500 q0 -21 -14.5 -35.5t-35.5 -14.5h-500q-21 0 -35.5 14.5t-14.5 35.5zM900 950v500q0 21 14.5 35.5t35.5 14.5h500q21 0 35.5 -14.5t14.5 -35.5v-500q0 -21 -14.5 -35.5t-35.5 -14.5h-500q-21 0 -35.5 14.5t-14.5 35.5zM900 1750v500q0 21 14.5 35.5t35.5 14.5h500 q21 0 35.5 -14.5t14.5 -35.5v-500q0 -21 -14.5 -35.5t-35.5 -14.5h-500q-21 0 -35.5 14.5t-14.5 35.5zM1700 150v500q0 21 14.5 35.5t35.5 14.5h500q21 0 35.5 -14.5t14.5 -35.5v-500q0 -21 -14.5 -35.5t-35.5 -14.5h-500q-21 0 -35.5 14.5t-14.5 35.5zM1700 950v500 q0 21 14.5 35.5t35.5 14.5h500q21 0 35.5 -14.5t14.5 -35.5v-500q0 -21 -14.5 -35.5t-35.5 -14.5h-500q-21 0 -35.5 14.5t-14.5 35.5zM1700 1750v500q0 20 14.5 35t35.5 15h500q21 0 35.5 -15t14.5 -35v-500q0 -21 -14.5 -35.5t-35.5 -14.5h-500q-21 0 -35.5 14.5 t-14.5 35.5z" />
<glyph unicode="&#xe158;" d="M0 450v200q0 21 14.5 35.5t35.5 14.5h200q21 0 35.5 -14.5t14.5 -35.5v-200q0 -21 -14.5 -35.5t-35.5 -14.5h-200q-21 0 -35.5 14.5t-14.5 35.5zM0 1050v200q0 21 14.5 35.5t35.5 14.5h200q21 0 35.5 -14.5t14.5 -35.5v-200q0 -21 -14.5 -35.5t-35.5 -14.5h-200 q-21 0 -35.5 14.5t-14.5 35.5zM0 1650v200q0 21 14.5 35.5t35.5 14.5h200q21 0 35.5 -14.5t14.5 -35.5v-200q0 -21 -14.5 -35.5t-35.5 -14.5h-200q-21 0 -35.5 14.5t-14.5 35.5zM500 450v200q0 21 14.5 35.5t35.5 14.5h1800q21 0 35.5 -14.5t14.5 -35.5v-200 q0 -21 -14.5 -35.5t-35.5 -14.5h-1800q-21 0 -35.5 14.5t-14.5 35.5zM500 1050v200q0 21 14.5 35.5t35.5 14.5h1800q21 0 35.5 -14.5t14.5 -35.5v-200q0 -21 -14.5 -35.5t-35.5 -14.5h-1800q-21 0 -35.5 14.5t-14.5 35.5zM500 1650v200q0 21 14.5 35.5t35.5 14.5h1800 q21 0 35.5 -14.5t14.5 -35.5v-200q0 -21 -14.5 -35.5t-35.5 -14.5h-1800q-21 0 -35.5 14.5t-14.5 35.5z" />
<glyph unicode="&#xe159;" d="M0 450v200q0 21 14.5 35.5t35.5 14.5h2300q21 0 35.5 -14.5t14.5 -35.5v-200q0 -21 -14.5 -35.5t-35.5 -14.5h-2300q-21 0 -35.5 14.5t-14.5 35.5zM0 1050v200q0 21 14.5 35.5t35.5 14.5h2300q21 0 35.5 -14.5t14.5 -35.5v-200q0 -21 -14.5 -35.5t-35.5 -14.5h-2300 q-21 0 -35.5 14.5t-14.5 35.5zM0 1650v200q0 21 14.5 35.5t35.5 14.5h2300q21 0 35.5 -14.5t14.5 -35.5v-200q0 -21 -14.5 -35.5t-35.5 -14.5h-2300q-21 0 -35.5 14.5t-14.5 35.5z" />
<glyph unicode="&#xe160;" d="M0 450v200q0 21 14.5 35.5t35.5 14.5h1013q-131 -137 -158 -300h-855q-21 0 -35.5 14.5t-14.5 35.5zM0 1050v200q0 21 14.5 35.5t35.5 14.5h1550v-300h-1550q-21 0 -35.5 14.5t-14.5 35.5zM0 1650v200q0 21 14.5 35.5t35.5 14.5h1550v-300h-1550q-21 0 -35.5 14.5 t-14.5 35.5zM1161 250q-29 87 9 181.5t131 172t219 118.5q37 11 89 19t107 10.5t84 -10.5v1598q0 25 18 43t43 18h178q25 0 43 -18t18 -43v-55q39 -25 122.5 -54.5t167 -58t168 -67t146.5 -98.5t81 -136q26 -96 11.5 -180t-46 -151t-78 -118.5t-85.5 -81.5t-68 -42 q-38 -14 -42 -6.5t10 23.5l14 17q6 9 15 24t28 60t28.5 88.5t4 101t-34.5 104.5q-27 45 -88 73.5t-121.5 37.5t-129.5 23.5t-103 32.5v-1415q0 -2 -1 -5.5t-1 -5.5q-12 -114 -113.5 -217.5t-256.5 -153.5q-132 -39 -248 -32t-203.5 61.5t-115.5 141.5z" />
<glyph unicode="&#xe161;" d="M-100 437v1613q0 62 44 106t106 44h2300q62 0 106 -44t44 -106v-1450v-163q0 -65 -42.5 -101t-107.5 -36h-851q-2 0 0 -100q0 -36 10.5 -64.5t26.5 -46.5t39.5 -30.5t44.5 -18.5t47 -9t41.5 -3t33.5 1l19 1q21 0 21 -15t-21 -15h-1118q-14 0 -19.5 7.5t0 15t18.5 7.5 l18 -1q19 -1 34.5 -1t41 3t46 9t44 18.5t38.5 30.5t25.5 46.5t10.5 64.5v100h-850q-65 0 -107.5 36t-42.5 101zM100 800h2200v1200h-2200v-1200z" />
<glyph unicode="&#xe162;" d="M-200 500v50q0 21 14.5 35.5t35.5 14.5h250v1200q0 41 29.5 70.5t70.5 29.5h2000q41 0 70.5 -29.5t29.5 -70.5v-1200h250q21 0 35.5 -14.5t14.5 -35.5v-50q0 -21 -14.5 -35.5t-35.5 -14.5l-50 -50h-2600l-50 50q-21 0 -35.5 14.5t-14.5 35.5zM300 600h1800v1100h-1800 v-1100z" />
<glyph unicode="&#xe163;" d="M100 100v2300q0 82 59 141t141 59h1800q82 0 141 -59t59 -141v-2300q0 -82 -59 -141t-141 -59h-1800q-82 0 -141 59t-59 141zM400 200h1600v2100h-1600v-2100zM1083 50q0 -49 34 -83.5t83 -34.5t83.5 34.5t34.5 83.5t-34.5 83t-83.5 34t-83 -34t-34 -83z" />
<glyph unicode="&#xe164;" d="M500 250v1900q0 103 73.5 176.5t176.5 73.5h900q103 0 176.5 -73.5t73.5 -176.5v-1900q0 -104 -73 -177t-177 -73h-900q-103 0 -176.5 73.5t-73.5 176.5zM700 500h1000v1500h-1000v-1500zM1023 250q0 -74 51.5 -125.5t125.5 -51.5t125.5 51.5t51.5 125.5t-51.5 125.5 t-125.5 51.5t-125.5 -51.5t-51.5 -125.5z" />
</font>
</defs>
</svg>
