<svg width="156" height="96" viewBox="0 0 156 96" fill="none" xmlns="http://www.w3.org/2000/svg">
	<g filter="url(#preview-svg-filter-input-code)">
		<rect x="18" y="15" width="120" height="66" rx="6" fill="var(--background-page)" />
		<rect x="19" y="16" width="118" height="64" rx="5" stroke="var(--primary)" stroke-width="2" />
	</g>
	<rect x="28" y="25" width="6" height="6" rx="2" fill="var(--primary)" fill-opacity="0.25" />
	<rect x="28" y="45.1479" width="6" height="6" rx="2" fill="var(--primary)" fill-opacity="0.25" />
	<rect x="28" y="55.2222" width="6" height="6" rx="2" fill="var(--primary)" fill-opacity="0.25" />
	<rect x="28" y="65.2959" width="6" height="6" rx="2" fill="var(--primary)" fill-opacity="0.25" />
	<rect x="28" y="35.0737" width="6" height="6" rx="2" fill="var(--primary)" fill-opacity="0.25" />
	<rect x="42" y="25" width="10" height="6" rx="2" fill="var(--primary)" />
	<rect x="46" y="35" width="50" height="6" rx="2" fill="var(--primary)" fill-opacity="0.25" />
	<rect x="46" y="45" width="60" height="6" rx="2" fill="var(--primary)" fill-opacity="0.25" />
	<rect x="46" y="55" width="40" height="6" rx="2" fill="var(--primary)" fill-opacity="0.25" />
	<rect x="42" y="65" width="10" height="6" rx="2" fill="var(--primary)" />
	<defs>
		<filter id="preview-svg-filter-input-code" x="10" y="7" width="136" height="82" filterUnits="userSpaceOnUse"
			color-interpolation-filters="sRGB">
			<feFlood flood-opacity="0" result="BackgroundImageFix" />
			<feColorMatrix in="SourceAlpha" type="matrix" values="0 0 0 0 0 0 0 0 0 0 0 0 0 0 0 0 0 0 127 0"
				result="hardAlpha" />
			<feOffset />
			<feGaussianBlur stdDeviation="4" />
			<feColorMatrix type="matrix" values="0 0 0 0 0 0 0 0 0 0.784314 0 0 0 0 0.592157 0 0 0 0.5 0" />
			<feBlend mode="normal" in2="BackgroundImageFix" result="effect1_dropShadow" />
			<feBlend mode="normal" in="SourceGraphic" in2="effect1_dropShadow" result="shape" />
		</filter>
	</defs>
</svg>
