<svg width="156" height="96" fill="none" xmlns="http://www.w3.org/2000/svg">
	<rect x="18" y="13" width="120" height="70" rx="6" fill="var(--theme--background)" class="glow" />
	<rect x="19" y="14" width="118" height="68" rx="5" stroke="var(--theme--primary)" stroke-width="2" />
	<rect x="24" y="19" width="107.999" height="58" rx="2" fill="var(--theme--primary)" fill-opacity=".2" />
	<path
		d="M30.75 77h36.452l-.095-.564c-.388-2.288-2.591-3.969-5.165-3.94l-6.645.074-7.02.441a5.646 5.646 0 00-1.592.334l-3.967 1.458a5.697 5.697 0 01-3.933-.01l-.653-.244c-1.716-.641-3.684-.403-5.15.624l-1.166.816c-.411.288-.77.63-1.065 1.011zM109.568 77h-7.043a.58.58 0 01.525-.38l5.532-.348c.494-.031.925.291.986.728zM130.779 76.843c-.24.101-.503.157-.779.157h-3.483a.895.895 0 01.439-.457l1.031-.506 1.26-.786a1.29 1.29 0 011.069-.125c.81.262 1.028 1.177.463 1.717zM132 73.303V58.538l-1.671-.342a5.71 5.71 0 00-2.865.151l-9.861 3.14c-.736.235-1.351.704-1.728 1.32-.522.853-1.49 1.41-2.571 1.477l-2.387.15c-.544.035-1.016-.334-1.055-.824-.032-.417.264-.799.711-.915l.765-.2c.572-.148 1.039-.521 1.27-1.015l.03-.062c.319-.68.175-1.465-.37-2.017l-2.009-2.038c.013.01.035.006.041-.01l2.064-5.064a3.56 3.56 0 01.365-.675l1.734-2.531c1.036-1.512 2.941-2.36 4.905-2.183l.605.054c.29.026.581.03.872.011l5.838-.367a4.441 4.441 0 001.471-.348l3.383-1.454c.153-.066.308-.115.463-.15V21a2 2 0 00-2-2H91.93c.011.051.026.102.044.152l.313.868c.588 1.632-.473 3.374-2.32 3.806L76.76 26.914c-1.496.35-3.088.078-4.337-.74l-3.035-1.988c-.934-.612-1.35-1.68-1.044-2.682.298-.976-.08-1.908-.802-2.504H63.57c-.635.459-1.045 1.145-1.097 1.906l-.312 4.592c-.112 1.657-1.3 3.098-3.03 3.677-1.023.341-1.88.994-2.422 1.845l-1.687 2.644a4.782 4.782 0 01-1.073 1.18l-2.702 2.132c-1.207.952-2.838 1.345-4.412 1.062l-1.467-.263a4.265 4.265 0 00-1.958.107c-2.214.656-3.277 2.916-2.258 4.801l.099.184c.19.352.315.728.372 1.116l.438 2.988c.432 2.951-2.294 5.5-5.59 5.226l-1.062-.088c-2.656-.22-5.06 1.415-5.548 3.773l-.438 2.122c-.08.386-.104.779-.073 1.17l.563 7.246c.092 1.18 1.23 2.07 2.542 1.987l.347-.022c.885-.056 1.699.437 1.975 1.195.397 1.09 1.837 1.544 2.903.914l2.058-1.215a4.11 4.11 0 011.83-.556l.611-.038c1.465-.093 2.817-.741 3.717-1.785l.329-.38a4.38 4.38 0 001.069-2.5l.079-.952c.096-1.163.676-2.25 1.623-3.046l2.853-2.396c.382-.321.631-.75.707-1.215.178-1.093 1.277-1.869 2.5-1.764l4.925.424a5.725 5.725 0 001.588-.085l1.146-.224c1.628-.319 3.327.09 4.562 1.096l6.25 5.094c.34.278.721.514 1.132.7l2.9 1.322c1.023.466 1.845 1.226 2.334 2.159l1.866 3.555c.05.097.081.201.09.308.07.91 1.457 1.113 1.845.27l.859-1.868c.063-.137.1-.281.11-.429l.1-1.44c.03-.434.316-.821.75-1.014 1.003-.446 1.004-1.732.002-2.18l-6.436-2.868a4.858 4.858 0 01-1.612-1.152l-4.04-4.42c-.813-.89-.818-2.172-.013-3.068 1.13-1.257 3.284-1.19 4.314.135l1.77 2.276c.355.457.801.85 1.315 1.161l7.297 4.411a4.818 4.818 0 011.786 1.867l2.653 5.045c.126.24.275.47.445.686l3.26 4.167c.544.694 1.451 1.082 2.393 1.023l2.427-.153c1.666-.104 2.287-2.017.945-2.91-.569-.38-.838-1.022-.687-1.644l.347-1.431c.255-1.05 1.161-1.874 2.326-2.114 1.345-.278 2.732.28 3.396 1.368l1.479 2.42 2.643 3.51c.873 1.161 2.283 1.905 3.836 2.024l9.727.744c.266.02.532.022.798.006l4.366-.275a5.706 5.706 0 011.75.16z"
		fill="var(--theme--primary)" fill-opacity=".25" />
	<path
		d="M42.417 19h5.249c.006.24.053.481.142.715l.285.743.866 2.89c.096.32.147.65.154.982l.035 1.936c.013.687.538 1.28 1.28 1.444.708.157 1.223.708 1.274 1.363l.13 1.677c.12 1.522-.78 2.962-2.29 3.657-1.792.825-3.957 1.814-4.328 1.947-.194.062-.97.131-1.965.198-1.437.096-1.966-1.615-.695-2.225.846-.406.967-1.452.233-2.006l-.456-.343c-.702-.53-.833-1.457-.3-2.127l.925-1.162c.149-.187.273-.386.371-.598.355-.766 1.223-2.673 1.203-2.94l-.034-.432a4.349 4.349 0 00-.899-2.31l-.287-.375c-.684-.891-.996-1.965-.893-3.034zM76.543 19c1.102.977 2.735 1.429 4.354 1.047A4.688 4.688 0 0082.942 19h-6.4zM39.86 27.148a4.574 4.574 0 01-1.158 1.74l-1.355 1.285c-.53.503-1.28.769-2.05.726-1.852-.101-2.996-1.861-2.186-3.363l.636-1.178 2.021-2.783a1.483 1.483 0 011.11-.586c.497-.031.941-.29 1.176-.685l.324-.547c.255-.43.737-.71 1.278-.745.673-.042 1.3.306 1.56.866l.086.183c.181.39.193.83.032 1.228l-.646 1.6-.829 2.26zM64.316 57.705a.445.445 0 00-.227.414l.136 1.747c.038.489.586.81 1.098.642.438-.143.656-.584.48-.972l-.734-1.622c-.121-.268-.485-.369-.753-.209zM63.798 63.801c.37-.402 1.036-.45 1.471-.105l.632.501c.363.288.585.693.619 1.127l.1 1.297c.033.412-.156.813-.506 1.08-.9.683-2.283.158-2.365-.899l-.183-2.349a.864.864 0 01.232-.652zM78.695 73.3c.466.212 1.034.011 1.215-.43a.714.714 0 00.052-.326l-.07-.901c-.053-.678-.706-1.188-1.46-1.14l-2.827.177c-.397.025-.531.49-.198.685l2.35 1.491c.064.041.131.078.201.11l.737.334z"
		fill="var(--theme--primary)" fill-opacity=".25" />
	<path
		d="M88.472 36.868a1.267 1.267 0 01-1.258-1.258c0-.672.585-1.228 1.258-1.228.672 0 1.257.556 1.257 1.228 0 .702-.585 1.258-1.257 1.258zm3.742-1.111c0-2.281-1.666-3.89-3.742-3.89s-3.743 1.609-3.743 3.89c0 1.462 1.228 3.391 3.743 5.701 2.514-2.31 3.742-4.24 3.742-5.701zm-3.742-5.117c2.631 0 5 1.988 5 5.117 0 2.046-1.667 4.503-5 7.339-3.334-2.836-5-5.293-5-7.34 0-3.128 2.368-5.116 5-5.116z"
		fill="var(--theme--primary)" />
</svg>
