<svg width="156" height="96" viewBox="0 0 156 96" fill="none" xmlns="http://www.w3.org/2000/svg">
	<g filter="url(#preview-svg-filter-map)">
		<rect x="18" y="13" width="120" height="70" rx="6" fill="var(--background-page)" />
		<rect x="19" y="14" width="118" height="68" rx="5" stroke="var(--primary)" stroke-width="2" />
	</g>
	<rect x="24" y="19" width="107.999" height="58" rx="2" fill="var(--primary)" fill-opacity="0.2" />
	<path
		d="M30.7506 77H67.2024L67.1068 76.4363C66.719 74.1485 64.5157 72.4675 61.9423 72.496L55.2967 72.5696L48.2779 73.011C47.7307 73.0454 47.1931 73.158 46.6853 73.3447L42.7176 74.8033C41.4567 75.2668 40.0431 75.2631 38.7851 74.7931L38.1318 74.5489C36.4155 73.9076 34.4482 74.1459 32.9817 75.1727L31.8164 75.9886C31.4048 76.2768 31.046 76.6182 30.7506 77Z"
		fill="var(--primary)" fill-opacity="0.25" />
	<path
		d="M109.568 77H102.525C102.592 76.793 102.797 76.6356 103.05 76.6196L108.582 76.2718C109.076 76.2407 109.507 76.5633 109.568 77Z"
		fill="var(--primary)" fill-opacity="0.25" />
	<path
		d="M130.779 76.8427C130.539 76.944 130.276 77 130 77H126.517C126.596 76.8088 126.749 76.645 126.956 76.5434L127.987 76.0369L129.247 75.2515C129.56 75.0567 129.958 75.0098 130.316 75.1256C131.126 75.3879 131.344 76.3029 130.779 76.8427Z"
		fill="var(--primary)" fill-opacity="0.25" />
	<path
		d="M132 73.303V58.5376L130.329 58.1964C129.378 58.002 128.384 58.0543 127.464 58.3473L117.603 61.4871C116.867 61.7216 116.252 62.1914 115.875 62.807C115.353 63.6601 114.385 64.2165 113.304 64.2844L110.917 64.4345C110.373 64.4687 109.901 64.0997 109.862 63.6102C109.83 63.1926 110.126 62.8112 110.573 62.6949L111.338 62.4959C111.91 62.347 112.377 61.9739 112.608 61.4804L112.638 61.4177C112.957 60.7375 112.813 59.9531 112.268 59.4008L110.259 57.3631C110.272 57.3739 110.294 57.3689 110.3 57.3535L112.364 52.289C112.46 52.0537 112.582 51.8276 112.729 51.6142L114.463 49.0826C115.499 47.5709 117.404 46.7233 119.368 46.8996L119.973 46.9538C120.263 46.9798 120.554 46.9837 120.845 46.9654L126.683 46.5983C127.193 46.5662 127.692 46.448 128.154 46.2497L131.537 44.7963C131.69 44.7303 131.845 44.6806 132 44.646V21C132 19.8954 131.104 19 130 19H91.9294C91.941 19.0511 91.9557 19.1018 91.9739 19.1521L92.2867 20.0196C92.8755 21.6522 91.8141 23.3936 89.9669 23.8255L76.7597 26.9138C75.2639 27.2636 73.6724 26.992 72.4231 26.1737L69.3882 24.1858C68.4541 23.5739 68.0384 22.5061 68.3442 21.504C68.6419 20.5281 68.2644 19.5964 67.5419 19H63.5697C62.9351 19.4589 62.5249 20.1448 62.4732 20.9062L62.1612 25.4984C62.0486 27.1551 60.8604 28.5963 59.1302 29.1746C58.108 29.5162 57.2512 30.1691 56.7087 31.0198L55.0222 33.6644C54.7392 34.1081 54.3766 34.5066 53.9491 34.8439L51.2472 36.9756C50.0403 37.9278 48.4093 38.3205 46.8348 38.038L45.3681 37.7749C44.716 37.658 44.0412 37.6948 43.4096 37.882C41.1961 38.5381 40.1331 40.7981 41.1515 42.6833L41.2508 42.8671C41.4407 43.2186 41.5664 43.5952 41.6231 43.9826L42.0608 46.9708C42.4931 49.9221 39.7668 52.4707 36.4705 52.1969L35.4092 52.1088C32.7532 51.8882 30.3481 53.5242 29.8614 55.8824L29.4235 58.0039C29.3439 58.3896 29.3191 58.7828 29.3495 59.1742L29.9129 66.4198C30.0047 67.5998 31.1429 68.4895 32.4552 68.407L32.8016 68.3852C33.6868 68.3295 34.5008 68.8221 34.7769 69.5804C35.1738 70.6706 36.6142 71.1238 37.6804 70.494L39.7377 69.2787C40.2848 68.9554 40.9152 68.7641 41.5682 68.7231L42.1792 68.6846C43.644 68.5925 44.9958 67.9436 45.896 66.9003L46.2247 66.5193C46.8463 65.7989 47.218 64.9298 47.2935 64.0205L47.3727 63.0676C47.4692 61.9052 48.0487 60.8181 48.9959 60.0224L51.8487 57.6261C52.231 57.305 52.4804 56.8764 52.556 56.411C52.7335 55.3179 53.8332 54.5421 55.0562 54.6472L59.981 55.0707C60.512 55.1164 61.0476 55.0877 61.5688 54.9858L62.7151 54.7616C64.3434 54.4432 66.0424 54.8514 67.2771 55.8578L73.5261 60.9516C73.8673 61.2297 74.2484 61.4655 74.6593 61.6527L77.5591 62.974C78.5824 63.4403 79.4036 64.1998 79.8932 65.1327L81.7588 68.6877C81.8097 68.7846 81.84 68.8892 81.8484 68.996C81.9191 69.906 83.3064 70.1087 83.694 69.2657L84.5528 67.3977C84.6155 67.2613 84.6527 67.1165 84.6629 66.9692L84.7624 65.5292C84.7925 65.0945 85.0788 64.7076 85.513 64.5147C86.5163 64.0691 86.5173 62.7828 85.5147 62.3359L79.0785 59.4671C78.4567 59.1899 77.9073 58.7973 77.4667 58.3151L73.4278 53.8949C72.6143 53.0046 72.6086 51.7227 73.4141 50.8266C74.5438 49.5698 76.6979 49.6372 77.7277 50.9615L79.4984 53.2384C79.8533 53.6948 80.299 54.0883 80.813 54.3991L88.1101 58.8102C88.8816 59.2765 89.4986 59.9216 89.896 60.6773L92.5488 65.7216C92.675 65.9616 92.8238 66.1913 92.9937 66.4084L96.2544 70.5749C96.7977 71.2691 97.7052 71.6572 98.6468 71.5979L101.074 71.4453C102.74 71.3405 103.361 69.4278 102.019 68.5343C101.45 68.1558 101.181 67.5126 101.332 66.8911L101.679 65.46C101.934 64.4098 102.84 63.5861 104.005 63.3455C105.35 63.0676 106.737 63.6264 107.401 64.7141L108.88 67.1337L111.523 70.6449C112.396 71.8053 113.806 72.5487 115.359 72.6676L125.086 73.4122C125.352 73.4325 125.618 73.4343 125.884 73.4176L130.25 73.1431C130.851 73.1053 131.442 73.1625 132 73.303Z"
		fill="var(--primary)" fill-opacity="0.25" />
	<path
		d="M42.4175 19H47.6656C47.6717 19.2403 47.7187 19.4813 47.8081 19.7146L48.0929 20.4577L48.959 23.3484C49.0549 23.6685 49.1065 23.9981 49.1126 24.3296L49.1482 26.2661C49.1608 26.9525 49.686 27.5453 50.4272 27.7097C51.1363 27.867 51.6514 28.4178 51.7024 29.0729L51.8328 30.7503C51.9512 32.2724 51.0522 33.7122 49.5418 34.4075C47.7501 35.2324 45.5846 36.2212 45.2138 36.3542C45.0205 36.4162 44.2447 36.4853 43.2489 36.5518C41.8122 36.6477 41.2831 34.9365 42.5543 34.3267C43.4 33.921 43.5213 32.8748 42.7867 32.321L42.3311 31.9776C41.6286 31.4479 41.4981 30.5211 42.0316 29.8506L42.956 28.689C43.1046 28.5023 43.2293 28.3028 43.3274 28.0908C43.6821 27.3249 44.5504 25.4179 44.5297 25.1513L44.4961 24.7188C44.4316 23.8905 44.1212 23.0928 43.5971 22.4091L43.3097 22.0343C42.6262 21.1427 42.3144 20.0688 42.4175 19Z"
		fill="var(--primary)" fill-opacity="0.25" />
	<path
		d="M76.5425 19C77.6454 19.9772 79.2783 20.4286 80.8972 20.0471C81.6924 19.8597 82.3897 19.4912 82.9424 19H76.5425Z"
		fill="var(--primary)" fill-opacity="0.25" />
	<path
		d="M39.8591 27.1483C39.6208 27.798 39.2258 28.3923 38.7022 28.8886L37.3474 30.1729C36.817 30.6756 36.0665 30.9416 35.2974 30.8993C33.4453 30.7976 32.3012 29.0376 33.1113 27.5365L33.7474 26.3578L35.7681 23.5754C36.0157 23.2344 36.4266 23.0174 36.8783 22.989C37.3752 22.9578 37.8193 22.6988 38.0537 22.3036L38.3776 21.7574C38.6325 21.3277 39.1154 21.0461 39.6557 21.0121C40.3287 20.9698 40.9568 21.3182 41.2168 21.878L41.3016 22.0606C41.4833 22.4519 41.4948 22.8903 41.3338 23.2889L40.6878 24.8881L39.8591 27.1483Z"
		fill="var(--primary)" fill-opacity="0.25" />
	<path
		d="M64.3157 57.7051C64.1628 57.7963 64.0762 57.9543 64.089 58.1189L64.2248 59.8659C64.2629 60.3549 64.8109 60.6752 65.3233 60.508C65.761 60.3652 65.979 59.9239 65.8034 59.5361L65.0691 57.9142C64.9478 57.6462 64.584 57.5452 64.3157 57.7051Z"
		fill="var(--primary)" fill-opacity="0.25" />
	<path
		d="M63.7984 63.8013C64.1677 63.3989 64.8342 63.3515 65.2693 63.6965L65.9008 64.1972C66.2637 64.485 66.4861 64.8897 66.5198 65.3237L66.6208 66.6214C66.6528 67.0333 66.4644 67.4342 66.1136 67.7006C65.2134 68.3843 63.8309 67.859 63.7487 66.802L63.5661 64.4534C63.5478 64.2173 63.6309 63.9839 63.7984 63.8013Z"
		fill="var(--primary)" fill-opacity="0.25" />
	<path
		d="M78.6945 73.3003C79.161 73.5124 79.729 73.3115 79.9098 72.8704C79.9526 72.766 79.9702 72.6546 79.9616 72.5436L79.8915 71.6425C79.8389 70.9653 79.1857 70.4548 78.4327 70.5021L75.6052 70.6799C75.208 70.7049 75.0738 71.1696 75.4073 71.3652L77.7564 72.8563C77.8206 72.897 77.8881 72.9335 77.9582 72.9654L78.6945 73.3003Z"
		fill="var(--primary)" fill-opacity="0.25" />
	<path
		d="M88.4717 36.8677C87.7992 36.8677 87.2144 36.3122 87.2144 35.6104C87.2144 34.9379 87.7992 34.3823 88.4717 34.3823C89.1442 34.3823 89.729 34.9379 89.729 35.6104C89.729 36.3122 89.1442 36.8677 88.4717 36.8677ZM92.2144 35.7566C92.2144 33.4759 90.5477 31.8677 88.4717 31.8677C86.3957 31.8677 84.729 33.4759 84.729 35.7566C84.729 37.2186 85.9571 39.1484 88.4717 41.4584C90.9863 39.1484 92.2144 37.2186 92.2144 35.7566ZM88.4717 30.6396C91.1033 30.6396 93.4717 32.628 93.4717 35.7566C93.4717 37.8034 91.805 40.2595 88.4717 43.0958C85.1383 40.2595 83.4717 37.8034 83.4717 35.7566C83.4717 32.628 85.8401 30.6396 88.4717 30.6396Z"
		fill="var(--primary)" />
	<defs>
		<filter id="preview-svg-filter-map" x="10" y="5" width="136" height="86" filterUnits="userSpaceOnUse"
			color-interpolation-filters="sRGB">
			<feFlood flood-opacity="0" result="BackgroundImageFix" />
			<feColorMatrix in="SourceAlpha" type="matrix" values="0 0 0 0 0 0 0 0 0 0 0 0 0 0 0 0 0 0 127 0"
				result="hardAlpha" />
			<feOffset />
			<feGaussianBlur stdDeviation="4" />
			<feColorMatrix type="matrix" values="0 0 0 0 0 0 0 0 0 0.784314 0 0 0 0 0.592157 0 0 0 0.5 0" />
			<feBlend mode="normal" in2="BackgroundImageFix" result="effect1_dropShadow" />
			<feBlend mode="normal" in="SourceGraphic" in2="effect1_dropShadow" result="shape" />
		</filter>
	</defs>
</svg>
