<svg xmlns="http://www.w3.org/2000/svg" width="36" height="36" viewBox="0 0 36 36">
    <path fill="#C93E2B" fill-rule="evenodd" d="M22.278 5.644L9.601 8.682v17.63l-6.525 2.563a.436.436 0 0 1-.075-.246L3 7.276c.097-.12.223-.136.332-.176L21.957.087c.216-.081.41-.12.649-.05C26.012 1.03 29.422 2.014 32.831 3c.05.015.099.033.169.055V33.08c-.979.274-1.949.547-2.92.817-2.472.685-4.945 1.366-7.415 2.057a1.05 1.05 0 0 1-.691-.026c-6.106-2.27-12.215-4.533-18.322-6.796a.83.83 0 0 1-.34-.204l18.95 2.616c.054-.346.068-25.354.016-25.9z"/>
</svg>
