<svg width="156" height="96" viewBox="0 0 156 96" fill="none" xmlns="http://www.w3.org/2000/svg">
	<rect x="18" y="13" width="120" height="70" rx="6" fill="var(--background-page)" />
	<rect x="19" y="14" width="118" height="68" rx="5" stroke="var(--primary)" stroke-opacity=" 0.25" stroke-width="2" />
	<g filter="url(#preview-svg-filter-select-icon)">
		<rect x="18" y="13" width="120" height="26" rx="6" fill="var(--background-page)" />
		<rect x="19" y="14" width="118" height="24" rx="5" stroke="var(--primary)" stroke-width=" 2" />
	</g>
	<rect x="46" y="23" width="50" height="6" rx="2" fill="var(--primary)" fill-opacity=" 0.25" />
	<path
		d="M120.966 24C120.609 24 120.431 24.4309 120.683 24.6828L123.717 27.7172C123.873 27.8734 124.127 27.8734 124.283 27.7172L127.317 24.6828C127.569 24.4309 127.391 24 127.034 24H120.966Z"
		fill="var(--primary)" />
	<path d=" M33 20.1758C29.7734 20.1758 27.1758 22.7734 27.1758 26C27.1758 29.2266 29.7734 31.8242 33 31.8242C36.2266 31.8242
		38.8242 29.2266 38.8242 26C38.8242 22.7734 36.2266 20.1758 33 20.1758ZM33 30.6758C30.4297 30.6758 28.3242 28.5703
		28.3242 26C28.3242 23.4297 30.4297 21.3242 33 21.3242C35.5703 21.3242 37.6758 23.4297 37.6758 26C37.6758 28.5703
		35.5703 30.6758 33 30.6758ZM35.0508 25.4258C35.5156 25.4258 35.9258 25.0156 35.9258 24.5508C35.9258 24.0586
		35.5156 23.6758 35.0508 23.6758C34.5586 23.6758 34.1758 24.0586 34.1758 24.5508C34.1758 25.0156 34.5586 25.4258
		35.0508 25.4258ZM30.9492 25.4258C31.4414 25.4258 31.8242 25.0156 31.8242 24.5508C31.8242 24.0586 31.4414 23.6758
		30.9492 23.6758C30.4844 23.6758 30.0742 24.0586 30.0742 24.5508C30.0742 25.0156 30.4844 25.4258 30.9492
		25.4258ZM33 29.1992C34.3672 29.1992 35.5156 28.3516 35.9805 27.1758H30.0195C30.4844 28.3516 31.6328 29.1992 33
		29.1992Z" fill="var(--primary)" />
	<path d=" M33 45.1758C29.7734 45.1758 27.1758 47.7734 27.1758 51C27.1758 54.2266 29.7734 56.8242 33 56.8242C36.2266 56.8242
		38.8242 54.2266 38.8242 51C38.8242 47.7734 36.2266 45.1758 33 45.1758ZM33 55.6758C30.4297 55.6758 28.3242 53.5703
		28.3242 51C28.3242 48.4297 30.4297 46.3242 33 46.3242C35.5703 46.3242 37.6758 48.4297 37.6758 51C37.6758 53.5703
		35.5703 55.6758 33 55.6758ZM33.3008 48.0742H32.4258V51.5742L35.4883 53.4336L35.9258 52.6953L33.3008
		51.1367V48.0742Z" fill="var(--primary)" fill-opacity=" 0.25" />
	<path
		d="M48.0742 49.8242C46.7891 49.8242 45.75 50.8906 45.75 52.1758C45.75 53.4609 46.7891 54.5 48.0742 54.5C49.3594 54.5 50.4258 53.4609 50.4258 52.1758C50.4258 50.8906 49.3594 49.8242 48.0742 49.8242ZM48.0742 53.3242C47.4453 53.3242 46.9258 52.8047 46.9258 52.1758C46.9258 51.5195 47.4453 51 48.0742 51C48.7305 51 49.25 51.5195 49.25 52.1758C49.25 52.8047 48.7305 53.3242 48.0742 53.3242ZM52.75 52.75C51.793 52.75 51 53.543 51 54.5C51 55.457 51.793 56.25 52.75 56.25C53.707 56.25 54.5 55.457 54.5 54.5C54.5 53.543 53.707 52.75 52.75 52.75ZM52.75 55.0742C52.4219 55.0742 52.1758 54.8281 52.1758 54.5C52.1758 54.1719 52.4219 53.9258 52.75 53.9258C53.0781 53.9258 53.3516 54.1719 53.3516 54.5C53.3516 54.8281 53.0781 55.0742 52.75 55.0742ZM53.625 45.75C51.8477 45.75 50.4258 47.1992 50.4258 48.9492C50.4258 50.7266 51.8477 52.1758 53.625 52.1758C55.4023 52.1758 56.8242 50.7266 56.8242 48.9492C56.8242 47.1992 55.4023 45.75 53.625 45.75ZM53.625 51C52.5039 51 51.5742 50.0977 51.5742 48.9492C51.5742 47.8281 52.5039 46.9258 53.625 46.9258C54.7461 46.9258 55.6758 47.8281 55.6758 48.9492C55.6758 50.0977 54.7461 51 53.625 51Z"
		fill="var(--primary)" fill-opacity=" 0.25" />
	<path
		d="M73.6758 54.0078L72.9922 53.3242H64.3242V46.3242H73.6758V54.0078ZM73.6758 45.1758H64.3242C63.6953 45.1758 63.1758 45.6953 63.1758 46.3242V53.3242C63.1758 53.9805 63.6953 54.5 64.3242 54.5H72.5L74.8242 56.8242V46.3242C74.8242 45.6953 74.3047 45.1758 73.6758 45.1758Z"
		fill="var(--primary)" fill-opacity=" 0.25" />
	<path
		d="M87 47.5C88.5312 47.5 89.8438 48.5938 90.1445 50.0977L90.3086 50.9727L91.2109 51.0273C92.1133 51.082 92.8242 51.8477 92.8242 52.75C92.8242 53.707 92.0586 54.5 91.0742 54.5H83.5C82.2148 54.5 81.1758 53.4609 81.1758 52.1758C81.1758 50.9727 82.0508 49.9609 83.2539 49.8516L83.8555 49.7969L84.1562 49.2227C84.7031 48.1562 85.7969 47.5 87 47.5ZM87 46.3242C85.3047 46.3242 83.8555 47.2812 83.1172 48.7031C81.3672 48.8672 80 50.3711 80 52.1758C80 54.0898 81.5586 55.6758 83.5 55.6758H91.0742C92.6875 55.6758 94 54.3633 94 52.75C94 51.2188 92.7969 49.9609 91.293 49.8516C90.8828 47.8555 89.1328 46.3242 87 46.3242Z"
		fill="var(--primary)" fill-opacity=" 0.25" />
	<path
		d="M105 45.1758C101.773 45.1758 99.1758 47.7734 99.1758 51C99.1758 54.2266 101.773 56.8242 105 56.8242C108.227 56.8242 110.824 54.2266 110.824 51C110.824 47.7734 108.227 45.1758 105 45.1758ZM105 55.6758C102.43 55.6758 100.324 53.5703 100.324 51C100.324 48.4297 102.43 46.3242 105 46.3242C107.57 46.3242 109.676 48.4297 109.676 51C109.676 53.5703 107.57 55.6758 105 55.6758ZM107.051 50.4258C107.516 50.4258 107.926 50.0156 107.926 49.5508C107.926 49.0586 107.516 48.6758 107.051 48.6758C106.559 48.6758 106.176 49.0586 106.176 49.5508C106.176 50.0156 106.559 50.4258 107.051 50.4258ZM102.949 50.4258C103.441 50.4258 103.824 50.0156 103.824 49.5508C103.824 49.0586 103.441 48.6758 102.949 48.6758C102.484 48.6758 102.074 49.0586 102.074 49.5508C102.074 50.0156 102.484 50.4258 102.949 50.4258ZM105 54.1992C106.367 54.1992 107.516 53.3516 107.98 52.1758H102.02C102.484 53.3516 103.633 54.1992 105 54.1992Z"
		fill="var(--primary)" />
	<path d=" M123.219 47.5L123.246 47.7188L123.438 48.6758H126.5V52.1758H124.531L124.504 51.9297L124.312
		51H120.074V47.5H123.219ZM124.176 46.3242H118.926V56.25H120.074V52.1758H123.355L123.574
		53.3242H127.676V47.5H124.395L124.176 46.3242Z" fill="var(--primary)" fill-opacity=" 0.25" />
	<path
		d="M31.4141 63.625C30.457 68.0273 33.6016 70.8711 35.8711 71.6641C35.0781 72.293 34.0664 72.6758 33 72.6758C30.4297 72.6758 28.3242 70.5703 28.3242 68C28.3242 65.9766 29.6094 64.2539 31.4141 63.625ZM33 62.1758C29.7461 62.1758 27.1758 64.8281 27.1758 68C27.1758 71.2266 29.7734 73.8242 33 73.8242C35.1602 73.8242 37.0469 72.6484 38.0586 70.8984C33.6836 70.7617 31.0039 65.9766 33.1914 62.1758C33.1367 62.1758 33.0547 62.1758 33 62.1758Z"
		fill="var(--primary)" fill-opacity=" 0.25" />
	<path
		d="M55.9492 62.75L55.8672 62.7773L52.75 63.9805L49.25 62.75L45.9688 63.8711C45.832 63.8984 45.75 64.0078 45.75 64.1445V72.9492C45.75 73.1133 45.8867 73.25 46.0508 73.25L46.1328 73.2227L49.25 72.0195L52.75 73.25L56.0312 72.1289C56.168 72.1016 56.25 71.9922 56.25 71.8555V63.0508C56.25 62.8867 56.1133 62.75 55.9492 62.75ZM49.8242 64.1992L52.1758 65.0195V71.8008L49.8242 70.9805V64.1992ZM46.9258 64.7734L48.6758 64.1719V71.0078L46.9258 71.6914V64.7734ZM55.0742 71.2266L53.3242 71.8281V64.9922L55.0742 64.3359V71.2266Z"
		fill="var(--primary)" fill-opacity=" 0.25" />
	<path
		d="M72.8555 64.8555C72.0078 64.8555 71.2148 65.1836 70.6406 65.7578L66.5391 69.3945C66.1836 69.7773 65.6914 69.9688 65.1445 69.9688C64.0508 69.9688 63.1758 69.0938 63.1758 68C63.1758 66.9062 64.0508 66.0312 65.1445 66.0312C65.6914 66.0312 66.1836 66.2227 66.5664 66.6328L67.2227 67.207L68.125 66.4414L67.3867 65.7852C66.7852 65.1836 65.9922 64.8555 65.1445 64.8555C63.4219 64.8555 62 66.2773 62 68C62 69.7227 63.4219 71.1445 65.1445 71.1445C65.9922 71.1445 66.7852 70.8164 67.3594 70.2422L71.4609 66.6055C71.8164 66.2227 72.3086 66.0312 72.8555 66.0312C73.9492 66.0312 74.8242 66.9062 74.8242 68C74.8242 69.0938 73.9492 69.9688 72.8555 69.9688C72.3359 69.9688 71.8164 69.7773 71.4336 69.3672L70.75 68.793L69.875 69.5586L70.6133 70.2148C71.2148 70.8164 72.0078 71.1445 72.8555 71.1445C74.5781 71.1445 76 69.7227 76 68C76 66.25 74.5781 64.8555 72.8555 64.8555Z"
		fill="var(--primary)" fill-opacity=" 0.25" />
	<path
		d="M87 73.8242C87.6289 73.8242 88.1758 73.3047 88.1758 72.6758H85.8242C85.8242 73.3047 86.3711 73.8242 87 73.8242ZM90.5 70.3242V67.4258C90.5 65.6211 89.543 64.1172 87.875 63.7344V63.3242C87.875 62.8594 87.4922 62.4492 87 62.4492C86.5078 62.4492 86.125 62.8594 86.125 63.3242V63.7344C84.457 64.1172 83.5 65.6211 83.5 67.4258V70.3242L82.3242 71.5V72.0742H91.6758V71.5L90.5 70.3242ZM89.3242 70.9258H84.6758V67.4258C84.6758 65.9766 85.5508 64.8008 87 64.8008C88.4492 64.8008 89.3242 65.9766 89.3242 67.4258V70.9258Z"
		fill="var(--primary)" fill-opacity=" 0.25" />
	<path
		d="M110.824 66.3867L106.641 66.0312L105 62.1758L103.359 66.0312L99.1758 66.3867L102.348 69.1484L101.391 73.25L105 71.0625L108.609 73.25L107.652 69.1484L110.824 66.3867ZM105 69.9961L102.812 71.3086L103.387 68.8203L101.445 67.125L104.016 66.9062L105 64.5547L105.984 66.9062L108.555 67.125L106.613 68.8203L107.188 71.3086L105 69.9961Z"
		fill="var(--primary)" fill-opacity=" 0.25" />
	<path
		d="M128.578 70.3789L127.949 65.9219C127.785 64.7734 126.801 63.9258 125.652 63.9258H120.348C119.199 63.9258 118.215 64.7734 118.051 65.9219L117.422 70.3789C117.285 71.2812 117.969 72.0742 118.871 72.0742C119.281 72.0742 119.664 71.9375 119.937 71.6367L121.25 70.3242H124.75L126.062 71.6367C126.336 71.9375 126.719 72.0742 127.101 72.0742C128.031 72.0742 128.715 71.2812 128.578 70.3789ZM127.375 70.8164C127.32 70.8711 127.238 70.9258 127.129 70.9258C127.019 70.9258 126.937 70.8711 126.883 70.8164L125.242 69.1758H120.758L119.117 70.8164C119.062 70.8711 118.98 70.9258 118.871 70.9258C118.762 70.9258 118.68 70.8711 118.625 70.8164C118.598 70.7617 118.543 70.6797 118.57 70.543L119.199 66.0859C119.281 65.5117 119.773 65.0742 120.348 65.0742H125.652C126.226 65.0742 126.719 65.5117 126.801 66.0859L127.43 70.543C127.457 70.6797 127.402 70.7617 127.375 70.8164ZM121.25 65.6758H120.676V66.8242H119.5V67.4258H120.676V68.5742H121.25V67.4258H122.426V66.8242H121.25V65.6758ZM125.324 68C125.324 67.6719 125.598 67.4258 125.926 67.4258C126.226 67.4258 126.5 67.6719 126.5 68C126.5 68.3281 126.226 68.5742 125.926 68.5742C125.598 68.5742 125.324 68.3281 125.324 68ZM124.176 66.25C124.176 65.9219 124.422 65.6758 124.75 65.6758C125.078 65.6758 125.324 65.9219 125.324 66.25C125.324 66.5781 125.078 66.8242 124.75 66.8242C124.422 66.8242 124.176 66.5781 124.176 66.25Z"
		fill="var(--primary)" fill-opacity=" 0.25" />
	<defs>
		<filter id="preview-svg-filter-select-icon" x="10" y="5" width="136" height="42" filterUnits="userSpaceOnUse"
			color-interpolation-filters="sRGB">
			<feFlood flood-opacity="0" result="BackgroundImageFix" />
			<feColorMatrix in="SourceAlpha" type="matrix" values="0 0 0 0 0 0 0 0 0 0 0 0 0 0 0 0 0 0 127 0"
				result="hardAlpha" />
			<feOffset />
			<feGaussianBlur stdDeviation="4" />
			<feColorMatrix type="matrix" values="0 0 0 0 0 0 0 0 0 0.784314 0 0 0 0 0.592157 0 0 0 0.5 0" />
			<feBlend mode="normal" in2="BackgroundImageFix" result="effect1_dropShadow" />
			<feBlend mode="normal" in="SourceGraphic" in2="effect1_dropShadow" result="shape" />
		</filter>
	</defs>
</svg>
