<svg width="156" height="96" fill="none" xmlns="http://www.w3.org/2000/svg">
	<rect x="18" y="13" width="120" height="70" rx="6" fill="var(--theme--background)" />
	<rect x="19" y="14" width="118" height="68" rx="5" stroke="var(--theme--primary)" stroke-opacity=".25" stroke-width="2" />
	<rect x="18" y="13" width="120" height="26" rx="6" fill="var(--theme--background)" class="glow" />
	<rect x="19" y="14" width="118" height="24" rx="5" stroke="var(--theme--primary)" stroke-width="2" />
	<rect x="46" y="23" width="50" height="6" rx="2" fill="var(--theme--primary)" fill-opacity=".25" />
	<path
		d="M120.966 24a.4.4 0 00-.283.683l3.034 3.034a.4.4 0 00.566 0l3.034-3.034a.4.4 0 00-.283-.683h-6.068zM33 20.176A5.811 5.811 0 0027.176 26 5.811 5.811 0 0033 31.824 5.811 5.811 0 0038.824 26 5.811 5.811 0 0033 20.176zm0 10.5A4.691 4.691 0 0128.324 26 4.691 4.691 0 0133 21.324 4.691 4.691 0 0137.676 26 4.691 4.691 0 0133 30.676zm2.05-5.25a.9.9 0 00.876-.875.881.881 0 00-.875-.875.864.864 0 00-.875.875c0 .465.383.875.875.875zm-4.1 0c.491 0 .874-.41.874-.875a.864.864 0 00-.875-.875.881.881 0 00-.875.875.9.9 0 00.875.875zM33 29.199a3.2 3.2 0 002.98-2.023h-5.96A3.2 3.2 0 0033 29.199z"
		fill="var(--theme--primary)" />
	<path
		d="M33 45.176A5.811 5.811 0 0027.176 51 5.811 5.811 0 0033 56.824 5.811 5.811 0 0038.824 51 5.811 5.811 0 0033 45.176zm0 10.5A4.691 4.691 0 0128.324 51 4.691 4.691 0 0133 46.324 4.691 4.691 0 0137.676 51 4.691 4.691 0 0133 55.676zm.3-7.602h-.874v3.5l3.062 1.86.438-.739-2.625-1.558v-3.063zM48.074 49.824c-1.285 0-2.324 1.067-2.324 2.352a2.322 2.322 0 002.324 2.324c1.285 0 2.352-1.04 2.352-2.324a2.37 2.37 0 00-2.352-2.352zm0 3.5c-.629 0-1.148-.52-1.148-1.148a1.161 1.161 0 112.324 0c0 .629-.52 1.148-1.176 1.148zm4.676-.574c-.957 0-1.75.793-1.75 1.75s.793 1.75 1.75 1.75 1.75-.793 1.75-1.75-.793-1.75-1.75-1.75zm0 2.324a.56.56 0 01-.574-.574.56.56 0 01.574-.574c.328 0 .602.246.602.574 0 .328-.274.574-.602.574zm.875-9.324c-1.777 0-3.2 1.45-3.2 3.2 0 1.777 1.423 3.226 3.2 3.226 1.777 0 3.2-1.45 3.2-3.227 0-1.75-1.423-3.199-3.2-3.199zm0 5.25a2.048 2.048 0 01-2.05-2.05c0-1.122.929-2.024 2.05-2.024 1.121 0 2.05.902 2.05 2.023 0 1.149-.929 2.051-2.05 2.051zM73.676 54.008l-.684-.684h-8.668v-7h9.352v7.684zm0-8.832h-9.352c-.629 0-1.148.52-1.148 1.148v7c0 .657.52 1.176 1.148 1.176H72.5l2.324 2.324v-10.5c0-.629-.52-1.148-1.148-1.148zM87 47.5a3.218 3.218 0 013.144 2.598l.165.875.902.054c.902.055 1.613.82 1.613 1.723 0 .957-.765 1.75-1.75 1.75H83.5a2.322 2.322 0 01-2.324-2.324c0-1.203.875-2.215 2.078-2.324l.602-.055.3-.574A3.178 3.178 0 0187 47.5zm0-1.176c-1.695 0-3.144.957-3.883 2.38-1.75.163-3.117 1.667-3.117 3.472 0 1.914 1.559 3.5 3.5 3.5h7.574A2.93 2.93 0 0094 52.75c0-1.531-1.203-2.79-2.707-2.898-.41-1.996-2.16-3.528-4.293-3.528z"
		fill="var(--theme--primary)" fill-opacity=".25" />
	<path
		d="M105 45.176A5.811 5.811 0 0099.176 51 5.811 5.811 0 00105 56.824 5.811 5.811 0 00110.824 51 5.811 5.811 0 00105 45.176zm0 10.5c-2.57 0-4.676-2.106-4.676-4.676 0-2.57 2.106-4.676 4.676-4.676 2.57 0 4.676 2.106 4.676 4.676 0 2.57-2.106 4.676-4.676 4.676zm2.051-5.25a.9.9 0 00.875-.875.88.88 0 00-.875-.875.864.864 0 00-.875.875c0 .465.383.875.875.875zm-4.102 0c.492 0 .875-.41.875-.875a.864.864 0 00-.875-.875.88.88 0 00-.875.875.9.9 0 00.875.875zM105 54.199a3.199 3.199 0 002.98-2.023h-5.96a3.199 3.199 0 002.98 2.023z"
		fill="var(--theme--primary)" />
	<path
		d="M123.219 47.5l.027.219.192.957h3.062v3.5h-1.969l-.027-.246-.192-.93h-4.238v-3.5h3.145zm.957-1.176h-5.25v9.926h1.148v-4.074h3.281l.219 1.148h4.102V47.5h-3.281l-.219-1.176zM31.414 63.625c-.957 4.402 2.188 7.246 4.457 8.04A4.643 4.643 0 0133 72.674 4.691 4.691 0 0128.324 68a4.623 4.623 0 013.09-4.375zM33 62.175c-3.254 0-5.824 2.653-5.824 5.825A5.811 5.811 0 0033 73.824a5.838 5.838 0 005.059-2.926c-4.375-.136-7.055-4.921-4.868-8.722H33zM55.95 62.75l-.083.027-3.117 1.203-3.5-1.23-3.281 1.121a.266.266 0 00-.219.273v8.805c0 .164.137.301.3.301l.083-.027 3.117-1.204 3.5 1.231 3.281-1.121a.266.266 0 00.219-.273V63.05c0-.164-.137-.301-.3-.301zm-6.126 1.45l2.352.82v6.78l-2.352-.82V64.2zm-2.898.573l1.75-.601v6.836l-1.75.683v-6.918zm8.148 6.454l-1.75.601v-6.836l1.75-.656v6.89zM72.856 64.856c-.848 0-1.641.328-2.215.902l-4.102 3.636c-.355.383-.848.575-1.395.575A1.96 1.96 0 0163.176 68a1.96 1.96 0 011.968-1.969c.547 0 1.04.192 1.422.602l.657.574.902-.766-.738-.656a3.143 3.143 0 00-2.243-.93A3.163 3.163 0 0062 68a3.163 3.163 0 003.144 3.144c.848 0 1.641-.328 2.215-.902l4.102-3.636c.355-.383.848-.575 1.395-.575A1.96 1.96 0 0174.824 68a1.96 1.96 0 01-1.968 1.969c-.52 0-1.04-.192-1.422-.602l-.684-.574-.875.766.738.656c.602.601 1.395.93 2.243.93A3.163 3.163 0 0076 68a3.145 3.145 0 00-3.144-3.144zM87 73.824c.629 0 1.176-.52 1.176-1.148h-2.352c0 .629.547 1.148 1.176 1.148zm3.5-3.5v-2.898c0-1.805-.957-3.309-2.625-3.692v-.41A.881.881 0 0087 62.45a.881.881 0 00-.875.875v.41c-1.668.383-2.625 1.887-2.625 3.692v2.898L82.324 71.5v.574h9.352V71.5L90.5 70.324zm-1.176.602h-4.648v-3.5c0-1.45.875-2.625 2.324-2.625 1.45 0 2.324 1.176 2.324 2.625v3.5zM110.824 66.387l-4.183-.356L105 62.176l-1.641 3.855-4.183.356 3.172 2.761-.957 4.102L105 71.062l3.609 2.188-.957-4.102 3.172-2.761zM105 69.997l-2.188 1.312.575-2.489-1.942-1.695 2.571-.219.984-2.351.984 2.351 2.571.219-1.942 1.695.575 2.489L105 69.996zM128.578 70.379l-.629-4.457a2.324 2.324 0 00-2.297-1.996h-5.304a2.324 2.324 0 00-2.297 1.996l-.629 4.457a1.463 1.463 0 001.449 1.695c.41 0 .793-.136 1.066-.437l1.313-1.313h3.5l1.312 1.313c.274.3.657.437 1.039.437.93 0 1.614-.793 1.477-1.695zm-1.203.437a.348.348 0 01-.246.11.344.344 0 01-.246-.11l-1.641-1.64h-4.484l-1.641 1.64a.348.348 0 01-.246.11.348.348 0 01-.246-.11c-.027-.054-.082-.136-.055-.273l.629-4.457a1.174 1.174 0 011.149-1.012h5.304c.574 0 1.067.438 1.149 1.012l.629 4.457c.027.137-.028.219-.055.273zm-6.125-5.14h-.574v1.148H119.5v.602h1.176v1.148h.574v-1.148h1.176v-.602h-1.176v-1.148zM125.324 68c0-.328.274-.574.602-.574.3 0 .574.246.574.574a.578.578 0 01-.574.574c-.328 0-.602-.246-.602-.574zm-1.148-1.75a.56.56 0 01.574-.574.56.56 0 01.574.574.56.56 0 01-.574.574.56.56 0 01-.574-.574z"
		fill="var(--theme--primary)" fill-opacity=".25" />
</svg>
