<svg width="25" height="32" viewBox="0 0 25 32" fill="none" xmlns="http://www.w3.org/2000/svg">
<path d="M20.8792 17.0007C20.9222 21.8431 24.9555 23.4548 25 23.4754C24.9659 23.5887 24.3557 25.772 22.8753 28.0265C21.5957 29.9759 20.2673 31.918 18.1753 31.9587C16.1196 31.9979 15.4585 30.6878 13.1079 30.6878C10.7581 30.6878 10.0239 31.918 8.07767 31.9979C6.05805 32.0777 4.52011 29.8896 3.2298 27.9477C0.593323 23.9748 -1.4216 16.7212 1.28383 11.8249C2.62777 9.39335 5.02996 7.85381 7.63702 7.81414C9.62006 7.77473 11.4919 9.20455 12.7041 9.20455C13.9156 9.20455 16.1902 7.48496 18.5816 7.73738C19.5827 7.78092 22.3927 8.15878 24.197 10.9118C24.052 11.0058 20.8444 12.952 20.8792 17.0007ZM17.0157 5.10932C18.0878 3.75677 18.8094 1.87336 18.6127 0C17.0671 0.0646521 15.1982 1.07333 14.0898 2.42535C13.0963 3.62232 12.2264 5.5387 12.4609 7.37497C14.1837 7.51406 15.9434 6.46263 17.0157 5.10932Z" fill="#172940"/>
</svg>
