<svg width="28" height="37" viewBox="0 0 28 37" fill="none" xmlns="http://www.w3.org/2000/svg">
<path d="M9.10669 31.5145C7.51115 29.9865 7.04534 26.7761 7.71012 24.4502C8.86276 25.9166 10.4599 26.3811 12.1141 26.6434C14.6679 27.048 17.176 26.8966 19.5484 25.6738C19.8198 25.5338 20.0706 25.3477 20.3672 25.1591C20.5898 25.8357 20.6477 26.5187 20.5699 27.2139C20.3809 28.9069 19.5766 30.2148 18.2974 31.2061C17.7859 31.6027 17.2446 31.9572 16.7163 32.331C15.0933 33.4803 14.6542 34.8277 15.2641 36.7877C15.2786 36.8357 15.2915 36.8835 15.3243 37C14.4956 36.6113 13.8903 36.0456 13.4291 35.3018C12.942 34.517 12.7102 33.6486 12.6981 32.709C12.692 32.2518 12.692 31.7904 12.6333 31.3397C12.4899 30.2407 11.9975 29.7486 11.0697 29.7203C10.1176 29.6912 9.36438 30.3078 9.16465 31.279C9.1494 31.3534 9.12729 31.4271 9.10517 31.5137L9.10669 31.5145Z" fill="#172940"/>
<path d="M0 24.0627C0 24.0627 4.72474 21.6515 9.46268 21.6515L13.0349 10.0697C13.1687 9.50959 13.5591 9.12894 14 9.12894C14.4409 9.12894 14.8313 9.50959 14.9651 10.0697L18.5374 21.6515C24.1487 21.6515 28 24.0627 28 24.0627C28 24.0627 19.9747 1.15922 19.959 1.11326C19.7286 0.436116 19.3398 0 18.8155 0H9.18528C8.66105 0 8.28789 0.436116 8.04188 1.11326C8.02452 1.15835 0 24.0627 0 24.0627Z" fill="#172940"/>
</svg>
