<svg width="36" height="24" viewBox="0 0 36 24" fill="none" xmlns="http://www.w3.org/2000/svg">
<path d="M20.16 24H33.48C33.905 24 34.3119 23.8507 34.68 23.64C35.0481 23.4294 35.4276 23.1649 35.64 22.7999C35.8524 22.4351 36.0002 22.0211 36 21.5999C35.9998 21.1786 35.8528 20.7648 35.64 20.4001L26.64 4.92002C26.4276 4.55518 26.168 4.29062 25.8 4.07997C25.432 3.8694 24.905 3.71997 24.48 3.71997C24.055 3.71997 23.648 3.8694 23.28 4.07997C22.912 4.29062 22.6524 4.55518 22.44 4.92002L20.16 8.88002L15.6 1.19972C15.3874 0.834962 15.1282 0.450594 14.76 0.240028C14.3919 0.0293776 13.9851 0 13.56 0C13.135 0 12.7281 0.0293776 12.36 0.240028C11.9919 0.450594 11.6126 0.834962 11.4 1.19972L0.240004 20.4001C0.0272385 20.7648 0.000187723 21.1786 9.31028e-07 21.5999C-0.000185861 22.0211 0.0275612 22.435 0.240004 22.7999C0.452446 23.1648 0.831898 23.4294 1.2 23.64C1.56811 23.8507 1.97493 24 2.4 24H10.8C14.1284 24 16.551 22.5069 18.24 19.68L22.32 12.6L24.48 8.88002L31.08 20.16H22.32L20.16 24ZM10.68 20.16H4.79997L13.56 5.03999L18 12.6L15.059 17.7269C13.9373 19.5611 12.6585 20.16 10.68 20.16Z" fill="#172940"/>
</svg>
