<svg width="36" height="32" viewBox="0 0 36 32" fill="none" xmlns="http://www.w3.org/2000/svg">
<path d="M18 19.263C19.8104 19.263 21.278 17.8021 21.278 16C21.278 14.1979 19.8104 12.737 18 12.737C16.1896 12.737 14.722 14.1979 14.722 16C14.722 17.8021 16.1896 19.263 18 19.263Z" fill="#172940"/>
<path d="M30.4505 10.619C29.8179 10.39 29.1565 10.161 28.4665 9.96065C28.639 9.2737 28.7827 8.58676 28.8978 7.92844C29.5016 4.15027 28.8403 1.48837 27 0.45796C26.4537 0.143113 25.8498 0 25.1597 0C23.147 0 20.5879 1.48837 18 3.97853C15.4121 1.48837 12.853 0 10.8403 0C10.1502 0 9.54633 0.143113 9 0.45796C7.15974 1.51699 6.4984 4.17889 7.10224 7.92844C7.21725 8.58676 7.36102 9.2737 7.53355 9.96065C6.84345 10.161 6.18211 10.3614 5.54952 10.619C1.95527 11.9928 0 13.8819 0 16C0 18.1181 1.98403 20.0072 5.54952 21.381C6.18211 21.61 6.84345 21.839 7.53355 22.0394C7.36102 22.7263 7.21725 23.4132 7.10224 24.0716C6.4984 27.8497 7.15974 30.5116 9 31.542C9.54633 31.8569 10.1502 32 10.8403 32C12.8818 32 15.4409 30.5116 18 28.0215C20.5879 30.5116 23.147 32 25.1597 32C25.8498 32 26.4537 31.8569 27 31.542C28.8403 30.483 29.5016 27.8211 28.8978 24.0716C28.7827 23.4132 28.639 22.7263 28.4665 22.0394C29.1565 21.839 29.8179 21.6386 30.4505 21.381C34.0447 20.0072 36 18.1181 36 16C36 13.8819 34.0447 11.9928 30.4505 10.619ZM26.1949 1.88909C27.3738 2.57603 27.7764 4.6941 27.2875 7.69946C27.2013 8.30054 27.0575 8.93023 26.885 9.58855C25.3898 9.24508 23.8083 9.0161 22.1406 8.87299C21.1629 7.49911 20.1565 6.26834 19.1502 5.15206C21.278 3.06261 23.4345 1.63148 25.1885 1.63148C25.5623 1.63148 25.9073 1.71735 26.1949 1.88909ZM22.9744 18.8623C22.4569 19.7782 21.853 20.6941 21.2204 21.61C20.1565 21.6959 19.0927 21.7245 18 21.7245C16.8786 21.7245 15.8147 21.6959 14.7796 21.61C14.147 20.6941 13.5719 19.7782 13.0543 18.8623C12.508 17.9177 11.9904 16.9445 11.5304 16C11.9904 15.0555 12.508 14.0823 13.0543 13.1377C13.5719 12.2218 14.1757 11.3059 14.8083 10.39C15.8722 10.3041 16.9361 10.2755 18.0288 10.2755C19.1502 10.2755 20.2141 10.3041 21.2492 10.39C21.8818 11.3059 22.4569 12.2218 22.9744 13.1377C23.5208 14.0823 24.0383 15.0555 24.4984 16C24.0096 16.9445 23.5208 17.8891 22.9744 18.8623ZM25.361 17.9177C25.7923 18.9195 26.1374 19.8927 26.4537 20.8658C25.476 21.0948 24.4409 21.2665 23.3482 21.4097C23.6933 20.8658 24.0671 20.2934 24.3834 19.6923C24.7284 19.0912 25.0447 18.4902 25.361 17.9177ZM18 25.6744C17.3099 24.9302 16.6486 24.1288 16.016 23.2987C16.6773 23.3274 17.3387 23.356 18 23.356C18.6613 23.356 19.3227 23.3274 19.984 23.2987C19.3514 24.1288 18.6901 24.9302 18 25.6744ZM12.6518 21.381C11.5591 21.2379 10.524 21.0662 9.54632 20.8372C9.86262 19.8927 10.2077 18.8909 10.639 17.8891C10.9553 18.4615 11.2716 19.0626 11.6166 19.6351C11.9617 20.2648 12.3067 20.8086 12.6518 21.381ZM10.639 14.0823C10.2077 13.0805 9.86262 12.1073 9.54632 11.1342C10.524 10.9052 11.5591 10.7335 12.6518 10.5903C12.3067 11.1342 11.9329 11.7066 11.6166 12.3077C11.2716 12.9088 10.9553 13.5098 10.639 14.0823ZM18 6.32558C18.6901 7.06977 19.3514 7.8712 19.984 8.70125C19.3227 8.67263 18.6613 8.64401 18 8.64401C17.3387 8.64401 16.6773 8.67263 16.016 8.70125C16.6486 7.8712 17.3099 7.06977 18 6.32558ZM24.3834 12.3363L23.3482 10.619C24.4409 10.7621 25.476 10.9338 26.4537 11.1628C26.1374 12.1073 25.7923 13.1091 25.361 14.1109C25.0447 13.5098 24.7284 12.9088 24.3834 12.3363ZM8.71246 7.69946C8.22364 4.6941 8.6262 2.57603 9.80511 1.88909C10.0927 1.71735 10.4377 1.63148 10.8115 1.63148C12.5367 1.63148 14.6933 3.03399 16.8498 5.15206C15.8434 6.23971 14.8371 7.49911 13.8594 8.87299C12.1917 9.0161 10.6102 9.2737 9.11502 9.58855C8.94249 8.93023 8.82748 8.30054 8.71246 7.69946ZM1.61022 16C1.61022 14.6547 3.2492 13.2236 6.1246 12.1646C6.69968 11.9356 7.33227 11.7352 7.96486 11.5635C8.42492 12.9946 9 14.5116 9.69009 16.0286C9 17.5456 8.39617 19.034 7.96486 20.4651C3.99681 19.3202 1.61022 17.6029 1.61022 16ZM9.80511 30.1109C8.6262 29.424 8.22364 27.3059 8.71246 24.3005C8.79872 23.6995 8.94249 23.0698 9.11502 22.4115C10.6102 22.7549 12.1917 22.9839 13.8594 23.127C14.8371 24.5009 15.8434 25.7317 16.8498 26.8479C14.722 28.9374 12.5655 30.3685 10.8115 30.3685C10.4377 30.3685 10.0927 30.2826 9.80511 30.1109ZM27.2875 24.3005C27.7764 27.3059 27.3738 29.424 26.1949 30.1109C25.9073 30.2826 25.5623 30.3685 25.1885 30.3685C23.4633 30.3685 21.3067 28.966 19.1502 26.8479C20.1565 25.7603 21.1629 24.5009 22.1406 23.127C23.8083 22.9839 25.3898 22.7263 26.885 22.4115C27.0575 23.0698 27.1725 23.6995 27.2875 24.3005ZM29.8754 19.8354C29.3003 20.0644 28.6677 20.2648 28.0351 20.4365C27.5751 19.0054 27 17.4884 26.3099 15.9714C27 14.4544 27.6038 12.966 28.0351 11.5349C32.0032 12.6798 34.3898 14.3971 34.3898 16C34.3898 17.3453 32.722 18.7764 29.8754 19.8354Z" fill="#172940"/>
</svg>
