<svg width="28" height="32" viewBox="0 0 28 32" fill="none" xmlns="http://www.w3.org/2000/svg">
<path fill-rule="evenodd" clip-rule="evenodd" d="M26.77 24.6778C27.06 28.3751 27.06 30.1082 27.06 32H18.4457C18.4457 31.588 18.4531 31.2109 18.4606 30.8287C18.4839 29.6403 18.5082 28.4013 18.3143 25.8989C18.0581 22.2354 16.4695 21.4213 13.5484 21.4213H0V14.7558H13.9584C17.6481 14.7558 19.493 13.6411 19.493 10.69C19.493 8.09501 17.6481 6.52244 13.9584 6.52244H0V0H15.4958C23.849 0 28 3.91791 28 10.1764C28 14.8575 25.079 17.9105 21.133 18.4193C24.464 19.0807 26.4114 20.9634 26.77 24.6778Z" fill="#172940"/>
<path d="M0 32V27.0311H9.10832C10.6297 27.0311 10.9601 28.1517 10.9601 28.8199V32H0Z" fill="#172940"/>
</svg>
