<svg width="33" height="38" viewBox="0 0 33 38" fill="none" xmlns="http://www.w3.org/2000/svg">
<path d="M30.8967 5.0282C31.7706 6.20019 32.3914 7.52765 32.7226 8.93265C33.0539 10.3377 33.0888 11.7919 32.8255 13.21C32.5704 14.5644 32.0316 15.8552 31.2415 17.0045C32.3943 19.1117 32.7812 21.527 32.3408 23.8685C32.0806 25.2588 31.5204 26.5816 30.6961 27.7526C29.8718 28.9235 28.8015 29.9168 27.5538 30.6688L18.3181 36.3089C13.06 39.5192 5.78695 38.0229 2.10305 32.9724C1.22934 31.8003 0.608681 30.4728 0.277476 29.0677C-0.0537291 27.6627 -0.0888135 26.2085 0.17428 24.7903C0.429416 23.4358 0.968599 22.145 1.75923 20.9959C0.605605 18.8888 0.218406 16.4732 0.65892 14.1315C0.919234 12.7413 1.47941 11.4185 2.30363 10.2476C3.12786 9.07664 4.198 8.08337 5.44565 7.33125L14.6816 1.69116C19.9403 -1.51944 27.214 -0.0225925 30.8967 5.0282ZM15.6562 32.6572L24.8912 27.018C25.6416 26.5656 26.2852 25.9682 26.781 25.2639C27.2768 24.5597 27.6139 23.7641 27.7707 22.928C27.9288 22.0751 27.9076 21.2006 27.7083 20.3557C27.509 19.5107 27.1356 18.7124 26.6101 18.0076C25.7541 16.8253 24.54 15.9232 23.1319 15.4231C21.7237 14.923 20.1893 14.849 18.7358 15.2112C18.0723 15.3811 17.4398 15.6475 16.8604 16.001L13.3369 18.1531C13.1614 18.2595 12.9701 18.34 12.7696 18.3918C12.3316 18.5006 11.8694 18.478 11.4453 18.3271C11.0212 18.1762 10.6556 17.9043 10.3978 17.5481C10.2396 17.3356 10.1273 17.095 10.0673 16.8403C10.0074 16.5857 10.001 16.3222 10.0486 16.0652C10.0958 15.8134 10.1974 15.5738 10.3467 15.3617C10.496 15.1497 10.6899 14.9698 10.9159 14.8336L20.1519 9.19353C20.3273 9.0868 20.5186 9.00622 20.7192 8.95455C21.157 8.84587 21.619 8.86843 22.043 9.01919C22.467 9.16995 22.8325 9.44165 23.0903 9.79766C23.3721 10.1807 23.504 10.6466 23.4629 11.1136L23.4307 11.4418L23.7742 11.5417C25.0726 11.9172 26.2946 12.5024 27.3874 13.272L27.8603 13.6045L28.0343 13.0963C28.1274 12.8258 28.201 12.5496 28.255 12.2698C28.4132 11.4169 28.3921 10.5424 28.1929 9.69746C27.9936 8.85252 27.6203 8.05422 27.0947 7.3494C26.2387 6.16713 25.0246 5.26502 23.6165 4.76488C22.2083 4.26475 20.674 4.19067 19.2205 4.55265C18.5565 4.72277 17.9236 4.98935 17.3438 5.34312L8.10849 10.9829C7.35812 11.435 6.71451 12.0322 6.2188 12.7362C5.72309 13.4403 5.3862 14.2358 5.22969 15.0717C5.07132 15.9246 5.09238 16.7991 5.29163 17.6441C5.49089 18.489 5.86431 19.2873 6.38999 19.9921C7.24592 21.1744 8.45992 22.0765 9.86803 22.5766C11.2761 23.0767 12.8105 23.1507 14.2639 22.7886C14.9275 22.6189 15.56 22.3529 16.1396 21.9999L19.6638 19.8472C19.8389 19.7404 20.03 19.6598 20.2305 19.6082C20.6684 19.4993 21.1307 19.5219 21.5548 19.6727C21.979 19.8236 22.3446 20.0956 22.6022 20.4519C22.7604 20.6645 22.8728 20.9052 22.9329 21.1598C22.9929 21.4145 22.9993 21.6781 22.9517 21.9352C22.9043 22.187 22.8027 22.4266 22.6533 22.6386C22.504 22.8507 22.3101 23.0307 22.0841 23.167L12.8479 28.8062C12.6726 28.9133 12.4813 28.994 12.2805 29.0455C11.8428 29.1543 11.3807 29.1318 10.9568 28.981C10.5329 28.8302 10.1675 28.5583 9.91002 28.2021C9.62741 27.8194 9.49532 27.3532 9.53715 26.8861L9.56872 26.5579L9.22584 26.4584C7.92748 26.0833 6.7056 25.4982 5.61298 24.7286L5.13971 24.3958L4.96575 24.9041C4.87257 25.1743 4.79884 25.4503 4.74505 25.7302C4.58669 26.5831 4.60776 27.4578 4.80701 28.3028C5.00626 29.1478 5.37968 29.9461 5.90535 30.6509C6.76134 31.8332 7.97542 32.7353 9.38358 33.2354C10.7918 33.7354 12.3262 33.8093 13.7796 33.4471C14.4436 33.2774 15.0766 33.011 15.6562 32.6572Z" fill="#172940"/>
</svg>
