<?xml version="1.0" encoding="UTF-8" standalone="no"?>
<svg width="990px" height="53px" viewBox="0 0 990 53" version="1.1" xmlns="http://www.w3.org/2000/svg" xmlns:xlink="http://www.w3.org/1999/xlink">
    <!-- Generator: Sketch 42 (36781) - http://www.bohemiancoding.com/sketch -->
    <title>Frames (66x53)</title>
    <desc>Created with Sketch.</desc>
    <defs></defs>
    <g id="Page-1" stroke="none" stroke-width="1" fill="none" fill-rule="evenodd">
        <g id="Frames-(66x53)" fill="#FFFFFF">
            <path d="M29.2564656,2.305284 C31.2089883,1.93672176 33.2010244,1.83900991 35.1843178,1.86300931 C39.6482064,1.92900767 44.0864672,2.91126888 48.1885649,4.66579656 C52.7784504,6.63889021 56.832635,9.76395514 60.0802683,13.5438609 C59.8539883,14.5912633 59.1742909,15.5066691 58.2700278,16.0715121 C57.2389106,16.7212102 56.0312265,17.0709158 54.8175424,17.1343428 C53.8532808,17.2200549 52.831592,17.1849129 51.9461855,17.6331875 C51.3239153,17.9443226 50.8979259,18.5425934 50.6717315,19.1862916 C50.3159404,20.1796954 50.2276569,21.2502401 50.2533705,22.2993568 C50.2945124,22.928484 50.3665106,23.5576112 50.3683105,24.1893097 C50.3776532,24.2998784 50.3254545,24.4550174 50.44708,24.5235871 C51.1482054,25.0370028 52.0362689,25.1475715 52.8238779,25.4724206 C55.1903903,26.3132567 57.5020469,27.4378001 59.3963711,29.1126155 C61.2786099,30.407726 62.956768,32.1022552 63.8841735,34.2184882 C63.5738955,34.9324704 62.9293402,35.5050275 62.1553595,35.6507382 C61.060901,35.8795896 59.9414147,35.3207464 59.2514319,34.4859101 C58.4825939,33.504506 57.4806189,32.7245254 56.4023601,32.1082551 C55.8683734,31.7979771 55.282188,31.5914108 54.6898313,31.4259864 C53.9372787,31.2065633 53.1461556,31.091709 52.3636036,31.1722784 C51.6719923,31.2134202 50.9922093,31.3539882 50.3047978,31.4277006 C49.5676734,31.4508429 48.8323488,31.5099843 48.0942815,31.5202697 C46.8883116,31.6556949 45.6660564,31.479985 44.5175136,31.1045658 C43.5463949,31.3711306 42.5247061,31.4731281 41.5219597,31.3591309 C39.919914,31.1979921 38.3900378,30.640006 36.9268457,29.9920221 C35.0763205,29.194042 33.2935935,28.234066 31.3906981,27.5595114 C30.1598716,27.1420932 28.8673324,26.8035302 27.5559366,26.9055277 C26.8548112,26.9560978 26.1579714,27.140379 25.5442724,27.4875132 C25.3959904,27.5655112 25.3111354,27.7155075 25.2194234,27.8492184 C24.3777301,29.1349006 23.1726173,30.1617322 21.8175082,30.8765715 C20.4958269,31.5622687 19.0464345,31.9436877 17.6116131,32.3131071 C16.1270787,32.7262397 14.5876885,32.925949 13.1271535,33.4256508 C12.2786033,33.702501 11.4891944,34.1362045 10.7606411,34.647906 C9.55381407,35.4904564 8.34013005,36.3252928 7.18730165,37.2406985 C6.66960028,37.7275435 6.10818571,38.1629612 5.55105674,38.6035217 C4.75393376,39.1657934 3.89595516,39.7974919 2.87340923,39.7854922 C1.90743332,39.840348 1.04859759,39.2300775 0.464897863,38.5118097 C1.95028939,36.9064211 3.36453984,35.2298915 4.97678535,33.7470713 C6.0721866,32.7442392 7.03730539,31.6016963 7.84642807,30.3562988 C8.24584668,29.7768846 8.63412271,29.1323293 9.27953519,28.7980519 C9.67809668,28.6317703 10.0869436,28.467203 10.5215042,28.4312039 C11.7660446,28.3394919 13.0182991,27.7960769 13.8085651,26.8078158 C14.2928387,26.2284017 14.5791173,25.517848 14.809683,24.8081514 C15.2810998,23.3261884 15.4610953,21.7439421 16.1862201,20.3502626 C16.4005005,19.9568438 16.6139237,19.5402828 16.9747719,19.2591469 C17.1504818,19.1125792 17.2799071,18.9222982 17.4221893,18.7457312 C16.9413441,18.6180201 16.425357,18.6025919 15.9805109,18.3617407 C14.8979665,17.8148972 14.1411282,16.7006393 13.9697039,15.5075262 C13.8548497,14.4789804 14.1548422,13.4230067 14.717971,12.5624568 C15.289671,12.8367357 15.9067985,12.9910175 16.4930696,13.2275831 C17.187338,13.4512918 17.8327505,13.8069972 18.5398757,13.9947068 C19.0284349,14.116418 19.501566,14.2946993 19.9892681,14.4189819 C21.5783713,14.8081151 23.2043308,15.040395 24.8371472,15.138964 C26.4425358,15.2358187 28.0504957,15.2932458 29.6515986,15.4535275 C31.439554,15.5992382 33.2026529,15.9463724 34.9520378,16.3363627 C36.6071394,16.6852111 38.3590957,16.8832062 40.0090546,16.4040753 C41.2484523,16.0132279 42.2478559,15.0678229 42.8478409,13.9312798 C43.8978148,12.0781831 44.0083834,9.89509473 44.7960781,7.94171487 C44.1386659,8.40113198 43.4684826,8.84512091 42.7467863,9.19739784 C40.2757051,10.4376526 37.3914056,10.8190717 34.6795589,10.2885135 C32.3155322,9.82995349 30.0878734,8.68998192 28.3376314,7.03573746 C29.4698888,6.45032349 30.6527165,5.96947834 31.8449725,5.52034668 C30.8215694,4.59379836 29.9387343,3.50611119 29.2564656,2.305284" id="Fill-2-Copy"></path>
            <path d="M95.2858331,2.58727525 C96.9932191,2.32671032 98.7263187,2.28728273 100.44999,2.35156685 C104.701313,2.46470688 108.91055,3.40154066 112.866252,4.94864494 C115.597898,6.00290436 118.188119,7.4248689 120.54006,9.17082536 C122.575724,10.6819305 124.426249,12.4398867 126.071922,14.3675529 C125.861071,15.440669 125.135946,16.3620746 124.211969,16.9234892 C123.324762,17.4617615 122.312588,17.7943246 121.281471,17.9014648 C120.220354,18.0274616 119.102668,17.9323212 118.100693,18.3651675 C117.420138,18.6574459 116.955578,19.2960014 116.72587,19.9834129 C116.335022,21.1148132 116.326451,22.3310686 116.383021,23.5138963 C116.450734,24.1927365 116.492647,24.8775765 116.449791,25.5598452 C116.948721,26.016691 117.594134,26.2515423 118.212118,26.4992504 C120.372922,27.4257987 122.641808,28.4280308 124.482048,29.9099939 C124.801754,30.1602734 125.249257,30.5020077 125.568878,30.7522872 C127.390261,32.1435668 128.706628,33.4967902 129.674318,35.4509414 C129.724974,35.5641672 129.805544,35.6944496 129.730117,35.817018 C129.430982,36.4624305 128.841282,36.9767034 128.143585,37.1412707 C127.321606,37.3461227 126.437913,37.1018431 125.769359,36.6012842 C125.21223,36.219008 124.861667,35.6223657 124.35168,35.188748 C123.269992,34.2476286 122.070022,33.3862215 120.687485,32.9533751 C119.916076,32.6825248 119.105239,32.4888153 118.284117,32.5033864 C117.727845,32.5282429 117.170716,32.5385283 116.620444,32.627669 C115.694753,32.7485231 114.756205,32.7168096 113.827085,32.6670966 C112.617601,32.691096 111.414202,32.4279597 110.300887,31.9615999 C109.46348,32.1391097 108.600272,32.2145364 107.744951,32.12711 C106.16699,31.9625427 104.656742,31.4224705 103.21335,30.786572 C101.13483,29.8771661 99.1463082,28.7620511 97.0129329,27.9820705 C95.3989731,27.3906567 93.605875,27.0006664 91.9104887,27.4746546 C91.4956419,27.6237938 91.002797,27.7197914 90.7422321,28.112353 C89.5739755,29.5874591 87.9017315,30.6442899 86.0752056,31.0925644 C84.7818093,31.4199848 83.4438427,31.527125 82.112733,31.5519815 C80.9496191,31.5956947 79.7813626,31.4936973 78.6225343,31.6299796 C77.8562677,31.7276914 77.0548591,31.9882564 76.5525859,32.6088123 C74.8640566,34.3033415 73.8697957,36.5635708 72.0886973,38.1741021 C71.5452822,38.6755182 70.8587279,39.0595086 70.1061753,39.0912221 C69.2824815,39.1452207 68.5007867,38.7638017 67.875088,38.2563858 C68.7699229,36.755566 69.7101851,35.2829456 70.6255909,33.7950684 C71.1707201,32.8350924 71.7278491,31.8768306 72.1495529,30.8542846 C72.5635426,29.8531667 72.8669636,28.8091928 73.3058098,27.8175032 C73.5115189,27.3743714 73.8175113,26.9363823 74.2863567,26.7486727 C75.008053,26.4692511 75.7931763,26.6089619 76.5431576,26.503536 C77.7122713,26.3921102 78.9670972,26.1186884 79.8156474,25.2444245 C80.6899113,24.3744462 80.9753328,23.1273345 81.2453261,21.9676491 C81.5641752,20.8302489 81.9987358,19.6337073 82.9304269,18.8528696 C83.0289959,18.7431581 83.121565,18.6274467 83.2167055,18.5151638 C82.6510053,18.4105949 82.0818766,18.2717413 81.6053171,17.9331783 C80.5013446,17.1934824 79.8576464,15.8298022 79.9596438,14.508978 C80.0693554,13.6038577 80.4679169,12.731308 81.0910442,12.0644675 C81.569318,12.4004591 82.1084474,12.6275963 82.6218632,12.9001609 C83.361559,13.2472951 84.0686842,13.6741416 84.8563789,13.9124214 C88.1571537,15.1886753 91.7459213,15.1903895 95.207835,15.6729489 C96.9709339,15.9078002 98.7151761,16.2806481 100.425991,16.7649217 C102.130805,17.2294815 103.921332,17.6614708 105.692916,17.3374788 C106.985541,17.0949135 108.092857,16.2069356 108.725498,15.0686783 C109.894612,13.1341551 109.886898,10.7830709 110.782589,8.7414075 C109.128345,9.92423514 107.186022,10.6947874 105.173586,10.9836373 C101.217114,11.5819081 97.0266468,10.1659434 94.2367164,7.29972916 C95.3929733,6.7743137 96.5792294,6.31232522 97.7869136,5.92147782 C96.7969382,4.94007372 95.9252457,3.82838716 95.2858331,2.58727525" id="Fill-2-Copy-2"></path>
            <path d="M161.317597,4.19620954 C162.311858,4.17992424 163.065439,4.16398178 164.297809,4.26306502 C166.924886,4.5056304 169.539964,4.93161978 172.0839,5.63960212 C173.995281,6.17016032 175.870663,6.82671537 177.716045,7.55269727 C180.79654,8.74066765 183.76818,10.2517728 186.426114,12.2205809 C188.484834,13.7496856 190.374016,15.5230699 191.975118,17.5287342 C191.779695,18.2384308 191.413704,18.9052713 190.871146,19.4092587 C190.039738,20.1815252 188.950337,20.6118002 187.85665,20.8552227 C186.591538,21.1226446 185.217573,20.8903647 184.029602,21.4826356 C183.125339,21.9489097 182.726778,22.9663129 182.489355,23.8980039 C181.982796,25.8445268 182.17822,27.8793332 181.90137,29.8541411 C182.107936,30.1831901 182.414785,30.4335553 182.712207,30.6778349 C184.983579,32.414363 187.381804,34.0317512 189.317185,36.1581839 C189.659176,36.5731164 190.214591,36.6811137 190.639723,36.9836776 C191.932262,37.8570844 193.125376,38.9199151 193.984211,40.2329394 C194.129922,40.4652194 194.307346,40.6855853 194.39563,40.9478645 C194.245633,41.551278 193.797359,42.0689794 193.249658,42.3561151 C192.449964,42.7769617 191.453989,42.686964 190.680008,42.2532605 C189.902599,41.8641273 189.40204,41.1227173 188.706057,40.6238726 C188.141214,40.2201683 187.614941,39.7615226 187.021813,39.3981888 C186.558111,39.0836253 186.102979,38.7493479 185.591278,38.515268 C184.643301,38.0893643 183.725324,37.5588061 182.692493,37.3642396 C182.027367,37.2459568 181.357955,37.1139601 180.679972,37.1371024 C179.728567,37.1499592 178.785733,36.9758778 177.872899,36.7187414 C176.90178,36.5156893 175.989803,36.0991283 175.145538,35.5864839 C174.963743,35.4802865 174.798404,35.3405757 174.599466,35.2677204 C173.061019,35.3954315 171.537057,34.9625852 170.152806,34.3214583 C168.650272,33.6529035 167.301162,32.696356 165.988909,31.7149519 C164.103242,30.3331863 162.346143,28.7364547 160.222196,27.7164802 C159.314504,27.3033476 158.245674,27.2202068 157.312269,27.5964831 C156.98142,27.6916236 156.830566,28.025901 156.607715,28.2573238 C155.591169,29.514721 154.110063,30.3564143 152.534673,30.6846918 C150.870144,30.9855415 149.153329,30.9041149 147.499942,30.5749803 C146.647963,30.3958419 145.741986,30.0341366 144.884007,30.3838422 C144.864293,30.8278311 145.084574,31.222107 145.24057,31.6232399 C145.455707,32.1700834 145.697415,32.7074985 145.894553,33.2620561 C146.191974,34.6367933 146.381398,36.0896999 146.012836,37.4713797 C145.845697,38.1639339 145.480564,38.8333458 144.88915,39.2499068 C144.266023,39.6681821 143.480899,39.7890362 142.744632,39.717038 C142.556922,38.1630768 142.576636,36.5825448 142.269787,35.0431546 C142.077791,34.0420367 141.422951,33.2311998 141.053531,32.2986516 C140.760396,31.6018118 140.31555,30.9666848 140.155268,30.2184178 C139.998415,29.3064405 139.814134,28.3610355 140.038699,27.4438298 C140.227266,26.9279284 140.554686,26.388799 141.121244,26.2388027 C142.094077,25.9430958 143.102052,25.7785285 144.082599,25.5085352 C144.966291,25.3216827 145.904839,25.048261 146.524538,24.3479927 C147.144236,23.672581 147.176807,22.6886055 147.193092,21.8211986 C147.151951,21.1689291 147.322518,20.5312308 147.488799,19.9063892 C147.868504,19.1204088 148.487346,18.4827104 149.132758,17.9067248 C148.675913,17.7498715 148.201067,17.6144464 147.801649,17.3350248 C146.664248,16.5130453 146.087406,15.0113684 146.345399,13.6374027 C146.512538,12.4597178 147.362802,11.4834564 148.377634,10.9194705 C148.778767,11.4046012 149.155901,11.9128743 149.614461,12.348292 C151.040711,13.738543 152.95552,14.5759507 154.920043,14.8330871 C157.096274,15.1390795 159.278505,15.445929 161.412738,15.9807728 C163.045554,16.4084764 164.625229,17.0230325 166.136334,17.7721567 C167.72458,18.6121358 169.245971,19.6586811 171.018498,20.0752421 C171.927047,20.3186646 172.963307,20.1532402 173.699489,19.5498267 C174.440127,18.9841265 174.880688,18.127005 175.200394,17.2707406 C175.874091,15.474214 175.807236,13.4719782 176.652358,11.7303074 C176.137228,12.0902984 175.610098,12.4511465 174.999828,12.6294278 C172.602459,13.5782613 169.929097,13.8773967 167.395446,13.3519812 C164.509518,12.7802812 161.837013,11.1868924 159.967631,8.91380618 C161.138459,8.43810376 162.381285,8.16125352 163.591541,7.80811947 C162.658135,6.72900353 161.83787,5.53160481 161.317597,4.19620954" id="Fill-2-Copy-3"></path>
            <path d="M226.829679,6.97346795 C227.671372,7.08403662 228.538779,7.01803827 229.35733,7.27688896 C230.304449,7.55973904 231.273854,7.75259138 232.22603,8.01572767 C234.519773,8.6071415 236.767145,9.37255098 238.953662,10.2810998 C240.716761,11.023367 242.465289,11.7964905 244.214674,12.5704712 C246.852037,13.7138713 249.399402,15.0912655 251.710201,16.808937 C253.030168,17.7843412 254.254052,18.8865994 255.397538,20.0634272 C256.046379,20.7431246 256.690077,21.4331074 257.244635,22.1933741 C256.964356,23.2133487 256.234946,24.0738987 255.317826,24.5847431 C254.307279,25.177014 253.150165,25.515577 251.981909,25.5798611 C251.206214,25.657002 250.40052,25.713572 249.69768,26.0838485 C249.005126,26.4241258 248.502853,27.0583957 248.179718,27.74495 C247.401452,29.3160536 246.932606,31.0148684 246.450047,32.6939694 C246.149197,33.8065988 245.754921,34.8916289 245.359788,35.9733162 C245.290361,36.1918822 245.116366,36.3693063 245.076081,36.5955864 C245.106937,36.8364375 245.18665,37.0695746 245.28179,37.2932833 C246.015486,38.9089573 246.957463,40.4234909 248.015151,41.8463126 C248.26543,42.1694474 248.463425,42.5311527 248.73599,42.8380021 C249.026554,43.1551371 249.19455,43.5665554 249.52197,43.8519769 C249.759393,44.0688286 249.949674,44.3431075 250.23081,44.5076748 C250.666227,44.6953844 251.133359,44.8299525 251.52592,45.1059456 C252.796174,45.983638 253.941288,47.0696109 254.763268,48.3844353 C254.86098,48.5652879 255.027261,48.7324266 255.046889,48.9424213 C254.830123,49.6358326 254.270423,50.2204752 253.579583,50.4543836 C252.354757,50.8898014 251.031361,50.2503887 250.213667,49.3315545 C249.587968,48.6887134 248.819988,48.2147252 248.13429,47.6421681 C247.464021,47.2024647 246.875179,46.6479071 246.168054,46.2647738 C245.858633,46.0942067 245.545784,45.9262109 245.268076,45.7076449 C244.25753,44.9173789 243.118416,44.3079655 241.939873,43.810835 C241.162464,43.5785551 240.337913,43.4962714 239.593932,43.1585656 C238.987947,42.815717 238.398248,42.4231554 237.927688,41.9045969 C237.266847,41.2368992 236.855429,40.3832062 236.378869,39.5860832 C234.755481,39.2244637 233.4398,38.1375479 232.199545,37.0901455 C230.240165,35.3939021 228.919341,33.1336727 227.462235,31.026011 C227.145957,30.5461087 226.852821,30.0488925 226.479973,29.6100463 C226.002557,28.993776 225.600567,28.3210213 225.101722,27.7226648 C224.993725,27.6575236 224.870299,27.6292386 224.752874,27.5906681 C224.45031,28.2197953 224.190602,28.88835 223.720042,29.4163369 C223.463763,29.7034725 223.203198,29.9924082 222.891206,30.2186026 C221.872945,30.8957285 220.624119,31.1845785 219.409578,31.1040091 C219.003303,31.0852381 218.633883,30.8725863 218.229322,30.8580152 C217.973043,30.9677267 217.829903,31.2282917 217.693621,31.456286 C217.812761,31.7923633 218.059612,32.0536997 218.326177,32.2791226 C218.69731,32.5936862 219.025588,32.9725339 219.467862,33.1902427 C220.207558,33.5785188 220.929255,34.0010797 221.621809,34.469068 C222.286078,34.9619128 223.008631,35.4753286 223.318909,36.2775943 C223.693471,37.1673721 223.389193,38.1666901 222.938347,38.9673272 C222.822636,38.9673272 222.709496,38.9518133 222.599784,38.9218141 C221.182963,38.3030581 219.711285,37.7998421 218.35789,37.0438609 C217.835903,36.7584395 217.265917,36.5664443 216.771358,36.2313098 C216.389082,35.9818874 215.96395,35.8010348 215.609959,35.5096135 C215.15997,35.1556223 214.704838,34.8102881 214.237707,34.4784963 C213.523725,33.8990822 213.157734,33.0333895 212.702603,32.2611231 C212.618605,31.632853 212.394039,30.9668696 212.652032,30.3523135 C212.745459,30.0831774 212.860313,29.8226124 212.989738,29.5689045 C213.198876,29.1223442 213.825432,29.0932021 214.011427,28.6252137 C214.187994,28.1760821 214.523129,27.794663 214.599412,27.3069609 C214.777694,26.3118428 214.658554,25.290154 214.459702,24.3078928 C214.307134,23.6076246 214.244564,22.8919281 214.086854,22.192517 C214.030284,21.6619588 214.025998,21.1236865 214.047426,20.5896998 C214.30542,20.0394278 214.797407,19.6434377 215.128256,19.1394503 C214.739123,19.017739 214.257592,18.7642882 214.120282,18.6766047 C213.197162,18.1597604 212.480608,17.246926 212.292899,16.1960951 C212.162616,15.4358283 212.215758,14.6335626 212.50975,13.916152 C212.916026,13.0727444 213.633437,12.4144751 214.449416,11.9722004 C214.967975,12.5481861 215.310823,13.2715966 215.896237,13.7918693 C217.08335,14.9275553 218.659597,15.6852507 220.302699,15.8129618 C221.350101,15.8601035 222.392361,15.9741006 223.438049,16.0418132 C224.18803,16.1583818 224.931155,16.3203777 225.679422,16.4489459 C226.398547,16.6092277 227.096244,16.8535073 227.802512,17.0626449 C229.781605,17.7629132 231.614988,18.8566002 233.191235,20.2417085 C233.956644,20.9625477 234.644055,21.7596706 235.38118,22.5079377 C236.041163,23.1996347 236.746574,23.8750465 237.609696,24.3053215 C238.008257,24.4321754 238.453103,24.4227471 238.856808,24.3224639 C239.515934,24.0156144 240.025836,23.4387716 240.309628,22.7727882 C241.093037,21.1348291 241.052753,19.278304 241.418658,17.5323475 C241.519884,17.0935013 241.713593,16.6837972 241.879875,16.2672362 C241.427315,16.5158014 241.020182,16.8817923 240.494767,16.964076 C239.906781,17.070359 239.331653,17.2374977 238.74281,17.3394952 C237.613981,17.5434901 236.461153,17.5803463 235.316896,17.5263476 C231.269568,17.2923535 227.360237,15.0835514 225.147149,11.6739222 C225.931416,11.4664988 226.736253,11.3507874 227.528233,11.1785059 C227.965365,11.0842226 228.408497,11.0190813 228.853343,10.9685112 C228.008221,9.73511337 227.205955,8.4357172 226.829679,6.97346795" id="Fill-2-Copy-4"></path>
            <path d="M292.634322,7.20591688 C293.495472,7.25134432 295.304256,7.69276188 295.94024,7.89418543 C296.984214,8.22332008 298.033331,8.53616942 299.069591,8.88758923 C301.307535,9.64528462 303.494909,10.5486907 305.615427,11.5909504 C307.085391,12.2955042 308.55364,13.0069151 310.04846,13.6591845 C314.058931,15.3031435 317.759124,17.7287973 320.798477,20.8247201 C321.571601,21.5798441 322.353296,22.3341111 323.010708,23.1963753 C322.834141,23.8109314 322.493006,24.3714888 322.043875,24.8249061 C321.632456,25.2628952 321.101041,25.5568878 320.582483,25.8483091 C319.752789,26.2691558 318.848526,26.5545772 317.919406,26.6368609 C317.182282,26.7414297 316.422872,26.8468557 315.755174,27.1964755 C314.853483,27.6491214 314.143786,28.4273877 313.673226,29.3110799 C313.124669,30.1844867 312.693536,31.1230347 312.185263,32.0195838 C311.514137,33.3155515 310.857582,34.6200904 310.140172,35.8920587 C309.542758,36.8263211 308.948773,37.7742974 308.263076,38.6417044 C308.149078,39.3085449 308.317931,39.9873851 308.387358,40.6525114 C308.58621,41.3562081 308.799634,42.1216176 309.375619,42.6178909 C309.605328,42.7910295 309.840179,42.9701679 310.108458,43.0798794 C310.869582,43.3087309 311.658991,43.4732982 312.384973,43.8032042 C313.144382,44.276421 313.861793,44.8378356 314.432636,45.532104 C315.392612,46.6437905 316.035453,48.0057566 316.410015,49.4191499 C316.469157,49.5459182 316.332874,49.64543 316.273733,49.7414276 C315.81603,50.287414 315.127761,50.6534048 314.407779,50.6508335 C313.386948,50.6551191 312.419258,50.0157065 311.954698,49.1191574 C311.709561,48.6254554 311.370998,48.1668954 310.914152,47.8514747 C310.466735,47.5471966 309.964462,47.3320591 309.449332,47.1709203 C308.865632,46.9823535 303.351427,45.6512439 301.76438,44.9946888 C301.312677,44.7204099 300.861832,44.4255601 300.476127,44.0621406 C300.06728,43.5152971 299.713289,42.914455 299.523008,42.2536143 C299.372154,41.7204847 299.229872,41.1856409 299.094447,40.6482258 C297.884191,40.1588094 296.956786,39.189405 296.116807,38.2217149 C295.007692,37.0097451 294.151427,35.5826378 293.48973,34.0818181 C293.098882,33.2306965 292.745748,32.3632895 292.349758,31.5147393 C292.08405,30.9010403 291.880913,30.2564849 291.509779,29.6942132 C291.319498,30.4844792 290.937222,31.2267464 290.401521,31.8378741 C290.008102,32.2012936 289.588113,32.5664273 289.072126,32.740423 C288.375286,33.0241302 287.624447,33.2958377 286.861609,33.1552698 C286.652472,33.1098423 286.488761,33.3292654 286.46819,33.5177464 C287.426452,33.7612547 288.369286,34.0835323 289.354976,34.200958 C290.755512,34.4683799 292.212619,34.8462847 293.320877,35.7909183 C293.944861,36.3069055 294.329709,37.1134568 294.261996,37.9277222 C294.231997,38.3888535 294.120571,38.8414137 293.940576,39.2656888 C293.581442,39.2734029 292.186305,38.7254451 290.657029,38.4391666 C289.127667,38.152888 287.522278,38.077547 285.065083,37.6782998 C284.078536,37.5051613 281.587826,36.4003317 281.37946,34.8078 C281.298891,34.3080982 281.143752,33.7586833 281.394031,33.282038 C282.046558,32.2720918 282.002588,30.0919176 281.892876,29.2656525 C281.837163,28.6245256 281.524314,28.0502542 281.330604,27.4459836 C281.080325,26.6771456 280.736619,25.9383069 280.555766,25.1480409 C280.42977,24.4700578 280.549767,23.7809321 280.529196,23.0978063 C280.528339,22.8852402 280.583194,22.6786739 280.629479,22.4738219 C279.785214,22.4078235 279.006091,21.9681202 278.384678,21.4118483 C277.967174,20.979002 277.835949,20.8674048 277.639153,20.5444414 C276.566123,18.7582859 277.098996,15.9802695 278.692384,14.6423029 C278.94095,14.4117372 279.233228,14.2385986 279.531506,14.0808883 C279.678931,14.262598 279.797214,14.4657358 279.881212,14.6843018 C280.102349,15.2337167 280.379199,15.7625606 280.728048,16.2416916 C281.05804,16.6282533 281.457458,16.9479597 281.865448,17.2470951 C282.258867,17.5462304 282.746569,17.6705131 283.218843,17.7845102 C284.171962,18.0279327 285.164509,17.90965 286.131342,17.8316519 C286.670471,17.7725105 287.212172,17.7605108 287.752158,17.7176547 C288.742134,17.5702299 289.74068,17.726226 290.734084,17.7236546 C291.466923,17.7999384 292.182619,17.9919336 292.904316,18.1350729 C294.581702,18.629632 296.181091,19.4121839 297.558485,20.4955855 C299.036163,21.5798441 300.064709,23.1320912 301.401818,24.3663461 C302.022374,24.8180491 302.720928,25.2911802 303.522337,25.2731806 C304.418029,25.3134653 305.217723,24.7083376 305.691711,23.9900698 C306.331981,23.0232367 306.721971,21.896122 306.873682,20.7484363 C306.997964,20.1081666 307.045963,19.4567542 307.139389,18.8121989 C307.211387,18.2739266 307.43681,17.775939 307.63652,17.2770943 C307.287671,17.4682324 306.968822,17.7150834 306.598546,17.8650796 C306.172556,17.9799339 305.725996,17.9893623 305.296578,18.0896455 C304.168606,18.3287824 303.009778,18.3870666 301.860378,18.3382107 C297.442774,18.2439273 293.15031,15.7762746 290.844653,12.0083685 C291.302356,11.9089425 291.763487,11.8266588 292.226333,11.7555177 C293.002028,11.6483775 293.761437,11.4315258 294.54656,11.3955267 C293.775151,10.0695598 292.940315,8.73245024 292.634322,7.20591688" id="Fill-2-Copy-5"></path>
            <path d="M358.394165,32.0305453 C358.18417,32.5302471 357.99646,33.0625196 357.597042,33.4472814 C357.10334,34.0326954 356.371358,34.335345 355.851085,34.8924739 C355.754231,35.055327 355.79023,35.2567506 355.791944,35.4376032 C357.114482,35.4556027 358.439592,35.4530314 359.759559,35.3424627 C359.181002,34.2942031 358.726728,33.1808023 358.394165,32.0305453 M357.99646,8.13571261 C359.220858,8.26856644 362.450064,9.04768987 363.436611,9.34853951 C365.669412,9.99223774 367.861072,10.7782181 369.99959,11.687624 C371.776403,12.463319 373.553215,13.2424424 375.355742,13.958996 C376.644853,14.4535551 377.912535,15.0115411 379.115077,15.6929527 C380.587611,16.5175036 381.974434,17.4886222 383.292687,18.5403103 C384.635796,19.6168549 385.84948,20.8399672 387.102592,22.0159379 C387.580951,22.4873547 388.056568,22.9639143 388.479986,23.4859012 C388.334361,24.1441705 387.955428,24.7252989 387.501153,25.2121439 C387.104306,25.6329906 386.592604,25.9149835 386.107474,26.2192617 C385.336064,26.6511652 384.481514,26.9409579 383.602965,27.0532409 C383.071549,27.1192392 382.546991,27.2340935 382.03109,27.3746614 C380.908175,27.7063674 379.958484,28.4734911 379.246216,29.3846113 C378.812513,30.0343094 378.334239,30.6531511 377.924535,31.3191345 C377.495974,32.0194027 376.968844,32.6519584 376.512856,33.3342271 C375.955727,34.166492 375.315457,34.9370443 374.707758,35.7323673 C374.043489,36.6032884 373.196653,37.3086994 372.426101,38.0801087 C372.246962,38.2720182 372.001825,38.3912438 371.832115,38.5909531 C371.495352,39.3931331 371.376984,40.2613972 371.230416,41.1134617 C371.203845,41.3028855 371.269844,41.4888809 371.3007,41.6748762 C371.83983,41.941441 372.441529,42.0160106 373.012372,42.1917205 C373.592643,42.3305742 374.136058,42.5817108 374.669188,42.8422757 C374.81747,42.9159881 374.978608,43.0076144 375.032607,43.1765531 C375.164604,43.5391155 375.25983,43.9153918 375.366027,44.2864397 C375.508309,44.84794 375.71059,45.4102116 375.654877,45.9990541 C375.594879,46.6941796 375.625735,47.4081618 375.414883,48.0818593 C375.126033,49.2132597 374.749757,50.330089 374.22177,51.3740629 C373.477789,51.5814863 372.633524,51.4657749 372.010397,50.9952152 C371.467839,50.6206531 371.174703,49.9795263 371.063363,49.3478277 C370.991279,48.5849896 371.406212,47.9010067 371.707833,47.2315948 C371.864686,46.9040887 371.830401,46.4696138 371.574208,46.203049 C371.234787,45.93477 370.824226,45.7616315 370.402523,45.6759193 C369.870164,45.5704934 369.36712,45.349356 368.82619,45.2867862 C368.626481,45.2541298 366.925609,44.6679444 366.18857,44.4965201 C365.619356,44.3371813 364.964001,44.0953873 364.429157,43.8339652 C364.067452,43.5716004 363.74346,43.2613224 363.416982,42.9570443 C363.095562,42.6871367 363.014907,42.2542046 362.857196,41.8856424 C362.564061,41.1554606 362.563204,40.3600519 362.506634,39.5886425 C361.592942,39.3614196 360.644109,39.1549391 359.698704,39.279136 C358.911866,39.394076 358.152457,39.6512124 357.363048,39.7471243 C355.098018,40.2862537 353.356862,39.8886351 352.810875,39.5859855 C351.555278,39.0548273 351.178059,38.2412476 350.989492,37.898399 C350.824925,37.5941208 350.913209,37.2357584 350.862638,36.9084237 C350.821497,35.9337908 349.906948,33.9718397 349.468102,33.1652884 C349.128682,32.6578725 348.655551,32.2619681 348.256989,31.8051224 C347.691289,31.252279 347.317584,30.5451538 346.931022,29.8645136 C346.48189,28.8283394 346.230754,27.7217099 345.97876,26.6246801 C345.917047,26.3735435 345.954761,26.1138357 345.964189,25.8592706 C345.725909,25.8352712 345.46963,25.8515565 345.257921,25.7195598 C344.236232,25.163288 343.312255,24.4090211 342.614558,23.4747587 C342.019716,22.6536363 341.888319,21.6601468 341.944032,20.6633145 C341.973946,20.3876642 341.983803,20.2968951 342.025459,20.1011285 C342.106971,19.4034316 342.436277,18.7862184 342.71827,18.1486058 C342.95055,17.6660464 343.323398,17.2674849 343.711674,16.9066367 C343.977381,16.6589286 344.295374,16.4695048 344.637365,16.3477935 C344.878216,16.8534952 344.957071,17.4140527 345.149924,17.9377539 C345.359918,18.4897401 345.548485,19.0802968 346.000188,19.4882866 C346.38075,19.8328495 346.717599,20.3076091 347.2593,20.3908356 C347.713574,20.4739764 348.187562,20.5074041 348.637551,20.3822644 C349.735524,20.0925573 350.797497,19.6871388 351.872327,19.3245764 C352.595738,19.0065844 353.380004,18.8814446 354.135985,18.6663071 C354.933965,18.4177419 355.780801,18.467455 356.604495,18.3954568 C358.679586,18.4545981 360.736678,19.0485833 362.522919,20.1079855 C362.901767,20.3539793 363.267758,20.6188299 363.635463,20.8811091 C364.15145,21.2419572 364.586868,21.7013743 365.059141,22.1145069 C365.734553,22.6982066 366.351681,23.3599044 367.119662,23.8278927 C367.966498,24.33608 368.935045,24.7860688 369.949105,24.6370154 C370.663859,24.5590173 371.208131,24.0198879 371.621264,23.4747587 C371.97354,22.9262009 372.224677,22.3133591 372.391901,21.6842319 C372.532384,20.8845375 372.624953,20.076272 372.692665,19.2662922 C372.74495,18.7031634 372.95923,18.1751765 373.166739,17.6549038 C372.729522,17.9128974 372.328389,18.2711741 371.81583,18.3671717 C370.99985,18.5343104 370.198442,18.7768758 369.368748,18.8728734 C368.320574,18.9962989 367.261087,19.004013 366.208541,18.9320148 C362.220355,18.5814521 358.449021,16.3152229 356.271932,12.9527353 C357.030485,12.7487404 357.812179,12.6570284 358.575875,12.4813185 C359.037863,12.3741783 359.506709,12.2996088 359.978982,12.2541813 C359.157003,10.9693562 358.347023,9.63644661 357.99646,8.13571261" id="Fill-2-Copy-6"></path>
            <path d="M425.074838,34.9605125 C424.959984,35.3350746 424.893985,35.7242077 424.845129,36.1124838 C424.904271,36.487903 425.061124,36.8487511 425.27369,37.1624576 C425.39883,37.3433102 425.627681,37.3784522 425.822248,37.4435934 C425.94053,37.1633147 425.9971,36.8641793 426.064813,36.5694152 C425.580539,36.1381974 425.331117,35.5373552 425.074838,34.9605125 M423.233741,9.76285513 C425.358631,9.76285513 427.717343,10.2317006 428.679891,10.4262672 C431.287254,10.9053981 433.851762,11.6013807 436.364842,12.443074 C438.242795,13.0704869 440.141319,13.6456154 441.988416,14.362169 C444.841773,15.4772841 447.362568,17.2909531 449.638225,19.3154741 C450.276009,19.9051736 450.914479,20.4948732 451.541035,21.0965725 C452.345015,21.82684 453.164423,22.5451078 453.898119,23.3482306 C453.740409,24.1333539 453.280134,24.8293366 452.705006,25.3744658 C451.762172,26.158732 450.654771,26.7768023 449.439373,27.005568 C448.457112,27.1752781 447.443994,27.3201316 446.550959,27.7898342 C445.831749,28.1446824 445.214621,28.670955 444.647293,29.2306554 C444.297587,29.5983605 444.023222,30.0312068 443.682088,30.4074832 C443.116388,31.0460387 442.656114,31.7720206 442.057843,32.3822911 C441.577855,32.8751359 441.13558,33.4022656 440.665878,33.9045388 C440.172176,34.4402397 439.610761,34.9065138 439.099059,35.4242152 C438.241938,36.3070503 435.923682,37.7533571 435.544234,38.1087197 C435.164872,38.4640823 434.857165,39.1964068 434.618971,39.7629641 C434.44069,40.1460974 434.391748,41.4986351 434.437176,41.7584287 C435.273726,42.4114695 436.125705,43.0603105 436.836259,43.8549478 C436.980255,43.9920015 436.938256,44.2105675 436.9014,44.3837061 C436.717976,45.1226305 436.474639,46.4473117 435.870283,47.3691459 C435.534291,47.8841902 435.189728,48.3941775 434.816023,48.8818796 C433.90576,49.8572838 432.952641,50.8044888 431.882954,51.6049545 C431.664388,51.815035 431.364395,51.6349538 431.134687,51.5432418 C430.414705,51.2389637 429.874718,50.5678376 429.713579,49.8067137 C429.656152,49.2358708 429.700722,48.6127435 430.030714,48.1250413 C430.463561,47.5259991 431.096116,47.1239234 431.68153,46.6910771 C432.034664,46.4382263 432.296086,46.0525216 432.379227,45.624818 C432.103234,44.7437828 431.318196,44.2838514 430.524673,43.8399482 C429.772892,43.4191873 428.060192,42.4697538 427.473921,42.1621329 C427.258783,42.0574784 427.059074,41.9160533 426.828508,41.8449122 C426.343378,41.8971966 425.880532,42.0823349 425.390258,42.1029058 C424.815987,42.1800467 423.38648,42.1770468 422.047485,41.6674881 C421.511784,41.4557791 421.093508,41.0255041 420.768659,40.5618871 C420.545808,40.1898106 420.718946,39.7227651 420.522666,39.3429746 C420.406097,39.1252658 420.248387,38.9341277 420.11039,38.7301328 C419.647545,38.0238647 417.027667,36.6825552 415.740785,36.3276212 C415.281968,36.2011101 415.023374,36.1887676 414.787666,35.9067746 C414.366819,35.4696426 413.559154,34.5132665 412.997139,33.5831183 C412.449438,32.4842885 412.010592,31.7865059 411.620602,30.6233921 C411.42655,30.041578 411.552032,29.6095031 411.550318,29.3275101 C411.300038,29.3053106 411.021474,29.3370241 410.806336,29.1809423 C409.663794,28.4438178 408.574392,27.5789823 407.772984,26.4690099 C406.808722,25.029903 406.828436,23.103951 407.491848,21.5474184 C408.024549,20.3020209 409.040666,19.237476 409.735792,18.9949106 C410.010928,19.8134616 410.124068,20.6774401 410.41806,21.4917055 C410.58777,22.1988307 411.1329,22.715675 411.633459,23.2068056 C411.912023,23.4810845 412.339727,23.4570851 412.696289,23.3962294 C413.189134,23.3250884 413.564553,22.9728114 413.9854,22.7388173 C415.165656,22.0539772 416.231058,21.191713 417.407886,20.5034444 C417.857875,20.232594 418.283864,19.9103164 418.78528,19.7388921 C419.462406,19.4971838 420.117247,19.1654778 420.836372,19.0669088 C421.464642,18.9760539 422.089484,18.8260577 422.728039,18.8517713 C423.413736,18.8629139 424.108005,18.8286291 424.785131,18.9674827 C425.390258,19.0857655 426.012529,19.1543352 426.588514,19.3909007 C427.344495,19.6968931 428.130476,19.9566009 428.800745,20.4348747 C429.855861,21.0451452 430.810695,21.8079833 431.841812,22.4568243 C432.339799,22.7885303 432.908071,22.9882396 433.436058,23.265947 C433.99833,23.555654 434.624028,23.682508 435.241156,23.7913624 C435.948281,23.9285019 436.615979,23.5247977 437.131109,23.0833801 C437.515956,22.6291057 437.77995,22.0762624 437.979745,21.5182763 C438.121084,20.7880088 438.187939,20.0440273 438.253938,19.3034744 C438.293365,18.7412027 438.493075,18.2106445 438.678213,17.6843719 C438.189654,18.016935 437.71738,18.39064 437.146537,18.5732069 C435.01659,19.4851841 432.640735,19.8074618 430.344421,19.5177547 C426.991361,19.0686231 423.808012,17.276382 421.77492,14.5610212 C422.5849,14.2953135 423.415451,14.1058897 424.233144,13.8676099 C424.619706,13.7536128 425.015696,13.6739005 425.411687,13.5967595 C424.52628,12.4207888 423.684587,11.1771056 423.233741,9.76285513" id="Fill-2-Copy-7"></path>
            <path d="M502.358249,19.076906 C500.155446,20.2168776 497.596939,20.6308673 495.142229,20.3034469 C495.77727,20.7225793 496.481052,21.0251432 497.121236,21.4357044 C497.484742,21.66627 497.883217,21.8291231 498.280065,21.9911191 C498.68034,22.1471152 499.042903,22.3845378 499.438893,22.5525336 C499.814312,22.7196723 500.218016,22.8053845 500.603721,22.9416668 C500.99114,23.0659494 501.404272,23.1928034 501.812262,23.0933773 C502.161968,23.0059509 502.507388,22.8910966 502.823751,22.717101 C503.083373,22.5825329 503.23337,22.3193966 503.400508,22.0914023 C503.585647,21.8076951 503.780213,21.5231307 503.897639,21.2025673 C504.027064,20.5237271 504.099148,19.8346014 504.169346,19.14719 C504.218202,18.6166318 504.387998,18.1092159 504.544766,17.6026571 C503.847069,18.138358 503.142515,18.6740589 502.358249,19.076906 M488.808872,11.830801 C489.846846,11.6576625 490.907963,11.6010925 491.961365,11.6293775 C494.909006,11.6216634 497.856647,11.8865139 500.755431,12.4205006 C504.06392,13.0616275 507.468407,13.6993259 510.406619,15.4367111 C511.901439,16.2912612 513.267691,17.3506634 514.564516,18.4777781 C515.746486,19.4943242 516.823031,20.6257246 518.017001,21.6285567 C518.494418,22.0648315 518.986405,22.4839639 519.449251,22.935667 C519.524678,23.0222362 519.66096,23.1156625 519.600962,23.2510877 C519.427052,24.0687816 518.92735,24.7947634 518.308422,25.3433212 C517.690438,25.8001669 517.071596,26.2810121 516.341414,26.5467198 C515.401066,26.959938 514.357949,26.9881373 513.382545,27.2795586 C512.073806,27.6215501 510.938892,28.4281871 509.982344,29.3606496 C509.42693,30.0318614 508.794374,30.6309036 508.217531,31.2815445 C507.915824,31.6363071 507.594404,31.9757272 507.236127,32.2740912 C506.473289,32.9091325 505.790163,33.6359715 504.988754,34.2240426 C504.293629,34.72803 503.63116,35.2756449 502.919663,35.7573472 C502.046256,36.2964766 501.136851,36.7730362 500.244587,37.279595 C500.019164,37.414163 499.757742,37.4673903 499.528034,37.5882444 C499.1689,37.914722 498.980333,38.3707963 498.743767,38.7838432 C498.575772,39.088207 498.39929,39.3898281 498.289493,39.7215341 C499.738114,39.8072462 501.311703,39.9786705 502.461103,40.9549319 C503.32431,41.677571 503.486221,42.9271684 503.206799,43.9642854 C501.513213,43.8605737 499.821169,43.5340104 498.119783,43.6831496 C498.22178,44.130567 498.534715,44.4982721 498.633199,44.9465466 C498.643484,45.1917691 498.449003,45.3682504 498.322064,45.5551029 C497.943216,46.0600331 497.554083,46.5563065 497.154664,47.04478 C496.712389,47.637051 496.067063,48.0227556 495.493563,48.4727444 C494.801866,49.0144452 494.0176,49.4130924 493.243619,49.8209965 C492.46021,50.1895587 491.681943,50.5855489 490.847107,50.8239143 C489.917987,50.3807825 489.352287,49.2724388 489.540854,48.2550356 C489.688279,47.709992 489.946272,47.1604914 490.415118,46.8193571 C491.151385,46.2519426 492.09679,46.0883182 492.878485,45.6023303 C493.403043,45.2722528 493.844461,44.6971243 493.747606,44.0448548 C493.075623,44.0217125 492.504009,43.921515 491.749656,43.7800043 C490.807251,43.5305819 490.321692,43.2674456 489.85456,42.6734605 C489.718278,42.4934649 489.576853,42.3074696 489.499712,42.0931892 C489.457713,41.7564262 489.563996,41.423863 489.565711,41.0877857 C489.515997,40.8340778 489.282003,40.6781674 489.124293,40.490372 C488.670019,39.9700993 487.922609,39.9778991 487.296053,39.8527594 C485.948658,39.5963943 484.709946,39.7088487 483.348837,39.7322481 C482.970504,39.7389336 482.549314,39.8561879 482.29732,39.5990514 C481.083979,38.7555582 479.983949,37.1715977 479.737956,36.7653221 C479.107971,35.5842087 478.591984,34.3473824 478.094854,33.1063562 C477.991999,32.8019923 477.994571,32.4746576 477.968,32.157437 C476.055676,31.7932461 474.819364,30.3081117 473.906101,29.1353123 C473.175834,28.1581081 472.96241,26.8972824 473.053265,25.7033122 C473.080693,24.9533309 473.540624,23.3975697 474.170952,22.5156774 C474.547228,22.0511176 474.934647,21.546273 475.541489,21.3808486 C475.752341,22.3391104 476.028334,23.281944 476.326612,24.2162064 C476.468894,24.7047657 476.847742,25.0690423 477.186305,25.4298905 C477.418585,25.6475993 477.638008,25.9433062 477.985999,25.9587344 C478.321134,25.9501632 478.669982,25.8670224 478.939118,25.6587419 C479.147399,25.4967459 479.322252,25.2987509 479.51939,25.1256123 C480.679075,24.177636 481.669907,23.0479499 482.728452,21.9928333 C483.23844,21.4031337 483.912137,21.0011438 484.530979,20.5391553 C484.960397,20.2203061 485.46267,20.0300251 485.949515,19.8200304 C486.794637,19.4188975 487.727185,19.2663299 488.633162,19.0649063 C489.397715,18.9843369 490.168267,18.9277669 490.937962,18.9534805 C489.764563,18.350067 488.692304,17.5478013 487.777755,16.5972536 C488.927155,16.1001231 490.084269,15.6098496 491.282525,15.2447159 C491.225098,15.1444327 491.154814,15.0535778 491.07253,14.9738655 C490.157981,14.0541741 489.402857,12.9827723 488.808872,11.830801" id="Fill-2-Copy-8"></path>
            <path d="M559.541648,41.3515991 C559.490221,42.0330107 559.482507,42.7247935 559.602504,43.3992624 C559.83307,43.2252667 560.033636,43.0101292 560.182775,42.7624211 C560.234203,42.6749947 560.26763,42.5687116 560.228203,42.4710855 C560.090206,42.0501531 559.842498,41.6738768 559.541648,41.3515991 M556.672006,10.9983561 C561.879876,10.3323727 567.230885,10.7532193 572.258846,12.2737528 C573.851292,12.7657406 575.399253,13.4240099 576.817789,14.3051307 C578.237268,15.1579666 579.54095,16.1882266 580.784547,17.277628 C582.014517,18.3601725 583.134774,19.5601426 584.379315,20.6255446 C584.840446,21.0832474 585.355576,21.489523 585.772137,21.9883677 C585.792708,22.2952172 585.641855,22.5909241 585.521001,22.8677744 C585.207294,23.436903 584.807876,23.9811752 584.262746,24.3480232 C583.883899,24.6000169 583.52905,24.8897239 583.12286,25.0971473 C582.470505,25.4305676 581.765094,25.6602761 581.041684,25.7717019 C580.007138,25.9319837 578.96145,26.1702634 578.05033,26.7059644 C577.198351,27.2202372 576.390085,27.8416503 575.769615,28.6267736 C575.279256,29.1633316 574.762497,29.6758903 574.285852,30.2261623 C573.728723,30.8981455 573.019884,31.416704 572.388185,32.0142034 C571.861056,32.5215336 571.298784,32.9920933 570.697085,33.4077972 C570.074814,33.8432149 569.487772,34.3300599 568.837131,34.7243358 C568.112006,35.0937552 567.371453,35.4331753 566.6309,35.7708812 C566.25291,35.9431626 565.886062,36.1488717 565.478929,36.2448693 C565.182365,36.3014394 564.99037,36.5560044 564.777032,36.7471425 C564.38867,37.1911315 563.102217,38.584811 562.879279,38.8770894 C562.756711,39.0382282 562.624714,39.1907959 562.475575,39.3270782 C562.49786,39.3776484 562.541574,39.4770744 562.563859,39.5276446 C563.111045,39.553444 564.464097,40.7096151 565.013512,41.4510252 C565.052168,41.6001644 564.99037,41.7467321 564.935514,41.8838716 C564.631236,42.6252817 564.490496,43.2550088 563.966967,44.0841024 C563.52932,44.8525118 562.211582,46.1643363 561.450458,46.6554669 C561.717023,46.93146 562.0573,47.1268837 562.431005,47.2177386 C563.003562,47.4603897 563.618118,47.5768725 564.231817,47.6634417 C564.957799,47.7765818 565.625497,48.2505699 565.934146,48.9234103 C566.175769,49.4539685 566.294051,50.0376682 566.328336,50.6179395 C565.530442,50.7388793 564.714634,51.1682115 562.094156,51.122784 C560.57388,51.019758 559.161087,49.972527 558.575673,49.6828199 C557.981687,49.309115 557.416844,48.8891255 556.80486,48.5411341 C555.973452,48.0508606 555.278155,47.38882 554.755482,46.5638406 C554.232809,45.7387754 553.889789,44.8186555 554.294351,43.928192 C554.53863,43.7309684 554.846337,43.6178283 555.049475,43.3666917 C554.917564,43.0961842 554.464061,42.5824256 554.240352,42.4547145 C552.896386,41.6558773 551.494135,40.9376095 550.012172,40.4276222 C549.314475,40.193628 548.362642,40.0658312 547.693658,39.4856457 C547.171671,38.9482305 546.17801,37.7678028 545.681137,36.7659992 C545.160864,35.5883143 544.790588,34.3532022 544.34317,33.1480894 C544.190603,32.7863842 544.200031,32.3895369 544.205174,32.0046894 C543.913752,31.9995466 543.591475,32.0269745 543.351481,31.8281223 C542.180653,31.0275709 541.02611,30.153307 540.170703,29.0073355 C539.211584,27.6127989 539.04736,25.6883897 539.586489,24.1232859 C539.743342,23.6518691 539.976136,22.7595199 541.20782,21.7483737 C541.386958,21.6249482 541.590096,21.5443788 541.78552,21.4509525 C542.018657,22.364644 542.301507,23.2646216 542.621213,24.1508852 C542.822637,24.7997262 543.423479,25.1845737 543.903467,25.6174201 C544.176032,25.8754136 544.577164,25.8642711 544.923442,25.8085582 C545.448,25.7408456 545.870561,25.3988541 546.323978,25.1571458 C546.935106,24.8417251 547.504234,24.4543062 548.070792,24.0660302 C549.220192,23.3254772 550.103027,22.2463613 551.260998,21.5169509 C551.960409,20.9512507 552.802102,20.6229732 553.63351,20.3058382 C554.898621,19.9175622 556.192018,19.5798564 557.517985,19.5052868 C558.220824,19.5404288 558.927092,19.5729994 559.622218,19.683568 C560.321629,19.8909914 561.051039,20.0127027 561.714451,20.3264092 C562.317865,20.6152591 562.950421,20.8381107 563.545263,21.1466744 C564.063821,21.4132392 564.646664,21.5083797 565.181508,21.7346598 C565.586069,21.9017984 566.011201,22.0175098 566.444991,22.0775084 C566.920607,22.1512208 567.411738,22.35693 567.89344,22.2000767 C568.231146,22.0800797 568.544938,21.8966557 568.831131,21.6832325 C569.201408,21.4123821 569.413974,20.9941068 569.635111,20.6041165 C570.096242,19.8275645 570.172526,18.9078731 570.34995,18.039609 C570.452805,17.4387669 570.619086,16.8516387 570.817082,16.275653 C570.088528,16.7882117 569.393403,17.354769 568.607422,17.7773299 C566.668614,18.8410176 564.436669,19.3552905 562.228724,19.2721497 C559.297369,19.1838662 556.409727,18.0301807 554.226638,16.0716581 C555.340896,15.4656732 556.495439,14.9316865 557.673981,14.4611269 C556.618007,13.551721 555.677745,12.4983187 554.960334,11.3000628 C555.526034,11.1766373 556.100306,11.0917823 556.672006,10.9983561" id="Fill-2-Copy-9"></path>
            <path d="M621.263955,10.1945889 C623.762465,9.40689429 626.368114,8.97490506 628.983277,8.86005078 C633.099089,8.68434088 637.290413,9.35889548 641.038605,11.1074233 C643.870535,12.4839604 646.363044,14.4716251 648.594988,16.6744273 C649.642391,17.7415436 650.749792,18.7478042 651.772338,19.839777 C651.881192,19.9726308 652.022617,20.0926278 652.079273,20.2589094 C651.819479,21.2600273 651.11064,22.1197201 650.220948,22.633993 C649.390397,23.2228355 648.419278,23.6059688 647.413018,23.755965 C646.499326,23.8776763 645.565921,24.0216727 644.731942,24.4356624 C643.901391,24.8367952 643.178838,25.4393516 642.564281,26.1224774 C642.048294,26.8021748 641.471452,27.4330162 640.964893,28.1204276 C640.427478,28.8601235 639.752066,29.4815365 639.163223,30.1775192 C638.638665,30.7937895 638.053251,31.354347 637.44898,31.8917621 C637.006706,32.2766097 636.611658,32.7188844 636.125585,33.0514475 C634.757019,34.0370515 633.973439,34.0830789 632.926036,34.8222605 C632.548817,35.1548236 632.199111,35.5199574 631.892262,35.919376 C632.600244,35.9793745 633.215657,36.3547937 633.850784,36.6385009 C634.020494,36.7293558 634.273345,36.829639 634.265631,37.060119 C634.284488,37.8590419 634.263917,38.6587362 634.236489,39.4575735 C634.233146,39.7412807 634.078693,40.7581696 633.094032,42.0229381 C632.218911,43.1062539 631.324847,44.1897412 630.26716,45.1025756 C629.504321,45.0022923 628.769768,44.5985881 628.362636,43.9326047 C627.970931,43.3754758 627.951303,42.6417798 628.121784,42.0023672 C628.294923,41.4666662 628.768997,41.1143893 629.177758,40.7612552 C629.453751,40.5015474 630.264074,40.1472991 630.503725,39.644426 C630.306587,39.5895702 630.11802,39.5047152 629.91574,39.4747159 C629.605462,39.468716 629.303755,39.6109982 628.99262,39.5569996 C627.574341,39.4798586 625.854698,38.4410274 625.146716,37.9780961 C624.998434,37.8787557 624.841581,37.7930436 624.673585,37.7313308 C624.470447,39.0152988 623.846462,40.1784126 623.169337,41.2703854 C622.76049,41.9809391 622.207646,42.5894954 621.690802,43.2203368 C620.86368,44.1347997 619.728851,44.7511557 619.052582,45.8037009 C618.953156,45.9545543 618.895729,46.2511183 619.128866,46.3085455 C619.466572,46.4165428 619.814563,46.4936837 620.162554,46.5605392 C621.53652,46.665108 622.944771,46.8219612 624.21331,47.3962326 C624.930721,47.7132819 625.576991,48.2893532 625.818699,49.0530485 C626.013266,49.6376053 625.980695,50.2710181 625.890697,50.8718603 C625.518706,50.9104307 625.147573,50.8530036 624.777296,50.8307184 C623.83532,50.771577 622.896772,50.679865 621.95651,50.6035812 C618.459111,50.3067601 616.062085,49.5656071 615.317247,49.0101924 C614.757546,48.5430612 614.148133,48.1162147 613.731572,47.5068013 C613.296154,47.0233848 613.10073,46.3505444 613.191585,45.7094176 C613.343296,45.1514315 613.777856,44.7425845 614.087277,44.2720248 C614.353842,43.8528067 614.647835,43.4509025 614.892971,43.0189132 C615.178393,42.5217828 615.511813,42.0383663 615.660095,41.4777231 C615.751807,40.8991661 615.611239,40.2314685 615.132965,39.8518494 C614.609264,39.4335741 614.010993,39.1241532 613.420437,38.8130181 C612.832709,38.5821953 611.879932,37.413253 611.4662,36.5039328 C611.062838,35.6174121 610.576508,34.4482127 610.398226,32.8739376 C610.290229,32.5292891 610.346799,31.8660485 610.36737,31.5136859 C610.075092,31.5052004 609.7511,31.5282569 609.509391,31.3303476 C608.435418,30.755819 607.789663,30.6116512 606.593464,28.7615545 C605.643774,27.4193022 605.558919,25.6056332 606.079191,24.0816712 C606.504152,22.976413 607.4643,21.6285895 608.209995,21.4460226 C608.471417,22.3579999 608.75941,23.2665487 609.1614,24.1279558 C609.32511,24.4905181 609.660245,24.7245123 609.954237,24.9747918 C610.282515,25.2344996 610.615078,25.5722055 611.069353,25.5464918 C611.64191,25.6022047 612.182753,25.3844958 612.676455,25.1205024 C613.540434,24.7373691 614.342699,24.2325246 615.133823,23.7182517 C615.921517,23.1396947 616.620928,22.4471405 617.439479,21.9097254 C617.88604,21.6080186 618.315458,21.2677414 618.822016,21.0680321 C620.063128,20.496332 621.385667,20.1191986 622.716776,19.8209203 C623.559327,19.6049257 624.437019,19.6546387 625.298426,19.6349249 C626.19669,19.7180657 627.104381,19.7943495 627.970931,20.0617714 C628.654914,20.2074821 629.32004,20.4363335 630.009166,20.5511878 C630.784004,20.6060436 631.545985,20.8426091 632.328537,20.7663253 C632.939664,20.736326 633.621076,20.8408949 634.141349,20.4380478 C635.100468,19.8586336 635.649882,18.8395162 636.067301,17.8366841 C636.486433,16.6238572 636.781283,15.3716027 637.220129,14.1647756 C636.910708,14.3704848 636.60823,14.5873365 636.302152,14.7990455 C634.599051,16.1738684 632.496532,17.0164188 630.339158,17.3335538 C627.432659,17.7526862 624.389878,17.1398443 621.874226,15.6253106 C621.539949,15.4213157 621.202243,15.2181779 620.905679,14.9618986 C621.959938,14.2539163 623.067339,13.6282176 624.195311,13.0462321 C623.166765,12.3219644 622.238503,11.457986 621.43538,10.4894387 C621.358239,10.4037266 621.30424,10.3017291 621.263955,10.1945889" id="Fill-2-Copy-10"></path>
            <path d="M693.969433,7.21075013 C696.728421,6.85761608 699.551865,6.87133002 702.281711,7.43788732 C704.188807,7.8441629 706.047989,8.49471811 707.775946,9.39983839 C710.613789,10.9443713 713.165526,12.988606 715.403384,15.3122624 C716.411445,16.3999495 717.499903,17.4250668 718.364825,18.6353224 C718.177886,19.1633092 717.908836,19.6655824 717.517903,20.071858 C717.056,20.608416 716.420016,20.9444076 715.800231,21.2649711 C715.084621,21.59582 714.31664,21.8298141 713.528859,21.9009552 C712.655538,21.9806675 711.753761,22.0432374 710.945581,22.4126567 C709.979605,22.8352176 709.203824,23.6143411 708.663838,24.5074616 C708.114423,25.2874422 707.679005,26.1385638 707.145876,26.9288298 C706.63426,27.7079533 706.197985,28.5359326 705.647713,29.2893424 C705.285922,29.7847586 704.984301,30.3264594 704.575368,30.7850194 C703.850244,31.4904304 703.144918,32.2198407 702.358081,32.8558249 C702.233798,32.9955357 702.189142,33.1858167 702.10523,33.3495269 C703.319257,32.9945929 704.188035,33.1515318 704.662023,33.1918165 C705.417147,33.3477269 706.037875,34.6643512 706.115701,35.4049042 C706.193442,36.1454571 706.218127,36.7810984 705.972562,38.0010394 C705.726911,39.2211519 704.980015,40.5064912 704.304604,41.6721765 C703.494624,41.8427436 702.599703,41.6421772 701.993804,41.0652487 C701.55153,40.6959151 701.361163,40.1130725 701.287536,39.5602291 C701.20431,38.9156738 701.626271,38.1968917 702.004947,37.9008419 C702.285483,37.6614479 702.759214,37.5502792 702.762642,37.1088617 C702.239712,37.1345753 701.30305,38.1410074 700.596611,38.5488258 C699.890257,38.9566442 698.671516,38.8531039 697.946391,38.6748226 C697.28135,38.5231121 695.303543,38.2788325 694.211055,37.1088617 C693.686154,36.3836512 693.640213,36.0871729 693.486874,35.5231869 C693.277736,34.8082619 693.102883,34.0720803 693.094312,33.3246703 C692.416329,32.7821124 691.940626,32.0038461 691.794916,31.1458675 C691.678347,30.47217 692.039967,29.9944105 691.919113,29.3190845 C691.889971,29.2976565 690.554747,30.2919174 689.936676,32.6749723 C689.848307,33.1181041 689.737824,33.5800925 689.845821,34.0300813 C690.003446,34.7766341 690.147528,35.5429007 690.062588,36.3091673 C689.995818,36.8971527 689.953733,37.498852 689.739453,38.056838 C689.462602,38.797391 689.180695,39.5542293 688.686993,40.1824993 C688.087865,41.0799055 687.305313,41.8290297 686.526961,42.5678684 C685.964775,43.0384281 685.361362,43.4584176 684.767377,43.8869784 C683.984825,44.3318244 683.167131,44.7141006 682.338294,45.0646633 C681.908019,45.3115143 681.458031,45.5360801 681.065469,45.8412154 C681.764023,45.9003567 682.460777,45.9929259 683.146474,46.1386365 C684.308817,46.5191984 685.496701,46.9769013 686.391622,47.8408798 C687.073033,48.4528645 687.619791,49.331414 687.529022,50.2802475 C687.481023,50.8330909 687.299314,51.4116479 686.943608,51.8402086 C686.618759,51.8367801 686.339252,51.6422135 686.048773,51.5213594 C684.571953,50.8262339 683.076019,50.0803668 681.477744,49.7394039 C679.879384,49.3983552 677.948118,48.7699995 677.263278,48.2240131 C676.623008,47.6325992 676.002452,47.0086148 675.530178,46.2706332 C675.252471,45.8069305 675.062962,45.203517 675.278956,44.6806729 C675.653604,44.0232607 676.300731,43.5921286 676.807289,43.0461422 C677.273478,42.6261527 677.755266,42.2233056 678.204398,41.7844594 C678.815525,41.2581011 679.453224,40.7250572 679.856071,40.0136464 C679.952925,39.7385104 680.057408,39.439375 680.030923,39.1462394 C679.63579,38.458828 678.186141,38.1644925 677.23585,36.2491688 C676.474298,34.7227212 676.31213,32.8667103 676.554439,31.2015804 C676.263874,31.1861522 675.945882,31.2015804 675.70246,31.0154994 C674.259753,30.3401733 673.695939,29.5850493 672.990528,28.5805029 C672.225975,27.4285317 672.068179,25.9371403 672.422256,24.615459 C672.954357,23.0039849 673.782422,22.0278092 674.633629,21.6678182 C675.000392,22.5789383 675.590777,24.442749 677.083283,25.3491549 C677.522986,25.5694352 678.049259,25.5745779 678.524961,25.4931514 C679.628848,25.1665881 680.617194,24.545175 681.528315,23.8551922 C682.165156,23.3212055 682.753141,22.7280774 683.431124,22.2438038 C684.526526,21.355826 685.845636,20.8106967 687.145889,20.298138 C687.929298,20.0247163 688.71605,19.7324379 689.5466,19.6407259 C690.922366,19.3904464 692.333188,19.4315882 693.719153,19.5721561 C694.436478,19.5978698 697.984361,19.8847484 699.91777,18.9310293 C701.082598,18.1416204 701.817237,16.8867945 702.357138,15.6173976 C702.809784,14.4859973 703.207403,13.3331689 703.649677,12.1974829 C703.346256,12.4134775 703.033493,12.614044 702.726643,12.8231816 C701.077541,14.209147 699.040078,15.0996963 696.931645,15.499972 C693.69944,16.0948143 690.252097,15.4271167 687.486166,13.6503038 C688.498341,12.8677519 689.575828,12.1717693 690.676372,11.5203569 C689.519258,10.7875181 688.451285,9.90554007 687.542736,8.87870853 C689.598113,8.03358675 691.774345,7.52531371 693.969433,7.21075013" id="Fill-2-Copy-11"></path>
            <path d="M756.83316,5.72489523 C759.31367,5.01691288 761.890177,4.61749427 764.473541,4.65092201 C768.255161,4.63635094 772.023924,5.74718039 775.214988,7.77255845 C777.894349,9.47137323 780.331146,11.5498928 782.430236,13.9284049 C783.205074,14.8000975 783.991912,15.6683615 784.652752,16.6326232 C784.466757,17.1983234 784.153051,17.7211675 783.73049,18.1420141 C783.255644,18.6434302 782.634231,18.9717077 782.008533,19.2451295 C781.150554,19.5879781 780.23172,19.7962586 779.305171,19.7859732 C778.44805,19.8176866 777.561786,19.8348291 776.763806,20.1879631 C776.044681,20.4939555 775.459267,21.0699411 775.079563,21.7470671 C774.192442,23.2547438 773.594171,24.907274 772.902474,26.5083769 C772.534769,27.5061521 771.835358,28.328903 771.309942,29.2408802 C771.351084,29.6582984 771.373369,30.0775165 771.412797,30.494849 C772.291946,30.7403285 773.628456,29.972862 774.429093,29.8349511 C775.004993,29.7157255 776.378702,29.7838667 777.024371,30.3920801 C777.74761,30.9458663 778.675273,32.350517 778.825269,33.1279262 C778.975265,33.9053353 779.03175,34.6973156 779.072892,35.4867245 C779.078977,35.9882263 779.109748,36.4955565 779.020607,36.9926869 C778.495192,37.3303928 777.879778,37.573901 777.245509,37.508674 C776.408101,37.4667608 775.655548,36.9062034 775.286215,36.1689932 C775.078791,35.612807 775.152418,34.991394 775.323842,34.4350364 C775.397555,34.2525552 775.240701,34.100759 775.166989,33.9499057 C774.747857,33.9379917 774.313296,34.0141898 773.971304,34.2705548 C773.525601,34.6073178 771.723075,35.5441516 771.303085,35.7327183 C770.578903,36.0507104 768.152735,36.6458099 766.666058,36.1081375 C765.179381,35.570551 764.33383,34.7675995 763.456995,33.762196 C763.39014,33.6747697 763.297571,33.6156283 763.185288,33.6131426 C762.026459,33.4690605 760.975714,32.8134483 760.195648,31.9648123 C759.605091,31.1505469 759.149103,30.2402839 758.495976,29.4706745 C758.380265,29.2863077 758.219983,29.1397399 758.034845,29.0291712 C758.014274,29.1028837 757.458002,29.712297 757.275435,29.9977185 C756.916301,30.7117007 756.407171,31.3383422 756.068608,32.063467 C755.8269,32.576797 755.654618,33.1244977 755.547478,33.6816266 C755.560335,34.6553166 755.552621,35.6556631 755.194344,36.5778401 C754.884923,37.6835268 754.230082,38.6477885 753.530671,39.5426233 C752.475812,40.6552527 750.277038,42.0214187 749.531342,42.3145542 C748.979356,42.5365487 746.898265,43.2102462 746.41142,43.3336716 C745.759151,43.5085244 743.687488,43.8530873 743.346354,44.013369 C743.733773,44.1316517 744.158905,44.161651 744.501754,44.3983022 C745.4877,45.1310554 746.221139,46.038747 746.539131,46.5667339 C746.777411,47.0202369 747.003691,47.484711 747.169973,47.9699275 C747.364539,48.860391 747.531678,49.8195956 747.210258,50.702345 C746.941121,51.5397527 746.160284,52.1165955 745.337447,52.3454469 C745.240592,52.3558181 745.143738,52.3626751 745.046883,52.3661035 C744.513753,51.3272723 744.197475,50.1957862 743.697774,49.1423839 C743.477493,48.5844836 743.139788,48.0692678 742.682085,47.6809918 C742.124099,47.3475715 741.526685,47.0792925 740.991841,46.7073018 C740.327572,46.2556845 739.527021,45.9951196 738.987891,45.3719065 C738.673328,44.9665738 738.358764,44.5594411 738.096485,44.1170807 C737.762207,43.6234644 737.422787,43.1048202 737.331932,42.5031209 C737.319933,42.2331277 737.322504,41.920364 737.535927,41.7222833 C738.042486,41.2251528 738.68447,40.9045894 739.298169,40.5626836 C739.867298,40.18975 740.510139,39.956613 741.105838,39.631764 C741.815535,39.2332025 744.545467,37.5379019 744.927743,37.4204762 C744.829174,36.7586928 744.041394,36.7453217 743.614633,36.372131 C743.187872,35.999026 742.628,34.8860537 742.574002,33.8755932 C742.468576,33.0451282 742.611115,31.7187327 742.650371,31.2809151 C742.689627,30.842926 742.745512,30.6285599 742.849223,30.3174248 C742.554374,30.2994253 742.238953,30.2968539 741.992102,30.1108585 C740.921471,29.6435559 740.246145,28.8844034 739.635875,28.0126251 C738.914179,26.9755081 738.715326,25.6272561 738.976749,24.4041437 C738.992177,24.2138627 739.462736,23.1921739 739.675303,22.8493253 C740.038722,22.2664827 740.516139,21.7247819 741.15298,21.4350749 C741.671538,22.4130505 742.068386,23.5435937 743.006077,24.2121485 C743.40121,24.4872845 743.783486,24.8241332 744.268617,24.9235593 C744.704891,25.0169856 745.16688,25.0709842 745.604869,24.9535586 C746.291423,24.7649918 746.959121,24.4701421 747.507679,24.0090107 C747.977381,23.686733 748.3828,23.284743 748.795075,22.8938956 C750.41332,21.4410747 752.314416,20.3045316 754.353508,19.5528361 C755.19863,19.2965568 756.046323,19.0171352 756.931729,18.9434227 C758.364836,18.7179998 759.826229,18.7205711 761.255907,18.4754344 C762.080458,18.2362975 762.953008,18.2020127 763.759559,17.8960203 C764.484684,17.6294555 765.253522,17.4048897 765.859507,16.9034736 C767.209473,15.8243577 768.134307,14.3132525 768.846575,12.7601484 C769.272564,11.8233146 769.705411,10.8890522 770.06283,9.92307625 C769.581985,10.217926 769.090855,10.5016333 768.670865,10.8813381 C766.60006,12.425871 764.052695,13.3164202 761.474473,13.4329887 C758.891109,13.5435574 756.264032,12.919573 754.04323,11.5833206 C755.023777,10.7613411 756.083179,10.0379305 757.157152,9.34366213 C755.982896,8.63482266 754.895209,7.77598694 753.946375,6.78601162 C754.888352,6.37973604 755.836328,5.97774607 756.83316,5.72489523" id="Fill-2-Copy-12"></path>
            <path d="M827.89346,2.96827865 C830.055892,2.72742752 832.256123,2.69914251 834.405784,3.07456172 C837.462364,3.59483446 840.348293,4.91908715 842.853659,6.7284706 C844.459819,7.86758505 845.981209,9.12926787 847.370603,10.5246616 C848.376864,11.5506361 849.33084,12.6280378 850.238532,13.7422957 C850.574523,14.1794276 850.944028,14.5942744 851.237164,15.063977 C850.913086,16.1242363 850.094621,16.9882147 849.101217,17.4596316 C848.040958,17.985047 846.846045,18.2207554 845.665874,18.1804707 C844.608186,18.1778994 843.456129,18.0990442 842.518524,18.6810297 C841.7496,19.1438753 841.352753,19.9889971 841.031333,20.7904056 C840.412577,22.3477954 840.236867,24.0277535 839.746593,25.6219994 C839.641167,25.8397083 839.869933,25.9922759 840.018301,26.1071302 C840.510203,26.4011229 841.058846,26.6394026 841.641603,26.6531166 C843.52727,26.8493974 845.459222,26.8408262 847.286691,27.4065264 C848.670856,27.8333729 849.978909,28.5704973 850.962799,29.6461848 C851.581641,30.3155967 852.103714,31.072435 852.523617,31.8815576 C852.60513,31.9911835 852.495332,32.1138376 852.456848,32.2175493 C852.143998,32.822677 851.589441,33.3138076 850.924229,33.4869462 C850.151962,33.6839984 849.30864,33.5125741 848.652,33.0686709 C848.155726,32.7455361 847.861819,32.1935498 847.347547,31.8909003 C846.392713,31.2995721 845.202086,31.2806298 844.132484,31.5051956 C843.366989,31.5969933 842.670149,31.9389848 841.939024,32.1575507 C840.55143,32.6898232 839.095095,33.0798135 837.606275,33.1629542 C836.255537,33.2280955 834.892629,32.9768732 833.656659,32.427544 C833.399523,32.4472578 833.153529,32.5337414 832.898964,32.5655406 C831.861933,32.7078227 830.800816,32.5389698 829.821984,32.1840358 C829.32391,32.0049831 828.894578,31.6887053 828.439361,31.4281404 C827.949087,31.1581471 827.522327,30.7930133 827.042253,30.5075919 C826.382269,30.1296013 825.756571,29.6633272 825.005818,29.4816175 C824.203895,29.4080765 823.397001,30.5657904 822.925584,31.0578639 C822.327313,31.6972765 821.832754,32.4335439 821.492477,33.2418094 C821.231912,34.1588437 821.134972,35.1403335 820.66964,35.9888838 C820.358505,36.5785834 820.050799,37.1801969 819.59901,37.6782702 C819.113108,38.2173996 818.659691,38.8062421 818.042563,39.2048036 C817.47172,39.588794 816.905163,39.9959267 816.257179,40.2436348 C815.465199,40.555627 814.688561,40.922475 813.851153,41.0980992 C812.919548,41.29618 811.998142,41.5747445 811.038166,41.5918869 C809.835625,41.7427403 808.597084,41.6081722 807.422742,41.9647348 C807.285688,42.0067337 807.063351,42.0471041 807.04218,42.1601585 C807.018181,42.2889838 806.992467,42.6135757 807.089408,42.8226276 C807.383315,43.5289815 807.889959,44.0602254 807.889959,44.9749454 C807.889959,45.8896654 807.807675,47.6010799 807.218833,48.7737078 C806.896555,49.5322603 806.381425,50.2505281 805.631444,50.6319472 C804.885748,50.9798528 804.024341,50.9070832 803.255503,50.6782317 C803.281217,50.0971034 803.439784,49.5348317 803.559781,48.9690458 C803.723492,48.2414354 804.302049,46.4500515 804.041484,45.3400792 C803.751948,44.126138 802.465237,42.5184352 802.16773,41.7487401 C801.94325,41.2413242 801.807825,40.7004806 801.578974,40.195636 C801.409264,39.8022173 801.323551,39.3804278 801.251467,38.960524 C801.280695,38.7059589 801.36375,38.4153947 801.60983,38.2885407 C803.410128,37.4350191 806.491394,36.764493 807.403028,36.5227847 C808.314748,36.2811622 809.712114,35.5491805 810.188673,35.5945222 C810.208387,35.046993 809.612945,35.046993 809.314495,34.5299773 C808.73191,33.0131294 808.836993,32.3966876 808.83185,32.0340395 C808.840421,31.3364284 808.964018,30.0414035 809.38735,29.0735419 C809.081358,29.0367714 808.761652,28.9416309 808.50023,28.7616354 C807.601109,28.2070778 807.042866,27.77586 806.52945,26.8303693 C806.213172,26.2896114 806.012177,25.8365369 805.874781,25.0040149 C805.73747,24.1714928 806.005063,23.1157762 806.425138,22.2792257 C806.755045,21.7298108 807.178548,21.1932527 807.766534,20.9069742 C808.317577,21.7058114 808.867078,22.5363621 809.655629,23.1252046 C810.229044,23.530623 810.833229,23.9420413 811.541297,24.0603241 C812.366705,24.2746045 813.234112,24.0911805 814.008092,23.7766169 C814.643219,23.4003406 815.22949,22.9486375 815.792619,22.4712209 C816.927448,21.618385 818.076848,20.7732632 819.321388,20.0841375 C820.331077,19.5612934 821.393822,19.1455895 822.479024,18.8095979 C823.982415,18.4633208 825.50552,18.2044701 827.003682,17.8333365 C827.535098,17.709911 828.027943,17.4682028 828.547444,17.3079211 C829.039346,17.1647818 829.534762,17.018214 829.994265,16.7867912 C830.770731,16.3925153 831.573854,16.0119534 832.215067,15.4085399 C833.573604,14.1717136 834.580722,12.601467 835.421558,10.9815074 C835.899746,10.040388 836.372106,9.09755438 836.768096,8.11872164 C836.293251,8.4161428 835.791749,8.67585061 835.370902,9.04869845 C833.203242,10.6438015 830.532537,11.5386364 827.843747,11.5952064 C825.393237,11.6363482 822.925584,11.0286491 820.80078,9.80125111 C820.865064,9.73011003 820.929348,9.65982607 821.002975,9.5972562 C821.921038,8.84641778 822.888642,8.15986348 823.879475,7.50845115 C822.70359,6.8004688 821.612474,5.94334732 820.651641,4.96365747 C821.330481,4.66537919 822.007607,4.3585297 822.70959,4.11767856 C824.403262,3.59912007 826.134561,3.189416 827.89346,2.96827865" id="Fill-2-Copy-13"></path>
            <path d="M893.567459,2.47812971 C896.201393,2.21585054 898.885898,2.26470646 901.482119,2.81754982 C904.490615,3.46467654 907.343116,4.75721573 909.878481,6.49374386 C912.904977,8.52512177 915.531197,11.1042003 917.857425,13.8984163 C917.614859,14.9321049 916.919734,15.8286539 916.010328,16.3677833 C914.982639,16.9840537 913.788669,17.3003315 912.594699,17.3397591 C911.496726,17.3903293 910.323327,17.2891889 909.318781,17.8163186 C908.498515,18.2465936 908.051098,19.1165719 907.78539,19.9659793 C907.50854,20.8813851 907.283974,21.8456467 907.390257,22.8064799 C907.402257,23.1681852 907.3954,23.5298904 907.388543,23.8915957 C908.161667,24.3638696 909.097643,24.2807289 909.948765,24.4898665 C911.866146,24.8310009 913.73467,25.4592709 915.457485,26.3695339 C915.973472,26.6361844 916.626598,27.0012325 917.113443,27.3150246 C919.03511,28.338342 920.645641,29.7311644 921.739328,31.6494023 C921.541333,32.5836647 920.654212,33.3165035 919.704522,33.3979301 C918.726546,33.5145843 917.757999,33.0627956 917.073159,32.3848125 C916.514315,31.8363404 915.846618,31.4162652 915.172063,31.0262749 C914.509508,30.6799979 913.823811,30.3568631 913.087544,30.208581 C912.30842,30.0491564 911.511297,29.9265881 910.715031,30.0003862 C909.086929,30.1194404 906.904955,30.6127995 906.146488,30.8005948 C905.38785,30.9883902 903.614637,31.2131274 902.412953,30.9860759 C902.121532,30.9011352 901.859252,31.0879877 901.588402,31.1609287 C899.988156,31.6639733 898.2302,31.586061 896.653096,31.033989 C896.315391,30.9199919 895.971685,30.8205658 895.645979,30.6757122 C894.500007,30.1691535 893.360893,29.6480236 892.21835,29.1337507 C891.212089,28.6811906 890.15783,28.2072024 889.027287,28.2663438 C888.555013,28.2517727 888.098167,28.3752839 887.667035,28.5578508 C886.820199,28.8457579 886.08136,29.4063153 885.528517,30.1040979 C885.421377,30.2814364 885.385377,30.4914311 885.314236,30.6851406 C884.833391,32.1713892 883.835702,33.4323006 882.709444,34.4890457 C881.183768,35.7935846 879.297244,36.5564227 877.454432,37.2926901 C876.802163,37.5549693 876.11818,37.7255364 875.451339,37.9467595 C874.019947,38.3160931 872.552555,38.7120833 871.311443,39.5460625 C870.449178,40.1691898 868.765792,41.2150494 867.267544,42.6215001 C866.61956,43.3422535 865.972433,44.0665212 865.311592,44.777932 C864.833319,45.3299182 864.223905,45.8261916 863.483352,45.9470457 C862.596231,46.1201842 861.709111,45.7507649 860.990843,45.2544915 C861.413404,44.4470831 861.811965,43.627675 862.246526,42.8262664 C862.665658,42.160283 862.981079,41.4240156 863.508209,40.8317447 C863.853629,40.431469 864.121051,39.966052 864.511041,39.606061 C865.267022,38.872365 865.962148,38.0769563 866.600703,37.2396343 C867.176689,36.49471 867.546965,35.6204461 868.049238,34.8284658 C868.489799,34.1264833 869.356349,33.898489 870.126044,33.785349 C871.411726,33.5247841 872.753978,33.039739 873.5931,31.9751941 C874.303654,31.0854163 874.436508,29.883732 874.307939,28.7874736 C873.960805,26.950748 874.365367,24.9844256 875.394769,23.4244645 C874.908782,23.2753254 874.419365,23.117615 873.987376,22.8441933 C872.84569,22.185924 872.062281,20.9362408 871.989426,19.617988 C871.908856,18.432589 872.394844,17.2300475 873.245966,16.4072109 C874.04566,17.0243384 874.916496,17.5420398 875.801045,18.0263134 C877.604429,18.997432 879.778946,19.2502829 881.752897,18.7034394 C882.496021,18.5285866 883.214289,18.2628789 883.954842,18.0734551 C885.381092,17.7160354 886.794485,17.2729036 888.26102,17.1083363 C888.998144,17.0234813 889.73784,16.9463403 890.480108,16.9120555 C892.263777,16.9026271 894.086875,16.9746253 895.819974,16.4800663 C896.311105,16.3600692 896.815092,16.2683572 897.278795,16.0575054 C898.034776,15.7189424 898.779615,15.314381 899.362457,14.7161102 C900.59157,13.5041405 901.402407,11.934751 902.000677,10.332791 C902.340097,9.43967039 902.677803,8.54569269 903.012938,7.65085786 C902.705231,7.85828126 902.39581,8.06227617 902.088104,8.26884245 C900.364432,9.66766471 898.239628,10.5385001 896.052254,10.8710633 C892.876619,11.3433372 889.539845,10.5899274 886.870769,8.80797186 C887.860744,8.00056342 888.992145,7.39029293 890.072975,6.71659544 C888.942432,5.96232854 887.9156,5.04949416 887.035336,4.01494853 C889.126713,3.19554039 891.343229,2.74640874 893.567459,2.47812971" id="Fill-2-Copy-14"></path>
            <path d="M953.250397,2.88598166 C955.400915,2.35028073 957.62086,2.13257188 959.83309,2.09485853 C963.84699,2.04085988 967.87709,2.76255617 971.594511,4.28651816 C976.160397,6.13190072 980.16744,9.1875388 983.457073,12.8251624 C983.667067,13.0745847 983.931061,13.2888651 984.0862,13.5785722 C983.972203,14.4014088 983.476701,15.1376761 982.863945,15.6810912 C982.093392,16.3513602 981.121417,16.7464932 980.137355,16.9796302 C978.886901,17.2710515 977.568648,17.0704851 976.33525,17.4536184 C975.630611,17.669613 975.04614,18.206171 974.747861,18.8772972 C974.202732,20.0721245 974.110163,21.4178052 974.182161,22.7137729 C974.20616,23.2331885 974.281587,23.751747 974.239588,24.2720198 C974.746147,24.6748669 975.389845,24.8248631 976.001744,24.9894305 C978.218346,25.6476998 980.386863,26.5451059 982.293959,27.8693586 C982.83566,28.2396351 983.295934,28.7161947 983.864205,29.0496149 C985.530364,30.2221571 987.038983,31.7118342 987.914961,33.5752163 C987.982674,33.7414979 987.842963,33.8983511 987.773536,34.0397762 C987.368975,34.7271876 986.606994,35.1840334 985.8073,35.2003187 C984.872952,35.2423176 983.984117,34.7639581 983.364504,34.0894892 C983.097082,33.7852111 982.837288,33.4714189 982.525382,33.212654 C981.470265,32.3075337 980.272009,31.5146963 978.9109,31.1692763 C978.280059,30.9867095 977.628647,30.8674839 976.971234,30.8606269 C976.086685,30.8881405 975.217564,31.068136 974.3415,31.1701335 C973.386752,31.206904 972.432776,31.2643311 971.481371,31.3621287 C970.470825,31.4298413 969.460279,31.286702 968.490874,31.0081375 C967.273676,31.3861281 965.966566,31.4452695 964.714397,31.2138467 C962.898928,30.9069115 961.228484,30.0910175 959.56824,29.3333221 C957.785427,28.5293422 956.021471,27.5942226 954.068948,27.2805162 C952.739553,27.0498648 951.286732,27.2008039 950.143332,27.9610706 C949.921337,28.0887817 949.828768,28.3382041 949.698486,28.5447704 C949.014503,29.70617 948.013385,30.6507178 946.907698,31.4075561 C945.419735,32.408674 943.671208,32.9058045 941.96725,33.4029349 C941.15727,33.6497002 940.328434,33.8272101 939.505597,34.0277765 C937.957636,34.3423401 936.395103,34.7871861 935.081136,35.6957349 C933.892309,36.5040005 932.662339,37.255696 931.530082,38.1436739 C931.099807,38.4188098 930.768101,38.8122286 930.372111,39.1293636 C929.911836,39.4970687 929.484133,39.906687 928.993002,40.2367645 C928.332162,40.7613229 927.533324,41.2113116 926.661632,41.1590272 C925.788225,41.1521703 925.040815,40.6103838 924.449401,40.0164843 C925.614229,38.6013767 926.699345,37.1108425 928.013312,35.8277316 C928.232735,35.590309 928.449587,35.3468865 928.704152,35.1462343 C929.944407,34.0697754 931.077522,32.8552343 931.974071,31.4752687 C932.424917,30.8324276 932.871477,30.0764465 933.669457,29.8304526 C934.332012,29.5201746 935.087993,29.607601 935.771119,29.3667499 C937.029373,29.0333296 938.167631,28.1855508 938.731617,26.9976661 C939.536454,25.4051344 939.520168,23.5657517 940.154438,21.9166499 C940.401289,21.2943797 940.671282,20.6498244 941.162413,20.1758362 C941.304695,20.0301256 941.41355,19.856987 941.524118,19.6864198 C940.973846,19.56728 940.403003,19.4678539 939.91873,19.1627186 C938.747902,18.4495935 937.999635,17.0756278 938.08449,15.7008049 C938.164202,14.854826 938.448766,14.0097043 938.975896,13.3351497 C939.800447,13.7774243 940.703853,14.0474176 941.548975,14.4459791 C942.282671,14.8016845 943.077222,14.9962511 943.85206,15.2379593 C945.679443,15.715376 947.578824,15.8508012 949.46192,15.8053738 C950.890742,15.7642319 952.321278,15.7530894 953.750956,15.807088 C955.130065,15.8336588 956.500602,16.0127972 957.862568,16.2167921 C959.266447,16.4670716 960.691069,16.7053513 962.122462,16.6016396 C962.982155,16.505642 963.868418,16.3967876 964.637256,15.969084 C965.764371,15.4222405 966.571779,14.3936947 967.11948,13.2914365 C968.005658,11.5626224 968.214024,9.59210014 968.969148,7.81271594 C967.594325,8.83954748 966.086649,9.72323973 964.420319,10.1775141 C960.37042,11.3860554 955.748906,10.3857946 952.560415,7.61386376 C953.666101,6.98730796 954.813787,6.44132157 955.980329,5.93904838 C954.931213,5.0579275 954.010664,4.02681035 953.250397,2.88598166" id="Fill-2-Copy-15"></path>
        </g>
    </g>
</svg>