<?xml version="1.0" encoding="UTF-8" standalone="no"?>
<svg width="1500px" height="80px" viewBox="0 0 1500 80" version="1.1" xmlns="http://www.w3.org/2000/svg" xmlns:xlink="http://www.w3.org/1999/xlink">
    <!-- Generator: Sketch 42 (36781) - http://www.bohemiancoding.com/sketch -->
    <title>Frames (100x80)</title>
    <desc>Created with Sketch.</desc>
    <defs></defs>
    <g id="Page-1" stroke="none" stroke-width="1" fill="none" fill-rule="evenodd">
        <g id="Frames-(100x80)" fill="#FFFFFF">
            <path d="M44.3279782,3.49285454 C47.2863459,2.93442691 50.3045824,2.78637865 53.3095724,2.82274138 C60.0730401,2.92273889 66.7976776,4.41101346 73.0129771,7.06938873 C79.9673491,10.0589246 86.1100531,14.7938714 91.0307096,20.5210013 C90.687861,22.1079747 89.6580166,23.4949531 88.2879209,24.350776 C86.7256222,25.335167 84.8957977,25.8650239 83.0568825,25.9611254 C81.59588,26.0909923 80.0478666,26.0377469 78.7063416,26.7169507 C77.763508,27.1883675 77.1180696,28.0948384 76.7753508,29.0701388 C76.2362734,30.5752961 76.1025105,32.1973335 76.1414705,33.7869043 C76.2038066,34.7401273 76.3128948,35.6933502 76.315622,36.6504692 C76.3297775,36.8179975 76.2506886,37.0530566 76.4349697,37.1569501 C77.4972809,37.9348528 78.8428317,38.1023811 80.0361786,38.5945766 C83.6218035,39.8685708 87.1243135,41.5724244 89.9945017,44.1100235 C92.8463786,46.0723122 95.3890425,48.6397806 96.7942023,51.8461942 C96.3240841,52.9279854 95.3474851,53.7954962 94.1747871,54.0162699 C92.5165167,54.3630145 90.8203253,53.5162824 89.7748968,52.2513789 C88.6099908,50.764403 87.0918468,49.5826143 85.4581213,48.6488713 C84.6490506,48.1787532 83.7608909,47.865774 82.8633808,47.6151309 C81.7231495,47.2826716 80.5244781,47.10865 79.3387934,47.2307249 C78.2908974,47.293061 77.2609231,47.5060427 76.2193907,47.6177282 C75.1025354,47.6527923 73.9884073,47.7424004 72.8701235,47.7579844 C71.0428964,47.9631741 69.1909945,47.696947 67.4507782,47.12813 C65.9793863,47.5320161 64.4313729,47.6865577 62.9120602,47.5138347 C60.4847181,47.2696849 58.166724,46.4242515 55.9497663,45.4424578 C53.1459401,44.233397 50.4448386,42.7788878 47.5616638,41.7568354 C45.6967752,41.1243836 43.7383825,40.6114094 41.751419,40.765951 C40.6891079,40.8425725 39.63329,41.1217863 38.7034431,41.6477472 C38.4787734,41.7659261 38.3502052,41.9931931 38.2112476,42.1957855 C36.9359547,44.1437889 35.1100262,45.6995942 33.0568307,46.7826841 C31.0542832,47.8216192 28.8582341,48.3995269 26.6842623,48.9592532 C24.4349678,49.5852116 22.1025584,49.8878015 19.8896266,50.6449254 C18.6039443,51.0643955 17.4078703,51.721522 16.3040017,52.4968273 C14.4754759,53.7734189 12.6365607,55.0383224 10.889851,56.4253008 C10.105455,57.1629447 9.25482683,57.8226685 8.41069203,58.4901843 C7.20292994,59.3421111 5.90296236,60.2992301 4.35365035,60.2810488 C2.89005048,60.3641636 1.58878423,59.4395113 0.704390702,58.3512268 C2.95498393,55.9188199 5.09778764,53.3786235 7.54058386,51.1319263 C9.20028273,49.6124837 10.6625839,47.881358 11.8885274,45.9943921 C12.4937071,45.1164919 13.0820041,44.1398929 14.0599018,43.633412 C14.6637828,43.3814702 15.2832479,43.1321258 15.9416731,43.0775817 C17.8273403,42.9386241 19.7246956,42.115268 20.9220683,40.6179028 C21.6558163,39.7400026 22.0895717,38.663406 22.4389136,37.5881082 C23.1531815,35.3427096 23.425902,32.9453668 24.5245759,30.8337312 C24.8492431,30.2376421 25.1726117,29.606489 25.7193513,29.1805256 C25.9855784,28.9584533 26.1816774,28.6701488 26.3972565,28.402623 C25.6687032,28.2091213 24.8869045,28.1857453 24.2128954,27.8208193 C22.5726765,26.9922685 21.4259519,25.3039989 21.1662181,23.4962518 C20.9921965,21.9378491 21.4467306,20.337889 22.2999561,19.0340254 C23.1661682,19.4495995 24.1012098,19.6833599 24.9894994,20.0417925 C26.0414212,20.3807451 27.0193189,20.9196927 28.0907207,21.2041012 C28.830962,21.3885122 29.5478273,21.6586353 30.2867699,21.8469423 C32.694502,22.436538 35.158077,22.7884773 37.6320412,22.9378242 C40.0644481,23.0845738 42.500751,23.1715846 44.9266645,23.4144357 C47.6356879,23.6352094 50.3070498,24.1611703 52.9576331,24.7520646 C55.4653628,25.2806229 58.119842,25.5806154 60.6197797,24.8546595 C62.4976549,24.2624665 64.0119029,22.8300347 64.9209711,21.1079997 C66.5118405,18.3002775 66.6793688,14.9925678 67.8728456,12.0329013 C66.8767665,12.7289879 65.8613373,13.4016983 64.7678581,13.9354513 C61.0237956,15.8146252 56.6536448,16.3925329 52.5447862,15.5886568 C48.9629275,14.8938689 45.587687,13.1666393 42.9358051,10.6602083 C44.6513467,9.7732174 46.4435098,9.04466414 48.2499583,8.36416163 C46.6993476,6.96030054 45.3617186,5.31228969 44.3279782,3.49285454" id="Fill-2-Copy"></path>
            <path d="M144.372474,3.92011402 C146.959423,3.52531867 149.585331,3.4655799 152.196955,3.56298007 C158.638352,3.73440437 165.015986,5.15384949 171.009472,7.49794688 C175.14833,9.09530964 179.072908,11.2498014 182.636455,13.8951899 C185.720794,16.1847432 188.52462,18.8483132 191.018064,21.7690196 C190.698592,23.394953 189.599918,24.7910221 188.199953,25.6416503 C186.855701,26.4572143 185.322103,26.9610979 183.759804,27.1234315 C182.152052,27.3143358 180.458587,27.1701836 178.940443,27.8260114 C177.9093,28.2688575 177.205422,29.2363658 176.857379,30.2778983 C176.265186,31.9921412 176.252199,33.8349524 176.337911,35.6271155 C176.440506,36.6556613 176.504011,37.6932978 176.439077,38.7270382 C177.195032,39.4192288 178.17293,39.775064 179.10927,40.1503794 C182.383215,41.5542405 185.820921,43.072774 188.609163,45.3181726 C189.093567,45.6973839 189.771602,46.2151632 190.255876,46.5943745 C193.015547,48.7023739 195.010043,50.7527124 196.47624,53.7135476 C196.552991,53.8851018 196.675066,54.0824995 196.560783,54.2682091 C196.107548,55.2461068 195.214064,56.0253082 194.156947,56.2746526 C192.911524,56.5850345 191.572596,56.2149138 190.559634,55.4564912 C189.715499,54.8772848 189.184344,53.9732814 188.411636,53.3162848 C186.772716,51.8903463 184.954579,50.5851841 182.859826,49.9293563 C181.691024,49.5189769 180.462483,49.2254777 179.218359,49.2475551 C178.375522,49.2852165 177.531388,49.3008005 176.697642,49.4358621 C175.29508,49.6189744 173.873037,49.5709237 172.46528,49.4956009 C170.632729,49.5319636 168.809397,49.1332722 167.122556,48.4266665 C165.853757,48.6956208 164.545867,48.8099037 163.249926,48.6774394 C160.859076,48.428095 158.570822,47.6098037 156.383863,46.6463213 C153.234591,45.2684335 150.221679,43.5788653 146.989292,42.3970766 C144.543899,41.500995 141.827083,40.9101007 139.258316,41.6282646 C138.62976,41.854233 137.883026,41.9996839 137.48823,42.5944743 C135.718145,44.8294835 133.184442,46.4307422 130.416978,47.1099461 C128.457287,47.6060376 126.430065,47.7683712 124.413232,47.8060326 C122.650938,47.8722647 120.880852,47.7177231 119.125052,47.9242115 C117.964042,48.0722597 116.749787,48.4670551 115.988767,49.4072914 C113.430389,51.9747598 111.923933,55.3993497 109.225299,57.8395486 C108.401943,58.5992699 107.361709,59.1810736 106.221478,59.2291244 C104.973457,59.3109405 103.789071,58.7330328 102.841042,57.9642208 C104.196853,55.6902516 105.621493,53.4590085 107.008471,51.2046491 C107.834424,49.75014 108.678559,48.2982281 109.317504,46.7489161 C109.944761,45.2320708 110.40449,43.6502921 111.069409,42.1477321 C111.381089,41.4763203 111.844714,40.8127005 112.555086,40.528292 C113.648565,40.1049259 114.838146,40.316609 115.974481,40.1568727 C117.745866,39.9880457 119.647117,39.5737704 120.932799,38.2491281 C122.257441,36.9309791 122.689898,35.0414159 123.098979,33.2843168 C123.582084,31.5609832 124.240509,29.7480414 125.652162,28.564954 C125.801509,28.3987244 125.941765,28.2234041 126.085917,28.0532784 C125.228796,27.8948408 124.36648,27.6844565 123.64442,27.1714822 C121.971734,26.050731 120.996434,23.9845487 121.150976,21.9832999 C121.317205,20.6119056 121.921086,19.2898606 122.865218,18.2794962 C123.589876,18.7885744 124.406738,19.1327217 125.184641,19.5456984 C126.305392,20.0716593 127.376794,20.7183964 128.570271,21.0794264 C133.571445,23.0131444 139.008972,23.0157417 144.254295,23.7468923 C146.925657,24.1027276 149.568449,24.6676486 152.160592,25.4013965 C154.743644,26.1052751 157.456564,26.7598042 160.140782,26.2689073 C162.099305,25.901384 163.777055,24.555963 164.735603,22.8313307 C166.506987,19.900235 166.495299,16.3379862 167.852408,13.2445568 C165.345977,15.0367199 162.403064,16.2042233 159.353919,16.6418747 C153.359263,17.5483456 147.010071,15.4029445 142.782904,11.0601957 C144.534808,10.2641117 146.332166,9.56412912 148.16199,8.97193609 C146.662028,7.48496019 145.341281,5.80058661 144.372474,3.92011402" id="Fill-2-Copy-2"></path>
            <path d="M244.420602,6.35789325 C245.927058,6.33321854 247.068848,6.3090633 248.936074,6.45918942 C252.916494,6.82671273 256.878733,7.47215118 260.733182,8.5448517 C263.629214,9.34872776 266.470701,10.3435081 269.266736,11.4434807 C273.934152,13.2434358 278.436637,15.5329891 282.463809,18.5160316 C285.583082,20.832857 288.445478,23.5198029 290.871392,26.5586882 C290.575295,27.6339861 290.020763,28.6443505 289.198706,29.4079678 C287.938997,30.5780685 286.288389,31.2300003 284.631288,31.5988222 C282.714452,32.0040069 280.632686,31.6520677 278.832731,32.5494479 C277.462635,33.2559238 276.858754,34.7974438 276.499023,36.2090969 C275.731509,39.158374 276.027606,42.241414 275.608136,45.2335472 C275.921115,45.7321062 276.386039,46.1114473 276.836677,46.481568 C280.278149,49.1126712 283.911825,51.5632594 286.844219,54.7851272 C287.362388,55.4138128 288.203926,55.5774451 288.848065,56.0358752 C290.806458,57.3592188 292.614205,58.9695683 293.915472,60.9589992 C294.136245,61.3109384 294.40507,61.6448262 294.538833,62.0422189 C294.311566,62.9564818 293.632362,63.7408778 292.802512,64.1759319 C291.590854,64.8135784 290.081801,64.6772181 288.909103,64.0200917 C287.73121,63.430496 286.972788,62.3071474 285.918268,61.5513221 C285.062446,60.939649 284.265063,60.2447313 283.366384,59.6942255 C282.663804,59.217614 281.974211,58.7111331 281.198906,58.3564667 C279.762578,57.7111581 278.371703,56.907282 276.806807,56.6124842 C275.79904,56.4332679 274.78478,56.2332729 273.757533,56.2683369 C272.31601,56.287817 270.887474,56.0240573 269.504392,55.6344566 C268.033,55.326802 266.651216,54.6956489 265.372028,53.918915 C265.09658,53.7580099 264.846067,53.5463269 264.544646,53.43594 C262.213665,53.6294417 259.904631,52.9736139 257.807281,52.0022095 C255.530714,50.9892478 253.48661,49.5399333 251.498348,48.0529574 C248.641276,45.9593732 245.979005,43.5400829 242.760903,41.9946669 C241.385613,41.3687085 239.766173,41.2427376 238.351922,41.8128532 C237.850636,41.9570055 237.62207,42.4634864 237.284416,42.814127 C235.744195,44.7192743 233.500095,45.9945671 231.113142,46.4919573 C228.591127,46.9477901 225.989893,46.8244166 223.48476,46.3257277 C222.193883,46.0543059 220.82119,45.5062676 219.521223,46.0361246 C219.491353,46.708835 219.825111,47.3062227 220.061469,47.9139998 C220.387435,48.7425506 220.75366,49.556816 221.052354,50.3970548 C221.502992,52.4799898 221.789997,54.6813635 221.23157,56.7748178 C220.978329,57.8241423 220.425096,58.8384027 219.529015,59.4695558 C218.584883,60.1033062 217.395302,60.2864185 216.279745,60.1773303 C215.995337,57.8228436 216.025206,55.4280981 215.560283,53.0956888 C215.269381,51.5788435 214.277198,50.3503027 213.717471,48.9373509 C213.273327,47.8815331 212.599318,46.9192194 212.356466,45.7854815 C212.11881,44.4036977 211.839596,42.9712659 212.179848,41.5815603 C212.465555,40.7998915 212.961646,39.9830287 213.820066,39.7557617 C215.294056,39.3077209 216.82129,39.0583765 218.306967,38.6492958 C219.645895,38.366186 221.067938,37.9519106 222.006875,36.8908981 C222.945813,35.867547 222.995162,34.376675 223.019837,33.0624221 C222.957501,32.0741351 223.215936,31.1079254 223.467878,30.1611958 C224.043188,28.9703164 224.980827,28.0041067 225.958725,27.1314012 C225.266534,26.8937448 224.547072,26.6885551 223.941892,26.265189 C222.218558,25.0197655 221.344554,22.7444976 221.735453,20.6627313 C221.988694,18.8783602 223.276973,17.3991763 224.814597,16.5446522 C225.422374,17.2796988 225.993789,18.0498095 226.688577,18.7095333 C228.849562,20.8159743 231.750788,22.0847738 234.727337,22.4743745 C238.024658,22.9379993 241.331069,23.4029227 244.564754,24.2132921 C247.038718,24.8613279 249.432165,25.7924735 251.721719,26.9275102 C254.128152,28.2002057 256.433289,29.7858804 259.118937,30.4170335 C260.495526,30.7858555 262.065616,30.5352124 263.181043,29.6209495 C264.303223,28.763828 264.970739,27.4651591 265.455142,26.1677888 C266.475896,23.4457788 266.3746,20.4120882 267.655087,17.773193 C266.874587,18.3186339 266.075906,18.8653736 265.151254,19.1354967 C261.518877,20.5731232 257.468329,21.0263586 253.629463,20.2302746 C249.256845,19.3640624 245.207595,16.9498369 242.375198,13.5057669 C244.14918,12.7850057 246.03225,12.3655356 247.865971,11.830484 C246.45172,10.1954599 245.208894,8.38121942 244.420602,6.35789325" id="Fill-2-Copy-3"></path>
            <path d="M343.681332,10.5658605 C344.956624,10.7333888 346.270877,10.6333913 347.511106,11.0255893 C348.946135,11.4541501 350.41493,11.7463506 351.857621,12.1450419 C355.332989,13.0411235 358.738099,14.2008348 362.051003,15.5774239 C364.722365,16.7020711 367.37165,17.8734705 370.022233,19.0461685 C374.018237,20.7785929 377.877881,22.8655538 381.379093,25.4680863 C383.379043,26.9459715 385.233412,28.6160598 386.965966,30.3991322 C387.949059,31.4289766 388.924359,32.4744051 389.764598,33.6263244 C389.339933,35.1717404 388.234766,36.475604 386.84519,37.2496107 C385.31406,38.1469909 383.560857,38.6599651 381.790771,38.7573653 C380.615476,38.8742455 379.394727,38.9599576 378.329818,39.5209826 C377.280494,40.0365542 376.519474,40.9975692 376.029876,42.037803 C374.850684,44.4182631 374.140312,46.9922249 373.409162,49.5363173 C372.953329,51.2221194 372.355941,52.8661044 371.757255,54.5050245 C371.652063,54.8361851 371.388433,55.1050096 371.327395,55.4478582 C371.374148,55.8127841 371.494924,56.1660221 371.639076,56.5049747 C372.750737,58.9529656 374.177974,61.2477135 375.780531,63.4035039 C376.159742,63.8931021 376.459735,64.4411404 376.872712,64.9060639 C377.31296,65.3865714 377.5675,66.0099324 378.063591,66.4423892 C378.423322,66.7709524 378.711627,67.1865265 379.13759,67.4358709 C379.797314,67.7202794 380.505089,67.9241704 381.099879,68.3423418 C383.024506,69.6721788 384.759528,71.3175923 386.004951,73.3097504 C386.153,73.5837695 386.404942,73.83701 386.434681,74.1551839 C386.106248,75.205807 385.258217,76.0916291 384.21149,76.4460358 C382.355692,77.1057596 380.350547,76.1369526 379.111617,74.7447795 C378.163589,73.7707779 376.999981,73.052614 375.961046,72.1851031 C374.945487,71.518886 374.053301,70.6786472 372.9819,70.0981422 C372.51308,69.8397071 372.039066,69.585168 371.618297,69.2540074 C370.087167,68.0566346 368.361236,67.133281 366.575566,66.3800531 C365.397673,66.0281138 364.148354,65.9034416 363.021109,65.391766 C362.10295,64.8722985 361.209466,64.2775081 360.496497,63.4918134 C359.495223,62.4801503 358.871862,61.1866761 358.149802,59.978914 C355.690123,59.4310056 353.696666,57.7841635 351.817492,56.1971901 C348.848735,53.6271244 346.847486,50.2025344 344.639749,47.0091076 C344.16054,46.2819828 343.716396,45.528625 343.151475,44.8637065 C342.428116,43.9299636 341.81904,42.9106383 341.063215,42.0040376 C340.899583,41.9053387 340.712574,41.8624827 340.534657,41.8040426 C340.076227,42.7572655 339.68273,43.7702273 338.969761,44.5702074 C338.581459,45.0052614 338.186663,45.4430427 337.713948,45.7857615 C336.171129,46.8117099 334.278969,47.2493613 332.438755,47.1272864 C331.823186,47.0988456 331.263459,46.7766458 330.650488,46.7545685 C330.262186,46.9207981 330.045308,47.3155934 329.83882,47.6610394 C330.019335,48.1702474 330.393351,48.5662116 330.797237,48.9077615 C331.359561,49.384373 331.856951,49.9583847 332.527064,50.2882466 C333.647816,50.8765436 334.741295,51.5167874 335.790619,52.2258606 C336.797088,52.9725952 337.891866,53.7504979 338.361984,54.966052 C338.929502,56.3142002 338.468475,57.8283183 337.785375,59.0414049 C337.610054,59.0414049 337.43863,59.017899 337.272401,58.9724456 C335.125701,58.0349365 332.895886,57.272488 330.845288,56.127062 C330.054399,55.6946053 329.190784,55.4037034 328.441452,54.8959239 C327.862246,54.5180112 327.218106,54.2439921 326.681756,53.8024447 C325.999954,53.2660944 325.310361,52.7428607 324.602587,52.240146 C323.520795,51.3622458 322.966264,50.0505902 322.276671,48.8804895 C322.149401,47.9285652 321.80915,46.9194994 322.200049,45.9883538 C322.341604,45.5805718 322.515626,45.1857764 322.711725,44.8013704 C323.0286,44.1247639 323.977927,44.0806092 324.259738,43.3715359 C324.527264,42.6910334 325.035043,42.1131258 325.150625,41.3741832 C325.420748,39.8664285 325.240233,38.3184152 324.938942,36.8301406 C324.707779,35.7691281 324.612976,34.6847396 324.374021,33.6250258 C324.288309,32.8211497 324.281815,32.0055856 324.314282,31.1965149 C324.705181,30.3627694 325.450617,29.7627844 325.951904,28.9991671 C325.362308,28.8147561 324.632716,28.4307397 324.424669,28.2978859 C323.026003,27.5147885 321.940315,26.1317061 321.655907,24.539538 C321.458509,23.3876187 321.539027,22.1720646 321.98447,21.0850787 C322.600039,19.8071885 323.687025,18.8098108 324.923358,18.1396976 C325.709053,19.0124031 326.22852,20.1084797 327.115511,20.8967717 C328.914167,22.617508 331.30242,23.7655314 333.791968,23.959033 C335.378941,24.0304598 336.958123,24.2031828 338.542499,24.3057776 C339.678834,24.4823966 340.80478,24.727845 341.938518,24.9226454 C343.028101,25.1654965 344.085218,25.5356171 345.155321,25.8524923 C348.153947,26.9135048 350.9318,28.5706063 353.320052,30.6692553 C354.479764,31.7614359 355.521296,32.969198 356.638151,34.1029359 C357.638126,35.1509617 358.706931,36.1743128 360.014691,36.8262446 C360.618572,37.0184476 361.292581,37.0041623 361.904254,36.852218 C362.90293,36.3872945 363.675508,35.5132904 364.105498,34.5042246 C365.292481,32.0224683 365.231444,29.2095514 365.785845,26.5641629 C365.939218,25.8992444 366.232717,25.2784806 366.484659,24.6473276 C365.798962,25.0239415 365.182094,25.5784732 364.38601,25.7031454 C363.495123,25.8641803 362.623716,26.1174208 361.731531,26.2719624 C360.021184,26.5810456 358.274474,26.6368883 356.540751,26.5550722 C350.408437,26.2005356 344.485208,22.8538658 341.132045,17.6877609 C342.320327,17.373483 343.539777,17.1981627 344.739747,16.9371302 C345.402068,16.7942766 346.07348,16.6955778 346.747489,16.6189563 C345.467001,14.7501718 344.251447,12.7813897 343.681332,10.5658605" id="Fill-2-Copy-4"></path>
            <path d="M443.385337,10.9180559 C444.69011,10.9868853 447.430691,11.6556998 448.394303,11.960887 C449.976082,12.4595759 451.565652,12.93359 453.135743,13.4660443 C456.526568,14.6140676 459.840771,15.9828646 463.053678,17.562046 C465.280895,18.6295519 467.505515,19.7074471 469.770393,20.6957341 C475.846865,23.1865811 481.453219,26.8618141 486.058299,31.5526062 C487.229698,32.6967336 488.414084,33.8395622 489.410163,35.1460231 C489.142637,36.0771687 488.625767,36.9264982 487.945265,37.6134941 C487.321904,38.2771139 486.516729,38.7225573 485.731034,39.1641047 C484.473923,39.8017512 483.103827,40.2342079 481.69607,40.3588801 C480.579215,40.5173177 479.428594,40.677054 478.416931,41.2067811 C477.050731,41.8926081 475.975433,43.0717995 475.262464,44.4107272 C474.431316,45.7340708 473.778086,47.1561132 473.007975,48.5145209 C471.991117,50.4781083 470.996337,52.4546824 469.909351,54.3819071 C469.004179,55.7974562 468.104201,57.233784 467.065266,58.5480369 C466.892543,59.5584014 467.148381,60.5869471 467.253573,61.5947142 C467.554864,62.6609214 467.878233,63.8206327 468.750938,64.572562 C469.098981,64.8348931 469.454817,65.106315 469.8613,65.2725446 C471.014518,65.6192892 472.210592,65.8686336 473.310565,66.3684913 C474.461185,67.0854864 475.548171,67.9361145 476.413085,68.9880363 C477.867594,70.6724099 478.841596,72.7359948 479.409114,74.8774999 C479.498722,75.069573 479.292234,75.2203484 479.202626,75.3657994 C478.509136,76.1930515 477.466305,76.7475831 476.375423,76.7436871 C474.828709,76.7501804 473.362512,75.7813734 472.658633,74.4229657 C472.287214,73.6749324 471.774239,72.9801446 471.082049,72.5022344 C470.404144,72.0412069 469.643124,71.7152411 468.862624,71.4710913 C467.97823,71.1853841 459.623374,69.1685513 457.218758,68.1737709 C456.53436,67.7581969 455.85126,67.3114548 455.266859,66.7608191 C454.647394,65.9322684 454.111044,65.0219015 453.822739,64.0206277 C453.594173,63.2128557 453.378594,62.4024863 453.173405,61.5882209 C451.339684,60.8466809 449.934524,59.3778864 448.661829,57.9116892 C446.981351,56.0753713 445.683981,53.9130876 444.681409,51.6391183 C444.089216,50.3495401 443.554164,49.0352872 442.954179,47.7496049 C442.551592,46.819758 442.243807,45.843159 441.681483,44.9912322 C441.393179,46.1886049 440.813973,47.3132522 440.002304,48.2392031 C439.406215,48.7898387 438.769868,49.3430717 437.988069,49.6067015 C436.932251,50.0365609 435.794617,50.4482389 434.638802,50.2352572 C434.321927,50.1664278 434.073881,50.498887 434.042713,50.7844643 C435.494625,51.1534161 436.92316,51.6417157 438.41663,51.8196333 C440.538655,52.224818 442.746392,52.7974011 444.425571,54.2286641 C445.371002,55.0104628 445.954104,56.2325103 445.851509,57.4662457 C445.806056,58.1649296 445.637229,58.8506268 445.364508,59.4934679 C444.820366,59.5051559 442.706523,58.6749169 440.389438,58.2411615 C438.072223,57.8074061 435.639816,57.6932531 431.916792,57.0883331 C430.422024,56.826002 426.648222,55.1520177 426.332515,52.7390909 C426.210441,51.9819669 425.975382,51.1495201 426.354593,50.4273304 C427.34327,48.8971088 427.276648,45.5938145 427.110418,44.3418977 C427.026005,43.3704934 426.551991,42.5003852 426.258491,41.5848236 C425.87928,40.4199176 425.358514,39.300465 425.084495,38.1030922 C424.89359,37.0758451 425.075404,36.0317153 425.044236,34.9966762 C425.042937,34.6746063 425.126052,34.3616271 425.19618,34.0512452 C423.916991,33.9512477 422.736501,33.2850306 421.794966,32.4421944 C421.162385,31.7863666 420.963558,31.61728 420.665384,31.1279415 C419.03958,28.4216454 419.846963,24.2125295 422.261188,22.1853074 C422.637802,21.8359654 423.080649,21.5736343 423.532585,21.3346792 C423.755956,21.609997 423.935173,21.9177816 424.062442,22.2489421 C424.397499,23.0813889 424.816969,23.8826676 425.345527,24.6086236 C425.845515,25.1943232 426.450694,25.6787267 427.068861,26.1319622 C427.66495,26.5851976 428.403892,26.7735046 429.119459,26.9462276 C430.563579,27.3150496 432.067437,27.1358333 433.532336,27.0176544 C434.349199,26.9280462 435.169957,26.9098649 435.988119,26.8449314 C437.488081,26.6215604 439.001031,26.8579181 440.506188,26.8540221 C441.61655,26.9696036 442.700938,27.2605055 443.794418,27.4773832 C446.335913,28.2267152 448.759229,29.4123999 450.84619,31.0539174 C453.085095,32.6967336 454.643498,35.048623 456.669421,36.9187062 C457.609658,37.6031047 458.668073,38.3199699 459.882328,38.2926979 C461.239437,38.3537353 462.451095,37.4368751 463.169259,36.3485905 C464.139365,34.883692 464.730259,33.1759424 464.960124,31.4370247 C465.148431,30.466919 465.221156,29.4799307 465.362711,28.5033316 C465.471799,27.6877676 465.813349,26.9332409 466.115939,26.1774156 C465.587381,26.4670188 465.104276,26.8410354 464.543251,27.0683025 C463.897812,27.2423241 463.221206,27.2566095 462.570573,27.4085537 C460.861525,27.7708824 459.105724,27.8591919 457.364209,27.7851677 C450.67087,27.6423141 444.167136,23.9034463 440.673716,18.1944978 C441.367205,18.0438522 442.065889,17.91918 442.767171,17.8113905 C443.942466,17.6490569 445.093087,17.3204936 446.282667,17.2659495 C445.113865,15.2569087 443.848962,13.2309852 443.385337,10.9180559" id="Fill-2-Copy-5"></path>
            <path d="M543.021462,48.5311292 C542.703288,49.2882532 542.418879,50.0947266 541.8137,50.6776991 C541.065666,51.56469 539.956603,52.02325 539.168311,52.8673847 C539.021562,53.1141318 539.076106,53.419319 539.078703,53.6933382 C541.082549,53.7206102 543.090291,53.7167142 545.090241,53.5491859 C544.21364,51.9609138 543.525345,50.2739429 543.021462,48.5311292 M542.418879,12.3268373 C544.274028,12.528131 549.166763,13.708621 550.661531,14.1644538 C554.044564,15.1397542 557.36526,16.3306335 560.605439,17.7085213 C563.29758,18.8838166 565.98972,20.0643067 568.720821,21.1499939 C570.674019,21.8993258 572.59475,22.7447593 574.416783,23.7772011 C576.647896,25.0265206 578.749142,26.4979125 580.746495,28.0913792 C582.781509,29.7225074 584.620424,31.5757079 586.519078,33.3574817 C587.243866,34.0717496 587.964497,34.7938095 588.606039,35.5846989 C588.385396,36.5820766 587.811254,37.4625741 587.122959,38.200218 C586.521676,38.8378645 585.74637,39.2651266 585.011324,39.726154 C583.842522,40.3805533 582.547749,40.8196332 581.216613,40.9897589 C580.411439,41.0897564 579.616653,41.263778 578.834984,41.4767597 C577.133598,41.9793446 575.694673,43.1416533 574.615479,44.5221383 C573.958353,45.5065293 573.233695,46.4441683 572.612932,47.453234 C571.963597,48.5142466 571.164916,49.4726642 570.474024,50.5064047 C569.629889,51.7674122 568.659784,52.9349155 567.739027,54.1399504 C566.732559,55.4595279 565.449474,56.5283324 564.281971,57.6971344 C564.010549,57.9879064 563.63913,58.1685513 563.381993,58.4711411 C562.871746,59.6865653 562.6924,61.002117 562.470327,62.2931237 C562.430069,62.5801295 562.530066,62.8619407 562.576818,63.1437519 C563.393681,63.5476379 564.305347,63.6606221 565.17026,63.9268492 C566.049459,64.1372336 566.872815,64.5177436 567.680587,64.9125389 C567.905257,65.0242244 568.149407,65.1630521 568.231223,65.4190198 C568.431218,65.9683567 568.5755,66.5384724 568.736405,67.1006662 C568.951984,67.9514242 569.25847,68.803351 569.174056,69.6955365 C569.08315,70.748757 569.129902,71.8305482 568.810429,72.851302 C568.372778,74.5655449 567.802662,76.2577105 567.002682,77.8394893 C565.875437,78.1537672 564.596249,77.9784469 563.652116,77.2654776 C562.830059,76.6979593 562.385914,75.726555 562.217217,74.769436 C562.107999,73.6136206 562.736684,72.5772828 563.193686,71.5630224 C563.431342,71.066801 563.379396,70.4085058 562.991224,70.0046197 C562.476951,69.5981364 561.854888,69.3358052 561.215943,69.2059383 C560.40934,69.0462021 559.647151,68.7111455 558.827561,68.6163427 C558.524971,68.5668634 555.947893,67.6787037 554.831167,67.4189699 C553.968721,67.1775474 552.975759,66.8111929 552.16539,66.4150988 C551.617351,66.0175763 551.126455,65.5474581 550.631792,65.0864307 C550.144791,64.6774798 550.022586,64.0215222 549.783631,63.4630945 C549.339486,62.3567585 549.338187,61.1515937 549.252475,59.9827917 C547.868094,59.6385146 546.430468,59.3256653 544.998036,59.5138424 C543.805858,59.6879939 542.655237,60.0775946 541.459163,60.2229156 C538.027301,61.0397784 535.389185,60.4373258 534.561933,59.9787658 C532.659512,59.1739807 532.087968,57.9412842 531.802261,57.4218166 C531.552917,56.9607892 531.68668,56.4178157 531.610058,55.921854 C531.547722,54.4451376 530.162042,51.4724845 529.497124,50.250437 C528.982851,49.481625 528.265986,48.8817699 527.662105,48.1895793 C526.804983,47.3519379 526.238763,46.280536 525.653064,45.249263 C524.972561,43.6793022 524.592051,42.0025908 524.210243,40.3404244 C524.116738,39.9599144 524.17388,39.5664177 524.188165,39.1807131 C523.827135,39.1443503 523.438833,39.1690251 523.118062,38.96903 C521.570049,38.1261939 520.170084,36.9833653 519.112967,35.5678162 C518.211691,34.3236913 518.012605,32.8184042 518.097018,31.3080523 C518.142342,30.8904003 518.157277,30.7528713 518.220392,30.4562553 C518.343895,29.3991388 518.842844,28.4639673 519.270106,27.4978875 C519.622045,26.7667369 520.186966,26.1628559 520.775263,25.6161163 C521.177851,25.240801 521.659657,24.9537951 522.177826,24.7693841 C522.542752,25.5355988 522.662229,26.3849283 522.95443,27.178415 C523.272604,28.0147578 523.558311,28.9095406 524.242709,29.527707 C524.819318,30.0497719 525.329695,30.7691047 526.150454,30.8952054 C526.838749,31.0211763 527.556912,31.0718244 528.238714,30.8822187 C529.902308,30.4432686 531.511359,29.8289982 533.13989,29.2796613 C534.235967,28.7978551 535.424249,28.6082494 536.569675,28.2822836 C537.778735,27.9056696 539.06182,27.9809924 540.309841,27.8719042 C543.453919,27.9615123 546.570724,28.8614899 549.27715,30.4666447 C549.851162,30.8393626 550.405693,31.2406513 550.962822,31.638044 C551.744621,32.1847836 552.404345,32.8808702 553.119911,33.5068286 C554.143262,34.3912221 555.078304,35.3937945 556.241911,36.1028677 C557.524996,36.8728485 558.992492,37.5546497 560.528947,37.3288112 C561.611907,37.2106323 562.436562,36.3937696 563.062521,35.5678162 C563.596273,34.7366681 563.976783,33.8081198 564.230154,32.8548968 C564.443006,31.6432387 564.583262,30.4185939 564.685857,29.1913518 C564.765075,28.3381263 565.089743,27.5381463 565.40415,26.7498542 C564.741699,27.1407536 564.133922,27.6835972 563.357318,27.8290481 C562.120986,28.0822885 560.90673,28.4498118 559.649619,28.5952628 C558.061476,28.7822711 556.456192,28.7939591 554.861426,28.6848709 C548.81872,28.1537153 543.104577,24.7200347 539.805958,19.6253566 C540.95528,19.3162734 542.139666,19.1773158 543.29678,18.9110887 C543.996762,18.7487551 544.707134,18.6357709 545.422701,18.5669414 C544.177277,16.6202367 542.950035,14.6006767 542.418879,12.3268373" id="Fill-2-Copy-6"></path>
            <path d="M644.052785,52.9704735 C643.878763,53.5379918 643.778765,54.1275875 643.704741,54.7158845 C643.794349,55.2847015 644.032006,55.8314411 644.354076,56.3067539 C644.543681,56.580773 644.890426,56.6340185 645.185224,56.7327173 C645.36444,56.3080526 645.450152,55.8548171 645.552747,55.4082049 C644.818999,54.7548445 644.441087,53.8444776 644.052785,52.9704735 M641.263244,14.7922047 C644.482774,14.7922047 648.056581,15.5025766 649.514986,15.7973745 C653.465537,16.5233304 657.351154,17.5778496 661.158851,18.8531424 C664.004235,19.8037681 666.880787,20.6751749 669.679418,21.7608621 C674.002687,23.4504304 677.822072,26.1984138 681.270038,29.2658698 C682.236378,30.159354 683.203756,31.0528382 684.153083,31.9645038 C685.371235,33.0709697 686.612762,34.1592542 687.724423,35.376107 C687.485468,36.5656877 686.788082,37.6202069 685.916676,38.4461603 C684.48814,39.6344424 682.81026,40.5709125 680.968747,40.9175273 C679.480472,41.1746637 677.945446,41.3941388 676.592363,42.1058093 C675.50265,42.6434583 674.567608,43.440841 673.708019,44.2888718 C673.178162,44.8460007 672.762458,45.5018285 672.245588,46.0719442 C671.388466,47.0394525 670.691081,48.1394251 669.78461,49.0640774 C669.057356,49.810812 668.387243,50.6094934 667.675572,51.3705134 C666.927539,52.1821814 666.076911,52.8886573 665.301605,53.6730533 C664.002936,55.0106823 660.490427,57.2020562 659.915506,57.7404844 C659.340715,58.2789125 658.874493,59.3884952 658.513593,60.2469154 C658.24347,60.8274204 658.169316,62.8767199 658.238145,63.2703465 C659.505646,64.2598023 660.796523,65.2428947 661.873119,66.4468906 C662.091296,66.6545478 662.027661,66.9857084 661.971818,67.2480395 C661.693903,68.367622 661.325211,70.3747148 660.409519,71.7714332 C659.900441,72.5518033 659.378376,73.3245113 658.812157,74.0634539 C657.43297,75.5413392 655.98885,76.9764982 654.368112,78.1893251 C654.036951,78.5076288 653.582417,78.2347785 653.234374,78.0958209 C652.143492,77.6347934 651.32533,76.6179357 651.081181,75.4647177 C650.99417,74.5998042 651.061701,73.6556719 651.561688,72.9167293 C652.217516,72.0090896 653.175934,71.399884 654.062924,70.7440562 C654.597976,70.3609489 654.99407,69.7765479 655.120041,69.1285121 C654.70187,67.7936103 653.512419,67.0967446 652.310111,66.4241639 C651.171049,65.7866474 648.576048,64.3481118 647.687759,63.8820195 C647.361793,63.7234521 647.059203,63.5091717 646.709861,63.4013822 C645.974815,63.480601 645.273533,63.7611135 644.530695,63.7922815 C643.660587,63.9091617 641.494666,63.9046164 639.465886,63.1325577 C638.654218,62.8117865 638.020467,62.1598547 637.528272,61.4574047 C637.190618,60.8936525 637.452949,60.1860078 637.155554,59.6105676 C636.978935,59.2807057 636.73998,58.9911025 636.530894,58.6820193 C635.829613,57.6119161 631.860102,55.5796292 629.91028,55.0418504 C629.215103,54.8501668 628.823294,54.831466 628.46616,54.4042039 C627.828514,53.7418828 626.604778,52.292828 625.753241,50.8835125 C624.923391,49.218619 624.258473,48.1613726 623.667579,46.3990789 C623.37356,45.5175424 623.563685,44.8628834 623.561088,44.4356214 C623.181876,44.4019858 622.759809,44.4500366 622.433843,44.213549 C620.702717,43.0966937 619.052109,41.7863368 617.837854,40.1045605 C616.376851,37.9240954 616.406721,35.0059864 617.41189,32.6476036 C618.219013,30.7606377 619.758585,29.1476909 620.811806,28.7801676 C621.228678,30.0203964 621.400103,31.3294547 621.845546,32.5631902 C622.102683,33.634592 622.928636,34.4176894 623.687059,35.1618266 C624.109126,35.5774007 624.757162,35.541038 625.297408,35.4488325 C626.044143,35.341043 626.61296,34.80729 627.250606,34.4527534 C629.038873,33.415117 630.653119,32.108656 632.436191,31.0658249 C633.117992,30.6554455 633.763431,30.167146 634.523152,29.9074122 C635.5491,29.5411876 636.541284,29.0386027 637.630867,28.8892558 C638.582791,28.7515969 639.529521,28.5243298 640.497029,28.5632899 C641.535964,28.5801726 642.587886,28.5282258 643.613834,28.7386102 C644.530695,28.9178265 645.473528,29.02172 646.346234,29.3801526 C647.49166,29.8437774 648.682539,30.2372741 649.698098,30.9619314 C651.29676,31.8865836 652.743477,33.042399 654.305776,34.0254913 C655.060302,34.5280762 655.92132,34.8306661 656.7213,35.2514348 C657.573227,35.6903849 658.521255,35.8825879 659.456296,36.0475188 C660.527698,36.2553059 661.539361,35.6436328 662.319861,34.9748183 C662.902964,34.2865238 663.302954,33.4488823 663.605674,32.6034489 C663.819824,31.496983 663.92112,30.3697384 664.021118,29.2476884 C664.080856,28.3957616 664.383446,27.5918856 664.663959,26.7945028 C663.923718,27.2983864 663.208151,27.864606 662.343237,28.1412225 C659.116045,29.5230062 655.516265,30.0113057 652.037001,29.5723556 C646.956608,28.8918531 642.133352,26.1763364 639.052909,22.0621533 C640.280151,21.659566 641.538562,21.3725601 642.777492,21.0115302 C643.363191,20.8388072 643.963176,20.718031 644.563161,20.6011508 C643.221636,18.819377 641.946344,16.9350084 641.263244,14.7922047" id="Fill-2-Copy-7"></path>
            <path d="M761.148862,28.9044031 C757.811282,30.6316327 753.934756,31.2588898 750.215498,30.7627983 C751.177682,31.3978474 752.244019,31.8562775 753.213995,32.4783399 C753.76476,32.8276819 754.368511,33.074429 754.969795,33.3198774 C755.576273,33.5562351 756.12561,33.9159664 756.725595,34.1705055 C757.294412,34.423746 757.906085,34.5536129 758.490486,34.7601012 C759.077485,34.9484082 759.703443,35.1406112 760.321609,34.9899656 C760.851466,34.8575014 761.37483,34.6834798 761.854169,34.41985 C762.247535,34.2159589 762.474803,33.8172676 762.728043,33.4718217 C763.008555,33.0419622 763.303353,32.6108042 763.481271,32.125102 C763.67737,31.0965562 763.786588,30.0524264 763.892949,29.0108939 C763.966973,28.2070179 764.224239,27.4382059 764.461766,26.6706926 C763.404649,27.4823606 762.337144,28.2940287 761.148862,28.9044031 M740.619503,17.9254561 C742.192191,17.663125 743.799944,17.5774128 745.396008,17.6202689 C749.86213,17.6085809 754.328252,18.0098696 758.720351,18.8189403 C763.733213,19.7903447 768.891526,20.7565543 773.343363,23.3889562 C775.608241,24.6837291 777.67832,26.2888839 779.643206,27.9966335 C781.43407,29.5368548 783.065198,31.2510978 784.874244,32.7705404 C785.597603,33.4315629 786.343039,34.066612 787.04432,34.7510105 C787.158603,34.8821761 787.365091,35.023731 787.274184,35.2289207 C787.010684,36.4678508 786.25356,37.5678234 785.315791,38.3989715 C784.379451,39.091162 783.441812,39.8197153 782.335476,40.2223027 C780.910706,40.8483909 779.330226,40.8911172 777.852341,41.3326646 C775.869404,41.8508335 774.149836,43.0730108 772.700522,44.4858327 C771.858984,45.5028203 770.900566,46.41046 770.026562,47.3962796 C769.569431,47.9337987 769.08243,48.4480716 768.539586,48.9001382 C767.383771,49.862322 766.348732,50.9635932 765.134476,51.85461 C764.081256,52.6182273 763.077515,53.4479469 761.99949,54.1777988 C760.676146,54.9946616 759.298258,55.7167215 757.946344,56.4842348 C757.604794,56.6881258 757.2087,56.7687732 756.860657,56.9518855 C756.316515,57.4465485 756.030807,58.1375702 755.672375,58.7633987 C755.417836,59.2245561 755.15044,59.6815577 754.98408,60.1841425 C757.178961,60.3140094 759.563187,60.5737432 761.304702,62.0529271 C762.612591,63.1478349 762.85791,65.0411643 762.434544,66.6125536 C759.868504,66.4554147 757.304802,65.9606219 754.726944,66.1865902 C754.881485,66.8644954 755.355629,67.4216244 755.504846,68.1008282 C755.520431,68.4723774 755.225763,68.7397733 755.03343,69.0228832 C754.459418,69.787929 753.869822,70.5398583 753.264643,71.2799697 C752.594529,72.1773499 751.616762,72.761751 750.747822,73.4435521 C749.699796,74.2643109 748.511514,74.8683218 747.338816,75.4863583 C746.151833,76.044786 744.972642,76.644771 743.707738,77.0059308 C742.299981,76.334519 741.44286,74.6552102 741.728567,73.1136902 C741.951938,72.2878667 742.342837,71.45529 743.053209,70.9384198 C744.168766,70.078701 745.601197,69.8307851 746.785583,69.0944398 C747.580369,68.5943224 748.249183,67.7229156 748.102434,66.7346285 C747.084277,66.6995645 746.218195,66.5477501 745.075236,66.3333398 C743.64735,65.9554272 742.911654,65.5567358 742.203879,64.6567583 C741.997391,64.3840378 741.783111,64.1022266 741.666231,63.7775594 C741.602596,63.2673124 741.763631,62.7634289 741.766228,62.2542208 C741.690905,61.8698148 741.336369,61.6335869 741.097414,61.3490485 C740.409119,60.5607565 739.27668,60.5725744 738.327353,60.3829687 C736.285845,59.9945369 734.409009,60.1649222 732.346723,60.2003759 C731.77349,60.2105055 731.135324,60.3881634 730.753516,59.9985627 C728.91512,58.7205427 727.248408,56.3206025 726.87569,55.7050334 C725.921169,53.9154677 725.13937,52.0414884 724.386142,50.1611457 C724.230302,49.6999884 724.234198,49.2040267 724.193939,48.7233894 C721.296479,48.1715849 719.423279,45.9213813 718.039547,44.1444127 C716.933081,42.6638002 716.609713,40.7534583 716.747371,38.9444125 C716.788929,37.8080772 717.485795,35.4508632 718.440836,34.1146628 C719.010951,33.4107842 719.59795,32.6458682 720.517407,32.3952251 C720.83688,33.847137 721.255051,35.2756728 721.706988,36.6912219 C721.922567,37.4314632 722.496579,37.9833975 723.009553,38.5301371 C723.361492,38.859999 723.693951,39.3080398 724.221211,39.3314158 C724.728991,39.3184291 725.257549,39.1924582 725.665331,38.8768817 C725.980907,38.6314332 726.245836,38.3314407 726.54453,38.0691096 C728.301629,36.6327818 729.80289,34.9211362 731.406746,33.3224747 C732.179454,32.4289905 733.200208,31.8199148 734.137847,31.1199323 C734.78848,30.6368274 735.5495,30.3485229 736.287144,30.030349 C737.567631,29.422572 738.980583,29.1914089 740.353276,28.8862217 C741.511689,28.7641468 742.679192,28.6784347 743.845397,28.7173948 C742.067519,27.8031318 740.442884,26.5875777 739.057205,25.1473539 C740.79872,24.394126 742.551923,23.6512873 744.367462,23.0980544 C744.280451,22.9461101 744.17396,22.8084512 744.049288,22.687675 C742.663608,21.2942033 741.519481,19.6708671 740.619503,17.9254561" id="Fill-2-Copy-8"></path>
            <path d="M847.790376,62.6539381 C847.712456,63.6863799 847.700768,64.7345355 847.882582,65.7564581 C848.231924,65.4928283 848.535812,65.1668624 848.761781,64.7915471 C848.839701,64.6590829 848.890349,64.4980479 848.83061,64.3501295 C848.621525,63.7123532 848.246209,63.1422376 847.790376,62.6539381 M843.442433,16.6641759 C851.333145,15.6551101 859.440735,16.2927565 867.058857,18.5965952 C869.471654,19.3420312 871.81705,20.3394089 873.966347,21.6744405 C876.117073,22.9666161 878.092348,24.5276161 879.976587,26.1782243 C881.840177,27.8184432 883.537537,29.6365796 885.423204,31.2508251 C886.121888,31.9443143 886.902388,32.5598834 887.533541,33.3157087 C887.564709,33.7806321 887.336143,34.2286729 887.153031,34.648143 C886.677718,35.5104591 886.072539,36.3351139 885.246585,36.8909442 C884.672574,37.2727528 884.134925,37.7117029 883.519485,38.0259808 C882.531069,38.531163 881.462264,38.8792063 880.366187,39.0480332 C878.798694,39.2908843 877.214318,39.6519143 875.833833,40.4635824 C874.542956,41.2427837 873.318311,42.1843187 872.378205,43.3738994 C871.635236,44.1868661 870.852269,44.9634701 870.130079,45.7972156 C869.285944,46.815372 868.211945,47.6010667 867.254826,48.5063688 C866.456145,49.2750509 865.604218,49.9880202 864.692552,50.6178746 C863.749719,51.2775984 862.86026,52.0152423 861.874441,52.61263 C860.775767,53.1723563 859.653717,53.6866292 858.531667,54.1983048 C857.958954,54.4593372 857.403124,54.7710178 856.786256,54.9164687 C856.336917,55.0021808 856.046015,55.3878855 855.722776,55.6774887 C855.134349,56.3501992 853.185177,58.4618348 852.847393,58.9046809 C852.661684,59.1488307 852.461689,59.3799937 852.23572,59.5864821 C852.269486,59.6631036 852.335718,59.8137492 852.369483,59.8903706 C853.198553,59.9294606 855.248632,61.6812351 856.081079,62.8045837 C856.139649,63.0305521 856.046015,63.2526244 855.9629,63.4604115 C855.501872,64.5837601 855.288631,65.5378921 854.495404,66.7940946 C853.832304,67.9583513 851.83573,69.945964 850.682512,70.6901013 C851.086398,71.1082727 851.60197,71.4043692 852.168189,71.5420281 C853.0357,71.9096813 853.966846,72.0861704 854.896693,72.217336 C855.996665,72.3887603 857.008328,73.1069242 857.475979,74.1263793 C857.842074,74.9302553 858.02129,75.8146488 858.073237,76.6938477 C856.864306,76.8770899 855.628233,77.5275931 851.657812,77.4587637 C849.354363,77.3026637 847.213767,75.71595 846.326777,75.2769999 C845.426799,74.7107803 844.570976,74.0744325 843.643727,73.5471729 C842.384018,72.8043343 841.330538,71.8012424 840.538609,70.5512736 C839.746681,69.3011749 839.226954,67.9070538 839.839925,66.5578667 C840.210046,66.259043 840.676268,66.0876187 840.984053,65.7071087 C840.784188,65.2972488 840.097062,64.5188266 839.758109,64.325325 C837.721796,63.1149655 835.597174,62.026681 833.351775,61.253973 C832.294659,60.8994364 830.852487,60.7058048 829.838876,59.8267359 C829.047987,59.0124704 827.54244,57.2239436 826.789601,55.7060594 C826.001309,53.9216883 825.440284,52.0503064 824.762379,50.2243779 C824.531216,49.6763396 824.545502,49.0750559 824.553294,48.4919536 C824.111746,48.4841616 823.623447,48.525719 823.259819,48.2244278 C821.485838,47.011471 819.736531,45.6868287 818.440459,43.9505084 C816.987248,41.8375741 816.738424,38.9218026 817.555286,36.5504332 C817.792943,35.8361653 818.145661,34.4841211 820.011848,32.9520814 C820.28327,32.765073 820.591055,32.6429982 820.887151,32.5014433 C821.240389,33.8858243 821.66895,35.2494267 822.153353,36.5922503 C822.458541,37.5753427 823.368908,38.158445 824.096162,38.8142728 C824.509139,39.2051722 825.116916,39.1882895 825.641578,39.103876 C826.436363,39.0012812 827.076607,38.4831123 827.763603,38.1168876 C828.689554,37.6389775 829.55187,37.0519791 830.41029,36.4636821 C832.151805,35.3416322 833.489434,33.706608 835.243936,32.6014408 C836.30365,31.7443193 837.578943,31.2469291 838.838652,30.7664216 C840.755487,30.1781246 842.715178,29.666449 844.724219,29.5534648 C845.789128,29.6067102 846.859231,29.6560597 847.912451,29.823588 C848.972165,30.1378658 850.077332,30.3222768 851.082502,30.7975896 C851.996765,31.2352411 852.955183,31.572895 853.856459,32.0404158 C854.642154,32.4443018 855.525248,32.5884541 856.335618,32.9313027 C856.94859,33.1845431 857.592729,33.3598634 858.249986,33.4507702 C858.970617,33.5624558 859.714754,33.8741363 860.444606,33.6364799 C860.956282,33.4546662 861.431725,33.1767511 861.86535,32.8533825 C862.426375,32.4430032 862.748445,31.8092527 863.083502,31.2183584 C863.782185,30.0417643 863.897767,28.6482926 864.166591,27.332741 C864.322432,26.4223741 864.574373,25.5327859 864.874366,24.6600804 C863.770497,25.4366844 862.717277,26.2951045 861.526398,26.9353483 C858.588808,28.5469964 855.207075,29.3261978 851.861703,29.2002269 C847.420256,29.066464 843.04504,27.3184556 839.73733,24.3509972 C841.4256,23.4328382 843.174907,22.6237675 844.960577,21.9107983 C843.360617,20.5329105 841.935977,18.9368465 840.848991,17.1213073 C841.706113,16.934299 842.576221,16.8057308 843.442433,16.6641759" id="Fill-2-Copy-9"></path>
            <path d="M941.309023,15.4463469 C945.094643,14.2528701 949.042597,13.598341 953.004966,13.4243194 C959.241044,13.1580922 965.591535,14.1801447 971.270614,16.8294293 C975.561416,18.9150915 979.337945,21.9267047 982.719679,25.2642838 C984.306652,26.8811266 985.984533,28.4057639 987.533845,30.0602681 C987.698776,30.2615618 987.913056,30.4433755 987.998898,30.6953172 C987.605271,32.2121625 986.531272,33.5147275 985.183254,34.2939288 C983.924844,35.1861143 982.453452,35.7666193 980.928815,35.9938864 C979.544434,36.1782974 978.130183,36.3964738 976.866578,37.0237309 C975.608168,37.6315079 974.51339,38.5444722 973.582245,39.5795113 C972.800446,40.6093557 971.926442,41.565176 971.158928,42.6067085 C970.344663,43.7274598 969.321312,44.6689947 968.429126,45.7235139 C967.634341,46.6572569 966.74735,47.5065863 965.831789,48.3208517 C965.161675,48.9039541 964.563119,49.5740672 963.826644,50.0779508 C961.753059,51.5712902 960.565816,51.6410287 958.978843,52.7610007 C958.407298,53.2648843 957.877441,53.8181172 957.412518,54.423297 C958.485218,54.5142038 959.417663,55.0830208 960.379976,55.5128802 C960.637113,55.6505391 961.02022,55.8024833 961.008532,56.1516954 C961.037103,57.3621847 961.005935,58.5738428 960.964377,59.7842022 C960.959313,60.2140616 960.725292,61.7548024 959.233382,63.6711183 C957.907441,65.3125059 956.552799,66.9541533 954.950242,68.3372357 C953.794426,68.1852914 952.681467,67.5736184 952.064599,66.5645526 C951.471108,65.7204178 951.441368,64.6087572 951.699673,63.6399502 C951.962005,62.8282822 952.680298,62.2945292 953.299633,61.7594776 C953.717805,61.365981 954.945566,60.8292411 955.308674,60.067312 C955.00998,59.9841972 954.724273,59.855629 954.417787,59.8101756 C953.947669,59.8010849 953.490538,60.016664 953.019121,59.9348478 C950.870214,59.8179676 948.264694,58.2439809 947.191994,57.5425698 C946.967324,57.3920541 946.729667,57.2621872 946.475128,57.168683 C946.167344,59.1140891 945.221913,60.8763828 944.195964,62.530887 C943.576499,63.6074835 942.738858,64.5295384 941.955761,65.4853588 C940.702545,66.8709086 938.983107,67.8047814 937.958458,69.3995469 C937.807812,69.6281126 937.720801,70.077452 938.074039,70.1644628 C938.585715,70.3280951 939.112974,70.4449753 939.640234,70.5462715 C941.722,70.7047091 943.855713,70.9423655 945.777743,71.8124737 C946.864729,72.2928513 947.843925,73.1656867 948.21015,74.3228007 C948.504948,75.2084929 948.455598,76.1682092 948.319238,77.0785761 C947.755616,77.1370162 947.193292,77.0500054 946.632267,77.01624 C945.20503,76.9266319 943.782988,76.7876743 942.358348,76.6720928 C937.059259,76.2223637 933.427402,75.0994047 932.298858,74.2578673 C931.450828,73.5500927 930.527474,72.9033556 929.896321,71.980002 C929.236597,71.2475527 928.940501,70.2280976 929.07816,69.2566933 C929.308024,68.4112598 929.966449,67.7917947 930.435269,67.0788255 C930.839155,66.4436465 931.284598,65.8347007 931.656017,65.1801716 C932.088474,64.4269436 932.593656,63.6944943 932.818326,62.845035 C932.957284,61.9684335 932.744302,60.9567704 932.019645,60.3815899 C931.226158,59.7478395 930.319687,59.27902 929.424904,58.8076032 C928.534407,58.4578717 927.090807,56.686747 926.463939,55.3089892 C925.852785,53.9657759 925.115921,52.1942616 924.845798,49.8089964 C924.682165,49.2868017 924.767877,48.2818917 924.799046,47.7480089 C924.356199,47.7351521 923.865303,47.7700862 923.499078,47.4702236 C921.871846,46.5997258 920.893429,46.3812897 919.081006,43.5781129 C917.642081,41.5443973 917.513513,38.7964139 918.301805,36.4873806 C918.945685,34.812747 920.400454,32.7705902 921.530296,32.4939737 C921.92639,33.8757574 922.362743,35.2523465 922.971818,36.5575087 C923.219864,37.1068457 923.727644,37.4613823 924.173087,37.8405936 C924.670477,38.2340903 925.174361,38.7457658 925.862655,38.7068058 C926.730166,38.7912192 927.549626,38.4613573 928.29766,38.0613673 C929.606718,37.4808623 930.822272,36.7159463 932.020943,35.936745 C933.21442,35.0601435 934.274134,34.010819 935.514363,33.1965536 C936.190969,32.7394221 936.841602,32.2238506 937.609116,31.9212607 C939.489588,31.0550485 941.493434,30.4836342 943.510267,30.0316974 C944.786859,29.7044329 946.116696,29.7797557 947.421858,29.7498863 C948.782863,29.8758572 950.158153,29.9914387 951.471108,30.3966234 C952.507445,30.6173971 953.515213,30.9641417 954.559342,31.1381633 C955.733339,31.2212782 956.887856,31.5797108 958.07354,31.4641292 C958.999491,31.4186758 960.031933,31.5771134 960.820225,30.966739 C962.273436,30.0888389 963.105882,28.5447215 963.738334,27.0252789 C964.373383,25.1876624 964.820125,23.2903071 965.485044,21.4617813 C965.016224,21.7734618 964.557924,22.102025 964.094169,22.4227963 C961.513714,24.5058612 958.32808,25.7824527 955.05933,26.2629602 C950.655544,26.8980093 946.045269,25.9694611 942.233676,23.6747131 C941.727195,23.3656299 941.215519,23.0578454 940.76618,22.6695434 C942.363543,21.5968428 944.041423,20.6488145 945.750471,19.7670183 C944.192068,18.6696431 942.78561,17.3605848 941.568757,15.893089 C941.451877,15.7632221 941.370061,15.6086805 941.309023,15.4463469" id="Fill-2-Copy-10"></path>
            <path d="M1051.46884,10.925379 C1055.64912,10.3903274 1059.92707,10.4111061 1064.0632,11.2695262 C1066.95274,11.8850953 1069.76968,12.870785 1072.3878,14.2421794 C1076.68756,16.5823808 1080.55383,19.6797061 1083.94452,23.2003975 C1085.47189,24.8484084 1087.12107,26.4016164 1088.43155,28.2353369 C1088.14831,29.035317 1087.74066,29.796337 1087.14834,30.411906 C1086.44848,31.2248728 1085.48487,31.733951 1084.54581,32.2196531 C1083.46155,32.7209393 1082.29794,33.075476 1081.10433,33.1832655 C1079.78112,33.3040417 1078.41479,33.3988445 1077.19027,33.9585708 C1075.72667,34.5988146 1074.55125,35.7793046 1073.73309,37.1325176 C1072.90064,38.3143064 1072.24092,39.6038846 1071.43315,40.8012573 C1070.65797,41.9817474 1069.99695,43.2362615 1069.1632,44.3777915 C1068.61503,45.1284221 1068.15803,45.9491809 1067.53844,46.6439688 C1066.43976,47.7127733 1065.37109,48.8179405 1064.17891,49.7815529 C1063.9906,49.9932359 1063.92294,50.2815404 1063.7958,50.5295862 C1065.63524,49.9918074 1066.95157,50.2295936 1067.66973,50.2906311 C1068.81386,50.5268589 1069.75436,52.5217443 1069.87227,53.6437942 C1069.99006,54.7658441 1070.02747,55.728937 1069.6554,57.5773325 C1069.2832,59.4259877 1068.15154,61.3734716 1067.12819,63.1396613 C1065.90095,63.3980964 1064.54501,63.0942079 1063.62698,62.2200738 C1062.95686,61.6604774 1062.66843,60.7773825 1062.55687,59.9397411 C1062.43077,58.9631421 1063.07011,57.8740783 1063.64386,57.4255181 C1064.06891,57.0627999 1064.78669,56.8943625 1064.79188,56.225548 C1063.99956,56.2645081 1062.58038,57.7894051 1061.51002,58.4073118 C1060.43978,59.0252185 1058.59321,58.8683392 1057.49453,58.5982161 C1056.48689,58.3683517 1053.49022,57.9982311 1051.83493,56.225548 C1051.03963,55.1267442 1050.97002,54.6775347 1050.73769,53.8230105 C1050.42081,52.7397908 1050.15588,51.624364 1050.1429,50.4919248 C1049.11565,49.6698673 1048.39489,48.490676 1048.17411,47.1907084 C1047.9975,46.1699546 1048.5454,45.4460766 1048.36229,44.4228553 C1048.31814,44.3903886 1046.29507,45.8968445 1045.3586,49.5075337 C1045.22471,50.1789455 1045.05731,50.8789281 1045.22094,51.5607293 C1045.45977,52.6918699 1045.67807,53.8528799 1045.54938,55.0138899 C1045.44821,55.9047768 1045.38444,56.8164424 1045.05978,57.6618758 C1044.64031,58.7839258 1044.21317,59.9306504 1043.46514,60.8825747 C1042.55737,62.2422811 1041.37169,63.3773177 1040.19237,64.4967703 C1039.34057,65.2097395 1038.42631,65.8460873 1037.52633,66.4954218 C1036.34064,67.1694309 1035.10171,67.7486373 1033.8459,68.2797929 C1033.19397,68.6538095 1032.51217,68.9940608 1031.91738,69.4563869 C1032.97579,69.545995 1034.03148,69.6862513 1035.07042,69.907025 C1036.83154,70.483634 1038.63137,71.1771232 1039.98731,72.4861815 C1041.01975,73.4134311 1041.84817,74.7445667 1041.71064,76.1821932 C1041.63791,77.0198346 1041.3626,77.8964362 1040.82365,78.5457706 C1040.33145,78.5405759 1039.90796,78.2457781 1039.46784,78.0626658 C1037.23023,77.0094453 1034.96366,75.8793436 1032.54204,75.3627331 C1030.12028,74.8459928 1027.19412,73.8939386 1026.15648,73.0666865 C1025.18638,72.1706049 1024.24614,71.225174 1023.53057,70.10702 C1023.1098,69.4044401 1022.82267,68.4901772 1023.14993,67.6979892 C1023.71758,66.7019101 1024.69808,66.0486797 1025.46559,65.2214276 C1026.17194,64.5850798 1026.90192,63.9747054 1027.58242,63.3097869 C1028.50837,62.5122743 1029.47458,61.7046322 1030.08496,60.626737 C1030.23171,60.2098642 1030.39001,59.7566288 1030.34988,59.312484 C1029.7512,58.2709515 1027.55476,57.8249886 1026.11492,54.9229831 C1024.96106,52.6101836 1024.71535,49.798046 1025.08248,47.2751219 C1024.64223,47.2517458 1024.16043,47.2751219 1023.79161,46.9931808 C1021.60569,45.9699596 1020.75142,44.8258323 1019.68262,43.3037923 C1018.5242,41.5583813 1018.28512,39.2986974 1018.8216,37.2961499 C1019.62781,34.8545225 1020.88246,33.3754685 1022.17217,32.8300275 C1022.72787,34.2105126 1023.62239,37.0344681 1025.88376,38.4078105 C1026.54998,38.7415684 1027.34736,38.7493604 1028.06812,38.6259869 C1029.74068,38.131194 1031.23817,37.1896591 1032.61866,36.1442306 C1033.58357,35.3351599 1034.47446,34.436481 1035.5017,33.702733 C1037.1614,32.3573121 1039.16005,31.5313586 1041.13013,30.7547546 C1042.31712,30.3404792 1043.50917,29.8976331 1044.76758,29.7586756 C1046.85207,29.3794642 1048.98968,29.4418003 1051.08963,29.654782 C1052.17648,29.6937421 1057.55206,30.1284066 1060.48147,28.6833777 C1062.24636,27.4873036 1063.35945,25.5860523 1064.17748,23.6627237 C1064.86331,21.9484807 1065.46576,20.201771 1066.13587,18.4810347 C1065.67615,18.8082993 1065.20226,19.1121878 1064.73734,19.429063 C1062.2387,21.5290107 1059.15163,22.8783277 1055.95704,23.484806 C1051.05976,24.3860823 1045.83651,23.3744192 1041.64571,20.6822785 C1043.1793,19.4965938 1044.81186,18.4420746 1046.47935,17.4550863 C1044.72615,16.3447244 1043.10801,15.008394 1041.73142,13.4525887 C1044.84563,12.1721011 1048.14295,11.4019905 1051.46884,10.925379" id="Fill-2-Copy-11"></path>
            <path d="M1146.71691,8.67408368 C1150.47526,7.60138316 1154.37906,6.99620344 1158.29324,7.04685153 C1164.02297,7.02477416 1169.73322,8.70784907 1174.56816,11.7766037 C1178.6278,14.3505655 1182.31992,17.4998376 1185.50036,21.1036438 C1186.67435,22.4243901 1187.86653,23.7399417 1188.86781,25.2009443 C1188.586,26.0580658 1188.11068,26.8502538 1187.47044,27.4879002 C1186.75098,28.2476215 1185.80944,28.7450117 1184.86141,29.1592871 C1183.56145,29.6787547 1182.16927,29.9943312 1180.76541,29.9787472 C1179.46674,30.0267979 1178.12392,30.0527713 1176.91486,30.5878229 C1175.82527,31.0514477 1174.93828,31.9241532 1174.36297,32.9501017 C1173.01885,35.2344603 1172.11238,37.738294 1171.06435,40.1642075 C1170.50723,41.675988 1169.44751,42.9225803 1168.65143,44.304364 C1168.71376,44.9368157 1168.74753,45.5719947 1168.80727,46.2043166 C1170.13931,46.5762554 1172.16433,45.4134272 1173.37741,45.2044714 C1174.24999,45.0238266 1176.33137,45.1270707 1177.30965,46.0486062 C1178.40547,46.8876762 1179.81102,49.0159348 1180.03829,50.1938275 C1180.26555,51.3717202 1180.35114,52.5716903 1180.41347,53.7677643 C1180.42269,54.5276155 1180.46931,55.2962977 1180.33425,56.0495256 C1179.53817,56.5612012 1178.60572,56.930153 1177.64471,56.8313243 C1176.37591,56.7678194 1175.23568,55.9184899 1174.67608,54.8015048 C1174.3618,53.9587985 1174.47336,53.0172636 1174.73309,52.1742976 C1174.84478,51.897811 1174.60712,51.6678167 1174.49544,51.439251 C1173.86039,51.4211995 1173.20196,51.5366512 1172.68379,51.925083 C1172.00849,52.43533 1169.27739,53.8547752 1168.64104,54.1404823 C1167.54379,54.6222885 1163.86778,55.5239543 1161.61524,54.7092993 C1159.3627,53.8947742 1158.08156,52.6781811 1156.75302,51.1548425 C1156.65173,51.0223783 1156.51147,50.9327701 1156.34135,50.929004 C1154.58554,50.7106977 1152.99351,49.7173459 1151.81159,48.4315338 C1150.9168,47.1977983 1150.22591,45.8186119 1149.23633,44.6525371 C1149.06101,44.3731934 1148.81816,44.151121 1148.53764,43.9835928 C1148.50648,44.0952783 1147.66364,45.0186319 1147.38702,45.4510886 C1146.84288,46.5328798 1146.07147,47.4823367 1145.5585,48.5810106 C1145.19227,49.3587834 1144.93124,50.1886328 1144.76891,51.0327676 C1144.78839,52.5080555 1144.7767,54.023732 1144.23385,55.4209699 C1143.76504,57.0962528 1142.77285,58.5572553 1141.71314,59.9130656 C1140.11487,61.5988678 1136.78339,63.6688161 1135.65355,64.1129609 C1134.81721,64.4493162 1131.66404,65.4700699 1130.92639,65.6570782 C1129.93811,65.9220067 1126.79922,66.4440716 1126.28235,66.6869227 C1126.86935,66.866139 1127.51349,66.9115924 1128.03296,67.2701549 C1129.52682,68.380387 1130.63809,69.7556773 1131.1199,70.5556574 C1131.48093,71.2427831 1131.82377,71.9465318 1132.07572,72.6817083 C1132.37051,74.0308954 1132.62375,75.4842358 1132.13675,76.8217349 C1131.72897,78.0905344 1130.54588,78.9645386 1129.29916,79.3112832 C1129.15241,79.3269971 1129.00566,79.3373864 1128.85891,79.3425811 C1128.05114,77.7685944 1127.57193,76.0542216 1126.81481,74.4581575 C1126.48105,73.6128539 1125.96938,72.832224 1125.27589,72.243927 C1124.43045,71.7387448 1123.52528,71.3322614 1122.71491,70.7686391 C1121.70844,70.0843704 1120.49549,69.6895751 1119.67862,68.7453129 C1119.20201,68.1311724 1118.7254,67.5143047 1118.32801,66.8440616 C1117.82153,66.0961582 1117.30725,65.3103336 1117.16959,64.3986681 C1117.15141,63.9895874 1117.15531,63.5157031 1117.47868,63.2155807 C1118.24619,62.4623527 1119.21889,61.9766505 1120.14874,61.4586115 C1121.01106,60.8935607 1121.98506,60.5403227 1122.88763,60.0481272 C1123.96293,59.4442462 1128.09919,56.8756089 1128.6784,56.6976913 C1128.52905,55.694989 1127.33544,55.6747298 1126.68884,55.1092893 C1126.04223,54.5439788 1125.19394,52.8576572 1125.11212,51.3266564 C1124.95239,50.0683761 1125.16836,48.0586859 1125.22784,47.3953259 C1125.28731,46.731706 1125.37199,46.406909 1125.52913,45.9354921 C1125.08238,45.9082201 1124.60447,45.9043241 1124.23046,45.6225129 C1122.60829,44.9144786 1121.58507,43.7642476 1120.66042,42.4433714 C1119.56694,40.871982 1119.26565,38.8291758 1119.66174,36.9759753 C1119.68512,36.6876708 1120.39809,35.1396575 1120.72016,34.6201899 C1121.27079,33.737095 1121.99415,32.9163363 1122.95906,32.4773862 C1123.74476,33.9591674 1124.34604,35.6721117 1125.76678,36.6850735 C1126.36547,37.1019462 1126.94468,37.6123231 1127.67972,37.7629687 C1128.34074,37.9045236 1129.04073,37.9863397 1129.70435,37.8084221 C1130.74458,37.5227149 1131.75624,37.0759728 1132.58739,36.3772889 C1133.29906,35.8889894 1133.91333,35.2799137 1134.53799,34.6877207 C1136.98988,32.4864769 1139.87033,30.7644419 1142.95986,29.6255093 C1144.24035,29.2372072 1145.52473,28.8138412 1146.86626,28.7021557 C1149.03763,28.3606057 1151.25186,28.3645017 1153.41804,27.9930824 C1154.66736,27.6307538 1155.98941,27.578807 1157.21145,27.1151822 C1158.31013,26.7112962 1159.47503,26.371045 1160.39319,25.6113236 C1162.4386,23.9762995 1163.83986,21.6867462 1164.91905,19.3335581 C1165.56449,17.914113 1166.22032,16.4985639 1166.76186,15.034964 C1166.03331,15.4817061 1165.28917,15.9115655 1164.65283,16.4868759 C1161.51524,18.8270772 1157.6556,20.1763942 1153.7492,20.3530132 C1149.83501,20.5205415 1145.85459,19.5751105 1142.48974,17.5504857 C1143.97542,16.3050622 1145.58057,15.2089856 1147.20781,14.1570638 C1145.42863,13.0830646 1143.78062,11.7817984 1142.34299,10.2818358 C1143.77023,9.66626673 1145.20656,9.05719101 1146.71691,8.67408368" id="Fill-2-Copy-12"></path>
            <path d="M1254.38403,4.4973919 C1257.66044,4.13246594 1260.99413,4.08960986 1264.25119,4.65842685 C1268.88237,5.44671888 1273.25499,7.45316235 1277.051,10.1946524 C1279.48457,11.9205834 1281.78971,13.832224 1283.89485,15.946457 C1285.41949,17.5009637 1286.86491,19.1333906 1288.2402,20.8216601 C1288.74928,21.4839813 1289.30913,22.112537 1289.75328,22.8242076 C1289.26225,24.430661 1288.02215,25.7397193 1286.517,26.4539872 C1284.91054,27.2500713 1283.10007,27.6072052 1281.31193,27.5461678 C1279.70937,27.5422718 1277.96383,27.4227942 1276.54322,28.3045904 C1275.37818,29.0058716 1274.7769,30.2863592 1274.2899,31.5006146 C1273.35239,33.860296 1273.08616,36.4056871 1272.34332,38.8212113 C1272.18359,39.1510732 1272.5302,39.3822362 1272.755,39.5562579 C1273.50031,40.0017013 1274.33159,40.3627313 1275.21455,40.38351 C1278.07162,40.6809052 1280.99882,40.6679185 1283.76771,41.52504 C1285.86493,42.1717771 1287.84683,43.2886323 1289.33757,44.9184618 C1290.27521,45.9327222 1291.06623,47.0794469 1291.70245,48.3053903 C1291.82595,48.4714901 1291.65959,48.6573296 1291.60128,48.8144686 C1291.12727,49.7313288 1290.28703,50.4754661 1289.27913,50.7377972 C1288.10903,51.0363612 1286.83127,50.7766274 1285.83636,50.1040468 C1285.08443,49.6144486 1284.63912,48.7781058 1283.85992,48.3195458 C1282.4132,47.4235942 1280.60922,47.3948936 1278.98861,47.7351448 C1277.82877,47.8742323 1276.77295,48.3924012 1275.66519,48.7235617 C1273.56277,49.5300351 1271.3562,50.1209295 1269.10042,50.2469004 C1267.05384,50.3455992 1264.98883,49.9649594 1263.11615,49.1326424 C1262.72655,49.1625118 1262.35383,49.2935475 1261.96813,49.3417281 C1260.39687,49.5573072 1258.78912,49.3014694 1257.30604,48.7636906 C1256.55138,48.4923987 1255.90088,48.0131898 1255.21115,47.6183945 C1254.46831,47.2093138 1253.82171,46.6560808 1253.09432,46.2236241 C1252.09435,45.6509111 1251.14632,44.9444352 1250.00882,44.6691174 C1248.79378,44.5576916 1247.57121,46.3118037 1246.85695,47.0573695 C1245.95047,48.0261765 1245.20114,49.1417331 1244.68557,50.3663779 C1244.29078,51.7558238 1244.1439,53.2429296 1243.43885,54.5286118 C1242.96743,55.422096 1242.50121,56.3336317 1241.81668,57.0882882 C1241.08047,57.905151 1240.39347,58.7973365 1239.45843,59.4012175 C1238.59352,59.9830212 1237.7351,60.5998889 1236.7533,60.9752043 C1235.55333,61.4479197 1234.37661,62.00375 1233.10781,62.2698473 C1231.69628,62.5699697 1230.30022,62.9920371 1228.84571,63.0180105 C1227.02367,63.2465762 1225.1471,63.0426852 1223.36779,63.5829314 C1223.16013,63.6465662 1222.82326,63.7077335 1222.79118,63.879028 C1222.75482,64.0742179 1222.71586,64.5660238 1222.86274,64.8827692 C1223.30805,65.9530022 1224.0757,66.7579172 1224.0757,68.1438567 C1224.0757,69.5297961 1223.95102,72.1228483 1223.05884,73.8995573 C1222.57054,75.0488793 1221.79004,76.1371638 1220.6537,76.7150715 C1219.52386,77.2422012 1218.2187,77.1319442 1217.05379,76.7851996 C1217.09275,75.9047021 1217.33301,75.0527753 1217.51482,74.1955239 C1217.76287,73.0930839 1218.63947,70.3788659 1218.24467,68.6970896 C1217.80598,66.8577848 1215.85642,64.4218716 1215.40565,63.2556669 C1215.06553,62.4868549 1214.86034,61.6673948 1214.5136,60.9024788 C1214.25646,60.3063898 1214.12659,59.6673148 1214.01737,59.0310969 C1214.06166,58.6453922 1214.1875,58.2051435 1214.56035,58.0129405 C1217.28807,56.719726 1221.95666,55.7037773 1223.33792,55.3375526 C1224.71932,54.9714579 1226.83654,53.8623946 1227.5586,53.9310942 C1227.58847,53.1015045 1226.68628,53.1015045 1226.23408,52.3181474 C1225.35138,50.019893 1225.51059,49.0858904 1225.5028,48.5364235 C1225.51579,47.4794369 1225.70306,45.5172781 1226.34447,44.0508211 C1225.88085,43.9951082 1225.39644,43.850956 1225.00035,43.5782355 C1223.63804,42.7379967 1222.79222,42.0846364 1222.01432,40.6520747 C1221.53511,39.8327445 1221.23057,39.1462681 1221.0224,37.884871 C1220.81435,36.6234739 1221.21979,35.0239034 1221.85627,33.7564025 C1222.35613,32.9239557 1222.9978,32.110989 1223.88869,31.6772336 C1224.7236,32.887593 1225.55618,34.1460032 1226.75095,35.0381887 C1227.61976,35.6524591 1228.53519,36.2758202 1229.60803,36.4550365 C1230.85864,36.7797037 1232.1729,36.5017886 1233.34559,36.0251771 C1234.30791,35.4550615 1235.1962,34.7706629 1236.04942,34.0473044 C1237.76886,32.7551288 1239.51038,31.4746412 1241.39604,30.4305114 C1242.92587,29.6383234 1244.53609,29.008469 1246.18034,28.4993908 C1248.4582,27.9747285 1250.76594,27.5825305 1253.03588,27.0202069 C1253.84106,26.8331985 1254.58779,26.4669739 1255.37492,26.2241228 C1256.12022,26.0072451 1256.87085,25.7851727 1257.56707,25.4345321 C1258.74353,24.8371444 1259.96039,24.2605354 1260.93192,23.3462725 C1262.99031,21.4722933 1264.51625,19.0931318 1265.79024,16.6386476 C1266.51477,15.2127091 1267.23046,13.7841733 1267.83045,12.3010934 C1267.11099,12.7517315 1266.35113,13.1452282 1265.71349,13.7101492 C1262.42915,16.126972 1258.38263,17.4827824 1254.30871,17.5684945 C1250.59581,17.6308306 1246.85695,16.7100744 1243.63755,14.8503805 C1243.73495,14.742591 1243.83235,14.6361001 1243.9439,14.5412973 C1245.33491,13.4036633 1246.80097,12.3634295 1248.30223,11.3764411 C1246.52059,10.3037406 1244.86738,9.0050717 1243.41158,7.52069313 C1244.44012,7.06875635 1245.46607,6.60383288 1246.52968,6.23890691 C1249.09585,5.45321222 1251.71903,4.83244848 1254.38403,4.4973919" id="Fill-2-Copy-13"></path>
            <path d="M1353.89009,3.75474199 C1357.8809,3.3573493 1361.94833,3.43137343 1365.882,4.26901488 C1370.44033,5.24950991 1374.7623,7.20790263 1378.60376,9.83900584 C1383.18936,12.9168512 1387.16848,16.8245459 1390.69307,21.0582066 C1390.32554,22.6244013 1389.27232,23.982809 1387.89444,24.7996717 C1386.33733,25.7334147 1384.52829,26.2126235 1382.71924,26.2723623 C1381.05565,26.3489837 1379.27777,26.1957408 1377.75573,26.9944222 C1376.5129,27.646354 1375.835,28.9645029 1375.43241,30.2514838 C1375.01294,31.6384622 1374.67269,33.0994647 1374.83372,34.5552726 C1374.8519,35.1033109 1374.84152,35.6513492 1374.83113,36.1993874 C1376.00253,36.914954 1377.42067,36.7889831 1378.71025,37.1058583 C1381.61537,37.6227286 1384.44647,38.5746529 1387.05679,39.9538393 C1387.83859,40.3578552 1388.82818,40.9109583 1389.56582,41.3864009 C1392.47744,42.9368818 1394.91764,45.0472187 1396.57474,47.9536398 C1396.27475,49.3691889 1394.93062,50.4795508 1393.4917,50.6029244 C1392.00992,50.7796732 1390.54242,50.0951448 1389.50479,49.0678977 C1388.65805,48.2368795 1387.64639,47.6004018 1386.62434,47.0095075 C1385.62047,46.4848452 1384.58153,45.9952471 1383.46598,45.7705773 C1382.28549,45.5290249 1381.07772,45.3433153 1379.87126,45.4551307 C1377.40444,45.6355158 1374.09842,46.3830296 1372.94922,46.667568 C1371.79977,46.9521063 1369.11309,47.2926173 1367.29235,46.9485999 C1366.85081,46.8199018 1366.45341,47.1030116 1366.04303,47.2135284 C1363.61842,47.9757171 1360.95485,47.8576681 1358.5653,47.0211955 C1358.05362,46.8484725 1357.53286,46.6978269 1357.03936,46.4783519 C1355.30304,45.7108386 1353.57711,44.9212479 1351.84598,44.1420465 C1350.32135,43.4563493 1348.72398,42.7381854 1347.01104,42.8277936 C1346.29547,42.8057162 1345.60328,42.9928544 1344.95005,43.2694709 C1343.66697,43.7056938 1342.54752,44.5550232 1341.70987,45.6122696 C1341.54754,45.8809642 1341.493,46.1991381 1341.38521,46.4926372 C1340.65665,48.7445291 1339.145,50.655001 1337.43855,52.2561299 C1335.12692,54.232704 1332.26855,55.3885193 1329.47641,56.5040759 C1328.48813,56.9014686 1327.45179,57.1599037 1326.44142,57.4950901 C1324.27265,58.0546866 1322.04933,58.6546716 1320.16885,59.9182765 C1318.86239,60.8624088 1316.31181,62.4470446 1314.04173,64.5780304 C1313.05994,65.6700811 1312.07944,66.7674563 1311.07817,67.8453515 C1310.35351,68.6816943 1309.43016,69.4336236 1308.30811,69.6167359 C1306.96399,69.879067 1305.61986,69.3193407 1304.53158,68.5674114 C1305.17182,67.3440653 1305.77571,66.1025378 1306.43413,64.8882824 C1307.06918,63.8792167 1307.54709,62.7636601 1308.34577,61.8662798 C1308.86913,61.2598015 1309.27432,60.5546242 1309.86521,60.0091833 C1311.01064,58.8975227 1312.06386,57.692358 1313.03137,56.4236883 C1313.90407,55.2950151 1314.4651,53.9703729 1315.22612,52.7704028 C1315.89363,51.7067929 1317.20659,51.361347 1318.37279,51.1899227 C1320.3208,50.7951274 1322.35451,50.0602106 1323.62591,48.4472638 C1324.70251,47.0991156 1324.9038,45.2783818 1324.709,43.6173843 C1324.18304,40.8344667 1324.79601,37.8551903 1326.35571,35.4916129 C1325.61937,35.2656445 1324.87783,35.0266894 1324.2233,34.612414 C1322.49347,33.6150363 1321.30649,31.721577 1321.1961,29.7242242 C1321.07402,27.9281651 1321.81037,26.1061327 1323.09995,24.8594105 C1324.31161,25.7944521 1325.63105,26.5788481 1326.97128,27.3125961 C1329.70368,28.7839879 1332.9984,29.1670953 1335.98924,28.3385445 C1337.11518,28.0736161 1338.20347,27.6710287 1339.32552,27.3840229 C1341.4865,26.8424779 1343.62801,26.1710661 1345.85003,25.9217217 C1346.96689,25.7931534 1348.08764,25.6762732 1349.21228,25.6243265 C1351.91481,25.6100411 1354.67708,25.7191293 1357.30299,24.9697974 C1358.04713,24.7879837 1358.81075,24.6490261 1359.51333,24.3295536 C1360.65875,23.8165794 1361.7873,23.2036076 1362.67039,22.2971367 C1364.53268,20.4608189 1365.76122,18.0829561 1366.66769,15.6557439 C1367.18197,14.3025309 1367.69364,12.9480192 1368.20142,11.5922089 C1367.7352,11.9064868 1367.26638,12.21557 1366.80016,12.5285492 C1364.18853,14.6479768 1360.96913,15.9674244 1357.65493,16.471308 C1352.84336,17.1868746 1347.78764,16.0453446 1343.74359,13.3454119 C1345.24355,12.1220658 1346.95779,11.1974135 1348.59542,10.1766598 C1346.88247,9.03383112 1345.32667,7.65074873 1343.99293,6.08325535 C1347.16169,4.84172787 1350.52004,4.16122536 1353.89009,3.75474199" id="Fill-2-Copy-14"></path>
            <path d="M1444.31878,4.37269949 C1447.57714,3.56103142 1450.9407,3.23116951 1454.29256,3.17402808 C1460.37423,3.09221194 1466.48044,4.18569116 1472.1129,6.49472449 C1479.03091,9.29075866 1485.10218,13.9205133 1490.08647,19.4320642 C1490.40465,19.8099769 1490.80464,20.1346441 1491.0397,20.5735942 C1490.86697,21.8203163 1490.11621,22.9358729 1489.18779,23.759229 C1488.02029,24.7747881 1486.5476,25.3734745 1485.0566,25.7267124 C1483.16197,26.1682599 1481.16462,25.8643713 1479.29583,26.4448763 C1478.2282,26.7721409 1477.34264,27.5851076 1476.8907,28.6019654 C1476.06475,30.4123099 1475.92449,32.4512201 1476.03358,34.4148075 C1476.06994,35.2018008 1476.18422,35.9874955 1476.12059,36.7757875 C1476.8881,37.3861619 1477.8634,37.613429 1478.79052,37.8627734 C1482.14901,38.8601511 1485.43464,40.2198575 1488.32418,42.226301 C1489.14494,42.7873259 1489.84232,43.5093859 1490.70334,44.0145681 C1493.22782,45.7911471 1495.51361,48.0482337 1496.84085,50.8715399 C1496.94345,51.1234817 1496.73176,51.3611381 1496.62657,51.5754185 C1496.0136,52.6169509 1494.85908,53.3091415 1493.64742,53.3338162 C1492.23174,53.397451 1490.88503,52.6726638 1489.94622,51.6507413 C1489.54103,51.1897138 1489.14741,50.7142711 1488.67482,50.322203 C1487.07616,48.9508086 1485.26062,47.7495399 1483.19833,47.2261763 C1482.24251,46.9495598 1481.25553,46.768915 1480.25945,46.7585256 C1478.91922,46.8002129 1477.60237,47.0729334 1476.275,47.227475 C1474.82841,47.2831878 1473.38299,47.3701987 1471.94147,47.5183768 C1470.41034,47.6209716 1468.87921,47.4040939 1467.41042,46.9820265 C1465.56618,47.5547395 1463.58571,47.6443477 1461.68848,47.2937071 C1458.93777,46.8286537 1456.40679,45.5924508 1453.89127,44.4444275 C1451.19004,43.226276 1448.51738,41.8094282 1445.55901,41.3341154 C1443.54478,40.9846436 1441.34353,41.2133392 1439.61111,42.3652585 C1439.27475,42.5587602 1439.1345,42.9366729 1438.9371,43.2496521 C1437.90076,45.0093484 1436.38392,46.4404816 1434.70863,47.5872062 C1432.45414,49.1040515 1429.80486,49.8572795 1427.22311,50.6105075 C1425.99586,50.9843942 1424.74005,51.2533486 1423.49333,51.5572371 C1421.14793,52.0338486 1418.78046,52.7078578 1416.7896,54.0844468 C1414.98835,55.3090916 1413.12476,56.4480242 1411.40921,57.7934452 C1410.75728,58.2103179 1410.2547,58.806407 1409.65471,59.2869145 C1408.95733,59.8440434 1408.30929,60.4646773 1407.56515,60.9647947 C1406.56388,61.7595801 1405.35352,62.4413813 1404.03278,62.3621625 C1402.70943,62.3517731 1401.57699,61.5308845 1400.68091,60.6310368 C1402.4458,58.4869344 1404.08992,56.2285492 1406.08078,54.2844418 C1406.41324,53.9247105 1406.7418,53.5558886 1407.1275,53.2518702 C1409.00668,51.6208719 1410.72352,49.780658 1412.08193,47.6898011 C1412.76503,46.7157994 1413.44163,45.5703734 1414.65069,45.1976554 C1415.65456,44.7275373 1416.79999,44.8600015 1417.83503,44.4950756 C1419.74147,43.9898934 1421.46611,42.7053799 1422.32063,40.9055547 C1423.54008,38.4926278 1423.51541,35.7056844 1424.47642,33.2070454 C1424.85044,32.2642117 1425.25952,31.2876127 1426.00366,30.5694488 C1426.21924,30.3486751 1426.38417,30.086344 1426.55169,29.8279089 C1425.71795,29.6473939 1424.85304,29.4967483 1424.11929,29.0344221 C1422.34531,27.9539296 1421.21157,25.8721633 1421.34014,23.7890984 C1421.46091,22.5073122 1421.89207,21.2268246 1422.69075,20.2047722 C1423.94007,20.8748854 1425.30887,21.2839661 1426.58936,21.8878471 C1427.70102,22.4267947 1428.90488,22.7215926 1430.07888,23.0878172 C1432.84764,23.8111758 1435.72549,24.0163655 1438.57867,23.947536 C1440.74355,23.8851999 1442.91103,23.8683172 1445.07721,23.9501334 C1447.16676,23.9903921 1449.24334,24.2618139 1451.30692,24.5708971 C1453.43401,24.9501084 1455.59253,25.3111384 1457.76131,25.1539994 C1459.06387,25.0085485 1460.40669,24.8436176 1461.5716,24.1955818 C1463.27935,23.367031 1464.5027,21.8086283 1465.33255,20.1385401 C1466.67524,17.5191249 1466.99095,14.5334851 1468.13507,11.8374484 C1466.05201,13.3932538 1463.76765,14.7321814 1461.24291,15.4204759 C1455.1067,17.2515991 1448.1044,15.7360525 1443.27336,11.5361572 C1444.94864,10.5868302 1446.68756,9.75957814 1448.45504,8.99855815 C1446.86547,7.66352651 1445.4707,6.10122781 1444.31878,4.37269949" id="Fill-2-Copy-15"></path>
        </g>
    </g>
</svg>