<?xml version="1.0" encoding="utf-8"?>
<!-- Generator: Adobe Illustrator 19.2.1, SVG Export Plug-In . SVG Version: 6.00 Build 0)  -->
<svg version="1.1" id="Layer_1" xmlns="http://www.w3.org/2000/svg" xmlns:xlink="http://www.w3.org/1999/xlink" x="0px" y="0px"
	 viewBox="0 0 260.4 158" style="enable-background:new 0 0 260.4 158;" xml:space="preserve">
<style type="text/css">
	.st0{fill:#1A1A1A;}
</style>
<path class="st0" d="M208,99.7L208,99.7C208,99.7,208,99.7,208,99.7C207.9,99.7,207.9,99.7,208,99.7c-1.2-0.3-2.2-0.6-3.1-1
	c-0.9-0.4-1.6-0.9-2.2-1.5c0-0.1,0-0.1,0-0.2c0.6-5.1,0-9.7,0.5-14.9c2-20.2,14.7-13.8,26.1-17.1c7.1-2,14.2-6.1,16-14.5
	c-7.8-9.1-16.5-17.1-26-23.9C188.4,4.6,148-4.2,111.3,1.9c13.4,23.4,42.1,34.1,67.8,24.3c-21.3,12.1-47.3,8.5-64.6-7.3
	c-2.5,1-4.9,2.1-7.3,3.3c19.5,18.7,50,20.8,71.9,4c-0.1,0.2-2,3.1-4.3,15.2c-5.1,25.8-19.8,23.8-38,17.3C99,45,78.2,57.7,59.3,31.7
	c-5.5,3.1-8.9,8.9-8.9,15.2c0,6.5,3.6,12,8.8,15c6.9-4.8,14.7-7.8,22.8-8.8c-15.7,4.8-22.3,12.1-25.6,22.6c-4,12.7-2.3,25.7-21,29.1
	c-9.9,0.5-9.7,7.2-13.3,17.2c-4.5,13-10.5,18.2-22.2,30.5c4.8,5.8,9.8,6.5,14.9,4.4c10.5-4.4,18.6-18,26.2-26.8
	c8.5-9.8,28.9-5.6,44.3-15.2c10.6-6.5,15.8-15.3,8.8-30.2c4.5,5,7.2,11.3,7.6,18c17.8-2.3,41.6,19.4,63.3,23c0,0,0,0,0,0
	c-2.2-2.8-4-5.8-5.3-8.9c-2.5-6-3.3-11.5-2.8-16.3c2,11.9,14,27.2,33.3,28.6c4.9,0.4,10.3-0.2,15.9-1.9c6.7-2,12.9-4.6,20.3-3.2
	c5.5,1,10.6,3.8,13.8,8.5c4.8,7,15.3,8.5,20-0.1C249.6,104.7,220.4,102.9,208,99.7z"/>
</svg>
