<?xml version="1.0" encoding="UTF-8" standalone="no"?>
<svg width="22px" height="23px" viewBox="0 0 22 23" version="1.1" xmlns="http://www.w3.org/2000/svg" xmlns:xlink="http://www.w3.org/1999/xlink">
    <!-- Generator: Sketch 40.3 (33839) - http://www.bohemiancoding.com/sketch -->
    <title>Combined Shape</title>
    <desc>Created with Sketch.</desc>
    <defs></defs>
    <g id="Welcome" stroke="none" stroke-width="1" fill="none" fill-rule="evenodd">
        <g id="Login-(Desktop)" transform="translate(-499.000000, -570.000000)" fill="#FFFFFF">
            <g id="Inside" transform="translate(470.000000, 360.000000)">
                <g id="Alternate-Auth" transform="translate(20.000000, 201.000000)">
                    <path d="M13.8789635,22.4191135 C13.4080383,21.0178281 13.4023248,19.4755999 13.8678574,18.0827869 C14.2168831,17.0606746 14.7720367,16.1494986 15.5082186,15.4012482 C16.4133603,14.4719693 17.5900445,13.8081988 18.8632772,13.5366562 C19.9494472,13.3073537 21.0959601,13.3495936 22.157993,13.6694104 C23.0631347,13.9409529 23.8958651,14.441798 24.5777385,15.0935 C25.2656462,14.4055923 25.9535539,13.7176846 26.6414616,13.0297769 C27.0035183,12.6616859 27.3836778,12.3056635 27.7336659,11.925504 C26.6837015,10.947951 25.4587431,10.1755634 24.1191334,9.68075256 C21.7054221,8.79371369 18.9839627,8.77561086 16.558183,9.61437551 C16.4151935,9.66330127 16.2733103,9.71526515 16.1326231,9.77018682 C13.5837959,10.7651861 11.4275587,12.7307232 10.1980539,15.1840142 C9.74548303,16.0770873 9.41963202,17.024469 9.22050084,18.0080563 C8.72569004,20.4459046 9.06964389,23.0466785 10.1920196,25.2672928 C10.9221673,26.7155195 11.9721316,28.006855 13.23933,29.0145795 C14.4401514,29.9679954 15.8340696,30.6800402 17.318502,31.0722683 C19.1891282,31.5731134 21.1804399,31.5610448 23.0631347,31.1326111 C24.7648011,30.740383 26.3759534,29.9257554 27.6612546,28.7430369 C29.0189671,27.4939414 29.9904859,25.8526178 30.5033995,24.0845743 C30.9384756,22.5922168 31.0797703,21.0200669 30.9582144,19.4665401 C30.9234511,19.0138907 30.8661968,18.5631197 30.7870106,18.1166733 L20.227024,18.1166733 C20.227024,19.5769686 20.227024,21.0372639 20.2209897,22.4975592 L26.3387295,22.5035934 C26.1022967,23.8995357 25.2719552,25.174897 24.0991602,25.9644687 C23.3527801,26.4620798 22.5019468,26.7818966 21.6209422,26.9387878 C20.7339034,27.0896448 19.8227274,27.1137819 18.9417228,26.9327535 C18.0486496,26.7517252 17.1917822,26.3776 16.4435317,25.8526178 C15.347509,25.0831877 14.4952251,23.9887726 13.9984753,22.7463817 C13.9558571,22.6383664 13.9159923,22.5292382 13.8789635,22.4191135 Z" id="Combined-Shape"></path>
                </g>
            </g>
        </g>
    </g>
</svg>