<?xml version="1.0" encoding="UTF-8" standalone="no"?>
<svg width="24px" height="24px" viewBox="0 0 24 24" version="1.1" xmlns="http://www.w3.org/2000/svg" xmlns:xlink="http://www.w3.org/1999/xlink">
    <!-- Generator: Sketch 40.3 (33839) - http://www.bohemiancoding.com/sketch -->
    <title>Fill 50</title>
    <desc>Created with Sketch.</desc>
    <defs></defs>
    <g id="Welcome" stroke="none" stroke-width="1" fill="none" fill-rule="evenodd">
        <g id="Login-(Desktop)" transform="translate(-678.000000, -569.000000)" fill="#FFFFFF">
            <g id="Inside" transform="translate(470.000000, 360.000000)">
                <g id="Alternate-Auth" transform="translate(20.000000, 201.000000)">
                    <path d="M199.998895,8 C193.373277,8 188,13.3725406 188,20.0003683 C188,25.3021885 191.438043,29.7995641 196.206513,31.3863532 C196.8069,31.4968538 197.025691,31.1263084 197.025691,30.8080665 C197.025691,30.5229749 197.015378,29.768624 197.009485,28.7674883 C193.671629,29.4923724 192.967372,27.1585991 192.967372,27.1585991 C192.421499,25.7721845 191.634734,25.4031124 191.634734,25.4031124 C190.545198,24.6590749 191.717241,24.6738083 191.717241,24.6738083 C192.921698,24.7585254 193.555235,25.9106787 193.555235,25.9106787 C194.625618,27.7442524 196.364161,27.2145861 197.047792,26.9073943 C197.156819,26.1324166 197.466957,25.6034869 197.809509,25.3036619 C195.144971,25.0008901 192.343411,23.9710243 192.343411,19.3727248 C192.343411,18.062924 192.811197,16.9910679 193.578808,16.1527364 C193.455048,15.849228 193.043249,14.6285644 193.696676,12.9769483 C193.696676,12.9769483 194.703705,12.6542865 196.996225,14.2071887 C197.95316,13.9405138 198.980079,13.8079131 200.000368,13.8027564 C201.019921,13.8079131 202.046103,13.9405138 203.004512,14.2071887 C205.295558,12.6542865 206.301114,12.9769483 206.301114,12.9769483 C206.956015,14.6285644 206.544216,15.849228 206.421192,16.1527364 C207.190276,16.9910679 207.654379,18.062924 207.654379,19.3727248 C207.654379,23.982811 204.848399,24.9972068 202.175757,25.2940851 C202.605973,25.6646306 202.989779,26.3968814 202.989779,27.5158845 C202.989779,29.1203536 202.975045,30.4146843 202.975045,30.8080665 C202.975045,31.129255 203.191627,31.5027472 203.800117,31.3856165 C208.564904,29.7951441 212,25.3007152 212,20.0003683 C212,13.3725406 206.626723,8 199.998895,8" id="Fill-50"></path>
                </g>
            </g>
        </g>
    </g>
</svg>