<?xml version="1.0" encoding="UTF-8" standalone="no"?>
<svg width="11px" height="22px" viewBox="0 0 11 22" version="1.1" xmlns="http://www.w3.org/2000/svg" xmlns:xlink="http://www.w3.org/1999/xlink">
    <!-- Generator: Sketch 40.3 (33839) - http://www.bohemiancoding.com/sketch -->
    <title>Fill 4</title>
    <desc>Created with Sketch.</desc>
    <defs></defs>
    <g id="Welcome" stroke="none" stroke-width="1" fill="none" fill-rule="evenodd">
        <g id="Login-(Desktop)" transform="translate(-565.000000, -570.000000)" fill="#FFFFFF">
            <g id="Inside" transform="translate(470.000000, 360.000000)">
                <g id="Alternate-Auth" transform="translate(20.000000, 201.000000)">
                    <path d="M77.2714096,25.4771555 C77.2714096,23.7548159 77.264795,22.0325735 77.2776352,20.3105256 C77.2799698,20.020259 77.1978702,19.9294047 76.9075063,19.9412722 C76.3708437,19.9630616 75.832722,19.9390349 75.2953785,19.9513887 C75.0777757,19.9569334 74.9976217,19.8966233 75.0000535,19.6661803 C75.010851,18.5916878 75.009781,17.5165144 75.0011236,16.4417301 C74.9991781,16.2350221 75.0614336,16.1670274 75.2704762,16.1716965 C75.8198818,16.1843422 76.3704546,16.1563272 76.9188874,16.1834667 C77.23678,16.1990306 77.3025374,16.0860951 77.2959228,15.7911593 C77.2767597,14.9733738 77.2767597,14.1543238 77.2946582,13.336441 C77.3165449,12.3375307 77.584633,11.4048642 78.1796603,10.5927207 C78.9325637,9.5640444 80.003068,9.09382019 81.2380631,9.0387629 C82.5064234,8.98244106 83.7779937,9.01366612 85.0479104,9.00004771 C85.2249497,8.99800495 85.2777697,9.06133055 85.2769915,9.23340888 C85.2713496,10.3202552 85.2701823,11.4074906 85.2777697,12.494337 C85.2795206,12.6877184 85.2163895,12.7468612 85.0266073,12.7438457 C84.4158216,12.7343128 83.8049387,12.738982 83.1945422,12.7406356 C82.3816204,12.7431647 81.8950541,13.1613472 81.8440823,13.9660006 C81.8032271,14.6111241 81.8330903,15.2601386 81.8181101,15.9071103 C81.8125655,16.1376505 81.9495277,16.1217948 82.1020539,16.1216002 C83.0301485,16.1202384 83.9586322,16.1308413 84.8867268,16.1149856 C85.1591922,16.1102191 85.2490737,16.1729611 85.2179459,16.4597259 C85.1011194,17.5396657 85.0007323,18.6216483 84.9082244,19.7042146 C84.8871159,19.9484705 84.7756395,19.9950649 84.5561885,19.9913685 C83.8240045,19.9800847 83.0910422,19.9835865 82.3581773,19.9882557 C81.831923,19.9913685 81.8829921,19.9112144 81.8829921,20.447877 C81.8805602,23.8189197 81.8759883,27.1900596 81.8904822,30.5610049 C81.8919413,30.9170291 81.8009898,31.0053542 81.4487594,30.9991286 C80.191002,30.9759773 78.9325637,30.97481 77.6748064,30.9997123 C77.3203386,31.006716 77.261974,30.8864849 77.264795,30.5703433 C77.2782188,28.872614 77.2714096,27.1749821 77.2714096,25.4771555" id="Fill-4"></path>
                </g>
            </g>
        </g>
    </g>
</svg>