<?xml version="1.0" encoding="UTF-8" standalone="no"?>
<svg width="22px" height="18px" viewBox="0 0 22 18" version="1.1" xmlns="http://www.w3.org/2000/svg" xmlns:xlink="http://www.w3.org/1999/xlink">
    <!-- Generator: Sketch 40.3 (33839) - http://www.bohemiancoding.com/sketch -->
    <title>Fill 74</title>
    <desc>Created with Sketch.</desc>
    <defs></defs>
    <g id="Welcome" stroke="none" stroke-width="1" fill="none" fill-rule="evenodd">
        <g id="Login-(Desktop)" transform="translate(-619.000000, -572.000000)" fill="#FFFFFF">
            <g id="Inside" transform="translate(470.000000, 360.000000)">
                <g id="Alternate-Auth" transform="translate(20.000000, 201.000000)">
                    <path d="M151,13.1163406 C150.1906,13.4754093 149.32072,13.7180879 148.407657,13.82719 C149.339538,13.2685178 150.055283,12.3840624 150.392161,11.3300256 C149.520106,11.8473629 148.554178,12.2228567 147.52603,12.4252884 C146.702706,11.5481209 145.52956,11 144.231539,11 C141.738834,11 139.71789,13.0208355 139.71789,15.5134313 C139.71789,15.86717 139.757811,16.2116627 139.834824,16.5420146 C136.083584,16.3538326 132.757766,14.5568576 130.531671,11.8261517 C130.143124,12.4927293 129.920569,13.267974 129.920569,14.0952134 C129.920569,15.6611488 130.717351,17.0427093 131.92846,17.8521095 C131.188568,17.8286139 130.492621,17.6256384 129.884129,17.2874547 C129.883694,17.3064904 129.883694,17.3253087 129.883694,17.3443444 C129.883694,19.5311717 131.439513,21.3553406 133.504294,21.7699937 C133.125537,21.8732219 132.726874,21.92848 132.315158,21.92848 C132.0244,21.92848 131.741583,21.9000895 131.465946,21.8475508 C132.04039,23.6405012 133.70727,24.9455924 135.682311,24.9819235 C134.137586,26.1923798 132.19148,26.9141067 130.076771,26.9141067 C129.712372,26.9141067 129.353086,26.8926779 129,26.8507993 C130.997449,28.1317422 133.369956,28.8789227 135.918898,28.8789227 C144.220879,28.8789227 148.760852,22.0011421 148.760852,16.0367514 C148.760852,15.8411726 148.756501,15.6465728 148.747799,15.4528432 C149.629752,14.8165052 150.394881,14.0215722 151,13.1163406" id="Fill-74"></path>
                </g>
            </g>
        </g>
    </g>
</svg>