<?xml version="1.0" encoding="UTF-8" standalone="no"?>
<svg width="200px" height="200px" viewBox="0 0 200 200" version="1.1" xmlns="http://www.w3.org/2000/svg" xmlns:xlink="http://www.w3.org/1999/xlink">
    <!-- Generator: Sketch 42 (36781) - http://www.bohemiancoding.com/sketch -->
    <title>Artboard</title>
    <desc>Created with Sketch.</desc>
    <defs></defs>
    <g id="Page-1" stroke="none" stroke-width="1" fill="none" fill-rule="evenodd">
        <g id="Artboard" fill-rule="nonzero">
            <path d="M18.3448979,218.72327 L183.107548,218.72327 C193.278082,218.72327 200.651719,208.552736 197.092032,198.890729 L190.226922,179.566715 C182.853285,165.836494 170.394381,155.66596 155.647106,151.08922 L132.763405,144.224109 C126.152558,142.190002 122.338608,135.070629 124.626978,128.459781 C125.135505,127.188465 125.898295,125.917148 126.661085,124.645831 L141.154096,101.76213 C147.256416,92.3543859 149.544786,80.9125352 147.510679,69.7249478 L145.985099,60.8257306 C143.950992,49.1296165 137.340145,38.4505559 127.678138,31.5854454 C111.405284,19.8893314 89.5386357,20.1435947 73.5200447,32.3482355 L73.5200447,32.3482355 C65.1293542,38.7048192 59.0270338,48.1125631 56.7386636,58.5373604 L54.4502935,68.7078944 C51.6533967,80.6582718 53.9417668,92.8629126 60.2983505,103.28771 L74.0285714,125.154358 C75.0456248,126.171411 75.8084148,127.442728 76.0626782,128.968308 C78.3510483,135.579155 74.7913614,142.698529 67.926251,144.732636 L45.0425496,151.597746 C30.041012,156.174487 17.5821079,166.34502 10.4627341,180.075241 L3.59762365,199.399256 C0.800726813,208.552736 8.17436394,218.72327 18.3448979,218.72327 Z" id="Shape" fill="#EEEEEE"></path>
            <path d="M101.042186,110.84 C98.0708942,110.84 95.6621862,108.431292 95.6621862,105.46 C95.6621862,102.488708 98.0708942,100.08 101.042186,100.08 C104.013478,100.08 106.422186,102.488708 106.422186,105.46 C106.416683,108.429009 104.011196,110.834497 101.042186,110.84 Z M106.922186,84.72 C106.922186,84.72 106.392186,84.91 106.392186,85.22 L106.392186,89.49 C106.392186,92.4474848 103.994671,94.845 101.037186,94.845 C98.0797014,94.845 95.6821862,92.4474848 95.6821862,89.49 L95.6821862,85.22 C95.7303659,80.3618545 98.8731766,76.0762036 103.492186,74.57 C106.682122,73.505445 108.793183,70.471049 108.682186,67.11 C108.466714,63.003504 105.103929,59.7675336 100.992186,59.71 C98.0809434,59.7227481 95.4342351,61.4017172 94.1821862,64.03 C92.8981241,66.6947738 89.6969601,67.8140619 87.0321863,66.5299999 C84.3674124,65.2459378 83.2481243,62.0447739 84.5321862,59.38 C87.5448724,53.0653446 93.9057495,49.0319968 100.902186,49 L101.012186,49 C110.908375,49.0573676 119.002846,56.9005389 119.372186,66.79 C119.644649,74.8570707 114.585441,82.1449338 106.932186,84.71 L106.922186,84.72 Z" id="Shape" fill="#FFFFFF"></path>
        </g>
    </g>
</svg>