<?xml version="1.0" encoding="UTF-8" standalone="no"?>
<svg width="121px" height="100px" viewBox="0 0 121 100" version="1.1" xmlns="http://www.w3.org/2000/svg" xmlns:xlink="http://www.w3.org/1999/xlink">
    <!-- Generator: Sketch 40.3 (33839) - http://www.bohemiancoding.com/sketch -->
    <title>Group</title>
    <desc>Created with Sketch.</desc>
    <defs>
        <path d="M0,10.0000638 C0,4.47718108 4.48529768,-1.10670557e-25 10.0042061,-2.2958874e-41 L60.9975798,1.02256908e-24 L80,19.0032973 L80,90.0073111 C80,95.5261208 75.5274312,100 70.0095352,100 L9.99046484,100 C4.47288346,100 0,95.5252671 0,89.9999362 L0,10.0000638 Z" id="path-1"></path>
        <mask id="mask-2" maskContentUnits="userSpaceOnUse" maskUnits="objectBoundingBox" x="0" y="0" width="80" height="100" fill="white">
            <use xlink:href="#path-1"></use>
        </mask>
        <path d="M3.9947834,0 L14.0052166,0 C16.2114745,0 18,1.79057591 18,3.99501486 L18,67.0049851 L9,81 L0,67.0049851 L0,3.99501486 C0,1.78862908 1.79171562,0 3.9947834,0 Z" id="path-3"></path>
        <mask id="mask-4" maskContentUnits="userSpaceOnUse" maskUnits="objectBoundingBox" x="0" y="0" width="18" height="81" fill="white">
            <use xlink:href="#path-3"></use>
        </mask>
    </defs>
    <g id="Welcome" stroke="none" stroke-width="1" fill="none" fill-rule="evenodd">
        <g id="Item-Listing-(Desktop)-Empty" transform="translate(-624.000000, -348.000000)" stroke="#FFFFFF">
            <g id="Group-6" transform="translate(578.000000, 300.000000)">
                <g id="Group" transform="translate(46.000000, 48.000000)">
                    <use id="Rectangle-20" mask="url(#mask-2)" stroke-width="20" xlink:href="#path-1"></use>
                    <g id="Group-2" transform="translate(105.175504, 53.449367) rotate(-15.000000) translate(-105.175504, -53.449367) translate(96.175504, 12.949367)">
                        <use id="Rectangle-21-Copy-2" mask="url(#mask-4)" stroke-width="12" xlink:href="#path-3"></use>
                        <path d="M5,15 L13,15" id="Line-Copy-2" stroke-width="6" stroke-linecap="square"></path>
                    </g>
                </g>
            </g>
        </g>
    </g>
</svg>