<?xml version="1.0" encoding="utf-8"?>
<!-- Generator: Adobe Illustrator 19.1.0, SVG Export Plug-In . SVG Version: 6.00 Build 0)  -->
<svg version="1.1" id="Layer_1" xmlns="http://www.w3.org/2000/svg" xmlns:xlink="http://www.w3.org/1999/xlink" x="0px" y="0px"
	 viewBox="0 0 30 33.4" style="enable-background:new 0 0 30 33.4;" xml:space="preserve">
<metadata><?xpacket begin="﻿" id="W5M0MpCehiHzreSzNTczkc9d"?>
<x:xmpmeta xmlns:x="adobe:ns:meta/" x:xmptk="Adobe XMP Core 5.6-c067 79.157747, 2015/03/30-23:40:42        ">
   <rdf:RDF xmlns:rdf="http://www.w3.org/1999/02/22-rdf-syntax-ns#">
      <rdf:Description rdf:about=""/>
   </rdf:RDF>
</x:xmpmeta>
                                                                                                    
                                                                                                    
                                                                                                    
                                                                                                    
                                                                                                    
                                                                                                    
                                                                                                    
                                                                                                    
                                                                                                    
                                                                                                    
                                                                                                    
                                                                                                    
                                                                                                    
                                                                                                    
                                                                                                    
                                                                                                    
                                                                                                    
                                                                                                    
                                                                                                    
                                                                                                    
                           
<?xpacket end="w"?></metadata>
<style type="text/css">
	.st0{fill:#FFFFFF;}
</style>
<path class="st0" d="M26.1,9.9c-0.8,0.4-1.8,0.6-2.6,0.8c1-0.6,1.6-1.4,2-2.6c-0.8,0.6-1.8,1-3,1.2c-0.6-1-1.8-1.6-3.2-1.6
	c-2.4,0-4.6,2-4.6,4.6c0,0.4,0,0.8,0.2,1c-3.8-0.2-7.2-2-9.4-4.8c-0.4,0.8-0.6,1.4-0.6,2.4c0,1.6,0.8,3,2,3.8c-0.8,0-1.4-0.2-2-0.6
	l0,0c0,2.2,1.6,4,3.6,4.4c-0.4,0.2-0.8,0.2-1.2,0.2c-0.2,0-0.6,0-0.8,0c0.6,1.8,2.2,3.2,4.2,3.2c-1.6,1.2-3.6,2-5.6,2
	c-0.4,0-0.8-0.2-1.2-0.2c2,1.2,4.4,2,7,2c8.4,0,13-7,13-13c0-0.2,0-0.4,0-0.6C24.7,11.5,25.5,10.7,26.1,9.9z"/>
</svg>
