<svg width="257" height="234" viewBox="0 0 257 234" fill="none" xmlns="http://www.w3.org/2000/svg">
<path d="M170.404 78.6402C171.814 79.9702 171.131 82 169.491 83C165.601 85.38 165.024 79.7002 167.854 78.2502C168.524 77.7002 169.894 78.1602 170.404 78.6402Z" fill="var(--theme--foreground-subdued)"/>
<path fill-rule="evenodd" clip-rule="evenodd" d="M164.131 6.33008C168.001 -3.50989 174.881 1.94035 178.621 8.36035C184.515 18.4622 190.491 42 186.511 54H190.871C191.891 41.9602 196.361 29.3803 202.421 18.9404C205.641 13.3904 214.301 -0.279456 222.041 3.44043C227.781 6.20037 225.562 20.5797 224.441 25.7099C221.691 38.2899 215.661 50.8603 207.921 61.0703C215.271 70.0803 216.351 81.3602 212.691 92.2002C216.571 95.1002 219.932 98.7801 221.722 103.33C224.782 100.29 233.611 91.9708 237.881 96.4199C241.511 100.22 237.701 110.831 235.941 115.181C235.201 117.011 230.802 125.12 230.772 125.98C230.736 127 230.991 128.5 231.491 129.5C233.991 128 235.941 127.387 238.751 128.561C246.991 132.001 242.102 150.706 233.491 148C232.261 147.613 230.95 146.468 230.491 147.5C228.491 152 224.681 155.291 219.941 156.681C221.491 160.001 222.892 163.13 222.982 166.82C235.001 171.48 244.151 183.94 246.031 196.55C258.251 193.73 259.061 210.86 252.201 217.05C249.491 219.5 246.591 219 243.491 217.59C241.211 223.27 235.842 227.18 230.142 229.09C224.822 230.88 212.832 233.07 209.022 227.92C207.712 226.14 208.531 224.68 205.562 224.8C204.462 224.85 203.011 227.2 201.951 228.11C198.301 231.22 194.192 232.15 189.682 230.2C188.602 229.73 187.841 228.61 187.051 228.46C185.941 228.26 184.901 228.81 183.812 228.84C178.382 228.96 172.751 228.61 173.821 221.57C171.681 221.66 169.571 221.13 167.531 220.57C159.791 223.7 152.021 229.24 144.321 232.15C141.502 233.21 139.631 233.27 136.642 233.17L72.0714 227.71C69.0814 227 67.8016 226 66.7716 223.58C66.4416 222.81 65.8516 219.101 65.4815 219C65.0516 218.88 62.0117 219.25 61.7813 219.45C61.3413 219.84 61.7412 222.36 60.0812 223.74C57.5912 225.82 54.1413 225.031 52.9913 225.721C52.6212 225.951 51.7409 228.091 51.0011 228.811C48.1312 231.57 44.4714 231.25 40.8517 230.99C33.502 230.46 20.4925 228 17.4718 224.98C16.8018 224.311 16.3115 223.58 15.7315 223.42C15.0815 223.25 12.1313 223.86 10.7413 223.73C6.14136 223.29 0.861275 219.05 0.121192 214.4C-0.728806 209.04 2.97134 203.68 8.74131 204.51C8.24144 193.66 11.9313 183.02 18.381 174.431L25.0714 167.33C21.7114 164.94 18.2818 161.98 16.7218 158.08C15.1718 158.53 14.2613 160.311 12.5313 160.601C3.74135 162.091 -0.768223 149.86 3.72178 143.45C5.90179 140.34 9.42163 139.761 12.7315 141.391C13.0615 134.451 14.6911 128 17.5011 121.67C18.2912 119.89 21.8914 114.171 22.1017 113.19C22.2417 112.54 21.0214 109.21 20.8214 108.09C19.7714 102.08 18.7815 91.5101 27.7911 92.4199C30.6811 92.7099 35.6014 96.7799 36.0714 96.7099C36.3724 96.659 40.4582 93.3528 40.711 92.9707C40.711 91.7535 40.3814 90.4601 40.3214 89.3301C39.8714 81.3002 41.8715 74.4605 46.4913 67.9306C46.4913 67.5307 41.6523 63.2008 40.8517 62.3203C33.0818 53.7204 21.9215 33.3507 25.2511 21.6807C27.2311 14.7407 33.2414 15.0899 38.6114 18.1299C47.7314 23.2999 56.5217 37.3402 60.1817 46.9902C60.7718 48.5505 62.6916 56.1205 62.9815 56.5205C63.9917 57.0003 65.9919 56.8901 67.8917 56.8701C66.4717 50.8602 65.6318 44.3904 65.7218 38.1904C65.8418 30.2804 68.3913 10.9403 75.5313 6.28027C83.4713 1.09033 86.8415 16.9501 87.4415 21.9101C89.0015 34.8201 87.2314 49.25 81.6515 61C99.5214 70.24 106.201 96.7907 87.461 108.971C88.361 111.811 89.441 114.38 89.921 117.36C91.301 125.92 90.7108 137.27 87.7608 145.46C87.3709 146.53 85.4621 149.959 85.4015 150.33C85.3515 150.67 86.8315 155.39 87.0216 156.54C88.0216 162.69 86.6212 168.61 83.4913 174L111.071 174.75C111.491 171 112.611 167.35 113.621 163.7C113.491 162.8 110.512 160.351 109.682 159.271C100.012 146.561 110.741 125.021 121.921 116.471C118.831 106.311 119.991 95.1005 122.201 84.8506C123.761 77.6506 127.082 66.7902 131.932 61.2002C134.702 58.0103 139.091 56.0307 142.071 60.1406C147.361 67.4408 144.751 86.4005 142.821 94.9404C141.341 101.5 138.941 107.9 135.741 113.79C138.601 113.44 141.362 114.29 144.102 114.36C146.472 108 150.021 102.14 153.951 96.6299C154.762 95.4895 159.132 90.5199 159.272 89.9599C159.431 89.2789 158.872 85.0195 158.972 83.5098C159.622 73.6899 164.011 63.14 172.781 58.0801C172.871 57.4396 170.281 53.7802 169.781 52.7402C164.301 41.4502 159.501 18.1101 164.131 6.33008ZM153.501 216.141C155.271 216.161 157.881 217.29 156.591 219.41C155.98 220.41 146.142 224 144.432 225.021C143.712 225.61 144.171 229.21 145.531 228.681L170.551 215.78L155.551 213.94L153.501 216.141ZM34.7013 99.3398C31.1012 96.0998 23.8214 91.4104 22.9015 99.5303C21.6115 110.94 31.6015 129.36 40.1515 136.7C41.2014 137.6 43.2611 138.36 43.4913 139.5C43.9113 141.53 42.2415 141.08 40.6915 141.99C30.9515 147.69 30.6718 163.79 39.2218 171C40.8419 172.36 44.401 173.231 43.171 175.48C41.4906 176.63 35.9912 172.5 33.9913 169.5C33.7112 169.089 32.741 166.53 32.671 166.48C32.1208 166.091 29.5009 167.86 28.881 168.26C13.801 178.02 4.72158 205.95 17.1114 220.67C21.9014 226.36 35.4412 228.22 42.6612 228.49C45.7512 228.61 48.7912 229.14 45.9112 225.61C44.9012 224.37 41.5815 223.1 42.6515 221.57C43.7215 220.04 47.2017 223.451 47.9317 224.311C48.6015 225.101 48.9919 227.31 50.0616 225.721C52.0015 222.851 45.8822 217.731 43.4718 218.38C42.4618 218.65 39.5811 223.44 38.2911 220.86C37.5911 219.45 40.1216 218.11 41.0216 217.05C47.9811 208.83 44.7607 194.77 33.5509 192.98C32.4801 192.811 27.6717 193.319 29.2315 190.76C30.4224 188.801 37.731 191.501 39.461 192.521C47.761 197.411 49.1616 207.96 45.0216 216.15C46.6215 216.48 48.7111 217.591 49.921 218.69C51.7809 220.38 52.6413 224.53 55.921 222.48C55.421 221.4 55.1116 220.2 54.5216 219.17C53.9614 218.19 51.0116 215.331 52.8712 214.73C54.3912 214.24 56.1712 217.171 56.8312 218.311C57.3111 219.151 57.3514 221.01 58.4513 220.86C58.8213 215.21 53.6517 212.29 52.3917 206.79C52.0017 205.08 51.4213 197.11 53.2413 196.58C55.4312 195.95 54.4615 199.14 54.4415 199.99C54.4115 201.55 54.3111 203.54 54.5011 205.04C55.0311 209.4 58.8912 212.8 60.6212 216.69C62.0712 217.27 63.5315 216.53 64.9815 216.5L55.9913 179.221C55.5813 176.451 57.3872 173.484 60.2511 173.49C64.4911 173.5 71.1515 173.7 71.1515 173.7C71.0515 172.85 71.4118 171.53 70.9718 170.8C70.4616 169.95 67.181 168.91 68.5909 167.05C69.4109 165.97 71.771 167.12 72.7911 167.11C73.8111 167.1 75.5308 165.941 76.2608 167.061C77.7707 169.38 73.9617 170.37 73.7013 171.08C73.4913 171.65 73.4913 174 73.8712 174.07H80.4913C81.3613 174.07 83.3712 168.88 83.6612 167.91C88.4612 151.81 74.7314 133.4 57.9015 133.45C57.4615 133.45 54.181 133.79 53.961 133.86C52.7615 134.241 54.0912 138.321 52.0313 138.851C49.8016 139.43 50.811 136.251 50.8312 135.44C51.1012 123.73 43.4213 107.2 34.7013 99.3398ZM232.541 116.16C234.701 111.24 242.051 91.4303 229.511 100.07C219.381 107.051 205.981 129.13 202.991 141C202.641 142.4 201.651 148.558 201.411 148.88C200.891 149.57 200.061 149.57 199.541 148.88C198.882 148.01 199.391 146.351 199.191 146.15C198.951 145.9 195.331 145.73 194.661 145.76C178.361 146.47 162.841 166.67 168.111 182.49C169.771 187.47 174.032 191.64 179.191 192.82C180.652 193.15 184.712 192.971 184.722 194.561C184.731 196.15 182.042 195.89 180.941 195.78C179.952 195.69 177.502 194.53 177.142 195.7C176.902 196.49 176.702 199.741 176.722 200.721C176.832 206.051 180.491 214.191 178.611 218.94C177.811 220.95 173.972 224.67 178.381 225.92C179.091 226.12 178.812 225.79 178.941 225.44C179.351 224.291 180.101 220.651 181.631 220.48C184.98 220.091 180.513 225.798 181.081 226.3C181.921 226.3 186.201 225.92 186.461 225.51C186.631 225.239 186.541 224.1 186.761 223.46C187.801 220.46 189.361 217.62 190.121 214.48C190.541 212.75 190.751 208.49 191.441 207.46C191.912 206.76 192.971 206.52 193.361 207.13C193.991 208.11 192.542 214.641 192.142 216.141C191.472 218.621 188.572 224.321 189.222 226.311C190.162 229.21 191.691 225.77 192.501 224.84C193.371 223.84 194.871 222.23 196.321 223.2C198.031 224.34 192.701 226.571 193.411 228.471C199.731 229.061 204.062 222.37 205.852 217.15C206.602 214.96 206.331 210.76 209.381 211.42C209.481 215.22 208.081 218.92 206.482 222.3C209.231 222.93 209.482 220.411 211.441 219.101C212.921 218.111 215.241 217.361 217.001 217.221C217.251 216.961 215.511 213.76 215.291 212.95C213.231 205.34 217.841 196.11 225.211 193.33C226.591 192.81 231.421 191.45 231.171 193.83C231.051 194.98 227.582 195.22 226.441 195.65C218.651 198.56 213.452 211.14 220.812 216.86C221.712 217.56 224.201 218.14 223.852 219.51C223.252 221.88 220.072 219.08 218.732 219.12C215.902 219.19 210.461 221.43 210.461 224.84C212.521 223.82 218.201 220.32 217.711 224.84C216.001 224.77 213.781 225.65 212.371 226.57C212.081 226.76 211.382 226.8 211.901 227.38C212.861 228.45 218.87 228.591 220.421 228.471C248.651 226.311 249.592 195.38 234.022 177.88C231.182 174.69 227.031 170.81 222.781 170.07C223.101 178.51 217.231 186.47 210.491 190.98C209.291 191.781 204.911 194.42 203.711 194.36C202.511 194.3 202.071 193.12 202.991 192.19C203.841 191.33 207.932 189.59 209.472 188.51C222.121 179.56 224.391 163.5 212.861 152.431H212.871C212.591 152.161 210.794 150.593 210.642 150.58C210.222 150.55 209.171 151.721 208.261 151.061C206.341 149.661 210.061 147.76 210.831 147.05C219.781 138.74 227.631 127.37 232.541 116.16ZM8.921 207.07C7.49093 206.001 4.29128 208.001 3.49131 209.271C-0.478414 215.52 7.81168 222.141 13.8116 221.221C13.8116 221.221 11.3213 216.39 10.9913 215.5C10.4513 214.04 8.99104 208.5 8.921 207.07ZM140.661 63.0703C138.601 58.7003 136.142 60.6607 133.762 63.4307C125.712 72.7807 120.631 100.38 123.531 112.11C123.871 113.49 125.471 116.62 125.182 117.58C124.852 118.66 123.721 118.36 123.091 118.77C115.511 123.661 107.961 139.56 108.541 148.5C109.201 158.66 118.681 165.49 128.331 166.07C130.991 166.23 134.861 165.05 134.281 167.28C133.811 169.1 128.771 168.71 127.291 168.57C123.591 168.23 119.581 166.83 116.381 164.99C114.491 168 113.991 172 113.491 175C114.785 175.16 115.802 175.09 117.062 175.16C131.491 175.5 132.991 174 134.571 180.87L139.392 204.16C139.762 204.57 141.45 202.671 141.751 202.351C143.781 200.221 146.112 196.88 147.432 194.25C148.022 193.07 149.511 188.442 149.991 187.931C150.901 186.971 152.211 187.75 151.941 189.29C151.432 192.22 148.242 198.02 146.432 200.5C145.292 202.05 140.892 206.15 140.552 207.32C139.992 209.24 140.992 212.001 141.562 214.311C143.821 214.14 143.952 209.4 145.732 209.57C148.504 209.828 144.55 215.351 143.764 216.449L143.741 216.48C146.741 216.59 149.781 215.68 152.201 213.88C153.491 213 158.991 207 161.211 201.49C162.361 199.38 163.872 194.72 164.972 193.28C165.862 192.111 166.981 192.28 166.982 193.8C166.982 195.03 165.431 198.371 164.841 199.681C162.911 203.96 160.591 207.33 158.491 211.5C158.491 211.5 166.491 212.5 172.871 213.65C174.181 213.886 174.491 215.5 173.491 216.5C172.733 217.258 171.491 217.771 171.671 219.021C171.861 219.17 174.991 219.5 175.961 218.601C176.151 218.481 176.751 216.38 176.751 215.95C176.771 212.11 174.891 207.47 174.571 203.61C174.311 200.51 174.691 197.34 174.871 194.25C164.611 188.34 162.652 176.621 166.302 165.971C166.987 163.948 168.761 161.44 169.491 159C169.011 157.82 162.122 152.709 161.991 153C158.491 161 148.697 167.651 146.671 165.66C145.518 164.526 148.103 163.065 149.873 162.066L149.991 162C162.291 155.04 163.161 140.26 156.711 128.96C156.261 128.17 154.491 125.5 153.991 125C153.491 124.5 151.726 122.266 151.991 122C153.491 120.5 155.531 119.11 156.421 118.38C164.481 111.76 173.971 99.5206 177.991 89.8906C180.171 84.6806 183.411 75.4206 173.861 80.6806C163.151 86.5807 148.031 107.23 145.621 119.19C145.381 120.381 145.981 123.56 143.812 122.67C142.012 121.93 143.781 117.91 142.991 117.29C141.461 116.1 136.462 116.35 134.441 116.37C133.552 116.38 131.362 117.32 131.361 115.48C131.351 114.51 132.482 114.49 132.722 114.11H132.762C139.492 103.72 145.991 74.4103 140.661 63.0703ZM251.071 199.29C250.121 198.69 246.901 198.371 246.421 199.141L246.432 199.15C246.142 199.61 246.471 205.591 246.371 206.891C246.231 208.771 244.801 213.339 244.921 214.51C245.121 216.5 248.311 216.47 249.821 215.42C254.131 212.45 255.961 202.35 251.071 199.29ZM23.5919 116.403C20.7965 120.252 18.6494 125.316 17.3409 129.9C14.291 140.58 14.3315 154.03 22.8614 162.29C23.4814 162.89 27.1816 165.69 27.7716 165.71C28.2225 165.719 31.0618 164.04 31.1817 163.67C30.9918 163 30.5714 161.141 30.4913 160.101C29.8913 151.381 32.6612 144.751 39.5509 139.431C32.2617 133.531 27.0419 125.042 23.5919 116.403ZM12.4913 144.5C11.835 143.32 9.88538 142.986 8.27158 143.32C1.03158 144.8 5.54131 161.28 12.4913 157.7C15.996 155.893 14.1283 147.444 12.4913 144.5ZM164.491 114C161.891 117.29 156.992 121.501 155.312 122.391C161.541 130.38 164.611 139.67 162.982 149.88C165.491 151.5 170.491 156 171.491 156.5C171.991 156.5 173.999 153.633 173.812 153.391C169.762 152.071 168.071 146.59 168.361 142.67C168.452 141.4 169.211 139.83 169.041 138.78C168.801 137.37 167.012 133.771 166.472 131.891C165.962 130.151 164.991 127.5 164.751 125.26C164.377 121.766 163.991 118 164.491 114ZM228.961 128.721C226.011 132.731 223.431 137.02 220.251 140.86C219.211 142.111 213.171 148.051 213.041 148.561C213.491 149.501 216.011 152.181 216.831 153.021C216.983 153.178 217.827 153.868 217.991 154C219.034 154.835 221.682 153.14 222.772 152.45C228.111 149.1 229.391 144.34 229.711 138.351C229.881 135.181 229.821 131.771 228.961 128.721ZM223.161 11.3799C222.611 5.2602 219.581 3.73045 214.651 7.57031C205.172 14.9703 196.521 36.3199 194.491 48C194.221 49.5198 193.371 56.5887 192.991 57C192.171 57.88 191.091 57.0101 189.991 56.8701C181.901 55.8201 172.311 59.8506 167.511 66.3506C163.201 72.1806 161.521 80.5709 161.501 87.7207C162.411 86.8108 164.235 85.0697 165.131 84.2803C169.991 80.0004 167.992 81.5003 171.041 79.3105C171.491 79.0005 174.652 77.2906 175.932 76.9306C185.711 74.141 182.651 85.4404 180.541 90.6103C178.691 95.1503 175.661 99.1807 173.451 103.471C178.991 106.501 182.991 104 183.111 105.82C183.111 108 177.491 107.5 175.491 107C173.491 106.5 172.446 105.82 171.616 105.82C171.376 105.951 168.512 109.51 168.312 109.94C165.032 117.02 167.672 128.03 170.191 135.05C170.591 136.16 171.951 138.191 172.011 139.061C172.081 140.11 171.121 140.91 170.951 141.96C170.551 144.41 171.131 147.321 172.581 149.351C173.511 150.65 174.851 152.02 176.501 151.141C176.911 150.921 181.318 147.612 181.411 147.311C181.511 147.001 180.332 144 179.982 140.86C178.492 127.5 184.721 105.911 191.911 94.3506C193.951 91.0706 199.311 83.6303 203.411 88.4199C205.491 91.4998 205.391 94.6501 205.491 98C211.901 90.1001 214.001 77.7004 209.562 68.4805C209.092 67.5005 206.991 64.5003 206.321 63.7402C206.118 63.5092 204.491 61.5 204.491 61.5C205.991 59.5001 206.319 58.8095 207.711 56.8701C215.581 45.8801 224.391 24.9999 223.161 11.3799ZM38.4513 21.2099C28.6314 14.8601 26.2208 21.8206 27.7608 30.8105C29.7109 42.1504 38.5811 57.8502 47.5909 65.0303C48.6209 65.8503 52.6417 68.0605 52.6417 69.0605C52.6514 71.47 49.4109 69.4699 48.881 69.6299C48.5008 69.7405 47.3712 71.6498 47.0411 72.1699C42.2312 79.6498 40.9215 91.0199 46.5313 98.3799C47.1813 99.2298 51.8411 103.08 48.7716 103.65C47.0617 103.97 42.5414 97.3812 41.921 95.7207C41.0005 96.331 37.8515 98.2904 38.1515 99.4502C38.2815 99.9601 39.8012 101.11 40.2813 101.71C46.9213 110.05 52.0713 120.59 53.3614 131.26L56.6212 130.9C55.4212 128.44 54.4311 125.73 53.7511 123.08C51.6811 115.07 50.0313 99.3301 54.7413 92.2002C59.9212 84.3704 65.931 94.4599 67.7911 99.25C71.8911 109.83 72.6515 122.621 69.7315 133.561C73.5714 135.87 77.1212 138.33 80.0411 141.78C81.3611 143.34 82.2615 145.1 83.4015 146.75C83.5714 147 83.6115 147.76 84.2013 147.221C84.3512 147.081 85.4605 143.942 85.631 143.391C88.1109 135.481 88.771 123.461 86.7911 115.431C86.5511 114.471 85.5415 110.851 84.6915 110.62C83.9915 110.43 81.4116 111.93 81.6515 109.69C81.7915 108.39 84.7016 107.56 85.7716 106.88C97.5311 99.3499 98.7611 84.7205 91.4015 73.4707C85.3915 64.2807 74.181 58.6304 63.171 59.4404H63.1515C62.9715 60.4505 63.4913 63.1103 62.9913 63.8203C62.6213 64.3402 61.1318 64.3401 60.7716 63.8203C60.5516 63.5003 60.3309 57.5501 60.0909 56.1601C58.1509 45.0801 47.9812 27.3799 38.4513 21.2099ZM238.031 144.5C241.711 140.6 241.741 129.14 235.491 130C230.841 130.639 231.991 140 232.491 143.5C232.775 145.489 235.431 147.26 238.031 144.5ZM202.291 91.7305C201.871 90.5705 201.301 89.3008 199.852 89.6006H199.841C197.571 90.0711 194.372 95.1401 193.222 97.1601C187.512 107.14 180.521 130.71 182.621 141.87C182.771 142.69 183.442 145.52 184.222 145.74C184.594 145.849 187.701 144.63 188.161 144.32C190.581 142.69 194.551 134.18 195.761 131.25C199.471 122.28 205.551 100.721 202.291 91.7305ZM211.711 94.6504C211.304 94.6505 211.111 94.9205 210.881 95.2305C209.666 96.9196 205.992 101.001 205.392 102.52C205.392 104.001 204.932 107.55 204.562 109.58C202.552 120.53 199.161 131.18 193.841 140.94C193.59 141.401 191.542 143.79 192.812 143.54C195.298 143.041 197.096 143.289 199.551 143.568C201.951 132.639 207.621 122.3 214.011 113.23C214.821 112.081 219.77 106.092 219.841 105.61C220.011 104.47 216.922 99.7009 216.062 98.6504C215.492 97.9504 212.491 94.6504 211.711 94.6504ZM63.9513 96.9199C63.0412 95.2498 60.9009 91.7506 58.711 92.1406C57.5112 92.3608 56.6812 93.7303 56.2013 94.7402C53.3513 100.72 54.2515 113.6 55.6515 120.09C56.0715 122.03 58.3315 129.961 59.6915 130.931C60.8669 131.261 65.4908 132 66.921 132.32C67.491 132 67.8011 130.45 68.0011 129.74C70.3911 120.98 68.3313 104.95 63.9513 96.9199ZM82.6612 13.2803C78.1012 1.60027 73.0213 13.1506 71.2413 19.1006C67.7814 30.6605 67.4318 45.3607 70.9718 56.8906C73.6317 58.1304 76.7117 58.6906 79.4815 59.8105C80.1815 56.9505 81.6315 54.2699 82.4815 51.3799C85.6215 40.7199 86.7412 23.7301 82.6612 13.2803ZM169.691 3.66992C166.391 4.01992 165.251 12.4002 165.091 14.9902C164.481 24.9002 166.421 36.5406 169.821 45.8506C170.462 47.6113 174.151 56.4894 175.791 56.54L183.441 54.3799C186.031 42.1 183.721 27.1904 179.071 15.5605C177.901 12.6306 173.451 3.27035 169.691 3.66992Z" fill="var(--theme--foreground-subdued)"/>
<path d="M141.828 228.37C142.025 229.331 141.258 230.198 140.278 230.144C136.63 229.943 128.762 229.498 125.021 229.21C107.971 227.91 90.9214 226.61 73.8714 225.21C70.6814 224.66 70.0914 224.68 69.0714 221.66C64.5714 208.32 58.9059 180.138 58.5914 179.15C58.2769 178.162 58.7159 176.5 59.4915 176.5C60.2671 176.5 128.991 177.5 129.901 177.86C130.811 178.22 131.098 178.633 131.281 179.4C134.75 193.886 140.326 221.015 141.828 228.37ZM106.021 206.3C105.571 206.02 105.451 204.19 105.931 203.6C106.621 202.75 111.471 203.43 110.141 200.56C109.811 199.85 106.011 197.29 105.121 196.86C101.721 195.22 97.3314 194.48 93.6214 195.11C93.2914 196.56 94.5914 196.43 95.0714 197.28H93.2614C92.1614 198.42 96.2014 199.43 97.0914 199.47C98.5914 199.54 103.311 197.42 101.201 201.05C99.9914 203.13 93.6614 201.25 91.6314 200.55C89.7714 199.91 86.4713 197.09 87.1013 200.71C87.3113 201.93 88.7114 201.96 88.8614 202.57C88.8914 202.71 88.6314 205.12 88.5714 205.38C88.4814 205.77 86.7114 205.93 86.0014 206.88C85.8214 207.12 83.9314 211.29 83.9314 211.55C83.9314 211.81 84.1414 212.47 84.4314 212.54C86.8114 212.89 87.1714 210.81 88.7914 209.67C89.9114 208.88 91.0614 208.8 92.0014 208.16C92.6314 207.74 93.3514 206.33 93.4714 206.32C94.7314 206.25 100.741 210.05 101.621 209.45C101.921 209.24 101.851 208.45 102.141 208.52C102.801 208.68 103.591 209.42 104.721 209.57C106.461 209.81 108.471 209.06 109.681 209.3C110.891 209.54 111.321 211.18 112.981 210.65C115.061 209.98 111.881 207.57 110.761 207.16C109.761 206.79 106.221 206.42 106.011 206.29L106.021 206.3Z" fill="var(--background-normal-alt)"/>
<path d="M170.551 215.78L145.531 228.681C144.171 229.221 143.702 225.611 144.432 225.021C146.132 223.991 155.981 220.41 156.591 219.41C157.881 217.29 155.271 216.151 153.501 216.141L155.551 213.94L170.551 215.78Z" fill="var(--background-normal-alt)"/>
<path d="M142.521 143.69C143.911 145.21 143.131 151.21 140.901 151.87C136.101 153.29 135.971 143.66 139.611 142.93C140.381 142.78 142.021 143.14 142.521 143.68V143.69Z" fill="var(--theme--foreground-subdued)"/>
<path d="M116.021 141.86C121.001 140.37 120.721 149.86 116.661 150.15C112.001 150.48 113.171 142.71 116.021 141.86Z" fill="var(--theme--foreground-subdued)"/>
<path d="M128.741 154.93C130.601 156.75 126.901 158.44 126.691 159.08C126.481 159.72 128.441 163.36 125.921 162.69C124.121 162.21 124.551 159.64 124.041 158.92C123.571 158.26 120.721 158.13 121.641 155.45C122.181 153.89 124.451 154.78 125.391 154.78C126.331 154.78 127.811 154.02 128.751 154.94L128.741 154.93Z" fill="var(--theme--foreground-subdued)"/>
<path d="M195.491 169.78C201.811 168.41 199.371 178.08 196.151 178.44C190.941 179.02 192.101 170.51 195.491 169.78Z" fill="var(--theme--foreground-subdued)"/>
<path d="M175.501 168.01C179.761 167.78 179.101 176.57 174.381 175.86C170.801 175.33 172.111 168.19 175.501 168.01Z" fill="var(--theme--foreground-subdued)"/>
<path d="M181.831 184.25C181.491 184.64 183.311 190.14 180.701 188.76C179.091 187.91 179.951 185.53 179.571 184.44C179.381 183.9 175.921 182.91 176.871 180.95C177.901 178.85 180.311 180.88 181.631 180.92C182.771 180.96 184.751 179.66 184.721 181.85C184.691 184.04 182.071 183.95 181.811 184.24L181.831 184.25Z" fill="var(--theme--foreground-subdued)"/>
<path d="M56.3611 156.04C60.3011 152.78 61.5911 163.27 57.7611 163.73C54.2911 164.15 54.6211 157.48 56.3611 156.04Z" fill="var(--theme--foreground-subdued)"/>
<path d="M77.9313 156.36C81.5613 155.3 81.0713 162.98 79.8313 164.08C76.3213 167.18 74.7713 157.28 77.9313 156.36Z" fill="var(--theme--foreground-subdued)"/>
<path d="M106.021 206.3C106.231 206.43 109.771 206.8 110.771 207.17C111.891 207.58 115.061 209.99 112.991 210.66C111.331 211.19 110.911 209.56 109.691 209.31C108.471 209.06 106.471 209.82 104.731 209.58C103.611 209.43 102.811 208.69 102.151 208.53C101.851 208.46 101.931 209.25 101.631 209.46C100.741 210.06 94.7414 206.26 93.4814 206.33C93.3614 206.33 92.6414 207.75 92.0114 208.17C91.0714 208.8 89.9214 208.89 88.8014 209.68C87.1814 210.82 86.8214 212.9 84.4414 212.55C84.1414 212.48 83.9414 211.81 83.9414 211.56C83.9414 211.31 85.8314 207.13 86.0114 206.89C86.7114 205.94 88.4914 205.79 88.5814 205.39C88.6414 205.13 88.9014 202.72 88.8714 202.58C88.7314 201.97 87.3314 201.95 87.1114 200.72C86.4814 197.1 89.7814 199.92 91.6414 200.56C93.6714 201.26 100.011 203.14 101.211 201.06C103.321 197.43 98.6014 199.55 97.1014 199.48C96.2114 199.44 92.1714 198.43 93.2714 197.29H95.0814C94.6014 196.44 93.3014 196.56 93.6314 195.11C97.3414 194.48 101.721 195.21 105.131 196.86C106.021 197.29 109.821 199.85 110.151 200.56C111.481 203.43 106.631 202.75 105.941 203.6C105.461 204.19 105.581 206.03 106.031 206.3L106.021 206.3Z" fill="var(--theme--background)"/>
<path d="M68.8611 91.26C68.4411 91.6 67.8511 91.73 67.3211 91.75C62.6211 91.89 63.7311 82.28 67.3611 81.94C70.9911 81.6 71.2911 89.26 68.8511 91.27L68.8611 91.26Z" fill="var(--theme--foreground-subdued)"/>
<path d="M90.6415 82.75C91.9615 83.99 91.8115 89.58 90.0115 90.46C85.7615 92.54 84.7415 83.25 87.7315 82.37C88.4615 82.15 90.0915 82.23 90.6415 82.75Z" fill="var(--theme--foreground-subdued)"/>
<path d="M79.7211 93.58C81.1211 93.11 82.3011 94.25 83.3011 94.23C83.9911 94.21 86.1211 92.69 86.7011 94.51C87.4011 96.71 84.1711 97.41 83.6711 98.27C83.2311 99.02 82.9611 104.02 80.7311 102.27C79.5711 101.36 81.3411 99.56 81.2911 98.42C81.2611 97.78 77.2011 94.43 79.7311 93.59L79.7211 93.58Z" fill="var(--theme--foreground-subdued)"/>
<path d="M191.871 80.94C193.281 82.27 192.361 87.48 190.721 88.48C186.831 90.86 186.491 82 189.321 80.55C189.992 80 191.361 80.46 191.871 80.94Z" fill="var(--theme--foreground-subdued)"/>
</svg>
