<?xml version="1.0" standalone="no"?>
<!DOCTYPE svg PUBLIC "-//W3C//DTD SVG 20010904//EN"
 "http://www.w3.org/TR/2001/REC-SVG-20010904/DTD/svg10.dtd">
<svg version="1.0" xmlns="http://www.w3.org/2000/svg"
 width="700.000000pt" height="700.000000pt" viewBox="0 0 700.000000 700.000000"
 preserveAspectRatio="xMidYMid meet">
<metadata>
Created by potrace 1.11, written by Peter Selinger 2001-2013
</metadata>
<g transform="translate(0.000000,700.000000) scale(0.100000,-0.100000)"
fill="#000000" stroke="none">
<path d="M3235 6994 c-577 -56 -1042 -202 -1505 -471 -880 -513 -1506 -1413
-1679 -2413 -42 -240 -46 -300 -46 -620 1 -339 12 -456 71 -730 141 -657 468
-1255 949 -1735 480 -481 1078 -808 1735 -949 278 -60 390 -71 740 -71 350 0
462 11 740 71 657 141 1255 468 1735 949 481 480 808 1078 949 1735 59 274 70
391 71 730 0 320 -4 380 -46 620 -159 918 -697 1752 -1474 2282 -457 312 -957
503 -1530 584 -105 14 -612 28 -710 18z m590 -1904 c544 -47 1059 -239 1471
-548 183 -137 454 -399 454 -438 -1 -58 -68 -151 -145 -199 -97 -61 -145 -73
-405 -105 -210 -25 -264 -115 -273 -452 l-5 -157 42 -20 c22 -11 115 -36 206
-56 475 -104 685 -235 837 -521 l45 -84 -22 -27 c-40 -52 -87 -76 -150 -81
-85 -6 -146 25 -228 118 -149 166 -312 198 -591 116 -168 -50 -209 -57 -328
-57 -249 0 -455 109 -602 319 -35 49 -79 144 -86 186 -11 56 -25 53 -25 -6 1
-110 43 -250 109 -359 22 -35 35 -65 30 -67 -13 -5 -113 24 -204 60 -44 17
-192 87 -328 155 -359 179 -476 222 -608 226 -69 2 -79 8 -79 47 0 48 -46 165
-90 233 -50 76 -68 87 -41 25 74 -175 48 -334 -74 -454 -127 -123 -259 -175
-605 -239 -285 -52 -315 -69 -481 -277 -169 -212 -203 -249 -273 -306 -160
-130 -278 -143 -388 -44 l-39 35 88 91 c232 238 277 310 374 585 75 212 90
230 221 255 115 22 182 52 243 107 71 65 97 121 144 309 21 85 48 179 59 207
64 168 187 281 392 361 l85 33 -53 -6 c-73 -8 -230 -66 -315 -115 -40 -23 -78
-38 -87 -35 -31 10 -100 89 -128 145 -38 78 -38 190 0 272 24 52 107 148 128
148 5 0 55 -46 112 -103 172 -171 281 -212 713 -266 345 -44 448 -66 712 -152
243 -80 362 -96 465 -65 150 45 224 164 293 471 15 65 36 144 46 174 11 30 17
56 15 58 -2 2 -42 -8 -89 -21 -369 -107 -771 -2 -1048 273 -84 84 -187 216
-177 226 2 2 64 10 138 18 164 18 383 20 545 7z m-570 -410 c99 -75 193 -128
298 -165 249 -89 527 -88 761 3 99 39 88 26 -30 -32 -116 -58 -237 -93 -373
-108 -284 -31 -593 66 -815 256 l-38 33 63 31 c35 17 65 31 67 31 1 1 32 -21
67 -49z"/>
</g>
</svg>
