<?xml version="1.0" encoding="UTF-8" standalone="no"?>
<!DOCTYPE svg PUBLIC "-//W3C//DTD SVG 1.1//EN" "http://www.w3.org/Graphics/SVG/1.1/DTD/svg11.dtd">
<svg width="100%" height="100%" viewBox="0 0 297 40" version="1.1" xmlns="http://www.w3.org/2000/svg" xmlns:xlink="http://www.w3.org/1999/xlink" xml:space="preserve" xmlns:serif="http://www.serif.com/" style="fill-rule:evenodd;clip-rule:evenodd;stroke-linejoin:round;stroke-miterlimit:2;">
    <path d="M52.7,25.24C52.39,25.17 52.14,25.09 51.9,24.99C51.74,24.91 51.6,24.83 51.48,24.72C51.399,24.651 51.358,24.546 51.37,24.44C51.49,23.17 51.36,22.04 51.47,20.79C51.98,15.67 55.2,17.29 58.09,16.46C59.74,15.99 61.4,15.07 62.01,13.26C62.11,12.96 62.02,12.64 61.81,12.41C59.947,10.284 57.846,8.378 55.55,6.73C47.797,1.334 38.285,-0.939 28.93,0.37C28.695,0.398 28.516,0.6 28.516,0.837C28.516,0.926 28.542,1.014 28.59,1.09C29.718,2.847 31.225,4.33 33,5.43C33.32,5.63 33.19,6.06 32.82,5.97C31.751,5.735 30.739,5.293 29.84,4.67C29.739,4.604 29.611,4.592 29.5,4.64L27.81,5.32C27.637,5.39 27.524,5.559 27.524,5.746C27.524,5.883 27.585,6.013 27.69,6.1C32.272,10.071 38.936,10.635 44.12,7.49C44.44,7.29 44.95,7.69 44.85,8.05C44.68,8.62 44.49,9.41 44.29,10.48C42.99,17.01 39.27,16.51 34.66,14.86C25.46,11.52 20.23,14.37 15.59,8.73C15.26,8.33 14.69,8.2 14.31,8.53C13.337,9.358 12.776,10.573 12.776,11.851C12.776,13.321 13.519,14.696 14.75,15.5C14.9,15.6 15.09,15.56 15.2,15.43C15.49,15.06 15.72,14.83 16.02,14.67C16.33,14.51 16.49,14.97 16.22,15.2C15.23,16.07 14.95,17.11 14.31,19.17C13.29,22.38 13.72,25.67 8.99,26.53C6.49,26.66 6.53,28.36 5.62,30.89C4.56,33.95 3.18,35.29 0.62,37.97C0.26,38.33 0.23,38.92 0.62,39.25C1.64,40.12 2.7,40.17 3.77,39.73C6.43,38.61 8.48,35.17 10.41,32.94C12.56,30.46 17.72,31.52 21.62,29.09C23.72,27.8 24.99,26.15 24.59,23.69C24.52,23.29 24.98,23.05 25.14,23.42C25.45,24.12 25.66,24.86 25.74,25.62C25.77,25.83 25.94,25.98 26.15,25.97C30.37,25.73 35.82,30.38 40.92,31.64C41.23,31.72 41.45,31.36 41.28,31.09C40.654,30.145 40.203,29.095 39.95,27.99C39.85,27.6 40.43,27.49 40.63,27.85C42.168,30.635 45.017,32.458 48.19,32.69C49.43,32.79 50.79,32.64 52.21,32.21C53.91,31.7 55.48,31.04 57.35,31.4C58.758,31.617 60.02,32.392 60.85,33.55C61.98,35.21 64.38,35.65 65.66,33.91C65.83,33.67 65.86,33.358 65.74,33.09C62.92,26.49 55.77,26.04 52.69,25.24L52.7,25.24Z" style="fill:white;"/>
    <g transform="matrix(0.403815,0,0,0.403815,47.4126,0.258514)">
        <path d="M91.63,10.79C91.71,10.346 92.08,10.008 92.53,9.97L95.95,9.67C95.963,9.669 95.976,9.668 95.988,9.668C96.208,9.668 96.388,9.849 96.388,10.068C96.388,10.096 96.386,10.123 96.38,10.15L92.94,29.3C92.854,29.772 92.44,30.118 91.96,30.12L89.37,30.12C89.14,30.12 88.97,29.92 89,29.68C89.06,29.33 88.63,29.08 88.33,29.29C87.2,30.09 85.94,30.49 84.58,30.49C82.791,30.533 81.071,29.786 79.88,28.45C78.633,27.104 77.958,25.324 78,23.49C78,20.99 78.77,18.91 80.31,17.25C81.82,15.603 83.976,14.693 86.21,14.76C87.64,14.76 88.85,15.14 89.84,15.89C90.17,16.14 90.69,15.99 90.76,15.58L91.63,10.78L91.63,10.79ZM85.83,26.59C86.936,26.625 88.001,26.162 88.73,25.33C89.471,24.471 89.864,23.364 89.83,22.23C89.83,21.17 89.53,20.31 88.93,19.66C88.332,19 87.471,18.637 86.58,18.67C85.4,18.67 84.45,19.09 83.71,19.93C82.959,20.784 82.562,21.893 82.6,23.03C82.6,24.08 82.9,24.93 83.5,25.6C84.096,26.256 84.954,26.615 85.84,26.58L85.83,26.59ZM101.43,12.73C100.73,12.73 100.13,12.48 99.63,12C99.137,11.533 98.864,10.879 98.88,10.2C98.88,9.32 99.21,8.56 99.86,7.94C100.5,7.31 101.26,7 102.16,7C102.85,7 103.44,7.25 103.94,7.76C104.44,8.28 104.68,8.88 104.68,9.55C104.68,10.43 104.36,11.17 103.72,11.79C103.08,12.42 102.32,12.73 101.43,12.73ZM100.95,29.31C100.864,29.782 100.45,30.128 99.97,30.13L97.38,30.13C96.833,30.128 96.384,29.677 96.384,29.13C96.384,29.07 96.389,29.009 96.4,28.95L98.73,15.95C98.817,15.475 99.237,15.127 99.72,15.13L102.32,15.13C102.867,15.132 103.316,15.583 103.316,16.13C103.316,16.19 103.311,16.251 103.3,16.31L100.95,29.31ZM117.14,15.2C117.25,15.25 117.34,15.34 117.39,15.45C117.44,15.57 117.43,15.71 117.38,15.83L116,18.8C115.956,18.902 115.878,18.987 115.78,19.04C115.626,19.117 115.444,19.117 115.29,19.04C114.82,18.81 114.29,18.71 113.73,18.72C112.5,18.72 111.56,19.22 110.89,20.22C110.65,20.6 110.39,21.49 110.1,22.88L108.98,29.29C108.898,29.766 108.483,30.117 108,30.12L105.4,30.12C105.395,30.12 105.389,30.12 105.384,30.12C104.835,30.12 104.384,29.669 104.384,29.12C104.384,29.06 104.389,28.999 104.4,28.94L106.74,15.94C106.827,15.465 107.247,15.117 107.73,15.12L109.93,15.12C110.35,15.12 110.67,15.49 110.6,15.9C110.54,16.25 111,16.47 111.27,16.24C112.839,14.76 115.145,14.347 117.13,15.19L117.14,15.2ZM125.13,14.76C127.53,14.76 129.33,15.53 130.53,17.06C131.75,18.628 132.179,20.675 131.69,22.6C131.68,22.73 131.65,22.86 131.61,23C131.51,23.4 131.13,23.66 130.71,23.66L121.51,23.66C120.98,23.66 120.53,24.06 120.61,24.58C120.71,25.25 120.99,25.78 121.45,26.19C122.11,26.78 122.96,27.07 124.02,27.07C125.51,27.07 126.84,26.55 128.02,25.51C128.1,25.45 128.19,25.41 128.28,25.41C128.39,25.41 128.5,25.46 128.58,25.55L130.01,27.25C130.149,27.429 130.137,27.686 129.98,27.85C128.218,29.584 125.832,30.539 123.36,30.5C121.14,30.5 119.36,29.8 117.98,28.39C116.598,26.969 115.922,25.001 116.14,23.03C116.231,20.124 117.848,17.472 120.39,16.06C121.821,15.201 123.461,14.751 125.13,14.76ZM121.58,19.72C121.21,20.29 121.69,20.95 122.36,20.95L126.56,20.95C127.09,20.95 127.56,20.52 127.43,20C127.342,19.648 127.182,19.317 126.96,19.03C126.48,18.36 125.72,18.03 124.71,18.04C123.8,18.04 123.01,18.3 122.36,18.82C122.06,19.08 121.8,19.39 121.58,19.72ZM140.43,30.5C138.28,30.5 136.53,29.82 135.17,28.46C133.789,27.079 133.046,25.182 133.12,23.23C133.099,20.526 134.409,17.977 136.62,16.42C138.187,15.325 140.058,14.744 141.97,14.76C144.56,14.76 146.54,15.62 147.93,17.34C148.01,17.44 148.03,17.57 148,17.7C147.975,17.78 147.926,17.85 147.86,17.9L145.16,20.05C145.095,20.104 145.014,20.135 144.93,20.14C144.801,20.142 144.679,20.082 144.6,19.98C143.933,19.124 142.894,18.64 141.81,18.68C140.68,18.68 139.74,19.02 139,19.71C138.122,20.561 137.649,21.748 137.7,22.97C137.7,24.07 138.02,24.93 138.65,25.59C139.26,26.25 140.09,26.59 141.12,26.59C142.19,26.59 143.15,26.19 143.98,25.41C144.054,25.34 144.153,25.3 144.255,25.3C144.367,25.3 144.474,25.347 144.55,25.43L146.45,27.55C146.599,27.717 146.59,27.974 146.43,28.13C144.823,29.682 142.664,30.535 140.43,30.5ZM160.45,17.72C160.363,18.195 159.943,18.543 159.46,18.54L156.82,18.54C156.334,18.538 155.913,18.891 155.83,19.37L154.91,24.49C154.66,25.87 155.11,26.56 156.29,26.56C156.78,26.56 157.24,26.41 157.69,26.12C157.803,26.042 157.953,26.038 158.07,26.11C158.14,26.15 158.19,26.22 158.21,26.31L158.86,28.7C158.928,28.967 158.824,29.25 158.6,29.41C157.53,30.135 156.263,30.516 154.97,30.5C153.35,30.5 152.08,30.03 151.17,29.09C150.25,28.17 149.94,26.79 150.26,24.94L151.21,19.72C151.221,19.661 151.226,19.6 151.226,19.54C151.226,18.993 150.777,18.542 150.23,18.54L150.04,18.54C149.493,18.537 149.045,18.087 149.045,17.54C149.045,17.483 149.05,17.426 149.06,17.37L149.3,15.96C149.383,15.481 149.804,15.128 150.29,15.13L151.22,15.13C151.7,15.128 152.114,14.782 152.2,14.31L152.73,11.36C152.81,10.916 153.18,10.578 153.63,10.54L156.99,10.24C156.999,10.239 157.009,10.239 157.018,10.239C157.238,10.239 157.418,10.42 157.418,10.639C157.418,10.666 157.416,10.693 157.41,10.72L156.83,13.95C156.819,14.009 156.814,14.07 156.814,14.13C156.814,14.677 157.263,15.128 157.81,15.13L159.71,15.13C159.712,15.13 159.713,15.13 159.715,15.13C160.263,15.13 160.715,15.581 160.715,16.13C160.715,16.187 160.71,16.244 160.7,16.3L160.45,17.72ZM171.14,23.98L172.57,15.95C172.657,15.475 173.077,15.127 173.56,15.13L176.12,15.13C176.122,15.13 176.124,15.13 176.126,15.13C176.675,15.13 177.126,15.581 177.126,16.13C177.126,16.19 177.121,16.251 177.11,16.31L174.78,29.31C174.694,29.782 174.28,30.128 173.8,30.13L171.26,30.13C171.258,30.13 171.256,30.13 171.253,30.13C171.045,30.13 170.873,29.959 170.873,29.75C170.873,29.727 170.876,29.703 170.88,29.68C170.94,29.32 170.5,29.06 170.2,29.28C169.097,30.069 167.776,30.496 166.42,30.5C164.62,30.5 163.26,29.9 162.35,28.72C161.43,27.54 161.14,25.97 161.47,24.01L162.92,15.95C163.006,15.478 163.42,15.132 163.9,15.13L166.51,15.13C166.512,15.13 166.514,15.13 166.516,15.13C167.065,15.13 167.516,15.581 167.516,16.13C167.516,16.19 167.511,16.251 167.5,16.31L166.16,23.77C166.02,24.62 166.12,25.3 166.46,25.81C166.8,26.31 167.34,26.56 168.07,26.56C169.1,26.56 169.9,26.17 170.47,25.41C170.78,25.08 171,24.61 171.14,23.98ZM183.7,30.53C182.21,30.53 180.9,30.27 179.74,29.75C178.774,29.386 177.938,28.742 177.34,27.9C177.281,27.808 177.26,27.697 177.28,27.59C177.3,27.49 177.35,27.39 177.43,27.33L179.67,25.24C179.74,25.18 179.82,25.14 179.91,25.14C180.02,25.14 180.13,25.21 180.21,25.3C180.53,25.74 181.05,26.13 181.75,26.47C182.52,26.85 183.29,27.04 184.06,27.04C184.67,27.04 185.14,26.92 185.47,26.69C185.81,26.45 185.98,26.13 185.98,25.72C185.98,25.48 185.89,25.25 185.71,25.05C185.53,24.83 185.31,24.66 185.06,24.53C184.73,24.38 184.41,24.24 184.09,24.13C183.001,23.811 181.971,23.318 181.04,22.67C180.065,22.009 179.5,20.887 179.55,19.71C179.55,18.25 180.15,17.05 181.34,16.13C182.703,15.146 184.36,14.652 186.04,14.73C187.245,14.717 188.441,14.942 189.56,15.39C190.54,15.8 191.28,16.35 191.78,17.05C191.85,17.14 191.88,17.25 191.85,17.37C191.84,17.47 191.79,17.57 191.71,17.64L189.54,19.55C189.465,19.614 189.369,19.65 189.27,19.65C189.149,19.649 189.033,19.599 188.95,19.51C188.556,19.085 188.08,18.745 187.55,18.51C186.979,18.248 186.358,18.111 185.73,18.11C185.21,18.11 184.79,18.21 184.47,18.43C184.178,18.599 183.998,18.912 184,19.25C184,19.46 184.1,19.65 184.28,19.79C184.52,19.99 184.78,20.14 185.06,20.26L185.49,20.45C185.93,20.631 186.374,20.804 186.82,20.97C187.843,21.384 188.764,22.016 189.52,22.82C190.1,23.49 190.39,24.34 190.39,25.35C190.39,26.94 189.78,28.19 188.55,29.12C187.134,30.112 185.427,30.605 183.7,30.52L183.7,30.53Z" style="fill:white;fill-rule:nonzero;"/>
    </g>
    <g transform="matrix(1,0,0,1,-127.164,0.0411541)">
        <g transform="matrix(1,0,0,1,6.47081,0)">
            <path d="M216.76,14.63C218.5,14.63 219.82,15.24 220.73,16.46C221.63,17.69 221.92,19.24 221.6,21.12L220.02,30L215.36,30L216.84,21.93C216.99,21.07 216.94,20.39 216.71,19.89C216.53,19.01 215.91,18.57 214.84,18.57C214.04,18.57 213.37,18.84 212.81,19.37C212.222,19.953 211.84,20.711 211.72,21.53L210.23,30L205.65,30L207.02,21.93C207.16,21.09 207.13,20.42 206.93,19.93C206.73,19.03 206.11,18.57 205.04,18.57C204.034,18.525 203.083,19.047 202.58,19.92C202.31,20.36 202.12,20.9 202.01,21.53L200.48,30L195.86,30L198.56,15L202.39,15L202.01,17.26C203.123,15.574 205.031,14.579 207.05,14.63C209.27,14.63 210.75,15.5 211.52,17.23C212.749,15.576 214.699,14.608 216.76,14.63ZM236.33,16.03C237.69,17.15 238.18,18.83 237.79,21.09L236.21,30L232.51,30L232.81,28.48C231.528,29.702 229.821,30.38 228.05,30.37C226.47,30.37 225.19,29.97 224.23,29.18C223.269,28.427 222.723,27.26 222.76,26.04C222.76,24.37 223.42,23.02 224.74,22C226.04,21 227.76,20.5 229.91,20.5C231.12,20.5 232.31,20.74 233.47,21.24L233.6,20.64C233.72,19.89 233.57,19.29 233.15,18.84C232.65,18.3 231.87,18.04 230.8,18.04C230.19,18.04 229.48,18.16 228.68,18.43C227.88,18.7 227.21,19.03 226.66,19.43L226.34,19.43L225.22,17.09L225.28,16.74C226.227,16.028 227.294,15.493 228.43,15.16C229.61,14.81 230.73,14.63 231.77,14.63C233.72,14.65 235.24,15.12 236.33,16.03ZM229.46,27.43C230.31,27.43 231.07,27.14 231.76,26.59C232.384,26.128 232.815,25.451 232.97,24.69L233.09,23.99C232.227,23.501 231.252,23.246 230.26,23.25C229.35,23.25 228.61,23.45 228.06,23.86C227.5,24.26 227.23,24.81 227.23,25.5C227.23,26.08 227.43,26.54 227.83,26.9C228.23,27.25 228.77,27.42 229.46,27.42L229.46,27.43ZM252.5,15.15L252.64,15.51L251.12,18.84L250.72,19.04C250.174,18.725 249.55,18.572 248.92,18.6C247.69,18.6 246.74,19.1 246.08,20.1C245.83,20.48 245.57,21.37 245.28,22.76L244.03,30L239.38,30L242.08,15L245.91,15L245.56,17.07C246.011,16.485 246.555,15.978 247.17,15.57C248.747,14.513 250.767,14.354 252.49,15.15L252.5,15.15ZM268.76,15L268.94,15.34L262.33,21.66L266.5,29.66L266.24,30L261.52,30L258.61,23.88L256.94,25.48L256.12,30L251.47,30L255.11,9.9L259.43,9.54L259.75,9.76L257.71,21.09L263.9,15L268.76,15Z" style="fill:white;fill-rule:nonzero;"/>
        </g>
        <g transform="matrix(1,0,0,1,6.47081,0)">
            <path d="M276.62,14.63C279.02,14.63 280.82,15.4 282.02,16.93C283.24,18.498 283.669,20.545 283.18,22.47C283.116,22.832 283.015,23.188 282.88,23.53L272.06,23.53C271.99,24.63 272.28,25.47 272.94,26.06C273.6,26.65 274.45,26.94 275.5,26.94C277.04,26.94 278.41,26.39 279.62,25.28L279.94,25.28L281.63,27.28L281.57,27.63C279.799,29.422 277.369,30.413 274.85,30.37C272.63,30.37 270.84,29.67 269.47,28.26C268.084,26.841 267.405,24.872 267.62,22.9C267.68,21.4 268.09,20.04 268.86,18.82C269.598,17.612 270.635,16.613 271.87,15.92C273.305,15.063 274.949,14.617 276.62,14.63ZM272.5,20.82L279,20.82C279.03,20.06 278.85,19.42 278.45,18.9C277.96,18.23 277.21,17.9 276.19,17.92C275.29,17.92 274.5,18.17 273.85,18.69C273.203,19.254 272.734,19.994 272.5,20.82ZM296.07,18.41L291.74,18.41L290.67,24.36C290.42,25.74 290.87,26.43 292.05,26.43C292.61,26.43 293.13,26.23 293.63,25.85L293.94,26.05L294.69,28.83L294.49,29.19C293.394,29.973 292.077,30.387 290.73,30.37C289.323,30.448 287.946,29.936 286.93,28.96C286.01,28.04 285.7,26.66 286.02,24.81L287.19,18.41L284.61,18.41L285.21,15L287.81,15L288.62,10.47L292.89,10.11L293.22,10.33L292.37,15L296.67,15L296.07,18.41Z" style="fill:white;fill-rule:nonzero;"/>
        </g>
    </g>
</svg>
