<svg viewBox="0 0 64 39" xmlns="http://www.w3.org/2000/svg" fill-rule="evenodd" clip-rule="evenodd" stroke-linejoin="round" stroke-miterlimit="1.414"><path d="M36.107 8.187c-3.362-.43-5.406-1.868-6.382-2.759-.564.241-1.121.499-1.666.781a12.847 12.847 0 0 0 6.342 3.252c2.712.531 5.596.15 8.067-1.091.722-.352 1.392-.796 2.05-1.255 0 0-3.757 1.667-8.411 1.072" fill="#263238"/><path d="M59.355 28.101c-1.894-1.675-4.206-2.8-6.572-3.64-.788-.325-1.676-.436-2.377-.949-.122-.069-.069-.224-.079-.335-.002-.631-.074-1.26-.115-1.89-.025-1.049.063-2.119.419-3.113.226-.643.652-1.242 1.274-1.553.886-.448 1.907-.413 2.872-.499 1.213-.063 2.421-.413 3.452-1.063.904-.564 1.584-1.48 1.81-2.527-3.247-3.78-7.302-6.905-11.892-8.879C44.045 1.899 39.607.917 35.143.851c-1.984-.024-3.976.073-5.928.442a13.062 13.062 0 0 0 2.588 3.215s2.277 2.187 5.776 2.645c3.498.458 7.176-.224 7.176-.224-.788 1.954-.898 4.137-1.948 5.99-.6 1.137-1.6 2.082-2.839 2.473-1.65.479-3.402.281-5.057-.068-1.75-.39-3.513-.737-5.301-.883-1.601-.16-3.209-.217-4.815-.314a27.381 27.381 0 0 1-4.848-.72c-.487-.124-.96-.303-1.449-.424-.707-.188-3.132-1.356-3.703-1.63-.563.861-.982 2.114-.867 3.142.171 1.194.928 2.308 2.011 2.855.054.029.107.053.16.073 1.84-1.483 4.411-1.445 4.43-1.445h.001-.001c-.088.023-2.172.653-3.515 2.076a.542.542 0 0 1-.109.13l-.043.038a4.296 4.296 0 0 0-.583.856c-.045.089-.089.177-.135.26-.725 1.394-.905 2.976-1.376 4.458-.231.71-.517 1.421-1.001 2-.791.988-2.043 1.532-3.288 1.623-.434.036-.843.201-1.242.367-.645.335-1.033.979-1.433 1.559a17.588 17.588 0 0 1-2.869 3.39C3.322 34.218 1.908 35.895.423 37.5c.583.719 1.442 1.329 2.408 1.274 1.023.012 1.881-.62 2.678-1.182.557-.441 1.118-.876 1.636-1.363 1.153-.915 2.367-1.75 3.574-2.593.728-.511 1.518-.945 2.366-1.222 1.461-.5 3-.699 4.485-1.113 1.435-.369 2.884-.75 4.206-1.436 1.098-.58 2.098-1.364 2.886-2.326l.008-.01a8.13 8.13 0 0 0 .372-.492c1.524-2.303.575-5.162.575-5.162s1.695 1.595 1.539 4.058c.119-.017.238-.031.358-.039 1.312-.102 2.604.236 3.835.654 1.903.674 3.686 1.634 5.536 2.432 1.129.5 2.297.945 3.508 1.197-2.04-2.738-1.513-5.874-1.513-5.874s1.659 4.858 6.168 5.921c2.732.587 3.946.294 5.216.192 1.354-.109 1.367-.214 2.059-.255.782-.081 1.573.034 2.326.253.592.166 1.178.372 1.712.683 1.079.616 2.081 1.396 2.85 2.377.69.835 1.809 1.394 2.904 1.165.774-.146 1.418-.718 1.728-1.432-.927-2.116-2.605-3.811-4.488-5.106" fill="#263238"/><path d="M16.862 18.222c-.258.222-.425.545-.583.856.158-.311.358-.595.583-.856" fill="#fff"/></svg>
