<svg width="990" height="53" xmlns="http://www.w3.org/2000/svg"><g fill="none" fill-rule="evenodd"><g opacity=".5" fill="#FFF"><path d="M29.257 2.305c1.952-.368 3.944-.466 5.928-.442 4.464.066 8.902 1.048 13.004 2.803 4.59 1.973 8.644 5.098 11.892 8.878-.226 1.047-.906 1.963-1.81 2.528-1.031.65-2.24.999-3.453 1.062-.964.086-1.986.05-2.871.5-.623.31-1.048.909-1.275 1.552-.355.994-.444 2.064-.418 3.113.041.63.113 1.259.115 1.89.01.11-.043.266.079.335.7.513 1.589.624 2.376.948 2.367.841 4.679 1.966 6.573 3.64 1.882 1.296 3.56 2.99 4.488 5.106-.31.714-.955 1.287-1.729 1.433-1.094.229-2.214-.33-2.904-1.165-.769-.981-1.77-1.761-2.849-2.378-.534-.31-1.12-.517-1.713-.682-.752-.22-1.543-.334-2.326-.254-.691.041-1.371.182-2.059.256-.737.023-1.472.082-2.21.092-1.206.136-2.428-.04-3.577-.415a7.961 7.961 0 0 1-2.996.254c-1.602-.161-3.132-.719-4.595-1.367-1.85-.798-3.633-1.758-5.536-2.432-1.23-.418-2.523-.756-3.835-.654a4.786 4.786 0 0 0-2.011.582c-.149.078-.234.228-.325.361-.842 1.286-2.047 2.313-3.402 3.028-1.322.685-2.771 1.067-4.206 1.436-1.485.413-3.024.613-4.485 1.113-.848.277-1.638.71-2.366 1.222-1.207.842-2.42 1.677-3.574 2.593-.517.487-1.079.922-1.636 1.363-.797.562-1.655 1.193-2.678 1.181-.966.055-1.824-.555-2.408-1.273 1.485-1.606 2.9-3.282 4.512-4.765a17.6 17.6 0 0 0 2.87-3.39c.399-.58.787-1.225 1.433-1.559.398-.166.807-.33 1.242-.367 1.244-.092 2.496-.635 3.287-1.623.484-.58.77-1.29 1-2 .472-1.482.652-3.064 1.377-4.458.215-.393.428-.81.789-1.09.176-.147.305-.338.447-.514-.48-.128-.996-.143-1.441-.384-1.083-.547-1.84-1.661-2.011-2.854-.115-1.029.185-2.085.748-2.946.572.275 1.189.429 1.775.666.695.223 1.34.579 2.047.767.489.121.962.3 1.45.424 1.589.39 3.215.621 4.847.72 1.606.097 3.214.154 4.815.315 1.788.145 3.551.492 5.3.882 1.656.35 3.408.547 5.058.068 1.239-.39 2.238-1.336 2.838-2.473 1.05-1.853 1.16-4.036 1.949-5.99-.658.46-1.328.904-2.05 1.256a12.696 12.696 0 0 1-8.067 1.092 12.851 12.851 0 0 1-6.342-3.253c1.132-.586 2.315-1.067 3.507-1.516a13.056 13.056 0 0 1-2.588-3.215M95.286 2.587c1.707-.26 3.44-.3 5.164-.235 4.251.113 8.46 1.05 12.416 2.597a32.555 32.555 0 0 1 7.674 4.222 33.759 33.759 0 0 1 5.532 5.197c-.21 1.073-.936 1.994-1.86 2.555-.887.539-1.9.871-2.93.978-1.062.126-2.18.031-3.181.464-.68.292-1.145.931-1.375 1.618-.391 1.132-.4 2.348-.343 3.53.068.68.11 1.365.067 2.047.499.457 1.144.692 1.762.94 2.16.926 4.43 1.928 6.27 3.41.32.25.767.592 1.087.842 1.821 1.392 3.138 2.745 4.105 4.699.051.113.132.243.056.366-.299.645-.889 1.16-1.586 1.324-.822.205-1.706-.04-2.375-.54-.557-.382-.907-.979-1.417-1.412-1.082-.941-2.282-1.803-3.665-2.236-.77-.27-1.582-.464-2.403-.45-.556.025-1.113.036-1.664.125-.925.12-1.864.089-2.793.04-1.21.023-2.413-.24-3.526-.706-.838.177-1.7.253-2.556.165-1.578-.164-3.088-.705-4.532-1.34-2.078-.91-4.067-2.025-6.2-2.805-1.614-.591-3.407-.981-5.103-.507-.414.149-.907.245-1.168.637a8.608 8.608 0 0 1-4.667 2.98c-1.293.328-2.631.435-3.962.46-1.163.044-2.332-.058-3.49.078-.767.098-1.568.358-2.07.979-1.689 1.694-2.683 3.955-4.464 5.565-.544.502-1.23.886-1.983.917-.824.054-1.605-.327-2.23-.835.894-1.5 1.834-2.973 2.75-4.46.545-.96 1.102-1.92 1.524-2.942.414-1 .717-2.045 1.156-3.036.206-.444.512-.882.98-1.07.722-.279 1.507-.139 2.257-.244 1.17-.112 2.424-.385 3.273-1.26.874-.87 1.16-2.117 1.43-3.276.318-1.138.753-2.334 1.684-3.115.099-.11.192-.226.287-.338-.566-.104-1.135-.243-1.612-.582-1.104-.74-1.747-2.103-1.645-3.424a4.38 4.38 0 0 1 1.131-2.445c.478.336 1.017.564 1.53.836.74.347 1.448.774 2.235 1.012 3.301 1.277 6.89 1.278 10.352 1.76 1.763.236 3.507.609 5.218 1.093 1.705.464 3.495.896 5.267.572 1.293-.242 2.4-1.13 3.032-2.268 1.17-1.935 1.162-4.286 2.058-6.328a12.81 12.81 0 0 1-5.61 2.243c-3.956.598-8.146-.818-10.936-3.684a33.586 33.586 0 0 1 3.55-1.379c-.99-.98-1.862-2.093-2.501-3.334M161.318 4.196c.994-.016 1.747-.032 2.98.067 2.627.243 5.242.669 7.786 1.377 1.911.53 3.787 1.187 5.632 1.913 3.08 1.188 6.052 2.699 8.71 4.668 2.059 1.529 3.948 3.302 5.55 5.308-.196.71-.562 1.376-1.105 1.88-.831.773-1.92 1.203-3.014 1.446-1.265.268-2.64.035-3.827.628-.905.466-1.303 1.483-1.54 2.415-.507 1.947-.312 3.981-.589 5.956.207.33.514.58.811.824 2.272 1.736 4.67 3.354 6.605 5.48.342.415.898.523 1.323.826 1.292.873 2.485 1.936 3.344 3.249.146.232.323.453.412.715-.15.603-.599 1.121-1.146 1.408-.8.421-1.796.331-2.57-.103-.777-.389-1.278-1.13-1.974-1.63-.565-.403-1.091-.861-1.684-1.225-.464-.314-.919-.649-1.43-.883-.949-.426-1.867-.956-2.9-1.15-.665-.119-1.334-.251-2.012-.228-.951.013-1.894-.161-2.807-.418-.971-.203-1.883-.62-2.727-1.133-.182-.106-.348-.245-.547-.318-1.538.127-3.062-.305-4.446-.947-1.503-.668-2.852-1.625-4.164-2.606-1.886-1.382-3.643-2.979-5.767-3.999-.907-.413-1.976-.496-2.91-.12-.33.096-.481.43-.704.661-1.017 1.258-2.498 2.1-4.073 2.428-1.665.3-3.382.22-5.035-.11-.852-.18-1.758-.54-2.616-.191-.02.444.2.838.357 1.24.215.546.456 1.083.654 1.638.297 1.375.486 2.828.118 4.21-.167.692-.532 1.361-1.124 1.778-.623.418-1.408.539-2.144.467-.188-1.554-.168-3.134-.475-4.674-.192-1.001-.847-1.812-1.216-2.744-.294-.697-.738-1.332-.899-2.08-.157-.913-.34-1.858-.116-2.775.188-.516.516-1.055 1.082-1.205.973-.296 1.981-.46 2.962-.73.883-.187 1.822-.46 2.442-1.161.62-.675.652-1.66.668-2.527-.041-.652.13-1.29.296-1.915.38-.786.998-1.423 1.644-2-.457-.156-.932-.292-1.331-.571-1.138-.822-1.715-2.324-1.457-3.698.168-1.177 1.018-2.154 2.033-2.718.4.486.778.994 1.236 1.43 1.427 1.39 3.342 2.227 5.306 2.484 2.176.306 4.359.613 6.493 1.148a24.817 24.817 0 0 1 4.723 1.791c1.589.84 3.11 1.887 4.882 2.303.909.244 1.945.078 2.681-.525.741-.566 1.182-1.423 1.501-2.28.674-1.796.607-3.798 1.452-5.54-.515.36-1.042.721-1.652.9-2.398.948-5.07 1.247-7.605.722a12.964 12.964 0 0 1-7.427-4.438c1.17-.476 2.413-.753 3.624-1.106-.934-1.079-1.754-2.276-2.274-3.612M226.83 6.973c.841.111 1.709.045 2.527.304.947.283 1.917.476 2.869.739a50.24 50.24 0 0 1 6.728 2.265c1.763.742 3.511 1.515 5.26 2.29 2.638 1.143 5.185 2.52 7.496 4.238a30.158 30.158 0 0 1 3.688 3.254c.648.68 1.292 1.37 1.847 2.13-.28 1.02-1.01 1.88-1.927 2.392a7.434 7.434 0 0 1-3.336.995c-.776.077-1.581.134-2.284.504-.693.34-1.195.974-1.518 1.66-.779 1.572-1.247 3.27-1.73 4.95-.3 1.113-.695 2.198-1.09 3.28-.07.218-.244.395-.284.622.03.24.11.474.206.697.733 1.616 1.675 3.13 2.733 4.553.25.323.448.685.721.992.29.317.459.729.786 1.014.237.217.428.491.709.656.435.187.902.322 1.295.598 1.27.878 2.415 1.964 3.237 3.278.098.181.264.348.284.558a2.365 2.365 0 0 1-1.467 1.512c-1.225.436-2.549-.204-3.366-1.122-.626-.643-1.394-1.117-2.08-1.69-.67-.44-1.259-.994-1.966-1.377-.31-.17-.622-.339-.9-.557-1.01-.79-2.15-1.4-3.328-1.897-.778-.232-1.602-.315-2.346-.652-.606-.343-1.196-.736-1.666-1.254-.661-.668-1.073-1.522-1.55-2.319-1.623-.362-2.938-1.448-4.178-2.496-1.96-1.696-3.28-3.956-4.738-6.064-.316-.48-.61-.977-.982-1.416-.477-.616-.88-1.289-1.378-1.887-.108-.065-.232-.094-.35-.132-.302.629-.561 1.297-1.032 1.825-.256.287-.517.576-.829.803-1.018.677-2.267.966-3.481.885-.407-.019-.776-.231-1.18-.246-.257.11-.4.37-.536.598.119.336.366.598.632.823.371.315.7.694 1.142.911.74.389 1.461.811 2.154 1.28.664.492 1.387 1.005 1.697 1.808.374.89.07 1.889-.38 2.69a1.28 1.28 0 0 1-.34-.046c-1.416-.619-2.888-1.122-4.241-1.878-.522-.286-1.092-.478-1.587-.813-.382-.25-.807-.43-1.161-.721-.45-.354-.905-.7-1.372-1.032-.714-.579-1.08-1.445-1.535-2.217-.084-.628-.309-1.294-.051-1.909.093-.269.208-.53.338-.783.209-.447.835-.476 1.021-.944.177-.449.512-.83.588-1.318.179-.995.06-2.017-.14-3-.152-.7-.214-1.415-.372-2.114-.057-.531-.061-1.07-.04-1.603.258-.55.75-.947 1.081-1.45a5.395 5.395 0 0 1-1.008-.463c-.923-.517-1.64-1.43-1.827-2.48-.13-.761-.077-1.563.217-2.28.406-.844 1.123-1.503 1.94-1.945.518.576.86 1.3 1.446 1.82 1.187 1.136 2.764 1.893 4.407 2.021 1.047.047 2.09.161 3.135.229.75.116 1.493.278 2.241.407.72.16 1.417.405 2.124.614 1.979.7 3.812 1.794 5.388 3.179.766.72 1.453 1.518 2.19 2.266.66.692 1.366 1.367 2.229 1.797.398.127.843.118 1.247.017.659-.306 1.169-.883 1.453-1.55.783-1.637.743-3.494 1.109-5.24.1-.438.295-.848.46-1.265-.452.249-.859.615-1.384.697-.588.106-1.163.273-1.752.375-1.129.204-2.282.241-3.426.187-4.047-.234-7.957-2.442-10.17-5.852.784-.208 1.59-.323 2.381-.495.437-.095.88-.16 1.325-.21-.845-1.234-1.647-2.533-2.023-3.996M292.634 7.206c.861.045 2.67.487 3.306.688 1.044.33 2.093.642 3.13.994a54.367 54.367 0 0 1 6.545 2.703c1.47.705 2.939 1.416 4.433 2.068 4.01 1.644 7.711 4.07 10.75 7.166.774.755 1.555 1.51 2.213 2.371a3.835 3.835 0 0 1-.967 1.629c-.412.438-.943.732-1.462 1.023-.83.421-1.733.707-2.663.789-.737.104-1.496.21-2.164.56-.902.452-1.611 1.23-2.082 2.114-.548.873-.98 1.812-1.488 2.709-.67 1.296-1.327 2.6-2.045 3.872-.597.934-1.191 1.882-1.877 2.75-.114.667.055 1.345.124 2.01.2.704.413 1.47.989 1.966.23.173.464.352.732.462.762.229 1.551.393 2.277.723.76.473 1.477 1.035 2.048 1.73.96 1.11 1.602 2.473 1.977 3.886.06.127-.077.226-.136.322-.458.546-1.146.912-1.866.91-1.021.004-1.989-.635-2.453-1.532-.245-.494-.584-.952-1.04-1.268a5.522 5.522 0 0 0-1.466-.68c-.583-.189-6.098-1.52-7.685-2.176-.451-.275-.902-.57-1.288-.933-.409-.547-.763-1.148-.953-1.808a57.478 57.478 0 0 1-.429-1.606c-1.21-.49-2.137-1.459-2.977-2.426-1.11-1.212-1.966-2.64-2.627-4.14-.391-.851-.744-1.719-1.14-2.567-.266-.614-.47-1.259-.84-1.82a5.062 5.062 0 0 1-1.108 2.143c-.394.363-.814.728-1.33.902-.697.284-1.448.556-2.21.415-.21-.045-.373.174-.394.363.958.243 1.901.566 2.887.683 1.4.267 2.858.645 3.966 1.59.624.516 1.009 1.322.941 2.137-.03.46-.141.913-.321 1.338-.36.007-1.755-.54-3.284-.827-1.53-.286-3.135-.361-5.592-.76-.986-.174-3.477-1.279-3.686-2.871-.08-.5-.235-1.05.015-1.526.653-1.01.609-3.19.499-4.016-.056-.641-.369-1.216-.562-1.82-.25-.769-.594-1.508-.775-2.298-.126-.678-.006-1.367-.027-2.05 0-.213.054-.42.1-.624-.844-.066-1.623-.506-2.244-1.062-.418-.433-.55-.545-.746-.868-1.073-1.786-.54-4.564 1.053-5.902.249-.23.541-.403.84-.561.147.182.265.385.35.603.22.55.497 1.079.846 1.558.33.386.73.706 1.137 1.005.394.3.882.424 1.354.538.953.243 1.946.125 2.912.047.54-.06 1.081-.071 1.621-.114.99-.148 1.989.008 2.982.006.733.076 1.449.268 2.17.411 1.678.495 3.277 1.277 4.654 2.36 1.478 1.085 2.507 2.637 3.844 3.871.62.452 1.319.925 2.12.907.896.04 1.696-.565 2.17-1.283.64-.967 1.03-2.094 1.182-3.242.124-.64.172-1.291.265-1.936.072-.538.298-1.036.498-1.535-.35.191-.668.438-1.038.588-.426.115-.873.124-1.302.225-1.128.239-2.287.297-3.437.248-4.417-.094-8.71-2.562-11.015-6.33.457-.1.918-.181 1.381-.252.776-.108 1.535-.324 2.32-.36-.77-1.326-1.606-2.664-1.912-4.19M358.394 32.03c-.21.5-.398 1.033-.797 1.417-.494.586-1.226.888-1.746 1.445-.097.163-.06.365-.06.546 1.323.018 2.649.015 3.969-.096a16.113 16.113 0 0 1-1.366-3.311m-.398-23.895c1.225.133 4.454.912 5.44 1.213A57.446 57.446 0 0 1 370 11.688c1.776.775 3.553 1.554 5.356 2.271 1.289.495 2.557 1.053 3.76 1.734 1.472.825 2.858 1.796 4.177 2.847 1.343 1.077 2.556 2.3 3.81 3.476.478.471.954.948 1.377 1.47-.146.658-.525 1.24-.979 1.726-.397.421-.908.703-1.394 1.007a6.953 6.953 0 0 1-2.504.834 11.28 11.28 0 0 0-1.572.322c-1.123.331-2.073 1.098-2.785 2.01-.433.65-.912 1.268-1.321 1.934-.429.7-.956 1.333-1.412 2.015-.557.832-1.198 1.603-1.805 2.398-.665.871-1.511 1.577-2.282 2.348-.179.192-.424.311-.594.511-.337.802-.455 1.67-.602 2.522-.026.19.04.376.07.562.54.266 1.142.341 1.712.517.58.139 1.124.39 1.657.65.148.074.31.166.364.335.132.362.227.738.333 1.11.142.56.345 1.123.289 1.712-.06.695-.03 1.41-.24 2.083-.289 1.131-.665 2.248-1.193 3.292-.744.207-1.588.092-2.212-.379-.542-.374-.835-1.015-.947-1.647-.072-.763.343-1.447.645-2.116.157-.328.122-.762-.134-1.029a2.785 2.785 0 0 0-1.171-.527c-.533-.106-1.036-.327-1.577-.39-.2-.032-1.9-.618-2.637-.79-.57-.159-1.225-.4-1.76-.662-.362-.262-.686-.573-1.012-.877-.321-.27-.402-.703-.56-1.071-.293-.73-.294-1.526-.35-2.297-.914-.228-1.863-.434-2.808-.31-.787.115-1.547.372-2.336.468-2.265.54-4.006.142-4.552-.161-1.256-.531-1.633-1.345-1.822-1.688-.164-.304-.076-.662-.126-.99-.042-.974-.956-2.936-1.395-3.743-.34-.507-.812-.903-1.211-1.36-.566-.553-.94-1.26-1.326-1.94-.45-1.037-.7-2.143-.952-3.24-.062-.251-.024-.511-.015-.766-.238-.024-.494-.007-.706-.14-1.022-.556-1.946-1.31-2.643-2.244-.595-.821-.727-1.815-.671-2.812.03-.275.04-.366.081-.562.082-.698.411-1.315.693-1.952.233-.483.605-.882.994-1.242.265-.248.583-.437.925-.56.241.506.32 1.067.513 1.59.21.553.398 1.143.85 1.551.38.345.718.82 1.26.903.454.083.928.116 1.378-.009 1.098-.29 2.16-.695 3.234-1.057.724-.318 1.508-.444 2.264-.659.798-.248 1.645-.199 2.468-.27 2.076.059 4.133.653 5.919 1.712.379.246.745.51 1.112.773.516.361.952.82 1.424 1.234.676.583 1.293 1.245 2.06 1.713.847.508 1.816.958 2.83.809.715-.078 1.26-.617 1.672-1.162a6.314 6.314 0 0 0 .77-1.79c.141-.8.234-1.609.302-2.419.052-.563.266-1.09.474-1.611-.437.258-.839.616-1.351.712-.816.167-1.618.41-2.447.506a17.073 17.073 0 0 1-3.16.059c-3.989-.35-7.76-2.617-9.937-5.98.758-.203 1.54-.295 2.304-.47.462-.108.93-.182 1.403-.228-.822-1.285-1.632-2.618-1.983-4.118M425.075 34.96c-.115.375-.181.764-.23 1.152.06.376.216.737.429 1.05.125.181.354.216.548.282.119-.28.175-.58.243-.875-.484-.43-.734-1.032-.99-1.608m-1.841-25.198c2.125 0 4.483.469 5.446.663 2.607.48 5.172 1.175 7.685 2.017 1.878.627 3.776 1.203 5.623 1.92 2.854 1.114 5.375 2.928 7.65 4.952.638.59 1.276 1.18 1.903 1.782.804.73 1.623 1.448 2.357 2.251-.158.785-.618 1.481-1.193 2.026-.943.785-2.05 1.403-3.266 1.632-.982.17-1.995.314-2.888.784-.72.355-1.336.881-1.904 1.44-.35.368-.624.801-.965 1.177-.566.639-1.026 1.365-1.624 1.975-.48.493-.922 1.02-1.392 1.523-.494.535-1.055 1.002-1.567 1.52-.857.882-3.175 2.328-3.555 2.684-.38.355-.687 1.087-.925 1.654-.178.383-.227 1.736-.182 1.995.837.653 1.689 1.302 2.4 2.097.143.137.101.356.064.529-.183.739-.426 2.063-1.03 2.985-.337.515-.681 1.025-1.055 1.513-.91.975-1.863 1.922-2.933 2.723-.219.21-.519.03-.748-.062a2.46 2.46 0 0 1-1.421-1.736c-.058-.571-.013-1.194.317-1.682.433-.599 1.065-1.001 1.65-1.434.354-.253.615-.638.698-1.066-.276-.881-1.06-1.341-1.854-1.785-.752-.42-2.465-1.37-3.051-1.678-.215-.105-.415-.246-.645-.317-.486.052-.948.237-1.439.258-.574.077-2.004.074-3.343-.436-.535-.211-.953-.641-1.278-1.105-.223-.372-.05-.84-.246-1.219-.117-.218-.275-.409-.413-.613-.462-.706-3.082-2.047-4.37-2.402-.458-.127-.717-.14-.952-.421-.421-.437-1.229-1.394-1.79-2.324-.549-1.099-.987-1.796-1.377-2.96-.194-.581-.069-1.013-.07-1.295-.251-.023-.53.009-.745-.147-1.142-.737-2.232-1.602-3.033-2.712-.964-1.44-.945-3.365-.281-4.922.533-1.245 1.549-2.31 2.244-2.552.275.818.388 1.682.682 2.497.17.707.715 1.224 1.215 1.715.279.274.707.25 1.063.19.493-.072.869-.424 1.29-.658 1.18-.685 2.245-1.547 3.422-2.236.45-.27.876-.593 1.377-.764.677-.242 1.332-.574 2.051-.672.629-.09 1.253-.24 1.892-.215.686.01 1.38-.023 2.057.115.605.119 1.228.187 1.804.424.755.306 1.541.566 2.212 1.044 1.055.61 2.01 1.373 3.04 2.022.499.332 1.067.531 1.595.809.562.29 1.188.417 1.805.525.707.138 1.375-.266 1.89-.708.385-.454.649-1.007.849-1.565.141-.73.208-1.474.274-2.215.04-.562.24-1.092.424-1.619-.488.333-.96.707-1.531.89a13.186 13.186 0 0 1-6.803.944c-3.353-.45-6.536-2.242-8.57-4.957.81-.266 1.641-.455 2.46-.693.386-.114.782-.194 1.178-.271-.886-1.176-1.727-2.42-2.178-3.834M502.358 19.077c-2.203 1.14-4.761 1.554-7.216 1.226.635.42 1.34.722 1.98 1.133.363.23.761.393 1.158.555.4.156.763.394 1.159.562.375.167.779.252 1.165.389.387.124.8.25 1.208.151.35-.087.695-.202 1.012-.376.26-.134.41-.398.577-.626.185-.283.38-.568.497-.888.13-.68.201-1.368.271-2.056.05-.53.219-1.038.376-1.544-.698.535-1.402 1.071-2.187 1.474m-13.55-7.246c1.039-.173 2.1-.23 3.153-.202a47.881 47.881 0 0 1 8.794.792c3.309.64 6.713 1.278 9.652 3.016 1.494.854 2.86 1.914 4.158 3.04 1.181 1.017 2.258 2.149 3.452 3.152.477.436.97.855 1.432 1.307.076.086.212.18.152.315-.174.818-.674 1.544-1.293 2.092-.618.457-1.236.938-1.967 1.204-.94.413-1.983.441-2.958.733-1.31.342-2.444 1.148-3.4 2.08-.556.672-1.189 1.27-1.765 1.922a8.145 8.145 0 0 1-.982.992c-.763.635-1.446 1.362-2.247 1.95-.695.504-1.358 1.052-2.07 1.533-.873.54-1.782 1.016-2.674 1.523-.226.134-.487.187-.717.308-.36.327-.548.783-.784 1.196-.168.304-.345.606-.455.938 1.45.085 3.023.257 4.172 1.233.863.723 1.025 1.972.746 3.01-1.694-.104-3.386-.431-5.087-.282.102.448.415.815.513 1.264.01.245-.184.421-.31.608a45.33 45.33 0 0 1-1.168 1.49c-.443.592-1.088.978-1.661 1.428-.692.541-1.476.94-2.25 1.348-.784.369-1.562.765-2.397 1.003-.929-.443-1.495-1.552-1.306-2.569.147-.545.405-1.095.874-1.436.736-.567 1.682-.73 2.463-1.217.525-.33.966-.905.87-1.557-.672-.023-1.244-.123-1.998-.265-.943-.25-1.428-.513-1.895-1.107-.137-.18-.278-.366-.355-.58-.042-.337.064-.67.066-1.005-.05-.254-.284-.41-.442-.598-.454-.52-1.201-.512-1.828-.637-1.347-.257-2.586-.144-3.947-.12-.378.006-.8.123-1.052-.134-1.213-.843-2.313-2.427-2.559-2.834-.63-1.18-1.146-2.418-1.643-3.659-.103-.304-.1-.631-.127-.949-1.912-.364-3.149-1.849-4.062-3.022-.73-.977-.944-2.238-.853-3.432.028-.75.488-2.305 1.118-3.187.376-.465.764-.97 1.37-1.135.211.958.487 1.9.786 2.835.142.489.52.853.86 1.214.232.218.451.513.799.529.335-.009.684-.092.953-.3.208-.162.383-.36.58-.533 1.16-.948 2.15-2.078 3.21-3.133.51-.59 1.183-.992 1.802-1.454.43-.319.932-.509 1.419-.719.845-.401 1.777-.554 2.683-.755.765-.08 1.535-.137 2.305-.112a12.043 12.043 0 0 1-3.16-2.356c1.15-.497 2.306-.987 3.505-1.352a1.22 1.22 0 0 0-.21-.271 12.707 12.707 0 0 1-2.264-3.143M559.542 41.352c-.052.681-.06 1.373.06 2.047.231-.174.432-.389.58-.637.052-.087.086-.193.046-.29a3.055 3.055 0 0 0-.686-1.12m-2.87-30.354c5.208-.666 10.559-.245 15.587 1.276 1.592.492 3.14 1.15 4.559 2.031 1.42.853 2.723 1.883 3.967 2.973 1.23 1.082 2.35 2.282 3.594 3.348.461.457.977.864 1.393 1.362.02.307-.13.603-.251.88-.314.569-.713 1.113-1.258 1.48-.38.252-.734.542-1.14.75a6.889 6.889 0 0 1-2.081.674c-1.035.16-2.08.398-2.992.934-.852.514-1.66 1.136-2.28 1.92-.49.537-1.008 1.05-1.484 1.6-.557.672-1.266 1.19-1.898 1.788-.527.508-1.09.978-1.69 1.394-.623.435-1.21.922-1.86 1.316-.726.37-1.467.71-2.207 1.047-.378.172-.745.378-1.152.474-.297.056-.489.311-.702.502-.388.444-1.675 1.838-1.898 2.13a3.356 3.356 0 0 1-.403.45l.088.2c.547.026 1.9 1.183 2.45 1.924.038.15-.024.296-.078.433-.305.741-.446 1.371-.969 2.2-.438.769-1.755 2.08-2.517 2.571.267.276.607.472.981.563.573.242 1.187.359 1.8.445.727.114 1.394.588 1.703 1.26.242.531.36 1.115.394 1.695-.798.12-1.613.55-4.234.505-1.52-.103-2.933-1.15-3.518-1.44-.594-.374-1.16-.794-1.771-1.142a6.023 6.023 0 0 1-2.05-1.977c-.522-.825-.865-1.745-.46-2.636.244-.197.551-.31.754-.561-.131-.27-.585-.785-.809-.912-1.344-.8-2.746-1.517-4.228-2.027-.698-.234-1.65-.362-2.318-.942-.522-.538-1.516-1.718-2.013-2.72-.52-1.178-.89-2.413-1.338-3.618-.152-.362-.143-.758-.138-1.143-.291-.005-.614.022-.854-.177-1.17-.8-2.325-1.675-3.18-2.82-.96-1.395-1.124-3.32-.585-4.885.157-.471.39-1.363 1.622-2.375.179-.123.382-.204.578-.297.233.914.516 1.814.835 2.7.202.649.802 1.034 1.282 1.466.273.258.674.247 1.02.192.525-.068.948-.41 1.401-.652.611-.315 1.18-.703 1.747-1.091 1.15-.74 2.032-1.82 3.19-2.549.7-.566 1.541-.894 2.373-1.211 1.265-.388 2.558-.726 3.884-.8.703.034 1.41.067 2.104.178.7.207 1.429.329 2.092.642.604.29 1.236.512 1.831.82.519.267 1.102.362 1.637.589.404.167.83.283 1.263.343.476.073.967.279 1.448.122.338-.12.652-.303.938-.517.37-.27.583-.689.804-1.079.461-.776.538-1.696.715-2.564.103-.601.27-1.188.467-1.764-.728.512-1.424 1.079-2.21 1.501a12.367 12.367 0 0 1-6.378 1.495 12.669 12.669 0 0 1-8.002-3.2 32.222 32.222 0 0 1 3.447-1.61c-1.056-.91-1.996-1.964-2.714-3.162.566-.123 1.14-.208 1.712-.302M621.264 10.195c2.498-.788 5.104-1.22 7.72-1.335 4.115-.176 8.306.499 12.055 2.247 2.832 1.377 5.324 3.365 7.556 5.567 1.047 1.068 2.155 2.074 3.177 3.166.11.133.25.253.307.419-.26 1.001-.968 1.86-1.858 2.375a6.536 6.536 0 0 1-2.808 1.122c-.914.122-1.847.266-2.681.68-.83.4-1.553 1.003-2.168 1.686-.516.68-1.093 1.311-1.6 1.998-.537.74-1.212 1.362-1.8 2.058a17.493 17.493 0 0 1-1.715 1.714c-.442.385-.837.827-1.323 1.16-1.369.985-2.153 1.031-3.2 1.77a7.822 7.822 0 0 0-1.034 1.097c.708.06 1.324.436 1.959.72.17.09.422.19.415.421.018.799-.002 1.599-.03 2.398-.003.283-.157 1.3-1.142 2.565-.875 1.083-1.77 2.167-2.827 3.08-.763-.1-1.497-.504-1.904-1.17-.392-.558-.412-1.291-.241-1.93.173-.536.647-.889 1.056-1.242.276-.26 1.086-.614 1.326-1.117-.197-.054-.386-.14-.588-.17-.31-.005-.612.137-.923.083-1.419-.077-3.138-1.116-3.846-1.579a2.242 2.242 0 0 0-.473-.247c-.204 1.284-.828 2.447-1.505 3.54-.409.71-.961 1.318-1.478 1.95-.827.914-1.962 1.53-2.638 2.583-.1.15-.157.447.076.505.338.108.686.185 1.034.252 1.374.104 2.782.261 4.05.835.718.317 1.364.893 1.606 1.657.194.585.162 1.218.072 1.819-.372.038-.743-.019-1.114-.041-.942-.06-1.88-.151-2.82-.227-3.498-.297-5.895-1.038-6.64-1.594-.56-.467-1.169-.894-1.585-1.503a2.24 2.24 0 0 1-.54-1.798c.151-.558.586-.966.895-1.437.267-.42.56-.821.806-1.253.285-.497.619-.98.767-1.541.092-.579-.049-1.247-.527-1.626-.524-.418-1.122-.728-1.713-1.039-.587-.23-1.54-1.4-1.954-2.31-.403-.886-.89-2.055-1.068-3.63-.108-.344-.051-1.007-.03-1.36-.293-.008-.617.015-.859-.183-1.074-.574-1.72-.718-2.916-2.568-.95-1.343-1.034-3.156-.514-4.68.425-1.106 1.385-2.453 2.131-2.636.261.912.55 1.82.951 2.682.164.363.5.597.793.847.329.26.661.597 1.115.571.573.056 1.114-.162 1.607-.425.864-.384 1.667-.888 2.458-1.403.788-.578 1.487-1.27 2.305-1.808.447-.302.876-.642 1.383-.842 1.241-.572 2.564-.949 3.895-1.247.842-.216 1.72-.166 2.581-.186.899.083 1.806.16 2.673.427.684.145 1.349.374 2.038.49.775.054 1.537.29 2.32.214.61-.03 1.292.075 1.812-.328.96-.58 1.509-1.598 1.926-2.601.42-1.213.714-2.465 1.153-3.672-.31.205-.612.422-.918.634-1.703 1.375-3.805 2.217-5.963 2.535a12.97 12.97 0 0 1-8.465-1.709c-.334-.204-.672-.407-.968-.663a33.119 33.119 0 0 1 3.29-1.916 14.257 14.257 0 0 1-2.76-2.557.917.917 0 0 1-.172-.294M693.97 7.21c2.758-.352 5.582-.339 8.312.228a21.504 21.504 0 0 1 5.494 1.962c2.838 1.544 5.39 3.589 7.627 5.912 1.008 1.088 2.097 2.113 2.962 3.323-.187.528-.456 1.03-.847 1.437-.462.536-1.098.872-1.718 1.193-.715.33-1.483.565-2.271.636-.873.08-1.775.142-2.583.512-.966.422-1.742 1.201-2.282 2.094-.55.78-.985 1.632-1.518 2.422-.512.779-.948 1.607-1.498 2.36-.362.496-.664 1.037-1.073 1.496-.725.705-1.43 1.435-2.217 2.07-.124.14-.169.33-.253.495 1.214-.355 2.083-.198 2.557-.158.755.156 1.376 1.472 1.454 2.213.077.74.102 1.376-.143 2.596-.246 1.22-.993 2.505-1.668 3.671-.81.17-1.705-.03-2.311-.607-.442-.37-.633-.952-.706-1.505-.084-.644.338-1.363.717-1.66.28-.239.754-.35.758-.791-.523.026-1.46 1.032-2.166 1.44-.707.408-1.925.304-2.65.126-.666-.152-2.643-.396-3.736-1.566-.525-.725-.57-1.022-.724-1.586-.21-.715-.384-1.45-.393-2.198a3.583 3.583 0 0 1-1.3-2.18c-.116-.673.246-1.15.125-1.826-.029-.021-1.364.973-1.982 3.356-.089.443-.2.905-.091 1.355.157.747.302 1.513.217 2.28-.067.587-.11 1.189-.324 1.747-.276.74-.558 1.497-1.052 2.125-.6.898-1.382 1.647-2.16 2.386-.562.47-1.166.89-1.76 1.319-.782.445-1.6.827-2.429 1.178-.43.247-.88.471-1.273.776.699.06 1.396.152 2.081.298 1.163.38 2.35.838 3.246 1.702.681.612 1.228 1.49 1.137 2.44-.048.552-.23 1.13-.585 1.56-.325-.004-.605-.199-.895-.32-1.477-.695-2.973-1.44-4.571-1.782-1.599-.34-3.53-.969-4.215-1.515-.64-.591-1.26-1.215-1.733-1.953-.278-.464-.467-1.067-.251-1.59.375-.658 1.022-1.089 1.528-1.635.466-.42.948-.823 1.397-1.262.612-.526 1.25-1.059 1.652-1.77.097-.275.201-.575.175-.868-.395-.687-1.845-.982-2.795-2.897-.762-1.526-.924-3.382-.682-5.047-.29-.016-.608 0-.852-.187-1.442-.675-2.006-1.43-2.711-2.434-.765-1.152-.923-2.644-.569-3.966.532-1.611 1.36-2.587 2.212-2.947.366.91.957 2.775 2.45 3.681.439.22.965.226 1.441.144 1.104-.326 2.092-.948 3.003-1.638.637-.534 1.225-1.127 1.903-1.611 1.096-.888 2.415-1.433 3.715-1.946.783-.273 1.57-.566 2.4-.657 1.376-.25 2.787-.21 4.173-.069.717.026 4.265.313 6.199-.641 1.165-.79 1.9-2.044 2.44-3.314.452-1.131.85-2.284 1.292-3.42-.304.216-.617.417-.923.626-1.65 1.386-3.687 2.277-5.795 2.677-3.233.595-6.68-.073-9.446-1.85 1.012-.782 2.09-1.478 3.19-2.13a14.616 14.616 0 0 1-3.133-2.641c2.055-.845 4.231-1.354 6.426-1.668M756.833 5.725c2.48-.708 5.057-1.108 7.64-1.074 3.782-.015 7.55 1.096 10.742 3.122a33.719 33.719 0 0 1 7.215 6.155c.775.872 1.562 1.74 2.223 2.705a3.812 3.812 0 0 1-.923 1.509c-.474.501-1.096.83-1.721 1.103-.858.343-1.777.551-2.704.541-.857.032-1.743.049-2.541.402-.72.306-1.305.882-1.684 1.56-.888 1.507-1.486 3.16-2.178 4.76-.367.998-1.067 1.82-1.592 2.733.041.417.063.837.103 1.254.879.245 2.215-.522 3.016-.66.576-.12 1.95-.051 2.595.557.724.554 1.651 1.959 1.801 2.736.15.777.207 1.57.248 2.359.006.501.037 1.009-.052 1.506-.526.337-1.141.58-1.775.516-.838-.042-1.59-.603-1.96-1.34-.207-.556-.134-1.178.038-1.734.074-.182-.083-.334-.157-.485-.42-.012-.854.064-1.196.32-.445.337-2.248 1.274-2.668 1.463-.724.318-3.15.913-4.637.375-1.487-.537-2.332-1.34-3.209-2.346a.35.35 0 0 0-.272-.149c-1.159-.144-2.21-.8-2.99-1.648-.59-.814-1.046-1.725-1.699-2.494a1.36 1.36 0 0 0-.461-.442c-.02.074-.577.683-.76.969-.359.714-.868 1.34-1.206 2.065a6.834 6.834 0 0 0-.522 1.619c.013.973.006 1.974-.353 2.896-.31 1.106-.964 2.07-1.663 2.965-1.055 1.112-3.254 2.478-4 2.772-.552.222-2.633.895-3.12 1.019-.652.175-2.724.52-3.065.68.388.118.813.148 1.156.384.986.733 1.72 1.64 2.037 2.169.238.453.465.918.631 1.403.195.89.362 1.85.04 2.732-.269.838-1.05 1.415-1.873 1.643-.096.01-.193.018-.29.021-.533-1.039-.85-2.17-1.35-3.224-.22-.558-.557-1.073-1.015-1.461-.558-.333-1.155-.602-1.69-.974-.664-.451-1.465-.712-2.004-1.335-.315-.405-.63-.813-.892-1.255-.334-.494-.673-1.012-.764-1.614-.012-.27-.01-.583.204-.78.506-.498 1.148-.818 1.762-1.16.57-.373 1.212-.606 1.808-.931.71-.399 3.44-2.094 3.822-2.212-.099-.661-.887-.675-1.313-1.048-.427-.373-.987-1.486-1.041-2.496-.105-.83.037-2.157.076-2.595.04-.438.096-.652.2-.964-.296-.018-.611-.02-.858-.206-1.07-.467-1.746-1.227-2.356-2.098-.722-1.037-.92-2.386-.66-3.609.016-.19.487-1.212.7-1.555.363-.583.84-1.124 1.477-1.414.519.978.915 2.109 1.853 2.777.395.275.777.612 1.263.712.436.093.898.147 1.336.03.686-.189 1.354-.484 1.903-.945.47-.322.875-.724 1.287-1.115a17.298 17.298 0 0 1 5.559-3.341c.845-.256 1.692-.536 2.578-.61 1.433-.225 2.894-.222 4.324-.468.824-.239 1.697-.273 2.504-.579.725-.267 1.494-.491 2.1-.993 1.35-1.079 2.274-2.59 2.987-4.143.426-.937.858-1.87 1.216-2.837-.481.295-.972.579-1.392.958-2.07 1.545-4.618 2.435-7.197 2.552-2.583.11-5.21-.513-7.43-1.85.98-.822 2.04-1.545 3.113-2.24a15.655 15.655 0 0 1-3.21-2.557c.941-.406 1.89-.808 2.886-1.061M827.893 2.968c2.163-.24 4.363-.269 6.513.107 3.056.52 5.942 1.844 8.448 3.653a34.636 34.636 0 0 1 4.517 3.797 46.824 46.824 0 0 1 2.868 3.217c.336.437.705.852.998 1.322-.324 1.06-1.142 1.924-2.136 2.396a7.21 7.21 0 0 1-3.435.72c-1.058-.002-2.21-.081-3.147.501-.77.463-1.166 1.308-1.488 2.11-.618 1.557-.794 3.237-1.284 4.831-.106.218.123.37.271.485.492.294 1.04.532 1.624.546 1.885.196 3.817.188 5.645.754 1.384.426 2.692 1.163 3.676 2.24.619.669 1.14 1.425 1.56 2.235.082.11-.028.232-.066.336-.313.605-.868 1.096-1.533 1.269-.772.197-1.615.026-2.272-.418-.496-.323-.79-.875-1.304-1.178-.955-.591-2.146-.61-3.216-.386-.765.092-1.462.434-2.193.653-1.388.532-2.844.922-4.333 1.005a8.724 8.724 0 0 1-3.95-.735c-.256.02-.502.106-.757.138-1.037.142-2.098-.027-3.077-.382-.498-.179-.927-.495-1.383-.756-.49-.27-.917-.635-1.397-.92-.66-.378-1.285-.845-2.036-1.026-.802-.074-1.609 1.084-2.08 1.576a7.434 7.434 0 0 0-1.434 2.184c-.26.917-.357 1.898-.822 2.747-.311.59-.62 1.191-1.071 1.69-.486.538-.94 1.127-1.556 1.526-.571.384-1.138.79-1.786 1.039-.792.312-1.568.678-2.406.854-.931.198-1.853.477-2.813.494-1.202.15-2.44.016-3.615.373-.137.042-.36.082-.38.195-.025.129-.05.454.046.663.294.706.801 1.237.801 2.152s-.082 2.626-.671 3.799c-.322.758-.838 1.477-1.588 1.858-.745.348-1.607.275-2.375.046.025-.58.184-1.143.304-1.709.163-.728.742-2.519.481-3.629-.29-1.214-1.576-2.822-1.873-3.591-.225-.508-.36-1.049-.589-1.553-.17-.394-.255-.816-.328-1.235.03-.255.113-.546.359-.672 1.8-.854 4.881-1.525 5.793-1.766.912-.242 2.31-.974 2.786-.928.02-.548-.576-.548-.875-1.065-.582-1.517-.477-2.133-.482-2.496.008-.698.132-1.993.555-2.96a1.994 1.994 0 0 1-.887-.312c-.899-.555-1.457-.986-1.97-1.932-.317-.54-.518-.993-.655-1.826-.138-.833.13-1.888.55-2.725.33-.55.754-1.086 1.342-1.372.55.799 1.1 1.63 1.889 2.218.573.406 1.177.817 1.885.935.826.215 1.693.031 2.467-.283.635-.377 1.221-.828 1.785-1.306 1.134-.853 2.284-1.698 3.528-2.387a19.216 19.216 0 0 1 3.158-1.274c1.503-.347 3.027-.606 4.525-.977.531-.123 1.024-.365 1.543-.525.492-.143.988-.29 1.447-.521.777-.394 1.58-.775 2.221-1.378 1.359-1.237 2.366-2.808 3.207-4.427.478-.942.95-1.884 1.346-2.863-.475.297-.976.557-1.397.93a13.262 13.262 0 0 1-7.527 2.546c-2.45.041-4.918-.566-7.043-1.794.064-.07.128-.141.202-.204a34.212 34.212 0 0 1 2.876-2.089 16.317 16.317 0 0 1-3.227-2.544c.678-.299 1.356-.605 2.058-.846 1.693-.519 3.425-.929 5.183-1.15M893.567 2.478c2.634-.262 5.319-.213 7.915.34 3.009.647 5.861 1.94 8.396 3.676 3.027 2.031 5.653 4.61 7.98 7.404-.243 1.034-.938 1.93-1.848 2.47-1.027.616-2.221.932-3.415.972-1.098.05-2.272-.05-3.276.476-.82.43-1.268 1.3-1.534 2.15-.276.915-.501 1.88-.395 2.84.012.362.005.724-.001 1.086.773.472 1.709.389 2.56.598 1.917.341 3.786.97 5.508 1.88.516.266 1.17.631 1.656.945 1.922 1.023 3.533 2.416 4.626 4.334-.198.935-1.085 1.668-2.034 1.749-.978.117-1.947-.335-2.632-1.013-.559-.549-1.226-.969-1.9-1.359-.663-.346-1.35-.67-2.085-.817-.78-.16-1.577-.282-2.373-.209-1.628.12-3.81.613-4.569.8-.758.188-2.531.413-3.733.186-.291-.085-.554.102-.825.175-1.6.503-3.358.425-4.935-.127-.338-.114-.681-.213-1.007-.358-1.146-.507-2.285-1.028-3.428-1.542-1.006-.453-2.06-.927-3.19-.868-.473-.014-.93.11-1.361.292-.847.288-1.586.848-2.138 1.546-.108.177-.144.387-.215.581-.48 1.486-1.478 2.747-2.605 3.804-1.525 1.305-3.412 2.067-5.255 2.804-.652.262-1.336.433-2.003.654-1.431.37-2.898.765-4.14 1.6-.862.622-2.545 1.668-4.043 3.075-.648.72-1.296 1.445-1.956 2.156-.479.552-1.088 1.048-1.829 1.169-.887.173-1.774-.196-2.492-.693.422-.807.821-1.626 1.256-2.428.419-.666.734-1.402 1.261-1.994.346-.4.613-.866 1.003-1.226a21.242 21.242 0 0 0 2.09-2.366c.576-.745.946-1.62 1.448-2.412.44-.702 1.307-.93 2.077-1.043 1.286-.26 2.628-.745 3.467-1.81.71-.89.844-2.091.715-3.188a7.372 7.372 0 0 1 1.087-5.363c-.486-.149-.976-.306-1.408-.58-1.141-.658-1.925-1.908-1.998-3.226-.08-1.185.406-2.388 1.257-3.21.8.616 1.67 1.134 2.555 1.618a8.117 8.117 0 0 0 5.952.677c.743-.174 1.461-.44 2.202-.63 1.426-.357 2.84-.8 4.306-.965a32.557 32.557 0 0 1 2.22-.196c1.783-.01 3.606.063 5.339-.432.491-.12.995-.212 1.459-.422.756-.34 1.5-.744 2.083-1.342 1.23-1.212 2.04-2.781 2.639-4.383.34-.893.677-1.787 1.012-2.682-.308.207-.617.411-.925.618-1.724 1.399-3.848 2.27-6.036 2.602a13.21 13.21 0 0 1-9.181-2.063c.99-.807 2.121-1.418 3.202-2.091a14.73 14.73 0 0 1-3.038-2.702c2.092-.82 4.308-1.269 6.532-1.537M953.25 2.886c2.15-.536 4.37-.753 6.583-.791 4.014-.054 8.044.668 11.762 2.192 4.565 1.845 8.572 4.9 11.862 8.538.21.25.474.464.63.754-.115.822-.61 1.559-1.223 2.102-.77.67-1.743 1.065-2.727 1.299-1.25.291-2.568.09-3.802.474a2.598 2.598 0 0 0-1.587 1.423c-.545 1.195-.638 2.54-.566 3.837.024.52.1 1.038.058 1.558.506.403 1.15.553 1.762.717 2.216.659 4.385 1.556 6.292 2.88.542.37 1.002.847 1.57 1.18 1.666 1.173 3.175 2.663 4.051 4.526.068.166-.072.323-.141.465a2.377 2.377 0 0 1-1.967 1.16c-.934.042-1.823-.436-2.442-1.11-.268-.305-.528-.619-.84-.877-1.055-.905-2.253-1.698-3.614-2.044a7.27 7.27 0 0 0-1.94-.308c-.884.027-1.753.207-2.63.31a44.83 44.83 0 0 0-2.86.191c-1.01.068-2.02-.075-2.99-.354a7.926 7.926 0 0 1-3.777.206c-1.815-.307-3.486-1.123-5.146-1.88-1.783-.805-3.547-1.74-5.5-2.053-1.328-.231-2.781-.08-3.925.68-.222.128-.314.377-.445.584-.683 1.161-1.685 2.106-2.79 2.863-1.488 1-3.237 1.498-4.94 1.995-.81.247-1.64.424-2.462.625-1.548.314-3.11.76-4.425 1.668-1.189.808-2.419 1.56-3.55 2.448-.431.275-.763.668-1.159.985-.46.368-.888.778-1.379 1.108-.66.524-1.46.974-2.331.922-.874-.007-1.621-.549-2.213-1.143 1.165-1.415 2.25-2.905 3.564-4.188.22-.238.437-.481.691-.682 1.24-1.076 2.374-2.29 3.27-3.67.45-.644.897-1.4 1.695-1.646.663-.31 1.419-.222 2.102-.463 1.258-.334 2.397-1.181 2.96-2.37.805-1.592.79-3.431 1.423-5.08.247-.623.517-1.267 1.008-1.741.143-.146.252-.319.362-.49-.55-.119-1.121-.218-1.605-.523-1.171-.713-1.92-2.087-1.835-3.462.08-.846.365-1.691.892-2.366.824.442 1.728.712 2.573 1.111.734.356 1.528.55 2.303.792 1.827.477 3.727.613 5.61.567a64.47 64.47 0 0 1 4.289.002c1.38.027 2.75.206 4.112.41 1.403.25 2.828.488 4.26.385.86-.096 1.745-.205 2.514-.633 1.127-.547 1.935-1.575 2.482-2.678.887-1.728 1.095-3.699 1.85-5.478-1.375 1.027-2.882 1.91-4.549 2.365-4.05 1.208-8.671.208-11.86-2.564a34.955 34.955 0 0 1 3.42-1.675 14.467 14.467 0 0 1-2.73-3.053"/></g><path d="M36.107 9.187c-3.362-.43-5.406-1.868-6.382-2.76-.564.242-1.12.5-1.666.782A12.852 12.852 0 0 0 34.4 10.46c2.712.53 5.596.15 8.067-1.09.722-.353 1.392-.797 2.05-1.256 0 0-3.757 1.667-8.41 1.072" fill="#FFF"/><path d="M59.355 29.1c-1.894-1.674-4.206-2.799-6.572-3.64-.788-.324-1.676-.435-2.377-.948-.122-.069-.07-.224-.079-.335-.002-.631-.074-1.26-.115-1.89-.025-1.049.063-2.12.419-3.113.226-.643.652-1.242 1.274-1.553.886-.448 1.907-.413 2.872-.499 1.213-.063 2.421-.413 3.452-1.063.904-.564 1.584-1.48 1.81-2.527-3.247-3.78-7.302-6.905-11.892-8.879-4.102-1.754-8.54-2.736-13.004-2.802-1.984-.024-3.976.073-5.928.442a13.057 13.057 0 0 0 2.588 3.215s2.277 2.187 5.776 2.645c3.498.458 7.176-.224 7.176-.224-.788 1.954-.898 4.137-1.948 5.99-.6 1.137-1.6 2.082-2.84 2.473-1.65.48-3.401.281-5.056-.068-1.75-.39-3.513-.737-5.301-.883-1.601-.16-3.21-.217-4.815-.314a27.306 27.306 0 0 1-4.848-.72c-.487-.124-.96-.303-1.449-.424-.707-.188-3.132-1.356-3.703-1.63-.563.86-.982 2.114-.867 3.142.171 1.194.928 2.308 2.01 2.855.055.03.108.053.16.073 1.841-1.483 4.412-1.445 4.43-1.445h.002-.001c-.088.023-2.172.653-3.515 2.076a.523.523 0 0 1-.109.13l-.043.038a4.29 4.29 0 0 0-.583.856c-.045.089-.09.177-.135.26-.725 1.394-.905 2.976-1.376 4.458-.23.71-.517 1.42-1.001 2-.79.988-2.043 1.532-3.288 1.623-.434.036-.843.201-1.242.367-.645.335-1.033.98-1.433 1.559a17.597 17.597 0 0 1-2.87 3.39C3.323 35.218 1.909 36.895.424 38.5c.583.719 1.442 1.329 2.408 1.274 1.023.012 1.88-.62 2.678-1.182.557-.44 1.118-.876 1.636-1.363 1.153-.915 2.367-1.75 3.574-2.593.728-.511 1.518-.945 2.366-1.222 1.46-.5 3-.7 4.485-1.113 1.435-.369 2.884-.75 4.206-1.436 1.098-.58 2.098-1.364 2.886-2.326l.008-.01c.13-.159.254-.323.372-.492 1.524-2.303.575-5.162.575-5.162s1.695 1.595 1.539 4.058c.119-.017.238-.03.358-.04 1.312-.101 2.604.237 3.835.655 1.903.674 3.686 1.634 5.536 2.432 1.129.5 2.297.945 3.508 1.197-2.04-2.738-1.513-5.874-1.513-5.874s1.66 4.858 6.168 5.92c2.732.588 3.946.295 5.216.193 1.354-.11 1.367-.214 2.059-.255.782-.081 1.573.034 2.326.253.592.166 1.178.372 1.712.683 1.079.616 2.08 1.396 2.85 2.377.69.835 1.809 1.394 2.904 1.165.774-.146 1.418-.718 1.728-1.432-.927-2.116-2.605-3.811-4.488-5.106" fill="#FFF"/><path d="M16.862 19.222c-.258.222-.425.545-.583.856.158-.31.358-.595.583-.856" fill="#1A1A1A"/><g fill="#FFF"><path d="M101.787 9.789c-3.452-.441-5.46-2.022-6.369-2.953-.54.213-1.075.44-1.604.68 2.79 2.866 6.98 4.282 10.937 3.683a12.81 12.81 0 0 0 5.61-2.242s-3.92 1.427-8.574.832"/><path d="M129.762 35.26c-.968-1.955-2.284-3.308-4.106-4.699-.32-.25-.767-.592-1.086-.842-1.84-1.482-4.11-2.485-6.27-3.411-.619-.248-1.264-.483-1.763-.94.043-.682.001-1.367-.067-2.046-.056-1.182-.048-2.399.343-3.53.23-.688.694-1.326 1.375-1.619 1.002-.432 2.12-.337 3.18-.463a7.085 7.085 0 0 0 2.931-.978c.924-.562 1.65-1.483 1.86-2.556a33.76 33.76 0 0 0-5.532-5.197 32.557 32.557 0 0 0-7.674-4.222c-3.955-1.548-8.165-2.484-12.416-2.598-1.724-.064-3.457-.024-5.164.236.639 1.241 1.51 2.353 2.5 3.334.015.017 2.09 2.303 5.577 2.759 3.498.458 7.42.061 7.42.061-.896 2.042-.888 4.393-2.057 6.328-.633 1.138-1.74 2.026-3.033 2.269-1.772.324-3.562-.108-5.267-.573a37.228 37.228 0 0 0-5.218-1.092c-3.462-.482-7.051-.484-10.352-1.76-.788-.239-1.495-.666-2.235-1.013-.513-.272-1.052-.5-1.53-.835a4.38 4.38 0 0 0-1.132 2.444c-.102 1.321.542 2.685 1.646 3.424.119.085.243.157.372.22 2.182-1.42 5.066-.766 5.086-.762h.001c-.106.006-2.977.25-4.561 1.888-.646.755-.993 1.742-1.258 2.69-.27 1.159-.556 2.406-1.43 3.276-.849.874-2.103 1.148-3.273 1.26-.75.104-1.535-.035-2.256.244-.47.188-.775.626-.98 1.07-.44.99-.743 2.035-1.157 3.036-.422 1.022-.98 1.98-1.524 2.94-.916 1.489-1.856 2.961-2.75 4.462.625.508 1.407.89 2.23.835.753-.032 1.44-.416 1.983-.917 1.781-1.61 2.775-3.87 4.464-5.566.502-.62 1.304-.88 2.07-.978 1.159-.137 2.327-.035 3.49-.078 1.331-.025 2.67-.132 3.963-.46a8.616 8.616 0 0 0 4.569-2.862c1.528-2.044 1.032-4.73 1.032-4.73s1.294 1.607 1.034 3.813c1.451-.186 2.94.17 4.303.669 2.133.78 4.122 1.895 6.2 2.804 1.053.464 2.141.876 3.265 1.13-1.865-3.11-1.01-6.37-1.01-6.37s1.079 4.428 4.821 6.418l.036.017c.667.3 2.348.745 3.475.794 1.127.05 1.895-.027 2.82-.148.551-.089 1.108-.1 1.664-.124.822-.015 1.632.18 2.404.45 1.382.433 2.582 1.294 3.664 2.235.51.434.86 1.03 1.418 1.413.668.5 1.552.745 2.374.54.698-.165 1.288-.679 1.587-1.324.075-.123-.005-.253-.056-.366"/></g><g fill="#FFF"><path d="M167.231 11.96c-3.304-.724-5.201-2.319-6.127-3.352-.539.157-1.072.328-1.591.538a12.964 12.964 0 0 0 7.428 4.439c2.533.525 5.207.226 7.604-.723.608-.177 1.134-.536 1.647-.895-.128.031-4.273 1.022-8.96-.006"/><path d="M193.901 40.184c-.859-1.313-2.052-2.376-3.344-3.25-.426-.302-.981-.41-1.323-.825-1.935-2.127-4.334-3.744-6.605-5.48-.298-.245-.604-.495-.811-.824.277-1.975.081-4.01.588-5.957.237-.931.636-1.949 1.54-2.415 1.188-.592 2.562-.36 3.827-.628 1.094-.243 2.184-.673 3.015-1.446.543-.504.909-1.17 1.104-1.88-1.601-2.006-3.49-3.78-5.55-5.308-2.657-1.97-5.629-3.48-8.71-4.668-1.845-.726-3.72-1.383-5.632-1.914-2.544-.708-5.159-1.134-7.786-1.376-1.233-.1-1.986-.083-2.98-.067.52 1.335 1.34 2.533 2.274 3.612l-.005.001c.473.543 2.323 2.462 5.382 3.142 3.542.787 7.595.783 7.68.782l.004-.003c-.845 1.742-.778 3.744-1.452 5.54-.32.857-.76 1.714-1.501 2.28-.736.603-1.773.769-2.681.525-1.773-.416-3.294-1.463-4.882-2.303a24.826 24.826 0 0 0-4.724-1.791c-2.134-.535-4.317-.842-6.493-1.148-1.965-.257-3.88-1.094-5.306-2.485-.458-.435-.835-.943-1.237-1.429-1.014.564-1.865 1.54-2.032 2.718-.258 1.374.319 2.876 1.456 3.698.064.045.13.084.197.122 2.3-1.222 5.12-.31 5.14-.304h.001c-.11-.004-3.24-.019-4.927 1.67-.307.35-.57.719-.723 1.084-.298.705-.337 1.262-.296 1.914-.016.868-.049 1.852-.669 2.527-.62.7-1.558.974-2.442 1.16-.98.27-1.988.435-2.961.731-.567.15-.894.69-1.083 1.205-.224.917-.04 1.863.117 2.775.16.748.605 1.383.898 2.08.37.933 1.024 1.744 1.216 2.745.307 1.54.288 3.12.475 4.674.737.072 1.522-.05 2.145-.467.591-.417.956-1.086 1.124-1.779.368-1.382.179-2.835-.119-4.21-.197-.554-.439-1.091-.654-1.638-.156-.401-.376-.796-.356-1.24.858-.35 1.764.012 2.616.191 1.653.33 3.37.411 5.035.11 1.575-.328 3.056-1.17 4.073-2.427.083-.087.156-.187.232-.285 1.498-2.155.811-4.899.811-4.899s1.627 1.78 1.21 4.293c.468.034.933.155 1.361.35 2.124 1.02 3.881 2.617 5.767 3.998 1.312.982 2.662 1.938 4.164 2.607.35.162.709.31 1.075.44-1.272-3.12-.201-6.017-.201-6.017s.691 4.856 4.583 7.11c.711.388 1.467.698 2.263.864.913.258 1.856.432 2.808.419.678-.023 1.347.109 2.012.227 1.033.194 1.951.725 2.899 1.151.512.234.967.568 1.43.883.594.363 1.12.822 1.685 1.226.696.498 1.196 1.24 1.974 1.629.774.434 1.77.524 2.57.103.547-.287.996-.805 1.146-1.408-.089-.263-.266-.483-.412-.715"/></g><g fill="#FFF"><path d="M232.325 15.9c-3.63-1.104-5.143-3.204-5.71-4.306-.662.131-1.33.24-1.983.414 2.214 3.41 6.123 5.618 10.17 5.852 1.145.054 2.298.017 3.426-.187 1.35-.263 2.685-.823 3.138-1.072 0 0-4.314.739-9.041-.7"/><path d="M255.33 20.155a30.153 30.153 0 0 0-3.687-3.255c-2.31-1.717-4.858-3.095-7.495-4.238a316.975 316.975 0 0 0-5.261-2.29 50.235 50.235 0 0 0-6.728-2.265c-.952-.263-3-.916-5.397-1.042.377 1.462 1.179 2.761 2.024 3.995 0 0 1.79 2.781 5.341 3.874 3.552 1.093 7.686 1.425 7.686 1.425-.166.416-.36.826-.461 1.265-.366 1.746-.326 3.602-1.11 5.24-.283.666-.793 1.243-1.452 1.55-.404.1-.849.11-1.247-.017-.864-.43-1.569-1.106-2.229-1.798-.737-.748-1.425-1.545-2.19-2.266a16.573 16.573 0 0 0-5.389-3.179c-.706-.21-1.404-.453-2.123-.614-.748-.128-1.491-.29-2.241-.407-1.046-.068-2.088-.182-3.136-.229-1.643-.127-3.22-.885-4.406-2.02-.586-.521-.929-1.245-1.447-1.82-.816.442-1.534 1.1-1.94 1.943-.294.718-.347 1.52-.217 2.28.188 1.051.904 1.964 1.828 2.481.02.013.047.03.08.048 1.702-1.253 3.866-1.36 3.884-1.362.003 0 .003 0 0 0-.082.028-1.905.71-3.16 2.054-.391.514-.98 1.302-.838 2.776.158 1.021.22 1.415.373 2.115.199.983.318 2.004.14 3-.077.487-.232.89-.588 1.318-.356.428-.598.409-1.022.944-.674.849-.623 1.868-.413 2.692.21.824.947 1.638 1.661 2.217 1.666 1.269 3.598 2.28 4.12 2.566 1.354.756 2.825 1.259 4.242 1.878.11.03.223.045.339.045.45-.8.755-1.8.38-2.69-.31-.802-1.032-1.315-1.697-1.808a41.204 41.204 0 0 0-2.1-1.31c-.547-.319-.824-.566-1.195-.88-.267-.226-.514-.487-.633-.823.071-.12.145-.248.235-.359a.591.591 0 0 1 .588-.2c.297.066.585.192.893.207 1.215.08 2.463-.209 3.482-.886.312-.226.572-.515.829-.802.204-.23.368-.485.514-.752 1.392-2.605.866-5.108.866-5.108s1.438 1.863 1.14 4.7c-.034.317-.075.604-.122.861.117.167.237.332.362.493.372.439.666.936.982 1.416 1.457 2.107 2.778 4.368 4.737 6.064.555.468 1.125.944 1.73 1.36.03-3.531 2.23-5.55 2.23-5.55s-1.208 3.686.453 7.087c.387.674.764 1.36 1.316 1.918.47.518 1.06.91 1.666 1.254.744.337 1.568.42 2.346.652 1.178.497 1.995.946 3.463 1.897.296.192 3.641 2.373 4.81 3.624.819.919 2.142 1.558 3.367 1.123a2.365 2.365 0 0 0 1.467-1.512c-.02-.21-.186-.378-.283-.559-.822-1.314-1.968-2.4-3.238-3.278-.392-.276-.86-.41-1.295-.598-.281-.165-.49-.42-.709-.656-.606-.65-3.181-4.104-4.24-6.559a2.613 2.613 0 0 1-.206-.698c.04-.226.214-.403.284-.622.395-1.082.79-2.167 1.09-3.28.483-1.678.952-3.377 1.73-4.948.323-.687.825-1.321 1.518-1.662.703-.37 1.508-.426 2.284-.504a7.434 7.434 0 0 0 3.336-.995c.917-.51 1.647-1.371 1.927-2.391-.555-.76-1.198-1.45-1.847-2.13"/></g><g fill="#FFF"><path d="M320.706 20.78c-3.04-3.096-6.74-5.522-10.75-7.166-1.495-.652-2.963-1.364-4.433-2.068a54.357 54.357 0 0 0-6.546-2.704c-1.037-.351-2.086-.664-3.13-.993-.636-.202-2.445-.643-3.306-.688.305 1.521 1.135 2.854 1.905 4.176l.004.001s1.72 2.755 5.307 4.047c3.489 1.256 7.561 1.818 7.784 1.848l.003-.001v.001l.008.002h-.01c-.199.498-.424.995-.495 1.532-.094.645-.142 1.296-.266 1.936-.152 1.148-.542 2.275-1.182 3.242-.474.718-1.274 1.324-2.17 1.283-.801.018-1.5-.455-2.12-.907-1.337-1.234-2.366-2.786-3.844-3.87-1.377-1.084-2.976-1.866-4.654-2.361-.722-.143-1.437-.335-2.17-.411-.994.002-1.992-.154-2.982-.006-.54.042-1.082.054-1.621.114-.967.078-1.96.196-2.913-.048-.472-.114-.96-.238-1.353-.537-.408-.3-.807-.619-1.137-1.005a7.214 7.214 0 0 1-.847-1.558 2.224 2.224 0 0 0-.35-.603c-.298.157-.59.33-.84.561-1.593 1.338-2.125 4.116-1.052 5.902.196.323.328.435.745.868.412.369.894.686 1.418.877.84-1.62 2.247-2.624 2.26-2.633.002-.003.003-.003 0 0-.069.086-1.98 2.635-1.584 5.016l-.003-.001c.023.156.05.313.08.477.181.79.525 1.53.775 2.298.194.604.507 1.179.562 1.82.11.826.154 3.006-.498 4.016-.25.477-.03 1.44-.015 1.526.27 1.583 2.7 2.698 3.686 2.87 2.457.4 4.062.475 5.592.762 1.53.286 2.924.834 3.283.826.18-.424.292-.877.322-1.338.068-.814-.317-1.62-.941-2.137-1.109-.944-2.566-1.322-3.966-1.59-.986-.117-1.929-.44-2.887-.683.02-.188.184-.408.393-.362.763.14 1.514-.132 2.21-.415.517-.174.937-.54 1.33-.903a5.062 5.062 0 0 0 1.109-2.144l.005.01c.495-2.44-.636-5.116-.636-5.116s1.691 1.69 1.822 4.68c.023.514-.171 1.549-.376 2.188l.025.059c.396.849.749 1.716 1.14 2.567.661 1.501 1.518 2.928 2.627 4.14.184.212.372.424.566.63 1.125-3.741 4.474-5.248 4.474-5.248s-2.98 3.837-2.773 6.658c.11 1.495.313 2.09 1.66 3.418 1.687 1.661 8.822 3.303 9.406 3.492a5.525 5.525 0 0 1 1.464.68c.457.316.796.774 1.04 1.268.466.896 1.433 1.536 2.454 1.532.72.002 1.408-.364 1.866-.91.06-.096.196-.195.136-.322-.374-1.414-1.017-2.776-1.977-3.887-.57-.695-1.288-1.256-2.048-1.73-.726-.33-1.515-.494-2.276-.723-.269-.11-.503-.288-.733-.462-.576-.496-.79-1.261-.988-1.965-.07-.665-.239-1.344-.125-2.01.686-.868 1.28-1.816 1.877-2.75.718-1.273 1.374-2.577 2.046-3.873.508-.897.939-1.835 1.488-2.709.47-.883 1.18-1.662 2.082-2.114.667-.35 1.427-.455 2.164-.56a7.352 7.352 0 0 0 2.663-.789c.519-.291 1.05-.585 1.461-1.023.45-.453.79-1.014.967-1.629-.657-.862-1.439-1.616-2.212-2.371"/><path d="M298.01 16.172c-3.417-1.22-5.205-3.154-6.016-4.304l-.214.033a22.88 22.88 0 0 0-1.382.253c2.306 3.768 6.598 6.235 11.016 6.33 1.15.048 2.308-.01 3.436-.25.98-.19 1.977-.615 2.333-.808-.285.027-4.56.393-9.174-1.254"/></g><path d="M363.547 35.732a9.038 9.038 0 0 0-1.475-.32c1.399-1.498 2.702-2.22 2.702-2.22s-.624.976-1.227 2.54m-4.62-1.95c.222.537.519 1.08.8 1.59-1.32.11-2.646.113-3.968.095-.002-.181-.038-.382.059-.545.52-.557 1.252-.86 1.746-1.445 2.532-2.849 2.384-5.931 2.384-5.931s1.15 3.289-1.021 6.236m28.143-11.737c-1.253-1.176-2.467-2.4-3.81-3.476-1.318-1.052-2.705-2.023-4.177-2.847-1.203-.682-2.47-1.24-3.76-1.734-1.802-.717-3.58-1.496-5.356-2.272a57.447 57.447 0 0 0-6.563-2.339c-.987-.3-4.216-1.08-5.44-1.213.349 1.495 1.154 2.824 1.973 4.104.775.926 2.336 2.391 5.146 3.608 4.068 1.762 7.825 1.814 8.037 1.816l.014-.008c-.207.52-.422 1.048-.474 1.611-.068.81-.16 1.618-.3 2.418a6.311 6.311 0 0 1-.771 1.79c-.414.546-.958 1.085-1.673 1.163-1.014.15-1.982-.3-2.83-.81-.767-.467-1.384-1.129-2.06-1.713-.472-.413-.907-.872-1.423-1.233-.368-.262-.734-.527-1.113-.773a12.35 12.35 0 0 0-5.919-1.713c-.823.072-1.67.023-2.468.271-.756.215-1.54.34-2.264.658-1.075.363-2.137.768-3.235 1.058-.45.125-.924.092-1.378.009-.542-.083-.928-.474-1.308-.818-.452-.408-.591-1.083-.801-1.635-.193-.524-.272-1.085-.513-1.59-.342.121-.66.31-.926.558-.388.361-.76.76-.993 1.242-.65 1.13-.744 2.24-.774 2.515-.056.997.075 1.99.67 2.812.664.889 1.208 1.615 2.45 2.162.647-1.985 2.296-3.325 2.31-3.336-.053.074-1.247 1.894-1.365 3.847.002.092-.005.208-.008.227-.004.2.007.401.031.601.5 3.058 1.68 4.296 2.225 4.83.398.456.871.852 1.21 1.36.44.806 1.354 2.768 1.395 3.743.051.327-.037.685.127.99.189.343.566 1.156 1.822 1.687.546.303 2.287.7 4.552.162.79-.096 1.549-.354 2.336-.468.945-.125 1.894.082 2.808.309.056.771.057 1.567.35 2.297.483 1.177 1.21 1.686 1.572 1.948.535.262 1.19.504 1.76.663.737.172 2.438.758 2.637.79.541.063 1.044.284 1.577.39.421.085.832.258 1.171.527.257.266.291.7.134 1.028-.302.67-.716 1.354-.644 2.116.111.632.404 1.273.947 1.648.623.47 1.467.586 2.211.379.528-1.044.904-2.161 1.193-3.293.211-.673.18-1.387.24-2.082.056-.59-.146-1.152-.289-1.713-.106-.371-.201-.747-.333-1.11-.054-.169-.215-.26-.363-.334-.534-.26-1.077-.512-1.657-.65-.571-.177-1.173-.251-1.712-.518-.03-.186-.097-.372-.07-.561.146-.852.265-1.72.601-2.523.17-.2.415-.319.594-.51.771-.772 1.618-1.477 2.282-2.348.608-.796 1.248-1.566 1.805-2.399.456-.682.983-1.314 1.412-2.015.41-.666.888-1.285 1.322-1.934.712-.911 1.662-1.679 2.785-2.01.516-.14 1.04-.256 1.572-.322a6.952 6.952 0 0 0 2.504-.834c.485-.304.997-.586 1.394-1.007.454-.487.833-1.068.979-1.726-.424-.522-.9-.999-1.378-1.47m-20.894-3.084c1.052.072 2.112.064 3.16-.06 2.007-.334 3.327-.944 3.78-1.207-.707.113-1.424.211-2.168.233-2.57.097-5.702-.303-8.102-1.485-1.966-.966-3.768-2.26-5.022-3.786-.53.098-1.063.185-1.585.325 2.177 3.363 5.948 5.63 9.937 5.98" fill="#FFF"/><g fill="#FFF"><path d="M426.563 29.233s1.187 1.348.848 4.844c-.36 2.262-1.081 2.745-1.574 3.342-.194-.065-.423-.1-.548-.28-.213-.314-.23-.169-.288-.544 2.04-2.386 1.562-7.362 1.562-7.362m24.994-8.161c-.627-.602-1.266-1.191-1.903-1.781-2.276-2.025-4.797-3.838-7.65-4.954-1.847-.716-3.746-1.291-5.624-1.919-2.513-.841-5.078-1.537-7.685-2.017-.963-.194-3.322-.663-5.446-.663.45 1.413 1.29 2.656 2.176 3.831.724.809 2.321 2.202 5.324 3.163 4.163 1.332 7.944.928 7.944.928-.694.186-1.398.36-2.13.459-2.516.365-5.599.304-7.988-.599-2.076-.781-3.98-1.94-5.266-3.419-.51.136-1.018.27-1.52.435 2.034 2.716 5.217 4.508 8.57 4.957 2.297.29 4.673-.032 6.803-.944.57-.183 1.043-.557 1.531-.89-.185.527-.384 1.058-.424 1.62-.066.74-.133 1.484-.274 2.215-.2.558-.464 1.11-.849 1.565-.515.441-1.183.845-1.89.708-.617-.109-1.243-.236-1.805-.526-.528-.277-1.096-.477-1.594-.809-1.031-.649-1.986-1.411-3.041-2.022-.67-.478-2.478-1.175-4.016-1.467-.677-.139-2.454-.188-3.949.1-1.736.382-2.978 1.165-3.428 1.436-1.177.688-2.243 1.55-3.423 2.235-.42.234-.796.587-1.29.658-.356.06-.66.134-1.148-.14a3.098 3.098 0 0 1-1.13-1.765c-.293-.814-.407-1.678-.682-2.497-.695.243-1.711 1.307-2.244 2.553-.663 1.556-.8 3.712.165 5.152.787 1.118 1.091 1.358 2.234 2.095.205.127.396.222.57.294.858-2.274 2.878-3.554 2.893-3.564-.06.069-1.437 1.754-1.758 3.685a2.11 2.11 0 0 1-.032.225 4.378 4.378 0 0 0-.017.897c.016.093.04.19.074.292.39 1.163.829 1.861 1.377 2.96.562.93 1.37 1.886 1.79 2.324.236.282.495.294.953.42 1.287.355 3.907 1.697 4.37 2.403.138.204.296.395.412.613.197.38.024.847.246 1.219.325.463.744.894 1.28 1.105.094.037.19.07.287.103.793.247 1.728.491 4.407.337 2.761-.16 5.767-.805 7.701-1.288.029-.422.086-.863.176-1.056.238-.567.546-1.3.925-1.654.38-.356 2.698-1.802 3.555-2.685.512-.518 1.073-.984 1.567-1.52.47-.502.912-1.03 1.392-1.522.598-.61 1.059-1.336 1.624-1.975.342-.376.616-.809.966-1.177.567-.56 1.184-1.086 1.903-1.44.893-.47 1.907-.615 2.889-.785 1.215-.229 2.323-.847 3.266-1.631.575-.545 1.035-1.241 1.193-2.026-.734-.803-1.553-1.522-2.357-2.252M432.394 45.6a1.743 1.743 0 0 1-.697 1.067c-.586.433-1.218.835-1.651 1.434-.33.488-.375 1.111-.317 1.682a2.46 2.46 0 0 0 1.42 1.736c.23.092.53.272.749.062 1.07-.8 2.023-1.748 2.933-2.723.374-.488.718-.998 1.054-1.513.605-.922.848-2.246 1.032-2.985.036-.173.078-.392-.066-.53-.657-.734-1.435-1.344-2.21-1.948-1.166.66-2.503 1.412-3.955 2.016.742.42 1.45.876 1.708 1.703"/></g><g fill="#FFF"><path d="M492.247 45.794c-.638.284-1.319.483-1.879.914-.469.341-.727.89-.874 1.436-.189 1.017.377 2.126 1.306 2.569.835-.238 1.613-.634 2.397-1.003.774-.408 1.558-.807 2.25-1.348.573-.45 3.013-2.47 3.14-3.527-.053-.237-.165-.452-.275-.668-1.387.34-3.493.882-5.96 1.597l-.105.03M519.403 22.824c-.463-.452-.955-.87-1.432-1.307-1.194-1.003-2.271-2.134-3.453-3.151-1.297-1.127-2.663-2.187-4.158-3.041-2.938-1.738-6.343-2.375-9.651-3.016a47.88 47.88 0 0 0-8.795-.792 16.512 16.512 0 0 0-3.152.202 12.706 12.706 0 0 0 2.263 3.143c.083.08.153.17.21.27 5.818 4.501 13.263 2.359 13.263 2.359-.769.297-1.512.644-2.325.858-2.01.546-4.234.596-6.361.163-2.265-.446-4.418-1.444-6.146-2.83-.651.252-1.295.526-1.935.803 2.557 2.504 5.292 3.42 7.394 3.71 2.446.32 4.992-.094 7.186-1.23.785-.403 1.49-.938 2.187-1.474-.157.506-.518 1.513-.647 3.6-.118.696-.72 1.516-2.086 1.89-.408.1-.82-.027-1.208-.151-.218-.077-1.732-.776-3.122-1.445-.835.098-2.117-.029-4.02-.61-1.134-.346-2.4-1.126-3.457-1.928-.458.02-.916.058-1.372.106-.906.202-1.839.354-2.684.755-.487.21-.989.4-1.418.72-.62.461-1.293.863-1.803 1.453-1.058 1.055-2.05 2.185-3.209 3.133-.197.173-.372.371-.58.533-.27.208-.618.292-.953.3-.348-.015-.82-.456-1.052-.674-.338-.36-.466-.58-.608-1.068a31.833 31.833 0 0 1-.785-2.836c-.607.166-.994.67-1.37 1.135-.631.882-1.09 2.438-1.118 3.188-.091 1.194.122 2.455.853 3.432.644.827 1.449 1.809 2.538 2.444.495-2.137 1.917-3.022 1.917-3.022s-.747 1.897-.168 4.793c.467 1.159.956 2.311 1.545 3.415.246.406 1.346 1.99 2.559 2.834.252.257.673.14 1.052.133 1.36-.023 4.773-.078 5.775.758.158.188.392.344.442.598-.002.336-.22.431-.066 1.005.077.214.218.4.354.58.468.594.953.857 1.896 1.107.754.141 1.326.242 1.998.265 1.261-.229 3.297-.354 4.372-.362 1.701-.15 3.393.177 5.087.281.28-1.037.117-2.287-.746-3.01-1-.848-2.32-1.089-3.6-1.193-2.176-.09-3.486-.086-3.486-.086s.35-.236 1.923-.509c.358-.062.829-.132 1.344-.198l.102-.184c.236-.414.425-.87.784-1.196.23-.121.491-.174.717-.309.892-.506 1.801-.983 2.675-1.522 2.085-1.275 4.996-4.121 5.298-4.476.577-.65 1.21-1.25 1.765-1.92.956-.933 2.091-1.74 3.4-2.082.975-.291 2.019-.32 2.959-.733.73-.266 1.349-.746 1.967-1.203.619-.549 1.119-1.275 1.293-2.093.06-.135-.077-.228-.152-.315"/></g><g fill="#FFF"><path d="M555.903 15.147c-.578.26-1.149.54-1.709.837 2.144 2.006 4.98 3.222 7.858 3.373A11.8 11.8 0 0 0 568.316 18c.771-.406 1.454-.957 2.17-1.454 0 0-6.588 3.937-14.583-1.4"/><path d="M585.74 21.9c-.416-.498-.931-.904-1.392-1.362-1.245-1.065-2.365-2.265-3.595-3.348-1.244-1.09-2.548-2.12-3.967-2.973-1.419-.88-2.967-1.539-4.56-2.031-5.027-1.52-10.378-1.941-15.586-1.275-.572.093-1.146.178-1.712.301.717 1.199 1.658 2.252 2.714 3.161 8.554 3.675 13.143 1.815 13.143 1.815a11.306 11.306 0 0 0-.467 1.764c-.177.868-.254 1.788-.715 2.565-.221.39-.434.808-.804 1.079-.286.213-.6.397-.938.517-.481.156-.972-.05-1.448-.123a5.164 5.164 0 0 1-1.264-.343c-.534-.226-1.117-.321-1.636-.588-.595-.308-1.227-.531-1.83-.82-.664-.314-1.394-.436-2.093-.643-.695-.11-1.401-.143-2.104-.178-1.326.074-2.62.412-3.885.8-.831.317-1.673.646-2.372 1.211-1.158.73-2.041 1.809-3.19 2.55-.567.388-1.136.775-1.748 1.09-.453.242-.876.584-1.4.652-.346.056-.67.045-1.12-.133-.588-.371-.9-.602-1.182-1.525a29.287 29.287 0 0 1-.836-2.7c-.196.094-.399.174-.578.298-1.232 1.011-1.464 1.903-1.621 2.375-.54 1.565-.375 3.49.584 4.884.724.97 1.663 1.745 2.644 2.446.688-2.193 2.701-3.48 2.701-3.48s-1.227 1.916-1.28 4.778c.02.135.243 2.87 3.458 6.735.67.58 1.621.708 2.319.942 1.482.51 2.884 1.228 4.228 2.027.224.127.677.641.81.912-.204.25-.512.364-.756.561-.405.89-.167 1.888.461 2.636 1.953 2.326 5.819 4.456 7.339 4.559 2.62.045 3.436-.384 4.234-.505a4.772 4.772 0 0 0-.394-1.694c-.309-.673-.976-1.147-1.702-1.26-1.704-.24-2.515-.732-2.782-1.008.761-.492 2.08-1.803 2.517-2.572.523-.829.664-1.459.968-2.2.055-.137.117-.284.078-.433-.411-.555-1.274-1.344-1.91-1.715-.628.636-1.623 1.414-3.165 2.127.12.19.22.393.29.608.04.098.006.204-.045.291-.15.248-.35.463-.58.637-.12-.672-.113-1.36-.062-2.04v-.007s2.485-3.451 2.987-4.706c.254-.637 2.456-.237 4.103-.875 3.038-1.177 5.23-3.25 5.757-3.757.632-.598 2.891-2.851 3.382-3.388.62-.785 1.429-1.406 2.28-1.92.912-.536 1.957-.774 2.992-.935a6.891 6.891 0 0 0 2.081-.674c.406-.208.761-.497 1.14-.75.545-.366.945-.91 1.258-1.48.121-.277.272-.572.252-.88"/></g><path d="M621.883 14.701c-.523.305-1.038.623-1.54.96.296.257.634.46.968.664a12.97 12.97 0 0 0 8.465 1.708c2.158-.317 4.26-1.16 5.964-2.534.303-.21.603-.425.91-.63-.245.146-7.092 4.128-14.767-.168" fill="#FFF"/><path d="M651.76 19.899c-1.023-1.092-2.13-2.099-3.178-3.166-2.232-2.203-4.725-4.19-7.557-5.567-3.748-1.749-7.94-2.423-12.055-2.247-2.615.114-5.221.546-7.72 1.334.04.107.095.21.172.295a14.257 14.257 0 0 0 2.76 2.557c8.396 3.606 12.857 1.212 13.02 1.122l.005-.004v.001c-.44 1.207-.734 2.459-1.153 3.671-.417 1.003-.967 2.022-1.926 2.602-.52.403-1.202.298-1.813.328-.782.076-1.544-.16-2.32-.215-.688-.115-1.354-.344-2.038-.49-.866-.267-1.774-.343-2.672-.426-.862.02-1.74-.03-2.582.186-1.331.298-2.654.675-3.895 1.247-.506.2-.936.54-1.382.842-.819.537-1.518 1.23-2.306 1.808-.791.514-1.593 1.02-2.457 1.402-.494.264-1.035.482-1.608.426-.454.026-.786-.312-1.115-.571-.294-.25-.629-.485-.793-.847-.402-.862-.69-1.77-.951-2.682-.746.182-1.706 1.53-2.13 2.636-.521 1.524-.436 3.337.513 4.68 1.024 1.583 1.645 1.917 2.476 2.34.695-1.772 2.136-2.881 2.136-2.881s-.681 1.3-.847 3.293h.01c-.021.352-.078 1.015.03 1.36.179 1.574.665 2.744 1.068 3.63.414.91 1.367 2.078 1.955 2.31.59.31 1.188.62 1.712 1.038.478.38.619 1.048.527 1.626-.148.56-.481 1.044-.767 1.541-.245.432-.54.834-.806 1.253-.309.471-.744.88-.895 1.438a2.24 2.24 0 0 0 .54 1.797c.416.61 1.026 1.037 1.585 1.504.745.555 3.142 1.296 6.64 1.593.94.076 1.879.168 2.82.227.371.023.742.08 1.114.041.09-.6.123-1.234-.072-1.818-.242-.764-.888-1.34-1.605-1.657-1.269-.575-2.677-.731-4.051-.836a8.91 8.91 0 0 1-1.034-.252c-.233-.057-.176-.354-.076-.505.676-1.052 1.811-1.669 2.638-2.583.517-.631 1.07-1.24 1.479-1.95.575-.928 1.11-1.907 1.384-2.968.014-.068.029-.138.046-.21.017-.07.032-.14.047-.211.01-.05.02-.1.027-.15l.004.001c.557-2.769-.01-5.5-.01-5.5s1.816 2.446 1.36 6.279c.837.468 1.974.991 2.965 1.045.311.054.613-.088.923-.082.203.03.391.115.588.17-.24.503-1.05.857-1.326 1.117-.409.353-.883.705-1.056 1.24-.17.64-.15 1.374.241 1.931.407.666 1.142 1.07 1.905 1.17 1.057-.913 1.951-1.996 2.827-3.08.984-1.265 1.139-2.281 1.142-2.565a41.41 41.41 0 0 0 .03-2.398c.007-.23-.246-.33-.416-.421-.635-.284-1.25-.66-1.958-.72 1.196-1.599 1.967-3.398 1.967-3.398s.282.657.196 1.668c.6-.277 1.223-.527 2.07-1.137.486-.333.881-.775 1.324-1.16a17.503 17.503 0 0 0 1.714-1.714c.589-.696 1.264-1.318 1.802-2.058.506-.687 1.083-1.318 1.6-1.998.614-.683 1.336-1.285 2.167-1.686.834-.414 1.767-.558 2.681-.68a6.535 6.535 0 0 0 2.808-1.122c.89-.514 1.599-1.374 1.858-2.375-.056-.167-.198-.287-.307-.42" fill="#FFF"/><path fill="#1A1A38" d="M637.207 14.224z"/><g fill="#FFF"><path d="M689.439 12.176c-.653.421-1.292.864-1.906 1.339 2.766 1.776 6.214 2.444 9.446 1.85 2.108-.401 4.146-1.292 5.795-2.678.296-.201.597-.395.89-.602-.511.296-6.93 3.847-14.225.091"/><path d="M715.451 15.177c-2.238-2.324-4.79-4.368-7.628-5.913a21.505 21.505 0 0 0-5.494-1.962c-2.73-.567-5.553-.58-8.312-.227-2.196.314-4.372.823-6.427 1.668.517.585 1.088 1.12 1.695 1.61.434.184.895.38 1.388.592 8.194 3.52 12.64 1.324 13 1.133l.024-.016a.157.157 0 0 0-.002.004l.003-.001-.003.001c-.441 1.135-.838 2.286-1.29 3.416-.54 1.27-1.275 2.524-2.44 3.313-1.934.954-5.481.667-6.199.642-1.386-.141-2.797-.182-4.172.068-.83.092-1.618.384-2.401.658-1.3.512-2.62 1.057-3.715 1.945-.678.485-1.266 1.078-1.903 1.612-.911.69-1.9 1.311-3.003 1.638-.476.081-1.002.076-1.442-.144-1.493-.907-2.083-2.77-2.45-3.682-.85.36-1.679 1.336-2.211 2.948-.354 1.322-.196 2.813.568 3.965.596.848 1.09 1.519 2.098 2.113.864-2.195 3.072-3.322 3.072-3.322s-1.145 1.457-1.608 3.83h.002c-.242 1.665-.08 3.522.682 5.048.95 1.915 2.4 2.21 2.795 2.897.026.293-.078.592-.175.868-.403.711-1.04 1.244-1.652 1.77-.449.44-.93.842-1.397 1.262-.507.546-1.154.977-1.528 1.635-.216.523-.027 1.126.25 1.59.473.738 1.094 1.362 1.734 1.953.685.546 2.616 1.175 4.215 1.516 1.598.34 3.094 1.086 4.57 1.782.291.12.57.315.896.318.355-.428.537-1.007.585-1.56.09-.948-.456-1.827-1.137-2.439-.895-.864-2.083-1.322-3.246-1.702a16.85 16.85 0 0 0-2.08-.298c.392-.305.842-.53 1.272-.776.829-.35 1.647-.733 2.43-1.178.593-.429 1.197-.849 1.76-1.32.777-.738 1.56-1.487 2.159-2.385.494-.628.776-1.385 1.053-2.125.214-.558.256-1.16.323-1.748a5.4 5.4 0 0 0-.053-1.405c-.497-2.728-1.959-5.002-1.959-5.002s1.158.735 2.206 2.347c.704-1.093 1.875-1.783 1.898-1.766.121.676.589 3.064.798 3.779.153.564.353 1.902 1.258 2.847 1.093 1.17 2.551 1.478 3.736 1.566 1.767.178 4.293-1.54 4.816-1.566-.003.441-.477.552-.758.792-.378.296-.8 1.015-.717 1.66.074.552.264 1.135.706 1.504.606.577 1.501.778 2.311.607.675-1.166 1.422-2.45 1.668-3.671.246-1.22.22-1.856.143-2.596-.078-.74-.698-2.058-1.454-2.213-.474-.04-1.342-.198-2.556.157l.01-.023v.002l.06-.137c.022-.053.044-.107.069-.158a19.13 19.13 0 0 0 1.065-3.446s.496.692.577 1.874c.23-.225.458-.452.689-.676.409-.459.71-1 1.072-1.496.55-.753.987-1.581 1.498-2.36.534-.79.969-1.642 1.518-2.422.54-.893 1.316-1.672 2.282-2.095.808-.37 1.71-.432 2.584-.512.787-.07 1.555-.305 2.271-.636.62-.32 1.256-.656 1.718-1.193.39-.406.66-.908.847-1.436-.865-1.21-1.954-2.236-2.962-3.323"/></g><g fill="#FFF"><path d="M782.529 13.928a33.72 33.72 0 0 0-7.216-6.156c-3.191-2.026-6.96-3.137-10.742-3.122-2.583-.033-5.16.366-7.64 1.074-.997.253-1.945.655-2.887 1.061.949.99 2.037 1.849 3.21 2.558 7.011 3.011 11.198 1.477 12.481.825a9.23 9.23 0 0 0 .285-.16l.14-.086v.001c-.357.966-.79 1.9-1.215 2.836-.713 1.554-1.638 3.065-2.988 4.144-2.533 1.614-7.494 1.814-8.928 2.04-.885.074-1.733.353-2.578.61a17.298 17.298 0 0 0-5.558 3.34c-.413.391-.818.793-1.288 1.116-.548.46-1.216.756-1.903.944-.438.118-.9.064-1.336-.03-.485-.1-.867-.436-1.263-.711-.937-.669-1.334-1.8-1.853-2.777-.637.29-1.114.831-1.477 1.414-.213.343-.684 1.364-.699 1.555-.261 1.223-.063 2.571.66 3.608.5.717 1.047 1.357 1.82 1.822 1.044-2.097 3.315-3.035 3.315-3.035s-1.615 1.745-2.137 4.666l-.003.016c-.052.558-.15 1.667-.058 2.394.374 2.583 2.256 2.884 2.354 3.545-.382.118-3.112 1.813-3.822 2.212-.596.325-3.063 1.593-3.57 2.09-.213.198-.216.511-.204.781.091.602.43 1.12.765 1.614.262.442.577.85.891 1.255.54.623 2.522 1.362 3.694 2.31.458.387.796.903 1.016 1.46.5 1.054.816 2.185 1.35 3.224.096-.003.193-.01.29-.02.823-.23 1.604-.806 1.873-1.643.321-.883.154-1.842-.04-2.733-.167-.485-.393-.95-.631-1.403-.318-.528-1.299-1.956-3.193-2.554.34-.16 2.413-.504 3.065-.68 3.914-1.121 6.064-2.678 7.12-3.79.699-.895 1.686-2.764 1.968-5.168.23-1.955 2.519-3.686 5.12-4.606 1.966 2.896 2.771 3.906 2.838 3.993.877 1.005 1.722 1.808 3.209 2.346s3.913-.057 4.637-.375c.42-.19 2.223-1.126 2.668-1.463.342-.256.777-.332 1.196-.32.074.15.23.302.157.485-.171.556-.245 1.178-.038 1.734.37.737 1.122 1.298 1.96 1.34.634.065 1.25-.179 1.775-.516.089-.498.058-1.005.052-1.506a26.947 26.947 0 0 0-.248-2.36c-.15-1.062-1.077-2.181-1.8-2.735-.646-.608-2.02-.677-2.596-.557-.8.138-2.137.905-3.016.66-.04-.418-.062-.837-.103-1.254.525-.912 1.225-1.735 1.593-2.733.691-1.601 1.29-3.254 2.177-4.761.38-.678.965-1.254 1.684-1.56.798-.353 1.684-.37 2.541-.402.927.01 1.846-.198 2.704-.54.626-.274 1.247-.602 1.722-1.104.422-.42.736-.943.922-1.509-.66-.964-1.448-1.833-2.222-2.704"/><path d="M755.518 10.839c-.584.408-1.156.835-1.702 1.293 2.221 1.336 4.848 1.96 7.432 1.85 2.578-.117 5.126-1.008 7.196-2.552 0 0 1.005-.803.937-.768-1.586.854-7.369 3.53-13.863.177"/></g><g fill="#FFF"><path d="M822.074 8.55c-.396.292-.785.592-1.166.903a2.164 2.164 0 0 0-.202.204c2.125 1.228 4.592 1.836 7.043 1.794 2.689-.056 5.3-.822 7.468-2.418.41-.288.834-.637 1.244-.918-1.204.712-7.481 4.035-14.387.436"/><path d="M852.43 31.738c-.42-.809-.943-1.566-1.561-2.235-.984-1.076-2.292-1.813-3.677-2.24-1.827-.566-3.76-.557-5.645-.753-.583-.014-1.131-.252-1.623-.546-.149-.115-.377-.268-.272-.485.49-1.595.666-3.275 1.285-4.832.321-.802.718-1.647 1.487-2.11.938-.582 2.09-.503 3.147-.5a7.21 7.21 0 0 0 3.436-.721c.993-.471 1.812-1.335 2.136-2.396-.293-.47-.663-.884-.999-1.321a46.826 46.826 0 0 0-2.868-3.218 34.637 34.637 0 0 0-4.517-3.796c-2.505-1.81-5.391-3.134-8.448-3.654-2.15-.376-4.35-.348-6.512-.107-1.76.221-3.49.631-5.184 1.15-.702.24-1.38.547-2.058.846.96.98 2.052 1.837 3.228 2.545 7.493 3.218 11.745 1.276 12.684.744.069-.047.137-.092.204-.134l-.005.013.001-.001c-.396.975-.866 1.914-1.342 2.85-.841 1.62-1.848 3.191-3.207 4.428-1.868 1.596-4.68 2.301-5.211 2.425-1.498.37-3.022.63-4.525.976a19.22 19.22 0 0 0-3.158 1.275c-1.244.689-2.394 1.534-3.529 2.387-.563.477-1.149.929-1.784 1.305-.774.315-1.642.498-2.467.284-.708-.118-1.312-.53-1.886-.935-.788-.59-1.338-1.42-1.889-2.219-.588.287-1.011.823-1.341 1.373-.42.836-.688 1.892-.55 2.725.137.832.338 1.285.654 1.826.432.795.896 1.226 1.567 1.673 1.217-1.686 3.171-2.369 3.171-2.369s-1.26 1.218-2.049 3.39c-.288.89-.38 1.916-.386 2.51-.006 2.164 1.376 3.013 1.356 3.56-.965.955-5.038.836-8.579 2.694-.246.127-.329.418-.358.672.072.42.158.842.327 1.236.23.504.365 1.045.59 1.553.297.77 1.584 2.377 1.873 3.591.26 1.11-.318 2.902-.482 3.63-.12.565-.278 1.127-.304 1.708.769.23 1.63.302 2.376-.046.75-.381 1.265-1.1 1.587-1.858.59-1.173.881-2.272.672-3.799-.125-.906-.507-1.446-.801-2.152-.097-.21-.071-.534-.047-.663.02-.113.243-.153.38-.195 1.175-.357 5.046-.265 8.835-1.721.648-.248 1.215-.655 1.785-1.04 1.396-1.029 2.316-2.626 2.628-3.215.4-.732.528-1.562.723-2.365.303-1.906.171-3.461.171-3.461s.497.872.749 2.323c1.417-1.021 4.267-2.577 5.607-3.077-.97-1.603-1.135-2.921-1.135-2.921s1.299 2.077 3.37 3.668c1.453.947 3.33 2.284 3.502 2.271 1.236.55 2.599.8 3.95.736 1.489-.083 2.945-.473 4.333-1.006.73-.218 1.428-.56 2.193-.652 1.07-.225 2.26-.206 3.215.386.514.302.808.854 1.305 1.177.656.444 1.5.616 2.272.419.665-.173 1.22-.665 1.533-1.27.038-.103.148-.226.066-.336"/></g><g fill="#FFF"><path d="M888.228 7.84c-.506.318-1.635 1.229-2.099 1.607a13.21 13.21 0 0 0 9.182 2.063c2.187-.333 4.312-1.203 6.036-2.602.304-.204.61-.406.913-.61-.278.172-6.418 3.72-14.032-.459"/><path d="M917.118 27.138a21.893 21.893 0 0 0-1.656-.945 18.89 18.89 0 0 0-5.509-1.88c-.851-.21-1.787-.126-2.56-.598.007-.362.014-.724.002-1.086-.107-.96.118-1.925.395-2.84.266-.85.713-1.72 1.533-2.15 1.005-.527 2.178-.426 3.276-.476 1.194-.04 2.388-.356 3.416-.972.91-.54 1.604-1.436 1.847-2.47-2.326-2.794-4.953-5.373-7.98-7.405-2.535-1.736-5.387-3.029-8.396-3.676-2.596-.553-5.28-.602-7.915-.34-2.224.269-4.44.718-6.532 1.537a14.734 14.734 0 0 0 3.038 2.702c8.369 3.595 12.745 1.052 12.931.94l.01-.006c-.336.895-.674 1.79-1.013 2.682-.598 1.602-1.41 3.172-2.638 4.384-.583.598-1.328 1.003-2.084 1.341-.464.211-.968.303-1.459.423-1.733.494-3.556.422-5.34.432-.742.034-1.482.111-2.22.196-1.466.165-2.88.608-4.305.965-.741.19-1.46.455-2.202.63a8.117 8.117 0 0 1-5.952-.677c-.885-.484-1.756-1.002-2.556-1.619-.85.823-1.337 2.025-1.256 3.21.073 1.32.856 2.569 1.998 3.227.018.012.038.022.057.034 1.517-1.519 3.66-1.841 3.66-1.841s-1.488.979-2.67 2.999a7.372 7.372 0 0 0-.727 4.752c.129 1.096-.004 2.298-.714 3.187-.84 1.065-2.182 1.55-3.468 1.81-.77.114-1.636.342-2.076 1.044-.503.792-.873 1.666-1.449 2.41-2.364 3.481-5.61 6.475-5.61 8.016.718.496 1.605.866 2.493.693.74-.121 1.35-.618 1.828-1.17.66-.711 1.308-1.435 1.956-2.156 1.498-1.407 3.182-2.452 4.044-3.076 1.241-.834 2.708-1.23 4.14-1.599.667-.221 1.35-.392 2.003-.654 1.843-.736 3.73-1.5 5.255-2.804 1.126-1.057 2.124-2.317 2.605-3.804.054-.146.088-.302.147-.446.026-.084.055-.17.086-.26.98-2.801.674-5.822.674-5.822s1.079 1.822.946 4.609c.162-.08.328-.15.5-.208.431-.183.888-.306 1.36-.292 1.13-.059 2.185.415 3.191.868 2.598 1.2 4.43 1.628 5.838 1.627-.73-1.13-.742-2.19-.742-2.19s2.051 1.562 4.643 2.3c.218.052.386.095.456.115 1.202.227 2.975.002 3.734-.185.758-.188 2.94-.681 4.568-.8.797-.074 1.594.048 2.373.208.736.148 1.422.471 2.085.817.674.39 1.342.81 1.9 1.359.686.678 1.654 1.13 2.632 1.013.95-.081 1.837-.814 2.035-1.748-1.094-1.919-2.704-3.312-4.626-4.335"/></g><g fill="#FFF"><path d="M987.825 33.555c-.876-1.863-2.984-3.816-5.62-5.706-1.888-1.352-4.076-2.221-6.293-2.88-.612-.164-1.256-.314-1.762-.717.042-.52-.034-1.039-.058-1.558-.072-1.296.02-2.642.566-3.837a2.598 2.598 0 0 1 1.587-1.424c1.234-.383 2.552-.182 3.803-.474.984-.233 1.956-.628 2.726-1.298.613-.544 1.109-1.28 1.223-2.103-.155-.29-.42-.504-.63-.753-3.29-3.638-7.296-6.694-11.862-8.539-3.718-1.524-7.748-2.246-11.762-2.192-2.212.038-4.432.256-6.583.791.76 1.141 3.19 5.117 7.94 5.856 4.014.625 7.66-.878 7.776-.926l.003-.003v.001c-.755 1.78-.963 3.75-1.85 5.478-.547 1.102-1.355 2.131-2.482 2.678-.769.428-1.655.536-2.515.632-1.431.104-2.856-.134-4.26-.384-1.362-.204-2.732-.384-4.111-.41a64.413 64.413 0 0 0-4.29-.002c-1.883.046-3.782-.09-5.61-.567-.774-.242-1.569-.437-2.303-.792-.845-.399-1.748-.669-2.573-1.111-.527.674-.812 1.52-.891 2.366-.085 1.374.663 2.748 1.834 3.462.042.026.085.049.128.072 2.291-1.46 4.072-1.38 4.072-1.38-.905.194-1.968 1.072-2.598 1.836-.118.177-.782.842-1.366 2.226-.635 1.649-.618 3.488-1.423 5.08-.564 1.189-1.702 2.036-2.96 2.37-.684.24-1.44.153-2.102.464-.798.246-1.245 1.002-1.696 1.644-.896 1.38-2.03 2.595-3.27 3.672-.254.2-.471.444-.69.681-1.315 1.283-2.4 2.774-3.565 4.189.592.594 1.34 1.136 2.213 1.142.871.053 1.67-.397 2.331-.922.491-.33.919-.74 1.38-1.107.395-.317.727-.71 1.157-.986 1.132-.888 2.362-1.64 3.551-2.448 1.314-.909 2.877-1.353 4.425-1.668.823-.2 1.652-.378 2.462-.625 1.704-.497 3.452-.994 4.94-1.995a10.399 10.399 0 0 0 1.882-1.628l.074-.084c.311-.358.593-.74.835-1.151.083-.132.151-.28.247-.405 1.007-1.899.925-3.664.895-4.383 0 0 1.37 1.317 1.257 3.484a6.346 6.346 0 0 1 1.972.04c1.952.313 3.716 1.248 5.499 2.052 1.6.73 3.209 1.513 4.948 1.844-1.362-1.96-1.015-5.146-1.015-5.146.428.822 1.85 3.96 4.99 4.977.97.279 1.98.422 2.99.354a44.886 44.886 0 0 1 2.86-.192c.877-.102 1.746-.282 2.63-.31a7.27 7.27 0 0 1 1.94.31c1.361.345 2.56 1.138 3.615 2.043.312.259.571.572.839.877.62.674 1.508 1.153 2.443 1.11a2.378 2.378 0 0 0 1.966-1.16c.07-.141.21-.298.141-.465"/><path d="M958.308 9.866c-1.642-.39-3.293-1.436-4.533-2.689-.627.301-1.246.62-1.852.963 3.189 2.772 7.81 3.772 11.86 2.564 1.663-.453 3.168-1.334 4.54-2.358-.677.439-1.406.837-2.242 1.1-2.605.82-5.432.98-7.773.42"/></g></g></svg>
