<svg width="156" height="96" viewBox="0 0 156 96" fill="none" xmlns="http://www.w3.org/2000/svg">
	<g filter="url(#preview-svg-filter-input-rich-text-html)">
		<rect x="18" y="15" width="120" height="66" rx="6" fill="var(--background-page)" />
		<rect x="19" y="16" width="118" height="64" rx="5" stroke="var(--primary)" stroke-width="2" />
	</g>
	<rect x="28" y="25" width="8" height="8" rx="2" fill="var(--primary)" fill-opacity="0.25" />
	<rect x="42" y="25" width="8" height="8" rx="2" fill="var(--primary)" />
	<rect x="56" y="25" width="8" height="8" rx="2" fill="var(--primary)" fill-opacity="0.25" />
	<rect x="70" y="25" width="8" height="8" rx="2" fill="var(--primary)" fill-opacity="0.25" />
	<rect x="84" y="25" width="8" height="8" rx="2" fill="var(--primary)" fill-opacity="0.25" />
	<rect x="98" y="25" width="8" height="8" rx="2" fill="var(--primary)" fill-opacity="0.25" />
	<rect x="28" y="39" width="60" height="6" rx="2" fill="var(--primary)" fill-opacity="0.25" />
	<rect x="28" y="59" width="60" height="6" rx="2" fill="var(--primary)" fill-opacity="0.25" />
	<rect x="28" y="49" width="40" height="6" rx="2" fill="var(--primary)" fill-opacity="0.25" />
	<rect x="92" y="39" width="30" height="6" rx="2" fill="var(--primary)" />
	<rect x="72" y="49" width="50" height="6" rx="2" fill="var(--primary)" fill-opacity="0.25" />
	<defs>
		<filter id="preview-svg-filter-input-rich-text-html" x="10" y="7" width="136" height="82"
			filterUnits="userSpaceOnUse" color-interpolation-filters="sRGB">
			<feFlood flood-opacity="0" result="BackgroundImageFix" />
			<feColorMatrix in="SourceAlpha" type="matrix" values="0 0 0 0 0 0 0 0 0 0 0 0 0 0 0 0 0 0 127 0"
				result="hardAlpha" />
			<feOffset />
			<feGaussianBlur stdDeviation="4" />
			<feColorMatrix type="matrix" values="0 0 0 0 0 0 0 0 0 0.784314 0 0 0 0 0.592157 0 0 0 0.5 0" />
			<feBlend mode="normal" in2="BackgroundImageFix" result="effect1_dropShadow" />
			<feBlend mode="normal" in="SourceGraphic" in2="effect1_dropShadow" result="shape" />
		</filter>
	</defs>
</svg>
