<svg width="793" height="684" viewBox="0 0 793 684" fill="none" xmlns="http://www.w3.org/2000/svg">
<g filter="url(#filter0_dd)">
<rect x="232" y="38" width="457" height="512" fill="white"/>
<path d="M40 166H104V550H50C44.4772 550 40 545.523 40 540V166Z" fill="#18222F"/>
<rect x="104" y="38" width="128" height="512" fill="#F0F4F9"/>
<path d="M40 48C40 42.4772 44.4772 38 50 38H104V102H40V48Z" fill="#2ECFA8"/>
<rect x="40" y="102" width="64" height="64" fill="#F0F4F9"/>
<path d="M69 199.734C66.6562 199.734 62.0156 200.906 62.0156 203.25V204.984H75.9844V203.25C75.9844 200.906 71.3438 199.734 69 199.734ZM64.3594 203.016C65.2031 202.406 67.2188 201.75 69 201.75C70.7812 201.75 72.7969 202.406 73.6406 203.016H64.3594ZM69 198C70.9219 198 72.5156 196.453 72.5156 194.484C72.5156 192.562 70.9219 191.016 69 191.016C67.0781 191.016 65.4844 192.562 65.4844 194.484C65.4844 196.453 67.0781 198 69 198ZM69 192.984C69.8438 192.984 70.5 193.688 70.5 194.484C70.5 195.328 69.8438 195.984 69 195.984C68.1562 195.984 67.5 195.328 67.5 194.484C67.5 193.688 68.1562 192.984 69 192.984ZM76.0312 199.828C77.2031 200.672 78 201.75 78 203.25V204.984H81.9844V203.25C81.9844 201.234 78.5156 200.062 76.0312 199.828ZM75 198C76.9219 198 78.5156 196.453 78.5156 194.484C78.5156 192.562 76.9219 191.016 75 191.016C74.4375 191.016 73.9688 191.109 73.5 191.344C74.1094 192.234 74.4844 193.312 74.4844 194.484C74.4844 195.656 74.1094 196.781 73.5 197.672C73.9688 197.859 74.4375 198 75 198Z" fill="#8196B1"/>
<path d="M69.1875 256L71.1562 258.016H80.0156V268H63.9844V256H69.1875ZM69.9844 253.984H63.9844C62.9062 253.984 62.0156 254.922 62.0156 256V268C62.0156 269.078 62.9062 270.016 63.9844 270.016H80.0156C81.0938 270.016 81.9844 269.078 81.9844 268V258.016C81.9844 256.891 81.0938 256 80.0156 256H72L69.9844 253.984Z" fill="#8196B1"/>
<path d="M71.0156 320.984H72.9844V323H71.0156V320.984ZM71.0156 325.016H72.9844V331.016H71.0156V325.016ZM72 316.016C66.4688 316.016 62.0156 320.469 62.0156 326C62.0156 331.531 66.4688 335.984 72 335.984C77.5312 335.984 81.9844 331.531 81.9844 326C81.9844 320.469 77.5312 316.016 72 316.016ZM72 334.016C67.5938 334.016 63.9844 330.406 63.9844 326C63.9844 321.594 67.5938 317.984 72 317.984C76.4062 317.984 80.0156 321.594 80.0156 326C80.0156 330.406 76.4062 334.016 72 334.016Z" fill="#8196B1"/>
<path d="M79.4531 390.984C79.4531 390.656 79.5 390.328 79.5 390C79.5 389.672 79.4531 389.344 79.4531 389.016L81.5625 387.375C81.75 387.234 81.7969 386.953 81.6562 386.719L79.6406 383.25C79.5469 383.109 79.4062 383.016 79.2188 383.016C79.1719 383.016 79.0781 383.016 79.0312 383.062L76.5469 384.047C76.0312 383.672 75.4688 383.297 74.8594 383.062L74.4844 380.438C74.4375 380.203 74.25 380.016 74.0156 380.016H69.9844C69.75 380.016 69.5625 380.203 69.5156 380.438L69.1406 383.062C68.5312 383.297 67.9688 383.672 67.4531 384.047L64.9688 383.062C64.875 383.016 64.8281 383.016 64.7812 383.016C64.5938 383.016 64.4531 383.109 64.3594 383.25L62.3438 386.719C62.2031 386.953 62.25 387.234 62.4375 387.375L64.5469 389.016C64.5469 389.344 64.5 389.672 64.5 390C64.5 390.328 64.5469 390.656 64.5469 390.984L62.4375 392.625C62.25 392.766 62.2031 393.047 62.3438 393.281L64.3594 396.75C64.4531 396.891 64.5938 396.984 64.7812 396.984C64.8281 396.984 64.9219 396.984 64.9688 396.938L67.4531 395.953C67.9688 396.328 68.5312 396.703 69.1406 396.938L69.5156 399.562C69.5625 399.797 69.75 399.984 69.9844 399.984H74.0156C74.25 399.984 74.4375 399.797 74.4844 399.562L74.8594 396.938C75.4688 396.703 76.0312 396.328 76.5469 395.953L79.0312 396.938C79.125 396.984 79.1719 396.984 79.2188 396.984C79.4062 396.984 79.5469 396.891 79.6406 396.75L81.6562 393.281C81.7969 393.047 81.75 392.766 81.5625 392.625L79.4531 390.984ZM77.4375 389.25C77.4844 389.578 77.4844 389.812 77.4844 390C77.4844 390.188 77.4844 390.422 77.4375 390.75L77.2969 391.875L78.1875 392.578L79.2656 393.422L78.5625 394.594L77.2969 394.078L76.2656 393.703L75.375 394.359C74.9531 394.688 74.5312 394.922 74.1094 395.109L73.0781 395.531L72.8906 396.656L72.7031 398.016H71.2969L71.1094 396.656L70.9688 395.531L69.8906 395.109C69.4688 394.922 69.0469 394.688 68.6719 394.359L67.7344 393.703L66.7031 394.125L65.4375 394.641L64.7344 393.422L65.8125 392.578L66.7031 391.875L66.5625 390.75C66.5156 390.422 66.5156 390.188 66.5156 390C66.5156 389.812 66.5156 389.578 66.5625 389.25L66.7031 388.125L65.8125 387.422L64.7344 386.578L65.4375 385.406L66.7031 385.922L67.7344 386.297L68.625 385.641C69.0469 385.312 69.4688 385.078 69.8906 384.891L70.9219 384.469L71.1094 383.344L71.2969 381.984H72.7031L72.8906 383.344L73.0312 384.469L74.1094 384.891C74.5312 385.078 74.9531 385.312 75.3281 385.641L76.2188 386.297L77.2969 385.875L78.5625 385.359L79.2656 386.578L78.1875 387.422L77.2969 388.125L77.4375 389.25ZM72 386.016C69.7969 386.016 68.0156 387.797 68.0156 390C68.0156 392.203 69.7969 393.984 72 393.984C74.2031 393.984 75.9844 392.203 75.9844 390C75.9844 387.797 74.2031 386.016 72 386.016ZM72 392.016C70.9219 392.016 69.9844 391.078 69.9844 390C69.9844 388.922 70.9219 387.984 72 387.984C73.0781 387.984 74.0156 388.922 74.0156 390C74.0156 391.078 73.0781 392.016 72 392.016Z" fill="#8196B1"/>
<path d="M72 508.016C66.4688 508.016 62.0156 512.469 62.0156 518C62.0156 523.531 66.4688 527.984 72 527.984C77.5312 527.984 81.9844 523.531 81.9844 518C81.9844 512.469 77.5312 508.016 72 508.016ZM67.0781 524.281C67.5 523.391 70.125 522.5 72 522.5C73.875 522.5 76.5 523.391 76.9219 524.281C75.5625 525.359 73.875 526.016 72 526.016C70.125 526.016 68.4375 525.359 67.0781 524.281ZM78.375 522.828C76.9219 521.094 73.4531 520.484 72 520.484C70.5469 520.484 67.0781 521.094 65.625 522.828C64.6406 521.469 63.9844 519.828 63.9844 518C63.9844 513.594 67.5938 509.984 72 509.984C76.4062 509.984 80.0156 513.594 80.0156 518C80.0156 519.828 79.3594 521.469 78.375 522.828ZM72 512C70.0781 512 68.4844 513.547 68.4844 515.516C68.4844 517.438 70.0781 518.984 72 518.984C73.9219 518.984 75.5156 517.438 75.5156 515.516C75.5156 513.547 73.9219 512 72 512ZM72 517.016C71.1562 517.016 70.5 516.312 70.5 515.516C70.5 514.672 71.1562 514.016 72 514.016C72.8438 514.016 73.5 514.672 73.5 515.516C73.5 516.312 72.8438 517.016 72 517.016Z" fill="#8196B1"/>
<path d="M689 230H753V486H689V230Z" fill="#F0F4F9"/>
<path d="M689 38H743C748.523 38 753 42.4772 753 48V102H689V38Z" fill="#E4EAF1"/>
<path d="M689 102H753V166H689V102Z" fill="#E4EAF1"/>
<path d="M689 166H753V230H689V166Z" fill="#E4EAF1"/>
<path d="M689 486H753V540C753 545.523 748.523 550 743 550H689V486Z" fill="#E4EAF1"/>
<path d="M724.984 523.016V517.016C724.984 515.734 724.625 514.672 723.906 513.828C723.188 512.953 722.219 512.516 721 512.516C719.781 512.516 718.812 512.953 718.094 513.828C717.375 514.672 717.016 515.734 717.016 517.016V523.016H724.984ZM727 521.984L729.016 524V524.984H712.984V524L715 521.984V517.016C715 515.453 715.391 514.094 716.172 512.938C716.984 511.781 718.094 511.031 719.5 510.688V509.984C719.5 509.578 719.641 509.234 719.922 508.953C720.203 508.641 720.562 508.484 721 508.484C721.438 508.484 721.797 508.641 722.078 508.953C722.359 509.234 722.5 509.578 722.5 509.984V510.688C723.906 511.031 725 511.781 725.781 512.938C726.594 514.094 727 515.453 727 517.016V521.984ZM722.406 527.422C722 527.797 721.531 527.984 721 527.984C720.469 527.984 720 527.797 719.594 527.422C719.188 527.016 718.984 526.547 718.984 526.016H723.016C723.016 526.547 722.812 527.016 722.406 527.422Z" fill="#182B44"/>
<path d="M720.016 64.9844H721.984V67H720.016V64.9844ZM720.016 69.0156H721.984V75.0156H720.016V69.0156ZM721 60.0156C715.469 60.0156 711.016 64.4688 711.016 70C711.016 75.5312 715.469 79.9844 721 79.9844C726.531 79.9844 730.984 75.5312 730.984 70C730.984 64.4688 726.531 60.0156 721 60.0156ZM721 78.0156C716.594 78.0156 712.984 74.4062 712.984 70C712.984 65.5938 716.594 61.9844 721 61.9844C725.406 61.9844 729.016 65.5938 729.016 70C729.016 74.4062 725.406 78.0156 721 78.0156Z" fill="#182B44"/>
<path d="M721 140.562L713.641 134.797L712 136.062L721 143.047L730 136.062L728.359 134.797L721 140.562ZM721 137.984L728.359 132.266L730 131L721 124.016L712 131L713.641 132.266L721 137.984ZM721 126.547L726.719 131L721 135.453L715.281 131L721 126.547Z" fill="#182B44"/>
<path d="M715 198.984V197.016H727V198.984H715ZM712 192H730V194.016H712V192ZM718.984 204V201.984H723.016V204H718.984Z" fill="#182B44"/>
<path fill-rule="evenodd" clip-rule="evenodd" d="M84.4135 73.3189C84.2291 73.2728 84.0754 73.2267 83.9371 73.1652C83.7988 73.1038 83.6912 73.0269 83.599 72.9347C83.6912 72.1203 83.599 71.4134 83.6759 70.6143C83.9832 67.5102 85.9348 68.4937 87.6866 67.9866C88.7777 67.6793 89.8687 67.0492 90.1453 65.7584C88.9467 64.36 87.6098 63.1307 86.1499 62.0857C81.4016 58.705 75.1934 57.3527 69.5537 58.2901C70.4378 59.834 71.7554 61.0181 73.2837 61.7476C73.2837 61.7476 71.7554 61.7476 70.4454 60.7691C70.0613 60.9228 69.2925 61.2252 68.9237 61.4096C71.9202 64.2832 76.6071 64.6059 79.9725 62.0243C79.9571 62.055 79.6651 62.5006 79.3117 64.36C78.528 68.3247 76.269 68.0173 73.4723 67.0185C67.6636 64.9132 64.4673 66.8648 61.5629 62.8694C60.7177 63.3458 60.1953 64.2371 60.1953 65.2052C60.1953 66.204 60.7485 67.0492 61.5476 67.5102C61.9838 66.9315 62.1794 66.7669 62.9402 66.7669C61.7629 67.4344 61.6244 68.0173 61.1173 69.6309C60.5026 71.5825 60.7638 73.5802 57.8902 74.1026C56.3689 74.1795 56.3997 75.209 55.8464 76.7457C55.1549 78.7434 54.2329 79.5425 52.435 81.4326C53.1726 82.3239 53.941 82.4315 54.7247 82.1088C56.3382 81.4326 57.5829 79.3427 58.7508 77.9904C60.057 76.4845 63.1918 77.1299 65.5583 75.6547C67.1872 74.6558 67.9863 73.3035 66.9106 71.0139C67.6021 71.7822 68.017 72.7503 68.0785 73.7799C70.8138 73.4265 74.4711 76.7611 77.8057 77.3143C77.4677 76.884 77.1911 76.423 76.9913 75.9467C76.6071 75.0246 76.4842 74.1795 76.561 73.4418C76.8683 75.2705 78.7124 77.6216 81.6782 77.8368C82.4312 77.8982 83.261 77.806 84.1215 77.5448C85.1511 77.2375 86.1038 76.8379 87.241 77.0531C88.0862 77.2067 88.8699 77.637 89.3616 78.3593C90.0992 79.4349 91.7128 79.6654 92.435 78.3439C90.8061 74.0873 86.319 73.8107 84.4135 73.3189Z" fill="white"/>
<path fill-rule="evenodd" clip-rule="evenodd" d="M62.5626 139.763L71.5938 143.907C71.8646 144.031 72.1354 144.031 72.4062 143.907L81.4349 139.763C81.8112 139.591 81.9995 139.298 82 138.885V128.115C81.9996 128.057 81.994 127.999 81.983 127.941C81.983 127.924 81.983 127.907 81.983 127.89C81.9729 127.848 81.9599 127.807 81.9442 127.767L81.9297 127.726C81.9079 127.675 81.8821 127.627 81.8521 127.58L81.8302 127.549C81.8043 127.513 81.776 127.479 81.7454 127.447L81.6993 127.416C81.6658 127.384 81.6302 127.355 81.5926 127.329L81.5659 127.309C81.5241 127.282 81.4805 127.258 81.4349 127.237L72.4038 123.093C72.133 122.969 71.8622 122.969 71.5914 123.093L62.5626 127.237C62.5171 127.258 62.4734 127.282 62.4317 127.309L62.405 127.329C62.3674 127.355 62.3318 127.384 62.2983 127.416L62.2668 127.45C62.2361 127.482 62.2079 127.516 62.1819 127.551L62.1601 127.583C62.1301 127.629 62.1042 127.677 62.0825 127.728L62.0558 127.767C62.0401 127.807 62.0271 127.848 62.017 127.89C62.017 127.907 62.017 127.924 62.017 127.941C62.006 127.999 62.0004 128.057 62 128.115V138.885C62 139.297 62.1876 139.59 62.5626 139.763H62.5626ZM63.9377 129.628L71.0287 132.888V141.528L63.9377 138.265V129.628ZM72.9688 141.525V132.888L80.0599 129.628V138.268L72.9688 141.525ZM71.9988 125.03L78.7115 128.115L71.9988 131.201L65.286 128.115L71.9988 125.03Z" fill="#182B44"/>
<rect x="117" y="114" width="104" height="16" rx="4" fill="#E4EAF1"/>
<rect x="309" y="62" width="104" height="16" rx="4" fill="#F0F4F9"/>
<rect x="264" y="128" width="69" height="69" rx="4" fill="#F0F4F9"/>
<rect x="264" y="209" width="69" height="69" rx="4" fill="#F0F4F9"/>
<rect x="264" y="290" width="69" height="69" rx="4" fill="#F0F4F9"/>
<rect x="264" y="371" width="69" height="69" rx="4" fill="#F0F4F9"/>
<rect x="508" y="128" width="69" height="69" rx="4" fill="#F0F4F9"/>
<rect x="589" y="128" width="69" height="69" rx="4" fill="#F0F4F9"/>
<rect x="508" y="209" width="69" height="69" rx="4" fill="#F0F4F9"/>
<rect x="589" y="209" width="69" height="69" rx="4" fill="#F0F4F9"/>
<rect x="508" y="290" width="69" height="69" rx="4" fill="#F0F4F9"/>
<rect x="589" y="290" width="69" height="69" rx="4" fill="#F0F4F9"/>
<rect x="346" y="128" width="69" height="69" rx="4" fill="#F0F4F9"/>
<rect x="346" y="209" width="69" height="69" rx="4" fill="#F0F4F9"/>
<rect x="346" y="290" width="69" height="69" rx="4" fill="#F0F4F9"/>
<rect x="346" y="371" width="69" height="69" rx="4" fill="#F0F4F9"/>
<rect x="427" y="128" width="69" height="69" rx="4" fill="#F0F4F9"/>
<rect x="427" y="209" width="69" height="69" rx="4" fill="#F0F4F9"/>
<rect x="427" y="290" width="69" height="69" rx="4" fill="#F0F4F9"/>
<rect x="264" y="52" width="36" height="36" rx="18" fill="#F0F4F9"/>
<rect x="117" y="142" width="78" height="16" rx="4" fill="#E4EAF1"/>
<rect x="117" y="236" width="78" height="16" rx="4" fill="#E4EAF1"/>
<rect x="117" y="198" width="71" height="16" rx="4" fill="#E4EAF1"/>
<rect x="117" y="170" width="90" height="16" rx="4" fill="#E4EAF1"/>
<rect x="117" y="264" width="90" height="16" rx="4" fill="#E4EAF1"/>
<rect x="622" y="52" width="36" height="36" rx="18" fill="#2ECFA8"/>
<path d="M646.984 70.9844H640.984V76.9844H639.016V70.9844H633.016V69.0156H639.016V63.0156H640.984V69.0156H646.984V70.9844Z" fill="white"/>
<rect x="578" y="52" width="36" height="36" rx="18" fill="#C3F1E6"/>
<path d="M593.188 64L595.156 66.0156H604.016V76H587.984V64H593.188ZM593.984 61.9844H587.984C586.906 61.9844 586.016 62.9219 586.016 64V76C586.016 77.0781 586.906 78.0156 587.984 78.0156H604.016C605.094 78.0156 605.984 77.0781 605.984 76V66.0156C605.984 64.8906 605.094 64 604.016 64H596L593.984 61.9844Z" fill="#2ECFA8"/>
<rect x="535" y="53" width="34" height="34" rx="17" fill="white" stroke="#D3DAE4" stroke-width="2"/>
<path d="M546.328 70.7031C547.203 71.5781 548.266 72.0156 549.516 72.0156C550.766 72.0156 551.828 71.5781 552.703 70.7031C553.578 69.8281 554.016 68.7656 554.016 67.5156C554.016 66.2656 553.578 65.2031 552.703 64.3281C551.828 63.4531 550.766 63.0156 549.516 63.0156C548.266 63.0156 547.203 63.4531 546.328 64.3281C545.453 65.2031 545.016 66.2656 545.016 67.5156C545.016 68.7656 545.453 69.8281 546.328 70.7031ZM555.516 72.0156L560.484 76.9844L558.984 78.4844L554.016 73.5156V72.7188L553.734 72.4375C552.547 73.4688 551.141 73.9844 549.516 73.9844C547.703 73.9844 546.156 73.3594 544.875 72.1094C543.625 70.8594 543 69.3281 543 67.5156C543 65.7031 543.625 64.1719 544.875 62.9219C546.156 61.6406 547.703 61 549.516 61C551.328 61 552.859 61.6406 554.109 62.9219C555.359 64.1719 555.984 65.7031 555.984 67.5156C555.984 69.1406 555.469 70.5469 554.438 71.7344L554.719 72.0156H555.516Z" fill="#A2B5CD"/>
<rect x="104.435" y="38" width="128" height="64" fill="#E4EAF1"/>
<rect x="117" y="224" width="104" height="2" fill="#E4EAF1"/>
<rect opacity="0.25" x="48" y="484" width="48" height="2" fill="#8196B1"/>
<path d="M127 79.4688L115.375 64.9844C119.156 62.3281 123.031 61 127 61C130.969 61 134.844 62.3281 138.625 64.9844L127 79.4688Z" fill="#A2B5CD"/>
<rect x="147" y="62" width="74" height="16" rx="4" fill="#A2B5CD"/>
</g>
<circle cx="72" cy="612" r="32" fill="#2ECFA8"/>
<circle cx="168" cy="612" r="32" fill="#2ECFA8"/>
<circle cx="721" cy="612" r="32" fill="#2ECFA8"/>
<path d="M75.1374 602.545V620H71.4471V606.048H71.3448L67.3477 608.554V605.281L71.6687 602.545H75.1374Z" fill="white"/>
<path d="M161.856 620V617.341L168.069 611.588C168.598 611.077 169.041 610.616 169.399 610.207C169.762 609.798 170.038 609.398 170.225 609.006C170.413 608.608 170.507 608.179 170.507 607.719C170.507 607.207 170.39 606.767 170.157 606.398C169.924 606.023 169.606 605.736 169.203 605.537C168.799 605.332 168.342 605.23 167.831 605.23C167.297 605.23 166.831 605.338 166.433 605.554C166.035 605.77 165.728 606.08 165.512 606.483C165.297 606.886 165.189 607.366 165.189 607.923H161.686C161.686 606.781 161.944 605.79 162.461 604.949C162.978 604.108 163.703 603.457 164.635 602.997C165.566 602.537 166.64 602.307 167.856 602.307C169.106 602.307 170.194 602.528 171.12 602.972C172.052 603.409 172.777 604.017 173.294 604.795C173.811 605.574 174.069 606.466 174.069 607.472C174.069 608.131 173.939 608.781 173.677 609.423C173.422 610.065 172.964 610.778 172.305 611.562C171.646 612.341 170.717 613.276 169.518 614.366L166.97 616.864V616.983H174.299V620H161.856Z" fill="white"/>
<circle cx="461" cy="612" r="32" fill="#2ECFA8"/>
<path d="M460.956 620.239C459.684 620.239 458.55 620.02 457.556 619.582C456.567 619.139 455.786 618.531 455.212 617.759C454.644 616.98 454.351 616.082 454.334 615.065H458.05C458.073 615.491 458.212 615.866 458.468 616.19C458.729 616.509 459.076 616.756 459.507 616.932C459.939 617.108 460.425 617.196 460.965 617.196C461.527 617.196 462.025 617.097 462.456 616.898C462.888 616.699 463.226 616.423 463.471 616.071C463.715 615.719 463.837 615.312 463.837 614.852C463.837 614.386 463.706 613.974 463.445 613.616C463.189 613.253 462.82 612.969 462.337 612.764C461.86 612.56 461.292 612.457 460.632 612.457H459.005V609.747H460.632C461.189 609.747 461.681 609.651 462.107 609.457C462.539 609.264 462.874 608.997 463.113 608.656C463.351 608.31 463.471 607.906 463.471 607.446C463.471 607.009 463.365 606.625 463.155 606.295C462.951 605.96 462.661 605.699 462.286 605.511C461.917 605.324 461.485 605.23 460.99 605.23C460.49 605.23 460.033 605.321 459.618 605.503C459.203 605.679 458.871 605.932 458.621 606.261C458.371 606.591 458.238 606.977 458.221 607.42H454.684C454.701 606.415 454.988 605.528 455.544 604.761C456.101 603.994 456.851 603.395 457.794 602.963C458.743 602.526 459.814 602.307 461.007 602.307C462.212 602.307 463.266 602.526 464.169 602.963C465.073 603.401 465.775 603.991 466.275 604.736C466.78 605.474 467.03 606.304 467.025 607.224C467.03 608.202 466.726 609.017 466.113 609.67C465.505 610.324 464.712 610.739 463.735 610.915V611.051C465.019 611.216 465.996 611.662 466.667 612.389C467.343 613.111 467.678 614.014 467.672 615.099C467.678 616.094 467.391 616.977 466.811 617.75C466.238 618.523 465.445 619.131 464.434 619.574C463.422 620.017 462.263 620.239 460.956 620.239Z" fill="white"/>
<path d="M713.518 616.932V614.026L720.805 602.545H723.31V606.568H721.827L717.234 613.838V613.974H727.589V616.932H713.518ZM721.896 620V616.045L721.964 614.759V602.545H725.424V620H721.896Z" fill="white"/>
<defs>
<filter id="filter0_dd" x="0" y="0" width="793" height="592" filterUnits="userSpaceOnUse" color-interpolation-filters="sRGB">
<feFlood flood-opacity="0" result="BackgroundImageFix"/>
<feColorMatrix in="SourceAlpha" type="matrix" values="0 0 0 0 0 0 0 0 0 0 0 0 0 0 0 0 0 0 127 0"/>
<feOffset dy="2"/>
<feGaussianBlur stdDeviation="20"/>
<feColorMatrix type="matrix" values="0 0 0 0 0.0901961 0 0 0 0 0.160784 0 0 0 0 0.25098 0 0 0 0.05 0"/>
<feBlend mode="normal" in2="BackgroundImageFix" result="effect1_dropShadow"/>
<feColorMatrix in="SourceAlpha" type="matrix" values="0 0 0 0 0 0 0 0 0 0 0 0 0 0 0 0 0 0 127 0"/>
<feOffset dy="5"/>
<feGaussianBlur stdDeviation="5"/>
<feColorMatrix type="matrix" values="0 0 0 0 0.0901961 0 0 0 0 0.160784 0 0 0 0 0.25098 0 0 0 0.1 0"/>
<feBlend mode="normal" in2="effect1_dropShadow" result="effect2_dropShadow"/>
<feBlend mode="normal" in="SourceGraphic" in2="effect2_dropShadow" result="shape"/>
</filter>
</defs>
</svg>
