<?xml version="1.0" standalone="no"?>
<!DOCTYPE svg PUBLIC "-//W3C//DTD SVG 20010904//EN"
 "http://www.w3.org/TR/2001/REC-SVG-20010904/DTD/svg10.dtd">
<svg version="1.0" xmlns="http://www.w3.org/2000/svg"
 width="1809.000000pt" height="1809.000000pt" viewBox="0 0 1809.000000 1809.000000"
 preserveAspectRatio="xMidYMid meet">
<metadata>
Created by potrace 1.11, written by Peter Selinger 2001-2013
</metadata>
<g transform="translate(0.000000,1809.000000) scale(0.100000,-0.100000)"
fill="#000000" stroke="none">
<path d="M8919 14526 c-2 -2 -67 -7 -144 -10 -77 -4 -156 -9 -175 -11 -19 -2
-73 -6 -120 -9 -47 -4 -94 -8 -105 -10 -11 -2 -56 -7 -99 -11 -43 -4 -86 -8
-95 -10 -9 -1 -47 -6 -84 -10 -37 -3 -76 -8 -86 -10 -10 -2 -42 -6 -72 -10
-30 -4 -56 -8 -59 -10 -3 -2 -34 -6 -70 -10 -36 -4 -69 -9 -73 -12 -10 -6 22
-62 121 -213 148 -227 285 -394 497 -606 l150 -151 -75 -26 c-81 -27 -373
-138 -430 -163 -56 -25 -68 -30 -215 -93 -203 -86 -335 -150 -335 -160 0 -5
15 -21 33 -36 17 -15 50 -44 72 -64 286 -263 689 -514 1094 -680 113 -47 399
-144 454 -155 12 -3 69 -16 127 -29 111 -27 298 -61 390 -71 30 -4 69 -8 85
-11 193 -23 682 -24 804 0 10 2 43 6 74 9 31 3 107 15 169 26 108 19 126 22
193 36 17 3 88 22 158 40 446 120 858 315 1237 585 36 25 70 49 77 53 7 3 -1
-22 -16 -56 -60 -134 -123 -344 -196 -658 -13 -58 -26 -116 -29 -130 -2 -14
-17 -81 -31 -150 -15 -69 -29 -136 -31 -150 -20 -111 -117 -427 -166 -541 -45
-105 -116 -238 -174 -325 -69 -104 -222 -262 -313 -324 -121 -81 -320 -159
-449 -175 -26 -4 -58 -9 -72 -11 -83 -16 -401 2 -540 31 -13 2 -40 7 -60 10
-34 5 -243 56 -365 90 -61 16 -287 91 -630 209 -255 87 -681 207 -870 246 -22
4 -116 24 -210 43 -93 19 -188 38 -210 41 -22 4 -80 13 -130 22 -49 8 -101 17
-115 19 -94 16 -354 51 -530 71 -25 3 -61 7 -81 10 -20 2 -59 7 -85 9 -27 3
-83 10 -124 15 -41 5 -97 12 -125 15 -27 3 -68 8 -90 10 -22 3 -80 10 -130 15
-49 6 -108 13 -130 16 -830 99 -1345 281 -1785 632 -200 160 -376 344 -590
622 l-25 32 -80 -53 c-100 -65 -265 -230 -328 -327 -94 -143 -149 -273 -183
-434 -25 -114 -25 -383 -1 -483 64 -259 161 -438 332 -610 131 -131 276 -224
440 -281 44 -15 82 -29 84 -30 3 -3 -82 -109 -99 -124 -4 -3 -36 -48 -72 -100
-186 -270 -301 -571 -418 -1097 -11 -51 -29 -135 -41 -185 -11 -51 -22 -100
-24 -108 -14 -65 -82 -290 -107 -355 -37 -94 -108 -241 -146 -299 -78 -120
-206 -253 -323 -333 -193 -132 -498 -239 -765 -267 -265 -28 -433 -131 -549
-338 -50 -88 -94 -204 -154 -398 -150 -487 -229 -699 -344 -928 -160 -319
-357 -593 -670 -936 -121 -131 -126 -137 -292 -311 -84 -88 -178 -186 -208
-219 -31 -32 -81 -85 -113 -118 -56 -58 -56 -59 -38 -81 108 -127 238 -231
359 -288 345 -162 750 -42 1199 356 94 83 251 240 327 326 30 34 60 68 67 76
16 15 108 126 162 193 19 24 59 73 88 109 80 100 90 113 243 311 78 102 145
187 149 190 3 3 17 21 30 40 13 19 27 37 30 40 3 3 46 55 95 115 159 196 272
289 460 381 187 91 525 184 860 238 36 6 266 45 292 50 10 2 38 7 63 11 25 4
54 9 65 11 11 2 45 8 75 14 30 6 66 12 80 15 14 3 52 10 85 16 33 6 134 28
225 50 499 120 835 268 1155 510 89 67 268 235 342 320 42 49 160 206 180 240
11 18 40 39 82 57 424 190 990 123 1716 -200 39 -17 102 -45 140 -62 74 -32
752 -372 940 -471 133 -70 535 -271 625 -313 234 -109 312 -143 510 -222 358
-143 687 -230 988 -261 110 -11 444 -8 507 5 134 28 129 29 241 -19 58 -25
135 -55 172 -66 37 -12 92 -30 123 -40 56 -18 268 -64 344 -74 22 -2 56 -7 75
-9 126 -16 439 -23 520 -12 19 3 64 8 99 11 220 20 436 69 821 189 299 93 330
102 514 140 535 112 1075 -19 1431 -346 69 -64 145 -151 210 -243 124 -175
315 -311 504 -360 92 -24 131 -28 231 -27 255 2 480 133 615 358 l33 54 -34
82 c-69 162 -173 361 -262 498 -49 75 -166 237 -181 250 -3 3 -24 28 -46 55
-124 157 -414 415 -616 550 -390 259 -893 474 -1409 601 -8 2 -62 15 -120 29
-58 15 -112 28 -120 30 -46 11 -463 100 -514 109 -55 10 -185 38 -216 46 -19
5 -46 11 -60 14 -14 2 -61 14 -104 26 -219 61 -333 130 -322 196 12 75 18 221
21 556 2 200 6 377 9 393 2 17 7 64 11 105 23 268 119 557 239 716 171 228
396 310 931 339 55 4 120 8 145 10 25 2 79 7 120 10 41 3 100 10 130 15 30 5
71 12 90 15 147 24 359 95 527 175 365 174 603 430 702 754 33 108 33 114 2
149 -103 118 -213 241 -261 292 -68 74 -456 461 -530 530 -75 69 -305 271
-364 320 -27 22 -80 66 -118 98 -74 61 -261 209 -308 242 -15 11 -104 75 -196
141 -199 143 -403 277 -604 398 -80 48 -152 91 -160 96 -8 6 -22 13 -30 17 -8
4 -35 19 -61 33 -25 15 -67 40 -95 55 -67 38 -515 264 -589 297 -33 15 -91 41
-130 59 -320 144 -710 292 -1045 398 -91 29 -176 56 -190 61 -50 19 -440 122
-605 161 -144 34 -226 51 -445 94 -14 3 -61 12 -105 20 -44 8 -102 18 -130 24
-27 5 -74 12 -104 16 -30 4 -61 8 -70 10 -52 10 -258 37 -381 50 -30 3 -66 8
-80 10 -14 2 -61 7 -105 10 -44 4 -93 8 -110 10 -16 2 -75 6 -130 10 -55 3
-122 9 -150 11 -56 6 -991 15 -996 10z"/>
</g>
</svg>
