<svg width="48" height="48" viewBox="0 0 48 48" fill="none" xmlns="http://www.w3.org/2000/svg">
<rect width="48" height="48" rx="13.6205" fill="white" fill-opacity="0.31"/>
<rect width="48" height="48" rx="13.6205" fill="url(#paint0_linear_101_2)"/>
<g filter="url(#filter0_d_101_2)">
<path d="M25.8629 5.81054L38.8211 13.2919C39.9739 13.9575 40.684 15.1875 40.684 16.5186V31.4814C40.684 32.8125 39.9739 34.0425 38.8211 34.7081L25.8629 42.1895C24.7101 42.855 23.2899 42.855 22.1371 42.1895L9.17892 34.7081C8.02614 34.0425 7.316 32.8125 7.316 31.4814V16.5186C7.316 15.1875 8.02614 13.9575 9.17892 13.2919L22.1371 5.81054C23.2899 5.14498 24.7101 5.14498 25.8629 5.81054Z" stroke="url(#paint1_linear_101_2)" stroke-width="2.48389" shape-rendering="crispEdges"/>
</g>
<path d="M25.97 12.552C26.295 12.5437 26.6181 12.6041 26.9192 12.7296C27.2202 12.8551 27.4926 13.0429 27.7193 13.2812C29.7403 15.3413 31.7575 17.4041 33.7709 19.4697C34.4322 20.1503 34.638 20.9861 34.3998 21.9102C33.6759 24.7125 32.9432 27.514 32.2015 30.3148C31.9461 31.2765 31.3222 31.8886 30.3702 32.1483C27.6756 32.8841 24.982 33.6223 22.2893 34.363C21.3201 34.6315 20.4767 34.4145 19.7751 33.7008C17.7742 31.673 15.7819 29.6374 13.7983 27.594C13.1039 26.8773 12.8873 26.0143 13.1507 25.0232C13.8818 22.2597 14.597 19.4917 15.326 16.7268C15.5771 15.7732 16.1736 15.1507 17.1091 14.8888C19.8478 14.1315 22.5879 13.3805 25.3295 12.6359C25.5387 12.5805 25.7539 12.5524 25.97 12.552V12.552ZM33.0657 21.2576C33.0611 21.105 33.0269 20.955 32.9652 20.816C32.9034 20.6771 32.8153 20.5521 32.706 20.4482C30.719 18.4234 28.7341 16.3957 26.7514 14.365C26.4435 14.0493 26.0858 13.9412 25.6721 14.0545C22.965 14.7941 20.2587 15.5341 17.5531 16.2743C17.0918 16.4001 16.8126 16.6826 16.6896 17.1572C15.97 19.9241 15.2463 22.6889 14.5186 25.4514C14.4078 25.8715 14.497 26.2291 14.7913 26.5308C16.7913 28.5777 18.7922 30.6229 20.794 32.6663C21.0977 32.9768 21.4496 33.0761 21.8784 32.9606C24.5941 32.2106 27.3113 31.4668 30.0298 30.7291C30.4796 30.6062 30.7321 30.3045 30.8509 29.8461C31.4935 27.3747 32.1461 24.9062 32.7887 22.4348C32.8916 22.0368 33.0276 21.6416 33.0657 21.2576Z" fill="url(#paint2_linear_101_2)"/>
<g filter="url(#filter1_d_101_2)">
<path d="M25.8629 5.81041L38.8211 13.2918C39.9739 13.9574 40.684 15.1874 40.684 16.5185V31.4813C40.684 32.8124 39.9739 34.0424 38.8211 34.7079L25.8629 42.1893C24.7101 42.8549 23.2899 42.8549 22.1371 42.1893L9.17892 34.7079C8.02614 34.0424 7.316 32.8124 7.316 31.4813V16.5185C7.316 15.1874 8.02614 13.9574 9.17892 13.2918L22.1371 5.81041C23.2899 5.14486 24.7101 5.14486 25.8629 5.81041Z" stroke="url(#paint3_linear_101_2)" stroke-width="2.48389" shape-rendering="crispEdges"/>
</g>
<g filter="url(#filter2_d_101_2)">
<path d="M25.562 5.50963L38.5202 12.991C39.673 13.6566 40.3831 14.8866 40.3831 16.2177V31.1805C40.3831 32.5116 39.673 33.7416 38.5202 34.4072L25.562 41.8886C24.4092 42.5541 22.989 42.5541 21.8362 41.8886L8.87802 34.4072C7.72524 33.7416 7.0151 32.5116 7.0151 31.1805V16.2177C7.0151 14.8866 7.72524 13.6566 8.87802 12.991L21.8362 5.50963C22.989 4.84408 24.4092 4.84408 25.562 5.50963Z" stroke="url(#paint4_linear_101_2)" stroke-width="2.48389" shape-rendering="crispEdges"/>
</g>
<path d="M30.1962 23.4994C30.1962 24.3824 30.1962 25.2653 30.1962 26.1482C30.1962 26.8987 29.8889 27.4792 29.2607 27.8559C27.7505 28.7589 26.2358 29.6534 24.7166 30.5392C24.0941 30.9071 23.4566 30.9071 22.8334 30.5392C21.3141 29.649 19.798 28.756 18.285 27.8603C17.6654 27.4924 17.3495 26.9178 17.3445 26.1887C17.3344 24.3993 17.3344 22.6089 17.3445 20.8176C17.3495 20.0715 17.6935 19.5065 18.3267 19.1327C19.8095 18.2557 21.2935 17.3804 22.7787 16.5068C23.4386 16.1183 24.102 16.1168 24.7605 16.5068C26.2248 17.3676 27.6848 18.2365 29.1499 19.0937C29.8767 19.5182 30.2156 20.1444 30.1983 20.9993C30.1832 21.8322 30.1962 22.6658 30.1962 23.4994ZM28.757 23.4994C28.757 22.6541 28.7476 21.8072 28.762 20.964C28.7671 20.6697 28.6656 20.4924 28.4152 20.3467C26.9991 19.5251 25.5887 18.693 24.1841 17.8503C23.8854 17.6707 23.6494 17.6729 23.3558 17.8503C21.9618 18.6866 20.5619 19.5128 19.1564 20.329C18.8872 20.4858 18.7613 20.68 18.7635 21.0037C18.7736 22.6715 18.7736 24.3375 18.7635 26.0018C18.7635 26.3226 18.875 26.5264 19.1449 26.6838C20.5696 27.5152 21.9903 28.3535 23.4069 29.1987C23.6638 29.3517 23.8782 29.3583 24.1395 29.1987C25.5652 28.3447 26.9957 27.4993 28.431 26.6625C28.5383 26.6096 28.6274 26.5247 28.6865 26.4189C28.7456 26.3132 28.772 26.1916 28.762 26.0702C28.7484 25.2152 28.7556 24.3581 28.7556 23.5002L28.757 23.4994Z" fill="url(#paint5_linear_101_2)"/>
<path d="M32.2325 25.5629C32.2231 26.1861 32.0382 26.6533 31.6654 27.0344C30.0305 28.709 28.3937 30.3814 26.755 32.0516C26.2283 32.585 25.5807 32.7388 24.8625 32.5424C22.6558 31.9376 20.4491 31.3306 18.2424 30.7214C17.5228 30.5227 17.0565 30.0459 16.8615 29.3116C16.2633 27.0553 15.6697 24.799 15.0806 22.5426C14.8892 21.8105 15.0345 21.155 15.5627 20.612C17.2004 18.9236 18.843 17.2402 20.4904 15.5617C20.9941 15.0467 21.6273 14.8892 22.3167 15.0754C24.5507 15.6777 26.7814 16.2879 29.0087 16.9059C29.7283 17.1046 30.1867 17.5983 30.3795 18.3296C30.9753 20.586 31.5652 22.8438 32.149 25.1031C32.1847 25.2548 32.2125 25.4082 32.2325 25.5629V25.5629ZM30.8005 25.6174C30.7875 25.5585 30.7717 25.4746 30.7501 25.3922C30.1716 23.1849 29.5935 20.9754 29.0159 18.7637C28.944 18.4952 28.7921 18.3576 28.5324 18.287C26.3703 17.6984 24.2094 17.1061 22.0497 16.5101C21.8014 16.4417 21.6129 16.4821 21.4316 16.6683C19.8327 18.3081 18.2311 19.9454 16.6269 21.5802C16.5458 21.6527 16.4872 21.748 16.4586 21.8542C16.4299 21.9604 16.4324 22.0729 16.4658 22.1777C17.0568 24.409 17.6435 26.6408 18.2258 28.8731C18.2884 29.1122 18.4137 29.2535 18.6475 29.3146C20.8331 29.913 23.0173 30.5139 25.2 31.1172C25.4504 31.1864 25.6318 31.1268 25.8145 30.9421C27.4048 29.3102 28.9975 27.6812 30.5925 26.0551C30.7084 25.9396 30.8012 25.8175 30.8005 25.6174V25.6174Z" fill="url(#paint6_linear_101_2)"/>
<path d="M25.97 12.552C26.295 12.5437 26.6181 12.6041 26.9192 12.7296C27.2202 12.8551 27.4926 13.0429 27.7193 13.2812C29.7403 15.3413 31.7575 17.4041 33.7709 19.4697C34.4322 20.1503 34.638 20.9861 34.3998 21.9102C33.6759 24.7125 32.9432 27.514 32.2015 30.3148C31.9461 31.2765 31.3222 31.8886 30.3702 32.1483C27.6756 32.8841 24.982 33.6223 22.2893 34.363C21.3201 34.6315 20.4767 34.4145 19.7751 33.7008C17.7742 31.673 15.7819 29.6374 13.7983 27.594C13.1039 26.8773 12.8873 26.0143 13.1507 25.0232C13.8818 22.2597 14.597 19.4917 15.326 16.7268C15.5771 15.7732 16.1736 15.1507 17.1091 14.8888C19.8478 14.1315 22.5879 13.3805 25.3295 12.6359C25.5387 12.5805 25.7539 12.5524 25.97 12.552V12.552ZM33.0657 21.2576C33.0611 21.105 33.0269 20.955 32.9652 20.816C32.9034 20.6771 32.8153 20.5521 32.706 20.4482C30.719 18.4234 28.7341 16.3957 26.7514 14.365C26.4435 14.0493 26.0858 13.9412 25.6721 14.0545C22.965 14.7941 20.2587 15.5341 17.5531 16.2743C17.0918 16.4001 16.8126 16.6826 16.6896 17.1572C15.97 19.9241 15.2463 22.6889 14.5186 25.4514C14.4078 25.8715 14.497 26.2291 14.7913 26.5308C16.7913 28.5777 18.7922 30.6229 20.794 32.6663C21.0977 32.9768 21.4496 33.0761 21.8784 32.9606C24.5941 32.2106 27.3113 31.4668 30.0298 30.7291C30.4796 30.6062 30.7321 30.3045 30.8509 29.8461C31.4935 27.3747 32.1461 24.9062 32.7887 22.4348C32.8916 22.0368 33.0276 21.6416 33.0657 21.2576Z" fill="url(#paint7_linear_101_2)"/>
<path d="M35.5339 23.5381C35.5339 25.2899 35.5252 27.0425 35.5339 28.7944C35.5418 29.9024 35.0928 30.7147 34.1494 31.268C31.1372 33.0339 28.1294 34.8088 25.1259 36.5927C24.1854 37.1504 23.278 37.1203 22.3404 36.5618C19.3628 34.7877 16.3768 33.025 13.3823 31.2739C12.4519 30.7287 12 29.9444 12 28.8429C12.0125 25.2897 12.0125 21.7362 12 18.1825C11.9957 17.0788 12.4498 16.293 13.3766 15.7478C16.4079 13.9658 19.4364 12.1784 22.462 10.3856C23.3089 9.88602 24.1696 9.86321 25.0244 10.3679C28.1157 12.1907 31.2061 14.0154 34.2955 15.842C35.1359 16.3401 35.5303 17.1171 35.5303 18.1008C35.5367 19.9137 35.5339 21.7274 35.5339 23.5381ZM34.1033 23.5263C34.1033 21.7502 34.0961 19.9733 34.1077 18.1965C34.1077 17.666 33.922 17.2966 33.46 17.0266C30.4268 15.2505 27.399 13.464 24.3768 11.6673C23.9623 11.4216 23.5802 11.4164 23.1607 11.6673C20.1236 13.4655 17.0836 15.2573 14.0408 17.0428C13.5932 17.3062 13.4248 17.6792 13.4262 18.1943C13.4349 21.7347 13.4349 25.2757 13.4262 28.8172C13.4262 29.3852 13.6421 29.7575 14.1271 30.0297C15.041 30.5411 15.9354 31.0885 16.8378 31.6205C18.9543 32.8683 21.0706 34.1164 23.1866 35.3647C23.591 35.6039 23.9738 35.5906 24.3739 35.3537C27.3899 33.5683 30.4081 31.787 33.4284 30.0099C33.9127 29.7259 34.1149 29.3477 34.1105 28.7863C34.0911 27.0337 34.1033 25.2819 34.1033 23.5293V23.5263Z" fill="url(#paint8_linear_101_2)"/>
<defs>
<filter id="filter0_d_101_2" x="4.34917" y="3.207" width="39.3017" height="43.3109" filterUnits="userSpaceOnUse" color-interpolation-filters="sRGB">
<feFlood flood-opacity="0" result="BackgroundImageFix"/>
<feColorMatrix in="SourceAlpha" type="matrix" values="0 0 0 0 0 0 0 0 0 0 0 0 0 0 0 0 0 0 127 0" result="hardAlpha"/>
<feOffset dy="0.862462"/>
<feGaussianBlur stdDeviation="0.862462"/>
<feComposite in2="hardAlpha" operator="out"/>
<feColorMatrix type="matrix" values="0 0 0 0 0.369547 0 0 0 0 0.312361 0 0 0 0 0.720833 0 0 0 0.5 0"/>
<feBlend mode="normal" in2="BackgroundImageFix" result="effect1_dropShadow_101_2"/>
<feBlend mode="normal" in="SourceGraphic" in2="effect1_dropShadow_101_2" result="shape"/>
</filter>
<filter id="filter1_d_101_2" x="4.34917" y="3.20687" width="39.3017" height="43.3109" filterUnits="userSpaceOnUse" color-interpolation-filters="sRGB">
<feFlood flood-opacity="0" result="BackgroundImageFix"/>
<feColorMatrix in="SourceAlpha" type="matrix" values="0 0 0 0 0 0 0 0 0 0 0 0 0 0 0 0 0 0 127 0" result="hardAlpha"/>
<feOffset dy="0.862462"/>
<feGaussianBlur stdDeviation="0.862462"/>
<feComposite in2="hardAlpha" operator="out"/>
<feColorMatrix type="matrix" values="0 0 0 0 0.369547 0 0 0 0 0.312361 0 0 0 0 0.720833 0 0 0 0.5 0"/>
<feBlend mode="normal" in2="BackgroundImageFix" result="effect1_dropShadow_101_2"/>
<feBlend mode="normal" in="SourceGraphic" in2="effect1_dropShadow_101_2" result="shape"/>
</filter>
<filter id="filter2_d_101_2" x="4.04827" y="2.90609" width="39.3017" height="43.3109" filterUnits="userSpaceOnUse" color-interpolation-filters="sRGB">
<feFlood flood-opacity="0" result="BackgroundImageFix"/>
<feColorMatrix in="SourceAlpha" type="matrix" values="0 0 0 0 0 0 0 0 0 0 0 0 0 0 0 0 0 0 127 0" result="hardAlpha"/>
<feOffset dy="0.862462"/>
<feGaussianBlur stdDeviation="0.862462"/>
<feComposite in2="hardAlpha" operator="out"/>
<feColorMatrix type="matrix" values="0 0 0 0 0.369547 0 0 0 0 0.312361 0 0 0 0 0.720833 0 0 0 0.5 0"/>
<feBlend mode="normal" in2="BackgroundImageFix" result="effect1_dropShadow_101_2"/>
<feBlend mode="normal" in="SourceGraphic" in2="effect1_dropShadow_101_2" result="shape"/>
</filter>
<linearGradient id="paint0_linear_101_2" x1="3.47511" y1="2.68119" x2="40.6179" y2="46.6335" gradientUnits="userSpaceOnUse">
<stop stop-color="#ECDEF1"/>
<stop offset="0.505111" stop-color="#D5B5FF"/>
<stop offset="1" stop-color="#E8D5FA"/>
</linearGradient>
<linearGradient id="paint1_linear_101_2" x1="20.4812" y1="10.7526" x2="20.2932" y2="43.2287" gradientUnits="userSpaceOnUse">
<stop stop-color="#E067DB"/>
<stop offset="1" stop-color="#4546D8"/>
</linearGradient>
<linearGradient id="paint2_linear_101_2" x1="23.7688" y1="12.5513" x2="23.7688" y2="34.4741" gradientUnits="userSpaceOnUse">
<stop stop-color="#611CFE"/>
<stop offset="1" stop-color="#26D9F1"/>
</linearGradient>
<linearGradient id="paint3_linear_101_2" x1="20.4812" y1="10.7525" x2="20.2932" y2="43.2286" gradientUnits="userSpaceOnUse">
<stop stop-color="#E067DB"/>
<stop offset="1" stop-color="#4546D8"/>
</linearGradient>
<linearGradient id="paint4_linear_101_2" x1="20.1803" y1="10.4517" x2="19.9923" y2="42.9278" gradientUnits="userSpaceOnUse">
<stop stop-color="#E067DB"/>
<stop offset="1" stop-color="#4546D8"/>
</linearGradient>
<linearGradient id="paint5_linear_101_2" x1="23.7679" y1="16.2148" x2="23.7679" y2="30.8151" gradientUnits="userSpaceOnUse">
<stop stop-color="#611CFE"/>
<stop offset="1" stop-color="#26D9F1"/>
</linearGradient>
<linearGradient id="paint6_linear_101_2" x1="23.6162" y1="15" x2="23.6162" y2="32.6244" gradientUnits="userSpaceOnUse">
<stop stop-color="#611CFE"/>
<stop offset="0.468005" stop-color="#5194EE"/>
<stop offset="1" stop-color="#26D9F1"/>
</linearGradient>
<linearGradient id="paint7_linear_101_2" x1="23.7688" y1="12.5513" x2="23.7688" y2="34.4741" gradientUnits="userSpaceOnUse">
<stop stop-color="#611CFE"/>
<stop offset="1" stop-color="#26D9F1"/>
</linearGradient>
<linearGradient id="paint8_linear_101_2" x1="16.1538" y1="14.1539" x2="23.7673" y2="36.9962" gradientUnits="userSpaceOnUse">
<stop stop-color="#611CFE"/>
<stop offset="0.468005" stop-color="#5194EE"/>
<stop offset="1" stop-color="#26D9F1"/>
</linearGradient>
</defs>
</svg>
