<svg width="156" height="96" viewBox="0 0 156 96" fill="none" xmlns="http://www.w3.org/2000/svg">
    <g clip-path="url(#clip0_1280_294)">
        <g>
            <rect x="18" y="33" width="120" height="30" rx="6" fill="var(--theme--background)" class="glow" />
            <rect x="19" y="34" width="118" height="28" rx="5" stroke="var(--theme--primary)" stroke-width="2" />
        </g>
        <path
            d="M124.503 49.5033H123.977L123.79 49.3233C124.443 48.5633 124.837 47.5766 124.837 46.5033C124.837 44.1099 122.897 42.1699 120.503 42.1699C118.11 42.1699 116.17 44.1099 116.17 46.5033C116.17 48.8966 118.11 50.8366 120.503 50.8366C121.577 50.8366 122.563 50.4433 123.323 49.7899L123.503 49.9766V50.5033L126.837 53.8299L127.83 52.8366L124.503 49.5033ZM120.503 49.5033C118.843 49.5033 117.503 48.1633 117.503 46.5033C117.503 44.8433 118.843 43.5033 120.503 43.5033C122.163 43.5033 123.503 44.8433 123.503 46.5033C123.503 48.1633 122.163 49.5033 120.503 49.5033Z"
            fill="var(--theme--primary)" />
        <rect x="26" y="46" width="35" height="4" rx="1" fill="var(--theme--primary-subdued)" />
    </g>
    <defs>
        <clipPath id="clip0_1280_294">
            <rect width="156" height="96" fill="var(--background-page)" class="glow" />
        </clipPath>
    </defs>
</svg>
