<svg width="120" height="120" viewBox="0 0 120 120" fill="none" xmlns="http://www.w3.org/2000/svg">
<g clip-path="url(#clip0_2529_210)">
<mask id="mask0_2529_210" style="mask-type:luminance" maskUnits="userSpaceOnUse" x="0" y="0" width="120" height="120">
<path d="M120 0H0V120H120V0Z" fill="white"/>
</mask>
<g mask="url(#mask0_2529_210)">
<path d="M20.9595 38.653L2.71808 56.8945C1.15598 58.4566 1.15598 60.9892 2.71808 62.5513L44.8578 104.691C46.4199 106.253 48.9526 106.253 50.5147 104.691L68.7561 86.4496C70.3182 84.8875 70.3182 82.3549 68.7561 80.7928L26.6164 38.653C25.0543 37.0909 22.5216 37.0909 20.9595 38.653Z" fill="#DADADA"/>
<path d="M117.282 33.4766L99.0406 15.2352C97.4785 13.6731 94.9458 13.6731 93.3837 15.2352L27.3456 81.2733C25.7835 82.8354 25.7835 85.368 27.3456 86.9301L45.5871 105.172C47.1492 106.734 49.6818 106.734 51.2439 105.172L117.282 39.1335C118.844 37.5714 118.844 35.0387 117.282 33.4766Z" fill="white"/>
</g>
</g>
<defs>
<clipPath id="clip0_2529_210">
<rect width="120" height="120" fill="white"/>
</clipPath>
</defs>
</svg>
