<svg width="120" height="120" viewBox="0 0 120 120" fill="none" xmlns="http://www.w3.org/2000/svg">
<g clip-path="url(#clip0_2529_219)">
<mask id="mask0_2529_219" style="mask-type:luminance" maskUnits="userSpaceOnUse" x="0" y="0" width="120" height="120">
<path d="M120 0H0V120H120V0Z" fill="white"/>
</mask>
<g mask="url(#mask0_2529_219)">
<path d="M88.1154 6.82855C89.6775 5.26646 92.2102 5.26646 93.7723 6.82855L112.115 25.1717C113.678 26.7338 113.678 29.2664 112.115 30.8285L33.7723 109.172C32.2102 110.734 29.6775 110.734 28.1154 109.172L9.77228 90.8285C8.21018 89.2664 8.21018 86.7338 9.77228 85.1717L88.1154 6.82855Z" fill="#D064AC"/>
<path d="M3.82844 30.8284C2.26634 29.2663 2.26634 26.7337 3.82844 25.1716L22.1716 6.82844C23.7337 5.26634 26.2663 5.26634 27.8284 6.82844L98.0012 77.0012C98.4693 77.4693 98.8139 78.0462 99.0041 78.6802L107.933 108.442C108.39 109.968 106.968 111.39 105.442 110.933L75.6802 102.004C75.0462 101.814 74.4693 101.469 74.0012 101.001L3.82844 30.8284Z" fill="#FF99DD"/>
</g>
</g>
<defs>
<clipPath id="clip0_2529_219">
<rect width="120" height="120" fill="white"/>
</clipPath>
</defs>
</svg>
