<svg width="120" height="120" viewBox="0 0 120 120" fill="none" xmlns="http://www.w3.org/2000/svg">
<path d="M60 114C89.8234 114 114 89.8234 114 60C114 30.1766 89.8234 6 60 6C30.1766 6 6 30.1766 6 60C6 89.8234 30.1766 114 60 114Z" fill="#DADADA"/>
<path d="M87.1431 30.3929C88.8622 29.5334 90.6859 31.3571 89.8264 33.0762L70.9885 70.752C70.795 71.139 70.4811 71.4529 70.0941 71.6464L32.4183 90.4842C30.6992 91.3438 28.8755 89.5201 29.7351 87.801L48.5729 50.1252C48.7665 49.7382 49.0803 49.4243 49.4674 49.2308L87.1431 30.3929Z" fill="white"/>
</svg>
