<svg width="120" height="120" viewBox="0 0 120 120" fill="none" xmlns="http://www.w3.org/2000/svg">
<path d="M90.364 0H12.4546C10.2455 0 8.45459 1.79086 8.45459 4V98.857C8.45459 101.066 10.2455 102.857 12.4546 102.857H90.364C92.5731 102.857 94.364 101.066 94.364 98.857V4C94.364 1.79086 92.5731 0 90.364 0Z" fill="#DADADA"/>
<path d="M107.546 34.2855H46.8184C44.6092 34.2855 42.8184 36.0764 42.8184 38.2855V116C42.8184 118.209 44.6092 120 46.8184 120H107.546C109.755 120 111.546 118.209 111.546 116V38.2855C111.546 36.0764 109.755 34.2855 107.546 34.2855Z" fill="white"/>
</svg>
