<svg width="120" height="120" viewBox="0 0 120 120" fill="none" xmlns="http://www.w3.org/2000/svg">
<path d="M60.25 120C91.316 120 116.5 94.8159 116.5 63.7499C116.5 32.6839 91.316 7.49988 60.25 7.49988C29.184 7.49988 4 32.6839 4 63.7499C4 94.8159 29.184 120 60.25 120Z" fill="#D064AC"/>
<path d="M65.875 4.29028C65.875 3.08588 66.5908 2.00542 67.7419 1.65087C72.3225 0.239897 84.6183 -2.40995 96.5795 4.8896C108.457 12.1378 112.817 24.0019 114.135 28.7213C114.473 29.9326 113.903 31.1712 112.817 31.805L70.387 56.5636C68.387 57.7306 65.875 56.2881 65.875 53.9725V4.29028Z" fill="#FF99DD"/>
</svg>
