<svg width="120" height="120" viewBox="0 0 120 120" fill="none" xmlns="http://www.w3.org/2000/svg">
<g clip-path="url(#clip0_2530_195)">
<mask id="mask0_2530_195" style="mask-type:luminance" maskUnits="userSpaceOnUse" x="0" y="0" width="120" height="120">
<path d="M120 0H0V120H120V0Z" fill="white"/>
</mask>
<g mask="url(#mask0_2530_195)">
<path d="M37.0115 12.8283L2.82843 47.0113C1.26633 48.5734 1.26633 51.1061 2.82843 52.6681L56.9314 106.771C58.4935 108.333 61.0261 108.333 62.5882 106.771L96.7712 72.5881C98.3333 71.026 98.3333 68.4933 96.7712 66.9312L42.6683 12.8283C41.1062 11.2662 38.5736 11.2662 37.0115 12.8283Z" fill="#4C2DDB"/>
<path d="M117.299 47.4118L83.1158 13.2288C81.5537 11.6667 79.0211 11.6667 77.459 13.2288L23.356 67.3317C21.7939 68.8938 21.7939 71.4265 23.356 72.9886L57.5391 107.172C59.1012 108.734 61.6338 108.734 63.1959 107.172L117.299 53.0687C118.861 51.5066 118.861 48.9739 117.299 47.4118Z" fill="#6644FF"/>
</g>
</g>
<defs>
<clipPath id="clip0_2530_195">
<rect width="120" height="120" fill="white"/>
</clipPath>
</defs>
</svg>
