<svg width="288" height="42" viewBox="0 0 288 42" fill="none" xmlns="http://www.w3.org/2000/svg">
<g clip-path="url(#clip0_2305_4656)">
<path fill-rule="evenodd" clip-rule="evenodd" d="M55.3927 26.502C55.0669 26.4285 54.8041 26.3445 54.5518 26.2395C54.3837 26.1555 54.2365 26.0715 54.1104 25.956C54.0685 25.9202 54.036 25.8747 54.0158 25.8234C53.9957 25.7722 53.9884 25.7167 53.9948 25.662C54.1209 24.3285 53.9843 23.142 54.0999 21.8295C54.6359 16.4535 58.0205 18.1545 61.0581 17.283C62.7924 16.7895 64.5372 15.8235 65.1784 13.923C65.2835 13.608 65.1889 13.272 64.9682 13.0305C63.0098 10.7984 60.8021 8.79734 58.3883 7.06653C50.2369 1.39862 40.244 -0.986376 30.4082 0.388529C30.3251 0.398463 30.246 0.429298 30.1781 0.478144C30.1103 0.52699 30.0559 0.592248 30.0202 0.667801C29.9845 0.743354 29.9686 0.826728 29.9739 0.91011C29.9793 0.993492 30.0057 1.07415 30.0508 1.14453C31.2369 2.98942 32.8206 4.54633 34.6861 5.70153C35.0225 5.91153 34.8859 6.36303 34.4969 6.26853C33.3738 6.0219 32.3097 5.5582 31.3647 4.90353C31.3124 4.86915 31.2523 4.84828 31.19 4.84278C31.1276 4.83728 31.0648 4.84733 31.0073 4.87203L29.231 5.58603C29.1536 5.61754 29.0857 5.66854 29.034 5.73405C28.9822 5.79956 28.9483 5.87735 28.9356 5.95983C28.9229 6.04232 28.9318 6.12669 28.9615 6.20471C28.9911 6.28273 29.0405 6.35175 29.1048 6.40503C31.4584 8.44258 34.3984 9.68165 37.5017 9.94392C40.605 10.2062 43.7116 9.47813 46.3743 7.86453C46.7107 7.65453 47.2467 8.07453 47.1416 8.45253C46.9629 9.05103 46.7632 9.88053 46.553 11.004C45.1866 17.8605 41.2765 17.3355 36.431 15.603C26.7609 12.096 21.2637 15.0885 16.3866 9.16653C16.0397 8.74653 15.4406 8.61003 15.0412 8.95653C14.4985 9.41787 14.0709 9.99929 13.7925 10.6546C13.5141 11.3099 13.3925 12.021 13.4374 12.7315C13.4823 13.442 13.6925 14.1322 14.0512 14.7473C14.4098 15.3624 14.9072 15.8855 15.5037 16.275C15.6613 16.38 15.861 16.338 15.9767 16.2015C16.2815 15.813 16.5232 15.5715 16.8386 15.4035C17.1644 15.2355 17.3326 15.7185 17.0488 15.96C16.0082 16.8735 15.7139 17.9655 15.0412 20.1285C13.9691 23.499 14.421 26.9535 9.44936 27.8565C6.82162 27.993 6.86367 29.778 5.90717 32.4345C4.79301 35.6475 3.3425 37.0545 0.651696 39.8685C0.273301 40.2465 0.241769 40.866 0.651696 41.2125C1.72381 42.126 2.83797 42.1785 3.96264 41.7165C6.75856 40.5405 8.9133 36.9285 10.9419 34.587C13.2018 31.983 18.6254 33.096 22.7247 30.5445C24.932 29.19 26.2669 27.4575 25.8464 24.8745C25.7729 24.4545 26.2564 24.2025 26.4245 24.591C26.7504 25.326 26.9711 26.103 27.0552 26.901C27.0867 27.1215 27.2654 27.279 27.4861 27.2685C31.9218 27.0165 37.6502 31.899 43.0108 33.222C43.3367 33.306 43.5679 32.928 43.3892 32.6445C42.7308 31.6525 42.2572 30.5498 41.9913 29.3895C41.8861 28.98 42.4958 28.8645 42.706 29.2425C43.5027 30.6832 44.6466 31.9024 46.0342 32.7899C47.4218 33.6773 49.0091 34.2048 50.6523 34.3245C51.9556 34.4295 53.3851 34.272 54.8777 33.8205C56.6645 33.285 58.3148 32.592 60.2803 32.97C61.013 33.0828 61.7158 33.3406 62.3476 33.7283C62.9793 34.1159 63.5272 34.6256 63.9591 35.2275C65.1469 36.9705 67.6695 37.4325 69.0149 35.6055C69.1027 35.4817 69.1567 35.3372 69.1714 35.1862C69.1862 35.0352 69.1612 34.8829 69.099 34.7445C66.1349 27.8145 58.6196 27.342 55.3822 26.502H55.3927Z" fill="white"/>
<path d="M96.3118 11.3295C96.3526 11.102 96.4674 10.8943 96.6385 10.7386C96.8095 10.5829 97.0272 10.488 97.2577 10.4685L100.852 10.1535C100.918 10.1471 100.984 10.1563 101.046 10.1803C101.107 10.2042 101.162 10.2422 101.206 10.2913C101.25 10.3403 101.282 10.399 101.299 10.4627C101.316 10.5263 101.318 10.593 101.304 10.6575L97.6887 30.765C97.6445 31.006 97.5174 31.224 97.3293 31.3813C97.1411 31.5385 96.9039 31.6251 96.6586 31.626H93.9363C93.6945 31.626 93.5158 31.416 93.5474 31.164C93.6104 30.7965 93.1585 30.534 92.8431 30.7545C91.6554 31.5945 90.331 32.0145 88.9015 32.0145C87.9719 32.0367 87.0485 31.8566 86.1954 31.4867C85.3424 31.1169 84.5801 30.566 83.9614 29.8725C82.6501 28.459 81.9413 26.5911 81.9853 24.6645C81.9853 22.0395 82.7947 19.8555 84.4134 18.1125C85.1983 17.2571 86.1585 16.5809 87.2287 16.1297C88.2988 15.6785 89.4538 15.463 90.6148 15.498C92.1179 15.498 93.3897 15.897 94.4303 16.6845C94.7772 16.947 95.3237 16.7895 95.3973 16.359L96.3118 11.319V11.3295ZM90.2154 27.9195C90.7898 27.9376 91.361 27.8284 91.8881 27.5996C92.4151 27.3709 92.8849 27.0283 93.2636 26.5965C94.0427 25.694 94.4552 24.5327 94.4198 23.3415C94.4198 22.2285 94.1045 21.3255 93.4738 20.643C93.1629 20.3002 92.7807 20.0296 92.354 19.85C91.9273 19.6704 91.4664 19.5863 91.0037 19.6035C89.7634 19.6035 88.7649 20.0445 87.9871 20.9265C87.1977 21.8236 86.7805 22.9877 86.8204 24.1815C86.8204 25.284 87.1357 26.1765 87.7664 26.88C88.0762 27.2206 88.457 27.4892 88.8819 27.667C89.3068 27.8447 89.7656 27.9274 90.2259 27.909L90.2154 27.9195ZM106.612 13.3665C105.877 13.3665 105.246 13.104 104.721 12.6C104.464 12.3576 104.261 12.0641 104.126 11.7386C103.99 11.413 103.924 11.0626 103.932 10.71C103.932 9.78598 104.279 8.98798 104.962 8.33698C105.635 7.67548 106.434 7.34998 107.38 7.34998C108.105 7.34998 108.725 7.61248 109.251 8.14798C109.776 8.69398 110.029 9.32398 110.029 10.0275C110.029 10.9515 109.692 11.7285 109.019 12.3795C108.347 13.041 107.548 13.3665 106.612 13.3665ZM106.108 30.7755C106.064 31.0165 105.937 31.2345 105.749 31.3918C105.56 31.549 105.323 31.6356 105.078 31.6365H102.356C102.202 31.6359 102.05 31.6017 101.911 31.5362C101.772 31.4707 101.649 31.3755 101.551 31.2573C101.453 31.1392 101.382 31.001 101.343 30.8524C101.304 30.7038 101.298 30.5485 101.325 30.3975L103.775 16.7475C103.819 16.5047 103.948 16.2853 104.138 16.1278C104.328 15.9704 104.568 15.8849 104.815 15.8865H107.548C107.702 15.887 107.853 15.9213 107.992 15.9868C108.132 16.0523 108.254 16.1475 108.353 16.2656C108.451 16.3838 108.522 16.522 108.561 16.6706C108.6 16.8191 108.606 16.9744 108.578 17.1255L106.108 30.7755ZM123.125 15.96C123.241 16.0125 123.335 16.107 123.388 16.2225C123.441 16.3485 123.43 16.4955 123.377 16.6215L121.927 19.74C121.88 19.8474 121.799 19.9361 121.696 19.992C121.616 20.0317 121.528 20.0524 121.438 20.0524C121.349 20.0524 121.261 20.0317 121.181 19.992C120.687 19.7505 120.13 19.6455 119.541 19.656C118.248 19.656 117.26 20.181 116.556 21.231C116.304 21.63 116.03 22.5645 115.725 24.024L114.548 30.7545C114.506 30.9974 114.38 31.2179 114.192 31.3772C114.003 31.5366 113.765 31.6246 113.518 31.626H110.785C110.63 31.6285 110.476 31.5966 110.334 31.5324C110.192 31.4682 110.067 31.3735 109.966 31.255C109.866 31.1364 109.793 30.9971 109.753 30.847C109.713 30.6969 109.706 30.5398 109.734 30.387L112.194 16.737C112.238 16.4942 112.367 16.2748 112.557 16.1173C112.748 15.9599 112.987 15.8744 113.234 15.876H115.547C115.988 15.876 116.325 16.2645 116.251 16.695C116.188 17.0625 116.671 17.2935 116.955 17.052C117.764 16.2901 118.777 15.7801 119.871 15.5843C120.965 15.3885 122.092 15.5154 123.115 15.9495L123.125 15.96ZM131.523 15.498C134.046 15.498 135.938 16.3065 137.199 17.913C137.833 18.7258 138.272 19.6724 138.483 20.6805C138.694 21.6886 138.672 22.7316 138.419 23.73C138.408 23.8665 138.377 24.003 138.335 24.15C138.229 24.57 137.83 24.843 137.389 24.843H127.718C127.161 24.843 126.688 25.263 126.772 25.809C126.878 26.5125 127.172 27.069 127.655 27.4995C128.349 28.119 129.243 28.4235 130.357 28.4235C131.923 28.4235 133.321 27.8775 134.561 26.7855C134.645 26.7225 134.74 26.6805 134.834 26.6805C134.95 26.6805 135.066 26.733 135.15 26.8275L136.653 28.6125C136.724 28.7038 136.76 28.8177 136.754 28.9333C136.748 29.049 136.701 29.1587 136.621 29.2425C135.704 30.1441 134.617 30.8544 133.422 31.3321C132.227 31.8098 130.95 32.0453 129.663 32.025C127.33 32.025 125.459 31.29 124.008 29.8095C123.29 29.072 122.744 28.185 122.41 27.2119C122.076 26.2389 121.961 25.204 122.074 24.1815C122.121 22.6798 122.558 21.216 123.341 19.9332C124.124 18.6504 125.226 17.5926 126.541 16.863C128.046 15.9611 129.769 15.4889 131.523 15.498ZM127.792 20.706C127.403 21.3045 127.908 21.9975 128.612 21.9975H133.026C133.584 21.9975 134.078 21.546 133.941 21C133.848 20.63 133.68 20.2833 133.447 19.9815C132.942 19.278 132.144 18.9315 131.082 18.942C130.125 18.942 129.295 19.215 128.612 19.761C128.297 20.034 128.023 20.3595 127.792 20.706ZM147.605 32.025C145.345 32.025 143.506 31.311 142.076 29.883C141.358 29.1651 140.796 28.3069 140.425 27.3619C140.054 26.417 139.883 25.4057 139.922 24.3915C139.911 22.9913 140.24 21.6094 140.88 20.3641C141.521 19.1187 142.454 18.0471 143.601 17.241C145.248 16.0908 147.214 15.4816 149.224 15.498C151.946 15.498 154.027 16.401 155.488 18.207C155.572 18.312 155.594 18.4485 155.562 18.585C155.536 18.6686 155.485 18.742 155.415 18.795L152.577 21.0525C152.508 21.1087 152.424 21.1417 152.335 21.147C152.268 21.1478 152.202 21.133 152.142 21.1039C152.082 21.0747 152.029 21.032 151.988 20.979C151.643 20.5358 151.196 20.181 150.687 19.9437C150.177 19.7064 149.618 19.5934 149.056 19.614C147.868 19.614 146.88 19.971 146.102 20.6955C145.646 21.1376 145.288 21.6711 145.052 22.261C144.817 22.8509 144.709 23.4839 144.736 24.1185C144.736 25.2735 145.072 26.1765 145.734 26.8695C146.375 27.5625 147.248 27.9195 148.33 27.9195C149.455 27.9195 150.464 27.4995 151.337 26.6805C151.377 26.6421 151.425 26.6122 151.477 26.5925C151.529 26.5728 151.585 26.5636 151.641 26.5656C151.696 26.5675 151.751 26.5805 151.802 26.6039C151.852 26.6272 151.898 26.6604 151.936 26.7015L153.933 28.9275C154.008 29.0122 154.048 29.1228 154.044 29.2362C154.041 29.3496 153.993 29.4572 153.912 29.5365C152.222 31.1665 149.954 32.0613 147.605 32.025ZM168.648 18.606C168.604 18.8488 168.475 19.0682 168.285 19.2256C168.094 19.3831 167.855 19.4685 167.608 19.467H164.833C164.584 19.4658 164.343 19.5528 164.153 19.7123C163.962 19.8719 163.834 20.0937 163.792 20.3385L162.825 25.7145C162.562 27.1635 163.035 27.888 164.276 27.888C164.791 27.888 165.274 27.7305 165.747 27.426C165.806 27.386 165.874 27.3637 165.945 27.3618C166.016 27.36 166.086 27.3786 166.147 27.4155C166.22 27.4575 166.273 27.531 166.294 27.6255L166.977 30.135C167.012 30.2723 167.004 30.4169 166.956 30.5499C166.907 30.6829 166.819 30.7981 166.704 30.8805C165.579 31.6423 164.247 32.0417 162.888 32.025C161.185 32.025 159.85 31.5315 158.894 30.5445C157.927 29.5785 157.601 28.1295 157.937 26.187L158.936 20.706C158.964 20.5549 158.958 20.3996 158.919 20.2511C158.88 20.1025 158.809 19.9643 158.711 19.8461C158.612 19.728 158.489 19.6328 158.35 19.5673C158.211 19.5018 158.06 19.4675 157.906 19.467H157.706C157.554 19.4661 157.403 19.4321 157.265 19.3672C157.127 19.3023 157.004 19.2081 156.906 19.0912C156.808 18.9743 156.737 18.8374 156.697 18.6902C156.657 18.5429 156.65 18.3888 156.676 18.2385L156.928 16.758C156.971 16.5132 157.098 16.2914 157.289 16.1318C157.479 15.9723 157.72 15.8853 157.969 15.8865H158.947C159.192 15.8856 159.429 15.799 159.617 15.6418C159.805 15.4845 159.932 15.2665 159.977 15.0255L160.534 11.928C160.574 11.7005 160.689 11.4928 160.86 11.3371C161.031 11.1814 161.249 11.0865 161.48 11.067L165.011 10.752C165.076 10.7474 165.141 10.7579 165.201 10.7826C165.261 10.8073 165.315 10.8455 165.357 10.8944C165.4 10.9432 165.431 11.0012 165.448 11.064C165.464 11.1267 165.466 11.1924 165.453 11.256L164.843 14.6475C164.815 14.7985 164.821 14.9538 164.86 15.1024C164.899 15.251 164.97 15.3892 165.068 15.5073C165.167 15.6255 165.29 15.7207 165.429 15.7862C165.568 15.8517 165.719 15.8859 165.873 15.8865H167.87C168.024 15.8858 168.176 15.9187 168.315 15.9829C168.455 16.0471 168.578 16.1411 168.677 16.2582C168.777 16.3753 168.849 16.5127 168.889 16.6607C168.93 16.8088 168.937 16.9638 168.911 17.115L168.648 18.606ZM179.884 25.179L181.387 16.7475C181.432 16.5047 181.561 16.2853 181.751 16.1278C181.941 15.9704 182.181 15.8849 182.428 15.8865H185.119C185.273 15.8855 185.426 15.9186 185.567 15.9834C185.707 16.0483 185.831 16.1433 185.931 16.2616C186.03 16.3799 186.102 16.5187 186.142 16.668C186.181 16.8173 186.187 16.9735 186.159 17.1255L183.71 30.7755C183.666 31.0165 183.539 31.2345 183.351 31.3918C183.163 31.549 182.926 31.6356 182.68 31.6365H180.01C179.951 31.6375 179.892 31.6253 179.838 31.6008C179.785 31.5764 179.737 31.5402 179.698 31.495C179.66 31.4497 179.633 31.3966 179.617 31.3393C179.602 31.2821 179.6 31.2222 179.611 31.164C179.674 30.786 179.212 30.513 178.896 30.744C177.737 31.5727 176.349 32.0205 174.923 32.025C173.031 32.025 171.602 31.395 170.645 30.156C169.678 28.917 169.373 27.2685 169.72 25.2105L171.244 16.7475C171.288 16.5064 171.416 16.2884 171.604 16.1312C171.792 15.9739 172.029 15.8874 172.274 15.8865H175.018C175.172 15.8855 175.325 15.9186 175.466 15.9834C175.606 16.0483 175.73 16.1433 175.83 16.2616C175.929 16.3799 176.001 16.5187 176.041 16.668C176.08 16.8173 176.086 16.9735 176.058 17.1255L174.65 24.9585C174.503 25.851 174.608 26.565 174.965 27.1005C175.323 27.6255 175.89 27.888 176.657 27.888C177.74 27.888 178.581 27.4785 179.18 26.6805C179.506 26.334 179.737 25.8405 179.884 25.179ZM193.086 32.0565C191.52 32.0565 190.143 31.7835 188.924 31.2375C187.908 30.8551 187.03 30.1787 186.401 29.295C186.34 29.1984 186.317 29.082 186.338 28.9695C186.359 28.8645 186.412 28.7595 186.496 28.6965L188.85 26.502C188.924 26.439 189.008 26.397 189.102 26.397C189.218 26.397 189.334 26.4705 189.418 26.565C189.754 27.027 190.301 27.4365 191.036 27.7935C191.846 28.1925 192.655 28.392 193.464 28.392C194.106 28.392 194.6 28.266 194.947 28.0245C195.304 27.7725 195.483 27.4365 195.483 27.006C195.483 26.754 195.388 26.5125 195.199 26.3025C195.01 26.0715 194.778 25.893 194.516 25.7565C194.169 25.599 193.832 25.452 193.496 25.3365C192.351 25.0018 191.269 24.4841 190.29 23.8035C189.785 23.4619 189.376 22.997 189.102 22.453C188.828 21.909 188.698 21.304 188.724 20.6955C188.724 19.1625 189.355 17.9025 190.605 16.9365C192.039 15.9028 193.78 15.3847 195.546 15.4665C196.812 15.4531 198.07 15.6886 199.245 16.1595C200.276 16.59 201.053 17.1675 201.579 17.9025C201.652 17.997 201.684 18.1125 201.652 18.2385C201.642 18.3435 201.589 18.4485 201.505 18.522L199.224 20.5275C199.145 20.5948 199.045 20.632 198.941 20.6325C198.878 20.6322 198.815 20.619 198.757 20.5937C198.699 20.5685 198.647 20.5316 198.604 20.4855C198.19 20.0391 197.69 19.6819 197.133 19.4355C196.533 19.16 195.88 19.0168 195.22 19.0155C194.673 19.0155 194.232 19.1205 193.895 19.3515C193.744 19.4386 193.619 19.5642 193.532 19.7154C193.445 19.8667 193.4 20.0382 193.401 20.2125C193.401 20.433 193.506 20.6325 193.696 20.7795C193.948 20.9895 194.221 21.147 194.516 21.273L194.968 21.4725C195.431 21.662 195.897 21.844 196.365 22.0185C197.441 22.4536 198.409 23.1163 199.203 23.961C199.813 24.6645 200.118 25.557 200.118 26.6175C200.118 28.287 199.477 29.5995 198.184 30.576C196.695 31.6176 194.902 32.1348 193.086 32.046V32.0565Z" fill="white"/>
<g opacity="0.5">
<path d="M213.698 32.004C211.438 32.004 209.599 31.29 208.169 29.862C207.451 29.1442 206.889 28.2859 206.518 27.3409C206.147 26.396 205.976 25.3847 206.015 24.3705C206.005 22.9721 206.335 21.5923 206.976 20.3489C207.616 19.1056 208.549 18.0356 209.693 17.2305C211.341 16.0803 213.307 15.4712 215.317 15.4875C218.039 15.4875 220.12 16.3905 221.571 18.1965C221.655 18.3015 221.676 18.438 221.644 18.564C221.623 18.6498 221.575 18.7268 221.508 18.7845L218.67 21.042C218.597 21.0972 218.509 21.1268 218.418 21.126C218.352 21.1252 218.288 21.1097 218.23 21.0806C218.172 21.0515 218.121 21.0096 218.081 20.958C217.734 20.5134 217.287 20.1576 216.775 19.9202C216.263 19.6829 215.702 19.5707 215.138 19.593C213.95 19.593 212.973 19.9605 212.195 20.685C211.74 21.1259 211.383 21.6577 211.148 22.2457C210.912 22.8337 210.803 23.4647 210.829 24.0975C210.829 25.2525 211.165 26.166 211.817 26.8485C212.468 27.552 213.33 27.8985 214.423 27.8985C215.548 27.8985 216.547 27.4785 217.419 26.6595C217.499 26.5851 217.604 26.5439 217.713 26.544C217.839 26.544 217.945 26.5965 218.029 26.6805L220.026 28.9065C220.11 29.0115 220.152 29.148 220.131 29.274C220.113 29.3674 220.065 29.4523 219.994 29.5155C218.307 31.1429 216.043 32.0375 213.698 32.004ZM226.795 31.101C226.77 31.2493 226.692 31.3838 226.577 31.48C226.461 31.5763 226.315 31.6281 226.164 31.626H222.601C222.508 31.626 222.417 31.6057 222.333 31.5664C222.249 31.5271 222.175 31.4698 222.116 31.3986C222.056 31.3275 222.014 31.2442 221.99 31.1546C221.967 31.0651 221.964 30.9715 221.981 30.8805L225.586 10.9935C225.609 10.8555 225.677 10.7289 225.78 10.6339C225.883 10.5388 226.014 10.4806 226.154 10.4685L230.064 10.1535C230.169 10.1325 230.253 10.1535 230.326 10.2165C230.463 10.3005 230.537 10.4685 230.505 10.626L226.795 31.101ZM238.493 32.004C237.46 32.0343 236.431 31.8596 235.466 31.4902C234.501 31.1207 233.619 30.5637 232.87 29.8515C232.131 29.147 231.548 28.2948 231.161 27.3504C230.773 26.406 230.589 25.3907 230.621 24.3705C230.589 22.961 230.914 21.5662 231.566 20.316C232.219 19.0658 233.177 18.0007 234.352 17.22C235.987 16.0762 237.938 15.4706 239.933 15.4875C242.214 15.4875 244.106 16.191 245.609 17.6085C246.341 18.3211 246.915 19.1787 247.296 20.1263C247.676 21.0738 247.853 22.0903 247.817 23.1105C247.851 24.4306 247.575 25.7404 247.011 26.9347C246.447 28.1291 245.61 29.1748 244.569 29.988C242.84 31.3371 240.698 32.0492 238.504 32.004H238.493ZM238.861 27.8985C239.975 27.8985 240.921 27.5415 241.699 26.838C242.168 26.3925 242.537 25.8519 242.78 25.2524C243.023 24.653 243.135 24.0086 243.108 23.3625C243.131 22.8649 243.056 22.3675 242.887 21.899C242.717 21.4305 242.456 21.0001 242.12 20.6325C241.458 19.9395 240.617 19.5825 239.608 19.5825C238.493 19.5825 237.547 19.95 236.77 20.6535C236.3 21.099 235.932 21.6396 235.689 22.2391C235.446 22.8385 235.334 23.4829 235.361 24.129C235.361 25.242 235.698 26.1555 236.36 26.859C237.032 27.552 237.863 27.8985 238.861 27.8985ZM260.041 25.158L261.607 16.3905C261.632 16.244 261.708 16.1109 261.821 16.0149C261.935 15.9188 262.078 15.8659 262.227 15.8655H265.78C265.871 15.8657 265.962 15.8859 266.045 15.9246C266.128 15.9633 266.201 16.0195 266.26 16.0895C266.319 16.1594 266.362 16.2414 266.387 16.3296C266.411 16.4179 266.415 16.5103 266.4 16.6005L263.804 31.0905C263.779 31.237 263.703 31.3701 263.59 31.4661C263.476 31.5622 263.332 31.6151 263.184 31.6155H260.167C260.108 31.6165 260.049 31.6043 259.995 31.5799C259.941 31.5554 259.893 31.5192 259.855 31.474C259.817 31.4288 259.789 31.3756 259.774 31.3183C259.759 31.2611 259.757 31.2012 259.768 31.143C259.831 30.765 259.368 30.5025 259.053 30.723C257.894 31.5518 256.505 31.9995 255.08 32.004C253.188 32.004 251.758 31.374 250.802 30.1455C249.835 28.9065 249.519 27.2475 249.877 25.1895L251.453 16.3905C251.479 16.2422 251.556 16.1078 251.672 16.0115C251.787 15.9152 251.934 15.8634 252.084 15.8655H255.679C255.771 15.8655 255.863 15.8858 255.947 15.9251C256.031 15.9644 256.105 16.0217 256.164 16.0929C256.223 16.164 256.266 16.2473 256.289 16.3369C256.313 16.4265 256.316 16.52 256.299 16.611L254.796 24.948C254.659 25.8405 254.764 26.544 255.122 27.0795C255.479 27.6045 256.047 27.867 256.814 27.867C257.897 27.867 258.738 27.468 259.337 26.67C259.652 26.3235 259.894 25.8195 260.041 25.158ZM281.977 10.9935C282 10.8555 282.068 10.7289 282.171 10.6339C282.274 10.5388 282.405 10.4806 282.545 10.4685L286.455 10.1535C286.519 10.1476 286.585 10.1567 286.645 10.1801C286.705 10.2034 286.76 10.2405 286.803 10.2882C286.847 10.336 286.879 10.3933 286.897 10.4555C286.915 10.5178 286.918 10.5833 286.907 10.647L283.228 31.101C283.203 31.2475 283.127 31.3806 283.014 31.4766C282.9 31.5727 282.757 31.6256 282.608 31.626H279.539C279.297 31.626 279.118 31.4055 279.15 31.164C279.213 30.7965 278.761 30.534 278.456 30.744C277.258 31.584 275.933 32.004 274.504 32.004C273.574 32.0262 272.651 31.8461 271.798 31.4763C270.945 31.1064 270.182 30.5556 269.564 29.862C268.253 28.4486 267.544 26.5806 267.588 24.654C267.588 22.029 268.397 19.845 270.016 18.102C270.8 17.2448 271.76 16.5665 272.83 16.1135C273.9 15.6605 275.055 15.4434 276.217 15.477C277.636 15.477 278.845 15.834 279.865 16.5375C280.285 16.842 280.947 16.6425 281.042 16.128L281.977 10.983V10.9935ZM275.828 27.8985C276.399 27.9135 276.966 27.8028 277.49 27.5741C278.013 27.3455 278.479 27.0045 278.855 26.5755C279.635 25.673 280.047 24.5117 280.012 23.3205C280.012 22.2075 279.696 21.3045 279.066 20.622C278.755 20.2825 278.374 20.0147 277.949 19.837C277.525 19.6593 277.066 19.5761 276.606 19.593C275.366 19.593 274.367 20.034 273.59 20.916C272.803 21.8105 272.386 22.9703 272.423 24.1605C272.423 25.263 272.738 26.166 273.369 26.8695C273.679 27.2101 274.059 27.4787 274.484 27.6565C274.909 27.8343 275.368 27.9169 275.828 27.8985Z" fill="white"/>
</g>
</g>
<defs>
<clipPath id="clip0_2305_4656">
<rect width="288" height="42" fill="white"/>
</clipPath>
</defs>
</svg>
