<svg width="156" height="96" viewBox="0 0 156 96" fill="none" xmlns="http://www.w3.org/2000/svg">
	<g filter="url(#preview-svg-filter-files)">
		<rect x="19" y="9" width="56" height="36" rx="6" fill="var(--background-page)" />
		<rect x="20" y="10" width="54" height="34" rx="5" stroke="var(--primary)" stroke-width="2" />
	</g>
	<rect x="25" y="15" width="44" height="24" rx="4" fill="var(--primary)" fill-opacity="0.25" />
	<path d="M36.6949 27.2002L45.3898 35.0002H28L36.6949 27.2002Z" fill="var(--primary)" />
	<path d="M52.1526 23L66.0001 34.9999H38.3052L52.1526 23Z" fill="var(--primary)" />
	<rect x="81" y="9" width="56" height="36" rx="6" fill="var(--background-page)" />
	<rect x="82" y="10" width="54" height="34" rx="5" stroke="var(--primary)" stroke-opacity="0.25" stroke-width="2" />
	<rect x="87" y="15" width="44" height="24" rx="4" fill="var(--primary)" fill-opacity="0.25" />
	<path d="M98.6949 27.2002L107.39 35.0002H90L98.6949 27.2002Z" fill="var(--primary)" />
	<path d="M114.153 23L128 34.9999H100.305L114.153 23Z" fill="var(--primary)" />
	<rect x="19" y="51" width="56" height="36" rx="6" fill="var(--background-page)" />
	<rect x="20" y="52" width="54" height="34" rx="5" stroke="var(--primary)" stroke-opacity="0.25" stroke-width="2" />
	<rect x="25" y="57" width="44" height="24" rx="4" fill="var(--primary)" fill-opacity="0.25" />
	<path d="M36.6949 69.2002L45.3898 77.0002H28L36.6949 69.2002Z" fill="var(--primary)" />
	<path d="M52.1526 65L66.0001 76.9999H38.3052L52.1526 65Z" fill="var(--primary)" />
	<rect x="81" y="51" width="56" height="36" rx="6" fill="var(--background-page)" />
	<rect x="82" y="52" width="54" height="34" rx="5" stroke="var(--primary)" stroke-opacity="0.25" stroke-width="2" />
	<rect x="87" y="57" width="44" height="24" rx="4" fill="var(--primary)" fill-opacity="0.25" />
	<path d="M98.6949 69.2002L107.39 77.0002H90L98.6949 69.2002Z" fill="var(--primary)" />
	<path d="M114.153 65L128 76.9999H100.305L114.153 65Z" fill="var(--primary)" />
	<defs>
		<filter id="preview-svg-filter-files" x="11" y="1" width="72" height="52" filterUnits="userSpaceOnUse"
			color-interpolation-filters="sRGB">
			<feFlood flood-opacity="0" result="BackgroundImageFix" />
			<feColorMatrix in="SourceAlpha" type="matrix" values="0 0 0 0 0 0 0 0 0 0 0 0 0 0 0 0 0 0 127 0"
				result="hardAlpha" />
			<feOffset />
			<feGaussianBlur stdDeviation="4" />
			<feColorMatrix type="matrix" values="0 0 0 0 0 0 0 0 0 0.784314 0 0 0 0 0.592157 0 0 0 0.5 0" />
			<feBlend mode="normal" in2="BackgroundImageFix" result="effect1_dropShadow" />
			<feBlend mode="normal" in="SourceGraphic" in2="effect1_dropShadow" result="shape" />
		</filter>
	</defs>
</svg>
