<?xml version="1.0" encoding="UTF-8" standalone="no"?>
<svg width="262px" height="158px" viewBox="0 0 262 158" version="1.1" xmlns="http://www.w3.org/2000/svg" xmlns:xlink="http://www.w3.org/1999/xlink">
    <!-- Generator: Sketch 40.3 (33839) - http://www.bohemiancoding.com/sketch -->
    <title>Shape</title>
    <desc>Created with Sketch.</desc>
    <defs></defs>
    <g id="Page-1" stroke="none" stroke-width="1" fill="none" fill-rule="evenodd">
        <path d="M209,99.7 L209,99.7 L209,99.7 C208.9,99.7 208.9,99.7 209,99.7 C207.8,99.4 206.8,99.1 205.9,98.7 C205,98.3 204.3,97.8 203.7,97.2 L203.7,97 C204.3,91.9 203.7,87.3 204.2,82.1 C206.2,61.9 218.9,68.3 230.3,65 C237.4,63 244.5,58.9 246.3,50.5 C238.5,41.4 229.8,33.4 220.3,26.6 C189.4,4.6 149,-4.2 112.3,1.9 C125.7,25.3 154.4,36 180.1,26.2 C158.8,38.3 132.8,34.7 115.5,18.9 C113,19.9 110.6,21 108.2,22.2 C127.7,40.9 158.2,43 180.1,26.2 C180,26.4 178.1,29.3 175.8,41.4 C170.7,67.2 156,65.2 137.8,58.7 C100,45 79.2,57.7 60.3,31.7 C54.8,34.8 51.4,40.6 51.4,46.9 C51.4,53.4 55,58.9 60.2,61.9 C67.1,57.1 74.9,54.1 83,53.1 C67.3,57.9 60.7,65.2 57.4,75.7 C53.4,88.4 55.1,101.4 36.4,104.8 C26.5,105.3 26.7,112 23.1,122 C18.6,135 12.6,140.2 0.9,152.5 C5.7,158.3 10.7,159 15.8,156.9 C26.3,152.5 34.4,138.9 42,130.1 C50.5,120.3 70.9,124.5 86.3,114.9 C96.9,108.4 102.1,99.6 95.1,84.7 C99.6,89.7 102.3,96 102.7,102.7 C120.5,100.4 144.3,122.1 166,125.7 L166,125.7 C163.8,122.9 162,119.9 160.7,116.8 C158.2,110.8 157.4,105.3 157.9,100.5 C159.9,112.4 171.9,127.7 191.2,129.1 C196.1,129.5 201.5,128.9 207.1,127.2 C213.8,125.2 220,122.6 227.4,124 C232.9,125 238,127.8 241.2,132.5 C246,139.5 256.5,141 261.2,132.4 C250.6,104.7 221.4,102.9 209,99.7 L209,99.7 Z" id="Shape" fill="#FFFFFF"></path>
    </g>
</svg>