<svg width="156" height="96" viewBox="0 0 156 96" fill="none" xmlns="http://www.w3.org/2000/svg">
    <g clip-path="url(#clip0_1283_395)">
        <g filter="url(#filter0_d_1283_395)">
            <rect x="18" y="28" width="120" height="54" rx="6" fill="var(--theme--background)" class="glow" />
            <rect x="19" y="29" width="118" height="52" rx="5" stroke="var(--theme--primary)"
                stroke-width="2" />
        </g>
        <path
            d="M69.9842 61.989L69.9153 62.9535C69.8579 63.7802 69.7201 64.5725 69.502 65.3303C69.2895 66.0881 69.0628 66.7598 68.8216 67.3454C68.5863 67.931 68.3997 68.3845 68.2619 68.706H65.334C65.4258 68.3845 65.555 67.9195 65.7215 67.3109C65.8937 66.7081 66.0487 66.0249 66.1865 65.2614C66.33 64.5036 66.4018 63.7343 66.4018 62.9535V61.989H69.9842Z"
            fill="color-mix(in srgb, var(--theme--background), var(--theme--primary) 75%)" />
        <path
            d="M36.4785 65.6125C36.0945 65.6125 35.7832 65.3012 35.7832 64.9172V45.6953C35.7832 45.3113 36.0945 45 36.4785 45V45C36.8625 45 37.1738 45.3113 37.1738 45.6953V64.9172C37.1738 65.3012 36.8625 65.6125 36.4785 65.6125V65.6125ZM39.721 52.2144C39.2013 52.2144 38.806 51.7841 38.5228 51.3483C38.4275 51.2015 38.3085 51.0715 38.1658 50.9583C37.7927 50.6577 37.2246 50.5074 36.4615 50.5074C35.9754 50.5074 35.5769 50.5638 35.266 50.6765C34.9608 50.7838 34.7346 50.9315 34.5877 51.1193C34.4407 51.3072 34.3644 51.5219 34.3587 51.7635C34.3474 51.9621 34.3842 52.1419 34.469 52.3029C34.5594 52.4586 34.7007 52.6009 34.8929 52.7297C35.0851 52.8531 35.331 52.9659 35.6306 53.0679C35.9302 53.1699 36.2863 53.2611 36.699 53.3416L38.1234 53.6315C39.0844 53.8247 39.9068 54.0797 40.5908 54.3964C41.2748 54.7131 41.8344 55.0862 42.2697 55.5156C42.7049 55.9397 43.0243 56.4174 43.2278 56.9488C43.4369 57.4802 43.5443 58.06 43.55 58.688C43.5443 59.7723 43.2589 60.6902 42.6936 61.4417C42.1284 62.1932 41.32 62.7649 40.2686 63.1567C39.2229 63.5486 37.9652 63.7445 36.4955 63.7445C34.9862 63.7445 33.6691 63.5325 32.5442 63.1084C31.425 62.6843 30.5545 62.0322 29.9327 61.1518C29.4727 60.4907 29.1829 59.6919 29.0631 58.7555C28.9929 58.2061 29.4502 57.754 30.0041 57.754H32.5314C33.0619 57.754 33.4696 58.1854 33.68 58.6725C33.7345 58.7986 33.7996 58.9165 33.8754 59.0262C34.1128 59.3697 34.4464 59.63 34.876 59.8072C35.3112 59.9843 35.8284 60.0729 36.4276 60.0729C36.9307 60.0729 37.3518 60.0138 37.691 59.8958C38.0302 59.7777 38.2874 59.6139 38.4626 59.4046C38.6378 59.1952 38.7283 58.9564 38.7339 58.688C38.7283 58.4357 38.6406 58.2156 38.4711 58.0277C38.3071 57.8345 38.0358 57.6627 37.6571 57.5124C37.2784 57.3568 36.7668 57.2118 36.1224 57.0776L34.3927 56.7234C32.8551 56.4067 31.6426 55.8779 30.7552 55.1372C29.8733 54.391 29.4353 53.3738 29.4409 52.0855C29.4353 51.0388 29.7292 50.1236 30.3227 49.3399C30.9219 48.5508 31.75 47.9362 32.8071 47.496C33.8698 47.0559 35.0879 46.8358 36.4615 46.8358C37.8634 46.8358 39.0759 47.0586 40.099 47.5041C41.1222 47.9496 41.9107 48.5777 42.4647 49.3882C42.8441 49.9341 43.0962 50.5429 43.2209 51.2146C43.3222 51.7596 42.8617 52.2144 42.3073 52.2144H39.721Z"
            fill="color-mix(in srgb, var(--theme--background), var(--theme--primary) 75%)" />
        <rect x="45.9746" y="45" width="15.7625" height="20.6125" rx="2" fill="color-mix(in srgb, var(--theme--background), var(--theme--primary) 75%)" />
        <rect x="73.8623" y="45" width="15.7625" height="20.6125" rx="2" fill="color-mix(in srgb, var(--theme--background), var(--theme--primary) 75%)" />
        <rect x="92.0498" y="45" width="15.7625" height="20.6125" rx="2" fill="color-mix(in srgb, var(--theme--background), var(--theme--primary) 75%)" />
        <rect x="110.237" y="45" width="15.7625" height="20.6125" rx="2" fill="color-mix(in srgb, var(--theme--background), var(--theme--primary) 75%)" />
    </g>
    <defs>
        <clipPath id="clip0_1283_395">
            <rect width="156" height="96" fill="var(--background-page)" class="glow" />
        </clipPath>
    </defs>
</svg>
