<svg viewBox="0 0 212 196" fill="none" xmlns="http://www.w3.org/2000/svg">
<g clip-path="url(#clip0_114_712)">
<rect width="212" height="196" fill="var(--g-color-background-page)"/>
<rect width="20" height="196" fill="var(--module-background-normal)"/>
<rect width="20" height="20" fill="var(--g-color-primary-normal)"/>
<circle cx="10" cy="10" r="2" fill="var(--g-color-background-page)"/>
<rect y="20" width="20" height="20" fill="var(--module-background-active)"/>
<circle cx="10" cy="30" r="2" fill="var(--g-color-primary-normal)"/>
<rect y="40" width="20" height="20" fill="var(--module-background-normal)"/>
<circle cx="10" cy="50" r="2" fill="var(--module-foreground-normal)"/>
<rect y="60" width="20" height="20" fill="var(--module-background-normal)"/>
<circle cx="10" cy="70" r="2" fill="var(--module-foreground-normal)"/>
<rect y="176" width="20" height="20" fill="var(--module-background-normal)"/>
<circle cx="10" cy="186" r="2" fill="var(--module-foreground-normal)"/>
<circle cx="13" cy="183" r="1" fill="var(--g-color-secondary-normal)"/>
<rect x="192" width="20" height="196" fill="var(--g-color-background-normal)"/>
<rect x="192" width="20" height="20" fill="var(--g-color-background-accent)"/>
<circle cx="202" cy="10" r="2" fill="var(--g-color-foreground-accent)"/>
<rect x="20" width="40" height="196" fill="var(--g-color-background-normal)"/>
<rect x="22" y="24" width="36" height="12" rx="4" fill="var(--g-color-background-accent)"/>
<rect x="32" y="29" width="22" height="2" rx="1" fill="var(--g-color-foreground-accent)"/>
<circle cx="28" cy="30" r="2" fill="var(--g-color-primary-normal)"/>
<rect x="32" y="45" width="22" height="2" rx="1" fill="var(--g-color-foreground-accent)"/>
<circle cx="28" cy="46" r="2" fill="var(--g-color-primary-normal)"/>
<rect x="32" y="61" width="22" height="2" rx="1" fill="var(--g-color-foreground-accent)"/>
<circle cx="28" cy="62" r="2" fill="var(--g-color-primary-normal)"/>
<rect x="32" y="77" width="22" height="2" rx="1" fill="var(--g-color-foreground-accent)"/>
<circle cx="28" cy="78" r="2" fill="var(--g-color-primary-normal)"/>
<rect x="20" width="40" height="20" fill="var(--g-color-background-accent)"/>
<rect x="32" y="9" width="22" height="2" rx="1" fill="var(--g-color-foreground-accent)"/>
<circle cx="28" cy="10" r="2" fill="var(--g-color-foreground-accent)"/>
<rect x="68.5" y="36.5" width="51" height="15" rx="3.5" fill="var(--g-color-background-page)" stroke="var(--g-color-primary-normal)"/>
<rect x="69" y="32" width="16" height="2" rx="1" fill="var(--g-color-foreground-accent)"/>
<rect x="68.5" y="146.5" width="51" height="15" rx="3.5" fill="var(--g-color-background-page)" stroke="var(--g-color-border-normal)"/>
<rect x="69" y="141" width="16" height="3" rx="1.5" fill="var(--g-color-primary-subtle)"/>
<rect x="124.5" y="36.5" width="51" height="15" rx="3.5" fill="var(--g-color-background-page)" stroke="var(--g-color-border-normal)"/>
<rect x="125" y="32" width="16" height="2" rx="1" fill="var(--g-color-foreground-accent)"/>
<rect x="124.5" y="146.5" width="51" height="15" rx="3.5" fill="var(--g-color-background-page)" stroke="var(--g-color-border-normal)"/>
<rect x="125" y="141" width="16" height="3" rx="1.5" fill="var(--g-color-secondary-subtle)"/>
<rect x="68.5" y="64.5" width="107" height="15" rx="3.5" fill="var(--g-color-background-page)" stroke="var(--g-color-border-normal)"/>
<rect x="69" y="60" width="16" height="2" rx="1" fill="var(--g-color-foreground-accent)"/>
<path d="M72 174.5H172C173.933 174.5 175.5 176.067 175.5 178V196.5H68.5V178C68.5 176.067 70.067 174.5 72 174.5Z" fill="var(--g-color-background-page)" stroke="var(--g-color-border-normal)"/>
<rect x="69" y="170" width="16" height="2" rx="1" fill="var(--g-color-foreground-accent)"/>
<rect x="68" y="88" width="108" height="1" rx="0.5" fill="var(--g-color-border-subtle)"/>
<rect x="68" y="121" width="52" height="12" rx="4" fill="var(--g-color-primary-normal)"/>
<rect x="124" y="121" width="52" height="12" rx="4" fill="var(--g-color-secondary-normal)"/>
<path d="M68 97H172C174.209 97 176 98.7909 176 101V109C176 111.209 174.209 113 172 113H68V97Z" fill="var(--g-color-background-normal)"/>
<rect x="84" y="102" width="24" height="2" rx="1" fill="var(--g-color-foreground-accent)"/>
<rect x="84" y="106" width="76" height="2" rx="1" fill="var(--g-color-foreground-accent)"/>
<rect x="68" y="97" width="2" height="16" fill="var(--g-color-primary-normal)"/>
<circle cx="77" cy="105" r="3" fill="var(--g-color-primary-normal)"/>
<rect x="68" y="8" width="12" height="12" rx="6" fill="var(--g-color-primary-subtle)"/>
<rect x="170" y="8" width="12" height="12" rx="6" fill="var(--g-color-primary-normal)"/>
<rect x="82" y="13" width="32" height="3" rx="1.5" fill="var(--g-color-foreground-accent)"/>
<rect x="82" y="8" width="24" height="2" rx="1" fill="var(--g-color-foreground-subtle)"/>
<circle cx="74" cy="14" r="3" fill="var(--g-color-primary-normal)"/>
<rect x="154" y="8" width="12" height="12" rx="6" fill="var(--g-color-background-normal)"/>
<circle cx="160" cy="14" r="3" fill="var(--g-color-foreground-normal)"/>
</g>
<defs>
<clipPath id="clip0_114_712">
<rect width="212" height="196" fill="white"/>
</clipPath>
</defs>
</svg>
