<svg width="180" height="42" viewBox="0 0 180 42" fill="none" xmlns="http://www.w3.org/2000/svg">
<circle opacity="0.5" cx="22.4469" cy="15.4469" r="13.4469" fill="url(#paint0_radial_3_44)"/>
<circle opacity="0.5" cx="29.9173" cy="25.9055" r="13.4469" fill="url(#paint1_radial_3_44)"/>
<path fill-rule="evenodd" clip-rule="evenodd" d="M38.4035 22.7514V22.7513V22.7513C38.4045 22.124 38.4055 21.4968 38.4055 20.8697C38.4055 20.4124 38.4057 19.955 38.4059 19.4974V19.4971V19.4967V19.4956C38.4064 18.0076 38.407 16.5184 38.4017 15.0296C38.4017 13.973 37.9781 13.1384 37.0754 12.6034C33.7571 10.6415 30.4378 8.68158 27.1175 6.72381C26.1993 6.18169 25.2749 6.20619 24.3652 6.74278C21.1155 8.66841 17.8627 10.5882 14.6067 12.5023C13.6113 13.0879 13.1236 13.9319 13.1282 15.1173C13.1416 18.9343 13.1416 22.751 13.1282 26.5675C13.1282 27.7506 13.6136 28.593 14.6129 29.1786C17.8292 31.0594 21.0364 32.9527 24.2346 34.8583C25.2417 35.4581 26.2163 35.4905 27.2265 34.8915C30.4525 32.9753 33.6832 31.0689 36.9185 29.1723C37.9318 28.578 38.414 27.7055 38.4055 26.5154C38.3994 25.2609 38.4014 24.0061 38.4035 22.7514ZM36.8689 20.353L36.869 20.857V20.8602C36.869 21.3849 36.868 21.9095 36.867 22.4341V22.4342V22.4342C36.8644 23.7917 36.8617 25.149 36.8768 26.5067C36.8814 27.1097 36.6642 27.5159 36.1441 27.8209C35.6347 28.1206 35.1253 28.4204 34.6161 28.7204C34.7016 28.5447 34.7718 28.3542 34.8264 28.1488C35.5143 25.5508 36.1951 22.9522 36.8689 20.353ZM36.8671 16.9391C36.8679 16.3368 36.8698 15.7346 36.8737 15.1323C36.8737 14.5625 36.6743 14.1658 36.1781 13.8758C34.4277 12.8508 32.679 11.8227 30.932 10.7913C32.795 12.6921 34.6551 14.5951 36.512 16.5002C36.6484 16.6405 36.7667 16.787 36.8671 16.9391ZM28.0267 9.07229C27.4916 8.75497 26.9567 8.43735 26.4219 8.11943C25.9767 7.85548 25.5663 7.84995 25.1157 8.11943C23.3513 9.16408 21.5861 10.2067 19.8199 11.2474C22.3605 10.5465 24.9023 9.85075 27.4453 9.16011C27.6356 9.10975 27.8305 9.08033 28.0267 9.07229ZM16.921 12.9531C16.3874 13.2667 15.8538 13.58 15.3201 13.8932C14.8394 14.1761 14.6585 14.5767 14.6601 15.1299C14.6651 17.1922 14.6674 19.2546 14.667 21.3172C14.9886 20.0951 15.308 18.8724 15.6274 17.6496C15.9841 16.2842 16.3408 14.9188 16.7006 13.554C16.7575 13.3378 16.831 13.1374 16.921 12.9531ZM31.7144 30.4309C29.2021 31.1176 26.6906 31.8062 24.1798 32.4968C23.9513 32.5601 23.7293 32.5983 23.514 32.6113L25.1435 33.5725C25.5779 33.8293 25.9891 33.8151 26.4188 33.5606C28.1833 32.5161 29.9485 31.4728 31.7144 30.4309ZM20.5981 30.8915C18.745 29.0094 16.8989 27.121 15.0597 25.2263C14.9059 25.0676 14.7739 24.9022 14.6638 24.7302C14.6628 25.3334 14.6615 25.9366 14.6601 26.5399C14.6601 27.15 14.8919 27.5498 15.4129 27.8422C16.1024 28.2281 16.7817 28.6331 17.4609 29.0379C17.7485 29.2094 18.036 29.3808 18.3243 29.5508L20.5981 30.8915ZM35.6466 17.9463C35.7129 18.0955 35.7496 18.2567 35.7546 18.4205C35.7244 18.7243 35.6373 19.0345 35.5493 19.3476C35.5178 19.4597 35.4862 19.5722 35.457 19.685C35.2479 20.4895 35.0377 21.2938 34.8271 22.0979C34.2279 19.7798 33.6229 17.4632 33.012 15.148C33.7971 15.9495 34.5825 16.7506 35.3682 17.5512C35.4856 17.6628 35.5802 17.7971 35.6466 17.9463ZM24.728 11.527C26.8888 12.1106 29.0467 12.7011 31.2017 13.2984C30.4583 12.5384 29.7153 11.778 28.9725 11.0173C28.6417 10.6782 28.2576 10.5621 27.8132 10.6838L24.728 11.527ZM17.3914 16.9854C18.919 15.4118 20.4505 13.8423 21.9859 12.2767L19.0927 13.068C18.5972 13.2031 18.2974 13.5066 18.1652 14.0163C17.9078 15.0063 17.6498 15.9959 17.3914 16.9854ZM18.3334 26.3423C17.7629 24.1887 17.1962 22.0351 16.6334 19.8815C16.3672 20.8963 16.1006 21.9108 15.8334 22.9251C15.7144 23.3763 15.8102 23.7604 16.1263 24.0844C16.8619 24.8372 17.5976 25.5899 18.3334 26.3423ZM22.5738 30.6745C21.8014 29.8861 21.0293 29.0975 20.2572 28.3087C22.4621 28.9171 24.6669 29.5236 26.8718 30.128C25.8271 30.4147 24.7827 30.7022 23.7385 30.9906C23.2779 31.1146 22.8999 31.008 22.5738 30.6745ZM34.2378 24.346C33.9496 25.4456 33.6617 26.5452 33.3757 27.6454C33.2481 28.1377 32.9768 28.4617 32.4938 28.5937C31.397 28.8913 30.3004 29.1899 29.2041 29.4894C30.8839 27.7771 32.5618 26.0626 34.2378 24.346ZM33.3926 22.6985C33.3908 22.6901 33.389 22.6814 33.3871 22.6724C33.3757 22.6176 33.3622 22.553 33.3455 22.4892C33.12 21.6291 32.8947 20.7687 32.6694 19.908C32.6695 19.9318 32.6696 19.9557 32.6697 19.9795C32.6711 20.2623 32.6725 20.545 32.6725 20.8278V23.6728C32.6725 23.687 32.6724 23.7011 32.6722 23.7152C32.8402 23.5439 33.0082 23.3725 33.1762 23.2012C33.3006 23.0772 33.4003 22.946 33.3996 22.731C33.3973 22.7208 33.395 22.7099 33.3926 22.6985ZM31.6965 16.1879C31.649 16.1562 31.5998 16.1255 31.5487 16.0957C30.6348 15.5609 29.7226 15.0219 28.8103 14.4828C28.5869 14.3508 28.3634 14.2187 28.1399 14.0867C29.0809 14.3443 30.022 14.6013 30.9634 14.8575C31.2424 14.9334 31.4055 15.0812 31.4828 15.3696C31.554 15.6424 31.6253 15.9152 31.6965 16.1879ZM28.0442 28.4502C28.6539 27.8246 29.2639 27.1994 29.8742 26.5745C28.8471 27.1831 27.818 27.7879 26.7869 28.3891C26.7535 28.4089 26.7199 28.4277 26.6864 28.4455C26.919 28.5097 27.1516 28.574 27.3842 28.6383C27.6531 28.7126 27.8479 28.6486 28.0442 28.4502ZM23.2448 27.4973C22.2789 27.2318 21.3127 26.9667 20.3463 26.7021C20.0951 26.6365 19.9606 26.4848 19.8933 26.228C19.8189 25.9428 19.7445 25.6576 19.67 25.3725C19.7356 25.4216 19.8052 25.468 19.8789 25.5117C20.9993 26.175 22.1213 26.8368 23.2448 27.4973ZM18.0029 19.0365C18.2904 20.1221 18.577 21.2079 18.8627 22.2938C18.8585 20.8455 18.8605 19.3967 18.8687 17.9473C18.8693 17.8525 18.8751 17.7604 18.8858 17.6711C18.6493 17.9124 18.4126 18.1536 18.176 18.3948C18.0888 18.4726 18.0259 18.575 17.9951 18.6891C17.9643 18.8031 17.967 18.924 18.0029 19.0365ZM23.3366 13.1189C22.5664 13.9088 21.7956 14.6982 21.0243 15.487C22.2506 14.7626 23.4777 14.0393 24.7056 13.3171C24.7774 13.2747 24.8494 13.2367 24.9213 13.2029C24.6144 13.1184 24.3074 13.0337 24.0005 12.949C23.7338 12.8755 23.5313 12.919 23.3366 13.1189ZM31.1251 20.0577C31.1259 20.3144 31.1267 20.5712 31.1267 20.8278L31.1252 20.8286C31.1252 21.065 31.1247 21.3013 31.1242 21.5375C31.1227 22.2222 31.1212 22.9063 31.1321 23.589C31.1428 23.7194 31.1145 23.85 31.051 23.9636C30.9875 24.0772 30.8919 24.1684 30.7766 24.2252C29.2349 25.124 27.6984 26.032 26.1671 26.9492C25.8865 27.1207 25.6562 27.1136 25.3803 26.9492C23.8587 26.0415 22.3328 25.1411 20.8025 24.2481C20.5126 24.079 20.3928 23.8601 20.3928 23.5155C20.4037 21.7279 20.4037 19.9385 20.3928 18.1472C20.3905 17.7995 20.5258 17.5908 20.8148 17.4225C22.3245 16.5458 23.8281 15.6584 25.3254 14.7601C25.6408 14.5696 25.8943 14.5673 26.215 14.7601C27.7237 15.6652 29.2386 16.559 30.7596 17.4415C31.0286 17.598 31.1375 17.7884 31.1321 18.1045C31.121 18.7542 31.1231 19.406 31.1251 20.0577Z" fill="url(#paint2_linear_3_44)"/>
<path fill-rule="evenodd" clip-rule="evenodd" d="M38.4035 22.7514V22.7513V22.7513C38.4045 22.124 38.4055 21.4968 38.4055 20.8697C38.4055 20.4124 38.4057 19.955 38.4059 19.4974V19.4971V19.4967V19.4956C38.4064 18.0076 38.407 16.5184 38.4017 15.0296C38.4017 13.973 37.9781 13.1384 37.0754 12.6034C33.7571 10.6415 30.4378 8.68158 27.1175 6.72381C26.1993 6.18169 25.2749 6.20619 24.3652 6.74278C21.1155 8.66841 17.8627 10.5882 14.6067 12.5023C13.6113 13.0879 13.1236 13.9319 13.1282 15.1173C13.1416 18.9343 13.1416 22.751 13.1282 26.5675C13.1282 27.7506 13.6136 28.593 14.6129 29.1786C17.8292 31.0594 21.0364 32.9527 24.2346 34.8583C25.2417 35.4581 26.2163 35.4905 27.2265 34.8915C30.4525 32.9753 33.6832 31.0689 36.9185 29.1723C37.9318 28.578 38.414 27.7055 38.4055 26.5154C38.3994 25.2609 38.4014 24.0061 38.4035 22.7514ZM36.8689 20.353L36.869 20.857V20.8602C36.869 21.3849 36.868 21.9095 36.867 22.4341V22.4342V22.4342C36.8644 23.7917 36.8617 25.149 36.8768 26.5067C36.8814 27.1097 36.6642 27.5159 36.1441 27.8209C35.6347 28.1206 35.1253 28.4204 34.6161 28.7204C34.7016 28.5447 34.7718 28.3542 34.8264 28.1488C35.5143 25.5508 36.1951 22.9522 36.8689 20.353ZM36.8671 16.9391C36.8679 16.3368 36.8698 15.7346 36.8737 15.1323C36.8737 14.5625 36.6743 14.1658 36.1781 13.8758C34.4277 12.8508 32.679 11.8227 30.932 10.7913C32.795 12.6921 34.6551 14.5951 36.512 16.5002C36.6484 16.6405 36.7667 16.787 36.8671 16.9391ZM28.0267 9.07229C27.4916 8.75497 26.9567 8.43735 26.4219 8.11943C25.9767 7.85548 25.5663 7.84995 25.1157 8.11943C23.3513 9.16408 21.5861 10.2067 19.8199 11.2474C22.3605 10.5465 24.9023 9.85075 27.4453 9.16011C27.6356 9.10975 27.8305 9.08033 28.0267 9.07229ZM16.921 12.9531C16.3874 13.2667 15.8538 13.58 15.3201 13.8932C14.8394 14.1761 14.6585 14.5767 14.6601 15.1299C14.6651 17.1922 14.6674 19.2546 14.667 21.3172C14.9886 20.0951 15.308 18.8724 15.6274 17.6496C15.9841 16.2842 16.3408 14.9188 16.7006 13.554C16.7575 13.3378 16.831 13.1374 16.921 12.9531ZM31.7144 30.4309C29.2021 31.1176 26.6906 31.8062 24.1798 32.4968C23.9513 32.5601 23.7293 32.5983 23.514 32.6113L25.1435 33.5725C25.5779 33.8293 25.9891 33.8151 26.4188 33.5606C28.1833 32.5161 29.9485 31.4728 31.7144 30.4309ZM20.5981 30.8915C18.745 29.0094 16.8989 27.121 15.0597 25.2263C14.9059 25.0676 14.7739 24.9022 14.6638 24.7302C14.6628 25.3334 14.6615 25.9366 14.6601 26.5399C14.6601 27.15 14.8919 27.5498 15.4129 27.8422C16.1024 28.2281 16.7817 28.6331 17.4609 29.0379C17.7485 29.2094 18.036 29.3808 18.3243 29.5508L20.5981 30.8915ZM35.6466 17.9463C35.7129 18.0955 35.7496 18.2567 35.7546 18.4205C35.7244 18.7243 35.6373 19.0345 35.5493 19.3476C35.5178 19.4597 35.4862 19.5722 35.457 19.685C35.2479 20.4895 35.0377 21.2938 34.8271 22.0979C34.2279 19.7798 33.6229 17.4632 33.012 15.148C33.7971 15.9495 34.5825 16.7506 35.3682 17.5512C35.4856 17.6628 35.5802 17.7971 35.6466 17.9463ZM24.728 11.527C26.8888 12.1106 29.0467 12.7011 31.2017 13.2984C30.4583 12.5384 29.7153 11.778 28.9725 11.0173C28.6417 10.6782 28.2576 10.5621 27.8132 10.6838L24.728 11.527ZM17.3914 16.9854C18.919 15.4118 20.4505 13.8423 21.9859 12.2767L19.0927 13.068C18.5972 13.2031 18.2974 13.5066 18.1652 14.0163C17.9078 15.0063 17.6498 15.9959 17.3914 16.9854ZM18.3334 26.3423C17.7629 24.1887 17.1962 22.0351 16.6334 19.8815C16.3672 20.8963 16.1006 21.9108 15.8334 22.9251C15.7144 23.3763 15.8102 23.7604 16.1263 24.0844C16.8619 24.8372 17.5976 25.5899 18.3334 26.3423ZM22.5738 30.6745C21.8014 29.8861 21.0293 29.0975 20.2572 28.3087C22.4621 28.9171 24.6669 29.5236 26.8718 30.128C25.8271 30.4147 24.7827 30.7022 23.7385 30.9906C23.2779 31.1146 22.8999 31.008 22.5738 30.6745ZM34.2378 24.346C33.9496 25.4456 33.6617 26.5452 33.3757 27.6454C33.2481 28.1377 32.9768 28.4617 32.4938 28.5937C31.397 28.8913 30.3004 29.1899 29.2041 29.4894C30.8839 27.7771 32.5618 26.0626 34.2378 24.346ZM33.3926 22.6985C33.3908 22.6901 33.389 22.6814 33.3871 22.6724C33.3757 22.6176 33.3622 22.553 33.3455 22.4892C33.12 21.6291 32.8947 20.7687 32.6694 19.908C32.6695 19.9318 32.6696 19.9557 32.6697 19.9795C32.6711 20.2623 32.6725 20.545 32.6725 20.8278V23.6728C32.6725 23.687 32.6724 23.7011 32.6722 23.7152C32.8402 23.5439 33.0082 23.3725 33.1762 23.2012C33.3006 23.0772 33.4003 22.946 33.3996 22.731C33.3973 22.7208 33.395 22.7099 33.3926 22.6985ZM31.6965 16.1879C31.649 16.1562 31.5998 16.1255 31.5487 16.0957C30.6348 15.5609 29.7226 15.0219 28.8103 14.4828C28.5869 14.3508 28.3634 14.2187 28.1399 14.0867C29.0809 14.3443 30.022 14.6013 30.9634 14.8575C31.2424 14.9334 31.4055 15.0812 31.4828 15.3696C31.554 15.6424 31.6253 15.9152 31.6965 16.1879ZM28.0442 28.4502C28.6539 27.8246 29.2639 27.1994 29.8742 26.5745C28.8471 27.1831 27.818 27.7879 26.7869 28.3891C26.7535 28.4089 26.7199 28.4277 26.6864 28.4455C26.919 28.5097 27.1516 28.574 27.3842 28.6383C27.6531 28.7126 27.8479 28.6486 28.0442 28.4502ZM23.2448 27.4973C22.2789 27.2318 21.3127 26.9667 20.3463 26.7021C20.0951 26.6365 19.9606 26.4848 19.8933 26.228C19.8189 25.9428 19.7445 25.6576 19.67 25.3725C19.7356 25.4216 19.8052 25.468 19.8789 25.5117C20.9993 26.175 22.1213 26.8368 23.2448 27.4973ZM18.0029 19.0365C18.2904 20.1221 18.577 21.2079 18.8627 22.2938C18.8585 20.8455 18.8605 19.3967 18.8687 17.9473C18.8693 17.8525 18.8751 17.7604 18.8858 17.6711C18.6493 17.9124 18.4126 18.1536 18.176 18.3948C18.0888 18.4726 18.0259 18.575 17.9951 18.6891C17.9643 18.8031 17.967 18.924 18.0029 19.0365ZM23.3366 13.1189C22.5664 13.9088 21.7956 14.6982 21.0243 15.487C22.2506 14.7626 23.4777 14.0393 24.7056 13.3171C24.7774 13.2747 24.8494 13.2367 24.9213 13.2029C24.6144 13.1184 24.3074 13.0337 24.0005 12.949C23.7338 12.8755 23.5313 12.919 23.3366 13.1189ZM31.1251 20.0577C31.1259 20.3144 31.1267 20.5712 31.1267 20.8278L31.1252 20.8286C31.1252 21.065 31.1247 21.3013 31.1242 21.5375C31.1227 22.2222 31.1212 22.9063 31.1321 23.589C31.1428 23.7194 31.1145 23.85 31.051 23.9636C30.9875 24.0772 30.8919 24.1684 30.7766 24.2252C29.2349 25.124 27.6984 26.032 26.1671 26.9492C25.8865 27.1207 25.6562 27.1136 25.3803 26.9492C23.8587 26.0415 22.3328 25.1411 20.8025 24.2481C20.5126 24.079 20.3928 23.8601 20.3928 23.5155C20.4037 21.7279 20.4037 19.9385 20.3928 18.1472C20.3905 17.7995 20.5258 17.5908 20.8148 17.4225C22.3245 16.5458 23.8281 15.6584 25.3254 14.7601C25.6408 14.5696 25.8943 14.5673 26.215 14.7601C27.7237 15.6652 29.2386 16.559 30.7596 17.4415C31.0286 17.598 31.1375 17.7884 31.1321 18.1045C31.121 18.7542 31.1231 19.406 31.1251 20.0577Z" fill="url(#paint3_linear_3_44)" fill-opacity="0.3"/>
<path d="M53.3798 15.8344C51.804 15.8344 50.5158 16.3972 49.5528 17.3102V10.119H45.4633V29.3288H49.5528V21.875C49.5528 20.0616 50.4908 19.2111 51.829 19.2111C52.9796 19.2111 53.7925 19.6364 53.7925 21.4748V29.3288H57.8821V20.6619C57.8821 17.5603 56.3563 15.8344 53.3798 15.8344Z" fill="#FAFAFA"/>
<path d="M75.1784 22.7004C75.1784 18.6609 72.0268 15.8344 67.6746 15.8344C63.2598 15.8344 60.1207 18.6609 60.1207 22.7129C60.1207 26.5524 62.9597 29.5789 67.6746 29.5789C70.9138 29.5789 73.1149 28.0532 74.2154 26.2772L70.5135 24.6764C69.9758 25.7145 68.9127 26.3523 67.6496 26.3523C65.9862 26.3523 64.623 25.3393 64.2854 23.5759H75.1284C75.1659 23.2757 75.1784 22.9756 75.1784 22.7004ZM67.6496 18.8485C69.2879 18.8485 70.3385 19.6864 70.8137 20.9745H64.473C64.9607 19.5863 66.0863 18.8485 67.6496 18.8485Z" fill="#FAFAFA"/>
<path d="M80.7563 29.3288L83.6202 25.5894L86.4717 29.3288H91.6368L86.2091 22.6754L91.6368 16.0845H86.4967L83.6077 19.7864L80.7438 16.0845H75.5911L81.0189 22.6754L75.5911 29.3288H80.7563Z" fill="#FAFAFA"/>
<path d="M95.5889 14.3837C96.802 14.3837 97.84 13.3832 97.84 12.12C97.84 10.8694 96.802 9.86887 95.5889 9.86887C94.3257 9.86887 93.2877 10.8694 93.2877 12.12C93.2877 13.3832 94.3257 14.3837 95.5889 14.3837ZM97.6024 29.3288V16.0845H93.5253V29.3288H97.6024Z" fill="#FAFAFA"/>
<path d="M107.382 35.557C111.772 35.557 114.824 32.7806 114.824 28.791V16.0845H110.734V17.3477C109.671 16.3722 108.245 15.8344 106.632 15.8344C102.88 15.8344 99.9661 18.7984 99.9661 22.7004C99.9661 26.5899 102.88 29.5789 106.632 29.5789C108.245 29.5789 109.671 29.0412 110.734 28.0782V28.8285C110.734 30.8171 109.296 32.1302 107.37 32.1302C105.769 32.1302 104.431 31.4424 103.355 30.0667L100.604 32.6305C102.743 34.9942 105.169 35.557 107.382 35.557ZM107.495 26.1647C105.581 26.1647 104.056 24.8015 104.056 22.7004C104.056 20.6119 105.581 19.2487 107.495 19.2487C109.396 19.2487 110.947 20.6619 110.947 22.7004C110.947 24.764 109.396 26.1647 107.495 26.1647Z" fill="#FAFAFA"/>
<path d="M124.729 29.5789C129.081 29.5789 132.233 26.7525 132.233 22.7004C132.233 18.6609 129.081 15.8344 124.729 15.8344C120.314 15.8344 117.175 18.6609 117.175 22.7004C117.175 26.7525 120.314 29.5789 124.729 29.5789ZM124.704 26.1647C122.79 26.1647 121.264 24.8015 121.264 22.7004C121.264 20.6119 122.79 19.2487 124.704 19.2487C126.605 19.2487 128.155 20.6619 128.155 22.7004C128.155 24.764 126.605 26.1647 124.704 26.1647Z" fill="#FAFAFA"/>
<path d="M142.525 15.8344C140.95 15.8344 139.661 16.3972 138.698 17.3102V16.0845H134.621V29.3288H138.698V21.875C138.698 20.0616 139.636 19.2111 140.975 19.2111C142.125 19.2111 142.938 19.6364 142.938 21.4748V29.3288H147.028V20.6619C147.028 17.5603 145.514 15.8344 142.525 15.8344Z" fill="#FAFAFA"/>
<path d="M166.613 29.3288L158.696 10.119H156.708L148.791 29.3288H151.167L152.943 24.9766H162.486L164.261 29.3288H166.613ZM157.721 13.2456L161.66 22.9255H153.769L157.721 13.2456Z" fill="#FAFAFA"/>
<path d="M171.24 29.3288V10.119H169.064V29.3288H171.24Z" fill="#FAFAFA"/>
<defs>
<radialGradient id="paint0_radial_3_44" cx="0" cy="0" r="1" gradientUnits="userSpaceOnUse" gradientTransform="translate(22.4469 15.4469) rotate(90) scale(13.4469)">
<stop stop-color="#8627FF" stop-opacity="0.39"/>
<stop offset="1" stop-color="#FF1BF6" stop-opacity="0"/>
</radialGradient>
<radialGradient id="paint1_radial_3_44" cx="0" cy="0" r="1" gradientUnits="userSpaceOnUse" gradientTransform="translate(29.9173 25.9055) rotate(90) scale(13.4469)">
<stop stop-color="#FF8227" stop-opacity="0.39"/>
<stop offset="0.894097" stop-color="#EB28EF" stop-opacity="0"/>
</radialGradient>
<linearGradient id="paint2_linear_3_44" x1="25.7679" y1="13.0037" x2="25.7679" y2="28.6856" gradientUnits="userSpaceOnUse">
<stop stop-color="#611CFE"/>
<stop offset="1" stop-color="#B026F1"/>
</linearGradient>
<linearGradient id="paint3_linear_3_44" x1="13.1282" y1="6.32861" x2="28.7707" y2="33.6021" gradientUnits="userSpaceOnUse">
<stop stop-color="#DB86F9"/>
<stop offset="0.504464" stop-color="#F199FF"/>
<stop offset="1" stop-color="#9557F9"/>
</linearGradient>
</defs>
</svg>
