<svg width="64" height="39" fill="none" xmlns="http://www.w3.org/2000/svg">
  <path fill="#FFFFFF" fill-rule="evenodd" clip-rule="evenodd" d="M51.18 24.61c-.3-.07-.55-.15-.77-.25-.16-.07-.3-.16-.42-.26a.31.31 0 0 1-.1-.27c.11-1.24-.02-2.33.1-3.56.5-5 3.64-3.41 6.46-4.23 1.62-.45 3.24-1.35 3.83-3.1.1-.3.01-.61-.19-.84a36.2 36.2 0 0 0-6.12-5.54A36.73 36.73 0 0 0 27.94.36a.46.46 0 0 0-.33.7 13.7 13.7 0 0 0 4.31 4.24c.31.19.19.6-.17.52a8.2 8.2 0 0 1-2.92-1.26.35.35 0 0 0-.33-.04l-1.64.67a.45.45 0 0 0-.12.75A13.7 13.7 0 0 0 42.8 7.3c.3-.19.8.2.7.55a27 27 0 0 0-.54 2.37c-1.26 6.37-4.9 5.87-9.4 4.27-9-3.26-14.12-.48-18.66-5.98-.31-.38-.87-.51-1.24-.19a4.25 4.25 0 0 0 .43 6.8c.14.1.33.05.44-.08.28-.35.5-.59.8-.74.3-.16.46.29.2.52-.97.85-1.25 1.87-1.88 3.87-.99 3.13-.57 6.34-5.2 7.18-2.45.12-2.4 1.78-3.29 4.25-1.03 2.98-2.39 4.3-4.9 6.9-.34.36-.36.93.01 1.25 1 .85 2.04.9 3.09.46 2.6-1.08 4.6-4.44 6.48-6.61 2.1-2.42 7.15-1.39 10.97-3.76 2.05-1.25 3.29-2.86 2.9-5.27-.07-.38.37-.62.53-.26.31.68.51 1.4.6 2.16.02.2.2.34.39.33 4.12-.23 9.46 4.3 14.44 5.53.3.08.52-.27.35-.53a9.17 9.17 0 0 1-1.3-3.02c-.1-.39.47-.5.66-.14a9.2 9.2 0 0 0 7.4 4.71c1.2.1 2.54-.05 3.93-.47 1.66-.5 3.19-1.14 5.02-.79 1.36.25 2.63.94 3.42 2.1 1.1 1.62 3.45 2.04 4.7.35a.81.81 0 0 0 .08-.8c-2.76-6.43-9.75-6.88-12.75-7.65Z" />
</svg>
